<svg width="24" height="24" viewBox="0 0 24 24" fill="none" xmlns="http://www.w3.org/2000/svg">
<path fill-rule="evenodd" clip-rule="evenodd" d="M8.6117 1.99992C8.62915 1.99996 8.64617 2.00001 8.66274 2.00001L20.2231 2C20.3423 1.99996 20.4845 1.9999 20.6098 2.01014C20.755 2.02201 20.963 2.05245 21.181 2.1635C21.4632 2.30731 21.6927 2.53678 21.8365 2.81902C21.9476 3.03697 21.978 3.24496 21.9899 3.39018C22.0001 3.51549 22.0001 3.65774 22 3.77686C22 3.78468 22 3.7924 22 3.80001V15.3373C22 15.3538 22 15.3709 22.0001 15.3883C22.0006 15.5782 22.0012 15.8174 21.9447 16.0527C21.8957 16.2568 21.8149 16.4518 21.7053 16.6308C21.5788 16.8371 21.4093 17.0058 21.2746 17.1397C21.2623 17.152 21.2502 17.164 21.2385 17.1757L17.1757 21.2385C17.164 21.2502 17.152 21.2623 17.1397 21.2746C17.0058 21.4093 16.8371 21.5788 16.6308 21.7053C16.4518 21.8149 16.2568 21.8958 16.0527 21.9447C15.8173 22.0012 15.5782 22.0006 15.3883 22.0001C15.3709 22.0001 15.3538 22 15.3373 22H3.8C3.79239 22 3.78467 22 3.77685 22C3.65774 22.0001 3.51549 22.0001 3.39017 21.9899C3.24495 21.978 3.03696 21.9476 2.81901 21.8365C2.53677 21.6927 2.3073 21.4632 2.16349 21.181C2.05244 20.963 2.022 20.7551 2.01013 20.6098C1.99989 20.4845 1.99995 20.3423 1.99999 20.2231L2 8.66275C2 8.64618 1.99995 8.62915 1.99991 8.61171C1.9994 8.4218 1.99876 8.18266 2.05526 7.94733C2.10425 7.74326 2.18506 7.54817 2.29472 7.36922C2.42117 7.16287 2.59072 6.99423 2.72537 6.8603C2.73773 6.848 2.74981 6.83599 2.76152 6.82427L6.82426 2.76153C6.83598 2.74981 6.84799 2.73774 6.86029 2.72538C6.99422 2.59073 7.16286 2.42118 7.36922 2.29473C7.54816 2.18507 7.74325 2.10426 7.94732 2.05527C8.18265 1.99877 8.42179 1.99941 8.6117 1.99992ZM8.41528 4.00259C8.41443 4.00336 8.41355 4.00416 8.41263 4.005C8.37751 4.03705 8.33111 4.08311 8.23848 4.17574L5.41421 7.00001H15.5858L18.5858 4.00001H8.66274C8.53174 4.00001 8.46636 4.00025 8.41887 4.00242C8.41762 4.00247 8.41643 4.00253 8.41528 4.00259ZM20 5.41422V15.3373C20 15.4683 19.9998 15.5336 19.9976 15.5811C19.9975 15.5824 19.9975 15.5836 19.9974 15.5847C19.9966 15.5856 19.9958 15.5865 19.995 15.5874C19.963 15.6225 19.9169 15.6689 19.8243 15.7615L17 18.5858V8.41422L20 5.41422ZM15 9.00001H4V20H15V9.00001Z" fill="#344054"/>
</svg>
