<svg width="24" height="24" viewBox="0 0 24 24" fill="none" xmlns="http://www.w3.org/2000/svg">
<path fill-rule="evenodd" clip-rule="evenodd" d="M11.5971 1.18498C11.8629 1.13031 12.1371 1.13031 12.4029 1.18498C12.7102 1.24818 12.9848 1.40201 13.2032 1.5243C13.2235 1.53569 13.2433 1.54681 13.2627 1.55755L20.6627 5.66866C20.6831 5.68003 20.7042 5.69164 20.7258 5.70353C20.9569 5.83084 21.2476 5.99091 21.4707 6.23309C21.6637 6.44247 21.8097 6.69064 21.899 6.96098C22.0023 7.27369 22.0011 7.60547 22.0002 7.86934C22.0001 7.894 22 7.91807 22 7.94147V16.0586C22 16.082 22.0001 16.106 22.0002 16.1307C22.0011 16.3946 22.0023 16.7264 21.899 17.0391C21.8097 17.3094 21.6637 17.5576 21.4707 17.767C21.2476 18.0091 20.9569 18.1692 20.7258 18.2965C20.7042 18.3084 20.6831 18.32 20.6627 18.3314L13.2627 22.4425C13.2433 22.4532 13.2235 22.4644 13.2032 22.4757C12.9848 22.598 12.7102 22.7519 12.4029 22.8151C12.1371 22.8697 11.8629 22.8697 11.5971 22.8151C11.2898 22.7519 11.0152 22.598 10.7968 22.4757C10.7765 22.4644 10.7567 22.4532 10.7373 22.4425L3.33733 18.3314C3.31687 18.32 3.2958 18.3084 3.2742 18.2965C3.04306 18.1692 2.75244 18.0091 2.52927 17.767C2.33632 17.5576 2.19029 17.3094 2.10097 17.0391C1.99765 16.7264 1.99886 16.3946 1.99982 16.1307C1.99991 16.106 2 16.082 2 16.0586V7.94147C2 7.91807 1.99991 7.894 1.99982 7.86934C1.99886 7.60547 1.99765 7.27369 2.10097 6.96099C2.19029 6.69063 2.33631 6.44247 2.52927 6.23309C2.75244 5.99091 3.04306 5.83084 3.27419 5.70354C3.29579 5.69164 3.31687 5.68003 3.33733 5.66866L10.7373 1.55755C10.7567 1.54681 10.7765 1.53569 10.7968 1.5243C11.0152 1.40201 11.2898 1.24818 11.5971 1.18498ZM12 3.14901C11.9985 3.14974 11.9969 3.1505 11.9952 3.1513C11.9375 3.17913 11.8602 3.22167 11.7086 3.30586L5.05914 7.00002L12 10.856L18.9408 7L12.2914 3.30586C12.1398 3.22167 12.0625 3.17913 12.0048 3.1513C12.0031 3.1505 12.0015 3.14974 12 3.14901ZM20 8.69949V16.0586C20 16.2416 19.9996 16.3352 19.9955 16.403C19.9954 16.405 19.9953 16.4069 19.9951 16.4088C19.9936 16.4097 19.992 16.4108 19.9903 16.4119C19.933 16.4484 19.8513 16.4942 19.6914 16.5831L13 20.3005L13 12.5884L20 8.69949ZM11 12.5884L4 8.69953V16.0586C4 16.2416 4.00042 16.3352 4.0045 16.403C4.00462 16.405 4.00474 16.4069 4.00486 16.4088C4.0064 16.4097 4.00801 16.4108 4.0097 16.4119C4.067 16.4484 4.14866 16.4942 4.30861 16.5831L11 20.3005L11 12.5884Z" fill="#344054"/>
</svg>
