<svg width="24" height="24" viewBox="0 0 24 24" fill="none" xmlns="http://www.w3.org/2000/svg">
<path fill-rule="evenodd" clip-rule="evenodd" d="M11.5971 1.18499C11.8629 1.13031 12.1371 1.13031 12.4029 1.18498C12.7102 1.24818 12.9848 1.40201 13.2032 1.5243C13.2235 1.53569 13.2433 1.54681 13.2627 1.55755L12.777 2.43171L13.2627 1.55755L14.7356 2.37587C15.2184 2.64408 15.3924 3.25288 15.1242 3.73567C14.8559 4.21845 14.2471 4.39239 13.7644 4.12418L12.2914 3.30586C12.1398 3.22167 12.0625 3.17913 12.0048 3.1513C12.0031 3.1505 12.0015 3.14974 12 3.14901C11.9985 3.14974 11.9969 3.1505 11.9952 3.1513C11.9375 3.17913 11.8602 3.22167 11.7086 3.30586L10.2356 4.12418C9.75286 4.39239 9.14406 4.21845 8.87584 3.73567C8.60763 3.25288 8.78157 2.64408 9.26436 2.37587L10.7373 1.55755C10.7567 1.54681 10.7765 1.53569 10.7968 1.5243C11.0152 1.40201 11.2898 1.24818 11.5971 1.18499ZM17.8758 5.26438C18.1441 4.7816 18.7529 4.60765 19.2356 4.87587L20.6627 5.66866C20.6831 5.68002 20.7042 5.69163 20.7258 5.70353C20.8859 5.79172 21.0746 5.89563 21.2496 6.03167C21.5058 6.09775 21.7355 6.2648 21.8742 6.51438C22.0042 6.7484 22.0303 7.01203 21.9677 7.25212C22.0016 7.47118 22.0008 7.68655 22.0002 7.86934C22.0001 7.894 22 7.91807 22 7.94147V9.50002C22 10.0523 21.5523 10.5 21 10.5C20.4477 10.5 20 10.0523 20 9.50002V8.69954L19.2356 9.12418C18.7529 9.39239 18.1441 9.21845 17.8758 8.73567C17.6076 8.25288 17.7816 7.64408 18.2644 7.37587L18.9409 7.00002L18.2644 6.62418C17.7816 6.35597 17.6076 5.74716 17.8758 5.26438ZM6.12416 5.26438C6.39237 5.74717 6.21843 6.35597 5.73564 6.62418L5.05913 7.00002L5.73564 7.37587C6.21843 7.64408 6.39237 8.25288 6.12416 8.73567C5.85594 9.21845 5.24714 9.39239 4.76436 9.12418L4 8.69954V9.50002C4 10.0523 3.55228 10.5 3 10.5C2.44771 10.5 2 10.0523 2 9.50002V7.94147C2 7.91807 1.99991 7.894 1.99982 7.86934C1.99916 7.68655 1.99837 7.47117 2.0323 7.25212C1.96971 7.01203 1.99583 6.7484 2.12584 6.51438C2.2645 6.2648 2.49418 6.09775 2.75042 6.03167C2.92543 5.89563 3.11408 5.79173 3.27418 5.70354C3.29578 5.69164 3.31687 5.68003 3.33733 5.66866L3.33733 5.66866L4.76436 4.87587C5.24714 4.60765 5.85594 4.7816 6.12416 5.26438ZM8.87584 10.2644C9.14406 9.7816 9.75286 9.60765 10.2356 9.87587L12 10.8561L13.7644 9.87587C14.2471 9.60765 14.8559 9.7816 15.1242 10.2644C15.3924 10.7472 15.2184 11.356 14.7356 11.6242L13 12.5884V14.5C13 15.0523 12.5523 15.5 12 15.5C11.4477 15.5 11 15.0523 11 14.5V12.5884L9.26436 11.6242C8.78157 11.356 8.60763 10.7472 8.87584 10.2644ZM3 13.5C3.55228 13.5 4 13.9477 4 14.5V16.0586C4 16.2416 4.00042 16.3352 4.0045 16.403C4.00462 16.405 4.00474 16.4069 4.00486 16.4088C4.0064 16.4097 4.00802 16.4108 4.00971 16.4119C4.067 16.4484 4.14867 16.4942 4.30861 16.5831L3.8779 17.3584L4.30861 16.5831L5.73564 17.3759C6.21843 17.6441 6.39237 18.2529 6.12416 18.7357C5.85594 19.2184 5.24714 19.3924 4.76436 19.1242L3.33733 18.3314L3.82297 17.4572L3.33733 18.3314C3.31688 18.32 3.2958 18.3084 3.27421 18.2965C3.04308 18.1692 2.75244 18.0091 2.52926 17.767C2.33632 17.5576 2.19029 17.3094 2.10097 17.0391C1.99765 16.7264 1.99886 16.3946 1.99982 16.1307C1.99991 16.106 2 16.082 2 16.0586V14.5C2 13.9477 2.44771 13.5 3 13.5ZM21 13.5C21.5523 13.5 22 13.9477 22 14.5V16.0586C22 16.082 22.0001 16.106 22.0002 16.1307C22.0011 16.3946 22.0023 16.7264 21.899 17.0391C21.8097 17.3094 21.6637 17.5576 21.4707 17.767C21.2476 18.0091 20.9569 18.1692 20.7258 18.2965C20.7042 18.3084 20.6831 18.32 20.6627 18.3314L19.2356 19.1242C18.7529 19.3924 18.1441 19.2184 17.8758 18.7357C17.6076 18.2529 17.7816 17.6441 18.2644 17.3759L19.6914 16.5831C19.8513 16.4942 19.933 16.4484 19.9903 16.4119C19.992 16.4108 19.9936 16.4097 19.9951 16.4088C19.9953 16.4069 19.9954 16.405 19.9955 16.403C19.9996 16.3352 20 16.2416 20 16.0586V14.5C20 13.9477 20.4477 13.5 21 13.5ZM12 18.5C12.5523 18.5 13 18.9477 13 19.5V20.3005L13.7644 19.8759C14.2471 19.6077 14.8559 19.7816 15.1242 20.2644C15.3924 20.7472 15.2184 21.356 14.7356 21.6242L13.2627 22.4425C13.2433 22.4532 13.2235 22.4644 13.2032 22.4757C13.0529 22.5599 12.8759 22.659 12.68 22.7333C12.5015 22.8988 12.2626 23 12 23C11.7374 23 11.4985 22.8988 11.32 22.7333C11.1241 22.659 10.9471 22.5599 10.7968 22.4757C10.7765 22.4644 10.7567 22.4532 10.7373 22.4425L9.26436 21.6242C8.78157 21.356 8.60763 20.7472 8.87584 20.2644C9.14406 19.7816 9.75286 19.6077 10.2356 19.8759L11 20.3005V19.5C11 18.9477 11.4477 18.5 12 18.5Z" fill="#344054"/>
</svg>
