<svg width="24" height="24" viewBox="0 0 24 24" fill="none" xmlns="http://www.w3.org/2000/svg">
<path fill-rule="evenodd" clip-rule="evenodd" d="M7.86891 1.99982C7.89357 1.99991 7.91764 2 7.94104 2L16.0582 2C16.0816 2 16.1056 1.99992 16.1303 1.99983C16.3942 1.99886 16.7259 1.99766 17.0386 2.10097C17.309 2.1903 17.5572 2.33632 17.7665 2.52927C18.0087 2.75244 18.1688 3.04306 18.2961 3.27419C18.308 3.29579 18.3196 3.31687 18.331 3.33733L22.4421 10.7373C22.4528 10.7567 22.4639 10.7765 22.4753 10.7968C22.5976 11.0152 22.7514 11.2898 22.8146 11.5971C22.8693 11.8629 22.8693 12.1371 22.8146 12.4029C22.7514 12.7102 22.5976 12.9848 22.4753 13.2032C22.4639 13.2235 22.4528 13.2433 22.4421 13.2627L18.331 20.6627C18.3196 20.6831 18.308 20.7042 18.2961 20.7258C18.1688 20.9569 18.0087 21.2476 17.7665 21.4707C17.5571 21.6637 17.309 21.8097 17.0386 21.899C16.7259 22.0023 16.3942 22.0011 16.1303 22.0002C16.1056 22.0001 16.0816 22 16.0582 22H7.94104C7.91764 22 7.89357 22.0001 7.86891 22.0002C7.60504 22.0011 7.27326 22.0023 6.96056 21.899C6.69021 21.8097 6.44204 21.6637 6.23266 21.4707C5.99048 21.2476 5.83041 20.9569 5.70311 20.7258C5.69121 20.7042 5.6796 20.6831 5.66823 20.6627L1.55712 13.2627C1.54638 13.2433 1.53526 13.2235 1.52388 13.2032C1.40158 12.9848 1.24775 12.7102 1.18456 12.4029C1.12989 12.1371 1.12989 11.8629 1.18456 11.5971C1.24775 11.2898 1.40158 11.0152 1.52387 10.7968C1.53526 10.7765 1.54638 10.7567 1.55712 10.7373L5.66823 3.33733C5.6796 3.31687 5.69121 3.29579 5.70311 3.27419C5.83041 3.04306 5.99048 2.75244 6.23266 2.52927C6.44204 2.33632 6.69021 2.1903 6.96056 2.10097C7.27326 1.99765 7.60504 1.99886 7.86891 1.99982ZM7.59086 4.00487C7.58987 4.0064 7.58883 4.00802 7.58776 4.0097C7.55125 4.067 7.50541 4.14866 7.41655 4.30862L3.30544 11.7086C3.22125 11.8602 3.17871 11.9375 3.15087 11.9952C3.15007 11.9969 3.14931 11.9985 3.14858 12C3.14931 12.0015 3.15007 12.0031 3.15087 12.0048C3.17871 12.0625 3.22125 12.1398 3.30544 12.2914L7.41655 19.6914C7.50541 19.8513 7.55125 19.933 7.58776 19.9903C7.58883 19.992 7.58987 19.9936 7.59086 19.9951C7.59269 19.9953 7.5946 19.9954 7.5966 19.9955C7.66441 19.9996 7.75806 20 7.94104 20H16.0582C16.2411 20 16.3348 19.9996 16.4026 19.9955C16.4046 19.9954 16.4065 19.9953 16.4083 19.9951C16.4093 19.9936 16.4104 19.992 16.4114 19.9903C16.4479 19.933 16.4938 19.8513 16.5826 19.6914L20.6938 12.2914C20.7779 12.1398 20.8205 12.0625 20.8483 12.0048C20.8491 12.0031 20.8499 12.0015 20.8506 12C20.8499 11.9985 20.8491 11.9969 20.8483 11.9952C20.8205 11.9375 20.7779 11.8602 20.6938 11.7086L16.5826 4.30862C16.4938 4.14867 16.4479 4.067 16.4114 4.00971C16.4104 4.00802 16.4093 4.0064 16.4083 4.00487C16.4065 4.00475 16.4046 4.00462 16.4026 4.0045C16.3348 4.00042 16.2411 4 16.0582 4L7.94104 4C7.75806 4 7.66441 4.00042 7.5966 4.0045C7.5946 4.00462 7.59269 4.00475 7.59086 4.00487Z" fill="#344054"/>
</svg>
