<svg width="24" height="24" viewBox="0 0 24 24" fill="none" xmlns="http://www.w3.org/2000/svg">
<path fill-rule="evenodd" clip-rule="evenodd" d="M9.23862 4.48036C7.21139 3.88411 5.74123 4.15841 4.94972 4.94992C4.15821 5.74143 3.88391 7.21159 4.48015 9.23882C5.06425 11.2247 6.43237 13.5036 8.48525 15.5565C9.62376 16.695 10.8318 17.6229 12.0208 18.3233C13.2098 17.6229 14.4178 16.695 15.5563 15.5565C15.839 15.2739 16.109 14.9865 16.3662 14.6958C16.7321 14.2821 17.364 14.2433 17.7777 14.6092C18.1914 14.9751 18.2302 15.6071 17.8643 16.0208C17.58 16.3422 17.282 16.6593 16.9705 16.9707C16.067 17.8743 15.112 18.6688 14.139 19.341C14.3634 19.4239 14.5849 19.4975 14.803 19.5616C16.8302 20.1579 18.3004 19.8836 19.0919 19.0921C19.8834 18.3006 20.1577 16.8304 19.5614 14.8032C19.3509 14.0873 19.0384 13.3333 18.6287 12.5656C18.6014 12.5229 18.5773 12.4784 18.5568 12.4325C17.8344 11.1122 16.8264 9.75558 15.5563 8.48546C14.4178 7.34695 13.2098 6.41906 12.0208 5.71871C10.8318 6.41906 9.62376 7.34695 8.48525 8.48546C8.18979 8.78092 7.90806 9.08154 7.64048 9.38578C7.27575 9.80049 6.64388 9.84101 6.22917 9.47627C5.81446 9.11153 5.77394 8.47967 6.13868 8.06495C6.43452 7.72858 6.74547 7.39681 7.07104 7.07124C7.9746 6.16769 8.92961 5.37314 9.90258 4.70094C9.67819 4.61805 9.45664 4.54448 9.23862 4.48036ZM12.0208 3.44366C11.273 3.07108 10.5288 2.7751 9.80295 2.56163C7.47951 1.87826 5.08715 1.98407 3.53551 3.53571C1.98387 5.08735 1.87806 7.47971 2.56142 9.80316C2.77491 10.529 3.07089 11.2732 3.44348 12.021C2.69374 13.5259 2.2422 15.0402 2.16948 16.4323C2.089 17.9731 2.47418 19.4449 3.53551 20.5063C5.08715 22.0579 7.47951 22.1637 9.80295 21.4804C10.5288 21.2669 11.273 20.9709 12.0208 20.5983C12.7686 20.9709 13.5128 21.2669 14.2386 21.4804C16.5621 22.1637 18.9544 22.0579 20.5061 20.5063C22.0577 18.9546 22.1635 16.5623 21.4802 14.2388C21.2667 13.513 20.9707 12.7688 20.5981 12.021C21.3473 10.5172 21.7987 9.00403 21.8719 7.61284C21.9531 6.07091 21.5681 4.59778 20.5061 3.53571C18.9544 1.98407 16.5621 1.87826 14.2386 2.56163C13.5128 2.7751 12.7686 3.07108 12.0208 3.44366ZM14.139 4.70094C15.112 5.37314 16.067 6.16769 16.9705 7.07124C17.8741 7.9748 18.6686 8.92982 19.3409 9.9028C19.6596 9.03975 19.8367 8.22912 19.8747 7.50769C19.9359 6.34486 19.6373 5.49536 19.0919 4.94992C18.3004 4.15842 16.8302 3.88411 14.803 4.48036C14.5849 4.54448 14.3634 4.61805 14.139 4.70094ZM9.90258 19.341C8.9296 18.6688 7.97459 17.8743 7.07104 16.9707C6.16748 16.0672 5.37293 15.1122 4.70072 14.1392C4.38159 15.0032 4.20447 15.8147 4.16676 16.5367C4.10608 17.6983 4.40465 18.547 4.94972 19.0921C5.74123 19.8836 7.21139 20.1579 9.23862 19.5616C9.45664 19.4975 9.67819 19.4239 9.90258 19.341ZM9.99997 12.0001C9.99997 10.8955 10.8954 10.0001 12 10.0001C13.1045 10.0001 14 10.8955 14 12.0001C14 13.1047 13.1045 14.0001 12 14.0001C10.8954 14.0001 9.99997 13.1047 9.99997 12.0001Z" fill="#344054"/>
</svg>
