<svg width="24" height="24" viewBox="0 0 24 24" fill="none" xmlns="http://www.w3.org/2000/svg">
<path d="M12.4679 12.1105C12.793 12.2845 12.996 12.6234 12.996 12.9922V16.9922H13.246C13.7983 16.9922 14.246 17.4399 14.246 17.9922C14.246 18.5445 13.7983 18.9922 13.246 18.9922H10.746C10.1937 18.9922 9.74603 18.5445 9.74603 17.9922C9.74603 17.4399 10.1937 16.9922 10.746 16.9922H10.996V14.8583C10.5431 15.1204 9.95834 14.9884 9.66398 14.5469C9.35763 14.0874 9.4818 13.4665 9.94133 13.1601L11.4413 12.1601C11.7482 11.9556 12.1427 11.9365 12.4679 12.1105Z" fill="#344054"/>
<path fill-rule="evenodd" clip-rule="evenodd" d="M9.04238 1.99012C8.68459 1.37331 8.02545 0.993652 7.31238 0.993652H3.71176C2.18375 0.993652 1.22014 2.63777 1.96679 3.97094L5.93871 11.0629C5.0214 12.308 4.47932 13.8465 4.47932 15.5116C4.47932 19.658 7.84063 23.0193 11.987 23.0193C16.1334 23.0193 19.4947 19.658 19.4947 15.5116C19.4947 11.764 16.7489 8.65775 13.1593 8.09489C13.332 8.12196 13.5027 8.15491 13.6712 8.19354L16.6875 2.99365L20.2881 2.99365L16.5965 9.58511C17.1476 10.0143 17.6372 10.5187 18.05 11.0829L22.0331 3.97094C22.7798 2.63777 21.8161 0.993652 20.2881 0.993652H16.6875C15.9744 0.993652 15.3153 1.37331 14.9575 1.99012L11.9999 7.08871L9.04238 1.99012ZM7.39553 9.57114C8.24582 8.91297 9.24127 8.43331 10.3257 8.18835L7.31238 2.99365L3.71176 2.99365L7.39553 9.57114ZM11.987 21.0193C8.9452 21.0193 6.47932 18.5534 6.47932 15.5116C6.47932 12.4698 8.9452 10.0039 11.987 10.0039C15.0288 10.0039 17.4947 12.4698 17.4947 15.5116C17.4947 18.5534 15.0288 21.0193 11.987 21.0193Z" fill="#344054"/>
</svg>
