<svg width="24" height="24" viewBox="0 0 24 24" fill="none" xmlns="http://www.w3.org/2000/svg">
<path fill-rule="evenodd" clip-rule="evenodd" d="M7.16141 1H16.8385C17.3656 0.999983 17.8204 0.999967 18.195 1.03057C18.5903 1.06287 18.9835 1.13419 19.3619 1.32698C19.9264 1.6146 20.3854 2.07354 20.673 2.63803C20.8658 3.01641 20.9371 3.40963 20.9694 3.80497C21 4.17954 21 4.6343 21 5.16144V5.8775C21 5.90121 21 5.92472 21 5.94804C21.0003 6.29465 21.0005 6.6004 20.9387 6.90157C20.8844 7.16636 20.7945 7.42259 20.6715 7.6633C20.5316 7.93709 20.3404 8.17569 20.1237 8.44619C20.1091 8.46438 20.0944 8.48272 20.0796 8.50122L16.4767 13.0049C18.583 15.3608 18.5049 18.9803 16.2426 21.2426C13.8995 23.5858 10.1005 23.5858 7.75731 21.2426C5.49498 18.9803 5.41695 15.3608 7.52323 13.0049L3.9203 8.50122C3.9055 8.48271 3.8908 8.46437 3.87621 8.44617C3.65947 8.17568 3.46828 7.93708 3.3284 7.6633C3.20543 7.42258 3.11555 7.16636 3.0612 6.90157C2.99939 6.6004 2.99964 6.29465 2.99991 5.94804C2.99993 5.92471 2.99995 5.90121 2.99995 5.8775L2.99995 5.16146C2.99993 4.63431 2.99992 4.17955 3.03052 3.80497C3.06282 3.40963 3.13414 3.01641 3.32693 2.63803C3.61455 2.07354 4.07349 1.6146 4.63798 1.32698C5.01636 1.13419 5.40958 1.06287 5.80492 1.03057C6.1795 0.999967 6.63426 0.999983 7.16141 1ZM9.0841 11.7544C9.43445 11.5594 9.80019 11.4022 10.1754 11.2828L5.00143 4.63064C5.00006 4.79568 4.99995 4.98343 4.99995 5.2V5.8775C4.99995 6.3336 5.00467 6.42298 5.02037 6.49948C5.03848 6.58775 5.06844 6.67315 5.10944 6.75339C5.14497 6.82294 5.19712 6.89568 5.48204 7.25183L9.0841 11.7544ZM6.27294 3.00781L12 10.3712L17.727 3.00781C17.4879 3.00036 17.1909 3 16.8 3H7.19995C6.80901 3 6.512 3.00036 6.27294 3.00781ZM18.9985 4.63067L13.8246 11.2829C14.1998 11.4023 14.5655 11.5594 14.9158 11.7544L18.5179 7.25183C18.8028 6.89568 18.8549 6.82294 18.8905 6.75339C18.9315 6.67315 18.9614 6.58775 18.9795 6.49948C18.9952 6.42298 19 6.3336 19 5.8775V5.2C19 4.98344 18.9998 4.7957 18.9985 4.63067ZM14.8284 19.8284C16.3905 18.2663 16.3905 15.7337 14.8284 14.1716C13.2663 12.6095 10.7336 12.6095 9.17152 14.1716C7.60943 15.7337 7.60943 18.2663 9.17152 19.8284C10.7336 21.3905 13.2663 21.3905 14.8284 19.8284Z" fill="#344054"/>
</svg>
