<svg width="24" height="24" viewBox="0 0 24 24" fill="none" xmlns="http://www.w3.org/2000/svg">
<path fill-rule="evenodd" clip-rule="evenodd" d="M12 3C8.68629 3 6 5.68629 6 9C6 11.0213 6.99948 12.8091 8.53117 13.8962C8.53907 13.9016 8.54689 13.9072 8.55462 13.9128C9.52965 14.5978 10.7179 15 12 15C13.2825 15 14.471 14.5976 15.4462 13.9122C15.4539 13.9066 15.4618 13.901 15.4697 13.8956C17.0009 12.8084 18 11.0209 18 9C18 5.68629 15.3137 3 12 3ZM17.1016 15.1626C18.8722 13.6952 20 11.4793 20 9C20 4.58172 16.4183 1 12 1C7.58172 1 4 4.58172 4 9C4 11.4797 5.12819 13.6959 6.89928 15.1633L6.00871 21.8683C5.95815 22.249 6.13002 22.625 6.45096 22.8358C6.7719 23.0466 7.18522 23.0551 7.5145 22.8575L12 20.1662L16.4855 22.8575C16.8148 23.055 17.228 23.0466 17.549 22.8358C17.8699 22.6251 18.0418 22.2491 17.9913 21.8685L17.1016 15.1626ZM15.2374 16.3179C14.2476 16.7564 13.1522 17 12 17C10.8481 17 9.75299 16.7565 8.76344 16.3182L8.26444 20.0751L11.0739 18.3895C11.0823 18.3844 11.092 18.3785 11.103 18.3718C11.2083 18.3072 11.4267 18.1733 11.6783 18.118C11.8902 18.0715 12.1098 18.0715 12.3217 18.118C12.5733 18.1733 12.7917 18.3072 12.897 18.3718C12.908 18.3785 12.9177 18.3844 12.9261 18.3895L12.4116 19.247M15.2374 16.3179L15.7359 20.0753L12.9261 18.3895L12.4116 19.247" fill="#344054"/>
</svg>
