<svg width="24" height="24" viewBox="0 0 24 24" fill="none" xmlns="http://www.w3.org/2000/svg">
<path fill-rule="evenodd" clip-rule="evenodd" d="M9.72574 3.03992C9.59724 2.98669 9.45286 2.98669 9.32436 3.03992C9.19586 3.09315 9.09376 3.19525 9.04052 3.32378L8.49777 4.63414C8.24099 5.25138 7.74988 5.74156 7.13217 5.99716C7.13198 5.99724 7.13236 5.99708 7.13217 5.99716L5.82422 6.53895C5.76056 6.5653 5.70241 6.60406 5.65368 6.65277C5.60495 6.70149 5.5663 6.75933 5.53993 6.823C5.51356 6.88666 5.49999 6.9549 5.5 7.02381C5.50001 7.09273 5.5136 7.16096 5.53999 7.22462L5.5405 7.22585L6.08087 8.53421C6.08075 8.53393 6.08099 8.5345 6.08087 8.53421C6.33702 9.1522 6.33778 9.84747 6.08232 10.4658L5.54047 11.774C5.54044 11.774 5.54049 11.7739 5.54047 11.774C5.48742 11.9024 5.48744 12.0469 5.54067 12.1753C5.59392 12.3037 5.696 12.4058 5.82444 12.459L7.13333 13.0011C7.75128 13.2578 8.24287 13.7495 8.49867 14.3678L8.78595 15.0613C8.79078 15.0724 8.79542 15.0836 8.79985 15.0949L9.04076 15.6765C9.04072 15.6764 9.04079 15.6766 9.04076 15.6765C9.09405 15.8048 9.19615 15.9069 9.32447 15.9601C9.45283 16.0132 9.59704 16.0133 9.72544 15.9602C9.72541 15.9603 9.72548 15.9602 9.72544 15.9602L11.0333 15.4193C11.0331 15.4194 11.0335 15.4192 11.0333 15.4193C11.6514 15.163 12.3464 15.1623 12.9648 15.4178L14.2736 15.96C14.4021 16.0132 14.5465 16.0132 14.675 15.96C14.8035 15.9067 14.9056 15.8046 14.9588 15.6761L15.2007 15.0921C15.2052 15.0808 15.2098 15.0696 15.2146 15.0585L15.501 14.3672C15.7576 13.7492 16.2493 13.2576 16.8676 13.0018C16.8674 13.0019 16.8678 13.0017 16.8676 13.0018L18.1755 12.46C18.2392 12.4336 18.2973 12.3949 18.3461 12.3462C18.3948 12.2974 18.4334 12.2396 18.4598 12.1759C18.4862 12.1123 18.4997 12.044 18.4997 11.9751C18.4997 11.9062 18.4861 11.838 18.4597 11.7743L17.9195 10.4681C17.9193 10.4676 17.9191 10.4672 17.9189 10.4668C17.6614 9.84721 17.6624 9.15161 17.9183 8.53368L18.4601 7.22568C18.5133 7.09716 18.5133 6.95274 18.4601 6.82421C18.4068 6.69569 18.3047 6.59359 18.1762 6.54036L16.8673 5.99818C16.2655 5.74825 15.7834 5.27522 15.5225 4.67956C15.5153 4.66456 15.5086 4.64931 15.5022 4.63382L14.9599 3.32463C14.9599 3.32459 14.9599 3.32468 14.9599 3.32463C14.9066 3.19621 14.8045 3.09405 14.6761 3.04085C14.5476 2.98763 14.4033 2.98762 14.2748 3.04082L12.9661 3.5806C12.9657 3.58076 12.9653 3.58091 12.9649 3.58107C12.347 3.83712 11.6527 3.83749 11.0345 3.58205L9.72574 3.03992ZM17.3345 3.83123C17.3399 3.84294 17.345 3.85479 17.35 3.86678C17.4031 3.99526 17.5051 4.09737 17.6334 4.15071C17.6334 4.15069 17.6335 4.15073 17.6334 4.15071L18.9416 4.69261C19.5602 4.94884 20.0516 5.4403 20.3078 6.05887C20.5641 6.67744 20.5641 7.37246 20.3078 7.99103L19.7661 9.29902C19.7126 9.42811 19.7129 9.57226 19.7659 9.69943L19.7668 9.70154L20.3073 11.0084C20.3072 11.0081 20.3074 11.0086 20.3073 11.0084M17.3345 3.83123L16.8076 2.55915C16.5514 1.94074 16.0599 1.44928 15.4415 1.1931C14.8232 0.936998 14.1286 0.936869 13.5102 1.19272C13.51 1.1928 13.5104 1.19265 13.5102 1.19272L12.2015 1.7325L12.1995 1.73332C12.0712 1.78657 11.927 1.78672 11.7986 1.73377C11.7985 1.73372 11.7987 1.73382 11.7986 1.73377L10.4911 1.19217C9.87256 0.935943 9.17754 0.935943 8.55897 1.19217C7.9404 1.4484 7.44896 1.93986 7.19275 2.55844L6.65119 3.86594C6.65111 3.86612 6.65126 3.86576 6.65119 3.86594C6.59776 3.99398 6.49556 4.09616 6.36735 4.14917L5.05912 4.69108C5.05903 4.69112 5.05922 4.69104 5.05912 4.69108C4.75279 4.8179 4.47414 5.00395 4.23967 5.23836C4.00512 5.47284 3.81907 5.75124 3.69216 6.05765C3.56524 6.36407 3.49995 6.69248 3.5 7.02413C3.50005 7.35551 3.56534 7.68363 3.69214 7.98977C3.69204 7.98951 3.69225 7.99003 3.69214 7.98977L4.23358 9.30071C4.28683 9.42905 4.28698 9.57329 4.23401 9.70174C4.23396 9.70184 4.23405 9.70163 4.23401 9.70174L3.69244 11.0092C3.43676 11.6277 3.43685 12.323 3.69315 12.9412C3.94946 13.5594 4.44075 14.0506 5.05905 14.3067L6.36713 14.8486C6.36695 14.8485 6.3673 14.8486 6.36713 14.8486C6.49529 14.9019 6.5976 15.0042 6.65067 15.1325L6.84201 15.5945L6.00871 21.8683C5.95815 22.249 6.13002 22.625 6.45096 22.8358C6.7719 23.0466 7.18522 23.0551 7.5145 22.8575L12 20.1662L16.4855 22.8575C16.8148 23.055 17.228 23.0466 17.549 22.8358C17.8699 22.625 18.0418 22.2491 17.9913 21.8685L17.1585 15.5917L17.3484 15.1333C17.3484 15.1335 17.3485 15.1332 17.3484 15.1333C17.4018 15.0051 17.504 14.9028 17.6324 14.8498L18.9406 14.3079C18.9405 14.3079 18.9407 14.3078 18.9406 14.3079M15.4353 17.8098C14.818 18.0639 14.1251 18.0632 13.5082 17.8077L12.2011 17.2662C12.201 17.2662 12.2012 17.2663 12.2011 17.2662C12.0727 17.2133 11.9281 17.2133 11.7998 17.2665L10.4899 17.8084C9.87373 18.0632 9.18177 18.0638 8.56525 17.8104L8.26444 20.0751L11.0739 18.3895C11.0823 18.3844 11.092 18.3785 11.103 18.3718C11.2083 18.3072 11.4267 18.1732 11.6783 18.118C11.8902 18.0715 12.1098 18.0715 12.3217 18.118C12.5733 18.1732 12.7917 18.3072 12.897 18.3718C12.908 18.3785 12.9177 18.3844 12.9261 18.3895L15.7359 20.0753L15.4353 17.8098Z" fill="#344054"/>
</svg>
