<svg width="24" height="24" viewBox="0 0 24 24" fill="none" xmlns="http://www.w3.org/2000/svg">
<path fill-rule="evenodd" clip-rule="evenodd" d="M7.67501 2H16.325C17.0913 1.99999 17.7237 1.99998 18.2397 2.04016C18.7753 2.08186 19.2687 2.1713 19.7355 2.39613C20.552 2.7893 21.2107 3.44803 21.6039 4.26447C21.8287 4.73133 21.9181 5.22465 21.9598 5.76028C22 6.27627 22 6.90873 22 7.67502V7.75498C22 8.78668 22 9.61884 21.9475 10.2937C21.8934 10.9884 21.7792 11.5997 21.5048 12.1694C21.3631 12.4638 21.1937 12.7417 21 13V17.8386C21 18.3657 21 18.8205 20.9694 19.195C20.9371 19.5904 20.8658 19.9836 20.673 20.362C20.3854 20.9265 19.9265 21.3854 19.362 21.673C18.9836 21.8658 18.5904 21.9371 18.195 21.9694C17.8205 22 17.3657 22 16.8386 22H7.16143C6.6343 22 6.17954 22 5.80497 21.9694C5.40963 21.9371 5.01641 21.8658 4.63803 21.673C4.07354 21.3854 3.6146 20.9265 3.32698 20.362C3.13419 19.9836 3.06287 19.5904 3.03057 19.195C2.99997 18.8205 2.99998 18.3657 3 17.8385V13C2.80626 12.7417 2.6369 12.4638 2.49516 12.1694C2.22081 11.5997 2.10662 10.9884 2.05253 10.2937C1.99998 9.61885 1.99999 8.78669 2 7.755L2 7.67501C1.99999 6.90872 1.99998 6.27627 2.04016 5.76028C2.08186 5.22465 2.1713 4.73133 2.39613 4.26447C2.7893 3.44804 3.44804 2.7893 4.26447 2.39613C4.73133 2.1713 5.22465 2.08186 5.76028 2.04016C6.27627 1.99998 6.90872 1.99999 7.67501 2ZM5 14.5813V17.8C5 18.3766 5.00078 18.7488 5.02393 19.0322C5.04612 19.3038 5.0838 19.4045 5.10899 19.454C5.20487 19.6422 5.35785 19.7951 5.54601 19.891C5.59545 19.9162 5.69617 19.9539 5.96784 19.9761C6.25117 19.9992 6.62345 20 7.2 20H16.8C17.3766 20 17.7488 19.9992 18.0322 19.9761C18.3038 19.9539 18.4045 19.9162 18.454 19.891C18.6422 19.7951 18.7951 19.6422 18.891 19.454C18.9162 19.4045 18.9539 19.3038 18.9761 19.0322C18.9992 18.7488 19 18.3766 19 17.8V14.5813C18.4786 14.8011 17.92 14.8987 17.2938 14.9475C16.6188 15 15.7867 15 14.755 15H9.24502C8.21332 15 7.38116 15 6.70625 14.9475C6.07999 14.8987 5.52139 14.8011 5 14.5813ZM5.91554 4.03412C5.49727 4.06669 5.28229 4.1258 5.13223 4.19806C4.72402 4.39465 4.39465 4.72402 4.19806 5.13223C4.1258 5.28229 4.06669 5.49727 4.03412 5.91554C4.00071 6.34467 4 6.89892 4 7.71429C4 8.79621 4.00071 9.55038 4.0465 10.1385C4.09145 10.7157 4.17532 11.0488 4.29709 11.3017C4.59197 11.914 5.08603 12.408 5.69835 12.7029C5.95123 12.8247 6.28425 12.9086 6.86151 12.9535C7.44962 12.9993 8.20379 13 9.28572 13H14.7143C15.7962 13 16.5504 12.9993 17.1385 12.9535C17.7158 12.9086 18.0488 12.8247 18.3017 12.7029C18.914 12.408 19.408 11.914 19.7029 11.3017C19.8247 11.0488 19.9086 10.7158 19.9535 10.1385C19.9993 9.55038 20 8.79621 20 7.71429C20 6.89892 19.9993 6.34467 19.9659 5.91554C19.9333 5.49726 19.8742 5.28229 19.8019 5.13223C19.6054 4.72402 19.276 4.39465 18.8678 4.19806C18.7177 4.1258 18.5027 4.06669 18.0845 4.03412C17.6553 4.00071 17.1011 4 16.2857 4H7.71429C6.89892 4 6.34467 4.00071 5.91554 4.03412ZM8 10C8 9.44772 8.44772 9 9 9H15C15.5523 9 16 9.44772 16 10C16 10.5523 15.5523 11 15 11H9C8.44772 11 8 10.5523 8 10Z" fill="#344054"/>
</svg>
