<svg width="24" height="24" viewBox="0 0 24 24" fill="none" xmlns="http://www.w3.org/2000/svg">
<path fill-rule="evenodd" clip-rule="evenodd" d="M11.8624 2.00005C11.9076 2.00007 11.9535 2.0001 12 2.0001C12.0465 2.0001 12.0924 2.00007 12.1376 2.00005C12.933 1.99962 13.5236 1.9993 14.0353 2.13639C15.4156 2.50626 16.4938 3.58445 16.8637 4.96482C16.9461 5.27229 16.9789 5.60829 16.9918 6.0001L18.8385 6.0001C19.3657 6.00008 19.8205 6.00006 20.195 6.03067C20.5904 6.06297 20.9836 6.13428 21.362 6.32708C21.9265 6.6147 22.3854 7.07364 22.673 7.63812C22.8658 8.0165 22.9371 8.40972 22.9694 8.80507C23 9.17964 23 9.63439 23 10.1615V17.8387C23 18.3658 23 18.8206 22.9694 19.1951C22.9371 19.5905 22.8658 19.9837 22.673 20.3621C22.3854 20.9266 21.9265 21.3855 21.362 21.6731C20.9836 21.8659 20.5904 21.9372 20.195 21.9695C19.8205 22.0001 19.3657 22.0001 18.8386 22.0001H5.16144C4.6343 22.0001 4.17954 22.0001 3.80497 21.9695C3.40963 21.9372 3.01641 21.8659 2.63803 21.6731C2.07354 21.3855 1.6146 20.9266 1.32698 20.3621C1.13419 19.9837 1.06287 19.5905 1.03057 19.1951C0.999967 18.8206 0.999983 18.3658 1 17.8386V10.1616C0.999983 9.6344 0.999967 9.17964 1.03057 8.80507C1.06287 8.40972 1.13419 8.0165 1.32698 7.63812C1.6146 7.07364 2.07354 6.6147 2.63803 6.32708C3.01641 6.13428 3.40963 6.06297 3.80497 6.03067C4.17955 6.00006 4.63431 6.00008 5.16146 6.0001L7.00822 6.0001C7.02115 5.60829 7.05391 5.27229 7.1363 4.96482C7.50617 3.58445 8.58436 2.50626 9.96473 2.13639C10.4764 1.9993 11.067 1.99962 11.8624 2.00005ZM7 8.0001H5.2C4.62345 8.0001 4.25117 8.00087 3.96784 8.02402C3.69617 8.04622 3.59546 8.0839 3.54601 8.10909C3.35785 8.20496 3.20487 8.35794 3.109 8.54611C3.0838 8.59555 3.04612 8.69627 3.02393 8.96793C3.00078 9.25127 3 9.62354 3 10.2001V17.8001C3 18.3766 3.00078 18.7489 3.02393 19.0323C3.04612 19.3039 3.0838 19.4046 3.109 19.4541C3.20487 19.6423 3.35785 19.7952 3.54601 19.8911C3.59546 19.9163 3.69617 19.954 3.96784 19.9762C4.25117 19.9993 4.62345 20.0001 5.2 20.0001H7V8.0001ZM9 20.0001V8.0001H15V20.0001H9ZM17 20.0001H18.8C19.3766 20.0001 19.7488 19.9993 20.0322 19.9762C20.3038 19.954 20.4045 19.9163 20.454 19.8911C20.6422 19.7952 20.7951 19.6423 20.891 19.4541C20.9162 19.4046 20.9539 19.3039 20.9761 19.0323C20.9992 18.7489 21 18.3766 21 17.8001V10.2001C21 9.62354 20.9992 9.25127 20.9761 8.96793C20.9539 8.69627 20.9162 8.59555 20.891 8.54611C20.7951 8.35794 20.6422 8.20496 20.454 8.10909C20.4045 8.0839 20.3038 8.04622 20.0322 8.02402C19.7488 8.00087 19.3766 8.0001 18.8 8.0001H17V20.0001ZM14.9901 6.0001H9.00986C9.01905 5.74252 9.03632 5.60125 9.06815 5.48246C9.25308 4.79227 9.79218 4.25318 10.4824 4.06824C10.7046 4.00869 11.0056 4.0001 12 4.0001C12.9944 4.0001 13.2954 4.00869 13.5176 4.06824C14.2078 4.25318 14.7469 4.79227 14.9319 5.48246C14.9637 5.60125 14.981 5.74252 14.9901 6.0001Z" fill="#344054"/>
</svg>
