<svg width="24" height="24" viewBox="0 0 24 24" fill="none" xmlns="http://www.w3.org/2000/svg">
<path fill-rule="evenodd" clip-rule="evenodd" d="M3.87868 9.87867C5.05025 8.70711 6.94974 8.70711 8.12133 9.87868L3.87868 9.87867ZM9.53553 8.46446L8.82843 9.17157L9.53554 8.46446C10.0409 8.96984 10.4155 9.55649 10.6593 10.1823C11.5355 9.93921 12.4645 9.93922 13.3407 10.1824C13.5845 9.55651 13.9591 8.96985 14.4645 8.46447L15.1716 9.17157L14.4645 8.46446C16.4171 6.51184 19.5829 6.51185 21.5355 8.46446L20.8284 9.17157L21.5355 8.46446C23.4882 10.4171 23.4882 13.5829 21.5355 15.5355L20.8284 14.8284L21.5355 15.5355C19.5829 17.4882 16.4171 17.4882 14.4645 15.5355L15.1716 14.8284L14.4645 15.5355C13.5318 14.6029 13.0446 13.3935 13.0029 12.1717C12.3556 11.9428 11.6444 11.9428 10.9971 12.1716C10.9554 13.3934 10.4682 14.6029 9.53554 15.5355L8.82843 14.8284L9.53554 15.5355C7.58292 17.4882 4.41709 17.4882 2.46447 15.5355L3.17157 14.8284L2.46446 15.5355C0.511844 13.5829 0.511847 10.4171 2.46446 8.46447L2.46446 8.46446C4.41708 6.51184 7.58291 6.51185 9.53553 8.46446ZM20.1213 9.87868C18.9497 8.70711 17.0502 8.70711 15.8787 9.87868C14.7071 11.0503 14.7071 12.9498 15.8787 14.1213C17.0503 15.2929 18.9498 15.2929 20.1213 14.1213C21.2929 12.9497 21.2929 11.0502 20.1213 9.87868ZM8.12133 9.87868C9.29289 11.0502 9.29289 12.9497 8.12132 14.1213L8.12133 9.87868ZM3.87868 9.87868C2.70711 11.0503 2.70711 12.9498 3.87868 14.1213C5.05026 15.2929 6.94975 15.2929 8.12132 14.1213" fill="#344054"/>
</svg>
