<svg width="24" height="24" viewBox="0 0 24 24" fill="none" xmlns="http://www.w3.org/2000/svg">
<path fill-rule="evenodd" clip-rule="evenodd" d="M3.00009 5.5C3.00009 3.01472 5.01481 1 7.50009 1C9.83603 1 11.7563 2.77987 11.9786 5.05742C12.3141 5.01947 12.655 5 13.0001 5C17.9707 5 22.0001 9.02944 22.0001 14C22.0001 17.7786 19.6718 21.011 16.3753 22.3454C15.8634 22.5526 15.2804 22.3056 15.0731 21.7937C14.8659 21.2818 15.1129 20.6988 15.6249 20.4915C18.1921 19.4524 20.0001 16.9361 20.0001 14C20.0001 10.134 16.8661 7 13.0001 7C12.6601 7 12.3263 7.02416 12.0001 7.07076V12.7639C12.4748 13.1886 12.8127 13.7627 12.9424 14.4147C13.0007 14.7076 13.0004 15.0354 13.0001 15.4161C13.0001 15.4438 13.0001 15.4718 13.0001 15.5C13.0001 15.5282 13.0001 15.5562 13.0001 15.5839C13.0004 15.9646 13.0007 16.2924 12.9424 16.5853C12.7057 17.7753 11.7754 18.7056 10.5854 18.9424C10.2925 19.0006 9.96466 19.0003 9.58396 19C9.55628 19 9.52833 19 9.50009 19H5.50009C5.47185 19 5.44389 19 5.41621 19C5.03551 19.0003 4.70767 19.0006 4.41482 18.9424C3.22474 18.7056 2.29445 17.7753 2.05773 16.5853C1.99948 16.2924 1.99974 15.9646 2.00004 15.5839C2.00007 15.5562 2.00009 15.5282 2.00009 15.5C2.00009 15.4718 2.00007 15.4438 2.00004 15.4161C1.99974 15.0354 1.99948 14.7076 2.05773 14.4147C2.18743 13.7627 2.52533 13.1886 3.00009 12.7639V5.5ZM5.50009 12C5.47184 12 5.44388 12 5.4162 12C5.3617 11.9999 5.30829 11.9999 5.25591 12H5.00009V5.5C5.00009 4.11929 6.11938 3 7.50009 3C8.8808 3 10.0001 4.11929 10.0001 5.5V6.22943C9.99977 6.24399 9.99976 6.25859 10.0001 6.27324V12H9.74427C9.69188 11.9999 9.63847 11.9999 9.58397 12C9.55629 12 9.52833 12 9.50009 12H5.50009ZM5.50009 14C4.9875 14 4.87725 14.0048 4.805 14.0192C4.40831 14.0981 4.09821 14.4082 4.0193 14.8049C4.00493 14.8772 4.00009 14.9874 4.00009 15.5C4.00009 16.0126 4.00493 16.1228 4.0193 16.1951C4.09821 16.5918 4.40831 16.9019 4.805 16.9808C4.87725 16.9952 4.9875 17 5.50009 17H9.50009C10.0127 17 10.1229 16.9952 10.1952 16.9808C10.5919 16.9019 10.902 16.5918 10.9809 16.1951C10.9952 16.1228 11.0001 16.0126 11.0001 15.5C11.0001 14.9874 10.9952 14.8772 10.9809 14.8049C10.902 14.4082 10.5919 14.0981 10.1952 14.0192C10.1229 14.0048 10.0127 14 9.50009 14H5.50009ZM2.00009 22C2.00009 21.4477 2.4478 21 3.00009 21H12.0001C12.5524 21 13.0001 21.4477 13.0001 22C13.0001 22.5523 12.5524 23 12.0001 23H3.00009C2.4478 23 2.00009 22.5523 2.00009 22Z" fill="#344054"/>
</svg>
