<svg width="24" height="24" viewBox="0 0 24 24" fill="none" xmlns="http://www.w3.org/2000/svg">
<path fill-rule="evenodd" clip-rule="evenodd" d="M12 1C12.5523 1 13 1.44772 13 2V3L18.8385 3C19.3657 2.99998 19.8205 2.99997 20.195 3.03057C20.5904 3.06287 20.9836 3.13419 21.362 3.32698C21.9265 3.6146 22.3854 4.07354 22.673 4.63803C22.8658 5.01641 22.9371 5.40963 22.9694 5.80497C23 6.17954 23 6.63429 23 7.16143V13.8386C23 14.3657 23 14.8205 22.9694 15.195C22.9371 15.5904 22.8658 15.9836 22.673 16.362C22.3854 16.9265 21.9265 17.3854 21.362 17.673C20.9836 17.8658 20.5904 17.9371 20.195 17.9694C19.8205 18 19.3657 18 18.8386 18H17.4142L20.7071 21.2929C21.0976 21.6834 21.0976 22.3166 20.7071 22.7071C20.3166 23.0976 19.6834 23.0976 19.2929 22.7071L14.5858 18H13V22C13 22.5523 12.5523 23 12 23C11.4477 23 11 22.5523 11 22V18H9.41422L4.70711 22.7071C4.31658 23.0976 3.68342 23.0976 3.2929 22.7071C2.90237 22.3166 2.90237 21.6834 3.2929 21.2929L6.58579 18H5.16144C4.6343 18 4.17954 18 3.80497 17.9694C3.40963 17.9371 3.01641 17.8658 2.63803 17.673C2.07354 17.3854 1.6146 16.9265 1.32698 16.362C1.13419 15.9836 1.06287 15.5904 1.03057 15.195C0.999967 14.8205 0.999983 14.3657 1 13.8385V7.16146C0.999983 6.63431 0.999967 6.17954 1.03057 5.80497C1.06287 5.40963 1.13419 5.01641 1.32698 4.63803C1.6146 4.07354 2.07354 3.6146 2.63803 3.32698C3.01641 3.13419 3.40963 3.06287 3.80497 3.03057C4.17955 2.99997 4.63431 2.99998 5.16146 3L11 3V2C11 1.44772 11.4477 1 12 1ZM5.2 5C4.62345 5 4.25117 5.00078 3.96784 5.02393C3.69617 5.04612 3.59546 5.0838 3.54601 5.10899C3.35785 5.20487 3.20487 5.35785 3.109 5.54601C3.0838 5.59545 3.04612 5.69617 3.02393 5.96784C3.00078 6.25117 3 6.62345 3 7.2V13.8C3 14.3766 3.00078 14.7488 3.02393 15.0322C3.04612 15.3038 3.0838 15.4045 3.109 15.454C3.20487 15.6422 3.35785 15.7951 3.54601 15.891C3.59546 15.9162 3.69617 15.9539 3.96784 15.9761C4.25117 15.9992 4.62345 16 5.2 16H8.99931C8.99977 16 9.00023 16 9.00069 16H14.9993C14.9998 16 15.0002 16 15.0007 16H18.8C19.3766 16 19.7488 15.9992 20.0322 15.9761C20.3038 15.9539 20.4045 15.9162 20.454 15.891C20.6422 15.7951 20.7951 15.6422 20.891 15.454C20.9162 15.4045 20.9539 15.3038 20.9761 15.0322C20.9992 14.7488 21 14.3766 21 13.8V7.2C21 6.62345 20.9992 6.25117 20.9761 5.96784C20.9539 5.69617 20.9162 5.59545 20.891 5.54601C20.7951 5.35785 20.6422 5.20487 20.454 5.10899C20.4045 5.0838 20.3038 5.04612 20.0322 5.02393C19.7488 5.00078 19.3766 5 18.8 5H5.2Z" fill="#344054"/>
</svg>
