<svg width="24" height="24" viewBox="0 0 24 24" fill="none" xmlns="http://www.w3.org/2000/svg">
<path fill-rule="evenodd" clip-rule="evenodd" d="M12.7753 2.75071C13.9069 1.65776 15.4225 1.05299 16.9957 1.06666C18.5689 1.08033 20.0738 1.71135 21.1862 2.8238C22.2987 3.93624 22.9297 5.44112 22.9433 7.0143C22.957 8.58748 22.3523 10.1031 21.2593 11.2347L21.2471 11.2471L18.2473 14.247C18.2472 14.247 18.2473 14.2469 18.2473 14.247C17.639 14.8554 16.9069 15.326 16.1009 15.6267C15.2948 15.9274 14.4334 16.0512 13.5752 15.9898C12.7171 15.9283 11.8821 15.683 11.1271 15.2705C10.3721 14.858 9.71459 14.2879 9.19925 13.599C8.86845 13.1567 8.95879 12.53 9.40104 12.1992C9.84329 11.8684 10.47 11.9588 10.8008 12.401C11.1443 12.8603 11.5827 13.2404 12.086 13.5154C12.5894 13.7904 13.146 13.9539 13.7181 13.9949C14.2902 14.0359 14.8645 13.9533 15.4019 13.7528C15.9393 13.5524 16.4273 13.2387 16.8328 12.833L19.8265 9.83934C20.5515 9.08557 20.9525 8.07771 20.9434 7.03168C20.9343 5.98289 20.5136 4.97964 19.772 4.23801C19.0304 3.49638 18.0271 3.0757 16.9783 3.06659C15.9318 3.05749 14.9235 3.4589 14.1696 4.18455L12.4551 5.88916C12.0634 6.27855 11.4302 6.2767 11.0409 5.88504C10.6515 5.49338 10.6533 4.86021 11.045 4.47083L12.765 2.76083L12.7753 2.75071ZM7.89917 8.37328C8.70528 8.07258 9.56663 7.94876 10.4248 8.01022C11.283 8.07168 12.1179 8.31698 12.8729 8.72949C13.628 9.142 14.2854 9.71206 14.8008 10.401C15.1316 10.8433 15.0412 11.47 14.599 11.8008C14.1567 12.1316 13.5301 12.0412 13.1993 11.599C12.8557 11.1397 12.4174 10.7596 11.914 10.4846C11.4107 10.2096 10.854 10.0461 10.2819 10.0051C9.70982 9.96413 9.13558 10.0467 8.59818 10.2471C8.06077 10.4476 7.57276 10.7613 7.16725 11.167L4.17361 14.1606C3.44857 14.9144 3.04752 15.9223 3.05661 16.9683C3.06572 18.0171 3.4864 19.0203 4.22803 19.762C4.96966 20.5036 5.97291 20.9243 7.0217 20.9334C8.06776 20.9425 9.07563 20.5414 9.82941 19.8164L11.5329 18.1129C11.9234 17.7224 12.5566 17.7224 12.9471 18.1129C13.3376 18.5034 13.3376 19.1366 12.9471 19.5271L11.2371 21.2371L11.2247 21.2493C10.0931 22.3422 8.5775 22.947 7.00432 22.9333C5.43114 22.9197 3.92627 22.2886 2.81382 21.1762C1.70137 20.0637 1.07035 18.5589 1.05668 16.9857C1.04301 15.4125 1.64778 13.8969 2.74073 12.7653L2.75291 12.7529L5.75278 9.75302C5.75274 9.75306 5.75282 9.75297 5.75278 9.75302C6.36102 9.14459 7.09311 8.67396 7.89917 8.37328Z" fill="#344054"/>
</svg>
