<svg width="24" height="24" viewBox="0 0 24 24" fill="none" xmlns="http://www.w3.org/2000/svg">
<path fill-rule="evenodd" clip-rule="evenodd" d="M8.00001 2C8.55229 2 9.00001 2.44772 9.00001 3V4H14C14.5523 4 15 4.44772 15 5C15 5.55228 14.5523 6 14 6H12.3283C11.816 8.42693 10.875 10.6671 9.56478 12.6367C9.8501 12.8123 10.1337 12.9638 10.4098 13.0878C10.9136 13.3142 11.1385 13.906 10.9122 14.4098C10.6858 14.9136 10.094 15.1385 9.59019 14.9122C9.17745 14.7267 8.76574 14.501 8.36339 14.244C6.75636 16.1638 4.75741 17.7464 2.44504 18.8955C1.95046 19.1413 1.35028 18.9396 1.10449 18.445C0.858708 17.9505 1.0604 17.3503 1.55497 17.1045C3.59424 16.0911 5.3548 14.7039 6.77483 13.0255C5.63591 11.9944 4.63949 10.7161 4.07885 9.38919C3.86391 8.88045 4.10207 8.29379 4.61081 8.07884C5.11955 7.8639 5.70622 8.10207 5.92116 8.61081C6.32624 9.56955 7.07333 10.5659 7.97604 11.413C9.03022 9.79868 9.81321 7.9769 10.2791 6H2.00001C1.44772 6 1.00001 5.55228 1.00001 5C1.00001 4.44772 1.44772 4 2.00001 4H7.00001V3C7.00001 2.44772 7.44772 2 8.00001 2ZM15.8477 9.30812C16.2598 9.10912 16.7402 9.10912 17.1523 9.30812C17.5108 9.48122 17.7051 9.78284 17.8017 9.94515C17.9028 10.1152 18.0066 10.3322 18.1085 10.5455L22.9021 20.5685C23.1404 21.0668 22.9297 21.6638 22.4315 21.9021C21.9332 22.1404 21.3362 21.9297 21.0979 21.4315L19.4567 18H13.5433L11.9021 21.4315C11.6639 21.9297 11.0668 22.1404 10.5686 21.9021C10.0703 21.6638 9.85959 21.0668 10.0979 20.5685L14.8762 10.5776C14.8813 10.5669 14.8864 10.5562 14.8915 10.5455C14.9934 10.3323 15.0972 10.1152 15.1984 9.94515C15.2949 9.78284 15.4893 9.48122 15.8477 9.30812ZM14.4998 16H18.5002L16.5 11.8177L14.4998 16Z" fill="#344054"/>
</svg>
