<svg width="24" height="24" viewBox="0 0 24 24" fill="none" xmlns="http://www.w3.org/2000/svg">
<path fill-rule="evenodd" clip-rule="evenodd" d="M17.3676 2.07C17.7947 2.23882 18.0519 2.6769 17.9912 3.13216L17.1422 9.49999L20.9799 9.49999C21.2007 9.49994 21.4295 9.49989 21.6185 9.51717C21.8044 9.53416 22.1426 9.5792 22.4449 9.81254C22.7975 10.0846 23.0109 10.4994 23.0274 10.9444C23.0415 11.326 22.8816 11.6274 22.7874 11.7886C22.6916 11.9524 22.5586 12.1386 22.4302 12.3181L15.8137 21.5812C15.5468 21.955 15.0596 22.0988 14.6324 21.93C14.2053 21.7612 13.9481 21.3231 14.0088 20.8678L14.8578 14.5H11.0546C11.0431 14.5 11.0316 14.5 11.0201 14.5C10.7993 14.5 10.5705 14.5001 10.3815 14.4828C10.1956 14.4658 9.85743 14.4208 9.55511 14.1874C9.20255 13.9153 8.98913 13.5006 8.97262 13.0556C8.95847 12.6739 9.1184 12.3726 9.21263 12.2114C9.30841 12.0476 9.44143 11.8614 9.56978 11.6818C9.57648 11.6725 9.58316 11.6631 9.58983 11.6538L16.1863 2.41875C16.4532 2.04502 16.9404 1.90118 17.3676 2.07ZM11.4432 12.5H16C16.2883 12.5 16.5625 12.6244 16.7524 12.8413C16.9423 13.0582 17.0293 13.3464 16.9912 13.6322L16.5224 17.1481L20.5568 11.5H16C15.7117 11.5 15.4375 11.3756 15.2476 11.1587C15.0577 10.9418 14.9707 10.6536 15.0088 10.3678L15.4776 6.85186L11.4432 12.5ZM3 6.49999C3 5.94771 3.44772 5.49999 4 5.49999H9C9.55228 5.49999 10 5.94771 10 6.49999C10 7.05228 9.55228 7.49999 9 7.49999H4C3.44772 7.49999 3 7.05228 3 6.49999ZM1 12C1 11.4477 1.44772 11 2 11H6.5C7.05228 11 7.5 11.4477 7.5 12C7.5 12.5523 7.05228 13 6.5 13H2C1.44772 13 1 12.5523 1 12ZM2.5 17.5C2.5 16.9477 2.94772 16.5 3.5 16.5H9C9.55228 16.5 10 16.9477 10 17.5C10 18.0523 9.55228 18.5 9 18.5H3.5C2.94772 18.5 2.5 18.0523 2.5 17.5Z" fill="#344054"/>
</svg>
