<svg width="24" height="24" viewBox="0 0 24 24" fill="none" xmlns="http://www.w3.org/2000/svg">
<path d="M7 3.6C7 3.02584 7 2.73876 6.88724 2.52188C6.78981 2.33452 6.62675 2.17587 6.43677 2.08363C6.21688 1.97686 5.94462 1.98435 5.40008 1.99931C5.20126 2.00477 5.00278 2.01441 4.80497 2.03057C4.40963 2.06287 4.01641 2.13419 3.63803 2.32698C3.07354 2.6146 2.6146 3.07354 2.32698 3.63803C2.13419 4.01641 2.06287 4.40963 2.03057 4.80497C1.99997 5.17953 1.99998 5.63428 2 6.16142V17.8385C1.99998 18.3657 1.99997 18.8205 2.03057 19.195C2.06287 19.5904 2.13419 19.9836 2.32698 20.362C2.6146 20.9265 3.07354 21.3854 3.63803 21.673C4.01641 21.8658 4.40963 21.9371 4.80497 21.9694C5.00278 21.9856 5.20126 21.9952 5.40008 22.0007C5.94462 22.0157 6.21688 22.0231 6.43678 21.9164C6.62675 21.8241 6.78981 21.6655 6.88724 21.4781C7 21.2612 7 20.9742 7 20.4V3.6Z" fill="#344054"/>
<path d="M9 20.4C9 20.9601 9 21.2401 9.10899 21.454C9.20487 21.6422 9.35785 21.7951 9.54601 21.891C9.75992 22 10.0399 22 10.6 22H13.4C13.9601 22 14.2401 22 14.454 21.891C14.6422 21.7951 14.7951 21.6422 14.891 21.454C15 21.2401 15 20.9601 15 20.4V3.6C15 3.03995 15 2.75992 14.891 2.54601C14.7951 2.35785 14.6422 2.20487 14.454 2.10899C14.2401 2 13.9601 2 13.4 2H10.6C10.0399 2 9.75992 2 9.54601 2.10899C9.35785 2.20487 9.20487 2.35785 9.10899 2.54601C9 2.75992 9 3.03995 9 3.6V20.4Z" fill="#344054"/>
<path d="M18.5999 1.99931C18.0554 1.98435 17.7831 1.97686 17.5632 2.08363C17.3733 2.17587 17.2102 2.33452 17.1128 2.52188C17 2.73876 17 3.02584 17 3.6V20.4C17 20.9742 17 21.2612 17.1128 21.4781C17.2102 21.6655 17.3733 21.8241 17.5632 21.9164C17.7831 22.0231 18.0554 22.0157 18.5999 22.0007C18.7987 21.9952 18.9972 21.9856 19.195 21.9694C19.5904 21.9371 19.9836 21.8658 20.362 21.673C20.9265 21.3854 21.3854 20.9265 21.673 20.362C21.8658 19.9836 21.9371 19.5904 21.9694 19.195C22 18.8205 22 18.3657 22 17.8386V6.16143C22 5.63429 22 5.17954 21.9694 4.80497C21.9371 4.40963 21.8658 4.01641 21.673 3.63803C21.3854 3.07354 20.9265 2.6146 20.362 2.32698C19.9836 2.13419 19.5904 2.06287 19.195 2.03057C18.9972 2.01441 18.7987 2.00477 18.5999 1.99931Z" fill="#344054"/>
</svg>
