<svg width="24" height="24" viewBox="0 0 24 24" fill="none" xmlns="http://www.w3.org/2000/svg">
<path fill-rule="evenodd" clip-rule="evenodd" d="M1.99997 12C1.99997 11.4477 2.44768 11 2.99997 11H3.00997C3.56225 11 4.00997 11.4477 4.00997 12C4.00997 12.5523 3.56225 13 3.00997 13H2.99997C2.44768 13 1.99997 12.5523 1.99997 12Z" fill="#344054"/>
<path fill-rule="evenodd" clip-rule="evenodd" d="M6.49997 12C6.49997 11.4477 6.94768 11 7.49997 11H7.50997C8.06225 11 8.50997 11.4477 8.50997 12C8.50997 12.5523 8.06225 13 7.50997 13H7.49997C6.94768 13 6.49997 12.5523 6.49997 12Z" fill="#344054"/>
<path fill-rule="evenodd" clip-rule="evenodd" d="M15.5 12C15.5 11.4477 15.9477 11 16.5 11H16.51C17.0623 11 17.51 11.4477 17.51 12C17.51 12.5523 17.0623 13 16.51 13H16.5C15.9477 13 15.5 12.5523 15.5 12Z" fill="#344054"/>
<path fill-rule="evenodd" clip-rule="evenodd" d="M11 12C11 11.4477 11.4477 11 12 11H12.01C12.5623 11 13.01 11.4477 13.01 12C13.01 12.5523 12.5623 13 12.01 13H12C11.4477 13 11 12.5523 11 12Z" fill="#344054"/>
<path fill-rule="evenodd" clip-rule="evenodd" d="M20 12C20 11.4477 20.4477 11 21 11H21.01C21.5623 11 22.01 11.4477 22.01 12C22.01 12.5523 21.5623 13 21.01 13H21C20.4477 13 20 12.5523 20 12Z" fill="#344054"/>
<path fill-rule="evenodd" clip-rule="evenodd" d="M19.7342 1.99984C19.969 1.99913 20.2568 1.99825 20.5176 2.06813C21.2078 2.25306 21.7469 2.79216 21.9318 3.48234C22.0017 3.74313 22.0008 4.03095 22.0001 4.26577C21.9986 4.76818 22.029 5.28669 21.8977 5.77644C21.6203 6.81172 20.8117 7.62036 19.7764 7.89776C19.3909 8.00106 18.9529 8.0006 18.4451 8.00006C14.1484 7.99551 9.85156 7.99551 5.55479 8.00006C5.04707 8.0006 4.60904 8.00106 4.22351 7.89776C3.18824 7.62036 2.37959 6.81172 2.10219 5.77644C1.97097 5.2867 2.00136 4.76817 1.99983 4.26577C1.99912 4.03094 1.99824 3.74313 2.06812 3.48235C2.25305 2.79216 2.79215 2.25307 3.48233 2.06813C3.74312 1.99825 4.03093 1.99913 4.26576 1.99984C9.42173 2.01555 14.5782 2.01555 19.7342 1.99984Z" fill="#344054"/>
<path fill-rule="evenodd" clip-rule="evenodd" d="M19.7342 22.0001C19.969 22.0008 20.2568 22.0017 20.5176 21.9318C21.2078 21.7469 21.7469 21.2078 21.9318 20.5176C22.0017 20.2568 22.0008 19.969 22.0001 19.7341C21.9986 19.2317 22.029 18.7132 21.8977 18.2235C21.6203 17.1882 20.8117 16.3796 19.7764 16.1022C19.3909 15.9989 18.9529 15.9993 18.4451 15.9999C14.1484 16.0044 9.85155 16.0044 5.55478 15.9999C5.04706 15.9993 4.60903 15.9989 4.2235 16.1022C3.18823 16.3796 2.37958 17.1882 2.10218 18.2235C1.97096 18.7132 2.00135 19.2317 1.99982 19.7341C1.99911 19.969 1.99823 20.2568 2.06811 20.5176C2.25304 21.2078 2.79214 21.7469 3.48232 21.9318C3.74311 22.0017 4.03092 22.0008 4.26575 22.0001C9.42172 21.9844 14.5782 21.9844 19.7342 22.0001Z" fill="#344054"/>
</svg>
