<svg width="24" height="24" viewBox="0 0 24 24" fill="none" xmlns="http://www.w3.org/2000/svg">
<path fill-rule="evenodd" clip-rule="evenodd" d="M7.99988 1.99994C8.55216 1.99994 8.99988 2.44765 8.99988 2.99994V3.24124C8.99989 4.04621 8.9999 4.71057 8.95568 5.25177C8.90976 5.81386 8.81119 6.33057 8.5639 6.8159C8.18041 7.56855 7.56849 8.18047 6.81584 8.56396C6.3305 8.81126 5.8138 8.90982 5.2517 8.95575C4.71051 8.99996 4.04615 8.99995 3.24118 8.99994H2.99988C2.44759 8.99994 1.99988 8.55222 1.99988 7.99994C1.99988 7.44765 2.44759 6.99994 2.99988 6.99994H3.19988C4.05646 6.99994 4.63875 6.99916 5.08884 6.96239C5.52726 6.92657 5.75146 6.86164 5.90786 6.78195C6.28418 6.59021 6.59014 6.28424 6.78189 5.90792C6.86158 5.75152 6.92651 5.52732 6.96233 5.0889C6.9991 4.63881 6.99988 4.05652 6.99988 3.19994V2.99994C6.99988 2.44765 7.44759 1.99994 7.99988 1.99994Z" fill="#344054"/>
<path fill-rule="evenodd" clip-rule="evenodd" d="M5.08884 17.0375C4.63875 17.0007 4.05646 16.9999 3.19988 16.9999H2.99988C2.44759 16.9999 1.99988 16.5522 1.99988 15.9999C1.99988 15.4477 2.44759 14.9999 2.99988 14.9999H3.19988C3.21369 14.9999 3.22745 14.9999 3.24118 14.9999C4.04615 14.9999 4.71051 14.9999 5.2517 15.0441C5.8138 15.0901 6.3305 15.1886 6.81584 15.4359C7.56849 15.8194 8.18041 16.4313 8.5639 17.184C8.81119 17.6693 8.90976 18.186 8.95568 18.7481C8.9999 19.2893 8.99989 19.9537 8.99988 20.7586V20.9999C8.99988 21.5522 8.55216 21.9999 7.99988 21.9999C7.44759 21.9999 6.99988 21.5522 6.99988 20.9999V20.7999C6.99988 19.9434 6.9991 19.3611 6.96233 18.911C6.92651 18.4726 6.86158 18.2484 6.78189 18.092C6.59014 17.7156 6.28418 17.4097 5.90786 17.2179C5.75146 17.1382 5.52726 17.0733 5.08884 17.0375Z" fill="#344054"/>
<path fill-rule="evenodd" clip-rule="evenodd" d="M15.9999 1.99994C16.5522 1.99994 16.9999 2.44765 16.9999 2.99994V3.19994C16.9999 4.05652 17.0007 4.63881 17.0374 5.0889C17.0732 5.52732 17.1382 5.75152 17.2179 5.90792C17.4096 6.28424 17.7156 6.59021 18.0919 6.78195C18.2483 6.86164 18.4725 6.92657 18.9109 6.96239C19.361 6.99916 19.9433 6.99994 20.7999 6.99994H20.9999C21.5522 6.99994 21.9999 7.44765 21.9999 7.99994C21.9999 8.55222 21.5522 8.99994 20.9999 8.99994H20.7586C19.9536 8.99995 19.2892 8.99996 18.7481 8.95575C18.186 8.90982 17.6693 8.81126 17.1839 8.56396C16.4313 8.18047 15.8193 7.56855 15.4359 6.8159C15.1886 6.33057 15.09 5.81386 15.0441 5.25177C14.9999 4.71057 14.9999 4.04621 14.9999 3.24124C14.9999 3.22751 14.9999 3.21375 14.9999 3.19994V2.99994C14.9999 2.44765 15.4476 1.99994 15.9999 1.99994Z" fill="#344054"/>
<path fill-rule="evenodd" clip-rule="evenodd" d="M20.7586 14.9999L20.9999 14.9999C21.5522 14.9999 21.9999 15.4477 21.9999 15.9999C21.9999 16.5522 21.5522 16.9999 20.9999 16.9999H20.7999C19.9433 16.9999 19.361 17.0007 18.9109 17.0375C18.4725 17.0733 18.2483 17.1382 18.0919 17.2179C17.7156 17.4097 17.4096 17.7156 17.2179 18.092C17.1382 18.2484 17.0732 18.4726 17.0374 18.911C17.0007 19.3611 16.9999 19.9434 16.9999 20.7999V20.9999C16.9999 21.5522 16.5522 21.9999 15.9999 21.9999C15.4476 21.9999 14.9999 21.5522 14.9999 20.9999V20.7586C14.9999 19.9537 14.9999 19.2893 15.0441 18.7481C15.09 18.186 15.1886 17.6693 15.4359 17.184C15.8193 16.4313 16.4313 15.8194 17.1839 15.4359C17.6693 15.1886 18.186 15.0901 18.7481 15.0441C19.2892 14.9999 19.9536 14.9999 20.7586 14.9999Z" fill="#344054"/>
</svg>
