<svg width="24" height="24" viewBox="0 0 24 24" fill="none" xmlns="http://www.w3.org/2000/svg">
<path d="M20.4 6.99999C20.9742 6.99999 21.2612 6.99999 21.4781 6.88722C21.6655 6.7898 21.8241 6.62673 21.9164 6.43676C22.0231 6.21687 22.0156 5.9446 22.0007 5.40007C21.9952 5.20125 21.9856 5.00277 21.9694 4.80496C21.9371 4.40961 21.8658 4.0164 21.673 3.63802C21.3854 3.07353 20.9264 2.61459 20.362 2.32697C19.9836 2.13417 19.5904 2.06286 19.195 2.03056C18.8205 1.99995 18.3657 1.99997 17.8386 1.99999L6.16145 1.99999C5.63431 1.99997 5.17953 1.99995 4.80496 2.03056C4.40962 2.06286 4.0164 2.13417 3.63802 2.32697C3.07353 2.61459 2.61459 3.07353 2.32697 3.63802C2.13418 4.0164 2.06286 4.40961 2.03056 4.80496C2.0144 5.00277 2.00476 5.20125 1.9993 5.40007C1.98434 5.9446 1.97686 6.21687 2.08362 6.43676C2.17586 6.62673 2.33451 6.7898 2.52188 6.88722C2.73875 6.99999 3.02583 6.99999 3.59999 6.99999L20.4 6.99999Z" fill="#344054"/>
<path d="M3.59999 8.99999C3.03994 8.99999 2.75991 8.99999 2.546 9.10898C2.35784 9.20485 2.20486 9.35783 2.10898 9.546C1.99999 9.75991 1.99999 10.0399 1.99999 10.6L1.99999 13.4C1.99999 13.96 1.99999 14.2401 2.10898 14.454C2.20486 14.6421 2.35784 14.7951 2.546 14.891C2.75991 15 3.03994 15 3.59999 15L20.4 15C20.96 15 21.2401 15 21.454 14.891C21.6421 14.7951 21.7951 14.6421 21.891 14.454C22 14.2401 22 13.96 22 13.4V10.6C22 10.0399 22 9.75991 21.891 9.546C21.7951 9.35783 21.6421 9.20485 21.454 9.10898C21.2401 8.99999 20.96 8.99999 20.4 8.99999L3.59999 8.99999Z" fill="#344054"/>
<path d="M22.0007 18.5999C22.0156 18.0554 22.0231 17.7831 21.9164 17.5632C21.8241 17.3732 21.6655 17.2102 21.4781 17.1128C21.2612 17 20.9742 17 20.4 17L3.59999 17C3.02583 17 2.73875 17 2.52188 17.1128C2.33451 17.2102 2.17586 17.3732 2.08362 17.5632C1.97686 17.7831 1.98434 18.0554 1.9993 18.5999C2.00476 18.7987 2.0144 18.9972 2.03056 19.195C2.06286 19.5904 2.13418 19.9836 2.32697 20.362C2.61459 20.9264 3.07353 21.3854 3.63802 21.673C4.0164 21.8658 4.40962 21.9371 4.80496 21.9694C5.17953 22 5.63428 22 6.16142 22H17.8386C18.3657 22 18.8205 22 19.195 21.9694C19.5904 21.9371 19.9836 21.8658 20.362 21.673C20.9264 21.3854 21.3854 20.9264 21.673 20.362C21.8658 19.9836 21.9371 19.5904 21.9694 19.195C21.9856 18.9972 21.9952 18.7987 22.0007 18.5999Z" fill="#344054"/>
</svg>
