<svg width="24" height="24" viewBox="0 0 24 24" fill="none" xmlns="http://www.w3.org/2000/svg">
<path fill-rule="evenodd" clip-rule="evenodd" d="M12 1.39685C12.2017 1.39685 12.3754 1.43339 12.5207 1.47257C12.7915 1.54559 13.019 1.6908 13.1832 1.8043C13.3532 1.92178 13.5564 2.079 13.7858 2.2565L13.8063 2.27231C14.719 2.97838 15.7065 3.46347 17.0213 3.73692L17.0504 3.74297C17.6912 3.87623 18.2118 3.98451 18.613 4.09053C19.0027 4.19354 19.4043 4.32377 19.7303 4.55395C19.9498 4.70894 20.1545 4.88125 20.3361 5.10445C20.5176 5.32766 20.6446 5.56312 20.7517 5.80959C20.9022 6.1562 20.9537 6.52001 20.9772 6.87885C21 7.2279 21 7.65821 21 8.16746V11.9999C21 14.8266 19.4627 17.1832 17.8009 18.9144C16.128 20.6572 14.214 21.8881 13.2019 22.4786C13.1886 22.4864 13.1749 22.4944 13.1609 22.5026C12.9762 22.611 12.7365 22.7518 12.4194 22.8198C12.1599 22.8755 11.8401 22.8755 11.5806 22.8198C11.2635 22.7518 11.0238 22.611 10.8391 22.5026C10.8251 22.4944 10.8115 22.4864 10.7981 22.4786C9.786 21.8881 7.87196 20.6572 6.19906 18.9144C4.53729 17.1832 3 14.8266 3 11.9999L3 8.16741C2.99999 7.65819 2.99998 7.22789 3.02283 6.87885C3.04632 6.52001 3.09778 6.1562 3.24831 5.80959C3.35535 5.56312 3.48238 5.32766 3.66394 5.10445C3.8455 4.88125 4.05016 4.70894 4.26967 4.55395C4.59567 4.32377 4.99732 4.19354 5.38704 4.09053C5.78816 3.98451 6.30882 3.87623 6.94958 3.74297L6.97868 3.73692C8.29347 3.46347 9.28102 2.97838 10.1937 2.27231L10.2141 2.25653C10.4436 2.07902 10.6468 1.92178 10.8168 1.8043C10.9811 1.6908 11.2085 1.54559 11.4793 1.47257C11.6246 1.43339 11.7983 1.39685 12 1.39685ZM12 3.41861C11.9871 3.42701 11.9718 3.43724 11.9539 3.44959C11.8337 3.53269 11.6736 3.65613 11.4175 3.85422C10.2704 4.74158 9.00493 5.3583 7.38592 5.69502C6.70911 5.83578 6.24126 5.93343 5.89811 6.02413C5.72979 6.06862 5.61289 6.10602 5.53049 6.13812C5.45045 6.1693 5.42315 6.18783 5.42314 6.18781C5.42308 6.18785 5.42314 6.18781 5.42314 6.18781C5.29763 6.27643 5.24604 6.32891 5.21547 6.3665C5.18489 6.40409 5.14397 6.46538 5.08277 6.6063C5.06776 6.64085 5.03645 6.73609 5.01856 7.00949C5.0005 7.28528 5 7.6495 5 8.19994V11.9999C5 14.0818 6.13969 15.9644 7.64191 17.5294C9.13301 19.0828 10.87 20.205 11.8059 20.7511C11.8631 20.7844 11.9044 20.8085 11.9403 20.8287C11.9684 20.8445 11.9872 20.8545 12 20.8611C12.0128 20.8545 12.0316 20.8445 12.0597 20.8287C12.0956 20.8085 12.1369 20.7844 12.1941 20.7511C13.13 20.205 14.867 19.0828 16.3581 17.5294C17.8603 15.9644 19 14.0818 19 11.9999V8.19994C19 7.6495 18.9995 7.28528 18.9814 7.00949C18.9635 6.73609 18.9322 6.64085 18.9172 6.6063C18.856 6.46538 18.8151 6.40409 18.7845 6.3665C18.754 6.32891 18.7023 6.27637 18.5768 6.18775C18.5768 6.18777 18.5496 6.1693 18.4695 6.13812C18.3871 6.10602 18.2702 6.06862 18.1019 6.02413C17.7587 5.93343 17.2909 5.83578 16.6141 5.69502C14.9951 5.3583 13.7296 4.74158 12.5825 3.85422C12.3264 3.65613 12.1663 3.53269 12.0461 3.44959C12.0282 3.43724 12.0129 3.42701 12 3.41861Z" fill="#344054"/>
</svg>
