<svg width="24" height="24" viewBox="0 0 24 24" fill="none" xmlns="http://www.w3.org/2000/svg">
<path fill-rule="evenodd" clip-rule="evenodd" d="M11.714 1.08855C11.9037 1.06114 12.0963 1.06114 12.2861 1.08855C12.5047 1.12015 12.7081 1.197 12.8697 1.25803C12.8844 1.26361 12.8989 1.26906 12.9129 1.27434L18.2747 3.28501C18.3186 3.30148 18.3622 3.31774 18.4054 3.33386C19.0232 3.56451 19.5657 3.76707 19.9835 4.13529C20.349 4.45741 20.6306 4.8637 20.8039 5.31905C21.0019 5.83956 21.0011 6.41867 21.0002 7.07812C21.0001 7.12421 21 7.1707 21 7.21759V12C21 14.8266 19.4627 17.1832 17.801 18.9144C16.1281 20.6572 14.214 21.8882 13.2019 22.4786C13.1886 22.4864 13.1749 22.4944 13.1609 22.5026C12.9763 22.6111 12.7365 22.7519 12.4194 22.8199C12.1599 22.8755 11.8401 22.8755 11.5807 22.8199C11.2635 22.7519 11.0238 22.6111 10.8391 22.5026C10.8251 22.4944 10.8115 22.4864 10.7981 22.4786C9.78602 21.8882 7.87198 20.6572 6.19908 18.9144C4.53731 17.1832 3.00002 14.8266 3.00002 12V7.21759C3.00002 7.17071 2.99995 7.12422 2.99989 7.07812C2.99893 6.41868 2.99809 5.83956 3.19616 5.31905C3.36943 4.8637 3.65099 4.45741 4.01651 4.13529C4.43433 3.76707 4.97687 3.56451 5.59466 3.33386C5.63785 3.31773 5.6814 3.30148 5.7253 3.28501L11.0871 1.27434C11.1012 1.26906 11.1156 1.26361 11.1304 1.25803C11.2919 1.197 11.4954 1.12015 11.714 1.08855ZM11.997 3.07127C11.9562 3.08466 11.9008 3.10522 11.7893 3.147L6.42755 5.15767C5.60231 5.46713 5.4435 5.54354 5.33885 5.63576C5.21701 5.74313 5.12316 5.87856 5.0654 6.03034C5.01579 6.16071 5.00002 6.33624 5.00002 7.21759V12C5.00002 14.0818 6.13971 15.9644 7.64193 17.5294C9.13303 19.0828 10.87 20.2051 11.8059 20.7511C11.8631 20.7845 11.9044 20.8085 11.9403 20.8287C11.9684 20.8446 11.9872 20.8546 12 20.8611C12.0129 20.8546 12.0316 20.8446 12.0598 20.8287C12.0956 20.8085 12.1369 20.7845 12.1941 20.7511C13.13 20.2051 14.867 19.0828 16.3581 17.5294C17.8603 15.9644 19 14.0818 19 12V7.21759C19 6.33624 18.9842 6.16071 18.9346 6.03034C18.8769 5.87856 18.783 5.74313 18.6612 5.63576C18.5565 5.54354 18.3977 5.46713 17.5725 5.15767L12.2107 3.147C12.0993 3.10522 12.0439 3.08466 12.003 3.07127C12.002 3.07092 12.001 3.0706 12 3.07028C11.9991 3.0706 11.998 3.07092 11.997 3.07127ZM12 4.99999C12.5523 4.99999 13 5.44771 13 5.99999V6.49999H13.1334C14.2376 6.49999 15.1943 7.12458 15.6724 8.03505C15.9292 8.52401 15.741 9.12855 15.252 9.38533C14.763 9.64211 14.1585 9.45389 13.9017 8.96493C13.7554 8.68639 13.4654 8.49999 13.1334 8.49999H11C10.4477 8.49999 10 8.94771 10 9.49999C10 10.0523 10.4477 10.5 11 10.5H13C14.6569 10.5 16 11.8431 16 13.5C16 15.1568 14.6569 16.5 13 16.5V17C13 17.5523 12.5523 18 12 18C11.4477 18 11 17.5523 11 17V16.5H10.8667C9.76248 16.5 8.80578 15.8754 8.32764 14.9649C8.07086 14.476 8.25908 13.8714 8.74804 13.6147C9.237 13.3579 9.84154 13.5461 10.0983 14.0351C10.2446 14.3136 10.5347 14.5 10.8667 14.5H13C13.5523 14.5 14 14.0523 14 13.5C14 12.9477 13.5523 12.5 13 12.5H11C9.34317 12.5 8.00002 11.1568 8.00002 9.49999C8.00002 7.84314 9.34317 6.49999 11 6.49999V5.99999C11 5.44771 11.4477 4.99999 12 4.99999Z" fill="#344054"/>
</svg>
