<svg width="24" height="24" viewBox="0 0 24 24" fill="none" xmlns="http://www.w3.org/2000/svg">
<path fill-rule="evenodd" clip-rule="evenodd" d="M11.714 1.08855C11.9037 1.06114 12.0963 1.06114 12.2861 1.08855C12.5047 1.12015 12.7081 1.197 12.8697 1.25803C12.8844 1.26361 12.8989 1.26906 12.9129 1.27434L18.2747 3.28501C18.3186 3.30148 18.3622 3.31774 18.4054 3.33386C19.0232 3.56451 19.5657 3.76707 19.9835 4.13529C20.349 4.45741 20.6306 4.8637 20.8039 5.31905C21.0019 5.83956 21.0011 6.41867 21.0002 7.07812C21.0001 7.12421 21 7.1707 21 7.21759V12C21 14.8266 19.4627 17.1832 17.801 18.9144C16.1281 20.6572 14.214 21.8882 13.2019 22.4786C13.1886 22.4864 13.1749 22.4944 13.1609 22.5026C12.9763 22.6111 12.7365 22.7519 12.4194 22.8199C12.1599 22.8755 11.8401 22.8755 11.5807 22.8199C11.2635 22.7519 11.0238 22.6111 10.8391 22.5026C10.8251 22.4944 10.8115 22.4864 10.7981 22.4786C9.78602 21.8882 7.87198 20.6572 6.19908 18.9144C4.53731 17.1832 3.00002 14.8266 3.00002 12V7.21759C3.00002 7.17071 2.99995 7.12422 2.99989 7.07812C2.99893 6.41868 2.99809 5.83956 3.19616 5.31905C3.36943 4.8637 3.65099 4.45741 4.01651 4.13529C4.43433 3.76707 4.97687 3.56451 5.59466 3.33386C5.63785 3.31773 5.6814 3.30148 5.7253 3.28501L11.0871 1.27434C11.1012 1.26906 11.1156 1.26361 11.1304 1.25803C11.2919 1.197 11.4954 1.12015 11.714 1.08855ZM13 3.44299L17.5725 5.15767C18.3977 5.46713 18.5565 5.54354 18.6612 5.63576C18.783 5.74313 18.8769 5.87856 18.9346 6.03034C18.9842 6.16071 19 6.33624 19 7.21759V12C19 14.0818 17.8603 15.9644 16.3581 17.5294C15.2281 18.7067 13.9568 19.6363 13 20.2552V3.44299ZM11 20.2552C10.0432 19.6363 8.77197 18.7067 7.64193 17.5294C6.13971 15.9644 5.00002 14.0818 5.00002 12V7.21759C5.00002 6.33624 5.01579 6.16071 5.0654 6.03034C5.12316 5.87856 5.21701 5.74313 5.33885 5.63576C5.4435 5.54354 5.60231 5.46713 6.42755 5.15767L11 3.44299V20.2552Z" fill="#344054"/>
</svg>
