<svg width="24" height="24" viewBox="0 0 24 24" fill="none" xmlns="http://www.w3.org/2000/svg">
<path fill-rule="evenodd" clip-rule="evenodd" d="M9.55772 1C9.56545 1.00001 9.57326 1.00001 9.58114 1.00001L14.4423 1C14.5525 0.999977 14.6484 0.999953 14.7398 1.00549C15.8967 1.07556 16.9097 1.80569 17.342 2.88101C17.3762 2.96606 17.4065 3.05703 17.4413 3.1616L17.4487 3.18378C17.4951 3.32295 17.5051 3.35174 17.5137 3.37301C17.6578 3.73145 17.9955 3.97482 18.3811 3.99818C18.4037 3.99955 18.4376 4.00001 18.5944 4.00001C18.6133 4.00001 18.6319 4 18.6503 4C18.9651 3.99994 19.1965 3.99989 19.3944 4.0195C21.2916 4.20748 22.7925 5.70837 22.9805 7.60562C23.0001 7.80349 23.0001 8.02553 23 8.32536C23 8.34239 23 8.35968 23 8.37723V16.2413C23 17.0463 23 17.7106 22.9558 18.2518C22.9099 18.8139 22.8113 19.3306 22.564 19.816C22.1805 20.5686 21.5686 21.1805 20.816 21.564C20.3306 21.8113 19.8139 21.9099 19.2518 21.9558C18.7106 22 18.0463 22 17.2413 22H6.75868C5.95372 22 5.28936 22 4.74817 21.9558C4.18608 21.9099 3.66937 21.8113 3.18404 21.564C2.43139 21.1805 1.81947 20.5686 1.43597 19.816C1.18868 19.3306 1.09012 18.8139 1.04419 18.2518C0.999977 17.7106 0.999987 17.0463 1 16.2413L1 8.37723C1 8.35968 0.999997 8.34239 0.999993 8.32536C0.999932 8.02554 0.999886 7.80349 1.01949 7.60562C1.20747 5.70837 2.70836 4.20748 4.60562 4.0195C4.80353 3.99989 5.03487 3.99994 5.34973 4C5.36806 4 5.38668 4.00001 5.40558 4.00001C5.56239 4.00001 5.59633 3.99955 5.61893 3.99818C6.00455 3.97482 6.34222 3.73145 6.48631 3.37301C6.49486 3.35174 6.50493 3.32296 6.55132 3.18378C6.55381 3.1763 6.55628 3.16888 6.55873 3.16154C6.59354 3.057 6.62384 2.96605 6.65802 2.88101C7.09031 1.80569 8.10332 1.07556 9.26016 1.00549C9.35165 0.999953 9.44752 0.999977 9.55772 1ZM9.58114 3.00001C9.43444 3.00001 9.40395 3.00045 9.38107 3.00184C8.99545 3.02519 8.65778 3.26857 8.51369 3.62701C8.50514 3.64828 8.49508 3.67706 8.44868 3.81624C8.44619 3.82372 8.44372 3.83113 8.44127 3.83848C8.40646 3.94302 8.37616 4.03397 8.34198 4.11901C7.90969 5.19432 6.89668 5.92446 5.73984 5.99452C5.64829 6.00006 5.54792 6.00004 5.43123 6.00001C5.42277 6.00001 5.41422 6.00001 5.40558 6.00001C5.01079 6.00001 4.88843 6.00127 4.80281 6.00975C3.85418 6.10374 3.10373 6.85419 3.00975 7.80281C3.00123 7.88877 3 8.00297 3 8.37723V16.2C3 17.0566 3.00078 17.6389 3.03755 18.089C3.07337 18.5274 3.1383 18.7516 3.21799 18.908C3.40973 19.2843 3.7157 19.5903 4.09202 19.782C4.24842 19.8617 4.47262 19.9266 4.91104 19.9625C5.36113 19.9992 5.94342 20 6.8 20H17.2C18.0566 20 18.6389 19.9992 19.089 19.9625C19.5274 19.9266 19.7516 19.8617 19.908 19.782C20.2843 19.5903 20.5903 19.2843 20.782 18.908C20.8617 18.7516 20.9266 18.5274 20.9624 18.089C20.9992 17.6389 21 17.0566 21 16.2V8.37723C21 8.00298 20.9988 7.88877 20.9903 7.80281C20.8963 6.85419 20.1458 6.10374 19.1972 6.00975C19.1116 6.00127 18.9892 6.00001 18.5944 6.00001L18.5688 6.00001C18.4521 6.00004 18.3517 6.00006 18.2602 5.99452C17.1033 5.92446 16.0903 5.19432 15.658 4.11901C15.6238 4.03395 15.5935 3.94299 15.5587 3.83842L15.5513 3.81624C15.5049 3.67707 15.4949 3.64828 15.4863 3.62701C15.3422 3.26857 15.0045 3.02519 14.6189 3.00184C14.5961 3.00045 14.5656 3.00001 14.4189 3.00001H9.58114ZM12 9.50001C10.3431 9.50001 9 10.8432 9 12.5C9 14.1569 10.3431 15.5 12 15.5C13.6569 15.5 15 14.1569 15 12.5C15 10.8432 13.6569 9.50001 12 9.50001ZM7 12.5C7 9.73858 9.23858 7.50001 12 7.50001C14.7614 7.50001 17 9.73858 17 12.5C17 15.2614 14.7614 17.5 12 17.5C9.23858 17.5 7 15.2614 7 12.5Z" fill="#344054"/>
</svg>
