<svg width="24" height="24" viewBox="0 0 24 24" fill="none" xmlns="http://www.w3.org/2000/svg">
<path fill-rule="evenodd" clip-rule="evenodd" d="M13.3982 1.08275C13.8054 1.25952 14.0473 1.68359 13.9923 2.12409L13.1328 9.00006L19.3278 9.00005C19.5688 9.00001 19.8129 8.99996 20.0123 9.01802C20.2009 9.03509 20.5621 9.08027 20.8753 9.33338C21.2338 9.62314 21.4393 10.0617 21.4323 10.5227C21.4262 10.9253 21.2297 11.2317 21.1221 11.3875C21.0083 11.5523 20.852 11.7398 20.6977 11.9249L11.7682 22.6402C11.484 22.9813 11.009 23.0941 10.6018 22.9174C10.1946 22.7406 9.95266 22.3165 10.0077 21.876L10.8672 15.0001L4.67223 15.0001C4.43123 15.0001 4.18714 15.0002 3.98771 14.9821C3.79911 14.965 3.43794 14.9198 3.12473 14.6667C2.76615 14.377 2.56074 13.9384 2.56769 13.4774C2.57376 13.0748 2.77027 12.7684 2.8779 12.6126C2.9917 12.4478 3.14801 12.2603 3.30233 12.0752C3.30997 12.066 3.31761 12.0569 3.32523 12.0477L12.2318 1.35987C12.516 1.01884 12.991 0.905986 13.3982 1.08275ZM5.13504 13.0001H12C12.2868 13.0001 12.5599 13.1232 12.7497 13.3383C12.9395 13.5533 13.0279 13.8395 12.9923 14.1241L12.4153 18.7396L18.865 11.0001H12C11.7132 11.0001 11.4401 10.8769 11.2503 10.6619C11.0605 10.4468 10.9721 10.1606 11.0077 9.87602L11.5847 5.26051L5.13504 13.0001Z" fill="#344054"/>
</svg>
