<svg width="24" height="24" viewBox="0 0 24 24" fill="none" xmlns="http://www.w3.org/2000/svg">
<path d="M7.78874 2.9569C7.85435 2.62889 7.88715 2.46489 7.84274 2.33654C7.8038 2.22396 7.72594 2.12899 7.62319 2.06872C7.50604 2.00001 7.33878 2.00001 7.00428 2.00001H6.7587C5.95375 2 5.28936 1.99999 4.74818 2.0442C4.18608 2.09013 3.66938 2.18869 3.18404 2.43598C2.43139 2.81948 1.81947 3.4314 1.43598 4.18405C1.18868 4.66938 1.09012 5.18609 1.0442 5.74818C1.02942 5.92905 1.02203 6.01948 1.03418 6.11998C1.08332 6.52667 1.4252 6.89762 1.82653 6.97972C1.92572 7.00001 2.0353 7.00001 2.25446 7.00001H6.32428C6.5579 7.00001 6.67471 7.00001 6.77045 6.95817C6.85488 6.92127 6.92747 6.86176 6.98021 6.7862C7.04002 6.70052 7.06293 6.58598 7.10874 6.3569L7.78874 2.9569Z" fill="#344054"/>
<path d="M9.21111 6.04311C9.14551 6.37112 9.11271 6.53513 9.15711 6.66348C9.19606 6.77605 9.27392 6.87103 9.37667 6.9313C9.49382 7.00001 9.66107 7.00001 9.99557 7.00001H13.3243C13.5579 7.00001 13.6747 7.00001 13.7705 6.95817C13.8549 6.92127 13.9275 6.86176 13.9802 6.7862C14.04 6.70052 14.0629 6.58598 14.1087 6.3569L14.7887 2.9569C14.8543 2.62889 14.8871 2.46489 14.8427 2.33654C14.8038 2.22396 14.7259 2.12899 14.6232 2.06872C14.506 2.00001 14.3388 2.00001 14.0043 2.00001H10.6756C10.442 2.00001 10.3251 2.00001 10.2294 2.04185C10.145 2.07875 10.0724 2.13826 10.0196 2.21381C9.95983 2.29949 9.93693 2.41403 9.89111 2.64311L9.21111 6.04311Z" fill="#344054"/>
<path d="M17.6756 1.99813C17.4415 1.99862 17.3245 1.99887 17.229 2.04079C17.1446 2.07781 17.0724 2.13713 17.0197 2.21272C16.9601 2.2983 16.9371 2.41324 16.8911 2.64311L16.2111 6.04311C16.1455 6.37112 16.1127 6.53513 16.1571 6.66348C16.1961 6.77605 16.2739 6.87103 16.3767 6.9313C16.4938 7.00001 16.6611 7.00001 16.9956 7.00001H21.7455C21.9647 7.00001 22.0743 7.00001 22.1735 6.97972C22.5748 6.89762 22.9167 6.52668 22.9658 6.11999C22.978 6.01949 22.9706 5.92906 22.9558 5.74822C22.9099 5.18613 22.8113 4.66938 22.564 4.18405C22.1805 3.4314 21.5686 2.81948 20.816 2.43598C20.3306 2.18869 19.8139 2.09013 19.2518 2.0442C18.7281 2.00141 18.2016 1.99702 17.6756 1.99813Z" fill="#344054"/>
<path d="M22.891 9.54602C23 9.75993 23 10.04 23 10.6V16.2413C23 17.0463 23 17.7106 22.9558 18.2518C22.9099 18.8139 22.8113 19.3306 22.564 19.816C22.1805 20.5686 21.5686 21.1805 20.816 21.564C20.3306 21.8113 19.8139 21.9099 19.2518 21.9558C18.7106 22 18.0463 22 17.2413 22H6.75868C5.95372 22 5.28937 22 4.74818 21.9558C4.18608 21.9099 3.66938 21.8113 3.18404 21.564C2.43139 21.1805 1.81947 20.5686 1.43598 19.816C1.18868 19.3306 1.09012 18.8139 1.0442 18.2518C0.999979 17.7106 0.999988 17.0463 1 16.2413V10.6C1 10.04 1 9.75993 1.10899 9.54602C1.20487 9.35786 1.35785 9.20487 1.54601 9.109C1.75992 9.00001 2.03995 9.00001 2.6 9.00001H21.4C21.9601 9.00001 22.2401 9.00001 22.454 9.109C22.6422 9.20487 22.7951 9.35786 22.891 9.54602Z" fill="#344054"/>
</svg>
