<svg width="24" height="24" viewBox="0 0 24 24" fill="none" xmlns="http://www.w3.org/2000/svg">
<path fill-rule="evenodd" clip-rule="evenodd" d="M14.0749 4.22821C13.4516 4.20488 12.8532 4.47362 12.4566 4.95492C12.1375 5.34215 12.0639 5.81929 12.0326 6.1674C12 6.52981 12 6.99146 12.0001 7.51783V16.4821C12 17.0085 12 17.4701 12.0326 17.8325C12.0639 18.1806 12.1375 18.6578 12.4566 19.045C12.8532 19.5263 13.4516 19.795 14.0749 19.7717C14.5763 19.753 14.9818 19.4909 15.2628 19.2831C15.5553 19.0667 15.9003 18.7599 16.2937 18.4102L21.3447 13.9204C21.5552 13.7334 21.7575 13.5536 21.9144 13.3882C22.0847 13.2087 22.272 12.9756 22.3819 12.6625C22.5325 12.2337 22.5325 11.7663 22.3819 11.3374C22.272 11.0243 22.0847 10.7912 21.9144 10.6117C21.7575 10.4463 21.5552 10.2665 21.3448 10.0795C21.3362 10.0719 21.3277 10.0643 21.3191 10.0567L16.2937 5.5897C15.9003 5.23998 15.5553 4.93325 15.2628 4.71685C14.9818 4.50899 14.5763 4.24698 14.0749 4.22821Z" fill="#344054"/>
<path fill-rule="evenodd" clip-rule="evenodd" d="M3.07487 4.22821C2.45164 4.20488 1.85321 4.47362 1.45659 4.95492C1.1375 5.34215 1.06394 5.81929 1.03262 6.1674C1.00001 6.52981 1.00004 6.99146 1.00006 7.51783V16.4821C1.00004 17.0085 1.00001 17.4701 1.03262 17.8325C1.06394 18.1806 1.1375 18.6578 1.45659 19.045C1.85321 19.5263 2.45164 19.795 3.07487 19.7717C3.57629 19.753 3.98177 19.4909 4.26276 19.2831C4.55529 19.0667 4.90033 18.7599 5.29373 18.4102L10.3447 13.9204C10.5552 13.7334 10.7575 13.5536 10.9144 13.3882C11.0847 13.2087 11.272 12.9756 11.3819 12.6625C11.5325 12.2337 11.5325 11.7663 11.3819 11.3374C11.272 11.0243 11.0847 10.7912 10.9144 10.6117C10.7575 10.4463 10.5552 10.2665 10.3448 10.0795C10.3362 10.0719 10.3277 10.0643 10.3191 10.0567L5.29371 5.5897C4.90032 5.23998 4.55529 4.93325 4.26276 4.71685C3.98177 4.50899 3.57629 4.24698 3.07487 4.22821Z" fill="#344054"/>
</svg>
