<svg width="24" height="24" viewBox="0 0 24 24" fill="none" xmlns="http://www.w3.org/2000/svg">
<path fill-rule="evenodd" clip-rule="evenodd" d="M9.92518 4.22827C10.5484 4.20494 11.1468 4.47368 11.5435 4.95498C11.8626 5.34222 11.9361 5.81935 11.9674 6.16746C12 6.52987 12 6.99152 12 7.51789V16.4822C12 17.0085 12 17.4702 11.9674 17.8326C11.9361 18.1807 11.8626 18.6578 11.5435 19.0451C11.1468 19.5264 10.5484 19.7951 9.92518 19.7718C9.42377 19.753 9.01828 19.491 8.7373 19.2831C8.44476 19.0667 8.09973 18.76 7.70632 18.4103L2.65532 13.9205C2.44487 13.7335 2.24254 13.5537 2.08566 13.3883C1.91537 13.2088 1.72805 12.9757 1.61812 12.6626C1.46754 12.2337 1.46754 11.7663 1.61812 11.3375C1.72805 11.0244 1.91537 10.7913 2.08566 10.6118C2.24253 10.4464 2.44486 10.2666 2.6553 10.0796C2.66384 10.072 2.67239 10.0644 2.68096 10.0568L7.70634 5.58976C8.09974 5.24004 8.44477 4.93331 8.7373 4.71691C9.01828 4.50905 9.42377 4.24704 9.92518 4.22827Z" fill="#344054"/>
<path fill-rule="evenodd" clip-rule="evenodd" d="M20.9252 4.22827C21.5484 4.20494 22.1468 4.47368 22.5435 4.95498C22.8626 5.34222 22.9361 5.81935 22.9674 6.16746C23 6.52987 23 6.99152 23 7.51789V16.4822C23 17.0085 23 17.4702 22.9674 17.8326C22.9361 18.1807 22.8626 18.6578 22.5435 19.0451C22.1468 19.5264 21.5484 19.7951 20.9252 19.7718C20.4238 19.753 20.0183 19.491 19.7373 19.2831C19.4448 19.0667 19.0997 18.76 18.7063 18.4103L13.6553 13.9205C13.4449 13.7335 13.2425 13.5537 13.0857 13.3883C12.9154 13.2088 12.728 12.9757 12.6181 12.6626C12.4675 12.2337 12.4675 11.7663 12.6181 11.3375C12.728 11.0244 12.9154 10.7913 13.0857 10.6118C13.2425 10.4464 13.4449 10.2666 13.6553 10.0796C13.6638 10.072 13.6724 10.0644 13.681 10.0568L18.7063 5.58976C19.0997 5.24004 19.4448 4.93331 19.7373 4.71691C20.0183 4.50905 20.4238 4.24704 20.9252 4.22827Z" fill="#344054"/>
</svg>
