<svg width="24" height="24" viewBox="0 0 24 24" fill="none" xmlns="http://www.w3.org/2000/svg">
<path d="M6.16147 3H17.8386C18.3657 2.99998 18.8205 2.99997 19.195 3.03057C19.5904 3.06287 19.9836 3.13419 20.362 3.32698C20.9265 3.6146 21.3854 4.07355 21.673 4.63803C21.8658 5.01641 21.9371 5.40963 21.9694 5.80498C22.0001 6.17954 22 6.6343 22 7.16144V13.3999C22 13.96 22 14.24 21.891 14.4539C21.7952 14.6421 21.6422 14.7951 21.454 14.891C21.2401 14.9999 20.9601 14.9999 20.4 14.9999H15.6628L15.6117 14.9999C15.4218 14.9993 15.1827 14.9987 14.9473 15.0552C14.7433 15.1042 14.5482 15.185 14.3692 15.2947C14.1629 15.4211 13.9942 15.5907 13.8603 15.7253C13.6836 15.9023 13.4413 15.9975 13.1912 15.9975H10.8088C10.5587 15.9975 10.3164 15.9023 10.1397 15.7253C10.0058 15.5907 9.83715 15.4211 9.6308 15.2947C9.45185 15.185 9.25676 15.1042 9.05269 15.0552C8.81736 14.9987 8.57822 14.9993 8.38831 14.9999L8.33727 14.9999H3.60002C3.03996 14.9999 2.75994 14.9999 2.54603 14.891C2.35786 14.7951 2.20488 14.6421 2.10901 14.4539C2.00002 14.24 2.00002 13.96 2.00002 13.3999L2.00001 7.16146C2 6.63431 1.99998 6.17955 2.03059 5.80498C2.06289 5.40963 2.1342 5.01641 2.327 4.63803C2.61462 4.07355 3.07356 3.6146 3.63804 3.32698C4.01642 3.13419 4.40964 3.06287 4.80499 3.03057C5.17954 2.99997 5.63435 2.99998 6.16147 3Z" fill="#344054"/>
<path d="M2.53396 17.0004C1.99201 17.0003 1.72103 17.0002 1.49147 17.1303C1.31276 17.2316 1.12497 17.4496 1.05123 17.6413C0.956516 17.8876 0.988693 18.1022 1.05305 18.5313C1.06646 18.6207 1.08265 18.7037 1.10215 18.7765C1.37955 19.8118 2.18819 20.6204 3.22347 20.8978C3.609 21.0011 4.04703 21.0007 4.55475 21.0001H19.4451C19.9528 21.0007 20.3909 21.0011 20.7764 20.8978C21.8117 20.6204 22.6203 19.8118 22.8977 18.7765C22.9171 18.7041 22.9332 18.6212 22.9464 18.5316C23.0102 18.1015 23.0421 17.8864 22.9471 17.6404C22.8731 17.4488 22.6855 17.2314 22.5067 17.1303C22.2772 17.0004 22.006 17.0006 21.4635 17.001L15.7963 17.0047C15.5495 17.0049 15.3142 17.0999 15.1397 17.2746C15.0058 17.4092 14.8372 17.5788 14.6308 17.7052C14.4519 17.8149 14.2568 17.8957 14.0527 17.9447C13.8174 18.0012 13.5782 18.0005 13.3883 18L13.3373 17.9999H10.6628L10.6117 18C10.4218 18.0005 10.1827 18.0012 9.94734 17.9447C9.74326 17.8957 9.54817 17.8149 9.36923 17.7052C9.16288 17.5788 8.99424 17.4092 8.86031 17.2746C8.68378 17.0974 8.44132 17.0023 8.19122 17.0022L2.53396 17.0004Z" fill="#344054"/>
</svg>
