<svg width="24" height="24" viewBox="0 0 24 24" fill="none" xmlns="http://www.w3.org/2000/svg">
<path d="M6.16148 3H17.8386C18.3657 2.99998 18.8205 2.99997 19.1951 3.03057C19.5904 3.06287 19.9836 3.13419 20.362 3.32698C20.9265 3.6146 21.3854 4.07355 21.673 4.63803C21.8658 5.01641 21.9372 5.40963 21.9695 5.80498C22.0001 6.17954 22 6.6343 22 7.16144V13.4C22 13.9601 22 14.2401 21.891 14.454C21.7952 14.6422 21.6422 14.7951 21.454 14.891C21.2401 15 20.9601 15 20.4 15H3.60003C3.03998 15 2.75995 15 2.54604 14.891C2.35788 14.7951 2.20489 14.6422 2.10902 14.454C2.00003 14.2401 2.00003 13.9601 2.00003 13.4L2.00003 7.16146C2.00001 6.63431 1.99999 6.17955 2.0306 5.80498C2.0629 5.40963 2.13421 5.01641 2.32701 4.63803C2.61463 4.07355 3.07357 3.6146 3.63806 3.32698C4.01644 3.13419 4.40965 3.06287 4.805 3.03057C5.17955 2.99997 5.63437 2.99998 6.16148 3Z" fill="#344054"/>
<path d="M2.41622 17C1.93816 17 1.69913 17 1.46722 17.1338C1.29669 17.2321 1.09502 17.4721 1.0275 17.657C0.935683 17.9085 0.966375 18.0841 1.02776 18.4352C1.04874 18.5552 1.0737 18.6698 1.10229 18.7765C1.37969 19.8118 2.18834 20.6204 3.22361 20.8978C3.60914 21.0011 4.04717 21.0007 4.55489 21.0001H19.4452C19.953 21.0007 20.391 21.0011 20.7765 20.8978C21.8118 20.6204 22.6204 19.8118 22.8978 18.7765C22.9263 18.6702 22.9512 18.5559 22.9721 18.4361C23.0335 18.0842 23.0642 17.9082 22.9723 17.6568C22.9047 17.4718 22.7032 17.2321 22.5326 17.1337C22.3007 17 22.0614 17 21.5827 17H2.41622Z" fill="#344054"/>
</svg>
