<svg width="24" height="24" viewBox="0 0 24 24" fill="none" xmlns="http://www.w3.org/2000/svg">
<path fill-rule="evenodd" clip-rule="evenodd" d="M5.63579 1.22173C6.02632 1.61225 6.02632 2.24542 5.63579 2.63594C2.23993 6.03181 2.1251 11.4664 5.29127 15H11V8.99997C11 8.44769 11.4477 7.99997 12 7.99997C12.5523 7.99997 13 8.44769 13 8.99997V15H18.7087C21.8749 11.4664 21.76 6.03181 18.3642 2.63594C17.9736 2.24542 17.9736 1.61225 18.3642 1.22173C18.7547 0.831202 19.3878 0.831202 19.7784 1.22173C23.5818 5.02511 24.0177 10.9206 21.0862 15.2038C21.1068 15.2116 21.1274 15.2198 21.148 15.2283C21.8831 15.5328 22.4671 16.1168 22.7716 16.8519C22.9066 17.1779 22.9561 17.5078 22.9786 17.8376C23 18.1508 23 18.5293 23 18.968V19.032C23 19.4706 23 19.8491 22.9786 20.1624C22.9561 20.4922 22.9066 20.8221 22.7716 21.148C22.4671 21.8831 21.8831 22.4671 21.148 22.7716C20.8221 22.9066 20.4922 22.9561 20.1624 22.9786C19.8491 23 19.4707 23 19.0321 23H4.96799C4.52938 23 4.15083 23 3.8376 22.9786C3.50777 22.9561 3.17786 22.9066 2.85193 22.7716C2.11684 22.4671 1.53282 21.8831 1.22834 21.148C1.09334 20.8221 1.04383 20.4922 1.02133 20.1624C0.999955 19.8491 0.999965 19.4706 0.999977 19.032L0.999977 18.968C0.999965 18.5293 0.999955 18.1508 1.02133 17.8376C1.04383 17.5078 1.09334 17.1779 1.22834 16.8519C1.53282 16.1168 2.11684 15.5328 2.85193 15.2283C2.87252 15.2198 2.89313 15.2116 2.91376 15.2038C-0.0177556 10.9206 0.418196 5.02511 4.22158 1.22173C4.61211 0.831202 5.24527 0.831202 5.63579 1.22173Z" fill="#344054"/>
<path d="M8.46444 5.4644C8.85497 5.07388 8.85497 4.44071 8.46444 4.05019C8.07392 3.65966 7.44075 3.65966 7.05023 4.05019C4.31656 6.78386 4.31656 11.216 7.05023 13.9497C7.44075 14.3402 8.07392 14.3402 8.46444 13.9497C8.85497 13.5592 8.85497 12.926 8.46444 12.5355C6.51182 10.5828 6.51182 7.41702 8.46444 5.4644Z" fill="#344054"/>
<path d="M16.9498 4.05019C16.5592 3.65966 15.9261 3.65966 15.5355 4.05019C15.145 4.44071 15.145 5.07388 15.5355 5.4644C17.4882 7.41702 17.4882 10.5828 15.5355 12.5355C15.145 12.926 15.145 13.5592 15.5355 13.9497C15.9261 14.3402 16.5592 14.3402 16.9498 13.9497C19.6834 11.216 19.6834 6.78386 16.9498 4.05019Z" fill="#344054"/>
</svg>
