<svg width="24" height="24" viewBox="0 0 24 24" fill="none" xmlns="http://www.w3.org/2000/svg">
<path d="M5.63579 2.22176C6.02632 2.61228 6.02632 3.24545 5.63579 3.63597C2.12108 7.15069 2.12108 12.8492 5.63579 16.3639C6.02632 16.7544 6.02632 17.3876 5.63579 17.7781C5.24527 18.1686 4.61211 18.1686 4.22158 17.7781C-0.0741861 13.4823 -0.0741861 6.51752 4.22158 2.22176C4.61211 1.83123 5.24527 1.83123 5.63579 2.22176Z" fill="#344054"/>
<path d="M8.46444 6.46443C8.85497 6.07391 8.85497 5.44074 8.46444 5.05022C8.07392 4.65969 7.44075 4.65969 7.05023 5.05022C4.31656 7.78389 4.31656 12.216 7.05023 14.9497C7.44075 15.3402 8.07392 15.3402 8.46444 14.9497C8.85497 14.5592 8.85497 13.926 8.46444 13.5355C6.51182 11.5829 6.51182 8.41705 8.46444 6.46443Z" fill="#344054"/>
<path d="M16.9498 5.05022C16.5592 4.65969 15.9261 4.65969 15.5355 5.05022C15.145 5.44074 15.145 6.07391 15.5355 6.46443C17.4882 8.41705 17.4882 11.5829 15.5355 13.5355C15.145 13.926 15.145 14.5592 15.5355 14.9497C15.9261 15.3402 16.5592 15.3402 16.9498 14.9497C19.6834 12.216 19.6834 7.78389 16.9498 5.05022Z" fill="#344054"/>
<path d="M19.7784 2.22176C19.3878 1.83123 18.7547 1.83123 18.3642 2.22176C17.9736 2.61228 17.9736 3.24545 18.3642 3.63597C21.8789 7.15069 21.8789 12.8492 18.3642 16.3639C17.9736 16.7544 17.9736 17.3876 18.3642 17.7781C18.7547 18.1686 19.3878 18.1686 19.7784 17.7781C24.0741 13.4823 24.0741 6.51752 19.7784 2.22176Z" fill="#344054"/>
<path fill-rule="evenodd" clip-rule="evenodd" d="M13 12.8293C14.1652 12.4175 15 11.3062 15 10C15 8.34315 13.6568 7 12 7C10.3431 7 8.99998 8.34315 8.99998 10C8.99998 11.3062 9.83478 12.4175 11 12.8293V21C11 21.5523 11.4477 22 12 22C12.5523 22 13 21.5523 13 21V12.8293Z" fill="#344054"/>
</svg>
