<svg width="24" height="24" viewBox="0 0 24 24" fill="none" xmlns="http://www.w3.org/2000/svg">
<path fill-rule="evenodd" clip-rule="evenodd" d="M19.1639 4.18822C19.6123 3.8657 20.2372 3.96769 20.5597 4.41602C22.0953 6.55072 23 9.17119 23 12C23 14.8288 22.0953 17.4493 20.5597 19.584C20.2372 20.0323 19.6123 20.1343 19.1639 19.8118C18.7156 19.4893 18.6136 18.8644 18.9361 18.416C20.2352 16.6102 21 14.3959 21 12C21 9.60407 20.2352 7.38974 18.9361 5.58396C18.6136 5.13563 18.7156 4.51073 19.1639 4.18822Z" fill="#344054"/>
<path fill-rule="evenodd" clip-rule="evenodd" d="M15.1732 7.17981C15.6262 6.86385 16.2495 6.97492 16.5655 7.4279C17.4696 8.7241 18 10.3016 18 12C18 13.6984 17.4696 15.2759 16.5655 16.5721C16.2495 17.0251 15.6262 17.1361 15.1732 16.8202C14.7202 16.5042 14.6092 15.8809 14.9251 15.4279C15.6027 14.4564 16 13.2761 16 12C16 10.7239 15.6027 9.54355 14.9251 8.57209C14.6092 8.11912 14.7202 7.49577 15.1732 7.17981Z" fill="#344054"/>
<path fill-rule="evenodd" clip-rule="evenodd" d="M10.3823 2.71172C10.861 2.67405 11.3288 2.86781 11.6406 3.23293C11.9199 3.55988 11.9642 3.95313 11.9811 4.14402C12.0001 4.35799 12 4.62375 12 4.89413C12 4.90653 12 4.91895 12 4.93136L12 19.1059C12 19.3762 12.0001 19.642 11.9811 19.856C11.9642 20.0469 11.9199 20.4401 11.6406 20.7671C11.3288 21.1322 10.861 21.3259 10.3823 21.2883C9.95368 21.2545 9.64424 21.0078 9.4973 20.8848C9.33259 20.7469 9.14469 20.559 8.95353 20.3677L5.76153 17.1757C5.6689 17.0831 5.6225 17.037 5.58738 17.005L5.58472 17.0026L5.58114 17.0024C5.53365 17.0002 5.46826 17 5.33726 17L3.56812 17C3.31574 17 3.06994 17.0001 2.86178 16.983C2.63318 16.9644 2.36345 16.9203 2.09202 16.782C1.7157 16.5903 1.40974 16.2843 1.21799 15.908C1.07969 15.6366 1.03563 15.3668 1.01695 15.1382C0.999943 14.9301 0.999973 14.6843 1 14.4319L1.00001 9.59999C1.00001 9.58935 1 9.57872 1 9.5681C0.999973 9.31571 0.999943 9.06992 1.01695 8.86176C1.03563 8.63317 1.07969 8.36344 1.21799 8.09201C1.40974 7.71569 1.7157 7.40973 2.09202 7.21798C2.36345 7.07968 2.63318 7.03562 2.86178 7.01694C3.06993 6.99993 3.31572 6.99996 3.56811 6.99999C3.57873 6.99999 3.58936 6.99999 3.60001 6.99999H5.33726C5.46826 6.99999 5.53365 6.99976 5.58114 6.99758L5.58472 6.99741L5.58738 6.995C5.6225 6.96295 5.6689 6.91689 5.76153 6.82426L8.92721 3.65857C8.936 3.64979 8.94477 3.64101 8.95354 3.63224C9.1447 3.44102 9.33259 3.25308 9.4973 3.11518C9.64424 2.99217 9.95368 2.74546 10.3823 2.71172Z" fill="#344054"/>
</svg>
