<svg width="24" height="24" viewBox="0 0 24 24" fill="none" xmlns="http://www.w3.org/2000/svg">
<path d="M11.3931 2.98951C12.1634 1.65616 14.0883 1.65698 14.8575 2.991L20.1582 12.1844C20.4341 12.6628 20.2698 13.2743 19.7914 13.5502C19.3129 13.8261 18.7014 13.6618 18.4256 13.1834L13.1249 3.98999L3.87457 20.0018H13.1149C13.6671 20.0018 14.1149 20.4495 14.1149 21.0018C14.1149 21.5541 13.6671 22.0018 13.1149 22.0018H3.87457C2.33472 22.0018 1.3725 20.3346 2.14279 19.0013L11.3931 2.98951Z" fill="#344054"/>
<path d="M13.105 8.49683C13.6573 8.49683 14.105 8.94454 14.105 9.49683V13.4968C14.105 14.0491 13.6573 14.4968 13.105 14.4968C12.5527 14.4968 12.105 14.0491 12.105 13.4968V9.49683C12.105 8.94454 12.5527 8.49683 13.105 8.49683Z" fill="#344054"/>
<path d="M12.105 17.4968C12.105 16.9445 12.5527 16.4968 13.105 16.4968H13.115C13.6673 16.4968 14.115 16.9445 14.115 17.4968C14.115 18.0491 13.6673 18.4968 13.115 18.4968H13.105C12.5527 18.4968 12.105 18.0491 12.105 17.4968Z" fill="#344054"/>
<path d="M17.8355 16.3029C17.445 15.9124 16.8118 15.9124 16.4213 16.3029C16.0308 16.6934 16.0308 17.3266 16.4213 17.7171L17.7142 19.01L16.4213 20.3029C16.0308 20.6934 16.0308 21.3266 16.4213 21.7171C16.8118 22.1076 17.445 22.1076 17.8355 21.7171L19.1284 20.4242L20.4213 21.7171C20.8118 22.1076 21.445 22.1076 21.8355 21.7171C22.2261 21.3266 22.2261 20.6934 21.8355 20.3029L20.5426 19.01L21.8355 17.7171C22.2261 17.3266 22.2261 16.6934 21.8355 16.3029C21.445 15.9124 20.8118 15.9124 20.4213 16.3029L19.1284 17.5958L17.8355 16.3029Z" fill="#344054"/>
</svg>
