<svg width="24" height="24" viewBox="0 0 24 24" fill="none" xmlns="http://www.w3.org/2000/svg">
<path d="M6.62491 2.21484L5.66396 3.85938C5.51552 4.11328 5.4374 4.40625 5.4374 4.70312V4.8125C5.4374 5.67578 6.13662 6.375 6.99991 6.375C7.8632 6.375 8.56242 5.67578 8.56242 4.8125V4.70312C8.56242 4.40625 8.4843 4.11719 8.33586 3.85938L7.37491 2.21484C7.29679 2.08203 7.15616 2 6.99991 2C6.84366 2 6.70303 2.08203 6.62491 2.21484ZM11.625 2.21484L10.664 3.85938C10.5156 4.11328 10.4374 4.40625 10.4374 4.70312V4.8125C10.4374 5.67578 11.1367 6.375 12 6.375C12.8632 6.375 13.5625 5.67578 13.5625 4.8125V4.70312C13.5625 4.40625 13.4843 4.11719 13.3359 3.85938L12.375 2.21484C12.2968 2.08203 12.1562 2 12 2C11.8437 2 11.7031 2.08203 11.625 2.21484ZM15.664 3.85938C15.5156 4.11328 15.4375 4.40625 15.4375 4.70312V4.8125C15.4375 5.67578 16.1367 6.375 17 6.375C17.8633 6.375 18.5625 5.67578 18.5625 4.8125V4.70312C18.5625 4.40625 18.4844 4.11719 18.3359 3.85938L17.375 2.21484C17.2969 2.08203 17.1562 2 17 2C16.8437 2 16.7031 2.08203 16.625 2.21484L15.664 3.85938ZM7.93742 8.5625C7.93742 8.04297 7.51945 7.625 6.99991 7.625C6.48037 7.625 6.0624 8.04297 6.0624 8.5625V10.75H5.7499C4.37098 10.75 3.24988 11.8711 3.24988 13.25V20.75C3.24988 21.4414 3.80848 22 4.49989 22H19.5C20.1914 22 20.75 21.4414 20.75 20.75V13.25C20.75 11.8711 19.6289 10.75 18.25 10.75H17.9375V8.5625C17.9375 8.04297 17.5195 7.625 17 7.625C16.4805 7.625 16.0625 8.04297 16.0625 8.5625V10.75H12.9375V8.5625C12.9375 8.04297 12.5195 7.625 12 7.625C11.4804 7.625 11.0624 8.04297 11.0624 8.5625V10.75H7.93742V8.5625ZM5.7499 12.625H18.25C18.5938 12.625 18.875 12.9062 18.875 13.25V15.625C18.6602 15.543 18.4492 15.4258 18.2578 15.293C18.1328 15.207 18.0195 15.0977 17.9023 14.9922C17.6406 14.7461 17.375 14.5 16.9961 14.5C16.6289 14.5 16.3516 14.7539 16.082 15C15.9687 15.1055 15.8555 15.2109 15.7344 15.293C15.3672 15.5547 14.9297 15.75 14.5 15.75C14.0703 15.75 13.6328 15.5547 13.2578 15.293C13.1328 15.207 13.0195 15.0977 12.9023 14.9922C12.6406 14.7461 12.375 14.5 11.996 14.5C11.6289 14.5 11.3515 14.7539 11.082 15C10.9687 15.1055 10.8554 15.2109 10.7343 15.293C10.3671 15.5547 9.92962 15.75 9.49993 15.75C9.07024 15.75 8.63274 15.5547 8.25773 15.293C8.13273 15.207 8.01945 15.0977 7.90226 14.9922C7.64054 14.7461 7.37882 14.5 6.99991 14.5C6.63272 14.5 6.35537 14.7539 6.08584 15C5.97256 15.1055 5.85928 15.2109 5.73818 15.293C5.54677 15.4258 5.33583 15.543 5.12099 15.625V13.25C5.12099 12.9062 5.40224 12.625 5.74599 12.625H5.7499ZM18.875 17.5664V20.125H5.12489V17.5664C5.80849 17.4375 6.44912 17.1133 6.99991 16.6953C7.71867 17.2422 8.58586 17.625 9.49993 17.625C10.414 17.625 11.2812 17.2422 12 16.6953C12.7187 17.2422 13.5859 17.625 14.5 17.625C15.414 17.625 16.2812 17.2422 17 16.6953C17.5508 17.1133 18.1914 17.4375 18.875 17.5664Z" fill="#344054"/>
</svg>
