<svg width="24" height="24" viewBox="0 0 24 24" fill="none" xmlns="http://www.w3.org/2000/svg">
<path d="M14.5 5H3.5C3.23478 5 2.98043 5.10536 2.79289 5.29289C2.60536 5.48043 2.5 5.73478 2.5 6V8C2.5 8.26522 2.60536 8.51957 2.79289 8.70711C2.98043 8.89464 3.23478 9 3.5 9H14.5C14.7652 9 15.0196 8.89464 15.2071 8.70711C15.3946 8.51957 15.5 8.26522 15.5 8V6C15.5 5.73478 15.3946 5.48043 15.2071 5.29289C15.0196 5.10536 14.7652 5 14.5 5Z" stroke="#344054" stroke-width="1.75001" stroke-linecap="round" stroke-linejoin="round"/>
<path d="M14.5 12H3.5C3.23478 12 2.98043 12.1054 2.79289 12.2929C2.60536 12.4804 2.5 12.7348 2.5 13V15C2.5 15.2652 2.60536 15.5196 2.79289 15.7071C2.98043 15.8946 3.23478 16 3.5 16H14.5C14.7652 16 15.0196 15.8946 15.2071 15.7071C15.3946 15.5196 15.5 15.2652 15.5 15V13C15.5 12.7348 15.3946 12.4804 15.2071 12.2929C15.0196 12.1054 14.7652 12 14.5 12Z" stroke="#344054" stroke-width="1.75001" stroke-linecap="round" stroke-linejoin="round"/>
<path d="M14.5 19H3.5C3.23478 19 2.98043 19.1054 2.79289 19.2929C2.60536 19.4804 2.5 19.7348 2.5 20V22C2.5 22.2652 2.60536 22.5196 2.79289 22.7071C2.98043 22.8946 3.23478 23 3.5 23H14.5C14.7652 23 15.0196 22.8946 15.2071 22.7071C15.3946 22.5196 15.5 22.2652 15.5 22V20C15.5 19.7348 15.3946 19.4804 15.2071 19.2929C15.0196 19.1054 14.7652 19 14.5 19Z" stroke="#344054" stroke-width="1.75001" stroke-linecap="round" stroke-linejoin="round"/>
<path d="M21.5 1V20C21.5 20.2652 21.3946 20.5196 21.2071 20.7071C21.0196 20.8946 20.7652 21 20.5 21H15.5" stroke="#344054" stroke-width="1.75001" stroke-linecap="round" stroke-linejoin="round"/>
<path d="M15.5 7H21.5" stroke="#344054" stroke-width="1.75001" stroke-linecap="round" stroke-linejoin="round"/>
<path d="M15.5 14H21.5" stroke="#344054" stroke-width="1.75001" stroke-linecap="round" stroke-linejoin="round"/>
</svg>
