<svg width="24" height="24" viewBox="0 0 24 24" fill="none" xmlns="http://www.w3.org/2000/svg">
<path d="M16.5 5.5H14V7.80312C14 7.9125 13.9125 8 13.8031 8C13.7688 8 13.7344 7.99062 13.7063 7.975L12.25 7.14375C12.0969 7.05625 11.9062 7.05625 11.7531 7.14375L10.2969 7.975C10.2656 7.99062 10.2344 8 10.2 8C10.0906 8 10.0031 7.9125 10.0031 7.80312V5.5H7.5V10.5H16.5V5.5ZM16.5 4C17.3281 4 18 4.67188 18 5.5V10.5C18 11.3281 17.3281 12 16.5 12H7.5C6.67188 12 6 11.3281 6 10.5V5.5C6 4.67188 6.67188 4 7.5 4H10H14H16.5ZM8.85625 15C8.60938 15 8.36875 15.0719 8.1625 15.2094L5.66563 16.875C5.54375 16.9563 5.39687 17 5.25 17H3.75C3.33437 17 3 16.6656 3 16.25C3 15.8344 3.33437 15.5 3.75 15.5H5.02187L7.32812 13.9625C7.78125 13.6594 8.3125 13.5 8.85625 13.5H13.75C14.8531 13.5 15.75 14.3969 15.75 15.5C15.75 15.5219 15.75 15.5406 15.75 15.5625L17.7781 14.3125C18.1125 14.1062 18.4937 14 18.8875 14H19.1187C20.1594 14 21.0031 14.8438 21.0031 15.8844C21.0031 16.5219 20.6781 17.1187 20.1437 17.4656L17.1562 19.4C16.55 19.7937 15.8406 20.0031 15.1187 20.0031H3.75C3.33437 20.0031 3 19.6687 3 19.2531C3 18.8375 3.33437 18.5031 3.75 18.5031H15.1156C15.55 18.5031 15.975 18.3781 16.3375 18.1406L19.325 16.2063C19.4344 16.1344 19.5 16.0156 19.5 15.8844C19.5 15.6719 19.3281 15.5 19.1156 15.5H18.8844C18.7719 15.5 18.6594 15.5312 18.5625 15.5906L15.6406 17.3875C15.5219 17.4594 15.3875 17.5 15.2469 17.5H13.75H13H11C10.5844 17.5 10.25 17.1656 10.25 16.75C10.25 16.3344 10.5844 16 11 16H13H13.75C14.025 16 14.25 15.775 14.25 15.5C14.25 15.225 14.025 15 13.75 15H8.85625Z" fill="#344054"/>
</svg>
