<svg width="24" height="24" viewBox="0 0 24 24" fill="none" xmlns="http://www.w3.org/2000/svg">
<path d="M19.9669 11.5C20.5375 11.5 21.0058 11.9639 20.9439 12.5311C20.7786 14.0453 20.2508 15.503 19.399 16.7779C18.3551 18.3402 16.8714 19.5578 15.1355 20.2769C13.3996 20.9959 11.4895 21.184 9.64664 20.8175C7.80382 20.4509 6.11108 19.5461 4.78249 18.2175C3.45389 16.8889 2.5491 15.1962 2.18254 13.3534C1.81598 11.5105 2.00411 9.60041 2.72314 7.86451C3.44218 6.12861 4.65982 4.64491 6.22208 3.60104C7.49699 2.74917 8.95468 2.22143 10.4689 2.05611C11.0361 1.99419 11.5 2.46253 11.5 3.03309C11.5 3.60365 11.0353 4.05881 10.4702 4.13785C9.36539 4.29239 8.30489 4.69432 7.36999 5.319C6.1475 6.13584 5.19469 7.29685 4.63204 8.6552C4.0694 10.0136 3.92218 11.5082 4.20902 12.9503C4.49585 14.3923 5.20386 15.7169 6.24349 16.7565C7.28313 17.7961 8.60771 18.5041 10.0497 18.791C11.4918 19.0778 12.9864 18.9306 14.3448 18.368C15.7032 17.8053 16.8642 16.8525 17.681 15.63C18.3057 14.6951 18.7076 13.6346 18.8622 12.5298C18.9412 11.9647 19.3964 11.5 19.9669 11.5Z" fill="#344054"/>
</svg>
