<svg width="24" height="24" viewBox="0 0 24 24" fill="none" xmlns="http://www.w3.org/2000/svg">
<g clip-path="url(#clip0_3_3534)">
<path d="M3.68752 3.6874C3.68752 3.37246 3.81263 3.07041 4.03533 2.84771C4.25803 2.62501 4.56007 2.4999 4.87502 2.4999C5.18996 2.4999 5.49201 2.62501 5.71471 2.84771C5.93741 3.07041 6.06252 3.37246 6.06252 3.6874C6.06252 4.00235 5.93741 4.30439 5.71471 4.52709C5.49201 4.74979 5.18996 4.8749 4.87502 4.8749C4.56007 4.8749 4.25803 4.74979 4.03533 4.52709C3.81263 4.30439 3.68752 4.00235 3.68752 3.6874ZM19.125 8.4374C19.125 8.12246 19.2501 7.82041 19.4728 7.59771C19.6955 7.37501 19.9976 7.2499 20.3125 7.2499C20.6275 7.2499 20.9295 7.37501 21.1522 7.59771C21.3749 7.82041 21.5 8.12246 21.5 8.4374C21.5 8.75235 21.3749 9.05439 21.1522 9.27709C20.9295 9.49979 20.6275 9.6249 20.3125 9.6249C19.9976 9.6249 19.6955 9.49979 19.4728 9.27709C19.2501 9.05439 19.125 8.75235 19.125 8.4374ZM20.3125 17.9374C20.6275 17.9374 20.9295 18.0625 21.1522 18.2852C21.3749 18.5079 21.5 18.81 21.5 19.1249C21.5 19.4398 21.3749 19.7419 21.1522 19.9646C20.9295 20.1873 20.6275 20.3124 20.3125 20.3124C19.9976 20.3124 19.6955 20.1873 19.4728 19.9646C19.2501 19.7419 19.125 19.4398 19.125 19.1249C19.125 18.81 19.2501 18.5079 19.4728 18.2852C19.6955 18.0625 19.9976 17.9374 20.3125 17.9374ZM8.69728 8.17764C8.34845 7.82881 8.34845 7.26475 8.69728 6.91963L9.00529 6.61162C9.62502 5.9919 10.0147 5.1792 10.1111 4.30713L10.2225 3.29033C10.2781 2.8042 10.7197 2.45166 11.2096 2.50361C11.6994 2.55557 12.052 2.99717 11.9963 3.48701L11.885 4.50381C11.744 5.77666 11.1725 6.96416 10.267 7.86963L9.959 8.17764C9.61017 8.52647 9.04611 8.52647 8.70099 8.17764H8.69728ZM15.8223 14.0409L16.1266 13.7329C17.032 12.8274 18.2195 12.256 19.4924 12.1149L20.5092 12.0036C20.999 11.948 21.4369 12.3005 21.4926 12.7903C21.5483 13.2802 21.1957 13.7181 20.7059 13.7737L19.6891 13.8851C18.817 13.9815 18.0043 14.3712 17.3846 14.9909L17.084 15.3026C16.7352 15.6515 16.1711 15.6515 15.826 15.3026C15.4809 14.9538 15.4772 14.3897 15.826 14.0446L15.8223 14.0409ZM21.2885 2.81533C21.6076 3.19014 21.5594 3.7542 21.1846 4.06963L20.8135 4.38506C20.2643 4.84893 19.5629 5.09385 18.8467 5.07529C18.2307 5.06045 17.7112 5.53545 17.674 6.15147L17.6072 7.26475C17.5145 8.8419 16.186 10.0591 14.6088 10.0183C14.3268 10.0108 14.0522 10.1073 13.8406 10.2892L13.4695 10.6046C13.0947 10.9237 12.5307 10.8755 12.2153 10.5007C11.8998 10.1259 11.9444 9.56182 12.3192 9.24639L12.6903 8.93096C13.2395 8.46709 13.9408 8.22217 14.657 8.24072C15.2731 8.25557 15.7926 7.78057 15.8297 7.16455L15.8965 6.05127C15.9893 4.47412 17.3178 3.25693 18.8949 3.29775C19.177 3.30518 19.4516 3.20869 19.6631 3.02686L20.0342 2.71143C20.409 2.39229 20.9731 2.44053 21.2885 2.81533ZM4.7006 19.2993L7.92541 18.0896L5.91037 16.0745L4.7006 19.2993ZM12.1262 16.5161L7.48752 11.8774L6.6006 14.245L9.75861 17.403L12.1262 16.5161ZM6.14045 10.3894C6.43732 9.59522 7.49123 9.36514 8.0924 9.96631L14.0373 15.9075C14.6385 16.5087 14.4084 17.5626 13.6143 17.8595L4.10685 21.4257C3.16798 21.7745 2.22541 20.8319 2.57423 19.8968L6.14045 10.3894Z" fill="#344054"/>
</g>
<defs>
<clipPath id="clip0_3_3534">
<rect width="19" height="19" fill="white" transform="translate(2.5 2.5)"/>
</clipPath>
</defs>
</svg>
