<svg width="24" height="24" viewBox="0 0 24 24" fill="none" xmlns="http://www.w3.org/2000/svg">
<path d="M14.8222 3.99346H10.1778C10.046 3.99346 9.91967 3.94113 9.82652 3.84797C9.73336 3.75482 9.68103 3.62847 9.68103 3.49673C9.68103 3.36499 9.73336 3.23864 9.82652 3.14549C9.91967 3.05233 10.046 3 10.1778 3H14.8222C14.9539 3 15.0803 3.05233 15.1734 3.14549C15.2666 3.23864 15.3189 3.36499 15.3189 3.49673C15.3189 3.62847 15.2666 3.75482 15.1734 3.84797C15.0803 3.94113 14.9539 3.99346 14.8222 3.99346Z" fill="#344054"/>
<path d="M18.1429 10.6996C18.0111 10.6996 17.8848 10.6473 17.7916 10.5541C17.6985 10.4609 17.6461 10.3346 17.6461 10.2029V6.72574C17.6461 6.59399 17.6985 6.46765 17.7916 6.37449C17.8848 6.28134 18.0111 6.229 18.1429 6.229C18.2746 6.229 18.4009 6.28134 18.4941 6.37449C18.5872 6.46765 18.6396 6.59399 18.6396 6.72574V10.2029C18.6396 10.3346 18.5872 10.4609 18.4941 10.5541C18.4009 10.6473 18.2746 10.6996 18.1429 10.6996Z" fill="#344054"/>
<path d="M6.85708 10.6996C6.72534 10.6996 6.599 10.6473 6.50584 10.5541C6.41269 10.4609 6.36035 10.3346 6.36035 10.2029V6.72574C6.36035 6.59399 6.41269 6.46765 6.50584 6.37449C6.599 6.28134 6.72534 6.229 6.85708 6.229C6.98883 6.229 7.11517 6.28134 7.20833 6.37449C7.30148 6.46765 7.35382 6.59399 7.35382 6.72574V10.2029C7.35382 10.3346 7.30148 10.4609 7.20833 10.5541C7.11517 10.6473 6.98883 10.6996 6.85708 10.6996Z" fill="#344054"/>
<path d="M6.85708 10.6996C6.72534 10.6996 6.599 10.6473 6.50584 10.5541C6.41269 10.4609 6.36035 10.3346 6.36035 10.2029V6.72574C6.36035 6.59399 6.41269 6.46765 6.50584 6.37449C6.599 6.28134 6.72534 6.229 6.85708 6.229C6.98883 6.229 7.11517 6.28134 7.20833 6.37449C7.30148 6.46765 7.35382 6.59399 7.35382 6.72574V10.2029C7.35382 10.3346 7.30148 10.4609 7.20833 10.5541C7.11517 10.6473 6.98883 10.6996 6.85708 10.6996Z" fill="#344054"/>
<path d="M18.1429 10.6996C18.0111 10.6996 17.8848 10.6473 17.7916 10.5541C17.6985 10.4609 17.6461 10.3346 17.6461 10.2029V6.72574C17.6461 6.59399 17.6985 6.46765 17.7916 6.37449C17.8848 6.28134 18.0111 6.229 18.1429 6.229C18.2746 6.229 18.4009 6.28134 18.4941 6.37449C18.5872 6.46765 18.6396 6.59399 18.6396 6.72574V10.2029C18.6396 10.3346 18.5872 10.4609 18.4941 10.5541C18.4009 10.6473 18.2746 10.6996 18.1429 10.6996Z" fill="#344054"/>
<path d="M18.1429 21.2549H6.85712C6.72538 21.2549 6.59904 21.2026 6.50588 21.1094C6.41273 21.0163 6.36039 20.8899 6.36039 20.7582V10.6993H3.49673C3.36499 10.6993 3.23864 10.647 3.14549 10.5539C3.05233 10.4607 3 10.3344 3 10.2026V6.10458C3.00131 5.28159 3.32882 4.4927 3.91076 3.91076C4.4927 3.32882 5.28159 3.00131 6.10458 3H10.1778C10.2497 3.0003 10.3207 3.01623 10.3859 3.04667C10.4511 3.07712 10.5089 3.12136 10.5553 3.17634L12.5 5.46131L14.4447 3.17634C14.4911 3.12136 14.5489 3.07712 14.6141 3.04667C14.6793 3.01623 14.7503 3.0003 14.8222 3H18.8954C19.7184 3.00131 20.5073 3.32882 21.0892 3.91076C21.6712 4.4927 21.9987 5.28159 22 6.10458V10.2026C22 10.3344 21.9477 10.4607 21.8545 10.5539C21.7614 10.647 21.635 10.6993 21.5033 10.6993H18.6396V20.7582C18.6396 20.8899 18.5873 21.0163 18.4941 21.1094C18.401 21.2026 18.2746 21.2549 18.1429 21.2549ZM7.35386 20.2614H17.6461V10.2026C17.6461 10.0709 17.6985 9.94453 17.7916 9.85137C17.8848 9.75822 18.0111 9.70588 18.1429 9.70588H21.0065V6.10458C21.0059 5.54488 20.7832 5.00829 20.3875 4.61252C19.9917 4.21675 19.4551 3.99412 18.8954 3.99346H15.0507L12.8775 6.54915C12.8309 6.60201 12.7736 6.64434 12.7093 6.67333C12.6451 6.70233 12.5754 6.71733 12.505 6.71733C12.4345 6.71733 12.3648 6.70233 12.3006 6.67333C12.2364 6.64434 12.179 6.60201 12.1324 6.54915L9.94928 3.99346H6.10458C5.54488 3.99412 5.00829 4.21675 4.61252 4.61252C4.21675 5.00829 3.99412 5.54488 3.99346 6.10458V9.70588H6.85712C6.98887 9.70588 7.11521 9.75822 7.20837 9.85137C7.30152 9.94453 7.35386 10.0709 7.35386 10.2026V20.2614Z" fill="#344054"/>
</svg>
