<svg width="24" height="24" viewBox="0 0 24 24" fill="none" xmlns="http://www.w3.org/2000/svg">
<path d="M12.6456 1.77591C12.2372 1.58121 11.7628 1.58121 11.3545 1.77591C11.0014 1.94422 10.8068 2.23646 10.7087 2.39678C10.6072 2.56252 10.503 2.77365 10.4015 2.97944L8.24576 7.34672L3.42371 8.05153C3.19672 8.08466 2.96381 8.11866 2.7749 8.16409C2.59214 8.20803 2.25423 8.30308 1.98531 8.58693C1.67422 8.91529 1.52792 9.36651 1.58714 9.81494C1.63833 10.2026 1.85618 10.4778 1.97838 10.6207C2.10469 10.7683 2.27334 10.9325 2.43771 11.0925L5.9255 14.4896L5.10254 19.2879C5.06369 19.5141 5.02383 19.7462 5.00849 19.94C4.99365 20.1274 4.97931 20.4783 5.16601 20.822C5.38196 21.2196 5.76584 21.4985 6.21071 21.581C6.59531 21.6523 6.9246 21.5301 7.09823 21.4581C7.27778 21.3836 7.4862 21.2739 7.68936 21.167L12 18.9001L16.3107 21.1671C16.5139 21.2739 16.7223 21.3836 16.9018 21.4581C17.0755 21.5301 17.4047 21.6523 17.7893 21.581C18.2342 21.4985 18.6181 21.2196 18.834 20.822C19.0207 20.4783 19.0064 20.1274 18.9916 19.94C18.9762 19.7462 18.9364 19.5142 18.8975 19.2879L18.0745 14.4896L21.5624 11.0925C21.7267 10.9325 21.8954 10.7683 22.0217 10.6207C22.1439 10.4778 22.3617 10.2026 22.4129 9.81494C22.4721 9.36651 22.3258 8.91529 22.0147 8.58693C21.7458 8.30308 21.4079 8.20803 21.2252 8.16409C21.0362 8.11866 20.8033 8.08466 20.5763 8.05153L15.7543 7.34672L13.5986 2.97951C13.4971 2.77371 13.3929 2.56253 13.2914 2.39678C13.1932 2.23646 12.9986 1.94422 12.6456 1.77591Z" fill="#344054"/>
</svg>
