<svg width="24" height="24" viewBox="0 0 24 24" fill="none" xmlns="http://www.w3.org/2000/svg">
<path fill-rule="evenodd" clip-rule="evenodd" d="M11.2071 1.29302C10.8166 0.902491 10.1834 0.902491 9.79289 1.29302C9.40237 1.68354 9.40237 2.3167 9.79289 2.70723L10.0857 3.00006L4.15783 8.92796C3.58863 9.49715 3.11885 9.96691 2.76743 10.3809C2.40244 10.8108 2.10677 11.2459 1.93845 11.7639C1.67742 12.5673 1.67742 13.4327 1.93845 14.236C2.10677 14.7541 2.40244 15.1891 2.76743 15.6191C3.11885 16.033 3.58864 16.5028 4.15787 17.072L7.42804 20.3422C7.99718 20.9113 8.467 21.3812 8.88093 21.7326C9.31086 22.0976 9.74592 22.3932 10.264 22.5616C11.0673 22.8226 11.9327 22.8226 12.7361 22.5616C13.2541 22.3932 13.6892 22.0976 14.1191 21.7326C14.5331 21.3812 15.0028 20.9114 15.5719 20.3423L21.0983 14.8159C21.2768 14.6375 21.4506 14.4637 21.5858 14.3045C21.7342 14.1296 21.8938 13.9077 21.9879 13.618C22.1185 13.2163 22.1185 12.7836 21.9879 12.3819C21.8938 12.0922 21.7342 11.8703 21.5858 11.6955C21.4506 11.5363 21.2768 11.3625 21.0983 11.184L12.2071 2.29286C12.2033 2.28899 12.1994 2.28516 12.1955 2.28136L11.2071 1.29302ZM11.5 4.41418L5.60125 10.313C4.99556 10.9187 4.58437 11.331 4.29211 11.6752C4.18619 11.8 4.10409 11.9066 4.03995 12H19.0858L11.5 4.41418Z" fill="#344054"/>
</svg>
