<svg width="24" height="24" viewBox="0 0 24 24" fill="none" xmlns="http://www.w3.org/2000/svg">
<path d="M4.51952 22.2618C3.6329 22.5228 3.18959 22.6533 3.0066 22.5518C2.84886 22.4643 2.75048 22.2986 2.74915 22.1182C2.74762 21.9089 3.07438 21.5822 3.72792 20.9286L10.4822 14.1744C10.6474 14.2186 10.821 14.2421 11.0002 14.2421C12.1048 14.2421 13.0002 13.3467 13.0002 12.2421C13.0002 11.1376 12.1048 10.2421 11.0002 10.2421C9.89563 10.2421 9.0002 11.1376 9.0002 12.2421C9.0002 12.4213 9.02376 12.5949 9.06795 12.7602L2.3137 19.5144C1.66017 20.168 1.3334 20.4947 1.12415 20.4932C0.943766 20.4919 0.778085 20.3935 0.690584 20.2357C0.589075 20.0527 0.719577 19.6094 0.98058 18.7228L4.30656 7.42459C4.3722 7.14791 4.45468 6.80027 4.64716 6.50508C4.81342 6.2501 5.03568 6.03643 5.29702 5.88036C5.59958 5.69967 5.9502 5.63097 6.22925 5.57629L11.4359 4.53518C11.3908 4.23112 11.4162 3.91919 11.5122 3.624C11.6063 3.33429 11.7659 3.1124 11.9143 2.93755C12.0495 2.77833 12.2233 2.60455 12.4018 2.42611L13.1841 1.64376C13.3626 1.46527 13.5363 1.29144 13.6956 1.15628C13.8704 1.00784 14.0923 0.848272 14.382 0.754137C14.7837 0.623621 15.2164 0.623621 15.6181 0.754137C15.9078 0.848272 16.1297 1.00784 16.3045 1.15628C16.4638 1.29144 16.6375 1.46526 16.816 1.64375L21.5984 6.42612C21.7768 6.60456 21.9507 6.77834 22.0858 6.93755C22.2342 7.1124 22.3938 7.33429 22.488 7.624C22.6185 8.02569 22.6185 8.45839 22.488 8.86007C22.3938 9.14979 22.2342 9.37168 22.0858 9.54653C21.9507 9.70573 21.7768 9.87951 21.5984 10.0579L20.816 10.8403C20.6376 11.0187 20.4637 11.1927 20.3045 11.3278C20.1297 11.4762 19.9078 11.6358 19.6181 11.7299C19.323 11.8258 19.0112 11.8513 18.7072 11.8063L17.666 17.0131C17.6114 17.2921 17.5427 17.6428 17.362 17.9453C17.2059 18.2066 16.9922 18.4289 16.7373 18.5952C16.4421 18.7877 16.0944 18.8701 15.8177 18.9358L4.51952 22.2618Z" fill="#344054"/>
</svg>
