<svg width="24" height="24" viewBox="0 0 24 24" fill="none" xmlns="http://www.w3.org/2000/svg">
<path d="M8.05479 3.91074C8.55118 3.66863 8.75732 3.06996 8.51522 2.57357C8.27311 2.07718 7.67444 1.87105 7.17805 2.11315C5.09018 3.13147 3.37828 4.78464 2.28771 6.8357C1.19714 8.88676 0.78389 11.2304 1.10719 13.5308C1.18405 14.0777 1.68972 14.4587 2.23663 14.3819C2.78354 14.305 3.16459 13.7994 3.08772 13.2524C2.82321 11.3703 3.16132 9.45278 4.05361 7.77464C4.94589 6.0965 6.34653 4.74391 8.05479 3.91074Z" fill="#344054"/>
<path d="M15.4849 2.57357C15.7271 2.07718 16.3257 1.87105 16.8221 2.11315C18.91 3.13147 20.6219 4.78464 21.7125 6.8357C22.803 8.88676 23.2163 11.2304 22.893 13.5308C22.8161 14.0777 22.3104 14.4587 21.7635 14.3819C21.2166 14.305 20.8356 13.7994 20.9124 13.2524C21.177 11.3703 20.8388 9.45278 19.9466 7.77464C19.0543 6.0965 17.6536 4.74391 15.9454 3.91074C15.449 3.66863 15.2428 3.06996 15.4849 2.57357Z" fill="#344054"/>
<path d="M5.31315 19.5026C5.63778 19.0558 6.26315 18.9568 6.70996 19.2814C8.24759 20.3985 10.0994 21.0002 12 21.0002C13.9006 21.0002 15.7525 20.3985 17.2901 19.2814C17.7369 18.9568 18.3623 19.0558 18.6869 19.5026C19.0115 19.9494 18.9125 20.5748 18.4657 20.8994C16.5863 22.2648 14.323 23.0002 12 23.0002C9.67705 23.0002 7.41371 22.2648 5.53439 20.8994C5.08758 20.5748 4.98853 19.9494 5.31315 19.5026Z" fill="#344054"/>
<path d="M12 5.5C8.41018 5.5 5.50003 8.41015 5.50003 12C5.50003 15.5899 8.41018 18.5 12 18.5C15.5899 18.5 18.5 15.5899 18.5 12C18.5 8.41015 15.5899 5.5 12 5.5Z" fill="#344054"/>
</svg>
