<svg width="24" height="24" viewBox="0 0 24 24" fill="none" xmlns="http://www.w3.org/2000/svg">
<path d="M8.05479 3.91074C8.55118 3.66863 8.75732 3.06996 8.51522 2.57357C8.27311 2.07718 7.67444 1.87105 7.17805 2.11315C5.09018 3.13147 3.37828 4.78464 2.28771 6.8357C1.19714 8.88676 0.78389 11.2304 1.10719 13.5308C1.18405 14.0777 1.68972 14.4587 2.23663 14.3819C2.78354 14.305 3.16459 13.7994 3.08772 13.2524C2.82321 11.3703 3.16132 9.45278 4.05361 7.77464C4.94589 6.0965 6.34653 4.74391 8.05479 3.91074Z" fill="#344054"/>
<path d="M15.4849 2.57357C15.7271 2.07718 16.3257 1.87105 16.8221 2.11315C18.91 3.13147 20.6219 4.78464 21.7125 6.8357C22.803 8.88676 23.2163 11.2304 22.893 13.5308C22.8161 14.0777 22.3104 14.4587 21.7635 14.3819C21.2166 14.305 20.8356 13.7994 20.9124 13.2524C21.177 11.3703 20.8388 9.45278 19.9466 7.77464C19.0543 6.0965 17.6536 4.74391 15.9454 3.91074C15.449 3.66863 15.2428 3.06996 15.4849 2.57357Z" fill="#344054"/>
<path d="M5.31315 19.5026C5.63778 19.0558 6.26315 18.9568 6.70996 19.2814C8.24759 20.3985 10.0994 21.0002 12 21.0002C13.9006 21.0002 15.7525 20.3985 17.2901 19.2814C17.7369 18.9568 18.3623 19.0558 18.6869 19.5026C19.0115 19.9494 18.9125 20.5748 18.4657 20.8994C16.5863 22.2648 14.323 23.0002 12 23.0002C9.67705 23.0002 7.41371 22.2648 5.53439 20.8994C5.08758 20.5748 4.98853 19.9494 5.31315 19.5026Z" fill="#344054"/>
<path d="M12.9758 5.57587C12.8648 5.48158 12.6962 5.35603 12.4635 5.28045C12.1623 5.18256 11.8378 5.18256 11.5365 5.28045C11.3039 5.35603 11.1353 5.48158 11.0242 5.57587C10.9283 5.65725 10.8278 5.75787 10.7436 5.84213L5.84222 10.7435C5.75796 10.8277 5.65734 10.9282 5.57597 11.0241C5.48167 11.1352 5.35613 11.3038 5.28054 11.5364C5.18265 11.8377 5.18265 12.1622 5.28054 12.4634C5.35613 12.6961 5.48167 12.8647 5.57597 12.9758C5.65734 13.0716 5.75798 13.1722 5.84224 13.2564L10.7436 18.1577C10.8278 18.242 10.9283 18.3426 11.0242 18.424C11.1353 18.5183 11.3039 18.6438 11.5365 18.7194C11.8378 18.8173 12.1623 18.8173 12.4635 18.7194C12.6962 18.6438 12.8648 18.5183 12.9758 18.424C13.0717 18.3426 13.1723 18.242 13.2565 18.1577L18.1578 13.2564C18.2421 13.1722 18.3427 13.0716 18.4241 12.9758C18.5184 12.8647 18.6439 12.6961 18.7195 12.4634C18.8174 12.1622 18.8174 11.8377 18.7195 11.5364C18.6439 11.3038 18.5184 11.1352 18.4241 11.0241C18.3427 10.9282 18.242 10.8277 18.1578 10.7435L13.2564 5.84213C13.1723 5.75787 13.0717 5.65725 12.9758 5.57587Z" fill="#344054"/>
</svg>
