<svg width="24" height="24" viewBox="0 0 24 24" fill="none" xmlns="http://www.w3.org/2000/svg">
<path d="M12.7474 1.33564C12.5577 1.12215 12.2857 1 12 1C11.7144 1 11.4424 1.12215 11.2526 1.33564L3.2526 10.3358C3.02022 10.5972 2.94133 10.9611 3.04456 11.2953C3.1478 11.6295 3.41815 11.8855 3.7575 11.9703L11.7575 13.9701C11.9167 14.01 12.0833 14.01 12.2426 13.9701L20.2426 11.9701C20.5819 11.8853 20.8522 11.6293 20.9555 11.2951C21.0587 10.9609 20.9798 10.5971 20.7474 10.3356L12.7474 1.33564Z" fill="#344054"/>
<path d="M5.72487 14.0257C5.29686 13.9269 4.85451 14.119 4.63449 14.4992C4.41448 14.8794 4.46833 15.3586 4.76723 15.6805L11.2673 22.6805C11.4566 22.8843 11.7221 23.0001 12.0001 23.0001C12.2782 23.0001 12.5437 22.8843 12.7329 22.6805L19.2328 15.6805C19.5317 15.3586 19.5855 14.8794 19.3655 14.4992C19.1455 14.119 18.7032 13.9269 18.2752 14.0257L12 15.4738L5.72487 14.0257Z" fill="#344054"/>
</svg>
