<svg width="24" height="24" viewBox="0 0 24 24" fill="none" xmlns="http://www.w3.org/2000/svg">
<path d="M9.52756 5.35442C9.16617 5.74599 8.88549 6.34903 8.88377 7.29866C8.8963 8.14406 9.24853 8.74771 9.77705 9.65348L9.81702 9.722C10.2442 10.4545 10.7346 11.3294 10.9219 12.5H15.0001C15.5523 12.5 16.0001 12.9477 16.0001 13.5C16.0001 14.0523 15.5523 14.5 15.0001 14.5H10.9426C10.7184 16.4448 9.87521 18.0405 9.06263 19.1733C8.9815 19.2864 8.90038 19.3953 8.81985 19.5H17.5001C18.0523 19.5 18.5001 19.9477 18.5001 20.5C18.5001 21.0523 18.0523 21.5 17.5001 21.5H6.50006C6.07404 21.5 5.6948 21.2301 5.55524 20.8276C5.41594 20.4258 5.54595 19.98 5.87913 19.7161L5.88103 19.7146L5.90134 19.6979C5.92043 19.6821 5.95122 19.6562 5.99205 19.6205C6.07379 19.549 6.19528 19.4387 6.34333 19.2921C6.64032 18.998 7.0391 18.563 7.43749 18.0076C8.08978 17.0982 8.71453 15.9043 8.92515 14.5H6.50006C5.94778 14.5 5.50006 14.0523 5.50006 13.5C5.50006 12.9477 5.94778 12.5 6.50006 12.5H8.88398C8.72915 11.8615 8.43417 11.3208 8.08934 10.7295C8.05741 10.6748 8.0247 10.6191 7.99144 10.5626C7.50539 9.73577 6.90159 8.70868 6.88384 7.31773L6.88368 7.30455C6.88425 5.92597 7.30577 4.81286 8.05785 3.99798C8.79816 3.19585 9.78026 2.76728 10.7639 2.59459C12.6703 2.25992 14.8984 2.83737 16.1409 4.01754C16.5413 4.3979 16.5576 5.03086 16.1772 5.43129C15.7969 5.83172 15.1639 5.84799 14.7635 5.46763C14.0543 4.79399 12.4992 4.32055 11.1098 4.56447C10.4455 4.68108 9.90157 4.94918 9.52756 5.35442Z" fill="#344054"/>
</svg>
