<svg width="24" height="24" viewBox="0 0 24 24" fill="none" xmlns="http://www.w3.org/2000/svg">
<path d="M12.6127 2H11.3874L9.38741 8H14.6127L12.6127 2Z" fill="#344054"/>
<path d="M14.6126 10H9.38755L12.0001 17.8375L14.6126 10Z" fill="#344054"/>
<path d="M7.27922 8L9.27922 2H7.23426C6.78909 2 6.36692 2.19773 6.08193 2.53972L2.21511 7.17991C1.94373 7.50557 2.1753 8 2.59922 8H7.27922Z" fill="#344054"/>
<path d="M2.21511 10.8201C1.94373 10.4944 2.17531 10 2.59922 10H7.27937L10.791 20.535C10.8676 20.7649 10.6157 20.9198 10.4664 20.729C10.4146 20.6628 10.363 20.5976 10.3109 20.535L2.21511 10.8201Z" fill="#344054"/>
<path d="M16.7208 10H21.4009C21.8249 10 22.0564 10.4944 21.785 10.8201L13.6893 20.535C13.6371 20.5976 13.5856 20.6628 13.5338 20.729C13.3845 20.9198 13.1325 20.7648 13.2091 20.535L16.7208 10Z" fill="#344054"/>
<path d="M21.785 7.17991C22.0564 7.50557 21.8249 8 21.4009 8H16.7209L14.7209 2H16.7659C17.2111 2 17.6332 2.19773 17.9182 2.53972L21.785 7.17991Z" fill="#344054"/>
</svg>
