<svg width="24" height="24" viewBox="0 0 24 24" fill="none" xmlns="http://www.w3.org/2000/svg">
<path d="M5 1.99994C5 1.44766 5.44772 0.999941 6 0.999941L10.1137 0.999909C10.7486 0.999607 11.2284 0.999379 11.6911 1.11046C12.0993 1.20845 12.4895 1.37007 12.8474 1.58938C13.2531 1.83801 13.5922 2.17743 14.041 2.62666L21.7071 10.2928C22.0976 10.6834 22.0976 11.3165 21.7071 11.707C21.3166 12.0976 20.6834 12.0976 20.2929 11.707L12.6988 4.11293C12.1463 3.56042 11.9807 3.40396 11.8024 3.29466C11.6234 3.185 11.4283 3.10419 11.2242 3.0552C11.0208 3.00637 10.7931 2.99994 10.0118 2.99994L6 2.99994C5.44772 2.99994 5 2.55223 5 1.99994Z" fill="#344054"/>
<path d="M3.63801 4.827C3.07352 5.11462 2.61458 5.57356 2.32696 6.13805C2.13417 6.51643 2.06285 6.90965 2.03055 7.30499C1.99995 7.67956 1.99996 8.13433 1.99998 8.66148L1.99993 10.7578C1.99955 11.1647 1.99922 11.5235 2.08287 11.8719C2.15636 12.178 2.27757 12.4707 2.44206 12.7391C2.62929 13.0446 2.8832 13.2981 3.17118 13.5855L11.0574 21.4716C11.4301 21.8444 11.7517 22.166 12.0382 22.4092C12.3406 22.6659 12.669 22.8935 13.0729 23.0248C13.6755 23.2205 14.3245 23.2205 14.927 23.0248C15.3309 22.8935 15.6594 22.6659 15.9618 22.4092C16.2483 22.166 16.5698 21.8444 16.9425 21.4717L19.4716 18.9426C19.8444 18.5699 20.1659 18.2483 20.4092 17.9618C20.6659 17.6594 20.8935 17.331 21.0247 16.9271C21.2205 16.3245 21.2205 15.6755 21.0247 15.073C20.8935 14.6691 20.6659 14.3406 20.4092 14.0382C20.1659 13.7517 19.8444 13.4302 19.4716 13.0575L12.0855 5.67123C11.798 5.38324 11.5446 5.12933 11.239 4.9421C10.9706 4.77761 10.678 4.6564 10.3719 4.58291C10.0234 4.49926 9.6647 4.49959 9.2578 4.49997L6.16144 4.50002C5.6343 4.5 5.17952 4.49999 4.80495 4.53059C4.40961 4.56289 4.01639 4.63421 3.63801 4.827Z" fill="#344054"/>
</svg>
