<svg width="24" height="24" viewBox="0 0 24 24" fill="none" xmlns="http://www.w3.org/2000/svg">
<path d="M11 2.46149C11 2.07363 11 1.8797 10.9185 1.75506C10.8473 1.64603 10.7363 1.5691 10.6092 1.54066C10.4639 1.50815 10.2823 1.57624 9.91912 1.71242L5.59466 3.33398C4.97687 3.56463 4.43433 3.76718 4.01651 4.13541C3.65099 4.45753 3.36943 4.86382 3.19616 5.31917C2.99809 5.83968 2.99893 6.4188 2.99989 7.07824L3.00002 12.0001C3.00002 14.8267 4.53731 17.1833 6.19908 18.9145C7.27808 20.0386 8.5155 21.0553 9.83935 21.9052C10.193 22.1323 10.3699 22.2458 10.5358 22.2339C10.6756 22.2238 10.8163 22.1469 10.9003 22.0347C11 21.9015 11 21.6825 11 21.2445L11 2.46149Z" fill="#344054"/>
<path d="M13 21.2446C13 21.6826 13 21.9016 13.0997 22.0348C13.1837 22.147 13.3244 22.2238 13.4642 22.2339C13.6301 22.2458 13.807 22.1323 14.1606 21.9052C15.4845 21.0553 16.7219 20.0386 17.801 18.9145C19.4627 17.1833 21 14.8267 21 12.0001L21.0002 7.07823C21.0011 6.41879 21.0019 5.83967 20.8039 5.31917C20.6306 4.86382 20.349 4.45753 19.9835 4.13541C19.5657 3.76718 19.0232 3.56463 18.4054 3.33398L14.0809 1.7124C13.7177 1.57622 13.5361 1.50814 13.3908 1.54065C13.2637 1.56909 13.1527 1.64601 13.0815 1.75505C13 1.87969 13 2.07361 13 2.46147L13 21.2446Z" fill="#344054"/>
</svg>
