<svg width="24" height="24" viewBox="0 0 24 24" fill="none" xmlns="http://www.w3.org/2000/svg">
<path fill-rule="evenodd" clip-rule="evenodd" d="M10.4355 4C10.4355 2.89543 9.54012 2 8.43555 2H4.43555C3.33098 2 2.43555 2.89543 2.43555 4V20C2.43555 21.1046 3.33098 22 4.43555 22H20.4355C21.5401 22 22.4355 21.1046 22.4355 20V13C22.4355 11.8954 21.5401 11 20.4355 11H16.4355V8C16.4355 6.89543 15.5401 6 14.4355 6H10.4355V4ZM14.4355 20H10.4355V8L14.4355 8V20ZM16.4355 13H20.4355V20H16.4355V13ZM4.43555 20H8.43555V4L4.43555 4V20Z" fill="#344054"/>
</svg>
