<svg width="24" height="24" viewBox="0 0 24 24" fill="none" xmlns="http://www.w3.org/2000/svg">
<path fill-rule="evenodd" clip-rule="evenodd" d="M3 2C3.55228 2 4 2.44772 4 3V20H21C21.5523 20 22 20.4477 22 21C22 21.5523 21.5523 22 21 22H2V3C2 2.44772 2.44772 2 3 2Z" fill="#344054"/>
<path fill-rule="evenodd" clip-rule="evenodd" d="M6.28795 6.29637C6.67844 5.90581 7.31161 5.90576 7.70216 6.29625L12.0075 10.6008L13.9411 8.63592C14.5265 8.04101 15.485 8.0384 16.0736 8.63012L19.999 12.5759L19.9984 11.002C19.9981 10.4498 20.4457 10.0019 20.998 10.0016C21.5502 10.0014 21.9981 10.4489 21.9984 11.0012L22 14.9996C22.0001 15.2649 21.8948 15.5193 21.7073 15.707C21.5197 15.8946 21.2653 16 21 16H17C16.4477 16 16 15.5523 16 15C16 14.4477 16.4477 14 17 14H18.5946L15.0121 10.3989L13.0795 12.3629C12.4952 12.9567 11.5389 12.9605 10.9498 12.3715L6.28807 7.71058C5.89751 7.32009 5.89746 6.68693 6.28795 6.29637Z" fill="#344054"/>
</svg>
