<svg width="24" height="24" viewBox="0 0 24 24" fill="none" xmlns="http://www.w3.org/2000/svg">
<path fill-rule="evenodd" clip-rule="evenodd" d="M3 2C3.55228 2 4 2.44772 4 3V20H21C21.5523 20 22 20.4477 22 21C22 21.5523 21.5523 22 21 22H2V3C2 2.44772 2.44772 2 3 2Z" fill="#344054"/>
<path fill-rule="evenodd" clip-rule="evenodd" d="M6.28795 15.707C6.67844 16.0976 7.31161 16.0977 7.70216 15.7072L12.0075 11.4026L13.9411 13.3675C14.5265 13.9624 15.485 13.965 16.0736 13.3733L19.999 9.42751L19.9984 11.0014C19.9981 11.5537 20.4457 12.0016 20.998 12.0018C21.5502 12.002 21.9981 11.5545 21.9984 11.0022L22 7.00383C22.0001 6.73854 21.8948 6.48408 21.7073 6.29646C21.5197 6.10883 21.2653 6.00342 21 6.00342H17C16.4477 6.00342 16 6.45113 16 7.00342C16 7.5557 16.4477 8.00342 17 8.00342H18.5946L15.0121 11.6045L13.0795 9.64055C12.4952 9.04676 11.5389 9.04288 10.9498 9.63191L6.28807 14.2928C5.89751 14.6833 5.89746 15.3165 6.28795 15.707Z" fill="#344054"/>
</svg>
