<svg width="24" height="24" viewBox="0 0 24 24" fill="none" xmlns="http://www.w3.org/2000/svg">
<path fill-rule="evenodd" clip-rule="evenodd" d="M14.851 1.03974C14.869 1.0418 14.8849 1.04363 14.8985 1.04499C16.9555 1.25132 18.8892 2.16137 20.364 3.63609C21.8387 5.11081 22.7487 7.04458 22.9551 9.10155C22.9564 9.11519 22.9583 9.13108 22.9603 9.14902C22.981 9.32932 23.0253 9.71593 22.8684 10.0859C22.7393 10.3901 22.4981 10.6568 22.2083 10.8155C21.988 10.9363 21.776 10.9735 21.6176 10.9881C21.4869 11.0002 21.3406 11.0001 21.2239 11.0001C21.2158 11.0001 21.2078 11.0001 21.2 11.0001L14.8 11.0001C14.7924 11.0001 14.7847 11.0001 14.7769 11.0001C14.6578 11.0001 14.5155 11.0002 14.3902 10.9899C14.245 10.9781 14.037 10.9476 13.819 10.8366C13.5368 10.6928 13.3073 10.4633 13.1635 10.181C13.0524 9.9631 13.022 9.7551 13.0101 9.60989C12.9999 9.48456 13 9.3423 13 9.22318C13 9.21537 13 9.20766 13 9.20006V2.80006C13 2.79225 13 2.78428 13 2.77617C12.9999 2.65946 12.9999 2.5132 13.0119 2.38248C13.0266 2.22405 13.0638 2.01211 13.1845 1.79179C13.3433 1.50198 13.6099 1.26076 13.9141 1.13169C14.2841 0.974716 14.6707 1.01906 14.851 1.03974ZM15 3.07182V9.00006L20.9282 9.00005C20.7137 7.51327 20.0245 6.12503 18.9497 5.05031C17.875 3.97559 16.4868 3.2864 15 3.07182ZM9 7.07185C7.97057 7.22043 6.98279 7.59726 6.11101 8.17977C4.95987 8.94894 4.06266 10.0422 3.53285 11.3213C3.00303 12.6004 2.86441 14.0078 3.13451 15.3657C3.4046 16.7236 4.07129 17.9708 5.05026 18.9498C6.02922 19.9288 7.2765 20.5955 8.63437 20.8656C9.99224 21.1356 11.3997 20.997 12.6788 20.4672C13.9579 19.9374 15.0511 19.0402 15.8203 17.889C16.4028 17.0173 16.7796 16.0295 16.9282 15.0001H10.8C10.7924 15.0001 10.7847 15.0001 10.7769 15.0001C10.6578 15.0001 10.5155 15.0002 10.3902 14.9899C10.245 14.9781 10.037 14.9476 9.81902 14.8366C9.53678 14.6928 9.3073 14.4633 9.16349 14.181C9.05244 13.9631 9.022 13.7551 9.01014 13.6099C8.9999 13.4846 8.99995 13.3423 9 13.2232C9 13.2154 9 13.2077 9 13.2001V7.07185ZM9.14894 5.03976C9.32925 5.01908 9.71585 4.97472 10.0858 5.13169C10.3901 5.26076 10.6567 5.50198 10.8155 5.79179C10.9362 6.01211 10.9735 6.22404 10.9881 6.38247C11.0001 6.5132 11.0001 6.65947 11 6.77617C11 6.78428 11 6.79225 11 6.80006V13.0001H17.2C17.2078 13.0001 17.2158 13.0001 17.2239 13C17.3406 13 17.4869 12.9999 17.6176 13.012C17.776 13.0266 17.9879 13.0639 18.2083 13.1846C18.4981 13.3434 18.7393 13.61 18.8684 13.9142C19.0253 14.2842 18.981 14.6708 18.9603 14.8511C18.9582 14.8691 18.9564 14.8849 18.955 14.8986C18.8083 16.3611 18.3049 17.7704 17.4832 19.0002C16.4943 20.4802 15.0887 21.6338 13.4442 22.315C11.7996 22.9962 9.99002 23.1744 8.24419 22.8271C6.49836 22.4799 4.89472 21.6227 3.63604 20.364C2.37737 19.1053 1.5202 17.5017 1.17294 15.7559C0.82567 14.01 1.0039 12.2004 1.68509 10.5559C2.36628 8.91137 3.51983 7.50576 4.99987 6.51683C6.22964 5.69512 7.63892 5.19176 9.10148 5.04501C9.11511 5.04365 9.13101 5.04182 9.14894 5.03976Z" fill="#344054"/>
</svg>
