<svg width="24" height="24" viewBox="0 0 24 24" fill="none" xmlns="http://www.w3.org/2000/svg">
<path fill-rule="evenodd" clip-rule="evenodd" d="M9.50003 4C7.56703 4 6.00003 5.567 6.00003 7.5C6.00003 9.433 7.56703 11 9.50003 11C11.433 11 13 9.433 13 7.5C13 5.567 11.433 4 9.50003 4ZM4.00003 7.5C4.00003 4.46243 6.46246 2 9.50003 2C12.5376 2 15 4.46243 15 7.5C15 10.5376 12.5376 13 9.50003 13C6.46246 13 4.00003 10.5376 4.00003 7.5ZM15.1045 3.02273C15.3503 2.52815 15.9505 2.32646 16.4451 2.57225C18.2536 3.47103 19.5 5.33904 19.5 7.5C19.5 9.66096 18.2536 11.529 16.4451 12.4278C15.9505 12.6735 15.3503 12.4719 15.1045 11.9773C14.8587 11.4827 15.0604 10.8825 15.555 10.6367C16.7099 10.0628 17.5 8.87276 17.5 7.5C17.5 6.12724 16.7099 4.9372 15.555 4.36327C15.0604 4.11749 14.8587 3.51731 15.1045 3.02273ZM9.50003 16C7.05342 16 4.82967 17.3334 3.39156 19.4927C3.30218 19.6269 3.2336 19.73 3.17672 19.8203C3.13195 19.8915 3.10189 19.9431 3.08128 19.982C3.22741 19.9985 3.43507 20 3.82239 20H15.1777C15.565 20 15.7727 19.9985 15.9188 19.982C15.8982 19.9431 15.8681 19.8915 15.8233 19.8203C15.7665 19.73 15.6979 19.6269 15.6085 19.4927C14.1704 17.3334 11.9466 16 9.50003 16ZM1.72696 18.384C3.47746 15.7557 6.28538 14 9.50003 14C12.7147 14 15.5226 15.7557 17.2731 18.384C17.2811 18.396 17.2891 18.408 17.2972 18.4201C17.4508 18.6506 17.6146 18.8964 17.7291 19.13C17.867 19.4111 17.966 19.7341 17.9428 20.1198C17.9243 20.4275 17.8223 20.7129 17.7009 20.9395C17.5796 21.1661 17.3986 21.4093 17.1528 21.5952C16.8235 21.8442 16.4686 21.9315 16.1549 21.968C15.8786 22.0001 15.5515 22.0001 15.222 22C15.2072 22 15.1924 22 15.1777 22H3.82239C3.80762 22 3.79286 22 3.7781 22C3.44856 22.0001 3.12141 22.0001 2.84518 21.968C2.53147 21.9315 2.17658 21.8442 1.84727 21.5952L2.45047 20.7976M17.1064 15.388C17.3544 14.8945 17.9554 14.6954 18.4489 14.9433C20.0834 15.7644 21.465 17.0715 22.4649 18.6822C22.476 18.7001 22.4875 18.7185 22.4993 18.7373C22.6479 18.9747 22.8419 19.2845 22.9053 19.6937C22.9786 20.1665 22.8503 20.6186 22.659 20.9624C22.4678 21.3061 22.1514 21.6536 21.711 21.8407C21.3277 22.0036 20.9135 22.0017 20.5877 22.0003C20.5577 22.0001 20.5284 22 20.5 22C19.9477 22 19.5 21.5523 19.5 21C19.5 20.4477 19.9477 20 20.5 20C20.7152 20 20.8284 19.9994 20.9091 19.9939C20.9098 19.9927 20.9105 19.9914 20.9112 19.9902C20.9124 19.9881 20.9135 19.986 20.9145 19.984C20.9052 19.9669 20.8925 19.9446 20.8749 19.9151C20.8463 19.867 20.8121 19.8119 20.7657 19.737C19.9434 18.4124 18.8285 17.3722 17.5511 16.7305C17.0576 16.4826 16.8585 15.8815 17.1064 15.388ZM1.72696 18.384C1.71898 18.396 1.71096 18.408 1.70291 18.4201L1.72696 18.384ZM1.70291 18.4201C1.5493 18.6506 1.38548 18.8964 1.27095 19.13L1.70291 18.4201ZM1.27095 19.13C1.13311 19.4111 1.03411 19.7341 1.05726 20.1198L1.27095 19.13ZM1.05726 20.1198C1.07573 20.4275 1.17778 20.7129 1.29912 20.9395L1.05726 20.1198ZM1.29912 20.9395C1.42046 21.1661 1.60144 21.4093 1.84727 21.5952L1.29912 20.9395Z" fill="#344054"/>
</svg>
