<svg width="24" height="24" viewBox="0 0 24 24" fill="none" xmlns="http://www.w3.org/2000/svg">
<path fill-rule="evenodd" clip-rule="evenodd" d="M10 4C8.067 4 6.5 5.567 6.5 7.5C6.5 9.433 8.067 11 10 11C11.933 11 13.5 9.433 13.5 7.5C13.5 5.567 11.933 4 10 4ZM4.5 7.5C4.5 4.46243 6.96243 2 10 2C13.0376 2 15.5 4.46243 15.5 7.5C15.5 10.5376 13.0376 13 10 13C6.96243 13 4.5 10.5376 4.5 7.5ZM7.32627 14.5C7.38333 14.5 7.44123 14.5 7.5 14.5H12C12.5523 14.5 13 14.9477 13 15.5C13 16.0523 12.5523 16.5 12 16.5H7.5C6.03168 16.5 5.51921 16.5109 5.12914 16.6292C4.17034 16.92 3.42003 17.6703 3.12918 18.6291C3.01085 19.0192 3 19.5317 3 21C3 21.5523 2.55229 22 2 22C1.44772 22 1 21.5523 1 21C1 20.9412 0.999979 20.8833 0.999958 20.8263C0.999504 19.599 0.999194 18.761 1.2153 18.0486C1.70005 16.4506 2.95057 15.2 4.54857 14.7153C5.26098 14.4992 6.09899 14.4995 7.32627 14.5ZM22.7071 15.2929C23.0976 15.6834 23.0976 16.3166 22.7071 16.7071L18.7071 20.7071C18.3166 21.0976 17.6834 21.0976 17.2929 20.7071L15.2929 18.7071C14.9024 18.3166 14.9024 17.6834 15.2929 17.2929C15.6834 16.9024 16.3166 16.9024 16.7071 17.2929L18 18.5858L21.2929 15.2929C21.6834 14.9024 22.3166 14.9024 22.7071 15.2929Z" fill="#344054"/>
</svg>
