<svg width="24" height="24" viewBox="0 0 24 24" fill="none" xmlns="http://www.w3.org/2000/svg">
<path fill-rule="evenodd" clip-rule="evenodd" d="M17.6452 7.06018C15.3356 4.4149 11.4058 3.68256 8.24975 5.50469C6.09128 6.75088 4.78598 8.90717 4.54055 11.2129C4.4821 11.7621 3.98951 12.1599 3.44033 12.1014C2.89114 12.043 2.49333 11.5504 2.55179 11.0012C2.86197 8.08714 4.51425 5.35198 7.24975 3.77264C11.3785 1.3889 16.5528 2.45658 19.4318 6.08047L19.5404 5.67508C19.6833 5.14162 20.2317 4.82503 20.7651 4.96798C21.2986 5.11092 21.6152 5.65925 21.4723 6.19272L20.7402 8.92477C20.5973 9.45824 20.0489 9.77482 19.5155 9.63188L16.7834 8.89983C16.2499 8.75688 15.9334 8.20855 16.0763 7.67508C16.2192 7.14162 16.7676 6.82503 17.301 6.96798L17.6452 7.06018ZM11.9997 6.49988C12.552 6.49988 12.9997 6.94759 12.9997 7.49988V11.4337L15.0142 12.6424C15.4878 12.9265 15.6414 13.5408 15.3572 14.0144C15.0731 14.488 14.4588 14.6415 13.9853 14.3574L11.4853 12.8574C11.184 12.6766 10.9997 12.3511 10.9997 11.9999V7.49988C10.9997 6.94759 11.4475 6.49988 11.9997 6.49988ZM20.5591 11.8984C21.1083 11.9568 21.5061 12.4494 21.4476 12.9986C21.1375 15.9127 19.4852 18.6478 16.7497 20.2272C12.6209 22.6109 7.44666 21.5432 4.56769 17.9194L4.45909 18.3247C4.31615 18.8581 3.76782 19.1747 3.23435 19.0318C2.70088 18.8888 2.3843 18.3405 2.52724 17.807L3.25929 15.075C3.40224 14.5415 3.95057 14.2249 4.48404 14.3679L7.21609 15.0999C7.74955 15.2429 8.06614 15.7912 7.9232 16.3247C7.78025 16.8581 7.23192 17.1747 6.69845 17.0318L6.35417 16.9395C8.66372 19.5849 12.5936 20.3173 15.7497 18.4951C17.9081 17.2489 19.2134 15.0926 19.4589 12.7869C19.5173 12.2377 20.0099 11.8399 20.5591 11.8984Z" fill="#344054"/>
</svg>
