<svg width="24" height="24" viewBox="0 0 24 24" fill="none" xmlns="http://www.w3.org/2000/svg">
<path fill-rule="evenodd" clip-rule="evenodd" d="M10.2619 0.999908C10.3121 0.999985 10.3627 1.00006 10.4138 1.00006H13.5862C13.6373 1.00006 13.6879 0.999985 13.7381 0.999908C14.4503 0.998806 15.075 0.997841 15.6257 1.22278C16.107 1.41935 16.529 1.73763 16.8502 2.14641C17.2178 2.61417 17.3885 3.21508 17.5831 3.90023C17.5968 3.94849 17.6106 3.99716 17.6246 4.04624L17.8453 4.81864C17.8509 4.82142 17.8564 4.82422 17.862 4.82704C18.4265 5.11466 18.8854 5.57361 19.173 6.13809C19.3658 6.51647 19.4371 6.90969 19.4694 7.30504C19.5 7.67961 19.5 8.13438 19.5 8.66154V15.3386C19.5 15.8657 19.5 16.3205 19.4694 16.6951C19.4371 17.0904 19.3658 17.4837 19.173 17.862C18.8854 18.4265 18.4265 18.8855 17.862 19.1731C17.8564 19.1759 17.8509 19.1787 17.8453 19.1815L17.6246 19.9539C17.6106 20.003 17.5968 20.0516 17.5831 20.0999C17.3885 20.785 17.2178 21.386 16.8502 21.8537C16.529 22.2625 16.107 22.5808 15.6257 22.7773C15.075 23.0023 14.4503 23.0013 13.7381 23.0002C13.6879 23.0001 13.6373 23.0001 13.5862 23.0001H10.4138C10.3627 23.0001 10.3121 23.0001 10.262 23.0002C9.5497 23.0013 8.92503 23.0023 8.37429 22.7773C7.89299 22.5808 7.47103 22.2625 7.1498 21.8537C6.78222 21.386 6.61154 20.7851 6.41692 20.0999C6.40322 20.0517 6.38939 20.003 6.37537 19.9539L6.15468 19.1815C6.14912 19.1787 6.14358 19.1759 6.13803 19.1731C5.57354 18.8855 5.1146 18.4265 4.82698 17.862C4.63419 17.4837 4.56287 17.0904 4.53057 16.6951C4.49997 16.3205 4.49998 15.8658 4.5 15.3386V8.66152C4.49998 8.13437 4.49997 7.67961 4.53057 7.30504C4.56287 6.90969 4.63419 6.51647 4.82698 6.13809C5.1146 5.57361 5.57354 5.11466 6.13803 4.82704C6.14358 4.82422 6.14913 4.82142 6.15468 4.81865L6.37537 4.04624C6.38939 3.99715 6.40322 3.94847 6.41693 3.90021C6.61154 3.21507 6.78222 2.61416 7.1498 2.14641C7.47103 1.73763 7.89299 1.41935 8.37429 1.22278C8.92502 0.997841 9.5497 0.998806 10.2619 0.999908ZM8.32572 4.50037C8.43411 4.50005 8.54605 4.50006 8.66146 4.50006H15.3385C15.454 4.50006 15.5659 4.50005 15.6743 4.50037C15.4343 3.66501 15.3662 3.49482 15.2777 3.38218C15.1706 3.24592 15.0299 3.13983 14.8695 3.0743C14.732 3.01813 14.541 3.00006 13.5862 3.00006H10.4138C9.45901 3.00006 9.26803 3.01813 9.1305 3.0743C8.97007 3.13983 8.82941 3.24592 8.72234 3.38218C8.63381 3.49482 8.56571 3.665 8.32572 4.50037ZM8.32572 19.4998C8.56571 20.3351 8.63381 20.5053 8.72234 20.6179C8.82941 20.7542 8.97007 20.8603 9.1305 20.9258C9.26803 20.982 9.45901 21.0001 10.4138 21.0001H13.5862C14.541 21.0001 14.732 20.982 14.8695 20.9258C15.0299 20.8603 15.1706 20.7542 15.2777 20.6179C15.3662 20.5053 15.4343 20.3351 15.6743 19.4998C15.5659 19.5001 15.454 19.5001 15.3386 19.5001H8.66144C8.54603 19.5001 8.4341 19.5001 8.32572 19.4998ZM7.46784 6.52399C7.19617 6.54619 7.09546 6.58386 7.04601 6.60906C6.85785 6.70493 6.70487 6.85791 6.609 7.04607C6.5838 7.09552 6.54612 7.19624 6.52393 7.4679C6.50078 7.75124 6.5 8.12351 6.5 8.70006V15.3001C6.5 15.8766 6.50078 16.2489 6.52393 16.5322C6.54612 16.8039 6.5838 16.9046 6.609 16.9541C6.70487 17.1422 6.85785 17.2952 7.04601 17.3911C7.09546 17.4163 7.19617 17.4539 7.46784 17.4761C7.75117 17.4993 8.12345 17.5001 8.7 17.5001H15.3C15.8766 17.5001 16.2488 17.4993 16.5322 17.4761C16.8038 17.4539 16.9045 17.4163 16.954 17.3911C17.1422 17.2952 17.2951 17.1422 17.391 16.9541C17.4162 16.9046 17.4539 16.8039 17.4761 16.5322C17.4992 16.2489 17.5 15.8766 17.5 15.3001V8.70006C17.5 8.12351 17.4992 7.75124 17.4761 7.4679C17.4539 7.19624 17.4162 7.09552 17.391 7.04607C17.2951 6.85791 17.1422 6.70493 16.954 6.60906C16.9045 6.58386 16.8038 6.54619 16.5322 6.52399C16.2488 6.50084 15.8766 6.50006 15.3 6.50006H8.7C8.12345 6.50006 7.75118 6.50084 7.46784 6.52399ZM12 8.00006C12.5523 8.00006 13 8.44778 13 9.00006V11.5859L14.2071 12.793C14.5976 13.1835 14.5976 13.8166 14.2071 14.2072C13.8166 14.5977 13.1834 14.5977 12.7929 14.2072L11.2929 12.7072C11.1054 12.5196 11 12.2653 11 12.0001V9.00006C11 8.44778 11.4477 8.00006 12 8.00006Z" fill="#344054"/>
</svg>
