<svg width="24" height="24" viewBox="0 0 24 24" fill="none" xmlns="http://www.w3.org/2000/svg">
<path fill-rule="evenodd" clip-rule="evenodd" d="M15.5 1C16.0523 1 16.5 1.44772 16.5 2V3.5C16.5 4.05228 16.0523 4.5 15.5 4.5C14.9477 4.5 14.5 4.05228 14.5 3.5V2C14.5 1.44772 14.9477 1 15.5 1ZM7.75872 2H11C11.5523 2 12 2.44772 12 3C12 3.55228 11.5523 4 11 4H7.80002C6.94344 4 6.36115 4.00078 5.91106 4.03755C5.47264 4.07337 5.24844 4.1383 5.09204 4.21799C4.71571 4.40973 4.40975 4.71569 4.21801 5.09202C4.13832 5.24842 4.07339 5.47262 4.03757 5.91104C4.0008 6.36113 4.00002 6.94342 4.00002 7.8V12.459C4.32958 12.4861 4.66309 12.5 5.00002 12.5C8.30572 12.5 11.2994 11.164 13.4707 9H12C11.4477 9 11 8.55228 11 8C11 7.44772 11.4477 7 12 7H15.6078C15.6163 6.99989 15.6248 6.99989 15.6333 7H16C16.5523 7 17 7.44772 17 8V12C17 12.5523 16.5523 13 16 13C15.4477 13 15 12.5523 15 12V10.2979C12.4599 12.8899 8.918 14.5 5.00002 14.5C4.66392 14.5 4.33045 14.4881 4.00002 14.4648V16.2C4.00002 17.0566 4.0008 17.6389 4.03757 18.089C4.07339 18.5274 4.13832 18.7516 4.21801 18.908C4.40975 19.2843 4.71571 19.5903 5.09204 19.782C5.24844 19.8617 5.47264 19.9266 5.91106 19.9624C6.36115 19.9992 6.94344 20 7.80002 20H16.2C17.0566 20 17.6389 19.9992 18.089 19.9624C18.5274 19.9266 18.7516 19.8617 18.908 19.782C19.2843 19.5903 19.5903 19.2843 19.782 18.908C19.8617 18.7516 19.9266 18.5274 19.9625 18.089C19.9992 17.6389 20 17.0566 20 16.2V13C20 12.4477 20.4477 12 21 12C21.5523 12 22 12.4477 22 13V16.2413C22 17.0463 22 17.7106 21.9558 18.2518C21.9099 18.8139 21.8113 19.3306 21.564 19.816C21.1806 20.5686 20.5686 21.1805 19.816 21.564C19.3306 21.8113 18.8139 21.9099 18.2518 21.9558C17.7107 22 17.0463 22 16.2413 22H7.7587C6.95374 22 6.28938 22 5.74819 21.9558C5.1861 21.9099 4.66939 21.8113 4.18406 21.564C3.43141 21.1805 2.81949 20.5686 2.43599 19.816C2.1887 19.3306 2.09014 18.8139 2.04421 18.2518C2 17.7106 2.00001 17.0463 2.00002 16.2413L2.00002 13.3651C1.99983 13.354 1.99983 13.3428 2.00002 13.3315L2.00002 7.7587C2.00001 6.95373 2 6.28937 2.04421 5.74817C2.09014 5.18608 2.1887 4.66937 2.43599 4.18404C2.81949 3.43139 3.43141 2.81947 4.18406 2.43597C4.66939 2.18868 5.1861 2.09012 5.74819 2.04419C6.28939 1.99998 6.95375 1.99999 7.75872 2ZM21.2071 2.79289C21.5977 3.18342 21.5977 3.81658 21.2071 4.20711L20.1465 5.26777C19.7559 5.65829 19.1228 5.65829 18.7323 5.26777C18.3417 4.87724 18.3417 4.24408 18.7323 3.85355L19.7929 2.79289C20.1834 2.40237 20.8166 2.40237 21.2071 2.79289ZM19.5103 8.5C19.5103 7.94772 19.958 7.5 20.5103 7.5H22.0103C22.5626 7.5 23.0103 7.94772 23.0103 8.5C23.0103 9.05228 22.5626 9.5 22.0103 9.5H20.5103C19.958 9.5 19.5103 9.05228 19.5103 8.5Z" fill="#344054"/>
</svg>
