<svg width="24" height="24" viewBox="0 0 24 24" fill="none" xmlns="http://www.w3.org/2000/svg">
<path fill-rule="evenodd" clip-rule="evenodd" d="M1.99996 6C1.99996 3.79086 3.79082 2 5.99996 2H18C20.2091 2 22 3.79086 22 6V14.9883C22.0001 14.9967 22.0001 15.005 22 15.0134V18C22 20.2091 20.2091 22 18 22H5.99996C3.79082 22 1.99996 20.2091 1.99996 18V9.01164C1.99985 9.00332 1.99985 8.995 1.99996 8.98667V6ZM3.99996 10.9432V18C3.99996 19.1046 4.89539 20 5.99996 20H18C19.1045 20 20 19.1046 20 18V15.5146L14.1081 11.3061L11.0066 14.4076C10.4881 14.9261 9.67072 14.9937 9.07405 14.5675L3.99996 10.9432ZM20 13.0568V6C20 4.89543 19.1045 4 18 4H5.99996C4.89539 4 3.99996 4.89543 3.99996 6V8.48538L9.89186 12.6939L12.9933 9.5924C13.5118 9.0739 14.3292 9.00626 14.9259 9.43246L20 13.0568Z" fill="#344054"/>
</svg>
