<svg width="24" height="24" viewBox="0 0 24 24" fill="none" xmlns="http://www.w3.org/2000/svg">
<path fill-rule="evenodd" clip-rule="evenodd" d="M3 2C3.55228 2 4 2.44772 4 3V20H21C21.5523 20 22 20.4477 22 21C22 21.5523 21.5523 22 21 22H2V3C2 2.44772 2.44772 2 3 2Z" fill="#344054"/>
<path fill-rule="evenodd" clip-rule="evenodd" d="M6.31652 7.27004C6.71967 6.89256 7.35249 6.91337 7.72997 7.31652L11.5446 11.3905L14.8865 9.6672C15.4829 9.35966 16.211 9.48563 16.6694 9.97568L20.7303 14.3169C21.1076 14.7202 21.0865 15.353 20.6831 15.7303C20.2798 16.1076 19.647 16.0865 19.2697 15.6831L15.4671 11.6181L12.1254 13.3413C11.5292 13.6487 10.8014 13.523 10.3429 13.0333L6.27004 8.68349C5.89256 8.28034 5.91337 7.64752 6.31652 7.27004Z" fill="#344054"/>
</svg>
