<svg width="24" height="24" viewBox="0 0 24 24" fill="none" xmlns="http://www.w3.org/2000/svg">
<path fill-rule="evenodd" clip-rule="evenodd" d="M3 2C3.55228 2 4 2.44772 4 3V20H21C21.5523 20 22 20.4477 22 21C22 21.5523 21.5523 22 21 22H2V3C2 2.44772 2.44772 2 3 2Z" fill="#344054"/>
<path fill-rule="evenodd" clip-rule="evenodd" d="M6.31652 15.73C6.71967 16.1074 7.35249 16.0866 7.72997 15.6835L11.5446 11.6095L14.8865 13.3328C15.4829 13.6403 16.211 13.5144 16.6694 13.0243L20.7303 8.68314C21.1076 8.27981 21.0865 7.64699 20.6831 7.26971C20.2798 6.89242 19.647 6.91353 19.2697 7.31686L15.4671 11.3819L12.1254 9.65871C11.5292 9.35129 10.8014 9.47703 10.3429 9.96666L6.27004 14.3165C5.89256 14.7197 5.91337 15.3525 6.31652 15.73Z" fill="#344054"/>
</svg>
