<svg width="24" height="24" viewBox="0 0 24 24" fill="none" xmlns="http://www.w3.org/2000/svg">
<path fill-rule="evenodd" clip-rule="evenodd" d="M7.75866 2H16.2413C17.0462 1.99999 17.7106 1.99998 18.2518 2.04419C18.8139 2.09012 19.3306 2.18868 19.8159 2.43597C20.5686 2.81947 21.1805 3.43139 21.564 4.18404C21.8113 4.66937 21.9098 5.18608 21.9558 5.74817C22 6.28936 22 6.95372 22 7.75868V8.98665C22.0001 8.99499 22.0001 9.00333 22 9.01166V16.2413C22 17.0463 22 17.7106 21.9558 18.2518C21.9098 18.8139 21.8113 19.3306 21.564 19.816C21.1805 20.5686 20.5686 21.1805 19.8159 21.564C19.3306 21.8113 18.8139 21.9099 18.2518 21.9558C17.7106 22 17.0462 22 16.2413 22H7.75863C6.95367 22 6.28932 22 5.74813 21.9558C5.18603 21.9099 4.66933 21.8113 4.18399 21.564C3.43134 21.1805 2.81942 20.5686 2.43593 19.816C2.18864 19.3306 2.09007 18.8139 2.04415 18.2518C1.99993 17.7106 1.99994 17.0463 1.99996 16.2413L1.99996 15.0133C1.99985 15.005 1.99985 14.9967 1.99996 14.9884L1.99996 7.7587C1.99994 6.95373 1.99993 6.28937 2.04415 5.74817C2.09007 5.18608 2.18864 4.66937 2.43593 4.18404C2.81942 3.43139 3.43135 2.81947 4.18399 2.43597C4.66933 2.18868 5.18603 2.09012 5.74813 2.04419C6.28932 1.99998 6.95369 1.99999 7.75866 2ZM3.99996 15.5146V16.2C3.99996 17.0566 4.00073 17.6389 4.03751 18.089C4.07333 18.5274 4.13825 18.7516 4.21794 18.908C4.40969 19.2843 4.71565 19.5903 5.09197 19.782C5.24837 19.8617 5.47258 19.9266 5.91099 19.9624C6.36108 19.9992 6.94338 20 7.79996 20H16.2C17.0565 20 17.6388 19.9992 18.0889 19.9624C18.5273 19.9266 18.7515 19.8617 18.9079 19.782C19.2843 19.5903 19.5902 19.2843 19.782 18.908C19.8617 18.7516 19.9266 18.5274 19.9624 18.089C19.9992 17.6389 20 17.0566 20 16.2V10.9432L15.1327 14.4198C15.1272 14.4237 15.1217 14.4276 15.1161 14.4316C15.0332 14.4909 14.9316 14.5636 14.8361 14.6214C14.7235 14.6897 14.5604 14.7751 14.3499 14.8175C14.0724 14.8733 13.7849 14.8495 13.5204 14.7488C13.3197 14.6724 13.1729 14.5614 13.073 14.4755C12.9884 14.4027 12.9001 14.3144 12.828 14.2423C12.8231 14.2374 12.8183 14.2326 12.8136 14.2279L9.89186 11.3061L3.99996 15.5146ZM20 8.48538V7.8C20 6.94342 19.9992 6.36113 19.9624 5.91104C19.9266 5.47262 19.8617 5.24842 19.782 5.09202C19.5902 4.7157 19.2843 4.40973 18.9079 4.21799C18.7515 4.1383 18.5273 4.07337 18.0889 4.03755C17.6388 4.00078 17.0565 4 16.2 4H7.79996C6.94338 4 6.36108 4.00078 5.91099 4.03755C5.47258 4.07337 5.24837 4.1383 5.09197 4.21799C4.71565 4.40973 4.40969 4.7157 4.21794 5.09202C4.13825 5.24842 4.07333 5.47262 4.03751 5.91104C4.00073 6.36113 3.99996 6.94342 3.99996 7.8V13.0568L8.86725 9.58017C8.87267 9.5763 8.87819 9.57236 8.88379 9.56835C8.96673 9.50906 9.06834 9.43642 9.16379 9.37858C9.27645 9.31032 9.43949 9.22489 9.65003 9.18253C9.92746 9.12671 10.215 9.15051 10.4795 9.25118C10.6802 9.32758 10.827 9.43865 10.9269 9.5245C11.0116 9.59725 11.0998 9.68561 11.1719 9.75773C11.1768 9.7626 11.1816 9.76739 11.1863 9.7721L14.1081 12.6939L20 8.48538Z" fill="#344054"/>
</svg>
