<svg width="24" height="24" viewBox="0 0 24 24" fill="none" xmlns="http://www.w3.org/2000/svg">
<path fill-rule="evenodd" clip-rule="evenodd" d="M9.99999 4C8.06699 4 6.49999 5.567 6.49999 7.5C6.49999 9.433 8.06699 11 9.99999 11C11.933 11 13.5 9.433 13.5 7.5C13.5 5.567 11.933 4 9.99999 4ZM4.49999 7.5C4.49999 4.46243 6.96243 2 9.99999 2C13.0376 2 15.5 4.46243 15.5 7.5C15.5 10.5376 13.0376 13 9.99999 13C6.96243 13 4.49999 10.5376 4.49999 7.5ZM18.0429 10.0429C19.1238 8.96201 20.8762 8.962 21.9571 10.0429C23.038 11.1237 23.0381 12.8763 21.9571 13.9572L15.5003 20.4139C15.4929 20.4213 15.4854 20.4289 15.4776 20.4366C15.3925 20.5221 15.2852 20.6297 15.1597 20.7219C15.0506 20.802 14.9336 20.8708 14.8106 20.9272C14.6691 20.9922 14.5229 21.0337 14.4069 21.0667C14.3963 21.0696 14.3861 21.0726 14.3761 21.0754L11.2747 21.9615C10.9255 22.0613 10.5497 21.9639 10.2929 21.7071C10.0361 21.4503 9.9387 21.0745 10.0385 20.7253L10.9246 17.6239C10.9274 17.6139 10.9303 17.6036 10.9333 17.5931C10.9663 17.4771 11.0078 17.3309 11.0728 17.1894C11.1292 17.0664 11.198 16.9494 11.2781 16.8403C11.3703 16.7148 11.4779 16.6075 11.5634 16.5224C11.5711 16.5146 11.5787 16.5071 11.5861 16.4997L18.0429 10.0429ZM20.5429 11.4571C20.2431 11.1573 19.757 11.1573 19.4571 11.4571L13.0003 17.9139C12.9417 17.9725 12.913 18.0014 12.8927 18.0229C12.8922 18.0234 12.8917 18.0239 12.8913 18.0244C12.8911 18.0251 12.8909 18.0257 12.8906 18.0264C12.8817 18.0546 12.8704 18.0937 12.8476 18.1734L12.456 19.544L13.8266 19.1524C13.9063 19.1296 13.9454 19.1183 13.9736 19.1094C13.9743 19.1091 13.9749 19.1089 13.9756 19.1087C13.976 19.1083 13.9765 19.1078 13.9771 19.1073C13.9986 19.087 14.0274 19.0583 14.0861 18.9997L20.5429 12.5429C20.8428 12.2431 20.8428 11.7569 20.5429 11.4571ZM7.32626 14.5C7.38332 14.5 7.44122 14.5 7.5 14.5H8.99999C9.55228 14.5 9.99999 14.9477 9.99999 15.5C9.99999 16.0523 9.55228 16.5 8.99999 16.5H7.5C6.03167 16.5 5.5192 16.5109 5.12914 16.6292C4.17033 16.92 3.42002 17.6703 3.12917 18.6291C3.01085 19.0192 2.99999 19.5317 2.99999 21C2.99999 21.5523 2.55228 22 1.99999 22C1.44771 22 0.999992 21.5523 0.999992 21C0.999992 20.9412 0.99997 20.8833 0.999949 20.8263C0.999495 19.599 0.999185 18.761 1.21529 18.0486C1.70004 16.4506 2.95056 15.2 4.54856 14.7153C5.26097 14.4992 6.09899 14.4995 7.32626 14.5Z" fill="#344054"/>
</svg>
