<svg width="24" height="24" viewBox="0 0 24 24" fill="none" xmlns="http://www.w3.org/2000/svg">
<path fill-rule="evenodd" clip-rule="evenodd" d="M12 4C10.067 4 8.5 5.567 8.5 7.5C8.5 9.433 10.067 11 12 11C13.933 11 15.5 9.433 15.5 7.5C15.5 5.567 13.933 4 12 4ZM6.5 7.5C6.5 4.46243 8.96243 2 12 2C15.0376 2 17.5 4.46243 17.5 7.5C17.5 10.5376 15.0376 13 12 13C8.96243 13 6.5 10.5376 6.5 7.5ZM9.32627 14.5C9.38333 14.5 9.44123 14.5 9.5 14.5H14.5C14.5588 14.5 14.6167 14.5 14.6737 14.5C15.901 14.4995 16.739 14.4992 17.4514 14.7153C19.0494 15.2 20.3 16.4506 20.7847 18.0486C21.0008 18.761 21.0005 19.599 21 20.8263C21 20.8833 21 20.9412 21 21C21 21.5523 20.5523 22 20 22C19.4477 22 19 21.5523 19 21C19 19.5317 18.9891 19.0192 18.8708 18.6291C18.58 17.6703 17.8297 16.92 16.8709 16.6292C16.4808 16.5108 15.9683 16.5 14.5 16.5H9.5C8.03168 16.5 7.51921 16.5108 7.12914 16.6292C6.17034 16.92 5.42003 17.6703 5.12918 18.6291C5.01085 19.0192 5 19.5317 5 21C5 21.5523 4.55229 22 4 22C3.44772 22 3 21.5523 3 21C3 20.9412 2.99998 20.8833 2.99996 20.8263C2.9995 19.599 2.99919 18.761 3.2153 18.0486C3.70005 16.4506 4.95057 15.2 6.54857 14.7153C7.26098 14.4992 8.09899 14.4995 9.32627 14.5Z" fill="#344054"/>
</svg>
