<svg width="24" height="24" viewBox="0 0 24 24" fill="none" xmlns="http://www.w3.org/2000/svg">
<path fill-rule="evenodd" clip-rule="evenodd" d="M10 4C8.06703 4 6.50002 5.567 6.50002 7.5C6.50002 9.433 8.06703 11 10 11C11.933 11 13.5 9.433 13.5 7.5C13.5 5.567 11.933 4 10 4ZM4.50002 7.5C4.50002 4.46243 6.96246 2 10 2C13.0376 2 15.5 4.46243 15.5 7.5C15.5 10.5376 13.0376 13 10 13C6.96246 13 4.50002 10.5376 4.50002 7.5ZM7.32629 14.5C7.38335 14.5 7.44125 14.5 7.50003 14.5H12C12.5523 14.5 13 14.9477 13 15.5C13 16.0523 12.5523 16.5 12 16.5H7.50003C6.03171 16.5 5.51923 16.5109 5.12917 16.6292C4.17036 16.92 3.42005 17.6703 3.1292 18.6291C3.01088 19.0192 3.00002 19.5317 3.00002 21C3.00002 21.5523 2.55231 22 2.00002 22C1.44774 22 1.00002 21.5523 1.00002 21C1.00002 20.9412 1 20.8833 0.99998 20.8263C0.999526 19.599 0.999216 18.761 1.21532 18.0486C1.70007 16.4506 2.95059 15.2 4.54859 14.7153C5.261 14.4992 6.09902 14.4995 7.32629 14.5ZM15.7929 15.2929C16.1834 14.9024 16.8166 14.9024 17.2071 15.2929L19 17.0858L20.7929 15.2929C21.1834 14.9024 21.8166 14.9024 22.2071 15.2929C22.5977 15.6834 22.5977 16.3166 22.2071 16.7071L20.4142 18.5L22.2071 20.2929C22.5977 20.6834 22.5977 21.3166 22.2071 21.7071C21.8166 22.0976 21.1834 22.0976 20.7929 21.7071L19 19.9142L17.2071 21.7071C16.8166 22.0976 16.1834 22.0976 15.7929 21.7071C15.4024 21.3166 15.4024 20.6834 15.7929 20.2929L17.5858 18.5L15.7929 16.7071C15.4024 16.3166 15.4024 15.6834 15.7929 15.2929Z" fill="#344054"/>
</svg>
