<svg width="24" height="24" viewBox="0 0 24 24" fill="none" xmlns="http://www.w3.org/2000/svg">
<path fill-rule="evenodd" clip-rule="evenodd" d="M9.99999 4C8.06699 4 6.49999 5.567 6.49999 7.5C6.49999 9.433 8.06699 11 9.99999 11C11.933 11 13.5 9.433 13.5 7.5C13.5 5.567 11.933 4 9.99999 4ZM4.49999 7.5C4.49999 4.46243 6.96243 2 9.99999 2C13.0376 2 15.5 4.46243 15.5 7.5C15.5 10.5376 13.0376 13 9.99999 13C6.96243 13 4.49999 10.5376 4.49999 7.5ZM19.7071 14.2929C20.0976 14.6834 20.0976 15.3166 19.7071 15.7071L18.4142 17H22C22.5523 17 23 17.4477 23 18C23 18.5523 22.5523 19 22 19H18.4142L19.7071 20.2929C20.0976 20.6834 20.0976 21.3166 19.7071 21.7071C19.3166 22.0976 18.6834 22.0976 18.2929 21.7071L15.2929 18.7071C14.9024 18.3166 14.9024 17.6834 15.2929 17.2929L18.2929 14.2929C18.6834 13.9024 19.3166 13.9024 19.7071 14.2929ZM7.32626 14.5C7.38332 14.5 7.44122 14.5 7.5 14.5H12C12.5523 14.5 13 14.9477 13 15.5C13 16.0523 12.5523 16.5 12 16.5H7.5C6.03167 16.5 5.5192 16.5109 5.12914 16.6292C4.17033 16.92 3.42002 17.6703 3.12917 18.6291C3.01085 19.0192 2.99999 19.5317 2.99999 21C2.99999 21.5523 2.55228 22 1.99999 22C1.44771 22 0.999992 21.5523 0.999992 21C0.999992 20.9412 0.99997 20.8833 0.999949 20.8263C0.999495 19.599 0.999185 18.761 1.21529 18.0486C1.70004 16.4506 2.95056 15.2 4.54856 14.7153C5.26097 14.4992 6.09899 14.4995 7.32626 14.5Z" fill="#344054"/>
</svg>
