<svg width="24" height="24" viewBox="0 0 24 24" fill="none" xmlns="http://www.w3.org/2000/svg">
<path d="M14.7475 1H8.26487C7.4599 0.999988 6.79553 0.999978 6.25434 1.04419C5.69224 1.09012 5.17554 1.18868 4.6902 1.43598C3.93756 1.81947 3.32563 2.43139 2.94214 3.18404C2.69485 3.66937 2.59628 4.18608 2.55036 4.74818C2.50614 5.28937 2.50615 5.95372 2.50616 6.75869V17.2413C2.50615 18.0463 2.50614 18.7106 2.55036 19.2518C2.59628 19.8139 2.69485 20.3306 2.94214 20.816C3.32563 21.5686 3.93756 22.1805 4.6902 22.564C5.17554 22.8113 5.69224 22.9099 6.25434 22.9558C6.79553 23 7.45988 23 8.26484 23H13.5062C14.0585 23 14.5062 22.5523 14.5062 22C14.5062 21.4477 14.0585 21 13.5062 21H8.30617C7.44959 21 6.86729 20.9992 6.4172 20.9624C5.97879 20.9266 5.75458 20.8617 5.59819 20.782C5.22186 20.5903 4.9159 20.2843 4.72415 19.908C4.64446 19.7516 4.57954 19.5274 4.54372 19.089C4.50694 18.6389 4.50617 18.0566 4.50617 17.2V6.8C4.50617 5.94342 4.50694 5.36113 4.54372 4.91104C4.57954 4.47262 4.64446 4.24842 4.72415 4.09202C4.9159 3.7157 5.22186 3.40973 5.59819 3.21799C5.75458 3.1383 5.97879 3.07337 6.4172 3.03755C6.86729 3.00078 7.44959 3 8.30617 3H14.7062C15.5627 3 16.145 3.00078 16.5951 3.03755C17.0335 3.07337 17.2577 3.1383 17.4141 3.21799C17.7905 3.40974 18.0964 3.7157 18.2882 4.09202C18.3679 4.24842 18.4328 4.47262 18.4686 4.91104C18.5054 5.36113 18.5062 5.94342 18.5062 6.8V9.5C18.5062 10.0523 18.9539 10.5 19.5062 10.5C20.0584 10.5 20.5062 10.0523 20.5062 9.5V6.75868C20.5062 5.95372 20.5062 5.28937 20.462 4.74818C20.416 4.18608 20.3175 3.66937 20.0702 3.18404C19.6867 2.43139 19.0748 1.81947 18.3221 1.43598C17.8368 1.18868 17.3201 1.09012 16.758 1.04419C16.2168 0.999978 15.5524 0.999988 14.7475 1Z" fill="#344054"/>
<path d="M17.613 14.5825C17.8672 14.4331 18.166 14.3785 18.4566 14.4284C18.7471 14.4782 19.0107 14.6293 19.2005 14.8548C19.3904 15.0803 19.4943 15.3658 19.4938 15.6606V15.6621C19.4938 15.8807 19.3167 16.1818 18.815 16.5163C18.5946 16.6632 18.367 16.7777 18.1907 16.8561C18.1039 16.8946 18.033 16.9229 17.9861 16.9408C17.9628 16.9497 17.9456 16.9559 17.9358 16.9594L17.9265 16.9627C17.4043 17.1384 17.1225 17.7036 17.2968 18.2266C17.4715 18.7506 18.0378 19.0337 18.5617 18.8591L18.563 18.8587L18.5644 18.8582L18.5679 18.857L18.5773 18.8538L18.6058 18.8438C18.6288 18.8356 18.66 18.8243 18.6981 18.8098C18.7742 18.7808 18.8789 18.7388 19.003 18.6837C19.2482 18.5747 19.5827 18.4082 19.9244 18.1804C20.5467 17.7655 21.4934 16.9428 21.4938 15.663C21.4949 14.8961 21.2245 14.1535 20.7306 13.5668C20.2365 12.9799 19.5508 12.5869 18.7947 12.4572C18.0386 12.3275 17.261 12.4696 16.5997 12.8582C15.9383 13.2469 15.4358 13.8571 15.1813 14.5808C14.998 15.1018 15.2718 15.6727 15.7928 15.856C16.3137 16.0392 16.8847 15.7655 17.0679 15.2445C17.1658 14.9664 17.3589 14.7319 17.613 14.5825Z" fill="#344054"/>
<path d="M18.2746 19.9104C17.7223 19.9104 17.2746 20.3581 17.2746 20.9104C17.2746 21.4627 17.7223 21.9104 18.2746 21.9104H18.2846C18.8369 21.9104 19.2846 21.4627 19.2846 20.9104C19.2846 20.3581 18.8369 19.9104 18.2846 19.9104H18.2746Z" fill="#344054"/>
</svg>
