<svg width="24" height="24" viewBox="0 0 24 24" fill="none" xmlns="http://www.w3.org/2000/svg">
<path fill-rule="evenodd" clip-rule="evenodd" d="M13 3.01979C12.8143 3.00287 12.5391 2.99994 12.0118 2.99994H8.8C7.94342 2.99994 7.36113 3.00072 6.91104 3.03749C6.47262 3.07331 6.24842 3.13824 6.09202 3.21793C5.71569 3.40967 5.40973 3.71564 5.21799 4.09196C5.1383 4.24836 5.07337 4.47256 5.03755 4.91098C5.00078 5.36107 5 5.94336 5 6.79994V17.1999C5 18.0565 5.00078 18.6388 5.03755 19.0889C5.07337 19.5273 5.1383 19.7515 5.21799 19.9079C5.40973 20.2842 5.7157 20.5902 6.09202 20.782C6.24842 20.8616 6.47262 20.9266 6.91104 20.9624C7.36113 20.9992 7.94342 20.9999 8.8 20.9999H15.2C16.0566 20.9999 16.6389 20.9992 17.089 20.9624C17.5274 20.9266 17.7516 20.8616 17.908 20.782C18.2843 20.5902 18.5903 20.2842 18.782 19.9079C18.8617 19.7515 18.9266 19.5273 18.9624 19.0889C18.9992 18.6388 19 18.0565 19 17.1999V9.98817C19 9.46087 18.9971 9.18571 18.9802 9.00001L15.5681 9.00002C15.3157 9.00005 15.0699 9.00007 14.8618 8.98307C14.6332 8.96439 14.3634 8.92032 14.092 8.78202C13.7157 8.59028 13.4097 8.28432 13.218 7.90799C13.0797 7.63657 13.0356 7.36684 13.0169 7.13824C12.9999 6.93008 13 6.68428 13 6.43189L13 3.01979ZM14.3936 1.34991C14.1677 1.24865 13.9326 1.16842 13.6911 1.11046C13.2284 0.999378 12.7487 0.999607 12.1137 0.999909C12.0801 0.999925 12.0462 0.999941 12.0118 0.999941L8.7587 0.999941C7.95373 0.999928 7.28937 0.999917 6.74817 1.04413C6.18608 1.09006 5.66937 1.18862 5.18404 1.43591C4.43139 1.81941 3.81947 2.43133 3.43597 3.18398C3.18868 3.66931 3.09012 4.18602 3.04419 4.74812C2.99998 5.28931 2.99999 5.95367 3 6.75864V17.2412C2.99999 18.0462 2.99998 18.7106 3.04419 19.2518C3.09012 19.8139 3.18868 20.3306 3.43597 20.8159C3.81947 21.5686 4.43139 22.1805 5.18404 22.564C5.66937 22.8113 6.18608 22.9098 6.74817 22.9557C7.28936 23 7.95372 23 8.75868 22.9999H15.2413C16.0463 23 16.7106 23 17.2518 22.9557C17.8139 22.9098 18.3306 22.8113 18.816 22.564C19.5686 22.1805 20.1805 21.5686 20.564 20.8159C20.8113 20.3306 20.9099 19.8139 20.9558 19.2518C21 18.7106 21 18.0462 21 17.2413V9.98817C21 9.95376 21 9.91981 21 9.8863C21.0003 9.25129 21.0006 8.7715 20.8895 8.3088C20.8317 8.06807 20.7518 7.8336 20.6509 7.60831C20.6447 7.59363 20.6381 7.57913 20.6311 7.56482C20.5658 7.42343 20.4922 7.28577 20.4106 7.15259C20.1619 6.74686 19.8225 6.40776 19.3733 5.95895C19.3496 5.93526 19.3255 5.91127 19.3012 5.88695L16.113 2.69872C16.0887 2.67439 16.0647 2.65037 16.041 2.62666C15.5922 2.17744 15.2531 1.83801 14.8474 1.58938C14.7136 1.50743 14.5754 1.43354 14.4334 1.36802C14.4203 1.3617 14.407 1.35566 14.3936 1.34991ZM15 4.41415V6.40001C15 6.69654 15.0008 6.85879 15.0103 6.97538C15.0107 6.98002 15.0111 6.98441 15.0114 6.98856C15.0156 6.98895 15.02 6.98933 15.0246 6.98971C15.1412 6.99923 15.3035 7.00001 15.6 7.00001H17.5859L15 4.41415ZM12 9.49994C12.5523 9.49994 13 9.94766 13 10.4999V17.9999C13 18.5522 12.5523 18.9999 12 18.9999C11.4477 18.9999 11 18.5522 11 17.9999V10.4999C11 9.94766 11.4477 9.49994 12 9.49994ZM16 11.9999C16.5523 11.9999 17 12.4477 17 12.9999V17.9999C17 18.5522 16.5523 18.9999 16 18.9999C15.4477 18.9999 15 18.5522 15 17.9999V12.9999C15 12.4477 15.4477 11.9999 16 11.9999ZM8 13.9999C8.55228 13.9999 9 14.4477 9 14.9999V17.9999C9 18.5522 8.55228 18.9999 8 18.9999C7.44772 18.9999 7 18.5522 7 17.9999V14.9999C7 14.4477 7.44772 13.9999 8 13.9999Z" fill="#344054"/>
</svg>
