<svg width="24" height="24" viewBox="0 0 24 24" fill="none" xmlns="http://www.w3.org/2000/svg">
<path fill-rule="evenodd" clip-rule="evenodd" d="M12 4.01979C11.8143 4.00287 11.5391 3.99994 11.0118 3.99994H7.8C6.94342 3.99994 6.36113 4.00072 5.91104 4.03749C5.47262 4.07331 5.24842 4.13824 5.09202 4.21793C4.7157 4.40967 4.40973 4.71564 4.21799 5.09196C4.1383 5.24836 4.07337 5.47256 4.03755 5.91098C4.00078 6.36107 4 6.94336 4 7.79994V16.1999C4 17.0565 4.00078 17.6388 4.03755 18.0889C4.07337 18.5273 4.1383 18.7515 4.21799 18.9079C4.40973 19.2842 4.7157 19.5902 5.09202 19.782C5.24842 19.8616 5.47262 19.9266 5.91104 19.9624C6.36113 19.9992 6.94342 19.9999 7.8 19.9999H16.2C17.0566 19.9999 17.6389 19.9992 18.089 19.9624C18.5274 19.9266 18.7516 19.8616 18.908 19.782C19.2843 19.5902 19.5903 19.2842 19.782 18.9079C19.8617 18.7515 19.9266 18.5273 19.9624 18.0889C19.9992 17.6388 20 17.0565 20 16.1999V12.9882C20 12.4608 19.9971 12.1856 19.9802 11.9999H17.7587C16.9537 12 16.2894 12 15.7482 11.9557C15.1861 11.9098 14.6694 11.8113 14.184 11.564C13.4314 11.1805 12.8195 10.5686 12.436 9.8159C12.1887 9.33057 12.0901 8.81386 12.0442 8.25177C12 7.71057 12 7.0462 12 6.24122V4.01979ZM14 5.41415V6.19994C14 7.05652 14.0008 7.63881 14.0376 8.0889C14.0734 8.52732 14.1383 8.75152 14.218 8.90792C14.4097 9.28425 14.7157 9.59021 15.092 9.78195C15.2484 9.86164 15.4726 9.92657 15.911 9.96239C16.3611 9.99916 16.9434 9.99994 17.8 9.99994H18.5858L14 5.41415ZM11.1137 1.99991C11.7487 1.99961 12.2284 1.99938 12.6911 2.11046C13.0993 2.20845 13.4895 2.37007 13.8474 2.58938C14.2531 2.83801 14.5922 3.17743 15.041 3.62666C15.0647 3.65037 15.0887 3.67439 15.113 3.69872L20.3012 8.88695C20.3256 8.91128 20.3496 8.93527 20.3733 8.95896C20.8225 9.40776 21.1619 9.74687 21.4106 10.1526C21.6299 10.5105 21.7915 10.9007 21.8895 11.3088C22.0006 11.7715 22.0003 12.2513 22 12.8863C22 12.9198 22 12.9538 22 12.9882V16.2413C22 17.0462 22 17.7106 21.9558 18.2518C21.9099 18.8139 21.8113 19.3306 21.564 19.8159C21.1805 20.5686 20.5686 21.1805 19.816 21.564C19.3306 21.8113 18.8139 21.9098 18.2518 21.9557C17.7106 22 17.0463 22 16.2413 21.9999H7.75868C6.95372 22 6.28936 22 5.74817 21.9557C5.18608 21.9098 4.66937 21.8113 4.18404 21.564C3.43139 21.1805 2.81947 20.5686 2.43597 19.8159C2.18868 19.3306 2.09012 18.8139 2.04419 18.2518C1.99998 17.7106 1.99999 17.0462 2 16.2412V7.75864C1.99999 6.95367 1.99998 6.28931 2.04419 5.74812C2.09012 5.18602 2.18868 4.66931 2.43597 4.18398C2.81947 3.43133 3.43139 2.81941 4.18404 2.43591C4.66937 2.18862 5.18608 2.09006 5.74817 2.04413C6.28937 1.99992 6.95373 1.99993 7.7587 1.99994L11.0118 1.99994C11.0462 1.99994 11.0801 1.99992 11.1137 1.99991Z" fill="#344054"/>
</svg>
