<svg width="24" height="24" viewBox="0 0 24 24" fill="none" xmlns="http://www.w3.org/2000/svg">
<path fill-rule="evenodd" clip-rule="evenodd" d="M4.18225 10.7083C9.21163 10.7122 13.288 14.7885 13.2921 19.8178L4.18225 10.7083ZM11.8835 3C8.0449 3 4.75821 5.37292 3.41441 8.73394C3.66589 8.71693 3.91952 8.70829 4.17501 8.70829C10.3148 8.70829 15.2921 13.6856 15.2921 19.8254C15.2921 20.081 15.2835 20.3347 15.2665 20.5863C18.6276 19.2426 21.0006 15.9558 21.0006 12.1171C21.0006 7.08188 16.9188 3 11.8835 3ZM12.5335 21.8875L12.7338 22.0878C12.7486 22.1027 12.7638 22.118 12.7794 22.1337C12.9561 22.3116 13.1821 22.5392 13.4836 22.6882C13.7343 22.812 14.0429 22.8879 14.3224 22.8945C14.6572 22.9024 14.9378 22.8137 15.154 22.7454C15.1711 22.74 15.1878 22.7347 15.204 22.7296C19.7208 21.3177 23.0006 17.1017 23.0006 12.1171C23.0006 5.97731 18.0233 1 11.8835 1C6.89873 1 2.68265 4.28003 1.27087 8.79709C1.26579 8.81335 1.26052 8.83002 1.25513 8.84708C1.18679 9.06337 1.09813 9.34395 1.10602 9.67872C1.11261 9.95827 1.18853 10.2668 1.3124 10.5175L1.5367 10.4067L1.3124 10.5175C1.46137 10.819 1.68899 11.045 1.86693 11.2217C1.88263 11.2373 1.89795 11.2525 1.91279 11.2673L2.12642 11.4809C2.18538 11.5418 2.24535 11.6017 2.30261 11.659C2.31099 11.6673 2.31931 11.6756 2.32756 11.6839L12.3165 21.6729C12.3248 21.6811 12.3331 21.6894 12.3415 21.6978C12.403 21.7594 12.4678 21.8242 12.5335 21.8875Z" fill="#344054"/>
</svg>
