<svg width="24" height="24" viewBox="0 0 24 24" fill="none" xmlns="http://www.w3.org/2000/svg">
<path fill-rule="evenodd" clip-rule="evenodd" d="M11.5681 1H12.4319C12.6843 0.999973 12.9301 0.999943 13.1382 1.01695C13.3668 1.03563 13.6366 1.07969 13.908 1.21799C14.2843 1.40974 14.5903 1.7157 14.782 2.09202C14.9203 2.36345 14.9644 2.63318 14.9831 2.86178C14.9862 2.90014 14.9888 2.93979 14.9908 2.98052C17.8325 3.92223 20.0778 6.16756 21.0196 9.00918C21.0603 9.01127 21.0999 9.01382 21.1382 9.01695C21.3668 9.03563 21.6366 9.07969 21.908 9.21799C22.2843 9.40974 22.5903 9.7157 22.782 10.092C22.9203 10.3634 22.9644 10.6332 22.9831 10.8618C23.0001 11.0699 23 11.3157 23 11.5681V12.4319C23 12.6843 23.0001 12.9301 22.9831 13.1382C22.9644 13.3668 22.9203 13.6366 22.782 13.908C22.5903 14.2843 22.2843 14.5903 21.908 14.782C21.6366 14.9203 21.3668 14.9644 21.1382 14.9831C21.0999 14.9862 21.0603 14.9887 21.0196 14.9908C20.0778 17.8324 17.8324 20.0777 14.9908 21.0194C14.9888 21.0601 14.9862 21.0998 14.9831 21.1382C14.9644 21.3668 14.9203 21.6366 14.782 21.908C14.5903 22.2843 14.2843 22.5903 13.908 22.782C13.6366 22.9203 13.3668 22.9644 13.1382 22.9831C12.9301 23.0001 12.6843 23 12.4319 23H11.5681C11.3157 23 11.0699 23.0001 10.8618 22.9831C10.6332 22.9644 10.3634 22.9203 10.092 22.782C9.7157 22.5903 9.40974 22.2843 9.21799 21.908C9.07969 21.6366 9.03563 21.3668 9.01695 21.1382C9.01381 21.0998 9.01126 21.0601 9.00917 21.0194C6.16765 20.0776 3.92239 17.8324 2.98064 14.9908C2.93987 14.9888 2.90018 14.9862 2.86178 14.9831C2.63318 14.9644 2.36345 14.9203 2.09202 14.782C1.7157 14.5903 1.40974 14.2843 1.21799 13.908C1.07969 13.6366 1.03563 13.3668 1.01695 13.1382C0.999943 12.9301 0.999973 12.6843 1 12.4319V11.5681C0.999973 11.3157 0.999943 11.0699 1.01695 10.8618C1.03563 10.6332 1.07969 10.3634 1.21799 10.092C1.40974 9.7157 1.7157 9.40974 2.09202 9.21799C2.36345 9.07969 2.63318 9.03563 2.86178 9.01695C2.90024 9.01381 2.93999 9.01125 2.98083 9.00916C3.92254 6.16768 6.16773 3.92244 9.00917 2.98065C9.01125 2.93987 9.01381 2.90018 9.01695 2.86178C9.03563 2.63318 9.07969 2.36345 9.21799 2.09202C9.40974 1.7157 9.7157 1.40974 10.092 1.21799C10.3634 1.07969 10.6332 1.03563 10.8618 1.01695C11.0699 0.999943 11.3157 0.999973 11.5681 1ZM11 3.76662C11.0006 3.74721 11.0006 3.72772 11 3.70816V3.60001C11 3.30348 11.0008 3.14122 11.0103 3.02464C11.0107 3.02 11.0111 3.0156 11.0115 3.01145C11.0156 3.01107 11.02 3.01069 11.0246 3.01031C11.1412 3.00078 11.3035 3.00001 11.6 3.00001H12.4C12.6965 3.00001 12.8588 3.00078 12.9754 3.01031C12.98 3.01069 12.9844 3.01107 12.9886 3.01145C12.9889 3.0156 12.9893 3.02 12.9897 3.02464C12.9992 3.14122 13 3.30348 13 3.60001V3.72972C13 3.73484 13 3.73996 13 3.74506V4.40001C13 4.69653 12.9992 4.85879 12.9897 4.97537C12.9893 4.98001 12.9889 4.98441 12.9886 4.98856C12.9844 4.98894 12.98 4.98932 12.9754 4.9897C12.8588 4.99923 12.6965 5.00001 12.4 5.00001H11.6C11.3035 5.00001 11.1412 4.99923 11.0246 4.9897C11.02 4.98932 11.0156 4.98894 11.0115 4.98856C11.0111 4.98441 11.0107 4.98001 11.0103 4.97537C11.0008 4.85879 11 4.69653 11 4.40001V3.76662ZM9.0153 5.11719C7.27333 5.87386 5.87393 7.2733 5.11733 9.01531C5.12434 9.01584 5.13131 9.01638 5.13824 9.01695C5.36683 9.03563 5.63656 9.07969 5.90799 9.21799C6.28431 9.40974 6.59027 9.7157 6.78202 10.092C6.92032 10.3634 6.96438 10.6332 6.98306 10.8618C7.00007 11.0699 7.00004 11.3157 7.00001 11.5681V12.4319C7.00004 12.6843 7.00007 12.9301 6.98306 13.1382C6.96438 13.3668 6.92032 13.6366 6.78202 13.908C6.59027 14.2843 6.28431 14.5903 5.90799 14.782C5.63656 14.9203 5.36683 14.9644 5.13824 14.9831C5.13125 14.9836 5.12423 14.9842 5.11717 14.9847C5.8738 16.7268 7.27326 18.1262 9.0153 18.8828C9.01583 18.8758 9.01638 18.8688 9.01695 18.8618C9.03563 18.6332 9.07969 18.3634 9.21799 18.092C9.40974 17.7157 9.7157 17.4097 10.092 17.218C10.3634 17.0797 10.6332 17.0356 10.8618 17.017C11.0699 16.9999 11.3157 17 11.5681 17H12.4319C12.6843 17 12.9301 16.9999 13.1382 17.017C13.3668 17.0356 13.6366 17.0797 13.908 17.218C14.2843 17.4097 14.5903 17.7157 14.782 18.092C14.9203 18.3634 14.9644 18.6332 14.9831 18.8618C14.9836 18.8688 14.9842 18.8758 14.9847 18.8829C16.7268 18.1263 18.1263 16.7268 18.883 14.9847C18.8759 14.9842 18.8688 14.9836 18.8618 14.9831C18.6332 14.9644 18.3634 14.9203 18.092 14.782C17.7157 14.5903 17.4097 14.2843 17.218 13.908C17.0797 13.6366 17.0356 13.3668 17.017 13.1382C16.9999 12.9301 17 12.6843 17 12.4319V11.5681C17 11.3157 16.9999 11.0699 17.017 10.8618C17.0356 10.6332 17.0797 10.3634 17.218 10.092C17.4097 9.7157 17.7157 9.40974 18.092 9.21799C18.3634 9.07969 18.6332 9.03563 18.8618 9.01695C18.8688 9.01637 18.8759 9.01582 18.8831 9.01528C18.1264 7.27316 16.7269 5.87365 14.9847 5.11702C14.9842 5.12413 14.9836 5.13121 14.9831 5.13824C14.9644 5.36683 14.9203 5.63656 14.782 5.90799C14.5903 6.28431 14.2843 6.59027 13.908 6.78202C13.6366 6.92032 13.3668 6.96438 13.1382 6.98306C12.9301 7.00007 12.6843 7.00004 12.4319 7.00001H11.5681C11.3157 7.00004 11.0699 7.00007 10.8618 6.98306C10.6332 6.96438 10.3634 6.92032 10.092 6.78202C9.7157 6.59027 9.40974 6.28431 9.21799 5.90799C9.07969 5.63656 9.03563 5.36683 9.01695 5.13824C9.01638 5.13126 9.01583 5.12425 9.0153 5.11719ZM20.2474 11H19.6C19.3035 11 19.1412 11.0008 19.0246 11.0103C19.02 11.0107 19.0156 11.0111 19.0115 11.0115C19.0111 11.0156 19.0107 11.02 19.0103 11.0246C19.0008 11.1412 19 11.3035 19 11.6V12.4C19 12.6965 19.0008 12.8588 19.0103 12.9754C19.0107 12.98 19.0111 12.9844 19.0115 12.9885C19.0156 12.9889 19.02 12.9893 19.0246 12.9897C19.1412 12.9992 19.3035 13 19.6 13H20.2414C20.2556 12.9997 20.2698 12.9997 20.2841 13H20.4C20.6965 13 20.8588 12.9992 20.9754 12.9897C20.98 12.9893 20.9844 12.9889 20.9886 12.9885C20.9889 12.9844 20.9893 12.98 20.9897 12.9754C20.9992 12.8588 21 12.6965 21 12.4V11.6C21 11.3035 20.9992 11.1412 20.9897 11.0246C20.9893 11.02 20.9889 11.0156 20.9885 11.0115C20.9844 11.0111 20.98 11.0107 20.9754 11.0103C20.8588 11.0008 20.6965 11 20.4 11H20.2781C20.2678 11.0002 20.2576 11.0002 20.2474 11ZM11 20.2702C11 20.2651 11 20.2599 11 20.2548V19.6C11 19.3035 11.0008 19.1412 11.0103 19.0246C11.0107 19.02 11.0111 19.0156 11.0115 19.0115C11.0156 19.0111 11.02 19.0107 11.0246 19.0103C11.1412 19.0008 11.3035 19 11.6 19H12.4C12.6965 19 12.8588 19.0008 12.9754 19.0103C12.98 19.0107 12.9844 19.0111 12.9885 19.0115C12.9889 19.0156 12.9893 19.02 12.9897 19.0246C12.9992 19.1412 13 19.3035 13 19.6V20.4C13 20.6965 12.9992 20.8588 12.9897 20.9754C12.9893 20.98 12.9889 20.9844 12.9886 20.9885C12.9844 20.9889 12.98 20.9893 12.9754 20.9897C12.8588 20.9992 12.6965 21 12.4 21H11.6C11.3035 21 11.1412 20.9992 11.0246 20.9897C11.02 20.9893 11.0156 20.9889 11.0115 20.9885C11.0111 20.9844 11.0107 20.98 11.0103 20.9754C11.0008 20.8588 11 20.6965 11 20.4V20.2702ZM3.76132 13H4.40001C4.69653 13 4.85879 12.9992 4.97537 12.9897C4.98001 12.9893 4.98441 12.9889 4.98856 12.9886C4.98894 12.9844 4.98932 12.98 4.9897 12.9754C4.99923 12.8588 5.00001 12.6965 5.00001 12.4V11.6C5.00001 11.3035 4.99923 11.1412 4.9897 11.0246C4.98932 11.02 4.98894 11.0156 4.98856 11.0115C4.98441 11.0111 4.98001 11.0107 4.97537 11.0103C4.85879 11.0008 4.69653 11 4.40001 11H3.75901C3.7448 11.0003 3.73055 11.0003 3.71626 11H3.60001C3.30348 11 3.14122 11.0008 3.02464 11.0103C3.02 11.0107 3.0156 11.0111 3.01145 11.0115C3.01107 11.0156 3.01069 11.02 3.01031 11.0246C3.00078 11.1412 3.00001 11.3035 3.00001 11.6V12.4C3.00001 12.6965 3.00078 12.8588 3.01031 12.9754C3.01069 12.98 3.01107 12.9844 3.01145 12.9886C3.0156 12.9889 3.02 12.9893 3.02464 12.9897C3.14122 12.9992 3.30348 13 3.60001 13H3.71355C3.72952 12.9996 3.74545 12.9996 3.76132 13Z" fill="#344054"/>
</svg>
