<svg width="24" height="24" viewBox="0 0 24 24" fill="none" xmlns="http://www.w3.org/2000/svg">
<path fill-rule="evenodd" clip-rule="evenodd" d="M11.5681 2H12.4319C12.6843 1.99997 12.9301 1.99994 13.1382 2.01695C13.3668 2.03563 13.6366 2.07969 13.908 2.21799C14.2843 2.40974 14.5903 2.7157 14.782 3.09202C14.9203 3.36345 14.9644 3.63318 14.9831 3.86178C15.0001 4.06994 15 4.31574 15 4.56812V5.43189C15 5.68428 15.0001 5.93007 14.9831 6.13824C14.9644 6.36683 14.9203 6.63656 14.782 6.90799C14.7024 7.06422 14.6031 7.20833 14.4873 7.33717L19.4375 16.0001C19.4807 16 19.5243 16 19.5681 16H20.4319C20.6843 16 20.9301 15.9999 21.1382 16.0169C21.3668 16.0356 21.6366 16.0797 21.908 16.218C22.2843 16.4097 22.5903 16.7157 22.782 17.092C22.9203 17.3634 22.9644 17.6332 22.9831 17.8618C23.0001 18.0699 23 18.3157 23 18.5681V19.4319C23 19.6843 23.0001 19.9301 22.9831 20.1382C22.9644 20.3668 22.9203 20.6366 22.782 20.908C22.5903 21.2843 22.2843 21.5903 21.908 21.782C21.6366 21.9203 21.3668 21.9644 21.1382 21.9831C20.9301 22.0001 20.6843 22 20.4319 22H19.5681C19.3157 22 19.0699 22.0001 18.8618 21.9831C18.6332 21.9644 18.3634 21.9203 18.092 21.782C17.7157 21.5903 17.4097 21.2843 17.218 20.908C17.0797 20.6366 17.0356 20.3668 17.017 20.1382C17.0133 20.0938 17.0105 20.0476 17.0082 20H6.99179C6.98955 20.0476 6.98669 20.0938 6.98306 20.1382C6.96438 20.3668 6.92032 20.6366 6.78202 20.908C6.59027 21.2843 6.28431 21.5903 5.90799 21.782C5.63656 21.9203 5.36683 21.9644 5.13824 21.9831C4.93008 22.0001 4.6843 22 4.43192 22H3.56809C3.31571 22 3.06993 22.0001 2.86178 21.9831C2.63318 21.9644 2.36345 21.9203 2.09202 21.782C1.7157 21.5903 1.40974 21.2843 1.21799 20.908C1.07969 20.6366 1.03563 20.3668 1.01695 20.1382C0.999943 19.9301 0.999973 19.6843 1 19.4319V18.5681C0.999973 18.3157 0.999943 18.0699 1.01695 17.8618C1.03563 17.6332 1.07969 17.3634 1.21799 17.092C1.40974 16.7157 1.7157 16.4097 2.09202 16.218C2.36345 16.0797 2.63318 16.0356 2.86178 16.0169C3.06994 15.9999 3.31574 16 3.56812 16H4.43189C4.47568 16 4.51927 16 4.5625 16.0001L9.51273 7.33717C9.39689 7.20833 9.2976 7.06422 9.21799 6.90799C9.07969 6.63656 9.03563 6.36683 9.01695 6.13824C8.99994 5.93008 8.99997 5.68429 9 5.4319C9 5.42128 9 5.41065 9 5.40001V4.60001C9 4.58936 9 4.57873 9 4.56811C8.99997 4.31572 8.99994 4.06993 9.01695 3.86178C9.03563 3.63318 9.07969 3.36345 9.21799 3.09202C9.40974 2.7157 9.7157 2.40974 10.092 2.21799C10.3634 2.07969 10.6332 2.03563 10.8618 2.01695C11.0699 1.99994 11.3157 1.99997 11.5681 2ZM11.4375 7.99993L6.48728 16.6628C6.60312 16.7917 6.70241 16.9358 6.78202 17.092C6.92032 17.3634 6.96438 17.6332 6.98306 17.8618C6.98669 17.9062 6.98955 17.9524 6.99179 18H17.0082C17.0105 17.9524 17.0133 17.9062 17.017 17.8618C17.0356 17.6332 17.0797 17.3634 17.218 17.092C17.2976 16.9358 17.3969 16.7917 17.5127 16.6628L12.5625 7.99993C12.5193 8.00002 12.4757 8.00001 12.4319 8.00001H11.5681C11.5243 8.00001 11.4807 8.00002 11.4375 7.99993ZM12.9886 5.98856C12.9889 5.98441 12.9893 5.98001 12.9897 5.97537C12.9992 5.85879 13 5.69653 13 5.40001V4.60001C13 4.30348 12.9992 4.14122 12.9897 4.02464C12.9893 4.02 12.9889 4.0156 12.9886 4.01145C12.9844 4.01107 12.98 4.01069 12.9754 4.01031C12.8588 4.00078 12.6965 4.00001 12.4 4.00001H11.6C11.3035 4.00001 11.1412 4.00078 11.0246 4.01031C11.02 4.01069 11.0156 4.01107 11.0115 4.01145C11.0111 4.0156 11.0107 4.02 11.0103 4.02464C11.0008 4.14122 11 4.30348 11 4.60001V5.40001C11 5.69653 11.0008 5.85879 11.0103 5.97537C11.0107 5.98001 11.0111 5.98441 11.0115 5.98856C11.0156 5.98894 11.02 5.98932 11.0246 5.9897C11.1412 5.99923 11.3035 6.00001 11.6 6.00001H12.4C12.6965 6.00001 12.8588 5.99923 12.9754 5.9897C12.98 5.98932 12.9844 5.98894 12.9886 5.98856ZM19.0115 18.0115C19.0111 18.0156 19.0107 18.02 19.0103 18.0246C19.0008 18.1412 19 18.3035 19 18.6V19.4C19 19.6965 19.0008 19.8588 19.0103 19.9754C19.0107 19.98 19.0111 19.9844 19.0115 19.9885C19.0156 19.9889 19.02 19.9893 19.0246 19.9897C19.1412 19.9992 19.3035 20 19.6 20H20.4C20.6965 20 20.8588 19.9992 20.9754 19.9897C20.98 19.9893 20.9844 19.9889 20.9886 19.9885C20.9889 19.9844 20.9893 19.98 20.9897 19.9754C20.9992 19.8588 21 19.6965 21 19.4V18.6C21 18.3035 20.9992 18.1412 20.9897 18.0246C20.9893 18.02 20.9889 18.0156 20.9885 18.0115C20.9844 18.0111 20.98 18.0107 20.9754 18.0103C20.8588 18.0008 20.6965 18 20.4 18H19.6C19.3035 18 19.1412 18.0008 19.0246 18.0103C19.02 18.0107 19.0156 18.0111 19.0115 18.0115ZM5.00001 18.6C5.00001 18.3035 4.99923 18.1412 4.9897 18.0246C4.98932 18.02 4.98894 18.0156 4.98856 18.0115C4.98441 18.0111 4.98001 18.0107 4.97537 18.0103C4.85879 18.0008 4.69653 18 4.40001 18H3.60001C3.30348 18 3.14122 18.0008 3.02464 18.0103C3.02 18.0107 3.0156 18.0111 3.01145 18.0115C3.01107 18.0156 3.01069 18.02 3.01031 18.0246C3.00078 18.1412 3.00001 18.3035 3.00001 18.6V19.4C3.00001 19.6965 3.00078 19.8588 3.01031 19.9754C3.01069 19.98 3.01107 19.9844 3.01145 19.9885C3.0156 19.9889 3.02 19.9893 3.02464 19.9897C3.14122 19.9992 3.30348 20 3.60001 20H4.40001C4.69653 20 4.85879 19.9992 4.97537 19.9897C4.98001 19.9893 4.98441 19.9889 4.98856 19.9885C4.98894 19.9844 4.98932 19.98 4.9897 19.9754C4.99923 19.8588 5.00001 19.6965 5.00001 19.4V18.6Z" fill="#344054"/>
</svg>
