<svg width="24" height="24" viewBox="0 0 24 24" fill="none" xmlns="http://www.w3.org/2000/svg">
<path fill-rule="evenodd" clip-rule="evenodd" d="M17.264 2.20741C18.5274 1.03756 20.4895 1.07528 21.7071 2.29282C22.9246 3.51036 22.9623 5.47244 21.7925 6.73588L13.5176 15.6727C13.5139 15.6768 13.5101 15.6809 13.5063 15.6849L12.6554 16.6039C12.6266 16.635 12.5981 16.6658 12.5699 16.6963C12.1842 17.1139 11.8518 17.4738 11.4701 17.6992C11.0118 17.9699 10.4987 18.1091 9.98365 18.1158C10.0923 19.3919 9.65842 20.7054 8.68195 21.6819C7.7418 22.6221 6.44876 22.9056 5.30424 22.9968C4.52805 23.0586 3.66673 23.0362 2.91529 23.0166C2.58311 23.008 2.2724 22.9999 2 22.9999C1.65165 22.9999 1.32839 22.8186 1.14673 22.5214C0.965076 22.2242 0.951191 21.8538 1.11009 21.5438C1.46675 20.8479 1.43381 20.027 1.38921 18.9153C1.38788 18.8821 1.38654 18.8486 1.38519 18.8148L1.38417 18.7893C1.34471 17.8001 1.28682 16.3491 2.31799 15.3179C3.29445 14.3415 4.60802 13.9076 5.88407 14.0163C5.89079 13.5012 6.03 12.9881 6.30069 12.5298C6.52612 12.1481 6.88599 11.8156 7.30354 11.4299C7.33404 11.4018 7.36484 11.3733 7.39593 11.3445L17.264 2.20741ZM12.75 13.558L20.3249 5.37706C20.7647 4.90217 20.7505 4.16468 20.2928 3.70704C19.8352 3.24939 19.0977 3.23522 18.6228 3.67493L10.4419 11.2499L12.75 13.558ZM8.97329 12.6097L11.3902 15.0266L11.1878 15.2451C10.6663 15.8084 10.547 15.9216 10.453 15.9771C10.1512 16.1554 9.77796 16.1626 9.46944 15.996C9.37339 15.9442 9.24982 15.8356 8.70705 15.2928C8.16428 14.7501 8.05572 14.6265 8.00386 14.5304C7.8373 14.2219 7.84448 13.8487 8.02277 13.5468C8.07828 13.4528 8.19152 13.3335 8.75474 12.812L8.97329 12.6097ZM7.26774 16.7322C6.29143 15.7559 4.70852 15.7559 3.73221 16.7322C3.40547 17.0589 3.33758 17.5792 3.38361 18.7353C3.38662 18.8109 3.39014 18.8894 3.39378 18.9703C3.42026 19.5604 3.4527 20.2834 3.3377 21.0258C3.95026 21.0417 4.54466 21.0509 5.14549 21.0031C6.14668 20.9234 6.84106 20.6944 7.26774 20.2677C8.24405 19.2914 8.24405 17.7085 7.26774 16.7322Z" fill="#344054"/>
</svg>
