<svg width="24" height="24" viewBox="0 0 24 24" fill="none" xmlns="http://www.w3.org/2000/svg">
<path fill-rule="evenodd" clip-rule="evenodd" d="M18.6719 1.00073C19.7764 1.00073 20.6719 1.89616 20.6719 3.00073V12.0015C20.6719 14.0725 19.0979 15.776 17.0809 15.9808C16.9464 15.9945 16.8099 16.0015 16.6719 16.0015H15.1812V19.4963C15.1812 21.4281 13.6151 22.9941 11.6833 22.9941C9.75157 22.9941 8.18555 21.4281 8.18555 19.4963V16.0015H6.6875C4.47836 16.0015 2.6875 14.2106 2.6875 12.0015V3.00073C2.6875 1.89616 3.58293 1.00073 4.6875 1.00073H18.6719ZM10.1855 16.0015V19.4963C10.1855 20.3236 10.8561 20.9941 11.6833 20.9941C12.5106 20.9941 13.1812 20.3236 13.1812 19.4963V16.0015H10.1855ZM18.6719 3.00073V9.00391L4.6875 9.00391L4.6875 3.00073L18.6719 3.00073ZM4.6875 12.0015L4.6875 11.0039L18.6719 11.0039V12.0015C18.6719 13.106 17.7764 14.0015 16.6719 14.0015L6.6875 14.0015C5.58293 14.0015 4.6875 13.106 4.6875 12.0015Z" fill="#344054"/>
</svg>
