<svg width="24" height="24" viewBox="0 0 24 24" fill="none" xmlns="http://www.w3.org/2000/svg">
<path fill-rule="evenodd" clip-rule="evenodd" d="M7.56811 1C7.57873 1 7.58936 1.00001 7.60001 1.00001L16.4319 1C16.6843 0.999973 16.9301 0.999943 17.1382 1.01695C17.3668 1.03563 17.6366 1.07969 17.908 1.21799C18.2843 1.40974 18.5903 1.7157 18.782 2.09203C18.9203 2.36345 18.9644 2.63318 18.9831 2.86178C19.0001 3.06994 19 3.31574 19 3.56812L19 10.2413C19 11.0463 19 11.7106 18.9558 12.2518C18.9099 12.8139 18.8113 13.3306 18.564 13.816C18.1805 14.5686 17.5686 15.1805 16.816 15.564C16.4029 15.7745 15.9671 15.8772 15.5 15.9315V19.5C15.5 21.433 13.933 23 12 23C10.067 23 8.50001 21.433 8.50001 19.5V15.9315C8.03287 15.8772 7.5971 15.7745 7.18404 15.564C6.4314 15.1805 5.81947 14.5686 5.43598 13.816C5.18869 13.3306 5.09012 12.8139 5.0442 12.2518C4.99998 11.7106 4.99999 11.0463 5 10.2413L5.00001 3.60001C5.00001 3.58936 5 3.57873 5 3.56811C4.99997 3.31572 4.99994 3.06993 5.01695 2.86178C5.03563 2.63318 5.07969 2.36345 5.21799 2.09202C5.40974 1.7157 5.7157 1.40974 6.09202 1.21799C6.36345 1.07969 6.63318 1.03563 6.86178 1.01695C7.06993 0.999943 7.31572 0.999973 7.56811 1ZM10.5 16V19.5C10.5 20.3284 11.1716 21 12 21C12.8284 21 13.5 20.3284 13.5 19.5V16C13.4154 16 13.3292 16 13.2413 16H10.7587C10.6708 16 10.5846 16 10.5 16ZM7.01145 3.01145C7.01107 3.0156 7.01069 3.02 7.01031 3.02464C7.00078 3.14122 7.00001 3.30348 7.00001 3.60001V9H17V3.60001C17 3.30348 16.9992 3.14122 16.9897 3.02464C16.9893 3.02 16.9889 3.0156 16.9886 3.01145C16.9844 3.01107 16.98 3.01069 16.9754 3.01031C16.8588 3.00078 16.6965 3.00001 16.4 3.00001H7.60001C7.30348 3.00001 7.14122 3.00078 7.02464 3.01031C7.02 3.01069 7.0156 3.01107 7.01145 3.01145ZM16.9982 11H7.00177C7.0049 11.4455 7.01357 11.7954 7.03756 12.089C7.07338 12.5274 7.1383 12.7516 7.21799 12.908C7.40974 13.2843 7.7157 13.5903 8.09202 13.782C8.24842 13.8617 8.47263 13.9266 8.91104 13.9625C9.36113 13.9992 9.94343 14 10.8 14H13.2C14.0566 14 14.6389 13.9992 15.089 13.9625C15.5274 13.9266 15.7516 13.8617 15.908 13.782C16.2843 13.5903 16.5903 13.2843 16.782 12.908C16.8617 12.7516 16.9266 12.5274 16.9625 12.089C16.9864 11.7954 16.9951 11.4455 16.9982 11Z" fill="#344054"/>
</svg>
