<svg width="24" height="24" viewBox="0 0 24 24" fill="none" xmlns="http://www.w3.org/2000/svg">
<path fill-rule="evenodd" clip-rule="evenodd" d="M12.6976 1.28355L12 2L11.3024 1.28355C11.6906 0.905482 12.3094 0.905482 12.6976 1.28355ZM12 3.41165C11.9136 3.49893 11.8206 3.5933 11.7218 3.6941C11.1252 4.30245 10.3187 5.14267 9.47692 6.07194C8.63354 7.00293 7.76333 8.01381 7.03537 8.96474C6.29317 9.93428 5.75174 10.7742 5.50845 11.3752C5.18088 12.1845 5 13.0699 5 14C5 17.866 8.13401 21 12 21C15.866 21 19 17.866 19 14C19 13.0699 18.8191 12.1845 18.4915 11.3752C18.2483 10.7742 17.7068 9.93428 16.9646 8.96474C16.2367 8.01381 15.3665 7.00293 14.5231 6.07194C13.6813 5.14267 12.8748 4.30245 12.2782 3.6941C12.1794 3.5933 12.0864 3.49893 12 3.41165ZM11.3024 1.28355C11.3025 1.28346 11.3024 1.28355 12 2C12.6976 1.28355 12.6975 1.28346 12.6976 1.28355L12.703 1.28877L12.7172 1.30269L12.7714 1.35579C12.8185 1.40214 12.8873 1.47002 12.975 1.55718C13.1504 1.73148 13.4015 1.98303 13.7063 2.29382C14.3153 2.91488 15.1409 3.77494 16.0053 4.72919C16.8682 5.68172 17.7785 6.7376 18.5527 7.74903C19.3127 8.74185 19.9953 9.75988 20.3454 10.6248C20.7679 11.6684 21 12.8083 21 14C21 18.9706 16.9706 23 12 23C7.02944 23 3 18.9706 3 14C3 12.8083 3.23213 11.6684 3.65458 10.6248C4.00468 9.75988 4.68726 8.74185 5.44728 7.74903C6.22155 6.7376 7.13179 5.68172 7.99468 4.72919C8.85913 3.77494 9.68475 2.91488 10.2937 2.29382C10.5985 1.98303 10.8496 1.73148 11.025 1.55718C11.1127 1.47002 11.1815 1.40214 11.2286 1.35579L11.2828 1.30269L11.3024 1.28355Z" fill="#344054"/>
</svg>
