<svg width="24" height="24" viewBox="0 0 24 24" fill="none" xmlns="http://www.w3.org/2000/svg">
<path fill-rule="evenodd" clip-rule="evenodd" d="M16.2928 2.29295C17.7879 0.797855 20.212 0.79786 21.7071 2.29295C23.2022 3.78805 23.2022 6.21207 21.7071 7.70717L17.4142 12.0001L18.2071 12.793C18.5976 13.1835 18.5976 13.8166 18.2071 14.2072C17.8165 14.5977 17.1834 14.5977 16.7928 14.2072L16 13.4143L9.70706 19.7072C8.28627 21.1279 6.35209 21.9382 4.85361 22.3942C4.09201 22.626 3.41427 22.7748 2.92542 22.8659C2.68049 22.9116 2.48162 22.943 2.34173 22.9633C2.27175 22.9735 2.21642 22.9809 2.17735 22.9858L2.13111 22.9915L2.11748 22.9931L2.11311 22.9936L2.11154 22.9938C2.11127 22.9938 2.11038 22.9939 1.99995 22.0001C1.00607 21.8896 1.0061 21.8894 1.00613 21.8891L1.00637 21.8869L1.00687 21.8825L1.00847 21.8689L1.01418 21.8227C1.01915 21.7836 1.02652 21.7283 1.03667 21.6583C1.05696 21.5184 1.08841 21.3195 1.13408 21.0746C1.22522 20.5857 1.37398 19.908 1.60578 19.1464C2.06183 17.6479 2.87206 15.7137 4.29284 14.293L10.5857 8.00006L9.79284 7.20717C9.40232 6.81664 9.40232 6.18348 9.79284 5.79295C10.1834 5.40243 10.8165 5.40243 11.2071 5.79295L12 6.58585L16.2928 2.29295ZM12 9.41427L5.70706 15.7072C4.62784 16.7864 3.93807 18.3522 3.51912 19.7287C3.4067 20.0981 3.31614 20.4459 3.24395 20.7561C3.5541 20.6839 3.90188 20.5933 4.27129 20.4809C5.64781 20.0619 7.21363 19.3722 8.29284 18.293L14.5857 12.0001L12 9.41427ZM16 10.5858L13.4142 8.00006L17.7071 3.70716C18.4211 2.99312 19.5788 2.99312 20.2928 3.70717C21.0069 4.42121 21.0069 5.57891 20.2928 6.29295L16 10.5858ZM1.99995 22.0001L1.00613 21.8891C0.972578 22.191 1.07804 22.4924 1.29284 22.7072C1.50765 22.922 1.80846 23.0275 2.11038 22.9939L1.99995 22.0001Z" fill="#344054"/>
</svg>
