<svg width="24" height="24" viewBox="0 0 24 24" fill="none" xmlns="http://www.w3.org/2000/svg">
<path fill-rule="evenodd" clip-rule="evenodd" d="M18.3631 4.78545C16.4561 3.05199 13.5439 3.05199 11.6369 4.78545C11.5531 4.86154 11.4542 4.96006 11.2071 5.20717L6.17574 10.2385C6.0831 10.3312 6.03704 10.3776 6.005 10.4127C6.00416 10.4136 6.00335 10.4145 6.00258 10.4154C6.00252 10.4165 6.00247 10.4177 6.00241 10.4189C6.00024 10.4664 6 10.5318 6 10.6628V16.5859L15.2929 7.29296C15.6834 6.90244 16.3166 6.90244 16.7071 7.29296C17.0976 7.68349 17.0976 8.31665 16.7071 8.70718L11.4142 14.0001H17.5858L18.7929 12.793C19.04 12.5458 19.1385 12.4469 19.2146 12.3632C20.9481 10.4562 20.9481 7.54397 19.2146 5.63693C19.1385 5.55322 19.04 5.45429 18.7929 5.20718C18.5458 4.96006 18.4469 4.86154 18.3631 4.78545ZM18.7073 15.707L20.2296 14.1847C20.4471 13.9672 20.5822 13.8321 20.6946 13.7085C23.1214 11.0386 23.1214 6.96153 20.6946 4.29167C20.5822 4.16803 20.4472 4.03301 20.2297 3.81554L20.1845 3.7704C19.9671 3.5529 19.832 3.41787 19.7084 3.30549C17.0385 0.878639 12.9615 0.878639 10.2916 3.30549C10.1679 3.41789 10.0329 3.55293 9.81539 3.77047L4.76152 8.82433C4.7498 8.83605 4.73773 8.84806 4.72537 8.86036C4.59072 8.99429 4.42117 9.16293 4.29472 9.36929C4.18506 9.54823 4.10425 9.74332 4.05526 9.94739C3.99876 10.1827 3.9994 10.4219 3.99991 10.6118C3.99995 10.6292 4 10.6462 4 10.6628L4 17.432C3.99997 17.6844 3.99994 17.9301 4.01695 18.1383C4.0264 18.254 4.04237 18.3803 4.07378 18.5121L1.29289 21.293C0.902369 21.6835 0.902369 22.3167 1.29289 22.7072C1.68342 23.0977 2.31658 23.0977 2.70711 22.7072L5.488 19.9263C5.61972 19.9577 5.74602 19.9737 5.86177 19.9831C6.06992 20.0001 6.31571 20.0001 6.56808 20.0001L13.3373 20.0001C13.3538 20.0001 13.3709 20.0001 13.3883 20.0002C13.5782 20.0007 13.8173 20.0013 14.0527 19.9448C14.2568 19.8958 14.4518 19.815 14.6308 19.7054C14.8371 19.5789 15.0058 19.4094 15.1397 19.2747C15.152 19.2623 15.164 19.2503 15.1757 19.2386L18.7073 15.707C18.7074 15.7068 18.7072 15.7071 18.7073 15.707ZM15.5858 16.0001H9.41421L7.41421 18.0001H13.3373C13.4683 18.0001 13.5336 17.9998 13.5811 17.9977C13.5824 17.9976 13.5836 17.9975 13.5847 17.9975C13.5856 17.9967 13.5865 17.9959 13.5874 17.9951C13.6225 17.963 13.6689 17.917 13.7615 17.8243L15.5858 16.0001Z" fill="#344054"/>
</svg>
