<svg width="24" height="24" viewBox="0 0 24 24" fill="none" xmlns="http://www.w3.org/2000/svg">
<path fill-rule="evenodd" clip-rule="evenodd" d="M4.85208 2.139C4.86141 2.146 4.87072 2.15298 4.88001 2.15995L8.74668 5.05995C8.75414 5.06555 8.76168 5.0712 8.76928 5.07689C8.89383 5.17024 9.03464 5.27578 9.14756 5.37735C9.27209 5.48935 9.45549 5.67551 9.56467 5.95624C9.70068 6.30596 9.70068 6.69395 9.56467 7.04366C9.45549 7.32439 9.27209 7.51055 9.14756 7.62255C9.03464 7.72412 8.89383 7.82966 8.76928 7.923C8.76168 7.9287 8.75414 7.93435 8.74668 7.93995L4.88001 10.84C4.87072 10.8469 4.8614 10.8539 4.85208 10.8609C4.67071 10.997 4.48405 11.137 4.31984 11.2383C4.16015 11.3368 3.85699 11.5077 3.46883 11.4996C3.01869 11.4903 2.59655 11.2792 2.31898 10.9247C2.07962 10.619 2.03447 10.2739 2.01743 10.0871C1.99991 9.89497 1.99996 9.66161 2 9.43486C2.00001 9.4232 2.00001 9.41157 2.00001 9.39995V3.59995C2.00001 3.58834 2.00001 3.5767 2 3.56504C1.99996 3.3383 1.99991 3.10493 2.01743 2.9128C2.03447 2.72598 2.07962 2.38089 2.31898 2.0752C2.59655 1.7207 3.01868 1.50963 3.46883 1.50028C3.85699 1.49221 4.16015 1.66314 4.31984 1.7616C4.48405 1.86286 4.67072 2.00292 4.85208 2.139ZM4.00001 3.99995V8.99995L7.33334 6.49995L4.00001 3.99995ZM11 3.99995C11 3.44767 11.4477 2.99995 12 2.99995L21 2.99995C21.5523 2.99995 22 3.44767 22 3.99995C22 4.55224 21.5523 4.99995 21 4.99995L12 4.99995C11.4477 4.99995 11 4.55224 11 3.99995ZM11 9.24995C11 8.69767 11.4477 8.24995 12 8.24995H21C21.5523 8.24995 22 8.69767 22 9.24995C22 9.80224 21.5523 10.25 21 10.25H12C11.4477 10.25 11 9.80224 11 9.24995ZM2.00001 14.75C2.00001 14.1977 2.44772 13.75 3.00001 13.75H21C21.5523 13.75 22 14.1977 22 14.75C22 15.3022 21.5523 15.75 21 15.75H3.00001C2.44772 15.75 2.00001 15.3022 2.00001 14.75ZM2.00001 20C2.00001 19.4477 2.44772 19 3.00001 19H21C21.5523 19 22 19.4477 22 20C22 20.5522 21.5523 21 21 21H3.00001C2.44772 21 2.00001 20.5522 2.00001 20Z" fill="#344054"/>
</svg>
