<svg width="24" height="24" viewBox="0 0 24 24" fill="none" xmlns="http://www.w3.org/2000/svg">
<path fill-rule="evenodd" clip-rule="evenodd" d="M9.79244 1.29289C10.183 0.902369 10.8161 0.902369 11.2067 1.29289L12.2063 2.29258C12.2062 2.29247 12.2064 2.29268 12.2063 2.29258L21.0978 11.1841C21.2763 11.3625 21.4501 11.5363 21.5853 11.6955C21.7337 11.8704 21.8933 12.0922 21.9874 12.382C22.118 12.7837 22.118 13.2163 21.9874 13.618C21.8933 13.9078 21.7337 14.1296 21.5853 14.3045C21.4501 14.4637 21.2763 14.6375 21.0979 14.8159L15.5715 20.3422C15.0024 20.9114 14.5326 21.3812 14.1187 21.7326C13.6887 22.0976 13.2537 22.3933 12.7356 22.5616C11.9322 22.8226 11.0669 22.8226 10.2635 22.5616C9.74543 22.3933 9.31037 22.0976 8.88044 21.7326C8.46648 21.3812 7.9967 20.9114 7.4275 20.3422L4.15734 17.072C3.58813 16.5028 3.11836 16.0331 2.76694 15.6191C2.40195 15.1892 2.10628 14.7541 1.93796 14.2361C1.67693 13.4327 1.67693 12.5673 1.93796 11.7639C2.10628 11.2459 2.40195 10.8108 2.76694 10.3809C3.11836 9.96694 3.58815 9.49717 4.15736 8.92797L10.0853 3L9.79244 2.70711C9.40192 2.31658 9.40192 1.68342 9.79244 1.29289ZM11.4995 4.41421L5.60077 10.313C4.99507 10.9187 4.58388 11.331 4.29162 11.6752C4.1857 11.8 4.1036 11.9067 4.03946 12H19.0853L11.4995 4.41421ZM19.0853 14L14.1865 18.8988C13.5809 19.5045 13.1686 19.9157 12.8243 20.2079C12.489 20.4926 12.2845 20.6052 12.1176 20.6595C11.7159 20.79 11.2832 20.79 10.8815 20.6595C10.7146 20.6052 10.5101 20.4926 10.1748 20.2079C9.83053 19.9157 9.41823 19.5045 8.81254 18.8988L5.60076 15.687C4.99507 15.0813 4.58388 14.669 4.29162 14.3248C4.1857 14.2 4.1036 14.0933 4.03946 14H19.0853Z" fill="#344054"/>
</svg>
