<svg width="24" height="24" viewBox="0 0 24 24" fill="none" xmlns="http://www.w3.org/2000/svg">
<path fill-rule="evenodd" clip-rule="evenodd" d="M7.29259 1.29289C7.68312 0.902369 8.31628 0.902369 8.7068 1.29289L16.598 9.18406C16.7765 9.36251 16.9503 9.53629 17.0855 9.69551C17.2339 9.87036 17.3935 10.0922 17.4876 10.382C17.6181 10.7837 17.6181 11.2163 17.4876 11.618C17.3935 11.9078 17.2339 12.1296 17.0855 12.3045C16.9503 12.4637 16.7765 12.6375 16.598 12.8159L11.9423 17.4716C11.5695 17.8444 11.248 18.166 10.9615 18.4092C10.6591 18.6659 10.3306 18.8935 9.92675 19.0247C9.32422 19.2205 8.67518 19.2205 8.07265 19.0247C7.66877 18.8935 7.34029 18.6659 7.0379 18.4092C6.75139 18.166 6.42984 17.8444 6.0571 17.4716L2.52807 13.9426C2.15531 13.5699 1.83374 13.2483 1.59051 12.9618C1.3338 12.6594 1.10618 12.3309 0.974955 11.9271C0.779182 11.3245 0.779182 10.6755 0.974955 10.0729C1.10618 9.66907 1.3338 9.34059 1.59052 9.0382C1.83374 8.7517 2.15532 8.43014 2.52808 8.0574L7.58548 3L7.29259 2.70711C6.90207 2.31658 6.90207 1.68342 7.29259 1.29289ZM8.9997 4.41421L3.96955 9.44436C3.74657 9.66734 3.56697 9.84727 3.41989 10L14.5855 10L9.29275 4.70727C9.2927 4.70721 9.2928 4.70732 9.29275 4.70727L8.9997 4.41421ZM14.5855 12L10.5553 16.0302C10.1476 16.4378 9.88386 16.7005 9.66714 16.8845C9.45935 17.0609 9.36149 17.1055 9.30871 17.1226C9.10787 17.1879 8.89152 17.1879 8.69068 17.1226C8.63791 17.1055 8.54004 17.0609 8.33225 16.8845C8.11553 16.7005 7.85175 16.4378 7.44406 16.0302L3.96954 12.5556C3.74657 12.3327 3.56697 12.1527 3.41989 12L14.5855 12ZM20.6876 12.2742L19.9997 13L19.3118 12.2742C19.6976 11.9086 20.3018 11.9086 20.6876 12.2742ZM19.9997 14.4517C19.9256 14.5365 19.8497 14.626 19.7741 14.7185C19.5429 15.0014 19.332 15.2923 19.1836 15.5559C19.11 15.6866 19.0602 15.7958 19.0303 15.8819C19.0019 15.9639 18.9999 16.0009 18.9997 16.0009C18.9997 16.0009 18.9997 16.0014 18.9997 16.0009C18.9997 16.5532 19.4474 17 19.9997 17C20.552 17 20.9997 16.5523 20.9997 16C20.9997 16.0071 21 15.9711 20.9691 15.8819C20.9392 15.7958 20.8894 15.6866 20.8158 15.5559C20.6674 15.2923 20.4565 15.0014 20.2253 14.7185C20.1497 14.626 20.0738 14.5365 19.9997 14.4517ZM19.3118 12.2742C19.3119 12.2741 19.3118 12.2742 19.9997 13C20.6876 12.2742 20.6875 12.2741 20.6876 12.2742L20.6907 12.2771L20.6967 12.2829L20.717 12.3024C20.7341 12.3189 20.7581 12.3423 20.7882 12.3719C20.8482 12.4312 20.9325 12.5157 21.033 12.6202C21.2328 12.8281 21.5021 13.1202 21.7741 13.4531C22.0429 13.7821 22.332 14.1722 22.5586 14.5747C22.7701 14.9503 22.9997 15.4608 22.9997 16C22.9997 17.6569 21.6566 19 19.9997 19C18.3428 19 16.9997 17.6569 16.9997 16C16.9997 15.4608 17.2293 14.9503 17.4408 14.5747C17.6674 14.1722 17.9565 13.7821 18.2253 13.4531C18.4973 13.1202 18.7665 12.8281 18.9664 12.6202C19.0669 12.5157 19.1512 12.4312 19.2112 12.3719C19.2413 12.3423 19.2653 12.3189 19.2824 12.3024L19.3027 12.2829L19.3087 12.2771L19.3118 12.2742ZM1.9997 21L13.9997 21C14.552 21 14.9997 21.4477 14.9997 22C14.9997 22.5523 14.552 23 13.9997 23L1.9997 23C1.44741 23 0.999698 22.5523 0.999698 22C0.999698 21.4477 1.44741 21 1.9997 21Z" fill="#344054"/>
</svg>
