<svg width="24" height="24" viewBox="0 0 24 24" fill="none" xmlns="http://www.w3.org/2000/svg">
<path fill-rule="evenodd" clip-rule="evenodd" d="M5 1C5.55228 1 6 1.44772 6 2V4H8C8.55228 4 9 4.44772 9 5C9 5.55228 8.55228 6 8 6H6V8C6 8.55228 5.55228 9 5 9C4.44772 9 4 8.55228 4 8V6H2C1.44772 6 1 5.55228 1 5C1 4.44772 1.44772 4 2 4H4V2C4 1.44772 4.44772 1 5 1ZM16.382 2.5121C16.7837 2.38158 17.2163 2.38158 17.618 2.5121C17.9078 2.60624 18.1296 2.76581 18.3045 2.91424C18.4637 3.0494 18.6375 3.22323 18.8159 3.40171L22.5983 7.18411C22.7768 7.36254 22.9506 7.53631 23.0858 7.69551C23.2342 7.87036 23.3938 8.09225 23.4879 8.38197C23.6184 8.78365 23.6184 9.21635 23.4879 9.61803C23.3938 9.90775 23.2342 10.1296 23.0858 10.3045C22.9506 10.4637 22.7768 10.6375 22.5983 10.8159L21.8159 11.5983C21.6375 11.7768 21.4637 11.9506 21.3045 12.0858C21.1296 12.2342 20.9078 12.3938 20.618 12.4879C20.2877 12.5952 19.9364 12.6143 19.5986 12.5451L18.1999 17.4403C18.194 17.461 18.188 17.4824 18.1818 17.5043C18.1154 17.7399 18.0318 18.0363 17.8642 18.2939C17.7193 18.5169 17.5313 18.7087 17.3113 18.8581C17.0571 19.0308 16.7625 19.1204 16.5283 19.1916C16.5065 19.1982 16.4853 19.2046 16.4646 19.211L4.29409 22.9558C3.94006 23.0647 3.55481 22.969 3.29289 22.7071C3.03097 22.4452 2.93529 22.0599 3.04422 21.7059L6.789 9.5354C6.79535 9.51474 6.80181 9.49348 6.80843 9.4717C6.87962 9.23752 6.96917 8.94291 7.14187 8.68868C7.29131 8.4687 7.48312 8.28072 7.70608 8.13576C7.96375 7.96823 8.26011 7.88464 8.49568 7.8182C8.51759 7.81202 8.53897 7.80599 8.55975 7.80006L13.4549 6.40144C13.3857 6.06364 13.4048 5.71232 13.5121 5.38197C13.6062 5.09225 13.7658 4.87036 13.9142 4.69551C14.0494 4.5363 14.2232 4.36252 14.4017 4.18408L15.1841 3.40172C15.3625 3.22323 15.5363 3.04941 15.6955 2.91424C15.8704 2.76581 16.0922 2.60624 16.382 2.5121ZM14.709 8.12317L9.10919 9.7231C8.94623 9.76966 8.8635 9.79368 8.80446 9.81424C8.80277 9.81482 8.80116 9.81539 8.79962 9.81594C8.79904 9.81746 8.79844 9.81907 8.79782 9.82074C8.77608 9.87936 8.7504 9.96158 8.70055 10.1236L6.13983 18.4459L9.29235 15.2934C9.10495 14.9018 9 14.4631 9 14C9 12.3431 10.3431 11 12 11C13.6569 11 15 12.3431 15 14C15 15.6569 13.6569 17 12 17C11.5368 17 11.0982 16.895 10.7065 16.7076L7.55399 19.8602L15.8764 17.2994C16.0384 17.2496 16.1206 17.2239 16.1793 17.2022C16.1809 17.2016 16.1825 17.201 16.1841 17.2004C16.1846 17.1988 16.1852 17.1972 16.1858 17.1955C16.2063 17.1365 16.2303 17.0538 16.2769 16.8908L17.8768 11.291L14.709 8.12317ZM11.3062 14.7202C11.486 14.8935 11.7306 15 12 15C12.5523 15 13 14.5523 13 14C13 13.4477 12.5523 13 12 13C11.4477 13 11 13.4477 11 14C11 14.2694 11.1065 14.5139 11.2798 14.6937C11.2843 14.6981 11.2887 14.7024 11.2931 14.7068C11.2975 14.7113 11.3019 14.7157 11.3062 14.7202ZM16.9899 4.43892C16.9007 4.51462 16.7854 4.6288 16.5757 4.83848L15.8385 5.57574C15.6288 5.78541 15.5146 5.90069 15.4389 5.98987C15.4359 5.99342 15.4331 5.99679 15.4304 6C15.4331 6.00321 15.4359 6.00658 15.4389 6.01013C15.5146 6.09931 15.6288 6.21459 15.8385 6.42426L19.5757 10.1615C19.7854 10.3712 19.9007 10.4854 19.9899 10.5611C19.9934 10.5641 19.9968 10.5669 20 10.5696C20.0032 10.5669 20.0066 10.5641 20.0101 10.5611C20.0993 10.4854 20.2146 10.3712 20.4243 10.1615L21.1615 9.42426C21.3712 9.21459 21.4854 9.09931 21.5611 9.01013C21.5641 9.00658 21.5669 9.0032 21.5696 8.99999C21.5669 8.99679 21.5641 8.99341 21.5611 8.98987C21.4854 8.90069 21.3712 8.78541 21.1615 8.57574L17.4243 4.83848C17.2146 4.6288 17.0993 4.51462 17.0101 4.43892C17.0066 4.4359 17.0032 4.43307 17 4.4304C16.9968 4.43307 16.9934 4.4359 16.9899 4.43892Z" fill="#344054"/>
</svg>
