<svg width="24" height="24" viewBox="0 0 24 24" fill="none" xmlns="http://www.w3.org/2000/svg">
<path fill-rule="evenodd" clip-rule="evenodd" d="M16.382 2.51219C16.7837 2.38168 17.2163 2.38168 17.618 2.51219C17.9078 2.60633 18.1296 2.7659 18.3045 2.91433C18.4637 3.0495 18.6375 3.22332 18.8159 3.4018L22.5983 7.1842C22.7768 7.36263 22.9506 7.5364 23.0858 7.69561C23.2342 7.87045 23.3938 8.09234 23.4879 8.38206C23.6184 8.78375 23.6184 9.21644 23.4879 9.61813C23.3938 9.90784 23.2342 10.1297 23.0858 10.3046C22.9506 10.4638 22.7768 10.6376 22.5983 10.816L21.8159 11.5984C21.6375 11.7769 21.4637 11.9507 21.3045 12.0859C21.1296 12.2343 20.9078 12.3939 20.618 12.488C20.2877 12.5953 19.9364 12.6144 19.5986 12.5452L18.1999 17.4403C18.194 17.4611 18.188 17.4825 18.1818 17.5044C18.1154 17.74 18.0318 18.0363 17.8642 18.294C17.7193 18.517 17.5313 18.7088 17.3113 18.8582M17.8768 11.2911L16.2769 16.8909C16.2303 17.0539 16.2063 17.1366 16.1858 17.1956C16.1852 17.1973 16.1846 17.1989 16.1841 17.2005C16.1825 17.201 16.1809 17.2016 16.1793 17.2023C16.1206 17.224 16.0384 17.2497 15.8764 17.2995L7.55399 19.8603L10.7065 16.7077C11.0982 16.8951 11.5368 17.0001 12 17.0001C13.6569 17.0001 15 15.6569 15 14.0001C15 12.3432 13.6569 11.0001 12 11.0001C10.3431 11.0001 9 12.3432 9 14.0001C9 14.4632 9.10495 14.9018 9.29235 15.2935L6.13983 18.446L8.70055 10.1237C8.7504 9.96167 8.77608 9.87945 8.79782 9.82083C8.79844 9.81916 8.79904 9.81756 8.79962 9.81603C8.80116 9.81548 8.80277 9.81492 8.80446 9.81433C8.8635 9.79378 8.94623 9.76976 9.10919 9.7232L14.709 8.12326L17.8768 11.2911ZM13.4549 6.40153C13.3857 6.06373 13.4048 5.71241 13.5121 5.38206C13.6062 5.09234 13.7658 4.87045 13.9142 4.6956C14.0494 4.53639 14.2232 4.36261 14.4017 4.18417L15.1841 3.40181C15.3625 3.22332 15.5363 3.0495 15.6955 2.91433C15.8704 2.7659 16.0922 2.60633 16.382 2.51219M13.4549 6.40153L8.55975 7.80015C8.53897 7.80609 8.51758 7.81212 8.49568 7.8183C8.2601 7.88474 7.96375 7.96832 7.70608 8.13585C7.48312 8.28081 7.29131 8.46879 7.14187 8.68877C6.96917 8.943 6.87962 9.23761 6.80843 9.4718C6.80181 9.49358 6.79535 9.51483 6.789 9.53549L3.04422 21.706C2.93529 22.06 3.03097 22.4453 3.29289 22.7072C3.55481 22.9691 3.94006 23.0648 4.29409 22.9559L16.4646 19.2111C16.4853 19.2047 16.5065 19.1983 16.5283 19.1917C16.7625 19.1205 17.0571 19.0309 17.3113 18.8582M11.3062 14.7203C11.3019 14.7158 11.2975 14.7113 11.2931 14.7069C11.2887 14.7025 11.2843 14.6982 11.2798 14.6938C11.1065 14.514 11 14.2695 11 14.0001C11 13.4478 11.4477 13.0001 12 13.0001C12.5523 13.0001 13 13.4478 13 14.0001C13 14.5524 12.5523 15.0001 12 15.0001C11.7306 15.0001 11.486 14.8935 11.3062 14.7203ZM17 4.4305C17.0032 4.43316 17.0066 4.436 17.0101 4.43901C17.0993 4.51471 17.2146 4.62889 17.4243 4.83857L21.1615 8.57583C21.3712 8.7855 21.4854 8.90078 21.5611 8.98996C21.5641 8.99351 21.5669 8.99688 21.5696 9.00009C21.5669 9.00329 21.5641 9.00668 21.5611 9.01023C21.4854 9.0994 21.3712 9.21468 21.1615 9.42436L20.4243 10.1616C20.2146 10.3713 20.0993 10.4855 20.0101 10.5612C20.0066 10.5642 20.0032 10.567 20 10.5697C19.9968 10.567 19.9934 10.5642 19.9899 10.5612C19.9007 10.4855 19.7854 10.3713 19.5757 10.1616L15.8385 6.42436C15.6288 6.21468 15.5146 6.0994 15.4389 6.01023C15.4359 6.00668 15.4331 6.0033 15.4304 6.00009C15.4331 5.99689 15.4359 5.99351 15.4389 5.98996C15.5146 5.90079 15.6288 5.78551 15.8385 5.57583L16.5757 4.83857C16.7854 4.62889 16.9007 4.51471 16.9899 4.43901C16.9934 4.436 16.9968 4.43316 17 4.4305ZM1 5.00009C1 4.44781 1.44772 4.00009 2 4.00009H8C8.55228 4.00009 9 4.44781 9 5.00009C9 5.55238 8.55228 6.00009 8 6.00009H2C1.44772 6.00009 1 5.55238 1 5.00009Z" fill="#344054"/>
</svg>
