<svg width="24" height="24" viewBox="0 0 24 24" fill="none" xmlns="http://www.w3.org/2000/svg">
<path fill-rule="evenodd" clip-rule="evenodd" d="M20 3.99995L16.6667 6.49995L20 8.99995V3.99995ZM19.6802 1.7616C19.8399 1.66314 20.143 1.49221 20.5312 1.50028C20.9813 1.50963 21.4035 1.7207 21.681 2.0752C21.9204 2.38089 21.9655 2.72598 21.9826 2.9128C22.0001 3.10493 22.0001 3.33831 22 3.56506V9.43484C22.0001 9.6616 22.0001 9.89497 21.9826 10.0871C21.9655 10.2739 21.9204 10.619 21.681 10.9247C21.4035 11.2792 20.9813 11.4903 20.5312 11.4996C20.143 11.5077 19.8399 11.3368 19.6802 11.2383C19.516 11.1371 19.3293 10.997 19.148 10.8609C19.1386 10.8539 19.1293 10.8469 19.12 10.84L15.2533 7.93995C15.2459 7.93435 15.2383 7.92871 15.2307 7.92301C15.1062 7.82966 14.9654 7.72412 14.8524 7.62255C14.7279 7.51055 14.5445 7.32439 14.4353 7.04366C14.2993 6.69395 14.2993 6.30596 14.4353 5.95624C14.5445 5.67551 14.7279 5.48935 14.8524 5.37735C14.9654 5.27578 15.1062 5.17024 15.2307 5.07689C15.2383 5.0712 15.2459 5.06555 15.2533 5.05995L19.1479 2.13899C19.3293 2.00291 19.516 1.86285 19.6802 1.7616ZM2 3.99995C2 3.44767 2.44772 2.99995 3 2.99995L12 2.99995C12.5523 2.99995 13 3.44767 13 3.99995C13 4.55224 12.5523 4.99995 12 4.99995L3 4.99995C2.44772 4.99995 2 4.55224 2 3.99995ZM2 9.24995C2 8.69767 2.44772 8.24995 3 8.24995H12C12.5523 8.24995 13 8.69767 13 9.24995C13 9.80224 12.5523 10.25 12 10.25H3C2.44772 10.25 2 9.80224 2 9.24995ZM2 14.75C2 14.1977 2.44772 13.75 3 13.75H21C21.5523 13.75 22 14.1977 22 14.75C22 15.3022 21.5523 15.75 21 15.75H3C2.44772 15.75 2 15.3022 2 14.75ZM2 20C2 19.4477 2.44772 19 3 19H21C21.5523 19 22 19.4477 22 20C22 20.5522 21.5523 21 21 21H3C2.44772 21 2 20.5522 2 20Z" fill="#344054"/>
</svg>
