<svg width="24" height="24" viewBox="0 0 24 24" fill="none" xmlns="http://www.w3.org/2000/svg">
<path fill-rule="evenodd" clip-rule="evenodd" d="M5.4162 0.999921C5.44388 0.999943 5.47184 0.999965 5.50009 0.999965H16.5001C16.5283 0.999965 16.5563 0.999943 16.584 0.999921C16.9647 0.999618 17.2925 0.999357 17.5854 1.05761C18.7754 1.29433 19.7057 2.22462 19.9424 3.41469C19.9487 3.44625 19.9543 3.4782 19.9593 3.51059C20.0298 3.51337 20.0975 3.51688 20.1625 3.52131C20.4923 3.54382 20.8222 3.59332 21.1481 3.72833C21.8832 4.03281 22.4672 4.61683 22.7717 5.35192C22.9067 5.67784 22.9562 6.00775 22.9787 6.33758C23.0001 6.65084 23.0001 7.02933 23.0001 7.46797V7.83853C23.0001 8.36567 23.0001 8.82043 22.9695 9.19499C22.9372 9.59034 22.8659 9.98356 22.6731 10.3619C22.3855 10.9264 21.9265 11.3854 21.3621 11.673C20.9837 11.8658 20.5905 11.9371 20.1951 11.9694C19.8205 12 19.3658 12 18.8386 12H15.2001C14.6235 12 14.2513 12.0007 13.9679 12.0239C13.6963 12.0461 13.5955 12.0838 13.5461 12.109C13.3579 12.2048 13.205 12.3578 13.1091 12.546C13.0839 12.5954 13.0462 12.6961 13.024 12.9678C13.0035 13.2184 13.0006 13.5386 13.0002 14.0082C13.0477 14.0104 13.0939 14.0133 13.1383 14.0169C13.3669 14.0356 13.6366 14.0797 13.9081 14.218C14.2844 14.4097 14.5904 14.7157 14.7821 15.092C14.9204 15.3634 14.9645 15.6331 14.9831 15.8617C15.0001 16.0699 15.0001 16.3157 15.0001 16.5681V20.4318C15.0001 20.6842 15.0001 20.93 14.9831 21.1382C14.9645 21.3668 14.9204 21.6365 14.7821 21.9079C14.5904 22.2843 14.2844 22.5902 13.9081 22.782C13.6366 22.9203 13.3669 22.9643 13.1383 22.983C12.9302 23 12.6844 23 12.432 23H11.5682C11.3158 23 11.07 23 10.8619 22.983C10.6333 22.9643 10.3635 22.9203 10.0921 22.782C9.71578 22.5902 9.40982 22.2843 9.21807 21.9079C9.07978 21.6365 9.03571 21.3668 9.01703 21.1382C9.00003 20.93 9.00005 20.6842 9.00008 20.4319V16.5681C9.00005 16.3157 9.00003 16.0699 9.01703 15.8617C9.03571 15.6331 9.07978 15.3634 9.21807 15.092C9.40982 14.7157 9.71578 14.4097 10.0921 14.218C10.3635 14.0797 10.6333 14.0356 10.8619 14.0169C10.9063 14.0133 10.9525 14.0104 11.0001 14.0082C11.0004 13.5457 11.0031 13.1427 11.0307 12.8049C11.063 12.4096 11.1343 12.0164 11.3271 11.638C11.6147 11.0735 12.0736 10.6146 12.6381 10.3269C13.0165 10.1342 13.4097 10.0628 13.8051 10.0305C14.1796 9.99993 14.6344 9.99995 15.1615 9.99996L18.8001 9.99997C19.3766 9.99997 19.7489 9.99919 20.0323 9.97604C20.3039 9.95384 20.4046 9.91616 20.4541 9.89097C20.6422 9.7951 20.7952 9.64212 20.8911 9.45396C20.9163 9.40451 20.954 9.30379 20.9762 9.03213C20.9993 8.74879 21.0001 8.37652 21.0001 7.79996V7.49997C21.0001 7.02034 20.9995 6.71071 20.9834 6.47372C20.9678 6.24573 20.9412 6.1589 20.924 6.11728C20.8225 5.87226 20.6278 5.67758 20.3828 5.57609C20.3412 5.55885 20.2543 5.53223 20.0263 5.51668C20.0035 5.51512 19.9799 5.5137 19.9556 5.51242C19.9516 5.53693 19.9472 5.5612 19.9424 5.58524C19.7057 6.77531 18.7754 7.7056 17.5854 7.94232C17.2925 8.00057 16.9647 8.00031 16.584 8.00001C16.5563 7.99999 16.5283 7.99997 16.5001 7.99997H5.50009C5.47184 7.99997 5.44388 7.99999 5.4162 8.00001C5.03551 8.00031 4.70767 8.00057 4.41482 7.94232C3.22474 7.7056 2.29445 6.77531 2.05773 5.58524C1.99948 5.29238 1.99974 4.96455 2.00004 4.58385C2.00007 4.55617 2.00009 4.52821 2.00009 4.49997C2.00009 4.47172 2.00007 4.44376 2.00004 4.41608C1.99974 4.03538 1.99948 3.70755 2.05773 3.41469C2.29445 2.22462 3.22474 1.29433 4.41482 1.05761C4.70767 0.999357 5.03551 0.999618 5.4162 0.999921ZM11.6001 16C11.3036 16 11.1413 16.0007 11.0247 16.0103C11.0201 16.0106 11.0157 16.011 11.0115 16.0114C11.0112 16.0156 11.0108 16.02 11.0104 16.0246C11.0009 16.1412 11.0001 16.3034 11.0001 16.6V20.4C11.0001 20.6965 11.0009 20.8587 11.0104 20.9753C11.0108 20.98 11.0112 20.9844 11.0115 20.9885C11.0157 20.9889 11.0201 20.9893 11.0247 20.9897C11.1413 20.9992 11.3036 21 11.6001 21H12.4001C12.6966 21 12.8589 20.9992 12.9755 20.9897C12.9801 20.9893 12.9845 20.9889 12.9886 20.9885C12.989 20.9844 12.9894 20.98 12.9898 20.9753C12.9993 20.8587 13.0001 20.6965 13.0001 20.4V16.6C13.0001 16.3034 12.9993 16.1412 12.9898 16.0246C12.9894 16.02 12.989 16.0156 12.9886 16.0114C12.9845 16.011 12.9801 16.0106 12.9755 16.0103C12.8589 16.0007 12.6966 16 12.4001 16H11.6001ZM5.50009 2.99997C4.9875 2.99997 4.87725 3.00481 4.805 3.01918C4.40831 3.09809 4.09821 3.40818 4.0193 3.80487C4.00493 3.87712 4.00009 3.98738 4.00009 4.49997C4.00009 5.01255 4.00493 5.12281 4.0193 5.19506C4.09821 5.59175 4.40831 5.90184 4.805 5.98075C4.87725 5.99512 4.9875 5.99997 5.50009 5.99997H16.5001C17.0127 5.99997 17.1229 5.99512 17.1952 5.98075C17.5919 5.90184 17.902 5.59175 17.9809 5.19506C17.9952 5.12281 18.0001 5.01255 18.0001 4.49997C18.0001 3.98738 17.9952 3.87712 17.9809 3.80487C17.902 3.40818 17.5919 3.09809 17.1952 3.01918C17.1229 3.00481 17.0127 2.99997 16.5001 2.99997H5.50009Z" fill="#344054"/>
</svg>
