<svg width="24" height="24" viewBox="0 0 24 24" fill="none" xmlns="http://www.w3.org/2000/svg">
<path fill-rule="evenodd" clip-rule="evenodd" d="M15.1615 2L16.2413 2C17.0463 1.99999 17.7106 1.99998 18.2518 2.0442C18.8139 2.09012 19.3306 2.18868 19.816 2.43598C20.5686 2.81947 21.1805 3.43139 21.564 4.18404C21.8113 4.66938 21.9099 5.18608 21.9558 5.74818C22 6.28937 22 6.95372 22 7.75868V8.83857C22 8.86126 22 8.88382 22 8.90624V16.2413C22 17.0463 22 17.7106 21.9558 18.2518C21.9099 18.8139 21.8113 19.3306 21.564 19.816C21.1805 20.5686 20.5686 21.1805 19.816 21.564C19.3306 21.8113 18.8139 21.9099 18.2518 21.9558C17.7106 22 17.0463 22 16.2413 22H7.75868C6.95372 22 6.28936 22 5.74817 21.9558C5.18608 21.9099 4.66937 21.8113 4.18404 21.564C3.43139 21.1805 2.81947 20.5686 2.43598 19.816C2.18868 19.3306 2.09012 18.8139 2.04419 18.2518C1.99998 17.7106 1.99999 17.0463 2 16.2413V7.7587C1.99999 6.95373 1.99998 6.28937 2.04419 5.74818C2.09012 5.18608 2.18868 4.66938 2.43597 4.18404C2.81947 3.43139 3.43139 2.81947 4.18404 2.43598C4.66937 2.18868 5.18608 2.09012 5.74817 2.0442C6.28937 1.99998 6.95373 1.99999 7.7587 2L15.0848 2C15.1102 2 15.1357 2 15.1615 2ZM11.1783 4H7.8C6.94342 4 6.36113 4.00078 5.91104 4.03755C5.47262 4.07337 5.24842 4.1383 5.09202 4.21799C4.7157 4.40974 4.40973 4.7157 4.21799 5.09202C4.1383 5.24842 4.07337 5.47262 4.03755 5.91104C4.00078 6.36113 4 6.94342 4 7.8V16.2C4 17.0566 4.00078 17.6389 4.03755 18.089C4.07337 18.5274 4.1383 18.7516 4.21799 18.908C4.40973 19.2843 4.7157 19.5903 5.09202 19.782C5.24842 19.8617 5.47262 19.9266 5.91104 19.9625C6.36113 19.9992 6.94342 20 7.8 20H16.2C17.0566 20 17.6389 19.9992 18.089 19.9625C18.5274 19.9266 18.7516 19.8617 18.908 19.782C19.2843 19.5903 19.5903 19.2843 19.782 18.908C19.8617 18.7516 19.9266 18.5274 19.9624 18.089C19.9992 17.6389 20 17.0566 20 16.2V12.8218C19.7354 12.9069 19.4657 12.9473 19.195 12.9694C18.8205 13 18.3657 13 17.8385 13H15.1615C14.6343 13 14.1796 13 13.805 12.9694C13.4337 12.9391 13.0643 12.8744 12.7073 12.7069L9.41421 16H12C12.5523 16 13 16.4477 13 17C13 17.5523 12.5523 18 12 18H7C6.73478 18 6.48043 17.8946 6.29289 17.7071C6.10536 17.5196 6 17.2652 6 17L6 12C6 11.4477 6.44772 11 7 11C7.55229 11 8 11.4477 8 12L8 14.5858L11.2931 11.2927C11.1256 10.9357 11.0609 10.5663 11.0306 10.195C11 9.82046 11 9.36569 11 8.83855V6.16146C11 5.63431 11 5.17955 11.0306 4.80497C11.0527 4.53429 11.0931 4.26461 11.1783 4ZM20 8.8V7.8C20 6.94342 19.9992 6.36113 19.9624 5.91104C19.9266 5.47262 19.8617 5.24842 19.782 5.09202C19.5903 4.7157 19.2843 4.40974 18.908 4.21799C18.7516 4.1383 18.5274 4.07337 18.089 4.03755C17.6389 4.00078 17.0566 4 16.2 4H15.2C14.6234 4 14.2512 4.00078 13.9678 4.02393C13.6962 4.04612 13.5955 4.0838 13.546 4.109C13.3578 4.20487 13.2049 4.35785 13.109 4.54601C13.0838 4.59546 13.0461 4.69617 13.0239 4.96784C13.0008 5.25117 13 5.62345 13 6.2V8.8C13 9.37655 13.0008 9.74883 13.0239 10.0322C13.0461 10.3038 13.0838 10.4045 13.109 10.454C13.2049 10.6422 13.3578 10.7951 13.546 10.891C13.5955 10.9162 13.6962 10.9539 13.9678 10.9761C14.2512 10.9992 14.6234 11 15.2 11H17.8C18.3766 11 18.7488 10.9992 19.0322 10.9761C19.3038 10.9539 19.4045 10.9162 19.454 10.891C19.6422 10.7951 19.7951 10.6422 19.891 10.454C19.9162 10.4045 19.9539 10.3038 19.9761 10.0322C19.9992 9.74883 20 9.37656 20 8.8Z" fill="#344054"/>
</svg>
