<svg width="24" height="24" viewBox="0 0 24 24" fill="none" xmlns="http://www.w3.org/2000/svg">
<path fill-rule="evenodd" clip-rule="evenodd" d="M6 4C4.89543 4 4 4.89543 4 6C4 7.10457 4.89543 8 6 8C7.10457 8 8 7.10457 8 6C8 4.89543 7.10457 4 6 4ZM2 6C2 3.79086 3.79086 2 6 2C8.20914 2 10 3.79086 10 6C10 6.74181 9.79807 7.43645 9.44618 8.03197L12 10.5858L19.2929 3.29289C19.6834 2.90237 20.3166 2.90237 20.7071 3.29289C21.0976 3.68342 21.0976 4.31658 20.7071 4.70711L13.4142 12L20.7071 19.2929C21.0976 19.6834 21.0976 20.3166 20.7071 20.7071C20.3166 21.0976 19.6834 21.0976 19.2929 20.7071L12 13.4142L9.44618 15.968C9.79807 16.5635 10 17.2582 10 18C10 20.2091 8.20914 22 6 22C3.79086 22 2 20.2091 2 18C2 15.7909 3.79086 14 6 14C6.74181 14 7.43645 14.2019 8.03197 14.5538L10.5858 12L8.03197 9.44618C7.43645 9.79807 6.74181 10 6 10C3.79086 10 2 8.20914 2 6ZM16.5 12C16.5 11.4477 16.9477 11 17.5 11H17.51C18.0623 11 18.51 11.4477 18.51 12C18.51 12.5523 18.0623 13 17.51 13H17.5C16.9477 13 16.5 12.5523 16.5 12ZM21 12C21 11.4477 21.4477 11 22 11H22.01C22.5623 11 23.01 11.4477 23.01 12C23.01 12.5523 22.5623 13 22.01 13H22C21.4477 13 21 12.5523 21 12ZM6 16C4.89543 16 4 16.8954 4 18C4 19.1046 4.89543 20 6 20C7.10457 20 8 19.1046 8 18C8 16.8954 7.10457 16 6 16Z" fill="#344054"/>
</svg>
