<svg width="24" height="24" viewBox="0 0 24 24" fill="none" xmlns="http://www.w3.org/2000/svg">
<path fill-rule="evenodd" clip-rule="evenodd" d="M6 4C4.89543 4 4 4.89543 4 6C4 6.74017 4.40208 7.38643 4.99972 7.73228L5.19056 7.82943C5.43803 7.93908 5.7119 8 6 8C7.10457 8 8 7.10457 8 6C8 4.89543 7.10457 4 6 4ZM8.18256 9.35263C9.27677 8.63885 10 7.40388 10 6C10 3.79086 8.20914 2 6 2C3.79086 2 2 3.79086 2 6C2 7.46123 2.78353 8.73947 3.95337 9.43748C3.98251 9.45644 4.01292 9.47408 4.04455 9.49026C4.13868 9.54311 4.23517 9.59227 4.33381 9.63753L8.97439 12L4.33382 14.3625C4.23517 14.4077 4.13868 14.4569 4.04454 14.5097C4.01291 14.5259 3.98251 14.5436 3.95338 14.5625C2.78353 15.2605 2 16.5388 2 18C2 20.2091 3.79086 22 6 22C8.20914 22 10 20.2091 10 18C10 16.5961 9.27677 15.3612 8.18256 14.6474L11.1786 13.1221L20.5463 17.8912C21.0385 18.1417 21.6406 17.9459 21.8912 17.4537C22.1417 16.9615 21.9459 16.3594 21.4537 16.1088L13.3828 12L21.4537 7.89116C21.9459 7.6406 22.1417 7.03849 21.8912 6.54632C21.6406 6.05414 21.0385 5.85827 20.5463 6.10884L11.1786 10.8779L8.18256 9.35263ZM4.99973 16.2677L5.19055 16.1706C5.43802 16.0609 5.7119 16 6 16C7.10457 16 8 16.8954 8 18C8 19.1046 7.10457 20 6 20C4.89543 20 4 19.1046 4 18C4 17.2598 4.40208 16.6136 4.99973 16.2677ZM16.5 12C16.5 11.4477 16.9477 11 17.5 11H17.51C18.0623 11 18.51 11.4477 18.51 12C18.51 12.5523 18.0623 13 17.51 13H17.5C16.9477 13 16.5 12.5523 16.5 12ZM21 12C21 11.4477 21.4477 11 22 11H22.01C22.5623 11 23.01 11.4477 23.01 12C23.01 12.5523 22.5623 13 22.01 13H22C21.4477 13 21 12.5523 21 12Z" fill="#344054"/>
</svg>
