<svg width="24" height="24" viewBox="0 0 24 24" fill="none" xmlns="http://www.w3.org/2000/svg">
<path fill-rule="evenodd" clip-rule="evenodd" d="M5 8C5 5.23858 7.23858 3 10 3H14C16.7614 3 19 5.23858 19 8C19 8.55228 18.5523 9 18 9C17.4477 9 17 8.55228 17 8C17 6.34315 15.6569 5 14 5H13.5C11.8431 5 10.5 6.34315 10.5 8C10.5 8.55228 10.0523 9 9.5 9C8.94772 9 8.5 8.55228 8.5 8C8.5 6.89571 8.85799 5.87504 9.46424 5.0477C8.06302 5.30031 7 6.52601 7 8C7 8.55228 6.55228 9 6 9C5.44772 9 5 8.55228 5 8ZM2 12C2 11.4477 2.44772 11 3 11H21C21.5523 11 22 11.4477 22 12C22 12.5523 21.5523 13 21 13H18.0004C18.6281 13.8357 19 14.8744 19 16C19 18.7614 16.7614 21 14 21H10C7.23858 21 5 18.7614 5 16C5 15.4477 5.44772 15 6 15C6.55228 15 7 15.4477 7 16C7 17.6569 8.34315 19 10 19H10.5C12.1569 19 13.5 17.6569 13.5 16C13.5 14.3431 12.1569 13 10.5 13H3C2.44772 13 2 12.5523 2 12ZM14.5358 13.0477C15.142 13.875 15.5 14.8957 15.5 16C15.5 17.1043 15.142 18.125 14.5358 18.9523C15.937 18.6997 17 17.474 17 16C17 14.526 15.937 13.3003 14.5358 13.0477Z" fill="#344054"/>
</svg>
