<svg width="24" height="24" viewBox="0 0 24 24" fill="none" xmlns="http://www.w3.org/2000/svg">
<path fill-rule="evenodd" clip-rule="evenodd" d="M3.41815 18.3031C5.39111 15.692 8.49888 14 12 14C15.5011 14 18.6089 15.692 20.5819 18.3031C20.5908 18.3149 20.5997 18.3268 20.6087 18.3386C20.7784 18.563 20.9603 18.8035 21.0902 19.0356C21.2476 19.3165 21.3642 19.6414 21.357 20.0366C21.3512 20.3542 21.2549 20.6516 21.138 20.8864C21.0212 21.1212 20.8419 21.3772 20.592 21.5734C20.2587 21.835 19.8958 21.9276 19.5734 21.9662C19.2905 22.0001 18.9553 22.0001 18.6183 22C18.6031 22 18.588 22 18.5728 22H5.42724C5.41205 22 5.39686 22 5.38168 22C5.04468 22.0001 4.70949 22.0001 4.42665 21.9662C4.10426 21.9276 3.74135 21.835 3.40803 21.5734C3.15808 21.3772 2.97886 21.1212 2.86198 20.8864C2.7451 20.6516 2.64886 20.3542 2.64305 20.0366C2.63582 19.6414 2.75243 19.3165 2.90977 19.0356C3.03975 18.8035 3.22165 18.563 3.39128 18.3386C3.40028 18.3268 3.40923 18.3149 3.41815 18.3031Z" fill="#344054"/>
<path fill-rule="evenodd" clip-rule="evenodd" d="M6.50001 7.5C6.50001 4.46243 8.96244 2 12 2C15.0376 2 17.5 4.46243 17.5 7.5C17.5 10.5376 15.0376 13 12 13C8.96244 13 6.50001 10.5376 6.50001 7.5Z" fill="#344054"/>
</svg>
