<svg width="24" height="24" viewBox="0 0 24 24" fill="none" xmlns="http://www.w3.org/2000/svg">
<path fill-rule="evenodd" clip-rule="evenodd" d="M22.7071 3.29289C23.0976 3.68342 23.0976 4.31658 22.7071 4.70711L18.7071 8.70711C18.3166 9.09763 17.6834 9.09763 17.2929 8.70711L15.2929 6.70711C14.9024 6.31658 14.9024 5.68342 15.2929 5.29289C15.6834 4.90237 16.3166 4.90237 16.7071 5.29289L18 6.58579L21.2929 3.29289C21.6834 2.90237 22.3166 2.90237 22.7071 3.29289Z" fill="#344054"/>
<path fill-rule="evenodd" clip-rule="evenodd" d="M6.7587 14H11.2413C12.0463 14 12.7106 14 13.2518 14.0442C13.8139 14.0901 14.3306 14.1887 14.816 14.436C15.5686 14.8195 16.1805 15.4314 16.564 16.184C16.8113 16.6694 16.9099 17.1861 16.9558 17.7482C17 18.2894 17 18.9537 17 19.7587C17 20.0414 17.0129 20.3278 16.9899 20.6098C16.978 20.755 16.9476 20.963 16.8365 21.181C16.6927 21.4632 16.4632 21.6927 16.181 21.8365C15.963 21.9476 15.7551 21.978 15.6098 21.9899C15.4845 22.0001 15.3423 22.0001 15.2231 22C11.0744 21.9985 6.92562 21.9985 2.77686 22C2.65775 22.0001 2.51549 22.0001 2.39017 21.9899C2.24495 21.978 2.03696 21.9476 1.81902 21.8365C1.53677 21.6927 1.3073 21.4632 1.16349 21.181C1.05244 20.963 1.022 20.755 1.01014 20.6098C0.987096 20.3278 1 20.0413 1 19.7587C0.999989 18.9537 0.999979 18.2894 1.0442 17.7482C1.09012 17.1861 1.18869 16.6694 1.43598 16.184C1.81947 15.4314 2.43139 14.8195 3.18404 14.436C3.66938 14.1887 4.18608 14.0901 4.74818 14.0442C5.28937 14 5.95373 14 6.7587 14Z" fill="#344054"/>
<path fill-rule="evenodd" clip-rule="evenodd" d="M4.5 7.5C4.5 5.01472 6.51472 3 9 3C11.4853 3 13.5 5.01472 13.5 7.5C13.5 9.98528 11.4853 12 9 12C6.51472 12 4.5 9.98528 4.5 7.5Z" fill="#344054"/>
</svg>
