<svg width="24" height="24" viewBox="0 0 24 24" fill="none" xmlns="http://www.w3.org/2000/svg">
<path fill-rule="evenodd" clip-rule="evenodd" d="M2.27239 19.314C4.77825 16.6562 8.20522 15 12 15C15.7948 15 19.2217 16.6562 21.7276 19.314C22.0014 19.6044 22.0763 20.0298 21.9181 20.3962C21.76 20.7627 21.3991 21 21 21H2.99999C2.60088 21 2.23998 20.7627 2.08184 20.3962C1.9237 20.0298 1.9986 19.6044 2.27239 19.314Z" fill="#344054"/>
<path fill-rule="evenodd" clip-rule="evenodd" d="M6.49999 7.5C6.49999 4.46243 8.96243 2 12 2C15.0376 2 17.5 4.46243 17.5 7.5C17.5 10.5376 15.0376 13 12 13C8.96243 13 6.49999 10.5376 6.49999 7.5Z" fill="#344054"/>
</svg>
