<svg width="24" height="24" viewBox="0 0 24 24" fill="none" xmlns="http://www.w3.org/2000/svg">
<path fill-rule="evenodd" clip-rule="evenodd" d="M22.7071 15.2929C23.0976 15.6834 23.0976 16.3166 22.7071 16.7071L18.7071 20.7071C18.3166 21.0976 17.6834 21.0976 17.2929 20.7071L15.2929 18.7071C14.9024 18.3166 14.9024 17.6834 15.2929 17.2929C15.6834 16.9024 16.3166 16.9024 16.7071 17.2929L18 18.5858L21.2929 15.2929C21.6834 14.9024 22.3166 14.9024 22.7071 15.2929Z" fill="#344054"/>
<path fill-rule="evenodd" clip-rule="evenodd" d="M6.786 14.5C8.26504 14.5003 9.74409 14.5006 11.2231 14.5C11.3422 14.4999 11.4845 14.4999 11.6098 14.5101C11.755 14.522 11.963 14.5524 12.181 14.6635C12.4632 14.8073 12.6927 15.0368 12.8365 15.319C12.9475 15.537 12.978 15.745 12.9899 15.8902C13.0001 16.0155 13 16.1578 13 16.2769C12.9995 17.5923 12.9995 18.9077 13 20.2231C13 20.3423 13.0001 20.4845 12.9899 20.6098C12.978 20.7551 12.9475 20.963 12.8365 21.181C12.6927 21.4632 12.4632 21.6927 12.181 21.8365C11.963 21.9476 11.755 21.978 11.6098 21.9899C11.4845 22.0001 11.3422 22.0001 11.2231 22C8.34574 21.999 5.46785 21.9847 2.59051 22.0001C2.51914 22.0005 2.37569 22.0012 2.23952 21.9772C1.6185 21.8677 1.13228 21.3815 1.02278 20.7605C0.998768 20.6243 0.999532 20.4809 0.999912 20.4095C1.00306 19.8186 0.972877 19.2163 1.07595 18.6318C1.44096 16.5617 3.06169 14.941 5.13175 14.576C5.56416 14.4997 6.05932 14.4998 6.786 14.5Z" fill="#344054"/>
<path fill-rule="evenodd" clip-rule="evenodd" d="M4.49999 7.5C4.49999 4.46243 6.96242 2 9.99999 2C13.0376 2 15.5 4.46243 15.5 7.5C15.5 10.5376 13.0376 13 9.99999 13C6.96242 13 4.49999 10.5376 4.49999 7.5Z" fill="#344054"/>
</svg>
