<svg width="24" height="24" viewBox="0 0 24 24" fill="none" xmlns="http://www.w3.org/2000/svg">
<path fill-rule="evenodd" clip-rule="evenodd" d="M17.1064 15.388C17.3543 14.8945 17.9554 14.6954 18.4489 14.9433C20.0833 15.7644 21.4649 17.0715 22.4648 18.6822C22.6163 18.9262 22.8368 19.2521 22.9053 19.6937C22.9786 20.1665 22.8502 20.6186 22.659 20.9624C22.4678 21.3061 22.1513 21.6536 21.711 21.8407C21.2923 22.0186 20.8369 22 20.5 22C19.9477 22 19.5 21.5523 19.5 21C19.5 20.4477 19.9477 20 20.5 20C20.7152 20 20.8283 19.9994 20.9091 19.9939L20.9112 19.9902C20.9303 19.9558 20.785 19.7683 20.7656 19.737C19.9433 18.4124 18.8285 17.3722 17.5511 16.7305C17.0576 16.4826 16.8585 15.8815 17.1064 15.388Z" fill="#344054"/>
<path fill-rule="evenodd" clip-rule="evenodd" d="M15.1045 3.02273C15.3503 2.52815 15.9505 2.32646 16.445 2.57225C18.2536 3.47103 19.5 5.33904 19.5 7.5C19.5 9.66096 18.2536 11.529 16.445 12.4278C15.9505 12.6735 15.3503 12.4719 15.1045 11.9773C14.8587 11.4827 15.0604 10.8825 15.555 10.6367C16.7098 10.0628 17.5 8.87276 17.5 7.5C17.5 6.12724 16.7098 4.9372 15.555 4.36327C15.0604 4.11749 14.8587 3.51731 15.1045 3.02273Z" fill="#344054"/>
<path fill-rule="evenodd" clip-rule="evenodd" d="M4 7.5C4 4.46243 6.46243 2 9.5 2C12.5376 2 15 4.46243 15 7.5C15 10.5376 12.5376 13 9.5 13C6.46243 13 4 10.5376 4 7.5Z" fill="#344054"/>
<path fill-rule="evenodd" clip-rule="evenodd" d="M9.5 14C12.6962 14 15.5535 15.8041 17.2971 18.4201C17.4507 18.6506 17.6145 18.8964 17.7291 19.13C17.8669 19.4111 17.9659 19.7341 17.9428 20.1198C17.9243 20.4275 17.8223 20.7129 17.7009 20.9395C17.5796 21.1661 17.3986 21.4093 17.1528 21.5952C16.8234 21.8442 16.4686 21.9315 16.1549 21.968C15.8786 22.0001 15.5515 22.0001 15.2219 22C11.4088 21.9993 7.59269 21.9993 3.77807 22C3.44853 22.0001 3.12138 22.0001 2.84515 21.968C2.53144 21.9315 2.17655 21.8442 1.84724 21.5952C1.60141 21.4093 1.42043 21.1661 1.29909 20.9395C1.17775 20.7129 1.0757 20.4275 1.05723 20.1198C1.03408 19.7341 1.13308 19.4111 1.27092 19.13C1.38545 18.8964 1.54926 18.6506 1.70287 18.4201C3.44646 15.8041 6.30377 14 9.5 14Z" fill="#344054"/>
</svg>
