<svg width="24" height="24" viewBox="0 0 24 24" fill="none" xmlns="http://www.w3.org/2000/svg">
<path fill-rule="evenodd" clip-rule="evenodd" d="M13.9854 5.08374C13.987 5.05628 13.9878 5.02873 13.9878 5.0011C13.9878 3.34553 11.0804 2.00342 7.4939 2.00342C3.90742 2.00342 1 3.34553 1 5.0011C1 5.02873 1.00081 5.05628 1.00242 5.08374H1V16.7535L1.02082 16.7604C1.00703 16.8402 1 16.9208 1 17.0022C1 18.6579 3.90742 20 7.4939 20C8.46325 20 9.383 19.902 10.2091 19.7262C10.9107 21.032 13.4665 22 16.5126 22C20.099 22 23.0063 20.6577 23.0063 19.0022V11.0015C23.0063 9.34595 20.099 8.00391 16.5126 8.00391C15.6171 8.00391 14.7639 8.08756 13.9878 8.23886V5.08374H13.9854ZM12.0245 4.78651C12.0245 4.78652 12.0246 4.78618 12.0245 4.78651L12.0239 4.78758L12.0224 4.79014L12.0245 4.78651ZM11.7922 5.0011C11.6747 4.91791 11.5012 4.81437 11.2475 4.69728C10.3901 4.30148 9.06502 4.00342 7.4939 4.00342C5.92277 4.00342 4.59768 4.30148 3.74025 4.69728C3.4866 4.81437 3.31309 4.91791 3.19559 5.0011C3.31309 5.08429 3.4866 5.18783 3.74025 5.30491C4.59768 5.70071 5.92277 5.99878 7.4939 5.99878C9.06502 5.99878 10.3901 5.70071 11.2475 5.30491C11.5012 5.18783 11.6747 5.08429 11.7922 5.0011ZM12.0176 8.83796C11.5276 9.0549 11.1112 9.30697 10.7873 9.58538C10.0823 9.77728 9.29179 9.90945 8.44858 9.9668C8.14255 9.9912 7.82364 10.0043 7.4939 10.0043C7.16415 10.0043 6.84524 9.9912 6.53922 9.9668C5.16115 9.87307 3.92396 9.57952 2.97021 9.15196V7.1518C4.1396 7.67602 5.73509 7.99878 7.4939 7.99878C9.2527 7.99878 10.8482 7.67602 12.0176 7.1518V8.83796ZM10.0185 11.7694V13.7591C9.5235 13.8556 8.9972 13.9246 8.44858 13.9619C8.14255 13.9863 7.82364 13.9995 7.4939 13.9995C7.16415 13.9995 6.84524 13.9863 6.53922 13.9619C5.16115 13.8682 3.92396 13.5746 2.97021 13.1471V11.1574C4.1396 11.6816 5.73509 12.0044 7.4939 12.0044C8.38931 12.0044 9.2424 11.9207 10.0185 11.7694ZM10.0185 15.7645C9.2424 15.9159 8.38931 15.9995 7.4939 15.9995C5.73509 15.9995 4.1396 15.6767 2.97021 15.1525V17.1476C3.92396 17.5751 5.16115 17.8687 6.53922 17.9624C6.84524 17.9868 7.16415 17.9999 7.4939 17.9999C7.82364 17.9999 8.14255 17.9868 8.44858 17.9624C8.9972 17.9251 9.5235 17.8561 10.0185 17.7596V15.7645ZM12.0091 19.1568C12.0119 19.1555 12.0147 19.1543 12.0176 19.153V17.1747C13.1843 17.6913 14.7683 18.0088 16.5126 18.0088C18.2714 18.0088 19.8666 17.686 21.0361 17.1619V19.1477C20.0824 19.5752 18.8451 19.8687 17.4672 19.9624C17.3227 19.9739 17.1752 19.9829 17.0253 19.9893C16.8578 19.9963 16.6864 20 16.5126 20C16.3534 20 16.1967 19.9968 16.0429 19.991C15.8779 19.9846 15.7157 19.9751 15.5575 19.9624C14.1894 19.8693 12.9599 19.5794 12.0091 19.1568ZM11.9987 15.161C12.005 15.1581 12.0113 15.1553 12.0176 15.1525V13.1652C13.1843 13.6818 14.7683 13.9993 16.5126 13.9993C18.2714 13.9993 19.8666 13.6765 21.0361 13.1523V15.1565C20.0824 15.584 18.8451 15.8774 17.4672 15.9712C17.3891 15.9775 17.3095 15.9832 17.2294 15.9878C17.1386 15.9929 17.0473 15.9973 16.9545 16.0007C16.8534 16.0044 16.7514 16.0068 16.6484 16.0081L16.5126 16.0088C16.3339 16.0088 16.1586 16.0049 15.9867 15.9976C15.8901 15.9934 15.7944 15.988 15.7001 15.9814L15.5575 15.9712C14.1844 15.8778 12.9509 15.586 11.9987 15.161ZM11.9972 13.1562C11.9944 13.1574 11.9915 13.1587 11.9887 13.1599V13.1523C11.9915 13.1536 11.9944 13.1549 11.9972 13.1562ZM20.266 10.6978C20.5195 10.8149 20.6933 10.9185 20.8105 11.0017C20.7763 11.0261 20.7372 11.052 20.6928 11.0796L20.6391 11.1121C20.5395 11.1707 20.4169 11.2356 20.266 11.3054C19.4086 11.7012 18.0834 11.9993 16.5126 11.9993C14.9413 11.9993 13.6161 11.7012 12.7587 11.3054C12.6977 11.2771 12.641 11.2495 12.5888 11.2229C12.5258 11.1909 12.4692 11.1602 12.4184 11.1309C12.3364 11.0837 12.269 11.0405 12.2143 11.0017C12.2607 10.9688 12.3158 10.9326 12.3813 10.8938C12.4814 10.8345 12.6054 10.7686 12.7587 10.6978C13.6161 10.302 14.9413 10.0039 16.5126 10.0039C18.0834 10.0039 19.4086 10.302 20.266 10.6978Z" fill="#344054"/>
</svg>
