<svg width="24" height="24" viewBox="0 0 24 24" fill="none" xmlns="http://www.w3.org/2000/svg">
<path fill-rule="evenodd" clip-rule="evenodd" d="M8.51516 2.57357C8.75726 3.06996 8.55112 3.66863 8.05473 3.91074C6.34647 4.74391 4.94583 6.0965 4.05354 7.77464C3.16126 9.45278 2.82315 11.3703 3.08766 13.2524C3.16452 13.7994 2.78348 14.305 2.23657 14.3819C1.68966 14.4587 1.18399 14.0777 1.10712 13.5308C0.783829 11.2304 1.19708 8.88676 2.28765 6.8357C3.37822 4.78464 5.09012 3.13147 7.17799 2.11315C7.67438 1.87105 8.27305 2.07718 8.51516 2.57357ZM15.4849 2.57367C15.727 2.07728 16.3257 1.87114 16.8221 2.11325C18.9099 3.13157 20.6218 4.78473 21.7124 6.83579C22.803 8.88686 23.2162 11.2305 22.8929 13.5309C22.8161 14.0778 22.3104 14.4588 21.7635 14.382C21.2166 14.3051 20.8355 13.7994 20.9124 13.2525C21.1769 11.3704 20.8388 9.45288 19.9465 7.77474C19.0542 6.0966 17.6536 4.74401 15.9453 3.91084C15.4489 3.66873 15.2428 3.07006 15.4849 2.57367ZM12 7.4142L7.41419 12L12 16.5858L16.5858 12L12 7.4142ZM11.5365 5.28051C11.8377 5.18262 12.1622 5.18262 12.4635 5.28051C12.6961 5.35609 12.8647 5.48164 12.9758 5.57593C13.0717 5.65731 13.1722 5.75795 13.2564 5.84221C13.2619 5.84773 13.2674 5.85319 13.2728 5.85856L18.1577 10.7435C18.242 10.8277 18.3426 10.9283 18.424 11.0242C18.5183 11.1352 18.6439 11.3038 18.7195 11.5365C18.8173 11.8377 18.8173 12.1622 18.7195 12.4635C18.6439 12.6961 18.5183 12.8647 18.424 12.9758C18.3427 13.0717 18.2421 13.1722 18.1578 13.2564L13.2728 18.1414C13.2674 18.1468 13.2619 18.1522 13.2564 18.1578C13.1722 18.242 13.0717 18.3427 12.9758 18.424C12.8647 18.5183 12.6961 18.6439 12.4635 18.7195C12.1622 18.8173 11.8377 18.8173 11.5365 18.7195C11.3038 18.6439 11.1352 18.5183 11.0241 18.424C10.9283 18.3427 10.8277 18.242 10.7435 18.1578C10.738 18.1522 10.7326 18.1468 10.7272 18.1414L5.85856 13.2728C5.85318 13.2674 5.84773 13.262 5.8422 13.2564C5.75794 13.1722 5.6573 13.0717 5.57593 12.9758C5.48163 12.8647 5.35609 12.6961 5.2805 12.4635C5.18261 12.1622 5.18261 11.8377 5.2805 11.5365C5.35608 11.3038 5.48163 11.1352 5.57593 11.0242C5.6573 10.9283 5.75793 10.8277 5.8422 10.7435C5.84772 10.738 5.85318 10.7326 5.85855 10.7272L10.7272 5.85856C10.7326 5.85318 10.738 5.84772 10.7435 5.84219C10.8277 5.75793 10.9283 5.65731 11.0241 5.57593C11.1352 5.48164 11.3038 5.35609 11.5365 5.28051ZM5.31311 19.5024C5.63773 19.0556 6.2631 18.9565 6.70991 19.2811C8.24754 20.3983 10.0994 21 12 21C13.9006 21 15.7524 20.3983 17.29 19.2811C17.7369 18.9565 18.3622 19.0556 18.6868 19.5024C19.0115 19.9492 18.9124 20.5745 18.4656 20.8992C16.5863 22.2646 14.3229 23 12 23C9.677 23 7.41366 22.2646 5.53434 20.8992C5.08753 20.5745 4.98848 19.9492 5.31311 19.5024Z" fill="#344054"/>
</svg>
