<svg width="24" height="24" viewBox="0 0 24 24" fill="none" xmlns="http://www.w3.org/2000/svg">
<path fill-rule="evenodd" clip-rule="evenodd" d="M8.51516 2.57357C8.75726 3.06996 8.55112 3.66863 8.05473 3.91074C6.34647 4.74391 4.94583 6.0965 4.05354 7.77464C3.16126 9.45278 2.82315 11.3703 3.08766 13.2524C3.16452 13.7994 2.78348 14.305 2.23657 14.3819C1.68966 14.4587 1.18399 14.0777 1.10712 13.5308C0.783829 11.2304 1.19708 8.88676 2.28765 6.8357C3.37822 4.78464 5.09012 3.13147 7.17799 2.11315C7.67438 1.87105 8.27305 2.07718 8.51516 2.57357ZM15.4849 2.57367C15.727 2.07728 16.3257 1.87114 16.8221 2.11325C18.9099 3.13157 20.6218 4.78473 21.7124 6.83579C22.803 8.88686 23.2162 11.2305 22.8929 13.5309C22.8161 14.0778 22.3104 14.4588 21.7635 14.382C21.2166 14.3051 20.8355 13.7994 20.9124 13.2525C21.1769 11.3704 20.8388 9.45288 19.9465 7.77474C19.0542 6.0966 17.6536 4.74401 15.9453 3.91084C15.4489 3.66873 15.2428 3.07006 15.4849 2.57367ZM12 7.49998C9.51469 7.49998 7.49998 9.5147 7.49998 12C7.49998 14.4853 9.51469 16.5 12 16.5C14.4853 16.5 16.5 14.4853 16.5 12C16.5 9.5147 14.4853 7.49998 12 7.49998ZM5.49998 12C5.49998 8.41013 8.41013 5.49998 12 5.49998C15.5898 5.49998 18.5 8.41013 18.5 12C18.5 15.5898 15.5898 18.5 12 18.5C8.41013 18.5 5.49998 15.5898 5.49998 12ZM5.31311 19.5024C5.63773 19.0556 6.2631 18.9565 6.70991 19.2811C8.24754 20.3983 10.0994 21 12 21C13.9006 21 15.7524 20.3983 17.29 19.2811C17.7369 18.9565 18.3622 19.0556 18.6868 19.5024C19.0115 19.9492 18.9124 20.5745 18.4656 20.8992C16.5863 22.2646 14.3229 23 12 23C9.677 23 7.41366 22.2646 5.53434 20.8992C5.08753 20.5745 4.98848 19.9492 5.31311 19.5024Z" fill="#344054"/>
</svg>
