<svg width="24" height="24" viewBox="0 0 24 24" fill="none" xmlns="http://www.w3.org/2000/svg">
<path fill-rule="evenodd" clip-rule="evenodd" d="M12 2C12.5523 2 13 2.44772 13 3V6.81954L17.8356 6.01361C18.2485 5.94479 18.6606 6.14042 18.8683 6.50386L22.4466 12.766C22.4555 12.7816 22.4644 12.797 22.4731 12.8123C22.6043 13.0416 22.7201 13.244 22.8041 13.4648C22.878 13.659 22.9315 13.8605 22.9637 14.0658C23.0003 14.2991 23.0002 14.5323 23 14.7964C23 14.8141 23 14.8319 23 14.8498V15C23 17.7614 20.7614 20 18 20C15.2386 20 13 17.7614 13 15V14.8498C13 14.8319 13 14.8141 13 14.7964C12.9998 14.5323 12.9997 14.2991 13.0363 14.0658C13.0686 13.8605 13.1221 13.659 13.1959 13.4648C13.2799 13.244 13.3957 13.0416 13.5269 12.8124C13.5357 12.797 13.5445 12.7816 13.5534 12.766L16.0867 8.33267L12.183 8.9833C12.1715 8.98543 12.1599 8.98736 12.1482 8.9891L7.58055 9.75037L10.4466 14.766C10.4555 14.7816 10.4644 14.797 10.4731 14.8124C10.6043 15.0416 10.7201 15.244 10.8041 15.4648C10.878 15.659 10.9315 15.8605 10.9637 16.0658C11.0003 16.2991 11.0002 16.5323 11 16.7964C11 16.8141 11 16.8319 11 16.8498V17C11 19.7614 8.76144 22 6.00001 22C3.23859 22 1.00001 19.7614 1.00001 17V16.8498C1.00001 16.8319 1 16.8141 0.999991 16.7964C0.999829 16.5323 0.999686 16.2991 1.03632 16.0658C1.06856 15.8605 1.12205 15.659 1.19593 15.4648C1.27989 15.244 1.39568 15.0416 1.52689 14.8124C1.53566 14.797 1.54449 14.7816 1.55339 14.766L5.13177 8.50386C5.28083 8.24301 5.53927 8.063 5.83561 8.01361L11 7.15287V3C11 2.44772 11.4477 2 12 2ZM3.72319 15L6.00001 11.0156L8.27683 15H3.72319ZM9.00001 17H3.00001C3.00001 18.6569 4.34316 20 6.00001 20C7.65687 20 9.00001 18.6569 9.00001 17ZM18 9.01556L15.7232 13H20.2768L18 9.01556ZM21 15H15C15 16.6569 16.3432 18 18 18C19.6569 18 21 16.6569 21 15Z" fill="#344054"/>
</svg>
