<svg width="24" height="24" viewBox="0 0 24 24" fill="none" xmlns="http://www.w3.org/2000/svg">
<path fill-rule="evenodd" clip-rule="evenodd" d="M6.74219 1.00005C6.76973 1.00008 6.7975 1.0001 6.82549 1.0001L9.67453 1.0001C9.70252 1.0001 9.73029 1.00008 9.75783 1.00005C10.1647 0.999673 10.5235 0.999339 10.8719 1.08299C11.178 1.15648 11.4707 1.2777 11.7391 1.44218C12.0446 1.62942 12.2981 1.88333 12.5855 2.17132C12.605 2.19081 12.6246 2.21046 12.6444 2.23025L20.3422 9.92805C20.9114 10.4973 21.3812 10.967 21.7326 11.381C22.0976 11.8109 22.3933 12.246 22.5616 12.764C22.8226 13.5674 22.8226 14.4328 22.5616 15.2362C22.3933 15.7542 22.0976 16.1893 21.7326 16.6192C21.3812 17.0332 20.9114 17.5029 20.3422 18.0721L18.072 20.3423C17.5028 20.9115 17.0331 21.3813 16.6191 21.7327C16.1892 22.0977 15.7541 22.3934 15.2361 22.5617C14.4327 22.8227 13.5673 22.8227 12.7639 22.5617C12.2459 22.3934 11.8108 22.0977 11.3809 21.7327C10.9669 21.3813 10.4972 20.9115 9.92796 20.3423L2.23016 12.6445C2.21036 12.6247 2.19071 12.6051 2.17121 12.5856C1.88323 12.2981 1.62932 12.0447 1.44209 11.7392C1.2776 11.4708 1.15639 11.1781 1.0829 10.872C0.999246 10.5236 0.99958 10.1648 0.999959 9.75792C0.999984 9.73038 1.00001 9.70261 1.00001 9.67462L1.00001 6.82558C1.00001 6.79759 0.999985 6.76982 0.999959 6.74228C0.99958 6.33538 0.999247 5.97664 1.0829 5.62819C1.15639 5.32208 1.2776 5.02945 1.44209 4.76103C1.62932 4.45549 1.88323 4.20206 2.17122 3.91461C2.19071 3.89515 2.21036 3.87553 2.23016 3.85574L3.85565 2.23025C3.87544 2.21046 3.89506 2.1908 3.91452 2.17131C4.20196 1.88333 4.4554 1.62942 4.76094 1.44218C5.02936 1.27769 5.32199 1.15648 5.6281 1.08299C5.97655 0.999338 6.33529 0.999672 6.74219 1.00005ZM6.82549 3.0001C6.28871 3.0001 6.18331 3.00653 6.09499 3.02773C5.99296 3.05223 5.89541 3.09263 5.80594 3.14746C5.72849 3.19492 5.64942 3.26491 5.26986 3.64447L3.64438 5.26995C3.26482 5.64951 3.19483 5.72859 3.14737 5.80603C3.09254 5.8955 3.05214 5.99305 3.02764 6.09508C3.00644 6.1834 3.00001 6.28881 3.00001 6.82558L3.00001 9.67462C3.00001 10.2114 3.00644 10.3168 3.02764 10.4051C3.05214 10.5072 3.09254 10.6047 3.14737 10.6942C3.19483 10.7716 3.26481 10.8507 3.64437 11.2303L11.313 18.8989C11.9187 19.5046 12.331 19.9158 12.6753 20.208C13.0106 20.4927 13.215 20.6053 13.382 20.6596C13.7837 20.7901 14.2164 20.7901 14.618 20.6596C14.785 20.6053 14.9894 20.4927 15.3248 20.208C15.669 19.9158 16.0813 19.5046 16.687 18.8989L18.8988 16.6871C19.5045 16.0814 19.9157 15.6691 20.2079 15.3249C20.4926 14.9895 20.6052 14.7851 20.6595 14.6181C20.79 14.2164 20.79 13.7838 20.6595 13.3821C20.6052 13.2151 20.4926 13.0107 20.2079 12.6753C19.9157 12.3311 19.5045 11.9188 18.8988 11.3131L11.2302 3.64447C10.8506 3.26491 10.7715 3.19492 10.6941 3.14746C10.6046 3.09263 10.5071 3.05223 10.405 3.02773C10.3167 3.00653 10.2113 3.0001 9.67453 3.0001L6.82549 3.0001ZM6.50001 8.0001C6.50001 7.17167 7.17158 6.5001 8.00001 6.5001C8.82844 6.5001 9.50001 7.17167 9.50001 8.0001C9.50001 8.82853 8.82844 9.5001 8.00001 9.5001C7.17158 9.5001 6.50001 8.82853 6.50001 8.0001Z" fill="#344054"/>
</svg>
