<svg width="24" height="24" viewBox="0 0 24 24" fill="none" xmlns="http://www.w3.org/2000/svg">
<path fill-rule="evenodd" clip-rule="evenodd" d="M6.75869 3H17.2413C18.0463 2.99999 18.7106 2.99998 19.2518 3.04419C19.8139 3.09012 20.3306 3.18868 20.8159 3.43597C21.5686 3.81947 22.1805 4.43139 22.564 5.18404C22.8027 5.6524 22.9028 6.14997 22.9508 6.68935C23.0043 6.85298 23.0136 7.02526 22.9818 7.18959C23 7.63971 23 8.16035 23 8.75868V15.2413C23 16.0463 23 16.7106 22.9558 17.2518C22.9099 17.8139 22.8113 18.3306 22.564 18.816C22.1805 19.5686 21.5686 20.1805 20.8159 20.564C20.3306 20.8113 19.8139 20.9099 19.2518 20.9558C18.7106 21 18.0463 21 17.2413 21H6.75866C5.9537 21 5.28935 21 4.74816 20.9558C4.18606 20.9099 3.66936 20.8113 3.18402 20.564C2.43137 20.1805 1.81945 19.5686 1.43596 18.816C1.18867 18.3306 1.0901 17.8139 1.04418 17.2518C0.99996 16.7106 0.999971 16.0463 0.999984 15.2413V8.7587C0.999974 8.16037 0.999966 7.63972 1.01812 7.18959C0.986383 7.02527 0.995632 6.85297 1.0492 6.68934C1.09718 6.14996 1.19732 5.65239 1.43596 5.18404C1.81945 4.43139 2.43137 3.81947 3.18402 3.43597C3.66936 3.18868 4.18606 3.09012 4.74816 3.04419C5.28935 2.99998 5.95371 2.99999 6.75869 3ZM2.99998 8.86852V15.2C2.99998 16.0566 3.00076 16.6389 3.03754 17.089C3.07336 17.5274 3.13828 17.7516 3.21797 17.908C3.40972 18.2843 3.71568 18.5903 4.092 18.782C4.2484 18.8617 4.47261 18.9266 4.91102 18.9624C5.36111 18.9992 5.94341 19 6.79998 19H17.2C18.0566 19 18.6389 18.9992 19.0889 18.9624C19.5274 18.9266 19.7516 18.8617 19.908 18.782C20.2843 18.5903 20.5903 18.2843 20.782 17.908C20.8617 17.7516 20.9266 17.5274 20.9624 17.089C20.9992 16.6389 21 16.0566 21 15.2V8.86852L17.3608 11.2946C17.3438 11.306 17.3269 11.3172 17.3102 11.3284C17.0604 11.4952 16.84 11.6424 16.5947 11.7494C16.3789 11.8437 16.1527 11.9121 15.9209 11.9534C15.6574 12.0004 15.3923 12.0002 15.092 12C15.0718 12 15.0516 12 15.0311 12H8.96887C8.94841 12 8.92812 12 8.90799 12C8.60763 12.0002 8.3426 12.0004 8.07907 11.9534C7.84725 11.9121 7.62111 11.8437 7.4053 11.7494C7.15997 11.6423 6.93956 11.4952 6.68975 11.3284C6.67302 11.3172 6.65615 11.306 6.63913 11.2946L2.99998 8.86852ZM20.9145 6.52181L16.2514 9.63051C15.9232 9.84936 15.8569 9.88924 15.7945 9.91648C15.7226 9.94789 15.6472 9.97071 15.5699 9.98448C15.5029 9.99643 15.4257 10 15.0311 10H8.96887C8.57432 10 8.49709 9.99643 8.43005 9.98448C8.35278 9.97071 8.2774 9.94789 8.20546 9.91648C8.14305 9.88924 8.07681 9.84937 7.74853 9.63051L3.08547 6.52181C3.12082 6.3234 3.16629 6.19345 3.21797 6.09202C3.40972 5.7157 3.71568 5.40973 4.092 5.21799C4.2484 5.1383 4.47261 5.07337 4.91102 5.03755C5.36111 5.00078 5.9434 5 6.79998 5H17.2C18.0566 5 18.6389 5.00078 19.0889 5.03755C19.5274 5.07337 19.7516 5.1383 19.908 5.21799C20.2843 5.40973 20.5903 5.7157 20.782 6.09202C20.8337 6.19345 20.8792 6.3234 20.9145 6.52181Z" fill="#344054"/>
</svg>
