<svg width="24" height="24" viewBox="0 0 24 24" fill="none" xmlns="http://www.w3.org/2000/svg">
<path fill-rule="evenodd" clip-rule="evenodd" d="M4.99998 10C4.99998 5.02326 9.05917 1 14.0526 1C19.046 1 23.1052 5.02326 23.1052 10C23.1052 11.1219 22.8983 12.1979 22.5195 13.1909C22.4829 13.2868 22.4616 13.3429 22.4469 13.3842C22.445 13.3895 22.4434 13.3941 22.4421 13.398C22.4422 13.3993 22.4424 13.4008 22.4425 13.4023C22.4457 13.4354 22.4511 13.4804 22.4617 13.5661L22.8677 16.8642C22.8865 17.0163 22.9078 17.1889 22.9129 17.3391C22.9185 17.5054 22.9115 17.7635 22.7876 18.0343C22.6328 18.3726 22.3579 18.6412 22.0161 18.7882C21.7425 18.9058 21.4843 18.9069 21.3182 18.8974C21.1681 18.8889 20.996 18.8636 20.8444 18.8413C20.8351 18.8399 20.8258 18.8386 20.8167 18.8372L17.6314 18.3703C17.543 18.3574 17.4965 18.3506 17.4624 18.3466C17.4608 18.3464 17.4592 18.3462 17.4578 18.3461C17.4539 18.3474 17.4492 18.349 17.4437 18.3509C17.401 18.3658 17.343 18.3874 17.2438 18.4246C16.2499 18.7968 15.1739 19 14.0526 19C13.873 19 13.6946 18.9948 13.5174 18.9845C12.5644 21.3332 10.3001 23 7.63159 23C6.90394 23 6.20297 22.875 5.54947 22.6444C5.44146 22.6063 5.37446 22.5827 5.32533 22.5664C5.31641 22.5635 5.3091 22.5611 5.30326 22.5593C5.30159 22.5594 5.29979 22.5596 5.29784 22.5599C5.26354 22.5637 5.21679 22.57 5.13013 22.5818L2.13533 22.9908C1.81127 23.0351 1.48606 22.9181 1.26448 22.6775C1.0429 22.4369 0.952961 22.1032 1.02365 21.7839L1.63499 19.0222C1.65624 18.9262 1.6676 18.8744 1.67491 18.8363C1.67532 18.8342 1.6757 18.8322 1.67604 18.8303C1.67423 18.824 1.67193 18.8162 1.66905 18.8066C1.65258 18.7521 1.62837 18.6778 1.589 18.5573C1.37731 17.9093 1.26317 17.2171 1.26317 16.5C1.26317 13.8739 2.79639 11.5914 5.01787 10.57C5.006 10.3814 4.99998 10.1913 4.99998 10ZM7.00005 10.0314C7.20767 10.0106 7.41834 10 7.63159 10C11.1715 10 14 12.9331 14 16.5C14 16.668 13.9937 16.8347 13.9814 16.9996C14.0051 16.9999 14.0288 17 14.0526 17C14.9309 17 15.7695 16.8411 16.5422 16.5517C16.5562 16.5464 16.5705 16.541 16.5851 16.5355C16.7264 16.4823 16.8931 16.4196 17.0454 16.3875C17.1846 16.3583 17.3034 16.3456 17.4456 16.3448C17.6007 16.3439 17.7585 16.3673 17.8859 16.3862C17.8981 16.388 17.9099 16.3898 17.9215 16.3915L20.8472 16.8203L20.4767 13.8105C20.4753 13.7993 20.4739 13.7878 20.4724 13.776C20.457 13.6525 20.4379 13.4997 20.4414 13.3499C20.4447 13.2124 20.4586 13.098 20.4884 12.9638C20.5209 12.817 20.5826 12.656 20.635 12.5196C20.6404 12.5055 20.6457 12.4916 20.6508 12.4781C20.9442 11.709 21.1052 10.8743 21.1052 10C21.1052 6.14018 17.9539 3 14.0526 3C10.1514 3 6.99998 6.14018 6.99998 10C6.99998 10.0105 7 10.021 7.00005 10.0314ZM11.8608 17.6333C11.9516 17.2719 12 16.8923 12 16.5C12 13.9918 10.0215 12 7.63159 12C5.24167 12 3.26317 13.9918 3.26317 16.5C3.26317 17.004 3.34327 17.4866 3.49013 17.9362C3.49596 17.954 3.50193 17.9722 3.50798 17.9906C3.56423 18.1618 3.62798 18.3558 3.65358 18.5189C3.6776 18.672 3.68337 18.7898 3.67443 18.9445C3.66493 19.1086 3.62721 19.2775 3.59646 19.4152C3.59347 19.4286 3.59055 19.4417 3.58772 19.4544L3.28654 20.815L4.8595 20.6002C4.87103 20.5986 4.88285 20.597 4.89494 20.5953C5.01932 20.5781 5.17185 20.557 5.31816 20.558C5.45669 20.559 5.55977 20.5695 5.69564 20.5966C5.83975 20.6253 6.01261 20.6866 6.16601 20.741C6.18262 20.7469 6.19901 20.7527 6.2151 20.7584C6.65824 20.9148 7.1343 21 7.63159 21C9.63117 21 11.3427 19.6057 11.8485 17.6812C11.8522 17.6651 11.8564 17.6491 11.8608 17.6333Z" fill="#344054"/>
</svg>
