<svg width="24" height="24" viewBox="0 0 24 24" fill="none" xmlns="http://www.w3.org/2000/svg">
<path fill-rule="evenodd" clip-rule="evenodd" d="M7.75868 2H16.2413C17.0462 1.99999 17.7106 1.99998 18.2518 2.04419C18.8139 2.09012 19.3306 2.18868 19.8159 2.43597C20.5686 2.81947 21.1805 3.43139 21.564 4.18404C21.8113 4.66937 21.9099 5.18608 21.9558 5.74817C22 6.28936 22 6.95372 22 7.75868V13.2413C22 14.0463 22 14.7106 21.9558 15.2518C21.9099 15.8139 21.8113 16.3306 21.564 16.816C21.1805 17.5686 20.5686 18.1805 19.8159 18.564C19.3306 18.8113 18.8139 18.9099 18.2518 18.9558C17.7106 19 17.0463 19 16.2413 19H13.6837C13.0196 19 12.8262 19.0047 12.6502 19.0408C12.4737 19.0771 12.3029 19.137 12.1424 19.219C11.9824 19.3007 11.8285 19.4178 11.3099 19.8327L8.89675 21.7632C8.71307 21.9102 8.52585 22.06 8.36125 22.1689C8.20381 22.273 7.89858 22.4593 7.50159 22.4597C7.04478 22.4602 6.61264 22.2525 6.32766 21.8955C6.08 21.5852 6.0348 21.2305 6.01773 21.0425C5.99988 20.846 5.99992 20.6062 5.99997 20.371L5.99997 18.9918C5.60816 18.9789 5.27216 18.9461 4.9647 18.8637C3.58433 18.4938 2.50614 17.4156 2.13627 16.0353C1.99917 15.5236 1.99949 14.933 1.99993 14.1376C1.99995 14.0924 1.99997 14.0465 1.99997 14L1.99997 7.7587C1.99996 6.95373 1.99995 6.28937 2.04417 5.74817C2.09009 5.18608 2.18866 4.66937 2.43595 4.18404C2.81944 3.43139 3.43136 2.81947 4.18401 2.43597C4.66935 2.18868 5.18605 2.09012 5.74815 2.04419C6.28934 1.99998 6.9537 1.99999 7.75868 2ZM5.91101 4.03755C5.4726 4.07337 5.24839 4.1383 5.09199 4.21799C4.71567 4.40973 4.40971 4.7157 4.21796 5.09202C4.13827 5.24842 4.07335 5.47262 4.03753 5.91104C4.00075 6.36113 3.99997 6.94342 3.99997 7.8V14C3.99997 14.9944 4.00856 15.2954 4.06812 15.5176C4.25306 16.2078 4.79215 16.7469 5.48234 16.9319C5.70461 16.9914 6.00562 17 6.99997 17C7.55226 17 7.99997 17.4477 7.99997 18V19.9194L10.0605 18.271C10.0832 18.2528 10.1057 18.2348 10.1278 18.2171C10.5499 17.8791 10.8689 17.6237 11.2325 17.4379C11.5535 17.274 11.8951 17.1541 12.2481 17.0817C12.6481 16.9996 13.0568 16.9998 13.5975 17C13.6259 17 13.6546 17 13.6837 17H16.2C17.0566 17 17.6388 16.9992 18.0889 16.9624C18.5274 16.9266 18.7516 16.8617 18.908 16.782C19.2843 16.5903 19.5902 16.2843 19.782 15.908C19.8617 15.7516 19.9266 15.5274 19.9624 15.089C19.9992 14.6389 20 14.0566 20 13.2V7.8C20 6.94342 19.9992 6.36113 19.9624 5.91104C19.9266 5.47262 19.8617 5.24842 19.782 5.09202C19.5902 4.7157 19.2843 4.40973 18.908 4.21799C18.7516 4.1383 18.5274 4.07337 18.0889 4.03755C17.6388 4.00078 17.0566 4 16.2 4H7.79997C6.94339 4 6.3611 4.00078 5.91101 4.03755ZM12.3319 7.51797C12.0414 7.46813 11.7426 7.52274 11.4884 7.67211C11.2342 7.82148 11.0411 8.05598 10.9433 8.33408C10.76 8.85507 10.1891 9.12884 9.66813 8.94557C9.14714 8.7623 8.87337 8.19138 9.05664 7.67039C9.3112 6.94674 9.81366 6.33653 10.475 5.94784C11.1364 5.55916 11.914 5.41707 12.67 5.54676C13.4261 5.67645 14.1119 6.06954 14.6059 6.65641C15.0998 7.24313 15.3702 7.98568 15.3692 8.75261C15.3688 10.0324 14.4221 10.8551 13.7998 11.27C13.4581 11.4978 13.1235 11.6643 12.8783 11.7733C12.7543 11.8284 12.6496 11.8704 12.5735 11.8994C12.5354 11.9139 12.5042 11.9252 12.4812 11.9334L12.4527 11.9434L12.4433 11.9466L12.4398 11.9478L12.4383 11.9483C12.438 11.9484 12.4371 11.9487 12.1209 11L12.4371 11.9487C11.9132 12.1233 11.3469 11.8402 11.1722 11.3162C10.9977 10.7927 11.2803 10.2268 11.8036 10.0517C11.8034 10.0518 11.8037 10.0516 11.8036 10.0517L11.8111 10.049C11.821 10.0455 11.8381 10.0393 11.8615 10.0304C11.9084 10.0125 11.9793 9.98423 12.0661 9.94567C12.2424 9.86728 12.4699 9.75281 12.6904 9.60587C13.192 9.27142 13.3692 8.97025 13.3692 8.75168L13.3692 8.75019C13.3697 8.45539 13.2657 8.16994 13.0759 7.94441C12.886 7.71888 12.6225 7.56781 12.3319 7.51797ZM11.1499 14C11.1499 13.4477 11.5976 13 12.1499 13H12.1599C12.7122 13 13.1599 13.4477 13.1599 14C13.1599 14.5523 12.7122 15 12.1599 15H12.1499C11.5976 15 11.1499 14.5523 11.1499 14Z" fill="#344054"/>
</svg>
