<svg width="24" height="24" viewBox="0 0 24 24" fill="none" xmlns="http://www.w3.org/2000/svg">
<path fill-rule="evenodd" clip-rule="evenodd" d="M7.75868 2H16.2413C17.0462 1.99999 17.7106 1.99998 18.2518 2.04419C18.8139 2.09012 19.3306 2.18868 19.8159 2.43597C20.5686 2.81947 21.1805 3.43139 21.564 4.18404C21.8113 4.66937 21.9099 5.18608 21.9558 5.74817C22 6.28936 22 6.95372 22 7.75868V13.2413C22 14.0463 22 14.7106 21.9558 15.2518C21.9099 15.8139 21.8113 16.3306 21.564 16.816C21.1805 17.5686 20.5686 18.1805 19.8159 18.564C19.3306 18.8113 18.8139 18.9099 18.2518 18.9558C17.7106 19 17.0463 19 16.2413 19H13.6837C13.0196 19 12.8262 19.0047 12.6502 19.0408C12.4737 19.0771 12.3029 19.137 12.1424 19.219C11.9824 19.3007 11.8285 19.4178 11.3099 19.8327L8.89675 21.7632C8.71307 21.9102 8.52585 22.06 8.36125 22.1689C8.20381 22.273 7.89858 22.4593 7.50159 22.4597C7.04478 22.4602 6.61264 22.2525 6.32766 21.8955C6.08 21.5852 6.0348 21.2305 6.01773 21.0425C5.99988 20.846 5.99992 20.6062 5.99997 20.371L5.99997 18.9918C5.60816 18.9789 5.27216 18.9461 4.9647 18.8637C3.58433 18.4938 2.50614 17.4156 2.13627 16.0353C1.99917 15.5236 1.99949 14.933 1.99993 14.1376C1.99995 14.0924 1.99997 14.0465 1.99997 14L1.99997 7.7587C1.99996 6.95373 1.99995 6.28937 2.04417 5.74817C2.09009 5.18608 2.18866 4.66937 2.43595 4.18404C2.81944 3.43139 3.43136 2.81947 4.18401 2.43597C4.66935 2.18868 5.18605 2.09012 5.74815 2.04419C6.28934 1.99998 6.9537 1.99999 7.75868 2ZM5.91101 4.03755C5.4726 4.07337 5.24839 4.1383 5.09199 4.21799C4.71567 4.40973 4.40971 4.7157 4.21796 5.09202C4.13827 5.24842 4.07335 5.47262 4.03753 5.91104C4.00075 6.36113 3.99997 6.94342 3.99997 7.8V14C3.99997 14.9944 4.00856 15.2954 4.06812 15.5176C4.25306 16.2078 4.79215 16.7469 5.48234 16.9319C5.70461 16.9914 6.00562 17 6.99997 17C7.55226 17 7.99997 17.4477 7.99997 18V19.9194L10.0605 18.271C10.0832 18.2528 10.1057 18.2348 10.1278 18.2171C10.5499 17.8791 10.8689 17.6237 11.2325 17.4379C11.5535 17.274 11.8951 17.1541 12.2481 17.0817C12.6481 16.9996 13.0568 16.9998 13.5975 17C13.6259 17 13.6546 17 13.6837 17H16.2C17.0566 17 17.6388 16.9992 18.0889 16.9624C18.5274 16.9266 18.7516 16.8617 18.908 16.782C19.2843 16.5903 19.5902 16.2843 19.782 15.908C19.8617 15.7516 19.9266 15.5274 19.9624 15.089C19.9992 14.6389 20 14.0566 20 13.2V7.8C20 6.94342 19.9992 6.36113 19.9624 5.91104C19.9266 5.47262 19.8617 5.24842 19.782 5.09202C19.5902 4.7157 19.2843 4.40973 18.908 4.21799C18.7516 4.1383 18.5274 4.07337 18.0889 4.03755C17.6388 4.00078 17.0566 4 16.2 4H7.79997C6.94339 4 6.3611 4.00078 5.91101 4.03755ZM11.9963 6.37384C10.7844 5.55638 9.13826 5.45947 7.82466 6.56798C6.29176 7.86156 6.05941 10.0624 7.28297 11.6174C7.89697 12.3978 9.34908 13.7341 10.2944 14.5816L10.3164 14.6012C10.4751 14.7436 10.6353 14.8872 10.7841 15.0001C10.9527 15.1282 11.1582 15.258 11.4205 15.3369C11.7915 15.4486 12.2023 15.4486 12.5733 15.3369C12.8356 15.258 13.041 15.1282 13.2097 15.0001C13.3585 14.8872 13.5187 14.7435 13.6774 14.6012L13.6993 14.5816C14.6447 13.7341 16.0968 12.3978 16.7108 11.6174C17.9254 10.0738 17.7349 7.85322 16.1587 6.5593C14.837 5.47431 13.2061 5.55686 11.9963 6.37384ZM11.241 8.35392C10.6369 7.65646 9.75402 7.55681 9.11451 8.09647C8.39287 8.70545 8.30781 9.68559 8.85475 10.3807C9.33765 10.9944 10.6386 12.2042 11.6294 13.0924C11.8192 13.2624 11.9177 13.3497 11.9932 13.4071C11.9945 13.408 11.9957 13.4089 11.9969 13.4098C11.9981 13.4089 11.9993 13.408 12.0006 13.4071C12.0761 13.3497 12.1746 13.2624 12.3644 13.0923C13.3551 12.2042 14.6561 10.9944 15.139 10.3807C15.695 9.67417 15.6068 8.69378 14.8897 8.10516C14.2205 7.5558 13.3494 7.66509 12.7528 8.35392C12.5629 8.57324 12.287 8.69925 11.9969 8.69925C11.7068 8.69925 11.4309 8.57324 11.241 8.35392Z" fill="#344054"/>
</svg>
