<svg width="24" height="24" viewBox="0 0 24 24" fill="none" xmlns="http://www.w3.org/2000/svg">
<path fill-rule="evenodd" clip-rule="evenodd" d="M19.4139 4.58579C18.6328 3.80474 17.3665 3.80474 16.5855 4.58579C15.8044 5.36683 15.8044 6.63317 16.5855 7.41421C17.3665 8.19526 18.6328 8.19526 19.4139 7.41421C20.1949 6.63317 20.1949 5.36683 19.4139 4.58579ZM15.1713 3.17157C16.7333 1.60948 19.266 1.60948 20.8281 3.17157C22.3902 4.73367 22.3902 7.26633 20.8281 8.82843C19.266 10.3905 16.7333 10.3905 15.1713 8.82843C13.6092 7.26633 13.6092 4.73367 15.1713 3.17157ZM12.7028 2.94439C12.7537 3.49433 12.3491 3.98136 11.7991 4.03222C7.98597 4.38484 4.99968 7.59425 4.99968 11.5C4.99968 12.34 5.13739 13.1458 5.39067 13.8972C5.39871 13.9211 5.40701 13.9455 5.41546 13.9703C5.49661 14.2088 5.59193 14.489 5.61199 14.7425C5.63028 14.9736 5.61361 15.169 5.55644 15.3936C5.49392 15.6393 5.36685 15.8729 5.26379 16.0623C5.2538 16.0807 5.24404 16.0986 5.23458 16.1161L3.77879 18.8108L8.52342 18.3203C8.5342 18.3192 8.54527 18.318 8.55659 18.3168C8.67551 18.3044 8.82306 18.2889 8.96776 18.2944C9.10002 18.2995 9.21149 18.3143 9.3405 18.344C9.48209 18.3767 9.63571 18.4361 9.76527 18.4863C9.77855 18.4914 9.79159 18.4965 9.80434 18.5014C10.6395 18.8231 11.5478 19 12.4997 19C16.4087 19 19.6201 16.0088 19.9683 12.1911C20.0185 11.6411 20.505 11.2359 21.055 11.2861C21.605 11.3362 22.0102 11.8228 21.9601 12.3728C21.5188 17.2109 17.4523 21 12.4997 21C11.298 21 10.1463 20.7764 9.08534 20.3677C8.99439 20.3326 8.9417 20.3124 8.90285 20.2984C8.89809 20.2967 8.89398 20.2953 8.89048 20.2941C8.88921 20.2941 8.88785 20.2942 8.8864 20.2944C8.85476 20.2968 8.81159 20.3012 8.72907 20.3097C8.72906 20.3097 8.72907 20.3097 8.72907 20.3097L3.57416 20.8426C3.35997 20.8648 3.13653 20.8879 2.94964 20.8901C2.76389 20.8923 2.4291 20.8818 2.1081 20.6859C1.73182 20.4564 1.47553 20.073 1.40731 19.6376C1.34911 19.2661 1.46739 18.9527 1.54042 18.7819C1.61389 18.6101 1.72071 18.4124 1.8231 18.223L3.47496 15.1655C3.54642 15.0332 3.58462 14.962 3.61032 14.909C3.61168 14.9063 3.61292 14.9036 3.61408 14.9012C3.61215 14.8943 3.60981 14.8861 3.60699 14.8765C3.58534 14.8033 3.55203 14.7039 3.49543 14.536C3.17367 13.5814 2.99968 12.56 2.99968 11.5C2.99968 6.55145 6.78256 2.48759 11.615 2.04072C12.1649 1.98986 12.6519 2.39445 12.7028 2.94439Z" fill="#344054"/>
</svg>
