<svg width="24" height="24" viewBox="0 0 24 24" fill="none" xmlns="http://www.w3.org/2000/svg">
<path fill-rule="evenodd" clip-rule="evenodd" d="M2.99968 11.5C2.99968 6.25329 7.25298 2 12.4997 2C17.7464 2 21.9997 6.25329 21.9997 11.5C21.9997 16.7467 17.7464 21 12.4997 21C11.298 21 10.1463 20.7764 9.08534 20.3677C8.99439 20.3326 8.9417 20.3124 8.90285 20.2984C8.89809 20.2967 8.89398 20.2953 8.89048 20.2941C8.88921 20.2941 8.88785 20.2942 8.8864 20.2944C8.85479 20.2968 8.81163 20.3012 8.72907 20.3097L3.60804 20.8391C3.59678 20.8402 3.58549 20.8414 3.57416 20.8426C3.35998 20.8648 3.13653 20.8879 2.94964 20.8901C2.76389 20.8923 2.42911 20.8818 2.1081 20.6859C1.73182 20.4564 1.47553 20.073 1.40731 19.6376C1.34911 19.2661 1.46739 18.9527 1.54042 18.7819C1.61389 18.61 1.72071 18.4124 1.8231 18.223L3.47496 15.1655C3.54642 15.0332 3.58462 14.962 3.61032 14.909C3.61168 14.9063 3.61292 14.9036 3.61408 14.9012C3.61215 14.8943 3.60981 14.8861 3.60699 14.8766C3.58534 14.8033 3.55203 14.7039 3.49543 14.536C3.17367 13.5814 2.99968 12.56 2.99968 11.5ZM12.4997 4C8.35754 4 4.99968 7.35786 4.99968 11.5C4.99968 12.34 5.13739 13.1458 5.39067 13.8972C5.39871 13.9211 5.40702 13.9455 5.41547 13.9703C5.49662 14.2089 5.59193 14.489 5.61199 14.7425C5.63028 14.9736 5.61361 15.169 5.55644 15.3936C5.49392 15.6393 5.36685 15.8729 5.26379 16.0623C5.2538 16.0807 5.24404 16.0986 5.23458 16.1161L3.77879 18.8108L8.52342 18.3203C8.53419 18.3192 8.54523 18.318 8.55654 18.3169C8.67554 18.3044 8.82302 18.2889 8.96775 18.2944C9.10003 18.2995 9.2115 18.3143 9.34049 18.344C9.48209 18.3767 9.63571 18.4361 9.76527 18.4863C9.77855 18.4914 9.79159 18.4965 9.80434 18.5014C10.6395 18.8231 11.5478 19 12.4997 19C16.6418 19 19.9997 15.6421 19.9997 11.5C19.9997 7.35786 16.6418 4 12.4997 4ZM6.99968 9.5C6.99968 8.94772 7.4474 8.5 7.99968 8.5H11.9997C12.552 8.5 12.9997 8.94772 12.9997 9.5C12.9997 10.0523 12.552 10.5 11.9997 10.5H7.99968C7.4474 10.5 6.99968 10.0523 6.99968 9.5ZM6.99968 13C6.99968 12.4477 7.4474 12 7.99968 12H14.9997C15.552 12 15.9997 12.4477 15.9997 13C15.9997 13.5523 15.552 14 14.9997 14H7.99968C7.4474 14 6.99968 13.5523 6.99968 13Z" fill="#344054"/>
</svg>
