<svg width="24" height="24" viewBox="0 0 24 24" fill="none" xmlns="http://www.w3.org/2000/svg">
<path fill-rule="evenodd" clip-rule="evenodd" d="M12.0352 4.43681L4.85173 20.3319L11.0005 18.291V12C11.0005 11.4477 11.4482 11 12.0005 11C12.5528 11 13.0005 11.4477 13.0005 12V18.2672L19.1554 20.3277L12.0352 4.43681ZM11.3745 1.87269C11.7938 1.6662 12.2855 1.66699 12.7041 1.87483C13.0728 2.05783 13.2657 2.3783 13.3588 2.54426C13.459 2.72295 13.5615 2.95196 13.6638 3.18028C13.6687 3.19133 13.6737 3.20238 13.6786 3.21342L21.1821 19.9597C21.2869 20.1935 21.3914 20.4266 21.4591 20.6231C21.5213 20.8035 21.6349 21.1668 21.5223 21.5687C21.3951 22.0227 21.0618 22.3904 20.6225 22.5615C20.2336 22.713 19.8609 22.6356 19.6753 22.5914C19.473 22.5432 19.2308 22.4621 18.9877 22.3807L12.0378 20.054L5.01382 22.3854C4.77035 22.4662 4.52774 22.5468 4.32524 22.5944C4.13953 22.6381 3.76636 22.7147 3.37775 22.5621C2.93879 22.3897 2.60647 22.0209 2.48056 21.5664C2.3691 21.164 2.484 20.8008 2.54674 20.6207C2.61514 20.4242 2.72045 20.1913 2.82613 19.9576L10.3957 3.20815C10.4007 3.19714 10.4057 3.18611 10.4107 3.17509C10.5136 2.94709 10.617 2.7184 10.7177 2.54002C10.8113 2.37436 11.0053 2.05451 11.3745 1.87269Z" fill="#344054"/>
</svg>
