<svg width="24" height="24" viewBox="0 0 24 24" fill="none" xmlns="http://www.w3.org/2000/svg">
<path fill-rule="evenodd" clip-rule="evenodd" d="M12 1C12.2857 0.999999 12.5577 1.12215 12.7474 1.33564L20.7474 10.3356C20.9798 10.5971 21.0587 10.9609 20.9555 11.2951C20.8522 11.6293 20.5819 11.8853 20.2426 11.9701L12.2426 13.9701C12.0833 14.01 11.9167 14.01 11.7575 13.9701L3.7575 11.9703C3.41815 11.8855 3.1478 11.6295 3.04456 11.2953C2.94133 10.9611 3.02022 10.5972 3.2526 10.3358L11.2526 1.33564C11.4424 1.12215 11.7144 1 12 1ZM11 4.63023L6.89826 9.24478L11 8.21931V4.63023ZM12 10.0309L8.1232 11.0001L12 11.9692L15.8768 11L12 10.0309ZM17.1018 9.2447L13 8.21929V4.6302L17.1018 9.2447ZM4.63449 14.4991C4.85451 14.1189 5.29686 13.9268 5.72488 14.0256L12 15.4737L18.2752 14.0256C18.7032 13.9268 19.1455 14.1189 19.3655 14.4991C19.5855 14.8793 19.5317 15.3586 19.2328 15.6804L12.7329 22.6804C12.5437 22.8842 12.2782 23 12.0001 23C11.7221 23 11.4566 22.8842 11.2674 22.6805L4.76723 15.6805C4.46833 15.3586 4.41448 14.8793 4.63449 14.4991ZM8.44976 16.707L12.0001 20.5304L15.5504 16.707L12.2249 17.4744C12.0769 17.5085 11.9231 17.5085 11.7752 17.4744L8.44976 16.707Z" fill="#344054"/>
</svg>
