<svg width="24" height="24" viewBox="0 0 24 24" fill="none" xmlns="http://www.w3.org/2000/svg">
<path fill-rule="evenodd" clip-rule="evenodd" d="M7.34809 0.999971C7.35822 1.00005 7.36724 1.00012 7.37503 1.00012H9.97699C9.99242 0.999758 10.0079 0.999757 10.0234 1.00012H13.9773C13.9928 0.999757 14.0083 0.999758 14.0237 1.00012H16.6256C16.6334 1.00012 16.6424 1.00005 16.6526 0.999971C16.7512 0.999208 16.9552 0.99763 17.1559 1.05163C17.3255 1.09726 17.4858 1.17234 17.6294 1.27344C17.7994 1.39305 17.9288 1.55075 17.9913 1.62699C17.9977 1.63483 18.0034 1.6418 18.0084 1.64779L22.336 6.84089C22.403 6.92122 22.4848 7.01926 22.5508 7.11206C22.6285 7.2213 22.7278 7.38118 22.7852 7.59302C22.8608 7.87144 22.8544 8.16573 22.767 8.44064C22.7004 8.64981 22.5944 8.80527 22.512 8.91106C22.4421 9.00093 22.3562 9.09534 22.2858 9.17271L13.3155 19.04C13.228 19.1364 13.1252 19.2496 13.0269 19.3409C12.9145 19.4452 12.7392 19.5884 12.4909 19.6743C12.1731 19.7843 11.8276 19.7843 11.5097 19.6743C11.2615 19.5884 11.0862 19.4452 10.9738 19.3409C10.8755 19.2495 10.7726 19.1363 10.6851 19.0399C10.6795 19.0338 10.6739 19.0277 10.6684 19.0216L1.72885 9.18809C1.72426 9.18304 1.71959 9.17791 1.71486 9.17271C1.64447 9.09534 1.55857 9.00092 1.48863 8.91105C1.40631 8.80526 1.30025 8.6498 1.2337 8.44064C1.14623 8.16573 1.13989 7.87143 1.21544 7.59302C1.27292 7.38118 1.37219 7.2213 1.44988 7.11206C1.51588 7.01926 1.59764 6.92123 1.66464 6.8409C1.66914 6.8355 1.67358 6.83018 1.67794 6.82494L5.99224 1.64779C5.99722 1.6418 6.00295 1.63483 6.00937 1.62699C6.07192 1.55074 6.20127 1.39305 6.37124 1.27344C6.5149 1.17234 6.67519 1.09726 6.84482 1.05163C7.04552 0.99763 7.24947 0.999208 7.34809 0.999971ZM13.2796 3.00012H10.7211L9.38776 7.00012H14.6129L13.2796 3.00012ZM16.7211 7.00012L15.3878 3.00012H16.532L19.8653 7.00012H16.7211ZM14.5493 9.00012L12.0003 15.6911L9.45139 9.00012H14.5493ZM7.27957 7.00012L8.61291 3.00012H7.46871L4.13537 7.00012H7.27957ZM4.26089 9.00012H7.31118L9.5114 14.7757L4.26089 9.00012ZM14.4893 14.7757L16.6895 9.00012H19.7398L14.4893 14.7757ZM7.60129 2.84238C7.60141 2.84225 7.60141 2.84224 7.60129 2.84238V2.84238ZM7.26267 3.00099C7.26249 3.001 7.2625 3.001 7.26267 3.00099V3.00099ZM16.738 3.00099C16.7382 3.001 16.7382 3.001 16.738 3.00099V3.00099ZM16.3994 2.84239C16.3993 2.84226 16.3993 2.84227 16.3994 2.84239V2.84239ZM4.00033 22.0001C4.00033 21.4478 4.44805 21.0001 5.00033 21.0001H19.0003C19.5526 21.0001 20.0003 21.4478 20.0003 22.0001C20.0003 22.5524 19.5526 23.0001 19.0003 23.0001H5.00033C4.44805 23.0001 4.00033 22.5524 4.00033 22.0001Z" fill="#344054"/>
</svg>
