<svg width="24" height="24" viewBox="0 0 24 24" fill="none" xmlns="http://www.w3.org/2000/svg">
<path d="M16.7073 7.30499C16.3167 6.91437 15.6838 6.91437 15.2932 7.30499L7.29321 15.305C6.90259 15.6954 6.90259 16.3287 7.29321 16.7191C7.68384 17.1097 8.31665 17.1097 8.70728 16.7191L16.7073 8.71906C17.0979 8.32867 17.0979 7.69537 16.7073 7.30499Z" fill="#344054"/>
<path d="M9.00024 7.51202C8.17163 7.51202 7.50024 8.18365 7.50024 9.01202C7.50024 9.84039 8.17163 10.512 9.00024 10.512C9.82886 10.512 10.5002 9.84039 10.5002 9.01202C10.5002 8.18365 9.82886 7.51202 9.00024 7.51202Z" fill="#344054"/>
<path d="M13.5002 15.012C13.5002 14.1837 14.1716 13.512 15.0002 13.512C15.8289 13.512 16.5002 14.1837 16.5002 15.012C16.5002 15.8404 15.8289 16.512 15.0002 16.512C14.1716 16.512 13.5002 15.8404 13.5002 15.012Z" fill="#344054"/>
<path fill-rule="evenodd" clip-rule="evenodd" d="M8.9187 21.4832C9.27954 21.4356 9.64429 21.5335 9.93188 21.7549L11.2566 22.7715C11.6946 23.1082 12.304 23.1082 12.741 22.7715L14.116 21.7156C14.3728 21.5189 14.697 21.4319 15.0178 21.4747L16.738 21.701C17.2849 21.7733 17.8118 21.4686 18.0237 20.9583L18.6853 19.358C18.8093 19.0582 19.0466 18.8209 19.3464 18.6973L20.9465 18.0355C21.4568 17.825 21.7615 17.2964 21.6892 16.7496L21.4714 15.0916C21.4236 14.7308 21.5217 14.366 21.7429 14.0784L22.7595 12.7535C23.0959 12.3155 23.0959 11.7061 22.7595 11.2693L21.7039 9.8941C21.5066 9.63727 21.4202 9.31305 21.4626 8.99249L21.6892 7.27203C21.7615 6.72516 21.4568 6.19781 20.9465 5.98615L19.3464 5.32428C19.0466 5.20074 18.8093 4.96344 18.6853 4.66364L18.0237 3.06329C17.8835 2.72321 17.6018 2.47443 17.2673 2.36774C17.1003 2.31427 16.9202 2.29645 16.738 2.32062L15.0178 2.54694C14.697 2.59088 14.3728 2.50397 14.1169 2.30841L12.7419 1.2525C12.304 0.915833 11.6946 0.915833 11.2581 1.2525L9.88306 2.30841C9.62573 2.50397 9.30151 2.59088 8.9812 2.54938L7.26099 2.32306C6.71411 2.25079 6.18677 2.55548 5.97534 3.06573L5.3147 4.66608C5.1897 4.96466 4.95239 5.20197 4.65356 5.32672L3.05347 5.98737C2.54321 6.19904 2.23853 6.72638 2.31079 7.27325L2.53735 8.99371C2.57886 9.31427 2.49194 9.63849 2.29614 9.8941L1.24048 11.2693C0.904053 11.7073 0.904053 12.3167 1.24048 12.7535L2.29614 14.1287C2.49341 14.3856 2.57983 14.7098 2.53735 15.0303L2.31079 16.7508C2.23853 17.2977 2.54321 17.825 3.05347 18.0367L4.65356 18.6985C4.95337 18.8221 5.19067 19.0594 5.3147 19.3592L5.97632 20.9595C6.18677 21.4698 6.71509 21.7745 7.26196 21.7022L8.9187 21.4832ZM9.58521 19.4346C9.86792 19.3973 10.1541 19.4739 10.3792 19.6475L11.4177 20.4442C11.761 20.7078 12.238 20.7078 12.5808 20.4442L13.6584 19.6168C13.7791 19.5242 13.9187 19.4627 14.0652 19.4354C14.1633 19.4173 14.2644 19.4144 14.365 19.4278L15.7131 19.6053C16.1414 19.6619 16.5549 19.4232 16.7205 19.0233L17.2395 17.7691C17.2981 17.6268 17.3894 17.5023 17.5046 17.4048C17.5793 17.3414 17.6643 17.2894 17.7571 17.2513L19.0115 16.7325C19.4109 16.5677 19.6497 16.1534 19.5935 15.7247L19.4226 14.4254C19.385 14.1426 19.4622 13.8568 19.6355 13.6317L20.4324 12.5931C20.696 12.2498 20.696 11.7723 20.4324 11.43L19.6047 10.3524C19.4504 10.1509 19.3826 9.89679 19.4158 9.64557L19.5935 8.29742C19.6497 7.86871 19.4109 7.45563 19.0115 7.28961L17.7571 6.77081C17.5222 6.67413 17.3362 6.4881 17.2395 6.25299L16.7205 4.99884C16.5559 4.59918 16.1414 4.36041 15.7131 4.41681L14.365 4.5943C14.1135 4.62872 13.8596 4.56061 13.6594 4.40729L12.5813 3.5799C12.238 3.31622 11.761 3.31622 11.4187 3.5799L10.3406 4.40729C10.1394 4.56061 9.8855 4.62872 9.63403 4.59625L8.28589 4.41876C7.85767 4.36212 7.44409 4.60089 7.27856 5.00079L6.7605 6.25494C6.66284 6.48907 6.47681 6.67511 6.24292 6.77277L4.98853 7.29059C4.58911 7.45636 4.35034 7.86969 4.40649 8.2984L4.58423 9.64655C4.61694 9.89777 4.54858 10.1519 4.39526 10.3524L3.56763 11.43C3.30396 11.7733 3.30396 12.2508 3.56763 12.5931L4.39526 13.671C4.54956 13.8721 4.61743 14.1263 4.58423 14.3775L4.40649 15.7256C4.35034 16.1544 4.58911 16.5677 4.98853 16.7335L6.24292 17.2523C6.47778 17.3489 6.66382 17.535 6.7605 17.7701L7.27954 19.0242C7.44409 19.4241 7.85864 19.6627 8.28687 19.6063L9.58521 19.4346Z" fill="#344054"/>
</svg>
