<svg width="24" height="24" viewBox="0 0 24 24" fill="none" xmlns="http://www.w3.org/2000/svg">
<path d="M16.9999 5.43402L17.0048 5.46869L16.9887 5.43085L16.9999 5.43402Z" fill="#344054"/>
<path d="M16.707 7.29291C16.3163 6.90228 15.6835 6.90228 15.2929 7.29291L7.29291 15.2929C6.90228 15.6833 6.90228 16.3166 7.29291 16.707C7.68353 17.0976 8.31635 17.0976 8.70697 16.707L16.707 8.70697C17.0976 8.31659 17.0976 7.68329 16.707 7.29291Z" fill="#344054"/>
<path d="M8.99994 7.49994C8.17133 7.49994 7.49994 8.17157 7.49994 8.99994C7.49994 9.82831 8.17133 10.4999 8.99994 10.4999C9.82855 10.4999 10.4999 9.82831 10.4999 8.99994C10.4999 8.17157 9.82855 7.49994 8.99994 7.49994Z" fill="#344054"/>
<path d="M14.9999 13.4999C14.1713 13.4999 13.4999 14.1716 13.4999 14.9999C13.4999 15.8283 14.1713 16.4999 14.9999 16.4999C15.8286 16.4999 16.4999 15.8283 16.4999 14.9999C16.4999 14.1716 15.8286 13.4999 14.9999 13.4999Z" fill="#344054"/>
<path fill-rule="evenodd" clip-rule="evenodd" d="M9.86078 1.2309C9.11761 0.923035 8.28265 0.923035 7.53949 1.2309C6.79633 1.53851 6.20599 2.12909 5.89838 2.87201L5.17572 4.61664C5.07074 4.86884 4.86908 5.06927 4.61664 5.17377L2.8725 5.89618C2.64203 5.99164 2.42426 6.11517 2.22455 6.26337C2.1059 6.3515 1.99359 6.44843 1.88861 6.55341C1.70551 6.73651 1.5473 6.94159 1.41693 7.164C1.34662 7.28387 1.28412 7.40863 1.2309 7.53778C1.07855 7.9057 0.999939 8.30023 0.999939 8.69867C0.999939 9.09686 1.07855 9.49188 1.23138 9.8598L1.95258 11.6064C2.01459 11.7558 2.03998 11.9162 2.02924 12.0744C2.02142 12.1843 1.99603 12.2932 1.95306 12.3967L1.2309 14.1403C0.923767 14.8835 0.924255 15.718 1.23187 16.4606C1.53998 17.2033 2.13031 17.7932 2.87299 18.101L4.61713 18.8234C4.87006 18.9284 5.07123 19.1301 5.17572 19.3832L5.89886 21.1296C6.20697 21.8718 6.7973 22.4616 7.53949 22.769C8.28217 23.0766 9.11615 23.0768 9.85883 22.7697L11.6044 22.0478C11.8583 21.9426 12.1425 21.9423 12.3954 22.0468L14.1386 22.769C14.8818 23.0768 15.7162 23.0766 16.4594 22.769C17.2026 22.4611 17.7929 21.8708 18.101 21.1276L18.8237 19.3823C18.8749 19.259 18.9492 19.1481 19.041 19.0546C19.1376 18.9567 19.2534 18.8781 19.3828 18.8246L21.1269 18.1022C21.4951 17.9499 21.8295 17.7265 22.1113 17.445C22.2158 17.3403 22.3124 17.2282 22.4003 17.1096C22.4311 17.0683 22.4609 17.0263 22.4892 16.9836C22.5991 16.8193 22.6928 16.6442 22.769 16.4609C22.8139 16.352 22.8525 16.2409 22.8842 16.1281C22.9604 15.8591 22.9995 15.5803 22.9995 15.2997C22.9995 14.9013 22.9208 14.5068 22.7685 14.1389L22.0478 12.3959C21.9418 12.1423 21.9418 11.8581 22.0468 11.6044L22.769 9.86053C23.0771 9.11737 23.0771 8.28241 22.769 7.53925C22.4614 6.79633 21.871 6.20575 21.1279 5.89813L19.3828 5.17523C19.1303 5.07025 18.9296 4.86908 18.8251 4.61639L18.8207 4.60541C18.8168 4.59515 18.812 4.58514 18.8071 4.57538L18.102 2.87299C17.7944 2.13007 17.204 1.53973 16.4609 1.23212C15.7182 0.924255 14.8832 0.9245 14.1406 1.23187L12.3959 1.95135C12.1411 2.05707 11.8564 2.05731 11.6035 1.95282L9.86078 1.2309ZM8.60931 3.00409C8.5058 3.01312 8.40277 3.03802 8.30463 3.07855C8.0517 3.18329 7.85101 3.38446 7.74603 3.63739L7.0224 5.38422C6.71381 6.12592 6.12396 6.71478 5.38129 7.02167L3.63812 7.74384C3.56146 7.77557 3.4892 7.8161 3.42279 7.86469C3.38031 7.89594 3.34027 7.93036 3.30267 7.96796C3.25873 8.01166 3.21918 8.05902 3.18402 8.10956C3.14203 8.16986 3.10687 8.2348 3.07855 8.30316C3.05511 8.3598 3.03705 8.41815 3.02386 8.47772C3.00775 8.54999 2.99994 8.62396 2.99994 8.69843C2.99994 8.83417 3.02679 8.96844 3.07904 9.09491L3.79974 10.84C4.10785 11.5834 4.10834 12.4177 3.8017 13.1603L3.07904 14.9045C2.97455 15.1574 2.97455 15.4418 3.07953 15.6945C3.10541 15.757 3.13715 15.8163 3.17426 15.8718C3.20258 15.9147 3.23431 15.9553 3.26898 15.9933C3.37054 16.1052 3.49603 16.1943 3.63812 16.2531L5.38324 16.976C6.12592 17.2844 6.71625 17.8752 7.02338 18.6179L7.74652 20.363C7.8515 20.6157 8.05219 20.8166 8.30511 20.9213C8.55756 21.0261 8.84174 21.0261 9.09467 20.9216L9.89789 20.5893L9.92865 20.5807C9.94623 20.5754 9.96381 20.5693 9.98138 20.562L10.8984 20.1782C11.4062 19.9687 12.2226 19.8749 12.9877 20.1308L14.6293 20.8083C15.0341 20.9765 15.2661 21.0724 15.6874 20.9218C16.1157 20.7685 16.2617 20.3854 16.4516 19.8859L16.5234 19.6992L17.039 18.4648C17.3359 17.8515 17.9531 17.246 18.5766 16.9948L18.6176 16.9743L20.3618 16.2543C20.4872 16.2026 20.601 16.1264 20.6972 16.0305C20.7929 15.9348 20.8691 15.8207 20.9208 15.6955C20.9731 15.57 20.9995 15.4357 20.9995 15.3C20.9995 15.1645 20.9726 15.0292 20.9203 14.904L20.2001 13.1625C19.8906 12.4172 19.8915 11.5815 20.1992 10.8391L20.9213 9.09515C20.9579 9.00677 20.9819 8.91473 20.9931 8.82147C21.0136 8.6474 20.9897 8.46942 20.9213 8.30463C20.8163 8.0517 20.6157 7.85052 20.3622 7.74579L18.6166 7.02264C17.892 6.72162 17.3129 6.15204 16.9999 5.43402C16.9921 5.41766 16.9843 5.40106 16.9775 5.38422L16.2543 3.63861C16.1494 3.38568 15.9487 3.18451 15.6957 3.07977C15.5468 3.01801 15.3867 2.99261 15.2285 3.0036C15.1186 3.01141 15.0097 3.0368 14.9057 3.07977L13.186 3.78876L13.0888 3.82806C12.8207 3.93158 12.5439 3.99506 12.2617 4.01947L12.2548 4.0202L12.267 4.02362L12.1703 4.02948C11.9853 4.04437 11.54 4.05292 11.0175 3.86957L10.9413 3.84369L10.9062 3.82806L10.893 3.82269L10.8398 3.80121L10.6855 3.73724L8.99213 3.03973C8.96429 3.03241 8.93597 3.02606 8.90765 3.02094C8.80951 3.00092 8.70892 2.9953 8.60931 3.00409Z" fill="#344054"/>
</svg>
