<svg width="24" height="24" viewBox="0 0 24 24" fill="none" xmlns="http://www.w3.org/2000/svg">
<path fill-rule="evenodd" clip-rule="evenodd" d="M6.73855 0.999897C6.75955 0.999964 6.78006 1.00003 6.80001 1.00003H17.2C17.22 1.00003 17.2405 0.999964 17.2615 0.999897C17.4883 0.999179 17.7739 0.998276 18.0492 1.07692C18.2877 1.14502 18.5114 1.25688 18.709 1.40678C18.9371 1.57989 19.1077 1.80885 19.2432 1.99078C19.2558 2.00762 19.268 2.02407 19.28 2.04003L20.861 4.14797C20.8752 4.16691 20.8894 4.18591 20.9037 4.20493L21.16 4.54669C21.1735 4.56471 21.1869 4.58256 21.2002 4.60027C21.3984 4.86402 21.5731 5.0967 21.7008 5.36058C21.813 5.59263 21.8948 5.83817 21.9443 6.09113C22.0005 6.3788 22.0003 6.66981 22 6.99967C22 7.02183 22 7.04417 22 7.06669V18.8386C22 19.3657 22 19.8205 21.9694 20.1951C21.9371 20.5904 21.8658 20.9836 21.673 21.362C21.3854 21.9265 20.9265 22.3854 20.362 22.673C19.9836 22.8658 19.5904 22.9372 19.195 22.9695C18.8205 23.0001 18.3657 23 17.8386 23L6.16144 23C5.6343 23 5.17954 23.0001 4.80498 22.9695C4.40963 22.9372 4.01641 22.8658 3.63803 22.673C3.07355 22.3854 2.61461 21.9265 2.32699 21.362C2.13419 20.9836 2.06288 20.5904 2.03058 20.1951C1.99997 19.8205 1.99999 19.3657 2 18.8386L2.00001 7.06669C2.00001 7.04417 1.99999 7.02183 1.99997 6.99967C1.99972 6.66981 1.9995 6.3788 2.05574 6.09113C2.10519 5.83816 2.18703 5.59262 2.29925 5.36058C2.42687 5.0967 2.60165 4.86403 2.79976 4.60029C2.81308 4.58257 2.82649 4.56471 2.84001 4.54669L3.09701 4.20402C3.11104 4.1853 3.12507 4.16659 3.13906 4.14795C3.14534 4.13958 3.1516 4.13123 3.15786 4.12289C3.15857 4.12194 3.15929 4.12098 3.16001 4.12003L4.72001 2.04003C4.73197 2.02407 4.74422 2.00763 4.75678 1.99078C4.89233 1.80885 5.06292 1.57989 5.29106 1.40678C5.48861 1.25688 5.71232 1.14502 5.95078 1.07692C6.22615 0.998276 6.51167 0.999179 6.73855 0.999897ZM6.32001 3.24003L5.00001 5.00003H19L17.68 3.24003C17.5859 3.11451 17.5381 3.05132 17.5011 3.00718C17.5001 3.00596 17.4991 3.00479 17.4982 3.00367C17.4967 3.00359 17.4952 3.0035 17.4936 3.00342C17.4361 3.00035 17.3569 3.00003 17.2 3.00003H6.80001C6.64311 3.00003 6.56388 3.00035 6.50641 3.00342C6.50481 3.0035 6.50329 3.00359 6.50183 3.00367C6.50088 3.00479 6.4999 3.00596 6.49888 3.00718C6.46194 3.05132 6.41414 3.11451 6.32001 3.24003ZM20 6.98924C19.8266 7.00011 19.6283 7.00007 19.4349 7.00003L4.60001 7.00003C4.58839 7.00003 4.57676 7.00003 4.5651 7.00003C4.37167 7.00007 4.17341 7.00011 4.00006 6.98924C4.00002 7.01375 4.00001 7.03954 4.00001 7.06669L4.00001 18.8C4.00001 19.3766 4.00078 19.7489 4.02393 20.0322C4.04613 20.3039 4.08381 20.4046 4.109 20.454C4.20487 20.6422 4.35785 20.7952 4.54602 20.891C4.59546 20.9162 4.69618 20.9539 4.96784 20.9761C5.25118 20.9992 5.62345 21 6.20001 21L17.8 21C18.3766 21 18.7488 20.9992 19.0322 20.9761C19.3038 20.9539 19.4046 20.9162 19.454 20.891C19.6422 20.7952 19.7951 20.6422 19.891 20.454C19.9162 20.4046 19.9539 20.3039 19.9761 20.0322C19.9992 19.7489 20 19.3766 20 18.8V7.06669C20 7.03954 20 7.01375 20 6.98924ZM8.00001 9.00003C8.55229 9.00003 9.00001 9.44774 9.00001 10C9.00001 10.7957 9.31608 11.5587 9.87868 12.1213C10.4413 12.684 11.2044 13 12 13C12.7957 13 13.5587 12.684 14.1213 12.1213C14.6839 11.5587 15 10.7957 15 10C15 9.44774 15.4477 9.00003 16 9.00003C16.5523 9.00003 17 9.44774 17 10C17 11.3261 16.4732 12.5979 15.5355 13.5356C14.5979 14.4732 13.3261 15 12 15C10.6739 15 9.40215 14.4732 8.46447 13.5356C7.52679 12.5979 7.00001 11.3261 7.00001 10C7.00001 9.44774 7.44772 9.00003 8.00001 9.00003Z" fill="#344054"/>
</svg>
