<svg width="24" height="24" viewBox="0 0 24 24" fill="none" xmlns="http://www.w3.org/2000/svg">
<path fill-rule="evenodd" clip-rule="evenodd" d="M11.2243 3.05532C11.0209 3.00649 10.7931 3.00006 10.0118 3.00006L6.00001 3.00006C5.44773 3.00006 5.00001 2.55235 5.00001 2.00006C5.00001 1.44778 5.44773 1.00006 6.00001 1.00006L10.0118 1.00006C10.0462 1.00006 10.0801 1.00005 10.1137 1.00003C10.7487 0.999729 11.2285 0.999501 11.6911 1.11058C12.0993 1.20857 12.4895 1.37019 12.8474 1.5895C13.2531 1.83813 13.5922 2.17756 14.041 2.62678C14.0647 2.65049 14.0887 2.67451 14.113 2.69884L21.7071 10.293C22.0976 10.6835 22.0976 11.3166 21.7071 11.7072C21.3166 12.0977 20.6834 12.0977 20.2929 11.7072L12.6988 4.11306C12.1463 3.56054 11.9807 3.40408 11.8024 3.29478C11.6234 3.18513 11.4283 3.10432 11.2243 3.05532ZM9.90503 6.52769C9.81671 6.50649 9.71131 6.50006 9.17453 6.50006H6.20001C5.62346 6.50006 5.25118 6.50084 4.96785 6.52399C4.69618 6.54619 4.59546 6.58386 4.54602 6.60906C4.35786 6.70493 4.20488 6.85791 4.109 7.04607C4.08381 7.09552 4.04613 7.19624 4.02394 7.4679C4.00079 7.75124 4.00001 8.12351 4.00001 8.70006L4.00001 10.6746C4.00001 11.2114 4.00644 11.3168 4.02764 11.4051C4.05214 11.5071 4.09254 11.6047 4.14737 11.6941C4.19483 11.7716 4.26481 11.8507 4.64438 12.2302L12.4444 20.0302C12.8521 20.4379 13.1158 20.7006 13.3326 20.8846C13.5404 21.061 13.6382 21.1055 13.691 21.1227C13.8918 21.188 14.1082 21.188 14.309 21.1227C14.3618 21.1055 14.4597 21.061 14.6675 20.8846C14.8842 20.7006 15.148 20.4379 15.5556 20.0302L18.0302 17.5557C18.4378 17.148 18.7005 16.8842 18.8845 16.6675C19.0609 16.4597 19.1055 16.3619 19.1226 16.3091C19.1879 16.1082 19.1879 15.8919 19.1226 15.691C19.1055 15.6383 19.0609 15.5404 18.8845 15.3326C18.7005 15.1159 18.4378 14.8521 18.0302 14.4444L10.7302 7.14443C10.3506 6.76487 10.2715 6.69488 10.1941 6.64742C10.1046 6.59259 10.0071 6.55219 9.90503 6.52769ZM9.25783 4.50001C9.66473 4.49963 10.0235 4.4993 10.3719 4.58295C10.678 4.65644 10.9707 4.77766 11.2391 4.94214C11.5446 5.12938 11.7981 5.38328 12.0855 5.67127C12.105 5.69076 12.1246 5.71042 12.1444 5.73022L19.4716 13.0574C19.8444 13.4302 20.166 13.7517 20.4092 14.0383C20.6659 14.3407 20.8935 14.6691 21.0248 15.073C21.2205 15.6755 21.2205 16.3246 21.0248 16.9271C20.8935 17.331 20.6659 17.6595 20.4092 17.9619C20.166 18.2484 19.8444 18.5699 19.4717 18.9426L16.9426 21.4717C16.5699 21.8445 16.2483 22.166 15.9618 22.4092C15.6594 22.666 15.3309 22.8936 14.9271 23.0248C14.3245 23.2206 13.6755 23.2206 13.073 23.0248C12.6691 22.8936 12.3406 22.666 12.0382 22.4092C11.7517 22.166 11.4302 21.8445 11.0575 21.4717L3.23016 13.6444C3.21036 13.6246 3.19071 13.605 3.17122 13.5856C2.88323 13.2981 2.62932 13.0447 2.44209 12.7391C2.2776 12.4707 2.15639 12.1781 2.0829 11.872C1.99925 11.5235 1.99958 11.1648 1.99996 10.7579C1.99998 10.7303 2.00001 10.7026 2.00001 10.6746L2.00001 8.66152C1.99999 8.13437 1.99998 7.67961 2.03058 7.30503C2.06288 6.90969 2.1342 6.51647 2.32699 6.13809C2.61461 5.57361 3.07355 5.11466 3.63804 4.82704C4.01642 4.63425 4.40964 4.56293 4.80498 4.53063C5.17955 4.50003 5.63432 4.50004 6.16147 4.50006L9.17453 4.50006C9.20252 4.50006 9.23029 4.50004 9.25783 4.50001Z" fill="#344054"/>
</svg>
