<svg width="24" height="24" viewBox="0 0 24 24" fill="none" xmlns="http://www.w3.org/2000/svg">
<path fill-rule="evenodd" clip-rule="evenodd" d="M8.46428 3.5C8.21441 3.5 7.97105 3.6009 7.78877 3.78649C7.60589 3.9727 7.5 4.22903 7.5 4.5C7.5 4.77097 7.60589 5.0273 7.78877 5.21351C7.97085 5.39889 8.21386 5.49977 8.46344 5.5C8.46316 5.5 8.46372 5.5 8.46344 5.5L10.6342 5.5C10.5619 5.32865 10.4786 5.15116 10.3835 4.97527C9.89768 4.07581 9.27397 3.5 8.46428 3.5ZM13.3657 5.5L15.5357 5.5C15.5356 5.5 15.5359 5.5 15.5357 5.5C15.7854 5.49989 16.029 5.399 16.2112 5.21351C16.3941 5.0273 16.5 4.77097 16.5 4.5C16.5 4.22903 16.3941 3.9727 16.2112 3.78649C16.0289 3.6009 15.7856 3.5 15.5357 3.5C14.726 3.5 14.1023 4.07581 13.6164 4.97527C13.5214 5.15116 13.4381 5.32865 13.3657 5.5ZM15.5357 7.5C15.5355 7.5 15.536 7.5 15.5357 7.5H8.46428C8.46378 7.5 8.46328 7.5 8.46279 7.5H6.12116C5.74255 7.5 5.52506 7.50094 5.3696 7.51479C5.36196 7.51548 5.35479 7.51617 5.34808 7.51686C5.34926 7.5235 5.35056 7.53059 5.35201 7.53812C5.38139 7.6914 5.44024 7.90079 5.54425 8.26483L5.7543 9L18.2457 9L18.4557 8.26483C18.5598 7.90079 18.6186 7.6914 18.648 7.53812C18.6494 7.53059 18.6507 7.5235 18.6519 7.51686C18.6452 7.51617 18.638 7.51548 18.6304 7.51479C18.4749 7.50094 18.2574 7.5 17.8788 7.5H15.5357ZM18.4338 11L5.56619 11L3.99334 13.6214C3.54823 14.3633 3.42512 14.5836 3.36125 14.8042C3.29716 15.0256 3.27183 15.2564 3.28636 15.4864C3.30084 15.7157 3.37324 15.9574 3.64681 16.7782L3.85464 17.4017C4.27504 18.6628 4.41427 19.0274 4.62804 19.283C4.84284 19.5399 5.11867 19.7387 5.43026 19.8612C5.74038 19.9832 6.13025 20 7.45964 20L16.5404 20C17.8697 20 18.2596 19.9832 18.5697 19.8612C18.8813 19.7387 19.1572 19.5399 19.372 19.283C19.5857 19.0274 19.725 18.6628 20.1453 17.4017L20.3532 16.7782C20.6268 15.9574 20.6992 15.7157 20.7136 15.4864C20.7282 15.2564 20.7028 15.0256 20.6387 14.8042C20.5749 14.5836 20.4518 14.3633 20.0067 13.6214L18.4338 11ZM3.91928 9.85754L3.6212 8.81428C3.61775 8.80219 3.6143 8.79013 3.61086 8.7781C3.52085 8.46318 3.43603 8.1664 3.38777 7.91464C3.33644 7.64687 3.30034 7.31128 3.40165 6.95416C3.53779 6.4743 3.84831 6.06263 4.2723 5.79991C4.58785 5.60439 4.92044 5.5469 5.19202 5.52269C5.33642 5.50982 5.49788 5.50424 5.67016 5.50182C5.55843 5.18262 5.5 4.84404 5.5 4.5C5.5 3.71011 5.80801 2.94902 6.36187 2.38508C6.91634 1.82053 7.67223 1.5 8.46428 1.5C10.259 1.5 11.3725 2.71845 12 3.77223C12.6275 2.71845 13.741 1.5 15.5357 1.5C16.3278 1.5 17.0837 1.82053 17.6381 2.38508C18.192 2.94902 18.5 3.71011 18.5 4.5C18.5 4.84404 18.4416 5.18262 18.3298 5.50183C18.5021 5.50424 18.6636 5.50982 18.808 5.52269C19.0796 5.5469 19.4121 5.60439 19.7277 5.79991C20.1517 6.06263 20.4622 6.4743 20.5983 6.95416C20.6997 7.31128 20.6636 7.64687 20.6122 7.91464C20.564 8.1664 20.4791 8.46316 20.3891 8.77806L20.0807 9.85755L21.7216 12.5924C21.7413 12.6252 21.7607 12.6576 21.7799 12.6895C22.1414 13.2913 22.4145 13.7458 22.5599 14.2481C22.688 14.6909 22.7387 15.1525 22.7097 15.6125C22.6767 16.1344 22.5087 16.6373 22.2864 17.3033C22.2746 17.3386 22.2626 17.3744 22.2505 17.4106L22.0427 18.0341C22.0237 18.0912 22.005 18.1475 21.9865 18.2031C21.6492 19.2176 21.3953 19.9811 20.9062 20.566C20.4766 21.0797 19.9249 21.4774 19.3017 21.7225C18.5922 22.0015 17.7875 22.0009 16.7184 22.0001C16.6599 22 16.6005 22 16.5404 22L7.45964 22C7.39946 22 7.34011 22 7.28155 22.0001C6.21246 22.0009 5.40782 22.0015 4.69825 21.7224C4.07507 21.4774 3.5234 21.0797 3.09381 20.566C2.60468 19.9811 2.35081 19.2176 2.01351 18.2031C1.99503 18.1475 1.97631 18.0912 1.95728 18.0341L1.74945 17.4106C1.73736 17.3744 1.72541 17.3386 1.71361 17.3032C1.49125 16.6373 1.32331 16.1344 1.29034 15.6125C1.26127 15.1525 1.31194 14.6909 1.44012 14.2481C1.58551 13.7458 1.85856 13.2913 2.22007 12.6895C2.23925 12.6576 2.25868 12.6252 2.27835 12.5924L3.91928 9.85754Z" fill="#344054"/>
</svg>
