<svg width="24" height="24" viewBox="0 0 24 24" fill="none" xmlns="http://www.w3.org/2000/svg">
<path fill-rule="evenodd" clip-rule="evenodd" d="M11.5971 1.18496C11.8629 1.13029 12.1371 1.13029 12.4029 1.18496C12.7102 1.24816 12.9848 1.40199 13.2032 1.52428C13.2235 1.53567 13.2433 1.54678 13.2627 1.55753L20.6627 5.66864C20.6831 5.68 20.7042 5.69161 20.7258 5.70351C20.9569 5.83082 21.2476 5.99089 21.4707 6.23307C21.6637 6.44244 21.8097 6.6906 21.899 6.96096C22.0023 7.27366 22.0011 7.60544 22.0002 7.86931C22.0001 7.89397 22 7.91804 22 7.94145V16.0586C22 16.082 22.0001 16.106 22.0002 16.1307C22.0011 16.3946 22.0023 16.7263 21.899 17.039C21.8097 17.3094 21.6637 17.5576 21.4707 17.7669C21.2476 18.0091 20.9569 18.1692 20.7258 18.2965C20.7042 18.3084 20.6831 18.32 20.6627 18.3314L13.2627 22.4425C13.2433 22.4532 13.2235 22.4643 13.2032 22.4757C12.9848 22.598 12.7102 22.7518 12.4029 22.815C12.1371 22.8697 11.8629 22.8697 11.5971 22.815C11.2898 22.7518 11.0152 22.598 10.7968 22.4757C10.7765 22.4643 10.7567 22.4532 10.7373 22.4425L3.33733 18.3314C3.31687 18.32 3.2958 18.3084 3.2742 18.2965C3.04306 18.1692 2.75244 18.0091 2.52927 17.7669C2.33632 17.5576 2.19029 17.3094 2.10097 17.039C1.99765 16.7263 1.99886 16.3946 1.99982 16.1307C1.99991 16.106 2 16.082 2 16.0586V7.94145C2 7.91804 1.99991 7.89398 1.99982 7.86932C1.99886 7.60544 1.99765 7.27366 2.10097 6.96096C2.19029 6.69061 2.33631 6.44244 2.52927 6.23307C2.75244 5.99089 3.04306 5.83082 3.27419 5.70351C3.29579 5.69161 3.31687 5.68 3.33733 5.66864L10.7373 1.55753C10.7567 1.54678 10.7765 1.53567 10.7968 1.52428C11.0152 1.40198 11.2898 1.24816 11.5971 1.18496ZM12 3.14899C11.9985 3.14971 11.9969 3.15048 11.9952 3.15128C11.9375 3.17911 11.8602 3.22165 11.7086 3.30584L4.30861 7.41695C4.14866 7.50581 4.067 7.55166 4.0097 7.58816C4.00801 7.58924 4.0064 7.59027 4.00486 7.59126C4.00474 7.59309 4.00462 7.595 4.0045 7.597C4.00042 7.66481 4 7.75847 4 7.94145V16.0586C4 16.2415 4.00042 16.3352 4.0045 16.403C4.00462 16.405 4.00474 16.4069 4.00486 16.4087C4.0064 16.4097 4.00801 16.4108 4.0097 16.4118C4.067 16.4483 4.14866 16.4942 4.30861 16.583L11.7086 20.6942C11.8602 20.7784 11.9375 20.8209 11.9952 20.8487C11.9969 20.8495 11.9985 20.8503 12 20.851C12.0015 20.8503 12.0031 20.8495 12.0048 20.8487C12.0625 20.8209 12.1398 20.7783 12.2914 20.6942L19.6914 16.583C19.8513 16.4942 19.933 16.4483 19.9903 16.4118C19.992 16.4108 19.9936 16.4097 19.9951 16.4087C19.9953 16.4069 19.9954 16.405 19.9955 16.403C19.9996 16.3352 20 16.2415 20 16.0586V7.94145C20 7.75847 19.9996 7.66481 19.9955 7.597C19.9954 7.595 19.9953 7.59309 19.9951 7.59126C19.9936 7.59027 19.992 7.58924 19.9903 7.58816C19.933 7.55166 19.8513 7.50581 19.6914 7.41695L12.2914 3.30584C12.1398 3.22165 12.0625 3.17911 12.0048 3.15128C12.0031 3.15048 12.0015 3.14971 12 3.14899ZM12 7C12.5523 7 13 7.44772 13 8V12C13 12.5523 12.5523 13 12 13C11.4477 13 11 12.5523 11 12V8C11 7.44772 11.4477 7 12 7ZM11 16C11 15.4477 11.4477 15 12 15H12.01C12.5623 15 13.01 15.4477 13.01 16C13.01 16.5523 12.5623 17 12.01 17H12C11.4477 17 11 16.5523 11 16Z" fill="#344054"/>
</svg>
