<svg width="24" height="24" viewBox="0 0 24 24" fill="none" xmlns="http://www.w3.org/2000/svg">
<path fill-rule="evenodd" clip-rule="evenodd" d="M8.4717 0.999908C8.48915 0.999955 8.50617 1 8.52274 1H15.4773C15.4938 1 15.5109 0.999955 15.5283 0.999908C15.7182 0.999401 15.9573 0.998762 16.1927 1.05526C16.3967 1.10425 16.5918 1.18506 16.7708 1.29472C16.9771 1.42117 17.1458 1.59072 17.2797 1.72537C17.292 1.73774 17.304 1.74981 17.3157 1.76152L22.2385 6.68426C22.2502 6.69599 22.2623 6.708 22.2746 6.7203C22.4093 6.85423 22.5788 7.02287 22.7053 7.22922C22.8149 7.40816 22.8957 7.60325 22.9447 7.80732C23.0012 8.04265 23.0006 8.28179 23.0001 8.4717C23 8.48914 23 8.50617 23 8.52274V15.4773C23 15.4938 23 15.5109 23.0001 15.5283C23.0006 15.7182 23.0012 15.9573 22.9447 16.1927C22.8957 16.3968 22.8149 16.5918 22.7053 16.7708C22.5788 16.9771 22.4093 17.1458 22.2746 17.2797C22.2623 17.292 22.2502 17.304 22.2385 17.3157L17.3157 22.2385C17.304 22.2502 17.292 22.2623 17.2797 22.2746C17.1458 22.4093 16.9771 22.5788 16.7708 22.7053C16.5918 22.8149 16.3968 22.8957 16.1927 22.9447C15.9573 23.0012 15.7182 23.0006 15.5283 23.0001C15.5109 23 15.4938 23 15.4773 23H8.52274C8.50617 23 8.48914 23 8.4717 23.0001C8.28179 23.0006 8.04265 23.0012 7.80732 22.9447C7.60325 22.8957 7.40816 22.8149 7.22922 22.7053C7.02287 22.5788 6.85423 22.4093 6.7203 22.2746C6.708 22.2623 6.69599 22.2502 6.68426 22.2385L1.76152 17.3157C1.74981 17.304 1.73774 17.292 1.72537 17.2797C1.59073 17.1458 1.42118 16.9771 1.29472 16.7708C1.18506 16.5918 1.10425 16.3967 1.05526 16.1927C0.998762 15.9573 0.999401 15.7182 0.999908 15.5283C0.999955 15.5109 1 15.4938 1 15.4773V8.52274C1 8.50617 0.999955 8.48915 0.999908 8.4717C0.999401 8.28179 0.998762 8.04265 1.05526 7.80732C1.10425 7.60325 1.18506 7.40816 1.29472 7.22922C1.42117 7.02286 1.59072 6.85422 1.72537 6.72029C1.73773 6.70799 1.74981 6.69598 1.76152 6.68426L6.68426 1.76152C6.69598 1.74981 6.70799 1.73773 6.72029 1.72537C6.85422 1.59072 7.02286 1.42117 7.22922 1.29472C7.40816 1.18506 7.60325 1.10425 7.80732 1.05526C8.04265 0.998762 8.28179 0.999401 8.4717 0.999908ZM8.27528 3.00258C8.27443 3.00335 8.27355 3.00416 8.27263 3.005C8.23751 3.03704 8.19111 3.08311 8.09848 3.17574L3.17574 8.09848C3.08311 8.19111 3.03704 8.23751 3.005 8.27263C3.00416 8.27355 3.00335 8.27443 3.00258 8.27528C3.00252 8.27643 3.00247 8.27762 3.00241 8.27887C3.00024 8.32636 3 8.39174 3 8.52274V15.4773C3 15.6083 3.00024 15.6736 3.00241 15.7211C3.00247 15.7224 3.00252 15.7236 3.00258 15.7247C3.00335 15.7256 3.00416 15.7265 3.005 15.7274C3.03704 15.7625 3.08311 15.8089 3.17574 15.9015L8.09848 20.8243C8.19111 20.9169 8.23751 20.963 8.27263 20.995C8.27355 20.9958 8.27443 20.9966 8.27528 20.9974C8.27643 20.9975 8.27762 20.9975 8.27887 20.9976C8.32636 20.9998 8.39174 21 8.52274 21H15.4773C15.6083 21 15.6736 20.9998 15.7211 20.9976C15.7224 20.9975 15.7236 20.9975 15.7247 20.9974C15.7256 20.9966 15.7265 20.9958 15.7274 20.995C15.7625 20.963 15.8089 20.9169 15.9015 20.8243L20.8243 15.9015C20.9169 15.8089 20.963 15.7625 20.995 15.7274C20.9958 15.7265 20.9966 15.7256 20.9974 15.7247C20.9975 15.7236 20.9975 15.7224 20.9976 15.7211C20.9998 15.6736 21 15.6083 21 15.4773V8.52274C21 8.39174 20.9998 8.32636 20.9976 8.27887C20.9975 8.27762 20.9975 8.27643 20.9974 8.27528C20.9966 8.27443 20.9958 8.27355 20.995 8.27263C20.963 8.23751 20.9169 8.19111 20.8243 8.09848L15.9015 3.17574C15.8089 3.0831 15.7625 3.03704 15.7274 3.005C15.7265 3.00416 15.7256 3.00335 15.7247 3.00258C15.7236 3.00252 15.7224 3.00247 15.7211 3.00241C15.6736 3.00024 15.6083 3 15.4773 3H8.52274C8.39174 3 8.32636 3.00024 8.27887 3.00241C8.27762 3.00247 8.27643 3.00252 8.27528 3.00258ZM12 7C12.5523 7 13 7.44772 13 8V12C13 12.5523 12.5523 13 12 13C11.4477 13 11 12.5523 11 12V8C11 7.44772 11.4477 7 12 7ZM11 16C11 15.4477 11.4477 15 12 15H12.01C12.5623 15 13.01 15.4477 13.01 16C13.01 16.5523 12.5623 17 12.01 17H12C11.4477 17 11 16.5523 11 16Z" fill="#344054"/>
</svg>
