<svg width="24" height="24" viewBox="0 0 24 24" fill="none" xmlns="http://www.w3.org/2000/svg">
<path fill-rule="evenodd" clip-rule="evenodd" d="M11.9997 3C11.1713 3 10.4997 3.67157 10.4997 4.5C10.4997 4.72108 10.5472 4.93048 10.6328 5.11911C11.0809 5.04027 11.5387 5 11.9997 5C12.4608 5 12.9186 5.04027 13.3667 5.11911C13.4523 4.93048 13.4997 4.72109 13.4997 4.5C13.4997 3.67157 12.8282 3 11.9997 3ZM15.2804 5.72147C15.4221 5.34107 15.4997 4.92938 15.4997 4.5C15.4997 2.567 13.9327 1 11.9997 1C10.0667 1 8.49974 2.567 8.49974 4.5C8.49974 4.92938 8.57733 5.34107 8.71906 5.72147C8.13315 5.99625 7.58768 6.34658 7.10216 6.76736C5.77753 7.91537 4.99974 9.50571 4.99974 11.2C4.99974 13.3077 4.47948 14.7999 3.86702 15.8357L3.85681 15.853C3.46302 16.5189 3.15546 17.0391 2.94917 17.4125C2.84605 17.5991 2.75532 17.7721 2.68935 17.9203C2.65664 17.9937 2.62056 18.0819 2.59244 18.1756C2.57148 18.2454 2.51989 18.4265 2.54134 18.6459C2.55312 18.7664 2.58015 19.0057 2.71948 19.25C2.85882 19.4942 3.05105 19.6393 3.14877 19.7108C3.30801 19.8272 3.46737 19.8772 3.54673 19.8991C3.64039 19.9251 3.7314 19.9404 3.80686 19.9505C3.95774 19.9707 4.13343 19.981 4.31654 19.9873C4.68157 20 5.19197 20 5.83509 20H8.12575C8.5698 21.7252 10.1359 23 11.9997 23C13.8636 23 15.4297 21.7252 15.8737 20H18.1644C18.8075 20 19.3179 20 19.6829 19.9873C19.866 19.981 20.0417 19.9707 20.1926 19.9505C20.2681 19.9404 20.3591 19.9251 20.4527 19.8991C20.5321 19.8772 20.6915 19.8272 20.8507 19.7108C20.9484 19.6393 21.1407 19.4942 21.28 19.25C21.4193 19.0057 21.4464 18.7664 21.4581 18.6459C21.4796 18.4265 21.428 18.2454 21.407 18.1756C21.3789 18.0819 21.3428 17.9937 21.3101 17.9203C21.2442 17.7721 21.1534 17.5991 21.0503 17.4125C20.844 17.0391 20.5364 16.5189 20.1426 15.8528L20.1325 15.8357C19.52 14.7999 18.9997 13.3077 18.9997 11.2C18.9997 9.50571 18.2219 7.91537 16.8973 6.76736C16.4118 6.34658 15.8663 5.99625 15.2804 5.72147ZM13.5139 7.19808C13.5266 7.2018 13.5393 7.20526 13.5521 7.20846C14.3215 7.42057 15.0209 7.78776 15.5874 8.27873C16.5132 9.08109 16.9997 10.136 16.9997 11.2C16.9997 13.6559 17.6112 15.5012 18.4109 16.8537C18.686 17.3189 18.9089 17.696 19.0833 17.998C18.824 18 18.5127 18 18.1415 18H5.85792C5.48678 18 5.17547 18 4.91619 17.998C5.09056 17.696 5.31351 17.3189 5.58858 16.8537C6.38826 15.5012 6.99974 13.6559 6.99974 11.2C6.99974 10.136 7.48623 9.08109 8.41203 8.27873C8.97853 7.78776 9.67797 7.42057 10.4474 7.20846C10.4602 7.20526 10.4729 7.2018 10.4856 7.19809C10.9684 7.06859 11.4783 7 11.9997 7C12.5212 7 13.031 7.06858 13.5139 7.19808ZM10.2673 20C10.6131 20.5978 11.2595 21 11.9997 21C12.74 21 13.3864 20.5978 13.7322 20H10.2673Z" fill="#344054"/>
</svg>
