<svg width="24" height="24" viewBox="0 0 24 24" fill="none" xmlns="http://www.w3.org/2000/svg">
<path fill-rule="evenodd" clip-rule="evenodd" d="M7.05026 3.05025C8.36302 1.7375 10.1435 1 12 1C12.3935 1 12.7837 1.03314 13.1667 1.09788C13.7112 1.18993 14.0781 1.706 13.986 2.25056C13.894 2.79512 13.3779 3.16195 12.8333 3.06991C12.5598 3.02367 12.2812 3 12 3C10.6739 3 9.40216 3.52678 8.46448 4.46447C7.5268 5.40215 7.00001 6.67392 7.00001 8C7.00001 11.2677 6.17296 13.5681 5.19872 15.1337C4.98588 15.4758 4.80824 15.7614 4.6631 15.9988C4.86967 16 5.10999 16 5.38887 16H18.6112C18.89 16 19.1304 16 19.337 15.9988C19.1919 15.7614 19.0143 15.476 18.8015 15.134C17.9372 13.7451 17.1864 11.7742 17.0299 9.05751C16.9982 8.50614 17.4194 8.03342 17.9708 8.00166C18.5221 7.96989 18.9948 8.39112 19.0266 8.94249C19.1644 11.3345 19.8168 12.9802 20.4995 14.0773L20.5113 14.0962C20.8686 14.6704 21.1511 15.1243 21.3415 15.4547C21.4369 15.6202 21.5238 15.7797 21.5882 15.9214C21.6203 15.9922 21.6563 16.0789 21.6844 16.1732C21.7077 16.2515 21.7521 16.4187 21.7354 16.6222C21.7243 16.7591 21.6964 16.9928 21.5622 17.2343C21.4281 17.4758 21.2443 17.6229 21.1341 17.7047C20.8838 17.8904 20.5964 17.9329 20.5004 17.947L20.496 17.9477C20.3486 17.9695 20.1813 17.9804 20.0125 17.9869C19.6773 18 19.2131 18 18.6359 18H5.36416C4.78694 18 4.32279 18 3.98754 17.9869C3.81878 17.9804 3.65151 17.9695 3.5041 17.9477L3.49967 17.947C3.40374 17.9329 3.11631 17.8904 2.86602 17.7047C2.75578 17.623 2.57205 17.4758 2.4379 17.2343C2.30375 16.9928 2.27585 16.7591 2.26467 16.6223C2.24802 16.4187 2.29242 16.2515 2.31573 16.1733C2.34382 16.079 2.37976 15.9922 2.41189 15.9215C2.47625 15.7797 2.56319 15.6202 2.65861 15.4547C2.84903 15.1243 3.13149 14.6703 3.48878 14.0961L3.50063 14.0771C4.26801 12.8439 5.00001 10.9127 5.00001 8C5.00001 6.14348 5.73751 4.36301 7.05026 3.05025ZM14 5C14 4.44772 14.4477 4 15 4H21C21.5523 4 22 4.44772 22 5C22 5.55228 21.5523 6 21 6H15C14.4477 6 14 5.55228 14 5ZM8.60445 20.3383C8.96991 19.9242 9.60185 19.8848 10.0159 20.2503C10.5454 20.7176 11.2385 21 12 21C12.7615 21 13.4546 20.7176 13.9841 20.2503C14.3982 19.8848 15.0301 19.9242 15.3956 20.3383C15.761 20.7523 15.7216 21.3843 15.3076 21.7497C14.4268 22.5272 13.2674 23 12 23C10.7326 23 9.57327 22.5272 8.69245 21.7497C8.27838 21.3843 8.23898 20.7523 8.60445 20.3383Z" fill="#344054"/>
</svg>
