<svg width="24" height="24" viewBox="0 0 24 24" fill="none" xmlns="http://www.w3.org/2000/svg">
<path fill-rule="evenodd" clip-rule="evenodd" d="M20.0322 3.02393C19.7488 3.00078 19.3765 3 18.8 3H18V11.9999C18.0134 12 18.0267 12 18.0398 12H18.8C19.3765 12 19.7488 11.9992 20.0322 11.9761C20.3038 11.9539 20.4045 11.9162 20.454 11.891C20.6421 11.7951 20.7951 11.6422 20.891 11.454C20.9162 11.4045 20.9539 11.3038 20.9761 11.0322C20.9992 10.7488 21 10.3766 21 9.8V5.2C21 4.62345 20.9992 4.25117 20.9761 3.96784C20.9539 3.69617 20.9162 3.59545 20.891 3.54601C20.7951 3.35785 20.6421 3.20487 20.454 3.10899C20.4045 3.0838 20.3038 3.04612 20.0322 3.02393ZM16 12.8778V3H8.118C7.37211 3 6.86839 3.00067 6.47596 3.03054C6.09604 3.05946 5.89497 3.11183 5.74829 3.17829C5.40151 3.33543 5.10677 3.58828 4.89873 3.90714C4.81074 4.04201 4.72841 4.23278 4.64206 4.60388C4.55286 4.9872 4.4756 5.48496 4.36219 6.22218L3.83911 9.62218C3.68986 10.5923 3.58851 11.2568 3.55412 11.7726C3.52036 12.2789 3.56089 12.5365 3.62813 12.7127C3.79356 13.1465 4.1047 13.5091 4.50821 13.7386C4.67224 13.8318 4.92062 13.9111 5.42613 13.9547C5.94122 13.9991 6.61341 14 7.59492 14L8.43187 14C8.68426 14 8.93005 13.9999 9.13822 14.0169C9.36681 14.0356 9.63655 14.0797 9.90797 14.218C10.2843 14.4097 10.5903 14.7157 10.782 15.092C10.9203 15.3634 10.9644 15.6332 10.983 15.8618C11 16.0699 11 16.3157 11 16.5681L11 19.5342C11 20.3054 11.5957 20.9376 12.352 20.9956L15.6639 13.544C15.6743 13.5205 15.685 13.4962 15.696 13.4713C15.7757 13.2901 15.8693 13.077 16 12.8778ZM18.8385 0.999999C19.3657 0.999981 19.8204 0.999966 20.195 1.03057C20.5904 1.06287 20.9836 1.13419 21.362 1.32698C21.9264 1.6146 22.3854 2.07354 22.673 2.63803C22.8658 3.01641 22.9371 3.40963 22.9694 3.80497C23 4.17954 23 4.63429 23 5.16143V9.83857C23 10.3657 23 10.8205 22.9694 11.195C22.9371 11.5904 22.8658 11.9836 22.673 12.362C22.3854 12.9265 21.9264 13.3854 21.362 13.673C20.9836 13.8658 20.5904 13.9371 20.195 13.9694C19.8204 14 19.3657 14 18.8385 14H18.0398C17.839 14 17.7353 14.0005 17.6602 14.0053C17.6579 14.0055 17.6557 14.0056 17.6536 14.0058C17.6526 14.0076 17.6516 14.0096 17.6505 14.0116C17.6156 14.0782 17.573 14.1729 17.4915 14.3563L14.1307 21.918C13.8383 22.576 13.1858 23 12.4658 23C10.5517 23 8.99999 21.4483 8.99999 19.5342V16.6C8.99999 16.3035 8.99921 16.1412 8.98968 16.0246C8.98931 16.02 8.98892 16.0156 8.98854 16.0114C8.98439 16.0111 8.98 16.0107 8.97535 16.0103C8.85877 16.0008 8.69651 16 8.39999 16H7.55016C6.6244 16 5.8655 16 5.25421 15.9473C4.62352 15.8929 4.04519 15.776 3.51961 15.4772C2.71257 15.0183 2.0903 14.2929 1.75945 13.4255C1.54398 12.8606 1.51643 12.2712 1.55855 11.6396C1.59937 11.0274 1.71478 10.2773 1.85556 9.36231L2.39116 5.88089C2.4974 5.19025 2.58561 4.61685 2.6941 4.1506C2.80738 3.66379 2.95764 3.2221 3.22372 2.81429C3.6398 2.17656 4.22927 1.67085 4.92284 1.35658C5.36637 1.15561 5.82578 1.07425 6.32415 1.03631C6.80148 0.999978 7.38162 0.999988 8.08039 0.999999L18.8385 0.999999Z" fill="#344054"/>
</svg>
