<svg width="24" height="24" viewBox="0 0 24 24" fill="none" xmlns="http://www.w3.org/2000/svg">
<path d="M1.33995 14.7243C1.21277 14.2251 1.14918 13.9755 1.23102 13.7077C1.29634 13.494 1.47704 13.2615 1.66802 13.1454C1.90732 13 2.20338 13 2.7955 13L13.5858 13L11.2929 15.2929C10.9024 15.6834 10.9024 16.3166 11.2929 16.7071C11.6834 17.0976 12.3166 17.0976 12.7071 16.7071L16.7071 12.7071C17.0976 12.3166 17.0976 11.6834 16.7071 11.2929L12.7071 7.29289C12.3166 6.90237 11.6834 6.90237 11.2929 7.29289C10.9024 7.68342 10.9024 8.31658 11.2929 8.70711L13.5858 11L2.7955 11C2.20338 11 1.90732 11 1.66802 10.8546C1.47704 10.7385 1.29634 10.506 1.23102 10.2923C1.14918 10.0245 1.21277 9.77489 1.33995 9.27574C2.55209 4.51831 6.86517 1 12 1C18.0751 1 23 5.92487 23 12C23 18.0751 18.0751 23 12 23C6.86517 23 2.55209 19.4817 1.33995 14.7243Z" fill="#344054"/>
</svg>
