<svg width="24" height="24" viewBox="0 0 24 24" fill="none" xmlns="http://www.w3.org/2000/svg">
<path fill-rule="evenodd" clip-rule="evenodd" d="M11.2929 2.29289C11.6834 1.90237 12.3166 1.90237 12.7071 2.29289L19.7071 9.29289C19.9931 9.57889 20.0787 10.009 19.9239 10.3827C19.7691 10.7564 19.4045 11 19 11H16L16 20.2231C16.0001 20.3422 16.0001 20.4845 15.9899 20.6098C15.978 20.755 15.9476 20.963 15.8365 21.181C15.6927 21.4632 15.4632 21.6927 15.181 21.8365C14.963 21.9476 14.755 21.978 14.6098 21.9899C14.4845 22.0001 14.3423 22.0001 14.2231 22C12.741 21.9993 11.2589 21.9993 9.77685 22C9.65773 22.0001 9.51548 22.0001 9.39017 21.9899C9.24495 21.978 9.03696 21.9476 8.81901 21.8365C8.53677 21.6927 8.3073 21.4632 8.16349 21.181C8.05244 20.963 8.022 20.755 8.01013 20.6098C7.99989 20.4845 7.99995 20.3423 7.99999 20.2231L8 11H5C4.59554 11 4.2309 10.7564 4.07612 10.3827C3.92134 10.009 4.00689 9.57889 4.29289 9.29289L11.2929 2.29289Z" fill="#344054"/>
</svg>
