<svg width="24" height="24" viewBox="0 0 24 24" fill="none" xmlns="http://www.w3.org/2000/svg">
<path d="M9.27574 1.33989C9.77489 1.21271 10.0245 1.14912 10.2923 1.23096C10.506 1.29628 10.7385 1.47698 10.8546 1.66795C11 1.90726 11 2.20332 11 2.79544L11 13.5857L8.70711 11.2928C8.31658 10.9023 7.68342 10.9023 7.29289 11.2928C6.90237 11.6833 6.90237 12.3165 7.29289 12.707L11.2929 16.707C11.6834 17.0976 12.3166 17.0976 12.7071 16.707L16.7071 12.707C17.0976 12.3165 17.0976 11.6833 16.7071 11.2928C16.3166 10.9023 15.6834 10.9023 15.2929 11.2928L13 13.5857L13 2.79544C13 2.20332 13 1.90726 13.1454 1.66795C13.2615 1.47698 13.494 1.29628 13.7077 1.23096C13.9755 1.14912 14.2251 1.21271 14.7243 1.33989C19.4817 2.55203 23 6.86511 23 11.9999C23 18.0751 18.0751 22.9999 12 22.9999C5.92487 22.9999 1 18.0751 1 11.9999C1 6.86511 4.51831 2.55203 9.27574 1.33989Z" fill="#344054"/>
</svg>
