<svg width="24" height="24" viewBox="0 0 24 24" fill="none" xmlns="http://www.w3.org/2000/svg">
<path d="M21.7655 6.69999C22.299 6.84293 22.6156 7.39127 22.4726 7.92473C22.3297 8.4582 21.7813 8.77478 21.2479 8.63184L20.8423 8.52318C22.5413 12.8284 20.8788 17.8434 16.75 20.2271C14.0145 21.8065 10.8196 21.8698 8.1409 20.6814C7.63607 20.4574 7.40838 19.8666 7.63235 19.3618C7.85631 18.857 8.44712 18.6293 8.95196 18.8532C11.0715 19.7936 13.5915 19.7413 15.75 18.4951C18.906 16.673 20.2367 12.9036 19.1007 9.58082L19.0085 9.92473C18.8656 10.4582 18.3172 10.7748 17.7838 10.6318C17.2503 10.4889 16.9337 9.94056 17.0767 9.4071L17.8087 6.67505C17.9517 6.14158 18.5 5.825 19.0335 5.96794L21.7655 6.69999Z" fill="#344054"/>
<path d="M15.8591 3.31841C16.3639 3.54238 16.5916 4.13319 16.3676 4.63802C16.1437 5.14285 15.5529 5.37054 15.048 5.14657C12.9285 4.20626 10.4084 4.25853 8.24998 5.50473C5.09399 7.32684 3.76328 11.0963 4.89933 14.4191L4.9915 14.0751C5.13444 13.5416 5.68278 13.225 6.21624 13.368C6.74971 13.5109 7.06629 14.0592 6.92335 14.5927L6.1913 17.3248C6.04836 17.8582 5.50002 18.1748 4.96655 18.0319L2.2345 17.2998C1.70104 17.1569 1.38445 16.6085 1.52739 16.0751C1.67034 15.5416 2.21867 15.225 2.75214 15.368L3.15763 15.4766C1.45868 11.1714 3.1212 6.15643 7.24998 3.77268C9.98548 2.19334 13.1803 2.13 15.8591 3.31841Z" fill="#344054"/>
</svg>
