<svg width="24" height="24" viewBox="0 0 24 24" fill="none" xmlns="http://www.w3.org/2000/svg">
<path d="M11.7071 0.892991C11.3166 0.502467 10.6834 0.502467 10.2929 0.892991C9.90237 1.28352 9.90237 1.91668 10.2929 2.3072L10.5898 2.60408C6.01185 3.28533 2.5 7.23261 2.5 12.0001C2.5 15.1588 4.04258 17.9573 6.41115 19.683C6.85752 20.0082 7.48302 19.91 7.80824 19.4636C8.13345 19.0172 8.03523 18.3917 7.58885 18.0665C5.71475 16.7011 4.5 14.4925 4.5 12.0001C4.5 8.35592 7.09907 5.31877 10.5447 4.64123L10.2929 4.89299C9.90237 5.28352 9.90237 5.91668 10.2929 6.3072C10.6834 6.69773 11.3166 6.69773 11.7071 6.3072L13.7071 4.3072C14.0976 3.91668 14.0976 3.28352 13.7071 2.89299L11.7071 0.892991Z" fill="#344054"/>
<path d="M17.5889 4.31732C17.1425 3.9921 16.517 4.09033 16.1918 4.5367C15.8665 4.98308 15.9648 5.60858 16.4111 5.9338C18.2853 7.29921 19.5 9.50777 19.5 12.0002C19.5 15.6444 16.9009 18.6815 13.4553 19.3591L13.7071 19.1073C14.0976 18.7167 14.0976 18.0836 13.7071 17.693C13.3166 17.3025 12.6834 17.3025 12.2929 17.693L10.2929 19.693C9.90237 20.0836 9.90237 20.7167 10.2929 21.1073L12.2929 23.1073C12.6834 23.4978 13.3166 23.4978 13.7071 23.1073C14.0976 22.7167 14.0976 22.0836 13.7071 21.693L13.4103 21.3962C17.9882 20.7149 21.5 16.7677 21.5 12.0002C21.5 8.84147 19.9574 6.04297 17.5889 4.31732Z" fill="#344054"/>
</svg>
