<svg width="24" height="24" viewBox="0 0 24 24" fill="none" xmlns="http://www.w3.org/2000/svg">
<path d="M21.4726 6.1929C21.6156 5.65944 21.299 5.1111 20.7655 4.96816C20.232 4.82522 19.6837 5.1418 19.5408 5.67527L19.4321 6.0808C16.5532 2.45684 11.3788 1.38912 7.25001 3.77288C4.51451 5.35222 2.86223 8.08739 2.55205 11.0014C2.49359 11.5506 2.8914 12.0432 3.44058 12.1017C3.98977 12.1601 4.48235 11.7623 4.54081 11.2131C4.78624 8.90741 6.09154 6.75112 8.25001 5.50493C11.406 3.68283 15.3358 4.41512 17.6453 7.06031L17.3014 6.96816C16.7679 6.82522 16.2196 7.1418 16.0767 7.67527C15.9337 8.20873 16.2503 8.75707 16.7838 8.90001L19.5158 9.63206C20.0493 9.775 20.5976 9.45842 20.7406 8.92495L21.4726 6.1929Z" fill="#344054"/>
<path d="M21.4479 12.9988C21.5064 12.4496 21.1086 11.957 20.5594 11.8986C20.0102 11.8401 19.5176 12.2379 19.4592 12.7871C19.2137 15.0929 17.9084 17.2491 15.75 18.4953C12.594 20.3174 8.66418 19.5851 6.35462 16.9399L6.6986 17.0321C7.23207 17.175 7.78041 16.8584 7.92335 16.325C8.06629 15.7915 7.74971 15.2432 7.21624 15.1002L4.48419 14.3682C3.95072 14.2252 3.40239 14.5418 3.25945 15.0753L2.52739 17.8073C2.38445 18.3408 2.70104 18.8891 3.2345 19.0321C3.76797 19.175 4.3163 18.8584 4.45925 18.325L4.5679 17.9195C7.44685 21.5434 12.6212 22.6111 16.75 20.2274C19.4855 18.648 21.1378 15.9129 21.4479 12.9988Z" fill="#344054"/>
</svg>
