<svg width="24" height="24" viewBox="0 0 24 24" fill="none" xmlns="http://www.w3.org/2000/svg">
<path d="M9.00781 17.5054C8.45557 17.5054 8.00781 17.9531 8.00781 18.5054C8.00781 19.0576 8.45557 19.5054 9.00781 19.5054H15.0078C15.5601 19.5054 16.0078 19.0576 16.0078 18.5054C16.0078 17.9531 15.5601 17.5054 15.0078 17.5054H9.00781Z" fill="#344054"/>
<path fill-rule="evenodd" clip-rule="evenodd" d="M17.9951 22.9968C19.0996 22.9968 19.9951 22.1013 19.9951 20.9968V17.6746C19.9951 17.5679 19.9868 17.4614 19.9697 17.3562C19.8677 16.7244 19.5659 16.1372 19.1021 15.6846L15.4233 12.0088L19.0962 8.3396L19.1084 8.3269L19.1328 8.30249C19.5815 7.84595 19.8721 7.26343 19.9707 6.63892C19.9868 6.53589 19.9951 6.43188 19.9951 6.32739V2.99878C19.9951 1.89429 19.0996 0.998779 17.9951 0.998779H6.01074C4.90625 0.998779 4.01074 1.89429 4.01074 2.99878V6.24194C4.01074 6.2915 4.0127 6.34106 4.01611 6.39038C4.06982 7.10767 4.37549 7.78589 4.8833 8.30249L4.90723 8.3269L4.91943 8.3396L8.59229 12.0088L4.91357 15.6846C4.38916 16.1963 4.07178 16.8804 4.0166 17.6064C4.01367 17.6472 4.01172 17.688 4.01074 17.7288V20.9968C4.01074 21.5273 4.22168 22.0359 4.59668 22.4111C4.97168 22.7861 5.48047 22.9968 6.01074 22.9968H17.9951ZM14.0098 13.4236L17.6987 17.1099C17.7964 17.2036 17.873 17.3152 17.9258 17.437C17.9585 17.5127 17.9819 17.5925 17.9951 17.6746V20.9968H6.01074V17.7583C6.0293 17.5127 6.1377 17.2815 6.31689 17.1099L10.0059 13.4236C10.7876 12.6423 10.7876 11.375 10.0059 10.594L6.33301 6.92456L6.30908 6.90015C6.13428 6.72241 6.0293 6.48901 6.01074 6.24194V2.99878H17.9951V6.32739C17.9614 6.54248 17.8608 6.74316 17.7065 6.90015L17.6826 6.92456L14.0098 10.594C13.228 11.375 13.228 12.6423 14.0098 13.4236Z" fill="#344054"/>
</svg>
