<svg width="24" height="24" viewBox="0 0 24 24" fill="none" xmlns="http://www.w3.org/2000/svg">
<path fill-rule="evenodd" clip-rule="evenodd" d="M3.04414 19.2518C3.09006 19.8139 3.18863 20.3306 3.43592 20.816C3.81941 21.5686 4.43133 22.1805 5.18398 22.564C5.66932 22.8113 6.18602 22.9099 6.74812 22.9558C7.28931 23 7.95366 23 8.75862 23H16.8385C17.3657 23 17.8204 23 18.195 22.9694C18.5903 22.9371 18.9835 22.8658 19.3619 22.673C19.9264 22.3854 20.3853 21.9265 20.673 21.362C20.8658 20.9836 20.9371 20.5904 20.9694 20.195C20.9968 19.8593 20.9999 19.4593 20.9999 19C20.9999 14.3871 20.9999 9.77429 20.9999 5.16144C21 4.6343 21 4.17954 20.9694 3.80497C20.9371 3.40963 20.8658 3.01641 20.673 2.63803C20.3853 2.07354 19.9264 1.6146 19.3619 1.32698C18.9835 1.13419 18.5903 1.06287 18.195 1.03057C17.8204 0.999969 17.3657 0.999984 16.8385 1H8.75865C7.9537 0.999989 7.2893 0.99998 6.74812 1.0442C6.18602 1.09012 5.66932 1.18869 5.18398 1.43598C4.43133 1.81947 3.81941 2.43139 3.43592 3.18404C3.18863 3.66938 3.09006 4.18608 3.04414 4.74818C2.99992 5.28937 2.99993 5.95372 2.99994 6.75869V17.2413C2.99993 17.9123 2.98953 18.5835 3.04414 19.2518ZM18.976 20.0322C18.9538 20.3038 18.9161 20.4045 18.891 20.454C18.7951 20.6422 18.6421 20.7951 18.4539 20.891C18.4045 20.9162 18.3038 20.9539 18.0321 20.9761C17.7488 20.9992 17.3765 21 16.7999 21H8.79994C7.94337 21 7.36107 20.9992 6.91098 20.9625C6.47257 20.9266 6.24836 20.8617 6.09196 20.782C5.71564 20.5903 5.40968 20.2843 5.21793 19.908C5.03875 19.5563 4.95016 19.2518 5.01673 18.7397C5.14433 17.7581 5.98361 17 6.99994 17H18.9999C18.9999 18.005 19.0579 19.0295 18.976 20.0322Z" fill="#344054"/>
</svg>
