<svg width="24" height="24" viewBox="0 0 24 24" fill="none" xmlns="http://www.w3.org/2000/svg">
<path fill-rule="evenodd" clip-rule="evenodd" d="M20.1204 1.67612C20.2638 1.65 20.4725 1.62557 20.7118 1.67643C21.0216 1.74229 21.3027 1.90455 21.5147 2.13995C21.6783 2.32173 21.7616 2.51475 21.8106 2.65195C21.8529 2.77034 21.8897 2.90774 21.9205 3.0228L23.3301 8.28354C23.361 8.39859 23.3978 8.53598 23.4204 8.65968C23.4465 8.80302 23.4709 9.01181 23.4201 9.25107C23.3542 9.56092 23.1919 9.84196 22.9565 10.0539C22.7748 10.2176 22.5817 10.3008 22.4445 10.3499C22.3262 10.3922 22.1888 10.429 22.0737 10.4597L22.0141 10.4757C21.5049 10.6122 21.0656 10.7299 20.6959 10.7973C20.3057 10.8684 19.9074 10.9013 19.492 10.813C19.127 10.7354 18.782 10.5909 18.4734 10.3891L14.4492 11.4674C14.7961 11.9568 15 12.5547 15 13.2003C15 13.8638 14.7845 14.4771 14.4198 14.9739L18.8263 21.4368C19.1374 21.8931 19.0197 22.5152 18.5634 22.8264C18.1071 23.1375 17.485 23.0198 17.1739 22.5635L12.7677 16.1011C12.5227 16.1658 12.2653 16.2003 12 16.2003C11.7347 16.2003 11.4775 16.1658 11.2325 16.1012L6.82632 22.5635C6.51519 23.0198 5.89307 23.1375 5.43675 22.8264C4.98044 22.5152 4.86274 21.8931 5.17387 21.4368L9.58032 14.9741C9.21549 14.4772 9 13.8639 9 13.2003C9 13.1072 9.00424 13.0151 9.01253 12.9241L6.89476 13.4916C6.77972 13.5225 6.64232 13.5594 6.51862 13.5819C6.37528 13.608 6.1665 13.6324 5.92724 13.5816C5.61739 13.5157 5.33635 13.3535 5.12439 13.1181C5.07814 13.0667 5.03832 13.0144 5.00387 12.9628L3.73821 13.3019C3.62317 13.3328 3.48576 13.3697 3.36207 13.3922C3.21873 13.4184 3.00994 13.4428 2.77068 13.3919C2.46084 13.3261 2.17979 13.1638 1.96783 12.9284C1.80416 12.7466 1.72092 12.5536 1.67188 12.4164C1.62955 12.298 1.59278 12.1606 1.562 12.0455L1.18767 10.6485C1.1568 10.5335 1.11993 10.3961 1.09738 10.2724C1.07126 10.129 1.04683 9.92025 1.09769 9.68099C1.16355 9.37114 1.32581 9.0901 1.56122 8.87814C1.74299 8.71447 1.93602 8.63123 2.07322 8.58218C2.19161 8.53986 2.32904 8.50309 2.4441 8.47231L3.70989 8.13314C3.71391 8.07131 3.72227 8.00627 3.73661 7.9388C3.80247 7.62895 3.96473 7.34791 4.20013 7.13595C4.38191 6.97228 4.57494 6.88904 4.71213 6.83999C4.83053 6.79767 4.96796 6.7609 5.08302 6.73012L16.6618 3.6276C16.8281 3.29856 17.0546 3.00099 17.3319 2.75133C17.6475 2.46717 18.0088 2.29652 18.3823 2.16299C18.7362 2.03648 19.1755 1.9188 19.6847 1.78238L19.7443 1.76641C19.8593 1.73554 19.9967 1.69866 20.1204 1.67612ZM20.0464 3.75609C19.5973 3.87689 19.291 3.96213 19.0556 4.04628C18.7989 4.13803 18.7114 4.20049 18.6701 4.23762C18.5132 4.37893 18.405 4.56629 18.3611 4.77285C18.3496 4.82713 18.3393 4.93417 18.3881 5.20232C18.4391 5.482 18.5347 5.84179 18.6839 6.39869L18.8392 6.97825C18.9884 7.53516 19.0855 7.89455 19.1812 8.16224C19.273 8.4189 19.3355 8.50643 19.3726 8.54767C19.5139 8.70461 19.7013 8.81278 19.9078 8.85669C19.9621 8.86823 20.0691 8.87855 20.3373 8.82968C20.5832 8.78486 20.8911 8.70553 21.3405 8.58558L20.0464 3.75609Z" fill="#344054"/>
</svg>
