<svg width="24" height="24" viewBox="0 0 24 24" fill="none" xmlns="http://www.w3.org/2000/svg">
<path fill-rule="evenodd" clip-rule="evenodd" d="M18.5285 2.00012C20.025 2.01416 21.1555 3.13008 21.8553 4.42969C22.5815 5.77829 23 7.5727 23 9.49999C23 11.4273 22.5815 13.2217 21.8553 14.5703C21.1541 15.8726 20.0203 16.9905 18.5191 16.9999C16.1191 17.0434 13.45 16.0981 11.093 15.6696L11.3671 19.234C11.467 20.5307 11.0998 21.8519 9.55901 21.9815C8.49015 22.0715 7.36018 22.0689 6.29451 21.9845C5.02179 21.8837 4.48238 20.7905 4.3986 19.6156L4.02335 14.3621C3.73274 14.289 3.47427 14.2033 3.23641 14.0864C2.21927 13.5868 1.46179 12.6792 1.15217 11.5891C0.817751 10.4117 0.815995 8.59436 1.15217 7.41077C1.46179 6.32066 2.21927 5.41304 3.23641 4.91341C3.7392 4.66643 4.33409 4.55862 5.12997 4.41438C9.53109 3.61419 16.9999 2.00003 18.5285 2.00012ZM18.5728 14.9968L18.1008 14.911C17.7357 14.7537 17.3086 14.3705 16.9056 13.6221C16.365 12.6181 16 11.1626 16 9.49999C16 7.83743 16.365 6.38184 16.9056 5.37789C17.2392 4.75826 17.5894 4.38892 17.9073 4.19095C18.0312 4.11378 18.1739 4.0756 18.3175 4.04948C18.4866 4.01874 18.6624 4.00204 18.8243 4.05961C19.2051 4.19496 19.6635 4.57774 20.0944 5.37789C20.635 6.38184 21 7.83743 21 9.49999C21 11.1626 20.635 12.6181 20.0944 13.6221C19.5635 14.6081 18.9906 14.9603 18.5728 14.9968Z" fill="#344054"/>
</svg>
