<svg width="24" height="24" viewBox="0 0 24 24" fill="none" xmlns="http://www.w3.org/2000/svg">
<path fill-rule="evenodd" clip-rule="evenodd" d="M12.1912 4.85742C12.2296 4.45328 12.198 4.03552 12.0869 3.62076C11.5866 1.75363 9.66742 0.645589 7.80029 1.14589C5.93316 1.64618 4.82512 3.56536 5.32542 5.43249C5.43656 5.84727 5.61807 6.22486 5.85345 6.55564C5.35864 6.9727 4.92242 7.45227 4.56236 7.98436C3.57999 9.4361 3.24031 11.1736 3.67882 12.8101C4.22433 14.846 4.10802 16.422 3.78451 17.581L3.77915 17.6002C3.57112 18.3455 3.40866 18.9276 3.30604 19.3416C3.25474 19.5486 3.21188 19.7392 3.18649 19.8994C3.17391 19.9788 3.16188 20.0733 3.15897 20.1711C3.15679 20.2439 3.15383 20.4322 3.23135 20.6386C3.27391 20.7519 3.36195 20.9761 3.55976 21.176C3.75756 21.3758 3.98079 21.4662 4.09368 21.51C4.27764 21.5812 4.44448 21.5882 4.52683 21.5889C4.62401 21.5897 4.71589 21.581 4.79139 21.5712C4.94236 21.5516 5.11473 21.5161 5.29324 21.4749C5.64907 21.3926 6.14201 21.2605 6.76313 21.0941L8.00994 20.76C8.88536 22.3116 10.7281 23.1376 12.5284 22.6552C14.3287 22.1728 15.5116 20.5361 15.4939 18.7547L18.6724 17.903C19.2936 17.7366 19.7867 17.6045 20.136 17.4977C20.3113 17.4442 20.4783 17.3888 20.6188 17.3302C20.6891 17.301 20.773 17.2626 20.8568 17.2133C20.9278 17.1715 21.0688 17.0821 21.1924 16.9284C21.2683 16.834 21.4165 16.6442 21.4878 16.3722C21.5592 16.1002 21.5234 15.862 21.5036 15.7426C21.4675 15.5251 21.3708 15.3635 21.3325 15.3015C21.2811 15.2183 21.2234 15.1424 21.1728 15.0799C21.0707 14.9539 20.9383 14.8103 20.7904 14.6567C20.4945 14.3494 20.0628 13.9266 19.5101 13.3853L19.4957 13.3712C18.636 12.5293 17.7473 11.2225 17.2018 9.18665C16.7633 7.55009 15.6004 6.21525 14.0237 5.44919C13.4458 5.1684 12.8283 4.97119 12.1912 4.85742ZM8.31793 3.07774C7.51773 3.29215 7.04286 4.11465 7.25727 4.91485C7.3145 5.12843 7.41453 5.31843 7.54606 5.4785C7.95848 5.28636 8.39027 5.12897 8.83563 5.00964C9.28096 4.89031 9.73356 4.81072 10.1868 4.77091C10.2206 4.56653 10.2123 4.35197 10.155 4.1384C9.94063 3.3382 9.11813 2.86332 8.31793 3.07774ZM13.4254 19.309L10.0785 20.2058C10.5672 20.6937 11.2957 20.9149 12.0108 20.7233C12.7258 20.5317 13.2461 19.9759 13.4254 19.309Z" fill="#344054"/>
</svg>
