<svg width="24" height="24" viewBox="0 0 24 24" fill="none" xmlns="http://www.w3.org/2000/svg">
<path fill-rule="evenodd" clip-rule="evenodd" d="M15.2807 5.72147C15.4224 5.34106 15.5 4.92938 15.5 4.5C15.5 2.567 13.933 1 12 1C10.067 1 8.5 2.567 8.5 4.5C8.5 4.92938 8.5776 5.34107 8.71932 5.72148C8.13342 5.99626 7.58795 6.34658 7.10244 6.76736C5.7778 7.91537 5.00001 9.50571 5.00001 11.2C5.00001 13.3077 4.47975 14.7999 3.8673 15.8357L3.85714 15.8529C3.46335 16.5188 3.15573 17.0391 2.94944 17.4125C2.84633 17.5991 2.75559 17.7721 2.68963 17.9203C2.65691 17.9937 2.62083 18.0819 2.59272 18.1756C2.57175 18.2454 2.52017 18.4265 2.54162 18.6459C2.5534 18.7664 2.58042 19.0057 2.71976 19.25C2.85909 19.4942 3.05133 19.6393 3.14905 19.7108C3.30829 19.8272 3.46764 19.8772 3.547 19.8991C3.64067 19.9251 3.73168 19.9404 3.80714 19.9505C3.95802 19.9707 4.13371 19.981 4.31681 19.9873C4.68186 20 5.19228 20 5.83544 20H8.12602C8.57006 21.7252 10.1362 23 12 23C13.8638 23 15.4299 21.7252 15.874 20H18.1645C18.8077 20 19.3182 20 19.6832 19.9873C19.8663 19.981 20.042 19.9707 20.1929 19.9505C20.2683 19.9404 20.3594 19.9251 20.453 19.8991C20.5324 19.8772 20.6917 19.8272 20.851 19.7108C20.9487 19.6393 21.1409 19.4942 21.2803 19.25C21.4196 19.0057 21.4466 18.7664 21.4584 18.6459C21.4799 18.4265 21.4283 18.2454 21.4073 18.1756C21.3792 18.0819 21.3431 17.9937 21.3104 17.9203C21.2444 17.7721 21.1537 17.5991 21.0506 17.4125C20.8443 17.0391 20.5368 16.519 20.143 15.853L20.1327 15.8357C19.5203 14.7999 19 13.3077 19 11.2C19 9.50571 18.2222 7.91537 16.8976 6.76736C16.4121 6.34658 15.8666 5.99625 15.2807 5.72147ZM12 3C11.1716 3 10.5 3.67157 10.5 4.5C10.5 4.72109 10.5474 4.93048 10.633 5.11912C11.0811 5.04027 11.5389 5 12 5C12.4611 5 12.9189 5.04027 13.367 5.11911C13.4526 4.93048 13.5 4.72108 13.5 4.5C13.5 3.67157 12.8284 3 12 3ZM10.2676 20C10.6134 20.5978 11.2597 21 12 21C12.7403 21 13.3866 20.5978 13.7324 20H10.2676Z" fill="#344054"/>
<path d="M5.07039 5.67396C5.55139 5.40256 5.7213 4.79262 5.4499 4.31162C5.1785 3.83062 4.56856 3.66071 4.08756 3.93211C2.50617 4.8244 1.52886 6.51715 1.54681 8.33282C1.55227 8.88507 2.00439 9.32834 2.55665 9.32288C3.10891 9.31742 3.55217 8.8653 3.54672 8.31305C3.53597 7.22602 4.12363 6.20817 5.07039 5.67396Z" fill="#344054"/>
<path d="M18.55 4.31174C18.8214 3.83074 19.4314 3.66083 19.9124 3.93223C21.4938 4.82452 22.4711 6.51727 22.4531 8.33293C22.4477 8.88519 21.9955 9.32846 21.4433 9.323C20.891 9.31754 20.4478 8.86542 20.4532 8.31317C20.464 7.22614 19.8763 6.20829 18.9295 5.67408C18.4485 5.40268 18.2786 4.79274 18.55 4.31174Z" fill="#344054"/>
</svg>
