<svg width="24" height="24" viewBox="0 0 24 24" fill="none" xmlns="http://www.w3.org/2000/svg">
<path fill-rule="evenodd" clip-rule="evenodd" d="M7.10829 6.55558C6.87294 6.22482 6.69144 5.84724 6.5803 5.43249C6.08001 3.56536 7.18805 1.64618 9.05518 1.14589C10.9223 0.645589 12.8415 1.75363 13.3418 3.62076C13.4529 4.03553 13.4845 4.45329 13.4461 4.85744C14.0831 4.97122 14.7006 5.16842 15.2785 5.44919C16.8551 6.21525 18.018 7.55009 18.4565 9.18665C19.0021 11.2225 19.8908 12.5293 20.7505 13.3712L20.7648 13.3853C21.3176 13.9266 21.7493 14.3494 22.0452 14.6567C22.1931 14.8103 22.3255 14.9539 22.4275 15.0799C22.4781 15.1424 22.5358 15.2183 22.5872 15.3015C22.6256 15.3635 22.7222 15.5251 22.7583 15.7426C22.7781 15.862 22.814 16.1002 22.7426 16.3722C22.6712 16.6442 22.5231 16.834 22.4472 16.9284C22.3235 17.0821 22.1825 17.1715 22.1115 17.2133C22.0278 17.2626 21.9438 17.301 21.8736 17.3302C21.7331 17.3888 21.566 17.4442 21.3908 17.4977C21.0415 17.6045 20.5484 17.7366 19.9271 17.903L16.7489 18.7546C16.7665 20.536 15.5837 22.1726 13.7834 22.6549C11.9831 23.1373 10.1405 22.3114 9.26503 20.7599L8.01822 21.094C7.39712 21.2604 6.90383 21.3926 6.548 21.4749C6.36949 21.5161 6.19712 21.5516 6.04616 21.5712C5.97065 21.581 5.87878 21.5897 5.78159 21.5889C5.69924 21.5882 5.5324 21.5812 5.34844 21.51C5.23555 21.4662 5.01233 21.3758 4.81452 21.176C4.61671 20.9761 4.52867 20.7519 4.48611 20.6386C4.40859 20.4322 4.41156 20.2439 4.41373 20.1711C4.41665 20.0733 4.42867 19.9788 4.44126 19.8994C4.46664 19.7392 4.5095 19.5486 4.5608 19.3416C4.66342 18.9276 4.82589 18.3455 5.03391 17.6002L5.03927 17.581C5.36278 16.422 5.47909 14.846 4.93359 12.8101C4.49507 11.1736 4.83475 9.4361 5.81712 7.98436C6.1772 7.45224 6.61345 6.97265 7.10829 6.55558ZM8.51216 4.91485C8.29774 4.11465 8.77262 3.29215 9.57282 3.07774C10.373 2.86332 11.1955 3.3382 11.4099 4.1384C11.4672 4.35197 11.4755 4.56652 11.4417 4.7709C10.9884 4.81071 10.5358 4.8903 10.0904 5.00964C9.64506 5.12897 9.2133 5.28633 8.80091 5.47845C8.6694 5.3184 8.56938 5.12841 8.51216 4.91485ZM11.3336 20.2057C11.8224 20.6935 12.5508 20.9147 13.2658 20.7231C13.9808 20.5315 14.501 19.9758 14.6803 19.3089L11.3336 20.2057Z" fill="#344054"/>
<path d="M3.8229 6.98733C4.20954 7.3817 4.20328 8.01483 3.80892 8.40148C3.03268 9.16253 2.72848 10.2978 3.02021 11.345C3.16841 11.877 2.85727 12.4285 2.32524 12.5767C1.79321 12.7249 1.24177 12.4137 1.09356 11.8817C0.606299 10.1325 1.11219 8.24453 2.40875 6.97336C2.80312 6.58671 3.43625 6.59297 3.8229 6.98733Z" fill="#344054"/>
<path d="M16.4766 3.59688C16.6143 3.06203 17.1595 2.74004 17.6943 2.8777C19.4528 3.3303 20.8349 4.71242 21.2875 6.47087C21.4251 7.00572 21.1031 7.5509 20.5683 7.68856C20.0334 7.82622 19.4883 7.50424 19.3506 6.96938C19.0796 5.91661 18.2486 5.08554 17.1958 4.81458C16.6609 4.67692 16.339 4.13174 16.4766 3.59688Z" fill="#344054"/>
</svg>
