<svg width="24" height="24" viewBox="0 0 24 24" fill="none" xmlns="http://www.w3.org/2000/svg">
<path fill-rule="evenodd" clip-rule="evenodd" d="M9 21C9 20.4477 9.44771 20 10 20H14C14.5523 20 15 20.4477 15 21C15 21.5523 14.5523 22 14 22H10C9.44771 22 9 21.5523 9 21Z" fill="#344054"/>
<path fill-rule="evenodd" clip-rule="evenodd" d="M7.05025 3.05025C8.363 1.7375 10.1435 1 12 1C13.8565 1 15.637 1.7375 16.9497 3.05025C18.2625 4.36301 19 6.14349 19 8C19 10.9127 19.732 12.8439 20.4994 14.0771L20.5113 14.0962C20.8685 14.6704 21.151 15.1243 21.3414 15.4547C21.4368 15.6202 21.5238 15.7797 21.5881 15.9215C21.6203 15.9922 21.6562 16.079 21.6843 16.1733C21.7076 16.2515 21.752 16.4187 21.7353 16.6223C21.7242 16.7591 21.6963 16.9928 21.5621 17.2343C21.428 17.4758 21.2442 17.623 21.134 17.7047C20.8837 17.8904 20.5963 17.9329 20.5003 17.947L20.4959 17.9477C20.3485 17.9695 20.1812 17.9804 20.0125 17.9869C19.6772 18 19.2131 18 18.6358 18H5.36414C4.78692 18 4.32278 18 3.98752 17.9869C3.81877 17.9804 3.65149 17.9695 3.50408 17.9477L3.49965 17.947C3.40373 17.9329 3.1163 17.8904 2.866 17.7047C2.75576 17.623 2.57204 17.4758 2.43788 17.2343C2.30373 16.9928 2.27584 16.7591 2.26465 16.6223C2.248 16.4187 2.2924 16.2515 2.31571 16.1733C2.3438 16.079 2.37974 15.9922 2.41187 15.9215C2.47624 15.7797 2.56317 15.6202 2.65859 15.4547C2.84902 15.1243 3.1315 14.6703 3.48882 14.0961L3.50061 14.0771C4.26799 12.8439 5 10.9127 5 8C5 6.14348 5.7375 4.36301 7.05025 3.05025Z" fill="#344054"/>
</svg>
