<svg width="24" height="24" viewBox="0 0 24 24" fill="none" xmlns="http://www.w3.org/2000/svg">
<path fill-rule="evenodd" clip-rule="evenodd" d="M3.50509 3.54965C6.19239 1.25356 9.65285 1.67202 11.9928 3.71691C14.33 1.67124 17.7536 1.28246 20.4708 3.54088C23.4444 6.01238 23.8015 10.2275 21.5117 13.1739C20.7166 14.197 19.2373 15.6827 17.7544 17.0968C16.2549 18.5268 14.6962 19.9356 13.7041 20.8209L13.6821 20.8405C13.5196 20.9856 13.357 21.1308 13.2071 21.2444C13.0386 21.3722 12.8317 21.5037 12.5678 21.5828C12.1957 21.6945 11.7906 21.6945 11.4185 21.5828C11.1546 21.5037 10.9477 21.3722 10.7792 21.2444C10.6293 21.1308 10.4668 20.9857 10.3042 20.8406L10.2822 20.8209C9.29007 19.9356 7.73142 18.5268 6.23191 17.0968C4.74903 15.6827 3.26965 14.197 2.47459 13.1739C0.175971 10.2161 0.598301 6.03328 3.50509 3.54965ZM11.9487 8.18372C11.8208 7.80002 11.4743 7.53114 11.0709 7.50247C10.6674 7.4738 10.2865 7.69098 10.1056 8.05274L8.88197 10.5H8.5C7.94772 10.5 7.5 10.9477 7.5 11.5C7.5 12.0522 7.94772 12.5 8.5 12.5H9.5C9.87877 12.5 10.225 12.2859 10.3944 11.9472L10.8148 11.1065L12.0513 14.8162C12.1792 15.1999 12.5257 15.4688 12.9291 15.4974C13.3326 15.5261 13.7135 15.3089 13.8944 14.9472L15.118 12.5H15.5C16.0523 12.5 16.5 12.0522 16.5 11.5C16.5 10.9477 16.0523 10.5 15.5 10.5H14.5C14.1212 10.5 13.775 10.714 13.6056 11.0527L13.1852 11.8934L11.9487 8.18372Z" fill="#344054"/>
</svg>
