<svg width="24" height="24" viewBox="0 0 24 24" fill="none" xmlns="http://www.w3.org/2000/svg">
<path d="M7.22608 14.4687C7.05313 14.2957 6.96665 14.2092 6.86573 14.1474C6.77626 14.0926 6.67872 14.0522 6.57668 14.0277C6.46159 14 6.3393 14 6.09471 14H5.33295C5.02842 13.9998 4.76641 13.9997 4.53075 14.037C3.24707 14.2403 2.24031 15.2471 2.03699 16.5308C1.99967 16.7664 1.99983 17.0284 2.00003 17.3329L2.00004 17.4826C1.99988 17.9595 1.99977 18.313 2.0493 18.6258C2.32039 20.3374 3.66275 21.6797 5.37432 21.9508C5.68707 22.0003 6.04056 22.0002 6.51754 22.0001H17.4826C17.9595 22.0002 18.313 22.0003 18.6258 21.9508C20.3374 21.6797 21.6797 20.3374 21.9508 18.6258C22.0003 18.3131 22.0002 17.9596 22.0001 17.4827L22.0001 17.333C22.0003 17.0284 22.0004 16.7664 21.9631 16.5308C21.7598 15.2471 20.753 14.2403 19.4694 14.037C19.2337 13.9997 18.9717 13.9998 18.6672 14H17.9054C17.6608 14 17.5385 14 17.4234 14.0277C17.3214 14.0522 17.2239 14.0926 17.1344 14.1474C17.0335 14.2092 16.947 14.2957 16.774 14.4687L14.1214 17.1213C12.9498 18.2929 11.0503 18.2929 9.87874 17.1213L7.22608 14.4687Z" fill="#344054"/>
<path d="M13.0001 3C13.0001 2.44772 12.5523 2 12.0001 2C11.4478 2 11.0001 2.44772 11.0001 3V12.5858L7.70717 9.29289C7.31664 8.90237 6.68348 8.90237 6.29295 9.29289C5.90243 9.68342 5.90243 10.3166 6.29295 10.7071L11.293 15.7071C11.6835 16.0976 12.3166 16.0976 12.7072 15.7071L17.7072 10.7071C18.0977 10.3166 18.0977 9.68342 17.7072 9.29289C17.3166 8.90237 16.6835 8.90237 16.293 9.29289L13.0001 12.5858V3Z" fill="#344054"/>
</svg>
