<svg width="24" height="24" viewBox="0 0 24 24" fill="none" xmlns="http://www.w3.org/2000/svg">
<path d="M21.7071 2.29295C20.212 0.797859 17.788 0.797857 16.2929 2.29295L15.1314 3.45447C14.7354 3.85049 14.5374 4.0485 14.4632 4.27683C14.3979 4.47767 14.3979 4.69402 14.4632 4.89486C14.5374 5.12319 14.7354 5.3212 15.1314 5.71722L18.2829 8.86869C18.6789 9.2647 18.8769 9.46271 19.1052 9.5369C19.3061 9.60216 19.5224 9.60216 19.7233 9.5369C19.9516 9.46271 20.1496 9.2647 20.5456 8.86869L21.7071 7.70717C23.2022 6.21207 23.2022 3.78805 21.7071 2.29295Z" fill="#344054"/>
<path d="M16.8687 12.5456C17.2647 12.1496 17.4627 11.9516 17.5369 11.7233C17.6021 11.5224 17.6021 11.3061 17.5369 11.1053C17.4627 10.8769 17.2647 10.6789 16.8687 10.2829L13.7172 7.13143C13.3212 6.73541 13.1232 6.5374 12.8948 6.46321C12.694 6.39795 12.4776 6.39795 12.2768 6.46321C12.0485 6.5374 11.8505 6.73541 11.4544 7.13142L3.03673 15.5491C2.79144 15.794 2.57507 16.01 2.40582 16.2667C2.25701 16.4923 2.13938 16.7371 2.05613 16.9942C1.96144 17.2867 1.92792 17.5906 1.88992 17.9352L1.50612 21.3896C1.47258 21.6916 1.57809 21.9924 1.7929 22.2072C2.00771 22.422 2.30851 22.5275 2.61044 22.4939L6.06494 22.1101C6.40945 22.0721 6.71335 22.0386 7.00584 21.9439C7.26301 21.8607 7.50774 21.7431 7.7334 21.5943C7.99008 21.425 8.2061 21.2086 8.451 20.9633L16.8687 12.5456Z" fill="#344054"/>
</svg>
