<svg width="24" height="24" viewBox="0 0 24 24" fill="none" xmlns="http://www.w3.org/2000/svg">
<path fill-rule="evenodd" clip-rule="evenodd" d="M21.6747 17.2619C22.0823 17.6345 22.1107 18.2671 21.738 18.6747L20.7379 19.7687C20.0284 20.5448 19.0457 21 18.0001 21C16.9548 21 15.9726 20.5452 15.263 19.7696C14.9111 19.3863 14.4548 19.1901 14.0002 19.1901C13.5453 19.1901 13.0888 19.3864 12.7368 19.7701C12.3634 20.177 11.7308 20.2043 11.3239 19.8309C10.9169 19.4575 10.8897 18.8249 11.2631 18.418C11.9734 17.6438 12.9554 17.1901 14.0002 17.1901C15.0449 17.1901 16.0269 17.6438 16.7372 18.418L16.7384 18.4192C17.0896 18.8034 17.5457 19 18.0001 19C18.4545 19 18.9105 18.8034 19.2618 18.4193L20.2619 17.3253C20.6345 16.9177 21.267 16.8893 21.6747 17.2619Z" fill="#344054"/>
<path fill-rule="evenodd" clip-rule="evenodd" d="M15.7929 2.79287C17.0118 1.57393 18.9882 1.57392 20.2071 2.79287C21.4261 4.01183 21.4261 5.98814 20.2071 7.20709L7.64437 19.7698C7.62457 19.7896 7.60496 19.8093 7.5855 19.8288C7.29805 20.1168 7.04461 20.3707 6.73907 20.5579C6.47066 20.7224 6.17802 20.8436 5.87192 20.9171C5.52347 21.0007 5.16472 21.0004 4.75782 21C4.73028 21 4.70252 21 4.67452 21H2.99998C2.44769 21 1.99998 20.5523 1.99998 20V18.3255C1.99998 18.2975 1.99995 18.2697 1.99993 18.2422C1.99955 17.8353 1.99922 17.4765 2.08287 17.1281C2.15636 16.822 2.27757 16.5293 2.44206 16.2609C2.6293 15.9554 2.88321 15.7019 3.17119 15.4145C3.19069 15.395 3.21034 15.3754 3.23013 15.3556L15.7929 2.79287Z" fill="#344054"/>
</svg>
