<svg width="24" height="24" viewBox="0 0 24 24" fill="none" xmlns="http://www.w3.org/2000/svg">
<path fill-rule="evenodd" clip-rule="evenodd" d="M10.4864 3.16456C10.5772 2.61978 10.2091 2.10456 9.66437 2.01376C9.1196 1.92297 8.60437 2.29099 8.51358 2.83576L7.81952 7.00012H3.5C2.94772 7.00012 2.5 7.44784 2.5 8.00012C2.5 8.55241 2.94772 9.00012 3.5 9.00012H7.48619L6.48619 15.0001H2.5C1.94772 15.0001 1.5 15.4478 1.5 16.0001C1.5 16.5524 1.94772 17.0001 2.5 17.0001H6.15285L5.51358 20.8358C5.42278 21.3805 5.7908 21.8958 6.33557 21.9865C6.88034 22.0773 7.39557 21.7093 7.48637 21.1646L8.18044 17.0001H14.1529L13.5136 20.8358C13.4228 21.3805 13.7908 21.8958 14.3356 21.9865C14.8803 22.0773 15.3956 21.7093 15.4864 21.1646L16.1804 17.0001H19.5C20.0523 17.0001 20.5 16.5524 20.5 16.0001C20.5 15.4478 20.0523 15.0001 19.5 15.0001H16.5138L17.5138 9.00012H20.5C21.0523 9.00012 21.5 8.55241 21.5 8.00012C21.5 7.44784 21.0523 7.00012 20.5 7.00012H17.8471L18.4864 3.16456C18.5772 2.61978 18.2091 2.10456 17.6644 2.01376C17.1196 1.92297 16.6044 2.29099 16.5136 2.83576L15.8195 7.00012H9.84711L10.4864 3.16456ZM14.4862 15.0001L15.4862 9.00012H9.51377L8.51377 15.0001H14.4862Z" fill="#344054"/>
</svg>
