<svg width="24" height="24" viewBox="0 0 24 24" fill="none" xmlns="http://www.w3.org/2000/svg">
<path fill-rule="evenodd" clip-rule="evenodd" d="M12.4029 1.18505C12.1371 1.13038 11.8629 1.13038 11.5971 1.18505C11.2898 1.24824 11.0152 1.40207 10.7968 1.52436L10.7373 1.55761L3.33733 5.66872L3.27419 5.70359C3.04306 5.8309 2.75244 5.99097 2.52927 6.23315C2.33632 6.44253 2.1903 6.69069 2.10097 6.96105C1.99765 7.27375 1.99886 7.60553 1.99982 7.8694L2 7.94153V16.0586L1.99982 16.1308C1.99886 16.3946 1.99765 16.7264 2.10097 17.0391C2.1903 17.3095 2.33632 17.5576 2.52927 17.767C2.75243 18.0092 3.04303 18.1692 3.27416 18.2966L3.33733 18.3314L10.7373 22.4426L10.7968 22.4758C11.0152 22.5981 11.2898 22.7519 11.5971 22.8151C11.8629 22.8698 12.1371 22.8698 12.4029 22.8151C12.7102 22.7519 12.9848 22.5981 13.2032 22.4758L13.2627 22.4426L20.6627 18.3314L20.7258 18.2966C20.9569 18.1693 21.2476 18.0092 21.4707 17.767C21.6637 17.5576 21.8097 17.3095 21.899 17.0391C22.0023 16.7264 22.0011 16.3946 22.0002 16.1308L22 16.0586V7.94153L22.0002 7.8694C22.0011 7.60553 22.0023 7.27375 21.899 6.96105C21.8097 6.69069 21.6637 6.44253 21.4707 6.23315C21.2476 5.99097 20.9569 5.8309 20.7258 5.70359L20.6627 5.66872L13.2627 1.55761L13.2032 1.52436C12.9848 1.40207 12.7102 1.24824 12.4029 1.18505ZM8.07735 8.65513C9.32987 7.58494 10.9969 7.89932 11.9966 9.06803C12.9963 7.89932 14.6417 7.5962 15.9158 8.65513C17.1899 9.71406 17.3447 11.5146 16.3611 12.7803C15.731 13.591 14.1176 15.0944 13.0389 16.0705C12.6805 16.3949 12.5012 16.557 12.2866 16.6221C12.102 16.678 11.8911 16.678 11.7066 16.6221C11.4919 16.557 11.3127 16.3949 10.9542 16.0705C9.87558 15.0944 8.26211 13.591 7.6321 12.7803C6.64848 11.5146 6.82482 9.72531 8.07735 8.65513Z" fill="#344054"/>
</svg>
