<svg width="24" height="24" viewBox="0 0 24 24" fill="none" xmlns="http://www.w3.org/2000/svg">
<path fill-rule="evenodd" clip-rule="evenodd" d="M17.5354 2.30607C16.5778 1.19519 15.0108 0.672971 13.4497 1.41798C11.6347 2.28414 10.8409 4.36415 11.6109 6.19125C11.9982 7.11036 13.0461 8.78668 13.7371 9.8603C13.7425 9.86863 13.7479 9.87697 13.7532 9.88531C13.8699 10.0666 13.9875 10.2495 14.1022 10.3991C14.2322 10.5687 14.3978 10.7499 14.6326 10.896C14.9644 11.1025 15.3647 11.2098 15.7554 11.1969C16.0318 11.1877 16.2657 11.1136 16.4631 11.0317C16.6372 10.9595 16.8306 10.8599 17.0222 10.7612C17.0311 10.7567 17.0399 10.7522 17.0487 10.7476C18.1839 10.1633 19.9296 9.23557 20.7246 8.63327C22.2935 7.44463 22.6914 5.23797 21.511 3.56893C20.5175 2.16404 18.9179 1.82272 17.5354 2.30607Z" fill="#344054"/>
<path d="M17.7088 15.8933C17.7088 16.6846 17.1854 17.3539 16.4639 17.5776L16.9278 17.5561C17.4348 17.5561 17.9278 17.3966 18.3329 17.1005L21.1618 15.0366C21.8678 14.5218 22.856 14.5901 23.4801 15.1972C24.1733 15.8715 24.1733 16.9638 23.4801 17.6369L21.0529 19.9981C20.3995 20.6336 19.5658 21.0676 18.6596 21.2441L15.2289 21.9116C14.5486 22.0437 13.8472 22.0278 13.174 21.8638L10.0711 21.1097C9.69997 21.0186 9.31943 20.9731 8.93655 20.9731C8.53006 20.9731 8.32681 20.9731 8.16374 20.9148C7.88129 20.814 7.65902 20.5917 7.55818 20.3093C7.49997 20.1462 7.49997 19.943 7.49997 19.5365V16.1074C7.49997 15.8215 7.49997 15.6786 7.53667 15.5469C7.56918 15.4302 7.62261 15.3205 7.69437 15.2229C7.77537 15.1127 7.88783 15.0246 8.11277 14.8482L9.29836 13.9187C9.29836 13.9187 11.2631 13 12.3485 13C12.7981 13 13.2454 13.0548 13.6821 13.163L16.3658 13.8302C17.155 14.0258 17.7088 14.7314 17.7088 15.5406V15.8933Z" fill="#344054"/>
<path fill-rule="evenodd" clip-rule="evenodd" d="M3.47352 13C3.48233 13 3.49116 13 3.49999 13C3.50882 13 3.51765 13 3.52646 13C3.7365 13 3.94113 13 4.11521 13.0119C4.30558 13.0249 4.53131 13.0553 4.76535 13.1523C5.2554 13.3553 5.64475 13.7446 5.84773 14.2347C5.94468 14.4687 5.97515 14.6944 5.98814 14.8848C6.00002 15.0589 6 15.2635 5.99997 15.4736C5.99997 15.4824 5.99997 15.4912 5.99997 15.5L5.99997 20.5265C6 20.7365 6.00002 20.9411 5.98814 21.1152C5.97515 21.3056 5.94468 21.5313 5.84773 21.7654C5.64475 22.2554 5.2554 22.6448 4.76535 22.8478C4.5313 22.9447 4.30558 22.9752 4.11521 22.9882C3.94113 23 3.73651 23 3.52646 23H3.47351C3.26346 23 3.05884 23 2.88476 22.9882C2.69439 22.9752 2.46867 22.9447 2.23462 22.8478C1.74457 22.6448 1.35523 22.2554 1.15224 21.7654C1.0553 21.5313 1.02482 21.3056 1.01183 21.1152C0.999955 20.9411 0.999976 20.7365 0.999997 20.5265L0.999998 15.5C0.999998 15.4912 0.999998 15.4824 0.999997 15.4736C0.999976 15.2635 0.999955 15.0589 1.01183 14.8848C1.02482 14.6944 1.0553 14.4687 1.15224 14.2347C1.35523 13.7446 1.74457 13.3553 2.23463 13.1523C2.46867 13.0553 2.69439 13.0249 2.88476 13.0119C3.05885 13 3.26347 13 3.47352 13Z" fill="#344054"/>
</svg>
