<svg width="24" height="24" viewBox="0 0 24 24" fill="none" xmlns="http://www.w3.org/2000/svg">
<path fill-rule="evenodd" clip-rule="evenodd" d="M16.992 10.5455C16.1473 8.34649 14.001 6.79594 11.3331 7.29093C8.38389 7.83815 6.45042 10.5187 6.85266 13.4356C6.99659 14.4793 7.44958 16.151 7.91427 17.7148C8.38612 19.3026 8.89469 20.8594 9.17745 21.7096C9.1796 21.716 9.18178 21.7226 9.18401 21.7293C9.21637 21.8268 9.25663 21.948 9.30133 22.0536C9.35482 22.1799 9.4397 22.3476 9.59039 22.5072C9.79047 22.7191 10.0509 22.8694 10.3344 22.9368C10.548 22.9875 10.7357 22.9771 10.8718 22.9603C10.9856 22.9462 11.1107 22.9205 11.2113 22.8998C11.2182 22.8984 11.225 22.897 11.2317 22.8956C12.1093 22.7154 13.7118 22.3774 15.3229 21.9921C16.9095 21.6127 18.5837 21.1691 19.5595 20.7719C22.2734 19.6673 23.6886 16.6567 22.6361 13.8066C21.698 11.2661 19.3167 10.176 16.992 10.5455Z" fill="#344054"/>
<path d="M14.5952 1.49282C12.1355 0.359819 9.68086 1.27275 8.29831 3.1779C6.1461 2.22022 3.53199 2.64153 1.99558 4.87797C0.29708 7.35035 0.825343 10.613 3.17234 12.3911C3.59193 12.709 4.17918 13.0846 4.84321 13.4791C4.4244 9.58226 7.05667 6.05027 10.9683 5.3245C13.773 4.8041 16.1321 5.90788 17.6302 7.72748C18.2268 5.25389 17.0637 2.62986 14.5952 1.49282Z" fill="#344054"/>
</svg>
