<svg width="24" height="24" viewBox="0 0 24 24" fill="none" xmlns="http://www.w3.org/2000/svg">
<path fill-rule="evenodd" clip-rule="evenodd" d="M11.9928 3.71691C9.65285 1.67202 6.19239 1.25356 3.50509 3.54965C0.598301 6.03328 0.175971 10.2161 2.47459 13.1739C3.34712 14.2967 5.05011 15.9835 6.68672 17.5282C8.34249 19.0911 9.99445 20.5679 10.8091 21.2894C10.8142 21.2939 10.8194 21.2985 10.8247 21.3032C10.9012 21.371 10.9966 21.4556 11.088 21.5244C11.1974 21.6068 11.3545 21.7091 11.5643 21.7717C11.8432 21.8549 12.143 21.8549 12.422 21.7717C12.6318 21.7091 12.7889 21.6068 12.8983 21.5244C12.9897 21.4556 13.085 21.371 13.1616 21.3032C13.1669 21.2985 13.1721 21.2939 13.1772 21.2894C13.9918 20.5679 15.6438 19.0911 17.2996 17.5282C18.9362 15.9835 20.6392 14.2967 21.5117 13.1739C23.8015 10.2275 23.4444 6.01238 20.4708 3.54088C17.7536 1.28246 14.33 1.67124 11.9928 3.71691Z" fill="#344054"/>
</svg>
