<svg width="24" height="24" viewBox="0 0 24 24" fill="none" xmlns="http://www.w3.org/2000/svg">
<path fill-rule="evenodd" clip-rule="evenodd" d="M8.52269 0.999947L8.47165 0.999855C8.28174 0.999348 8.0426 0.998709 7.80727 1.05521C7.6032 1.1042 7.40811 1.18501 7.22916 1.29467C7.02281 1.42112 6.85417 1.59067 6.72024 1.72531L6.68421 1.76147L1.76147 6.68421L1.72531 6.72024C1.59067 6.85416 1.42112 7.02281 1.29467 7.22916C1.18501 7.40811 1.1042 7.6032 1.05521 7.80727C0.998709 8.0426 0.999348 8.28174 0.999855 8.47165L0.999947 8.52269V15.4772L0.999855 15.5282C0.999348 15.7182 0.998709 15.9573 1.05521 16.1926C1.1042 16.3967 1.18501 16.5918 1.29467 16.7707C1.42112 16.9771 1.59067 17.1457 1.72532 17.2797L1.76147 17.3157L6.68421 22.2384L6.72024 22.2746C6.85417 22.4092 7.02281 22.5788 7.22916 22.7052C7.40811 22.8149 7.6032 22.8957 7.80727 22.9447C8.0426 23.0012 8.28174 23.0005 8.47166 23L8.52269 22.9999H15.4772L15.5282 23C15.7181 23.0005 15.9573 23.0012 16.1926 22.9447C16.3967 22.8957 16.5918 22.8149 16.7707 22.7052C16.9771 22.5788 17.1457 22.4092 17.2797 22.2746L17.3157 22.2384L22.2384 17.3157L22.2746 17.2797C22.4092 17.1457 22.5788 16.9771 22.7052 16.7707C22.8149 16.5918 22.8957 16.3967 22.9447 16.1926C23.0012 15.9573 23.0005 15.7181 23 15.5282L22.9999 15.4772V8.52269L23 8.47166C23.0005 8.28174 23.0012 8.0426 22.9447 7.80727C22.8957 7.6032 22.8149 7.40811 22.7052 7.22916C22.5788 7.02282 22.4092 6.85417 22.2746 6.72025L22.2384 6.68421L17.3157 1.76147L17.2797 1.72531C17.1457 1.59067 16.9771 1.42112 16.7707 1.29467C16.5918 1.18501 16.3967 1.1042 16.1926 1.05521C15.9573 0.998709 15.7182 0.999348 15.5282 0.999855L15.4772 0.999947H8.52269ZM10.9066 8.27123C11.3138 8.03191 11.7925 7.94443 12.2581 8.02428C12.7236 8.10413 13.1458 8.34615 13.45 8.70749C13.7542 9.06883 13.9206 9.52615 13.9199 9.99847L13.9199 9.99996C13.9199 10.4691 13.5548 10.9582 12.8652 11.4179C12.5509 11.6275 12.2294 11.7889 11.9825 11.8986C11.8605 11.9529 11.7603 11.9929 11.6928 12.0186C11.6629 12.03 11.6329 12.041 11.6027 12.0516C11.0794 12.2267 10.7967 12.7926 10.9712 13.3162C11.1459 13.8401 11.7122 14.1233 12.2362 13.9486L12.4048 13.8876C12.5015 13.8508 12.6356 13.7971 12.7948 13.7263C13.1105 13.586 13.539 13.3724 13.9746 13.082C14.7849 12.5419 15.9195 11.5312 15.9199 10.0009C15.9212 9.05644 15.5883 8.14201 14.98 7.41949C14.3717 6.69682 13.5272 6.21277 12.5962 6.05307C11.6651 5.89337 10.7076 6.06833 9.8932 6.54696C9.0788 7.02559 8.46007 7.77701 8.1466 8.66812C7.96333 9.18911 8.2371 9.76002 8.75809 9.9433C9.27908 10.1266 9.85 9.85279 10.0333 9.33181C10.19 8.88625 10.4994 8.51054 10.9066 8.27123ZM11.9999 16C11.4476 16 10.9999 16.4477 10.9999 17C10.9999 17.5522 11.4476 18 11.9999 18H12.0099C12.5622 18 13.0099 17.5522 13.0099 17C13.0099 16.4477 12.5622 16 12.0099 16H11.9999Z" fill="#344054"/>
</svg>
