<svg width="24" height="24" viewBox="0 0 24 24" fill="none" xmlns="http://www.w3.org/2000/svg">
<path fill-rule="evenodd" clip-rule="evenodd" d="M11.4773 1.33636C11.8196 1.24368 12.1804 1.24368 12.5227 1.33636C12.9201 1.44395 13.2546 1.7066 13.5216 1.91623C15.825 3.72462 18.1428 5.51471 20.4563 7.31011C20.8329 7.6024 21.1647 7.8599 21.412 8.19421C21.629 8.48759 21.7906 8.8181 21.889 9.1695C22.0011 9.56992 22.0006 9.98993 22.0001 10.4667C21.9975 12.924 22 15.3813 22 17.8386C22 18.3657 22.0001 18.8204 21.9694 19.195C21.9371 19.5904 21.8658 19.9836 21.673 20.362C21.3854 20.9264 20.9265 21.3854 20.362 21.673C19.9836 21.8658 19.5904 21.9371 19.195 21.9694C18.3935 22.0349 17.5806 21.9996 16.7769 22C16.6578 22 16.5155 22.0001 16.3902 21.9899C16.245 21.978 16.037 21.9475 15.819 21.8365C15.5368 21.6927 15.3073 21.4632 15.1635 21.181C15.0525 20.963 15.022 20.755 15.0101 20.6098C14.9999 20.4845 15 20.3422 15 20.2231L15.0079 14.6269C15.0087 14.0661 15.0091 13.7857 14.9002 13.5715C14.8044 13.3831 14.6514 13.2298 14.4631 13.1338C14.249 13.0246 13.9687 13.0246 13.4079 13.0246H10.608C10.0487 13.0246 9.76904 13.0246 9.55528 13.1334C9.36725 13.2291 9.21431 13.3818 9.11834 13.5697C9.00923 13.7833 9.00884 14.063 9.00804 14.6223L9.00002 20.2231C9.00007 20.3422 9.00012 20.4845 8.98988 20.6098C8.97802 20.755 8.94758 20.963 8.83653 21.181C8.69272 21.4632 8.46325 21.6927 8.181 21.8365C7.96306 21.9475 7.75507 21.978 7.60985 21.9899C7.48453 22.0001 7.34228 22 7.22317 22C6.41948 21.9996 5.60651 22.0349 4.80499 21.9694C4.40964 21.9371 4.01643 21.8658 3.63805 21.673C3.07356 21.3854 2.61462 20.9264 2.327 20.362C2.1342 19.9836 2.06289 19.5904 2.03059 19.195C1.99998 18.8204 2 18.3657 2.00002 17.8385C2.00002 15.3812 2.0026 12.9239 1.99995 10.4667C1.99943 9.98993 1.99898 9.56992 2.11106 9.1695C2.20942 8.8181 2.37107 8.48759 2.58806 8.19421C2.83532 7.85991 3.16713 7.6024 3.54376 7.31012C5.8572 5.51479 8.17512 3.72458 10.4784 1.91623C10.7454 1.7066 11.08 1.44395 11.4773 1.33636Z" fill="#344054"/>
</svg>
