<svg width="24" height="24" viewBox="0 0 24 24" fill="none" xmlns="http://www.w3.org/2000/svg">
<path fill-rule="evenodd" clip-rule="evenodd" d="M11.4909 1.31589C11.8247 1.22804 12.1755 1.22804 12.5092 1.31589C12.8964 1.41782 13.225 1.66653 13.4871 1.8649L13.5601 1.92L14.1668 2.37507C14.2432 2.43182 14.3206 2.49004 14.3993 2.54927L14.5201 2.64L22.6001 8.7C23.0419 9.03137 23.1314 9.65817 22.8001 10.1C22.4687 10.5418 21.8419 10.6314 21.4001 10.3L21.0001 10V17.8386C21.0001 18.3657 21.0001 18.8205 20.9695 19.195C20.9372 19.5904 20.8659 19.9836 20.6731 20.362C20.3855 20.9265 19.9265 21.3854 19.362 21.673C18.9837 21.8658 18.5904 21.9371 18.1951 21.9694C17.8205 22 17.3658 22 16.8386 22H7.1615C6.63436 22 6.1796 22 5.80503 21.9694C5.40969 21.9371 5.01647 21.8658 4.63809 21.673C4.07361 21.3854 3.61466 20.9265 3.32704 20.362C3.13425 19.9836 3.06293 19.5904 3.03063 19.195C3.00003 18.8205 3.00004 18.3657 3.00006 17.8385L3.00006 10L2.60006 10.3C2.15823 10.6314 1.53143 10.5418 1.20006 10.1C0.868688 9.65817 0.958231 9.03137 1.40006 8.7L9.48006 2.64L9.60074 2.5493C9.67945 2.49008 9.75681 2.43187 9.83322 2.37513L10.4401 1.92L10.5131 1.8649C10.7751 1.66653 11.1037 1.41782 11.4909 1.31589ZM9.00006 13.6V20H15.0001V13.6C15.0001 13.0399 15.0001 12.7599 14.8911 12.546C14.7952 12.3578 14.6422 12.2049 14.4541 12.109C14.2401 12 13.9601 12 13.4001 12H10.6001C10.04 12 9.75998 12 9.54607 12.109C9.35791 12.2049 9.20493 12.3578 9.10905 12.546C9.00006 12.7599 9.00006 13.0399 9.00006 13.6Z" fill="#344054"/>
</svg>
