<svg width="24" height="24" viewBox="0 0 24 24" fill="none" xmlns="http://www.w3.org/2000/svg">
<path fill-rule="evenodd" clip-rule="evenodd" d="M11.4773 1.33636C11.8196 1.24368 12.1804 1.24368 12.5227 1.33636C12.9201 1.44395 13.2546 1.7066 13.5216 1.91623C13.5471 1.93625 13.572 1.95578 13.5963 1.97465L20.3786 7.24977C20.4047 7.27007 20.4306 7.29017 20.4563 7.31011C20.8329 7.6024 21.1647 7.8599 21.412 8.19421C21.629 8.48759 21.7906 8.8181 21.889 9.1695C22.0011 9.56992 22.0006 9.98993 22.0001 10.4667C22.0001 10.4992 22 10.532 22 10.5651V17.8386C22 18.3657 22.0001 18.8204 21.9694 19.195C21.9371 19.5904 21.8658 19.9836 21.673 20.362C21.3854 20.9264 20.9265 21.3854 20.362 21.673C19.9836 21.8658 19.5904 21.9371 19.195 21.9694C18.8205 22 18.3657 22 17.8386 22H6.16145C5.63431 22 5.17956 22 4.80499 21.9694C4.40964 21.9371 4.01643 21.8658 3.63805 21.673C3.07356 21.3854 2.61462 20.9264 2.327 20.362C2.1342 19.9836 2.06289 19.5904 2.03059 19.195C1.99998 18.8204 2 18.3657 2.00002 17.8385L2.00002 10.5651C2.00002 10.532 1.99998 10.4992 1.99995 10.4667C1.99943 9.98993 1.99898 9.56992 2.11106 9.1695C2.20942 8.8181 2.37107 8.48759 2.58806 8.19421C2.83532 7.85991 3.16713 7.6024 3.54376 7.31012C3.56946 7.29018 3.59536 7.27007 3.62147 7.24977L10.4038 1.97465C10.428 1.95578 10.4529 1.93625 10.4784 1.91623C10.7454 1.7066 11.08 1.44395 11.4773 1.33636Z" fill="#344054"/>
</svg>
