<svg width="24" height="24" viewBox="0 0 24 24" fill="none" xmlns="http://www.w3.org/2000/svg">
<path fill-rule="evenodd" clip-rule="evenodd" d="M16.2071 7.79284C16.5976 8.18336 16.5976 8.81653 16.2071 9.20705L9.20707 16.207C8.81655 16.5976 8.18338 16.5976 7.79286 16.207C7.40233 15.8165 7.40233 15.1834 7.79286 14.7928L14.7929 7.79284C15.1834 7.40231 15.8165 7.40231 16.2071 7.79284Z" fill="#344054"/>
<path fill-rule="evenodd" clip-rule="evenodd" d="M6.34311 10.5858C6.73363 10.9763 6.73363 11.6094 6.34311 12L4.9289 13.4142C3.3668 14.9763 3.3668 17.5089 4.9289 19.071C6.49099 20.6331 9.02365 20.6331 10.5858 19.071L12 17.6568C12.3905 17.2663 13.0237 17.2663 13.4142 17.6568C13.8047 18.0473 13.8047 18.6805 13.4142 19.071L12 20.4852C9.65682 22.8284 5.85783 22.8284 3.51468 20.4852C1.17154 18.1421 1.17154 14.3431 3.51468 12L4.9289 10.5858C5.31942 10.1952 5.95259 10.1952 6.34311 10.5858Z" fill="#344054"/>
<path fill-rule="evenodd" clip-rule="evenodd" d="M12 3.51468C14.3431 1.17154 18.1421 1.17154 20.4852 3.51468C22.8284 5.85783 22.8284 9.65682 20.4852 12L19.071 13.4142C18.6805 13.8047 18.0473 13.8047 17.6568 13.4142C17.2663 13.0237 17.2663 12.3905 17.6568 12L19.071 10.5858C20.6331 9.02365 20.6331 6.49099 19.071 4.9289C17.5089 3.3668 14.9763 3.3668 13.4142 4.9289L12 6.34311C11.6094 6.73363 10.9763 6.73363 10.5858 6.34311C10.1952 5.95259 10.1952 5.31942 10.5858 4.9289L12 3.51468Z" fill="#344054"/>
</svg>
