<svg width="24" height="24" viewBox="0 0 24 24" fill="none" xmlns="http://www.w3.org/2000/svg">
<path d="M9.86239 2.00005L16.2413 2.0001C17.0462 2.00008 17.7106 2.00007 18.2518 2.04429C18.8139 2.09022 19.3306 2.18878 19.8159 2.43607C20.5686 2.81956 21.1805 3.43149 21.564 4.18414C21.8113 4.66947 21.9099 5.18617 21.9558 5.74827C22 6.28946 22 6.95381 22 7.75877V16.2414C22 17.0464 22 17.7107 21.9558 18.2519C21.9099 18.814 21.8113 19.3307 21.564 19.8161C21.1805 20.5687 20.5686 21.1806 19.8159 21.5641C19.3306 21.8114 18.8139 21.91 18.2518 21.9559C17.7106 22.0001 17.0463 22.0001 16.2413 22.0001L9.8624 22.0001C9.06701 22.0006 8.47635 22.0009 7.9647 21.8638C6.58433 21.4939 5.50614 20.4157 5.13627 19.0354C4.99917 18.5237 4.99949 17.9331 4.99993 17.1377L4.99997 17.0001C4.99997 16.4478 5.44769 16.0001 5.99997 16.0001C6.55226 16.0001 6.99997 16.4478 6.99997 17.0001C6.99997 17.9944 7.00856 18.2955 7.06812 18.5177C7.25306 19.2079 7.79215 19.747 8.48234 19.9319C8.70461 19.9915 9.00562 20.0001 9.99997 20.0001H16.2C17.0566 20.0001 17.6388 19.9993 18.0889 19.9625C18.5274 19.9267 18.7516 19.8618 18.908 19.7821C19.2843 19.5904 19.5902 19.2844 19.782 18.9081C19.8617 18.7517 19.9266 18.5275 19.9624 18.0891C19.9992 17.639 20 17.0567 20 16.2001V7.8001C20 6.94352 19.9992 6.36122 19.9624 5.91113C19.9266 5.47272 19.8617 5.24852 19.782 5.09211C19.5902 4.71579 19.2843 4.40983 18.908 4.21808C18.7516 4.13839 18.5274 4.07347 18.0889 4.03765C17.6388 4.00087 17.0566 4.0001 16.2 4.0001H9.99997C9.00562 4.0001 8.70461 4.00869 8.48234 4.06824C7.79215 4.25318 7.25306 4.79227 7.06812 5.48246C7.00856 5.70474 6.99997 6.00574 6.99997 7.0001C6.99997 7.55238 6.55226 8.0001 5.99997 8.0001C5.44769 8.0001 4.99997 7.55238 4.99997 7.0001L4.99993 6.86252C4.99949 6.06713 4.99917 5.47647 5.13627 4.96482C5.50614 3.58445 6.58433 2.50626 7.9647 2.13639C8.47635 1.9993 9.06701 1.99962 9.86239 2.00005Z" fill="#344054"/>
<path d="M11.2929 7.29302C11.6834 6.90249 12.3166 6.90249 12.7071 7.29302L16.7071 11.293C17.0976 11.6835 17.0976 12.3167 16.7071 12.7072L12.7071 16.7072C12.3166 17.0978 11.6834 17.0978 11.2929 16.7072C10.9024 16.3167 10.9024 15.6835 11.2929 15.293L13.5858 13.0001H3C2.44772 13.0001 2 12.5524 2 12.0001C2 11.4478 2.44772 11.0001 3 11.0001H13.5858L11.2929 8.70723C10.9024 8.3167 10.9024 7.68354 11.2929 7.29302Z" fill="#344054"/>
</svg>
