<svg width="24" height="24" viewBox="0 0 24 24" fill="none" xmlns="http://www.w3.org/2000/svg">
<path d="M7.9647 2.13639C8.47635 1.9993 9.06701 1.99962 9.86239 2.00005L16.2413 2.0001C17.0462 2.00008 17.7106 2.00007 18.2518 2.04429C18.8139 2.09022 19.3306 2.18878 19.8159 2.43607C20.5686 2.81956 21.1805 3.43149 21.564 4.18414C21.8113 4.66947 21.9099 5.18617 21.9558 5.74827C22 6.28946 22 6.95381 22 7.75877V16.2414C22 17.0464 22 17.7107 21.9558 18.2519C21.9099 18.814 21.8113 19.3307 21.564 19.8161C21.1805 20.5687 20.5686 21.1806 19.8159 21.5641C19.3306 21.8114 18.8139 21.91 18.2518 21.9559C17.7106 22.0001 17.0463 22.0001 16.2413 22.0001L9.8624 22.0001C9.06701 22.0006 8.47635 22.0009 7.9647 21.8638C6.58433 21.4939 5.50614 20.4157 5.13627 19.0354C4.99917 18.5237 4.99949 17.9331 4.99993 17.1377V16.6001C4.99993 16.0401 4.99993 15.76 5.10892 15.5461C5.20479 15.358 5.35777 15.205 5.54593 15.1091C5.75985 15.0001 6.03987 15.0001 6.59993 15.0001H8.0404C8.41102 15.0001 8.59632 15.0001 8.70126 15.0521C8.81675 15.1094 8.85725 15.1484 8.91871 15.2617C8.97455 15.3647 8.98372 15.6135 9.00205 16.1112C9.02894 16.8415 9.32115 17.5639 9.87868 18.1214C11.0503 19.293 12.9497 19.293 14.1213 18.1214L18.1213 14.1214C18.409 13.8338 18.626 13.5023 18.7724 13.1485C18.9174 12.7988 18.9982 12.4157 19 12.014L19 12.0001L19 11.9903C18.9975 11.2258 18.7046 10.4621 18.1213 9.8788L14.1213 5.8788C12.9497 4.70723 11.0503 4.70723 9.87868 5.8788C9.32115 6.43633 9.02894 7.1587 9.00205 7.88902C8.98372 8.38672 8.97455 8.63557 8.91871 8.73852C8.85725 8.85182 8.81675 8.89086 8.70126 8.94811C8.59632 9.00012 8.41102 9.00012 8.0404 9.00012H6.59993C6.03987 9.00012 5.75985 9.00012 5.54593 8.89113C5.35777 8.79526 5.20479 8.64227 5.10892 8.45411C4.99993 8.2402 4.99993 7.96018 4.99993 7.40012V6.86252C4.99949 6.06713 4.99917 5.47647 5.13627 4.96482C5.50614 3.58445 6.58433 2.50626 7.9647 2.13639Z" fill="#344054"/>
<path d="M11.2929 7.29302C11.6834 6.90249 12.3166 6.90249 12.7071 7.29302L16.7071 11.293C17.0976 11.6835 17.0976 12.3167 16.7071 12.7072L12.7071 16.7072C12.3166 17.0978 11.6834 17.0978 11.2929 16.7072C10.9024 16.3167 10.9024 15.6835 11.2929 15.293L13.5858 13.0001H3C2.44772 13.0001 2 12.5524 2 12.0001C2 11.4478 2.44772 11.0001 3 11.0001H13.5858L11.2929 8.70723C10.9024 8.3167 10.9024 7.68354 11.2929 7.29302Z" fill="#344054"/>
</svg>
