<svg width="24" height="24" viewBox="0 0 24 24" fill="none" xmlns="http://www.w3.org/2000/svg">
<path d="M17.7206 1.4803C18.3436 1.45099 18.9236 1.48906 19.4779 1.70949C20.3304 2.04843 21.0404 2.67007 21.489 3.47022C21.7808 3.9906 21.8952 4.5605 21.9485 5.18182C22 5.78341 22 6.52928 22 7.43806V16.5619C22 17.4706 22 18.2164 21.9485 18.8179C21.8952 19.4393 21.7808 20.0092 21.489 20.5296C21.0404 21.3297 20.3304 21.9513 19.4779 22.2903C18.9236 22.5107 18.3436 22.5488 17.7206 22.5195C17.1175 22.4911 16.3783 22.3925 15.4774 22.2724L8.84365 21.3879L8.84146 21.3876L8.79049 21.3808C8.49183 21.341 8.26957 21.3115 8.06943 21.2636C6.41682 20.8683 5.19434 19.472 5.02091 17.7816C4.9999 17.5769 4.99994 17.3526 5.00001 17.0512V16.5999C5.00001 16.0398 5.00001 15.7598 5.109 15.5459C5.20487 15.3577 5.35785 15.2047 5.54602 15.1089C5.75993 14.9999 6.03995 14.9999 6.60001 14.9999H8.0404C8.41102 14.9999 8.59632 14.9999 8.70126 15.0519C8.81675 15.1091 8.85725 15.1482 8.91871 15.2615C8.97455 15.3644 8.98372 15.6133 9.00205 16.111C9.02894 16.8413 9.32115 17.5637 9.87868 18.1212C11.0503 19.2928 12.9497 19.2928 14.1213 18.1212L18.1213 14.1212C19.2929 12.9496 19.2929 11.0501 18.1213 9.87856L14.1213 5.87856C12.9497 4.70698 11.0503 4.70698 9.87868 5.87856C9.32115 6.43608 9.02894 7.15845 9.00205 7.88878C8.98372 8.38648 8.97455 8.63532 8.91871 8.73828C8.85725 8.85158 8.81675 8.89062 8.70126 8.94786C8.59632 8.99988 8.41102 8.99988 8.0404 8.99988H6.60001C6.03995 8.99988 5.75993 8.99988 5.54602 8.89088C5.35785 8.79501 5.20487 8.64203 5.109 8.45387C5.00001 8.23996 5.00001 7.95993 5.00001 7.39988V6.94859C4.99994 6.64718 4.9999 6.42292 5.0209 6.21816C5.19434 4.5278 6.41682 3.13151 8.06943 2.73619C8.26961 2.6883 8.49192 2.65871 8.79069 2.61894L15.4774 1.72738C16.3783 1.60725 17.1175 1.50868 17.7206 1.4803Z" fill="#344054"/>
<path d="M11.2929 7.29277C11.6834 6.90225 12.3166 6.90225 12.7071 7.29277L16.7071 11.2928C17.0976 11.6833 17.0976 12.3165 16.7071 12.707L12.7071 16.707C12.3166 17.0975 11.6834 17.0975 11.2929 16.707C10.9024 16.3165 10.9024 15.6833 11.2929 15.2928L13.5858 12.9999H3C2.44772 12.9999 2 12.5522 2 11.9999C2 11.4476 2.44772 10.9999 3 10.9999H13.5858L11.2929 8.70698C10.9024 8.31646 10.9024 7.6833 11.2929 7.29277Z" fill="#344054"/>
</svg>
