<svg width="24" height="24" viewBox="0 0 24 24" fill="none" xmlns="http://www.w3.org/2000/svg">
<path d="M6.2341 2.38843C6.72964 2.40809 7.3347 2.47533 8.07124 2.55718L9.17177 2.67945C9.42373 2.7074 9.61105 2.72818 9.78005 2.76178C11.5265 3.10902 12.8331 4.56887 12.9854 6.34296C13.0001 6.51463 13.0001 6.70309 13 6.95659V7.39988C13 7.95993 13 8.23996 12.891 8.45387C12.7951 8.64203 12.6422 8.79501 12.454 8.89088C12.2401 8.99988 11.9601 8.99988 11.4 8.99988H9C7.34315 8.99988 6 10.343 6 11.9999C6 13.6567 7.34315 14.9999 9 14.9999H11.4C11.9601 14.9999 12.2401 14.9999 12.454 15.1089C12.6422 15.2047 12.7951 15.3577 12.891 15.5459C13 15.7598 13 16.0398 13 16.5999V17.0431C13.0001 17.2966 13.0001 17.4851 12.9854 17.6568C12.8331 19.4309 11.5265 20.8907 9.78005 21.2379C9.61107 21.2715 9.42373 21.2923 9.17184 21.3203L8.10931 21.4383L8.10734 21.4385L8.07114 21.4426C7.33464 21.5244 6.72961 21.5916 6.23408 21.6113C5.72274 21.6316 5.24546 21.6064 4.78089 21.4578C3.69725 21.111 2.81256 20.3192 2.34824 19.2804C2.14918 18.8351 2.07147 18.3635 2.03517 17.8531C1.99998 17.3584 1.99999 16.7496 2 16.0086V7.99118C1.99999 7.25013 1.99998 6.64133 2.03517 6.14665C2.07147 5.63619 2.14918 5.16461 2.34824 4.71928C2.81256 3.68057 3.69725 2.88873 4.78089 2.54196C5.24547 2.39329 5.72275 2.36815 6.2341 2.38843Z" fill="#344054"/>
<path d="M15.2929 6.29277C15.6834 5.90225 16.3166 5.90225 16.7071 6.29277L21.7071 11.2928C22.0976 11.6833 22.0976 12.3165 21.7071 12.707L16.7071 17.707C16.3166 18.0975 15.6834 18.0975 15.2929 17.707C14.9024 17.3165 14.9024 16.6833 15.2929 16.2928L18.5858 12.9999H9C8.44772 12.9999 8 12.5522 8 11.9999C8 11.4476 8.44772 10.9999 9 10.9999H18.5858L15.2929 7.70698C14.9024 7.31646 14.9024 6.6833 15.2929 6.29277Z" fill="#344054"/>
</svg>
