<svg width="24" height="24" viewBox="0 0 24 24" fill="none" xmlns="http://www.w3.org/2000/svg">
<path d="M8.13758 2.00005C8.93297 1.99962 9.52363 1.9993 10.0353 2.13639C11.4156 2.50626 12.4938 3.58445 12.8637 4.96482C13.0008 5.47647 13.0005 6.06714 13.0001 6.86252V7.40012C13.0001 7.96017 13.0001 8.2402 12.8911 8.45411C12.7952 8.64227 12.6422 8.79526 12.454 8.89113C12.2401 9.00012 11.9601 9.00012 11.4001 9.00012H9C7.34315 9.00012 6 10.3433 6 12.0001C6 13.657 7.34315 15.0001 9 15.0001H11.4001C11.9601 15.0001 12.2401 15.0001 12.454 15.1091C12.6422 15.205 12.7952 15.358 12.8911 15.5461C13.0001 15.76 13.0001 16.0401 13.0001 16.6001V17.1377C13.0005 17.9331 13.0008 18.5237 12.8637 19.0354C12.4938 20.4157 11.4156 21.4939 10.0353 21.8638C9.52363 22.0009 8.93297 22.0006 8.13758 22.0001L7.46573 22.0001C6.79594 22.0001 6.24307 22.0001 5.79046 21.9692C5.32118 21.9372 4.88708 21.8687 4.46927 21.6956C3.48915 21.2896 2.71046 20.5109 2.30448 19.5308C2.13142 19.113 2.06289 18.6789 2.03087 18.2096C1.99999 17.757 1.99999 17.2042 2 16.5344V7.4658C1.99999 6.79603 1.99999 6.24316 2.03087 5.79056C2.06289 5.32127 2.13142 4.88718 2.30448 4.46936C2.71046 3.48925 3.48916 2.71055 4.46927 2.30458C4.88708 2.13151 5.32118 2.06298 5.79046 2.03096C6.24307 2.00008 6.79594 2.00009 7.46574 2.0001L8.13758 2.00005Z" fill="#344054"/>
<path d="M15.2929 6.29302C15.6834 5.90249 16.3166 5.90249 16.7071 6.29302L21.7071 11.293C22.0976 11.6835 22.0976 12.3167 21.7071 12.7072L16.7071 17.7072C16.3166 18.0978 15.6834 18.0978 15.2929 17.7072C14.9024 17.3167 14.9024 16.6835 15.2929 16.293L18.5858 13.0001H9C8.44772 13.0001 8 12.5524 8 12.0001C8 11.4478 8.44772 11.0001 9 11.0001H18.5858L15.2929 7.70723C14.9024 7.3167 14.9024 6.68354 15.2929 6.29302Z" fill="#344054"/>
</svg>
