<svg width="24" height="24" viewBox="0 0 24 24" fill="none" xmlns="http://www.w3.org/2000/svg">
<path d="M8.07123 2.55717L9.17177 2.67945C9.42373 2.7074 9.61105 2.72818 9.78005 2.76178C11.5265 3.10902 12.8331 4.56887 12.9854 6.34296C13.0001 6.51463 13.0001 6.70309 13 6.95659L13 6.99986C13 7.55214 12.5523 7.99986 12 7.99986C11.4477 7.99986 11 7.55214 11 6.99986C11 6.68428 10.9991 6.58872 10.9927 6.51397C10.9165 5.62693 10.2632 4.89701 9.39002 4.72339C9.31644 4.70875 9.22157 4.6973 8.90792 4.66245L7.88651 4.54896C7.10494 4.46212 6.57081 4.40336 6.15481 4.38686C5.74652 4.37066 5.53541 4.40042 5.39044 4.44681C4.84862 4.62019 4.40628 5.01611 4.17412 5.53547C4.11201 5.67443 4.05912 5.88096 4.03013 6.28854C4.00059 6.70382 4 7.24117 4 8.02755V15.9722C4 16.7585 4.00059 17.2959 4.03013 17.7112C4.05912 18.1188 4.112 18.3253 4.17412 18.4642C4.40628 18.9836 4.84862 19.3795 5.39044 19.5529C5.5354 19.5993 5.74652 19.6291 6.15482 19.6129C6.57082 19.5963 7.10495 19.5376 7.88651 19.4508L8.90792 19.3373C9.22147 19.3024 9.31646 19.291 9.39002 19.2763C10.2632 19.1027 10.9165 18.3728 10.9927 17.4857C10.9991 17.411 11 17.3154 11 16.9999C11 16.4476 11.4477 15.9999 12 15.9999C12.5523 15.9999 13 16.4476 13 16.9999L13 17.0431C13.0001 17.2966 13.0001 17.4851 12.9854 17.6568C12.8331 19.4308 11.5265 20.8907 9.78005 21.2379C9.61105 21.2715 9.4236 21.2923 9.17168 21.3203L8.07121 21.4425C7.3347 21.5244 6.72965 21.5916 6.2341 21.6113C5.72276 21.6316 5.24547 21.6064 4.78088 21.4578C3.69725 21.111 2.81256 20.3192 2.34824 19.2804C2.14918 18.8351 2.07147 18.3635 2.03517 17.8531C1.99998 17.3584 1.99999 16.7496 2 16.0085V7.9912C1.99999 7.25013 1.99998 6.64134 2.03517 6.14665C2.07147 5.63619 2.14918 5.16461 2.34824 4.71928C2.81256 3.68057 3.69725 2.88873 4.78089 2.54196C5.24547 2.39329 5.72275 2.36815 6.23409 2.38843C6.72964 2.40809 7.3347 2.47533 8.07123 2.55717Z" fill="#344054"/>
<path d="M15.2929 6.29277C15.6834 5.90225 16.3166 5.90225 16.7071 6.29277L21.7071 11.2928C22.0976 11.6833 22.0976 12.3165 21.7071 12.707L16.7071 17.707C16.3166 18.0975 15.6834 18.0975 15.2929 17.707C14.9024 17.3165 14.9024 16.6833 15.2929 16.2928L18.5858 12.9999H9C8.44772 12.9999 8 12.5522 8 11.9999C8 11.4476 8.44772 10.9999 9 10.9999H18.5858L15.2929 7.70698C14.9024 7.31646 14.9024 6.6833 15.2929 6.29277Z" fill="#344054"/>
</svg>
