<svg width="24" height="24" viewBox="0 0 24 24" fill="none" xmlns="http://www.w3.org/2000/svg">
<path d="M16.5307 2.03699C16.7663 1.99967 17.0284 1.99983 17.3329 2.00003L17.4825 2.00004C17.9595 1.99988 18.313 1.99977 18.6257 2.0493C20.3373 2.32039 21.6797 3.66275 21.9507 5.37432C22.0003 5.68707 22.0002 6.04056 22 6.51754L22 17.4826C22.0002 17.9596 22.0003 18.313 21.9507 18.6258C21.6797 20.3374 20.3373 21.6797 18.6257 21.9508C18.313 22.0003 17.9594 22.0002 17.4825 22.0001L17.3329 22.0001C17.0284 22.0003 16.7663 22.0004 16.5307 21.9631C15.247 21.7598 14.2402 20.753 14.0369 19.4694C13.9996 19.2337 13.9998 18.9717 14 18.6672V17.9055C14 17.6609 14 17.5386 14.0276 17.4235C14.0521 17.3215 14.0925 17.2239 14.1473 17.1345C14.2092 17.0335 14.2956 16.9471 14.4686 16.7741L17.1213 14.1214C18.2929 12.9498 18.2929 11.0503 17.1213 9.87874L14.4686 7.22602C14.2956 7.05306 14.2092 6.96659 14.1473 6.86567C14.0925 6.7762 14.0521 6.67866 14.0276 6.57662C14 6.46153 14 6.33924 14 6.09465V5.33295C13.9998 5.02842 13.9996 4.76641 14.0369 4.53075C14.2402 3.24708 15.247 2.24031 16.5307 2.03699Z" fill="#344054"/>
<path d="M9.29289 6.29295C9.68342 5.90243 10.3166 5.90243 10.7071 6.29295L15.7071 11.293C16.0976 11.6835 16.0976 12.3166 15.7071 12.7072L10.7071 17.7072C10.3166 18.0977 9.68342 18.0977 9.29289 17.7072C8.90237 17.3166 8.90237 16.6835 9.29289 16.293L12.5858 13.0001H3C2.44772 13.0001 2 12.5523 2 12.0001C2 11.4478 2.44772 11.0001 3 11.0001H12.5858L9.29289 7.70717C8.90237 7.31664 8.90237 6.68348 9.29289 6.29295Z" fill="#344054"/>
</svg>
