<svg width="24" height="24" viewBox="0 0 24 24" fill="none" xmlns="http://www.w3.org/2000/svg">
<path d="M9.51764 4.06824C9.29536 4.00869 8.99435 4.0001 8 4.0001H7.5C6.78741 4.0001 6.30304 4.00064 5.92661 4.02632C5.55915 4.05139 5.36813 4.09704 5.23463 4.15234C4.74458 4.35533 4.35523 4.74467 4.15224 5.23473C4.09695 5.36823 4.0513 5.55925 4.02623 5.9267C4.00054 6.30314 4 6.7875 4 7.5001V16.5001C4 17.2127 4.00054 17.6971 4.02623 18.0735C4.0513 18.4409 4.09694 18.632 4.15224 18.7655C4.35523 19.2555 4.74458 19.6449 5.23463 19.8479C5.36813 19.9032 5.55915 19.9488 5.9266 19.9739C6.30304 19.9996 6.78741 20.0001 7.5 20.0001H8C8.99435 20.0001 9.29536 19.9915 9.51764 19.9319C10.2078 19.747 10.7469 19.2079 10.9319 18.5177C10.9914 18.2955 11 17.9944 11 17.0001C11 16.4478 11.4477 16.0001 12 16.0001C12.5523 16.0001 13 16.4478 13 17.0001L13.0001 17.1377C13.0005 17.9331 13.0008 18.5237 12.8637 19.0354C12.4938 20.4157 11.4156 21.4939 10.0353 21.8638C9.52363 22.0009 8.93296 22.0006 8.13758 22.0001L7.46573 22.0001C6.79594 22.0001 6.24307 22.0001 5.79046 21.9692C5.32118 21.9372 4.88708 21.8687 4.46927 21.6956C3.48915 21.2896 2.71046 20.5109 2.30448 19.5308C2.13142 19.113 2.06288 18.6789 2.03087 18.2096C1.99998 17.757 1.99999 17.2042 2 16.5344V7.46583C1.99999 6.79604 1.99998 6.24316 2.03087 5.79056C2.06288 5.32127 2.13142 4.88718 2.30448 4.46936C2.71046 3.48925 3.48916 2.71055 4.46927 2.30458C4.88708 2.13151 5.32118 2.06298 5.79046 2.03096C6.24307 2.00008 6.79594 2.00009 7.46573 2.0001L8.13758 2.00005C8.93297 1.99962 9.52363 1.9993 10.0353 2.13639C11.4156 2.50626 12.4938 3.58445 12.8637 4.96482C13.0008 5.47647 13.0005 6.06713 13.0001 6.8625L13 7.0001C13 7.55238 12.5523 8.0001 12 8.0001C11.4477 8.0001 11 7.55238 11 7.0001C11 6.00574 10.9914 5.70474 10.9319 5.48246C10.7469 4.79227 10.2078 4.25318 9.51764 4.06824Z" fill="#344054"/>
<path d="M15.2929 6.29302C15.6834 5.90249 16.3166 5.90249 16.7071 6.29302L21.7071 11.293C22.0976 11.6835 22.0976 12.3167 21.7071 12.7072L16.7071 17.7072C16.3166 18.0978 15.6834 18.0978 15.2929 17.7072C14.9024 17.3167 14.9024 16.6835 15.2929 16.293L18.5858 13.0001H9C8.44772 13.0001 8 12.5524 8 12.0001C8 11.4478 8.44772 11.0001 9 11.0001H18.5858L15.2929 7.70723C14.9024 7.3167 14.9024 6.68354 15.2929 6.29302Z" fill="#344054"/>
</svg>
