<svg width="24" height="24" viewBox="0 0 24 24" fill="none" xmlns="http://www.w3.org/2000/svg">
<path d="M17.8146 3.47809C17.3073 3.50196 16.6534 3.58828 15.6978 3.7157L9.10586 4.59462C8.73411 4.64419 8.62192 4.66045 8.53472 4.68131C7.70842 4.87897 7.09718 5.57712 7.01046 6.4223C7.00131 6.51149 7.00001 6.62484 7.00001 6.99989C7.00001 7.55217 6.5523 7.99989 6.00001 7.99989C5.44773 7.99989 5.00001 7.55217 5.00001 6.99989L5.00001 6.94859C4.99994 6.64718 4.9999 6.42292 5.0209 6.21816C5.19434 4.5278 6.41682 3.13151 8.06943 2.73619C8.26961 2.6883 8.49191 2.65871 8.79068 2.61894L15.4774 1.72738C16.3783 1.60725 17.1175 1.50868 17.7206 1.4803C18.3436 1.45099 18.9236 1.48906 19.4779 1.70949C20.3304 2.04843 21.0404 2.67007 21.489 3.47022C21.7808 3.9906 21.8952 4.5605 21.9485 5.18182C22 5.78345 22 6.52919 22 7.43804V16.5617C22 17.4705 22 18.2163 21.9485 18.8179C21.8952 19.4393 21.7808 20.0092 21.489 20.5296C21.0404 21.3297 20.3304 21.9513 19.4779 22.2903C18.9236 22.5107 18.3436 22.5488 17.7206 22.5195C17.1175 22.4911 16.3783 22.3925 15.4774 22.2724L8.79052 21.3808C8.49196 21.3411 8.26953 21.3114 8.06943 21.2636C6.41682 20.8683 5.19434 19.472 5.02091 17.7816C4.9999 17.5769 4.99994 17.3526 5.00001 17.0512L5.00001 16.9999C5.00001 16.4476 5.44773 15.9999 6.00001 15.9999C6.5523 15.9999 7.00001 16.4476 7.00001 16.9999C7.00001 17.3749 7.00131 17.4883 7.01046 17.5775C7.09718 18.4226 7.70842 19.1208 8.53472 19.3185C8.62191 19.3393 8.73413 19.3556 9.10587 19.4052L15.6978 20.2841C16.6534 20.4115 17.3073 20.4978 17.8146 20.5217C18.312 20.5451 18.5652 20.5009 18.739 20.4318C19.1652 20.2623 19.5202 19.9515 19.7445 19.5514C19.836 19.3883 19.9132 19.1432 19.9558 18.6471C19.9992 18.1411 20 17.4815 20 16.5174V7.48237C20 6.51828 19.9992 5.8587 19.9558 5.35268C19.9132 4.8566 19.836 4.61148 19.7445 4.44833C19.5202 4.04825 19.1652 3.73743 18.739 3.56796C18.5652 3.49885 18.312 3.45469 17.8146 3.47809Z" fill="#344054"/>
<path d="M11.2929 7.29277C11.6834 6.90225 12.3166 6.90225 12.7071 7.29277L16.7071 11.2928C17.0976 11.6833 17.0976 12.3165 16.7071 12.707L12.7071 16.707C12.3166 17.0975 11.6834 17.0975 11.2929 16.707C10.9024 16.3165 10.9024 15.6833 11.2929 15.2928L13.5858 12.9999H3C2.44772 12.9999 2 12.5522 2 11.9999C2 11.4476 2.44772 10.9999 3 10.9999H13.5858L11.2929 8.70698C10.9024 8.31646 10.9024 7.6833 11.2929 7.29277Z" fill="#344054"/>
</svg>
