<svg width="24" height="24" viewBox="0 0 24 24" fill="none" xmlns="http://www.w3.org/2000/svg">
<path fill-rule="evenodd" clip-rule="evenodd" d="M2.5 17.5C2.5 16.9477 2.94772 16.5 3.5 16.5H9C9.55228 16.5 10 16.9477 10 17.5C10 18.0522 9.55228 18.5 9 18.5H3.5C2.94772 18.5 2.5 18.0522 2.5 17.5Z" fill="#344054"/>
<path fill-rule="evenodd" clip-rule="evenodd" d="M1 12C1 11.4477 1.44772 11 2 11H6.5C7.05228 11 7.5 11.4477 7.5 12C7.5 12.5522 7.05228 13 6.5 13H2C1.44772 13 1 12.5522 1 12Z" fill="#344054"/>
<path fill-rule="evenodd" clip-rule="evenodd" d="M3 6.49996C3 5.94768 3.44772 5.49996 4 5.49996H9C9.55228 5.49996 10 5.94768 10 6.49996C10 7.05225 9.55228 7.49996 9 7.49996H4C3.44772 7.49996 3 7.05225 3 6.49996Z" fill="#344054"/>
<path fill-rule="evenodd" clip-rule="evenodd" d="M17.3676 2.06997C17.7947 2.23879 18.0519 2.67687 17.9912 3.13213L17.1422 9.49996H20.9454C20.9569 9.49996 20.9684 9.49996 20.9799 9.49996C21.2007 9.49991 21.4295 9.49986 21.6185 9.51714C21.8044 9.53413 22.1426 9.57917 22.4449 9.81251C22.7975 10.0846 23.0109 10.4993 23.0274 10.9444C23.0415 11.326 22.8816 11.6274 22.7874 11.7886C22.6916 11.9524 22.5586 12.1385 22.4302 12.3181C22.4235 12.3275 22.4168 12.3369 22.4102 12.3462L15.8137 21.5812C15.5468 21.9549 15.0596 22.0988 14.6324 21.93C14.2053 21.7611 13.9481 21.3231 14.0088 20.8678L14.8578 14.5H11.0546C11.0431 14.5 11.0316 14.5 11.0201 14.5C10.7993 14.5 10.5705 14.5001 10.3815 14.4828C10.1956 14.4658 9.85743 14.4207 9.55511 14.1874C9.20254 13.9153 8.98913 13.5006 8.97263 13.0555C8.95847 12.6739 9.1184 12.3725 9.21263 12.2114C9.30841 12.0475 9.44143 11.8614 9.56977 11.6818C9.57647 11.6724 9.58316 11.6631 9.58983 11.6537L16.1863 2.41872C16.4532 2.04498 16.9404 1.90114 17.3676 2.06997Z" fill="#344054"/>
</svg>
