<svg width="24" height="24" viewBox="0 0 24 24" fill="none" xmlns="http://www.w3.org/2000/svg">
<path fill-rule="evenodd" clip-rule="evenodd" d="M8.45896 0.999871C8.47215 1 8.48386 1.00012 8.49394 1.00012H14.2495C14.5775 1.00012 14.8846 1.16095 15.0714 1.43052C15.2583 1.7001 15.301 2.04414 15.1858 2.35124L13.4425 7.00012L19.1537 7.00011C19.4177 7.00007 19.6788 7.00003 19.8896 7.01882C20.0802 7.03579 20.4666 7.08041 20.7907 7.35421C21.1546 7.66157 21.3508 8.12349 21.3195 8.59877C21.2916 9.02216 21.0555 9.33128 20.9355 9.48021C20.8027 9.64502 20.6214 9.83293 20.4381 10.0229L8.21935 22.6943C7.899 23.0265 7.3929 23.0963 6.99455 22.8633C6.5962 22.6302 6.40907 22.1548 6.54168 21.7128L9.15548 13.0001H4.29394C4.28346 13.0001 4.27292 13.0001 4.26233 13.0001C4.07611 13.0002 3.87446 13.0002 3.70447 12.9847C3.52626 12.9684 3.22907 12.9253 2.94882 12.7293C2.61071 12.4928 2.38494 12.1275 2.32464 11.7194C2.27465 11.381 2.36906 11.096 2.43417 10.9293C2.49627 10.7703 2.5865 10.5899 2.66982 10.4234C2.67456 10.4139 2.67928 10.4045 2.68397 10.3951L6.88397 1.99513C6.88847 1.98612 6.89361 1.97559 6.89939 1.96373C6.95501 1.84971 7.07035 1.61321 7.25895 1.42849C7.41779 1.27292 7.60923 1.1546 7.81942 1.0821C8.06898 0.99602 8.3321 0.998618 8.45896 0.999871ZM8.61754 3.00012L4.61754 11.0001H10.4995C10.8156 11.0001 11.1131 11.1496 11.3018 11.4032C11.4905 11.6568 11.5482 11.9847 11.4573 12.2875L9.64241 18.3372L18.646 9.00012H11.9995C11.6715 9.00012 11.3644 8.83929 11.1776 8.56971C10.9908 8.30014 10.948 7.95609 11.0632 7.64899L12.8065 3.00012H8.61754Z" fill="#344054"/>
</svg>
