<svg width="24" height="24" viewBox="0 0 24 24" fill="none" xmlns="http://www.w3.org/2000/svg">
<path d="M7 2.58578L3.43934 6.14644C3.12436 6.46143 3.34744 7 3.79289 7H7V2.58578Z" fill="#344054"/>
<path d="M9 7V2.00011L19.3767 2.00206C19.8221 2.00214 20.0451 2.54066 19.7302 2.85561L15.7322 6.85355C15.6385 6.94732 15.5113 7 15.3787 7H9Z" fill="#344054"/>
<path d="M7 9H2.5C2.22386 9 2 9.22385 2 9.5L2.00204 19.3767C2.00213 19.8221 2.54064 20.0451 2.85559 19.7302L6.85355 15.7322C6.94732 15.6385 7 15.5113 7 15.3787V9Z" fill="#344054"/>
<path d="M4.2698 21.1444C3.95486 21.4594 4.17785 21.9979 4.62326 21.998L14.5 22C14.7761 22 15 21.7761 15 21.5V17H8.62132C8.48871 17 8.36154 17.0527 8.26777 17.1464L4.2698 21.1444Z" fill="#344054"/>
<path d="M15 15H9.5C9.22386 15 9 14.7761 9 14.5V9H14.5C14.7761 9 15 9.22385 15 9.5V15Z" fill="#344054"/>
<path d="M17 17V20.2071C17 20.6526 17.5386 20.8756 17.8536 20.5607L20.5607 17.8535C20.8756 17.5386 20.6526 17 20.2071 17H17Z" fill="#344054"/>
<path d="M21.9998 14.4999C21.9998 14.7761 21.776 15 21.4998 15H17V8.62132C17 8.48871 17.0527 8.36153 17.1464 8.26776L21.1444 4.26982C21.4593 3.95487 21.9979 4.17788 21.9979 4.62328L21.9998 14.4999Z" fill="#344054"/>
</svg>
