<svg width="24" height="24" viewBox="0 0 24 24" fill="none" xmlns="http://www.w3.org/2000/svg">
<path d="M11 2.26203C11 1.88065 10.5902 1.63968 10.2569 1.8251L3.68599 5.48085C3.34332 5.6715 3.34347 6.16442 3.68625 6.35486L10.2572 10.0054C10.5905 10.1906 11 9.9496 11 9.56836V2.26203Z" fill="#344054"/>
<path d="M2.74316 8.11884C2.40982 7.93365 2.00019 8.17478 2.00034 8.5561L2.00303 15.678C2.00318 16.0592 2.41266 16.3 2.74585 16.1149L9.15416 12.5547C9.49707 12.3642 9.49707 11.8711 9.15417 11.6806L2.74316 8.11884Z" fill="#344054"/>
<path d="M3.89256 17.7657C3.54966 17.9562 3.54966 18.4494 3.89256 18.6399L10.2572 22.1758C10.5905 22.361 11 22.12 11 21.7387V14.6669C11 14.2857 10.5905 14.0447 10.2572 14.2298L3.89256 17.7657Z" fill="#344054"/>
<path d="M13 21.7387C13 22.12 13.4096 22.361 13.7428 22.1758L20.1075 18.6399C20.4504 18.4494 20.4504 17.9562 20.1075 17.7657L13.7428 14.2298C13.4096 14.0447 13 14.2857 13 14.6669V21.7387Z" fill="#344054"/>
<path d="M21.2542 16.1149C21.5874 16.3 21.9969 16.0592 21.997 15.678L21.9997 8.5561C21.9998 8.17478 21.5902 7.93365 21.2569 8.11884L14.8459 11.6806C14.503 11.8711 14.503 12.3642 14.8459 12.5547L21.2542 16.1149Z" fill="#344054"/>
<path d="M20.3138 6.35486C20.6566 6.16442 20.6567 5.6715 20.314 5.48085L13.7431 1.8251C13.4098 1.63968 13 1.88065 13 2.26203V9.56836C13 9.9496 13.4096 10.1906 13.7428 10.0054L20.3138 6.35486Z" fill="#344054"/>
</svg>
