<svg width="24" height="24" viewBox="0 0 24 24" fill="none" xmlns="http://www.w3.org/2000/svg">
<path fill-rule="evenodd" clip-rule="evenodd" d="M11.9928 3.71691C9.65285 1.67202 6.19239 1.25356 3.50509 3.54965C0.598301 6.03328 0.175971 10.2161 2.47459 13.1739C3.26965 14.197 4.74903 15.6827 6.23191 17.0968C7.73142 18.5268 9.29007 19.9356 10.2822 20.8209L10.3042 20.8405C10.4668 20.9857 10.6293 21.1308 10.7792 21.2444C10.9477 21.3722 11.1546 21.5037 11.4185 21.5828C11.7906 21.6945 12.1957 21.6945 12.5678 21.5828C12.8317 21.5037 13.0386 21.3722 13.2071 21.2444C13.357 21.1308 13.5195 20.9857 13.6821 20.8406L13.7041 20.8209C14.6962 19.9356 16.2549 18.5268 17.7544 17.0968C19.2373 15.6827 20.7166 14.197 21.5117 13.1739C23.8015 10.2275 23.4444 6.01238 20.4708 3.54088C17.7536 1.28246 14.33 1.67124 11.9928 3.71691ZM11.2332 5.78575C9.52816 3.79238 6.81788 3.34975 4.80429 5.07021C2.70097 6.86733 2.41795 9.84171 4.05379 11.9467C4.74463 12.8357 6.1188 14.2253 7.61217 15.6494C9.08891 17.0577 10.6292 18.4501 11.6138 19.3287C11.8073 19.5013 11.9094 19.5914 11.9876 19.6507C11.9895 19.6522 11.9914 19.6536 11.9931 19.6549C11.9949 19.6536 11.9968 19.6522 11.9987 19.6507C12.0769 19.5914 12.179 19.5013 12.3725 19.3287C13.3571 18.4501 14.8974 17.0577 16.3741 15.6494C17.8675 14.2253 19.2417 12.8357 19.9325 11.9467C21.5772 9.83034 21.315 6.84319 19.1924 5.07898C17.1255 3.36105 14.4506 3.80119 12.7531 5.78575C12.5631 6.00786 12.2854 6.13573 11.9931 6.13573C11.7009 6.13573 11.4232 6.00786 11.2332 5.78575ZM11.0709 7.50243C11.4743 7.53111 11.8208 7.79998 11.9487 8.18369L13.1852 11.8934L13.6056 11.0527C13.775 10.7139 14.1212 10.4999 14.5 10.4999H15.5C16.0523 10.4999 16.5 10.9476 16.5 11.4999C16.5 12.0522 16.0523 12.4999 15.5 12.4999H15.118L13.8944 14.9471C13.7135 15.3089 13.3326 15.5261 12.9291 15.4974C12.5257 15.4687 12.1792 15.1999 12.0513 14.8161L10.8148 11.1065L10.3944 11.9471C10.225 12.2859 9.87877 12.4999 9.49999 12.4999H8.49999C7.94771 12.4999 7.49999 12.0522 7.49999 11.4999C7.49999 10.9476 7.94771 10.4999 8.49999 10.4999H8.88196L10.1056 8.05271C10.2864 7.69094 10.6674 7.47376 11.0709 7.50243Z" fill="#344054"/>
</svg>
