<svg width="24" height="24" viewBox="0 0 24 24" fill="none" xmlns="http://www.w3.org/2000/svg">
<path fill-rule="evenodd" clip-rule="evenodd" d="M4.41608 2.00004C4.44376 2.00007 4.47172 2.00009 4.49997 2.00009H19.5C19.5282 2.00009 19.5562 2.00007 19.5839 2.00004C19.9645 1.99974 20.2924 1.99948 20.5852 2.05773C21.7753 2.29445 22.7056 3.22474 22.9423 4.41482C23.0006 4.70767 23.0003 5.03551 23 5.41621C23 5.44389 23 5.47185 23 5.50009C23 5.52833 23 5.55628 23 5.58396C23.0003 5.96466 23.0006 6.2925 22.9423 6.58536C22.7339 7.63323 21.9877 8.4797 21 8.82862V16.2414C21 17.0464 21 17.7107 20.9558 18.2519C20.9098 18.814 20.8113 19.3307 20.564 19.816C20.1805 20.5687 19.5686 21.1806 18.8159 21.5641C18.3306 21.8114 17.8139 21.91 17.2518 21.9559C16.7106 22.0001 16.0462 22.0001 15.2413 22.0001H8.75864C7.95368 22.0001 7.28933 22.0001 6.74814 21.9559C6.18604 21.91 5.66934 21.8114 5.184 21.5641C4.43135 21.1806 3.81943 20.5687 3.43594 19.816C3.18865 19.3307 3.09008 18.814 3.04416 18.2519C2.99994 17.7107 2.99995 17.0464 2.99996 16.2414L2.99997 8.82862C2.01221 8.4797 1.26604 7.63323 1.05761 6.58536C0.999357 6.2925 0.999618 5.96467 0.999921 5.58397C0.999943 5.55629 0.999965 5.52833 0.999965 5.50009C0.999965 5.47184 0.999943 5.44388 0.999921 5.4162C0.999618 5.03551 0.999357 4.70767 1.05761 4.41482C1.29433 3.22474 2.22462 2.29445 3.41469 2.05773C3.70755 1.99948 4.03538 1.99974 4.41608 2.00004ZM4.99997 9.00009V16.2001C4.99997 17.0567 5.00074 17.639 5.03752 18.089C5.07334 18.5275 5.13826 18.7517 5.21795 18.9081C5.4097 19.2844 5.71566 19.5904 6.09198 19.7821C6.24838 19.8618 6.47259 19.9267 6.911 19.9625C7.36109 19.9993 7.94339 20.0001 8.79997 20.0001H15.2C16.0565 20.0001 16.6388 19.9993 17.0889 19.9625C17.5273 19.9267 17.7515 19.8618 17.9079 19.7821C18.2843 19.5904 18.5902 19.2844 18.782 18.9081C18.8617 18.7517 18.9266 18.5275 18.9624 18.089C18.9992 17.639 19 17.0567 19 16.2001V9.00009H4.99997ZM19.9172 7.00009H4.08275C4.06391 6.99854 4.0449 6.99751 4.02576 6.99702C3.88222 6.99331 3.8292 6.98571 3.80488 6.98087C3.40818 6.90197 3.09809 6.59187 3.01918 6.19518C3.00481 6.12293 2.99997 6.01267 2.99997 5.50009C2.99997 4.9875 3.00481 4.87725 3.01918 4.805C3.09809 4.40831 3.40818 4.09821 3.80488 4.0193C3.87712 4.00493 3.98738 4.00009 4.49997 4.00009H19.5C20.0126 4.00009 20.1228 4.00493 20.1951 4.0193C20.5917 4.09821 20.9018 4.40831 20.9808 4.805C20.9951 4.87725 21 4.9875 21 5.50009C21 6.01267 20.9951 6.12293 20.9808 6.19518C20.9018 6.59187 20.5917 6.90197 20.1951 6.98087C20.1707 6.98571 20.1177 6.99331 19.9742 6.99702C19.955 6.99751 19.936 6.99854 19.9172 7.00009ZM8.99997 13.0001C8.99997 12.4478 9.44768 12.0001 9.99997 12.0001H14C14.5523 12.0001 15 12.4478 15 13.0001C15 13.5524 14.5523 14.0001 14 14.0001H9.99997C9.44768 14.0001 8.99997 13.5524 8.99997 13.0001Z" fill="#344054"/>
</svg>
