<svg width="24" height="24" viewBox="0 0 24 24" fill="none" xmlns="http://www.w3.org/2000/svg">
<path d="M16.211 10.2117C16.6015 9.82122 16.6015 9.18806 16.211 8.79753C15.8205 8.40701 15.1873 8.40701 14.7968 8.79753L11.0039 12.5904L9.71101 11.2975C9.32049 10.907 8.68732 10.907 8.2968 11.2975C7.90628 11.6881 7.90628 12.3212 8.2968 12.7117L10.2968 14.7117C10.6873 15.1023 11.3205 15.1023 11.711 14.7117L16.211 10.2117Z" fill="#344054"/>
<path fill-rule="evenodd" clip-rule="evenodd" d="M7.53955 1.2309C8.28271 0.923035 9.11768 0.923035 9.86084 1.2309L11.6035 1.95282C11.8564 2.05731 12.1411 2.05707 12.396 1.95135L14.1406 1.23187C14.8833 0.9245 15.7183 0.924255 16.4609 1.23212C17.2041 1.53973 17.7944 2.13007 18.1021 2.87299L18.8071 4.57538C18.812 4.58514 18.8169 4.59515 18.8208 4.60541L18.8252 4.61639C18.9297 4.86908 19.1304 5.07025 19.3828 5.17523L21.1279 5.89813C21.8711 6.20575 22.4614 6.79633 22.769 7.53925C23.0771 8.28241 23.0771 9.11737 22.769 9.86053L22.0469 11.6044C21.9419 11.8581 21.9419 12.1423 22.0479 12.3959L22.7686 14.1389C22.9209 14.5068 22.9995 14.9013 22.9995 15.2997C22.9995 15.5803 22.9604 15.8591 22.8843 16.1281C22.8525 16.2409 22.814 16.352 22.769 16.4609C22.6929 16.6442 22.5991 16.8193 22.4893 16.9836C22.4609 17.0263 22.4312 17.0683 22.4004 17.1096C22.3125 17.2282 22.2158 17.3403 22.1113 17.445C21.8296 17.7265 21.4951 17.9499 21.127 18.1022L19.3828 18.8246C19.2534 18.8781 19.1377 18.9567 19.041 19.0546C18.9492 19.1481 18.875 19.259 18.8237 19.3823L18.1011 21.1276C17.793 21.8708 17.2026 22.4611 16.4595 22.769C15.7163 23.0766 14.8818 23.0768 14.1387 22.769L12.3955 22.0468C12.1426 21.9423 11.8584 21.9426 11.6045 22.0478L9.85889 22.7697C9.11621 23.0768 8.28223 23.0766 7.53955 22.769C6.79736 22.4616 6.20703 21.8718 5.89893 21.1296L5.17578 19.3832C5.07129 19.1301 4.87012 18.9284 4.61719 18.8234L2.87305 18.101C2.13037 17.7932 1.54004 17.2033 1.23193 16.4606C0.924316 15.718 0.923828 14.8835 1.23096 14.1403L1.95312 12.3967C1.99609 12.2932 2.02148 12.1843 2.0293 12.0744C2.04004 11.9162 2.01465 11.7558 1.95264 11.6064L1.23145 9.8598C1.07861 9.49188 1 9.09686 1 8.69867C1 8.30023 1.07861 7.9057 1.23096 7.53778C1.28418 7.40863 1.34668 7.28387 1.41699 7.164C1.54736 6.94159 1.70557 6.73651 1.88867 6.55341C1.99365 6.44843 2.10596 6.3515 2.22461 6.26337C2.42432 6.11517 2.64209 5.99164 2.87256 5.89618L4.6167 5.17377C4.86914 5.06927 5.0708 4.86884 5.17578 4.61664L5.89844 2.87201C6.20605 2.12909 6.79639 1.53851 7.53955 1.2309ZM8.30469 3.07855C8.40283 3.03802 8.50586 3.01312 8.60938 3.00409C8.70898 2.9953 8.80957 3.00092 8.90771 3.02094C8.93604 3.02606 8.96436 3.03241 8.99219 3.03973L10.6855 3.73724L10.8398 3.80121L10.8931 3.82269L10.9062 3.82806L10.9414 3.84369L11.0176 3.86957C11.54 4.05292 11.9854 4.04437 12.1704 4.02948L12.2671 4.02362L12.2549 4.0202L12.2617 4.01947C12.5439 3.99506 12.8208 3.93158 13.0889 3.82806L13.186 3.78876L14.9058 3.07977C15.0098 3.0368 15.1187 3.01141 15.2285 3.0036C15.3867 2.99261 15.5469 3.01801 15.6958 3.07977C15.9487 3.18451 16.1494 3.38568 16.2544 3.63861L16.9775 5.38422C16.9844 5.40106 16.9922 5.41766 17 5.43402L16.9888 5.43085L17.0049 5.46869L17 5.43402C17.313 6.15204 17.8921 6.72162 18.6167 7.02264L20.3623 7.74579C20.6157 7.85052 20.8164 8.0517 20.9214 8.30463C20.9897 8.46942 21.0137 8.6474 20.9932 8.82147C20.9819 8.91473 20.958 9.00677 20.9214 9.09515L20.1992 10.8391C19.8916 11.5815 19.8906 12.4172 20.2002 13.1625L20.9204 14.904C20.9727 15.0292 20.9995 15.1645 20.9995 15.3C20.9995 15.4357 20.9731 15.57 20.9209 15.6955C20.8691 15.8207 20.793 15.9348 20.6973 16.0305C20.6011 16.1264 20.4873 16.2026 20.3618 16.2543L18.6177 16.9743L18.5767 16.9948C17.9531 17.246 17.3359 17.8515 17.0391 18.4648L16.5234 19.6992L16.4517 19.8859C16.2617 20.3854 16.1157 20.7685 15.6875 20.9218C15.2661 21.0724 15.0342 20.9765 14.6294 20.8083L12.9878 20.1308C12.2227 19.8749 11.4062 19.9687 10.8984 20.1782L9.98145 20.562C9.96387 20.5693 9.94629 20.5754 9.92871 20.5807L9.89795 20.5893L9.09473 20.9216C8.8418 21.0261 8.55762 21.0261 8.30518 20.9213C8.05225 20.8166 7.85156 20.6157 7.74658 20.363L7.02344 18.6179C6.71631 17.8752 6.12598 17.2844 5.3833 16.976L3.63818 16.2531C3.49609 16.1943 3.37061 16.1052 3.26904 15.9933C3.23438 15.9553 3.20264 15.9147 3.17432 15.8718C3.13721 15.8163 3.10547 15.757 3.07959 15.6945C2.97461 15.4418 2.97461 15.1574 3.0791 14.9045L3.80176 13.1603C4.1084 12.4177 4.10791 11.5834 3.7998 10.84L3.0791 9.09491C3.02686 8.96844 3 8.83417 3 8.69843C3 8.62396 3.00781 8.54999 3.02393 8.47772C3.03711 8.41815 3.05518 8.3598 3.07861 8.30316C3.10693 8.2348 3.14209 8.16986 3.18408 8.10956C3.21924 8.05902 3.25879 8.01166 3.30273 7.96796C3.34033 7.93036 3.38037 7.89594 3.42285 7.86469C3.48926 7.8161 3.56152 7.77557 3.63818 7.74384L5.38135 7.02167C6.12402 6.71478 6.71387 6.12592 7.02246 5.38422L7.74609 3.63739C7.85107 3.38446 8.05176 3.18329 8.30469 3.07855Z" fill="#344054"/>
</svg>
