<svg width="24" height="24" viewBox="0 0 24 24" fill="none" xmlns="http://www.w3.org/2000/svg">
<path fill-rule="evenodd" clip-rule="evenodd" d="M8.55923 3.69069C8.3921 3.73427 8.227 3.81499 7.84393 4.01482C4.96314 5.51759 3 8.53039 3 12.0001C3 16.9706 7.02944 21.0001 12 21.0001C16.9706 21.0001 21 16.9706 21 12.0001C21 8.67005 19.192 5.76114 16.4993 4.20349C16.0212 3.92694 15.8579 3.31522 16.1344 2.83716C16.4109 2.3591 17.0227 2.19573 17.5007 2.47228C20.786 4.37272 23 7.92725 23 12.0001C23 18.0752 18.0751 23.0001 12 23.0001C5.92487 23.0001 1 18.0752 1 12.0001C1 7.75622 3.40353 4.07539 6.91892 2.24158C6.93362 2.23392 6.94839 2.2262 6.96323 2.21845C7.28638 2.04965 7.64542 1.8621 8.05455 1.75541C8.51449 1.63547 8.97871 1.62809 9.53704 1.70373C10.0495 1.77317 10.6077 2.03411 11.0428 2.29785C11.4779 2.5616 11.9674 2.93585 12.266 3.3581C13.0019 4.39891 13.0011 5.39449 13.0001 6.65549C13 6.70329 13 6.75148 13 6.80006V13.5858L15.2929 11.293C15.6834 10.9024 16.3166 10.9024 16.7071 11.293C17.0976 11.6835 17.0976 12.3166 16.7071 12.7072L12.7071 16.7072C12.3166 17.0977 11.6834 17.0977 11.2929 16.7072L7.29289 12.7072C6.90237 12.3166 6.90237 11.6835 7.29289 11.293C7.68342 10.9024 8.31658 10.9024 8.70711 11.293L11 13.5858V6.80006C11 5.3488 10.9702 4.98963 10.633 4.51281C10.5658 4.41778 10.3459 4.21417 10.006 4.00812C9.66608 3.80206 9.38386 3.70125 9.26852 3.68563C8.88196 3.63325 8.69433 3.65546 8.55923 3.69069Z" fill="#344054"/>
</svg>
