<svg width="24" height="24" viewBox="0 0 24 24" fill="none" xmlns="http://www.w3.org/2000/svg">
<path fill-rule="evenodd" clip-rule="evenodd" d="M11.4773 1.33636C11.8196 1.24368 12.1804 1.24368 12.5227 1.33636C12.9201 1.44395 13.2546 1.7066 13.5216 1.91624C13.5471 1.93625 13.572 1.95578 13.5963 1.97465L20.3786 7.24977C20.4047 7.27008 20.4306 7.29019 20.4563 7.31013C20.8329 7.60241 21.1647 7.85991 21.412 8.19421C21.629 8.48759 21.7906 8.8181 21.889 9.1695C22.0011 9.56992 22.0006 9.98993 22.0001 10.4667C22.0001 10.4992 22 10.532 22 10.5651V17.8386C22 18.3657 22.0001 18.8204 21.9694 19.195C21.9371 19.5904 21.8658 19.9836 21.673 20.362C21.3854 20.9264 20.9265 21.3854 20.362 21.673C19.9836 21.8658 19.5904 21.9371 19.195 21.9694C18.8205 22 18.3657 22 17.8386 22H6.16145C5.63431 22 5.17956 22 4.80499 21.9694C4.40964 21.9371 4.01643 21.8658 3.63805 21.673C3.07356 21.3854 2.61462 20.9264 2.327 20.362C2.1342 19.9836 2.06289 19.5904 2.03059 19.195C1.99998 18.8204 2 18.3657 2.00002 17.8385L2.00002 10.5651C2.00002 10.532 1.99998 10.4992 1.99995 10.4667C1.99943 9.98993 1.99898 9.56992 2.11106 9.1695C2.20942 8.8181 2.37107 8.48759 2.58806 8.19421C2.83532 7.85991 3.16713 7.6024 3.54377 7.31012C3.56946 7.29018 3.59537 7.27007 3.62147 7.24977L10.4038 1.97465C10.428 1.95578 10.4529 1.93625 10.4784 1.91623C10.7454 1.7066 11.08 1.44395 11.4773 1.33636ZM10 20H14V13.6C14 13.3035 13.9992 13.1412 13.9897 13.0246C13.9893 13.02 13.989 13.0156 13.9886 13.0114C13.9844 13.011 13.98 13.0107 13.9754 13.0103C13.8588 13.0008 13.6965 13 13.4 13H10.6C10.3035 13 10.1412 13.0008 10.0247 13.0103C10.02 13.0107 10.0156 13.011 10.0115 13.0114C10.0111 13.0156 10.0107 13.02 10.0103 13.0246C10.0008 13.1412 10 13.3035 10 13.6V20ZM16 20L16 13.5681C16 13.3157 16.0001 13.0699 15.9831 12.8618C15.9644 12.6332 15.9203 12.3634 15.782 12.092C15.5903 11.7157 15.2843 11.4097 14.908 11.218C14.6366 11.0797 14.3668 11.0356 14.1382 11.0169C13.9301 10.9999 13.6843 11 13.4319 11H10.5681C10.3157 11 10.07 10.9999 9.86179 11.0169C9.63319 11.0356 9.36346 11.0797 9.09204 11.218C8.71571 11.4097 8.40975 11.7157 8.218 12.092C8.07971 12.3634 8.03564 12.6332 8.01696 12.8618C7.99996 13.0699 7.99998 13.3157 8.00001 13.5681L8.00002 20H6.20002C5.62346 20 5.25119 19.9992 4.96785 19.9761C4.69619 19.9539 4.59547 19.9162 4.54603 19.891C4.35787 19.7951 4.20488 19.6421 4.10901 19.454C4.08382 19.4045 4.04614 19.3038 4.02394 19.0321C4.0008 18.7488 4.00002 18.3765 4.00002 17.8V10.5651C4.00002 9.93406 4.0087 9.8098 4.03703 9.7086C4.06982 9.59147 4.1237 9.4813 4.19603 9.3835C4.25852 9.29901 4.35127 9.21587 4.84935 8.82848L11.6317 3.55335C11.8186 3.40798 11.9176 3.33174 11.9927 3.28153C11.9953 3.27983 11.9977 3.27822 12 3.27669C12.0023 3.27822 12.0048 3.27983 12.0073 3.28153C12.0825 3.33174 12.1815 3.40798 12.3684 3.55335L19.1507 8.82848C19.6488 9.21587 19.7415 9.29901 19.804 9.3835C19.8763 9.4813 19.9302 9.59146 19.963 9.7086C19.9913 9.8098 20 9.93406 20 10.5651V17.8C20 18.3765 19.9992 18.7488 19.9761 19.0321C19.9539 19.3038 19.9162 19.4045 19.891 19.454C19.7951 19.6421 19.6422 19.7951 19.454 19.891C19.4046 19.9162 19.3038 19.9539 19.0322 19.9761C18.7488 19.9992 18.3766 20 17.8 20H16Z" fill="#344054"/>
</svg>
