<svg width="24" height="24" viewBox="0 0 24 24" fill="none" xmlns="http://www.w3.org/2000/svg">
<path fill-rule="evenodd" clip-rule="evenodd" d="M15.405 4.02761C15.3167 4.00641 15.2113 3.99998 14.6745 3.99998H7C6.44772 3.99998 6 3.55226 6 2.99998C6 2.44769 6.44772 1.99998 7 1.99998H14.6745C14.7025 1.99998 14.7303 1.99995 14.7578 1.99993C15.1647 1.99955 15.5235 1.99922 15.8719 2.08287C16.178 2.15636 16.4707 2.27757 16.7391 2.44206C17.0446 2.62929 17.298 2.8832 17.5855 3.17119C17.605 3.19068 17.6246 3.21033 17.6444 3.23013L20.7699 6.35562C20.7896 6.37541 20.8093 6.39502 20.8288 6.41448C21.1168 6.70193 21.3707 6.95537 21.5579 7.26091C21.7224 7.52933 21.8436 7.82196 21.9171 8.12807C22.0008 8.47652 22.0004 8.83527 22.0001 9.24217C22 9.26971 22 9.29747 22 9.32546V17C22 17.5523 21.5523 18 21 18C20.4477 18 20 17.5523 20 17V9.32546C20 8.78868 19.9936 8.68328 19.9724 8.59496C19.9479 8.49293 19.9075 8.39538 19.8526 8.30591C19.8052 8.22846 19.7352 8.14939 19.3556 7.76983L16.2302 4.64434C15.8506 4.26478 15.7715 4.1948 15.6941 4.14734C15.6046 4.09251 15.5071 4.05211 15.405 4.02761ZM14.0811 7.50239C14.0336 7.50022 13.9683 7.49998 13.8373 7.49998H8V8.39998C8 8.69651 8.00078 8.85876 8.0103 8.97535C8.01068 8.97999 8.01107 8.98438 8.01145 8.98853C8.0156 8.98891 8.01999 8.9893 8.02464 8.98968C8.14122 8.9992 8.30347 8.99998 8.6 8.99998H12.5C13.0523 8.99998 13.5 9.4477 13.5 9.99998C13.5 10.5523 13.0523 11 12.5 11L8.56812 11C8.31573 11 8.06994 11 7.86177 10.983C7.63318 10.9644 7.36344 10.9203 7.09202 10.782C6.7157 10.5902 6.40974 10.2843 6.21799 9.90796C6.07969 9.63654 6.03562 9.3668 6.01695 9.13821C5.99994 8.93005 5.99997 8.68426 6 8.43188C6 8.42126 6 8.41062 6 8.39998V7.50005C5.5349 7.50049 5.21698 7.50355 4.96784 7.52391C4.69617 7.5461 4.59546 7.58378 4.54601 7.60897C4.35785 7.70485 4.20487 7.85783 4.109 8.04599C4.0838 8.09543 4.04612 8.19615 4.02393 8.46782C4.00078 8.75115 4 9.12343 4 9.69998V17.8C4 18.3765 4.00078 18.7488 4.02393 19.0321C4.04612 19.3038 4.0838 19.4045 4.109 19.454C4.20487 19.6421 4.35785 19.7951 4.54601 19.891C4.59546 19.9162 4.69617 19.9539 4.96784 19.9761C5.21698 19.9964 5.5349 19.9995 6 19.9999L6 16.5681C5.99997 16.3157 5.99994 16.0699 6.01695 15.8617C6.03562 15.6332 6.07969 15.3634 6.21799 15.092C6.40974 14.7157 6.7157 14.4097 7.09202 14.218C7.36344 14.0797 7.63318 14.0356 7.86177 14.0169C8.06994 13.9999 8.31573 13.9999 8.56812 14H11.9319C12.1843 13.9999 12.4301 13.9999 12.6382 14.0169C12.8668 14.0356 13.1366 14.0797 13.408 14.218C13.7843 14.4097 14.0903 14.7157 14.282 15.092C14.4203 15.3634 14.4644 15.6332 14.4831 15.8617C14.5001 16.0699 14.5 16.3157 14.5 16.5681L14.5 19.9999C14.9651 19.9995 15.283 19.9964 15.5322 19.9761C15.8038 19.9539 15.9045 19.9162 15.954 19.891C16.1422 19.7951 16.2951 19.6421 16.391 19.454C16.4162 19.4045 16.4539 19.3038 16.4761 19.0321C16.4992 18.7488 16.5 18.3765 16.5 17.8V10.1627C16.5 10.0317 16.4998 9.96634 16.4976 9.91885C16.4975 9.9176 16.4975 9.91641 16.4974 9.91526C16.4967 9.91441 16.4958 9.91353 16.495 9.9126C16.463 9.87749 16.4169 9.83109 16.3243 9.73846L14.2615 7.67572C14.1689 7.58308 14.1225 7.53702 14.0874 7.50497C14.0865 7.50414 14.0856 7.50333 14.0847 7.50256C14.0836 7.5025 14.0824 7.50245 14.0811 7.50239ZM14.3386 22C14.8657 22 15.3205 22 15.695 21.9694C16.0904 21.9371 16.4836 21.8658 16.862 21.673C17.4265 21.3854 17.8854 20.9264 18.173 20.362C18.3658 19.9836 18.4371 19.5904 18.4694 19.195C18.5 18.8204 18.5 18.3657 18.5 17.8385V10.1627C18.5 10.1462 18.5 10.1291 18.5001 10.1117C18.5006 9.92177 18.5012 9.68263 18.4447 9.4473C18.3957 9.24323 18.3149 9.04814 18.2053 8.8692C18.0788 8.66284 17.9093 8.4942 17.7746 8.36027C17.7623 8.34797 17.7502 8.33596 17.7385 8.32424L15.6757 6.2615C15.664 6.24979 15.652 6.23772 15.6397 6.22535C15.5058 6.0907 15.3371 5.92115 15.1308 5.7947C14.9518 5.68504 14.7568 5.60423 14.5527 5.55524C14.3173 5.49874 14.0782 5.49938 13.8883 5.49989C13.8709 5.49993 13.8538 5.49998 13.8373 5.49998L6.16146 5.49998C5.63431 5.49996 5.17955 5.49995 4.80497 5.53055C4.40963 5.56285 4.01641 5.63417 3.63803 5.82696C3.07354 6.11458 2.6146 6.57352 2.32698 7.13801C2.13419 7.51639 2.06287 7.90961 2.03057 8.30495C1.99997 8.67952 1.99998 9.13429 2 9.66144V17.8385C1.99998 18.3657 1.99997 18.8204 2.03057 19.195C2.06287 19.5904 2.13419 19.9836 2.32698 20.362C2.6146 20.9264 3.07354 21.3854 3.63803 21.673C4.01641 21.8658 4.40963 21.9371 4.80497 21.9694C5.17954 22 5.6343 22 6.16144 22H14.3386ZM12.5 20V16.6C12.5 16.3035 12.4992 16.1412 12.4897 16.0246C12.4893 16.02 12.4889 16.0156 12.4886 16.0114C12.4844 16.011 12.48 16.0107 12.4754 16.0103C12.3588 16.0008 12.1965 16 11.9 16H8.6C8.30347 16 8.14122 16.0008 8.02464 16.0103C8.01999 16.0107 8.0156 16.011 8.01145 16.0114C8.01107 16.0156 8.01068 16.02 8.0103 16.0246C8.00078 16.1412 8 16.3035 8 16.6V20H12.5Z" fill="#344054"/>
</svg>
