<svg width="24" height="24" viewBox="0 0 24 24" fill="none" xmlns="http://www.w3.org/2000/svg">
<path fill-rule="evenodd" clip-rule="evenodd" d="M11.9999 8C9.7908 8 7.99994 9.79086 7.99994 12C7.99994 14.2091 9.7908 16 11.9999 16C14.2091 16 15.9999 14.2091 15.9999 12C15.9999 9.79086 14.2091 8 11.9999 8ZM9.99994 12C9.99994 10.8954 10.8954 10 11.9999 10C13.1045 10 13.9999 10.8954 13.9999 12C13.9999 13.1046 13.1045 14 11.9999 14C10.8954 14 9.99994 13.1046 9.99994 12Z" fill="#344054"/>
<path fill-rule="evenodd" clip-rule="evenodd" d="M2.03563 10.3781L3.11254 11.4025C3.10079 11.6298 3.10089 11.8285 3.10096 11.9695L3.10096 12.0379C3.10088 12.199 3.10077 12.4078 3.1127 12.6407L2.03563 13.6652C1.36957 14.2988 1.22117 15.3048 1.67593 16.1037L3.27633 18.9152C3.74042 19.7305 4.7088 20.1137 5.60508 19.8366L6.99263 19.4078C7.33594 19.6451 7.70683 19.8597 8.09767 20.0441L8.4316 21.4569C8.64492 22.3594 9.45063 22.9969 10.378 22.9969H13.622C14.5494 22.9969 15.3551 22.3594 15.5684 21.4569L15.9023 20.0441C16.2932 19.8597 16.6641 19.6451 17.0074 19.4078L18.3949 19.8366C19.2912 20.1137 20.2596 19.7305 20.7237 18.9152L22.3241 16.1037C22.7788 15.3048 22.6304 14.2988 21.9644 13.6652L20.9049 12.6574C20.9261 12.4555 20.9423 12.2308 20.9423 12C20.9423 11.7927 20.9263 11.5798 20.9055 11.3854L21.9644 10.3781C22.6304 9.74452 22.7788 8.7385 22.3241 7.93959L20.7237 5.12807C20.2596 4.31279 19.2912 3.92963 18.3949 4.20666L17.0074 4.63554C16.6654 4.39911 16.2961 4.18525 15.9069 4.00135L15.5702 2.55091C15.3598 1.64468 14.5524 1.00317 13.622 1.00317H10.378C9.44763 1.00317 8.64015 1.64468 8.42978 2.55091L8.09307 4.00135C7.70392 4.18525 7.33459 4.39911 6.99263 4.63554L5.60508 4.20666C4.7088 3.92963 3.74042 4.31279 3.27633 5.12807L1.67593 7.93959C1.22117 8.7385 1.36957 9.74452 2.03563 10.3781ZM9.33987 5.64167C8.77757 5.85794 8.25852 6.16072 7.82598 6.50675L7.39344 6.85279L5.01446 6.11747L3.41406 8.92898L5.18748 10.6159L5.14423 11.1349C5.10097 11.4377 5.10097 11.7405 5.10097 12C5.10097 12.3028 5.10097 12.6056 5.14423 12.9084L5.18748 13.4274L3.41406 15.1143L5.01446 17.9258L7.39344 17.1905L7.82598 17.5365C8.25852 17.8826 8.77757 18.1854 9.33987 18.4016L9.81567 18.6179L10.378 20.9969H13.622L14.1843 18.6179L14.6601 18.4016C15.2224 18.1854 15.7415 17.8826 16.174 17.5365L16.6066 17.1905L18.9855 17.9258L20.5859 15.1143L18.8125 13.4274L18.8558 12.9084C18.899 12.6056 18.9423 12.3028 18.9423 12C18.9423 11.7405 18.899 11.4378 18.8558 11.135L18.8125 10.6159L20.5859 8.92898L18.9855 6.11747L16.6066 6.85279L16.174 6.50675C15.7415 6.16072 15.2224 5.85794 14.6601 5.64167L14.1843 5.4254L13.622 3.00317H10.378L9.81567 5.4254L9.33987 5.64167Z" fill="#344054"/>
</svg>
