<svg width="24" height="24" viewBox="0 0 24 24" fill="none" xmlns="http://www.w3.org/2000/svg">
<path fill-rule="evenodd" clip-rule="evenodd" d="M16 3C13.2386 3 11 5.23858 11 8C11 8.41068 11.0493 8.8085 11.1419 9.1884L11.1465 9.20756C11.2021 9.43569 11.2509 9.63585 11.2834 9.7976C11.3143 9.9511 11.3511 10.1623 11.3361 10.3816C11.3157 10.6801 11.2542 10.8995 11.1165 11.1652C10.9702 11.4475 10.7213 11.6947 10.5156 11.8989C10.4949 11.9195 10.4746 11.9396 10.4549 11.9593L4.20712 18.2071C3.76922 18.645 3.76922 19.355 4.20712 19.7929C4.64502 20.2308 5.355 20.2308 5.79291 19.7929L12.0407 13.5451C12.0604 13.5254 12.0805 13.5051 12.1011 13.4844C12.3053 13.2787 12.5525 13.0298 12.8348 12.8835C13.1005 12.7458 13.3199 12.6843 13.6184 12.6639C13.8377 12.6489 14.0489 12.6858 14.2024 12.7166C14.3641 12.7491 14.5642 12.7979 14.7923 12.8534L14.8116 12.8582C15.1915 12.9507 15.5893 13 16 13C18.7614 13 21 10.7614 21 8C21 7.81212 20.9897 7.62683 20.9696 7.44462L19.3159 9.09832C19.1375 9.2768 18.9637 9.45061 18.8045 9.58576C18.6297 9.7342 18.4078 9.89377 18.118 9.9879C17.7164 10.1184 17.2837 10.1184 16.882 9.9879C16.5923 9.89377 16.3704 9.73419 16.1955 9.58576C16.0363 9.4506 15.8625 9.27678 15.6841 9.0983L14.9017 8.31593C14.7232 8.13749 14.5494 7.96371 14.4143 7.80449C14.2658 7.62964 14.1062 7.40775 14.0121 7.11803C13.8816 6.71635 13.8816 6.28365 14.0121 5.88197C14.1062 5.59225 14.2658 5.37036 14.4143 5.19551C14.5494 5.03629 14.7233 4.8625 14.9017 4.68406L16.5554 3.03041C16.3732 3.01032 16.1879 3 16 3ZM9.00001 8C9.00001 4.13401 12.134 1 16 1C17.0253 1 18.0017 1.22107 18.8818 1.6191C19.181 1.75439 19.3946 2.0279 19.4535 2.35089C19.5124 2.67388 19.409 3.00521 19.1769 3.23736L16.3385 6.07574C16.1288 6.28541 16.0146 6.40069 15.9389 6.48987C15.9359 6.49342 15.9331 6.49679 15.9304 6.5C15.9331 6.50321 15.9359 6.50658 15.9389 6.51013C16.0146 6.59931 16.1288 6.71459 16.3385 6.92426L17.0757 7.66152C17.2854 7.8712 17.4007 7.98538 17.4899 8.06108C17.4934 8.0641 17.4968 8.06693 17.5 8.0696C17.5032 8.06693 17.5066 8.0641 17.5101 8.06108C17.5993 7.98538 17.7146 7.8712 17.9243 7.66152L20.7626 4.82315C20.9948 4.59099 21.3261 4.48759 21.6491 4.54647C21.9721 4.60536 22.2456 4.81905 22.3809 5.1182C22.7789 5.99833 23 6.9747 23 8C23 11.866 19.866 15 16 15C15.4286 15 14.8719 14.9313 14.3382 14.8013C14.0852 14.7397 13.9252 14.7009 13.8082 14.6774C13.7866 14.673 13.7689 14.6698 13.7547 14.6673C13.751 14.6706 13.7469 14.6742 13.7424 14.6783C13.6803 14.7344 13.5988 14.8155 13.4549 14.9593L7.20712 21.2071C5.98817 22.4261 4.01186 22.4261 2.79291 21.2071C1.57396 19.9882 1.57395 18.0118 2.79291 16.7929L9.04072 10.5451C9.18454 10.4013 9.26564 10.3197 9.32175 10.2576C9.32577 10.2531 9.32942 10.2491 9.33272 10.2453C9.33025 10.2311 9.32697 10.2134 9.32262 10.1918C9.29911 10.0749 9.26034 9.91484 9.19869 9.66177C9.06868 9.1281 9.00001 8.57139 9.00001 8ZM9.34998 10.2285C9.34994 10.2286 9.35002 10.2284 9.34998 10.2285C9.34828 10.2333 9.34645 10.239 9.34467 10.2453C9.3446 10.2455 9.34474 10.245 9.34467 10.2453C9.3446 10.2456 9.34431 10.2466 9.34424 10.2468C9.3425 10.2531 9.34111 10.2589 9.34005 10.2639C9.33997 10.2643 9.3399 10.2647 9.33983 10.2651" fill="#344054"/>
</svg>
