<svg width="24" height="24" viewBox="0 0 24 24" fill="none" xmlns="http://www.w3.org/2000/svg">
<path fill-rule="evenodd" clip-rule="evenodd" d="M13.3982 1.08269C13.8054 1.25946 14.0474 1.68353 13.9923 2.12403L13.1328 9L19.3278 8.99999C19.5688 8.99995 19.8129 8.9999 20.0123 9.01796C20.2009 9.03503 20.5621 9.08021 20.8753 9.33332C21.2339 9.62308 21.4393 10.0616 21.4323 10.5226C21.4263 10.9253 21.2297 11.2316 21.1221 11.3875C21.0083 11.5522 20.852 11.7397 20.6977 11.9248L11.7682 22.6402C11.484 22.9812 11.009 23.0941 10.6018 22.9173C10.1946 22.7405 9.95267 22.3165 10.0077 21.876L10.8672 15L4.67224 15C4.43125 15 4.18716 15.0001 3.98773 14.982C3.79912 14.965 3.43796 14.9198 3.12474 14.6667C2.76617 14.3769 2.56076 13.9383 2.56771 13.4774C2.57378 13.0747 2.77029 12.7684 2.87791 12.6125C2.99172 12.4478 3.14802 12.2603 3.30234 12.0751C3.30999 12.066 3.31762 12.0568 3.32525 12.0477L12.2318 1.35981C12.516 1.01878 12.991 0.905925 13.3982 1.08269ZM5.13506 13H12C12.2868 13 12.5599 13.1232 12.7497 13.3382C12.9395 13.5532 13.0279 13.8394 12.9923 14.124L12.4154 18.7395L18.865 11H12C11.7132 11 11.4402 10.8768 11.2503 10.6618C11.0605 10.4468 10.9722 10.1606 11.0077 9.87596L11.5847 5.26045L5.13506 13Z" fill="#344054"/>
</svg>
