<svg width="24" height="24" viewBox="0 0 24 24" fill="none" xmlns="http://www.w3.org/2000/svg">
<path fill-rule="evenodd" clip-rule="evenodd" d="M11.5971 1.18498C11.8629 1.13031 12.1371 1.13031 12.4029 1.18498C12.7102 1.24818 12.9848 1.40201 13.2032 1.5243C13.2235 1.53569 13.2433 1.54681 13.2627 1.55755L20.6627 5.66866C20.6831 5.68003 20.7042 5.69164 20.7258 5.70353C20.9569 5.83084 21.2476 5.99091 21.4707 6.23309C21.6637 6.44247 21.8097 6.69064 21.899 6.96098C22.0023 7.27369 22.0011 7.60547 22.0002 7.86934C22.0001 7.894 22 7.91807 22 7.94147V16.0586C22 16.082 22.0001 16.106 22.0002 16.1307C22.0011 16.3946 22.0023 16.7264 21.899 17.0391C21.8097 17.3094 21.6637 17.5576 21.4707 17.767C21.2476 18.0091 20.9569 18.1692 20.7258 18.2965C20.7042 18.3084 20.6831 18.32 20.6627 18.3314L13.2627 22.4425C13.2433 22.4532 13.2235 22.4644 13.2032 22.4757C12.9848 22.598 12.7102 22.7519 12.4029 22.8151C12.1371 22.8697 11.8629 22.8697 11.5971 22.8151C11.2898 22.7519 11.0152 22.598 10.7968 22.4757C10.7765 22.4644 10.7567 22.4532 10.7373 22.4425L3.33733 18.3314C3.31687 18.32 3.2958 18.3084 3.2742 18.2965C3.04306 18.1692 2.75244 18.0091 2.52927 17.767C2.33632 17.5576 2.19029 17.3094 2.10097 17.0391C1.99765 16.7264 1.99886 16.3946 1.99982 16.1307C1.99991 16.106 2 16.082 2 16.0586V7.94147C2 7.91807 1.99991 7.894 1.99982 7.86934C1.99886 7.60547 1.99765 7.27369 2.10097 6.96099C2.19029 6.69063 2.33631 6.44247 2.52927 6.23309C2.75244 5.99091 3.04306 5.83084 3.27419 5.70354C3.29579 5.69164 3.31687 5.68003 3.33733 5.66866L10.7373 1.55755C10.7567 1.54681 10.7765 1.53569 10.7968 1.5243C11.0152 1.40201 11.2898 1.24818 11.5971 1.18498ZM11 3.69954V10.3005L5.05918 6.99999L11 3.69954ZM4 8.69948V15.3005L9.94089 12L4 8.69948ZM11 13.6995L5.05913 17L11 20.3005V13.6995ZM13 20.3005L18.9409 17L13 13.6995V20.3005ZM14.0591 12L20 15.3005V8.69948L14.0591 12ZM18.9408 6.99999L13 3.69954V10.3005L18.9408 6.99999Z" fill="#344054"/>
</svg>
