<svg width="24" height="24" viewBox="0 0 24 24" fill="none" xmlns="http://www.w3.org/2000/svg">
<path fill-rule="evenodd" clip-rule="evenodd" d="M8.47171 0.999916C8.48915 0.999963 8.50618 1.00001 8.52275 1.00001H15.4773C15.4938 1.00001 15.5109 0.999963 15.5283 0.999916C15.7182 0.999409 15.9574 0.99877 16.1927 1.05527C16.3968 1.10426 16.5918 1.18507 16.7708 1.29473C16.9771 1.42118 17.1458 1.59073 17.2797 1.72538C17.292 1.73774 17.304 1.74981 17.3157 1.76153L22.2385 6.68427C22.2502 6.69599 22.2623 6.708 22.2747 6.72031C22.4093 6.85424 22.5788 7.02288 22.7053 7.22922C22.8149 7.40817 22.8958 7.60326 22.9447 7.80733C23.0012 8.04266 23.0006 8.2818 23.0001 8.47171C23.0001 8.48915 23 8.50618 23 8.52275V15.4773C23 15.4938 23.0001 15.5109 23.0001 15.5283C23.0006 15.7182 23.0012 15.9574 22.9447 16.1927C22.8958 16.3968 22.8149 16.5918 22.7053 16.7708C22.5788 16.9771 22.4093 17.1458 22.2746 17.2797C22.2623 17.292 22.2502 17.304 22.2385 17.3157L17.3157 22.2385C17.304 22.2502 17.292 22.2623 17.2797 22.2746C17.1458 22.4093 16.9771 22.5788 16.7708 22.7053C16.5918 22.8149 16.3968 22.8958 16.1927 22.9447C15.9574 23.0012 15.7182 23.0006 15.5283 23.0001C15.5109 23.0001 15.4938 23 15.4773 23H8.52275C8.50618 23 8.48915 23.0001 8.47171 23.0001C8.2818 23.0006 8.04266 23.0012 7.80733 22.9447C7.60326 22.8958 7.40817 22.8149 7.22922 22.7053C7.02288 22.5788 6.85424 22.4093 6.72031 22.2747C6.708 22.2623 6.69599 22.2502 6.68427 22.2385L1.76153 17.3157C1.74982 17.304 1.73775 17.292 1.72538 17.2797C1.59073 17.1458 1.42118 16.9771 1.29473 16.7708C1.18507 16.5918 1.10426 16.3968 1.05527 16.1927C0.99877 15.9574 0.999409 15.7182 0.999916 15.5283C0.999963 15.5109 1.00001 15.4938 1.00001 15.4773V8.52275C1.00001 8.50618 0.999963 8.48915 0.999916 8.47171C0.999409 8.2818 0.99877 8.04266 1.05527 7.80733C1.10426 7.60326 1.18507 7.40817 1.29473 7.22922C1.42118 7.02287 1.59073 6.85423 1.72538 6.7203C1.73774 6.708 1.74981 6.69599 1.76153 6.68427L6.68427 1.76153C6.69599 1.74981 6.708 1.73774 6.7203 1.72538C6.85423 1.59073 7.02287 1.42118 7.22922 1.29473C7.40817 1.18507 7.60326 1.10426 7.80733 1.05527C8.04266 0.99877 8.2818 0.999409 8.47171 0.999916ZM8.27529 3.00259C8.27444 3.00336 8.27355 3.00416 8.27263 3.005C8.23752 3.03705 8.19112 3.08311 8.09849 3.17574L3.17574 8.09849C3.08311 8.19112 3.03705 8.23752 3.005 8.27263C3.00416 8.27355 3.00336 8.27444 3.00259 8.27529C3.00253 8.27644 3.00247 8.27763 3.00242 8.27888C3.00025 8.32637 3.00001 8.39175 3.00001 8.52275V15.4773C3.00001 15.6083 3.00025 15.6736 3.00242 15.7211C3.00247 15.7224 3.00253 15.7236 3.00259 15.7247C3.00336 15.7256 3.00416 15.7265 3.005 15.7274C3.03705 15.7625 3.08311 15.8089 3.17574 15.9015L8.09849 20.8243C8.19112 20.9169 8.23752 20.963 8.27263 20.995C8.27355 20.9959 8.27444 20.9967 8.27529 20.9974C8.27644 20.9975 8.27763 20.9975 8.27888 20.9976C8.32637 20.9998 8.39175 21 8.52275 21H15.4773C15.6083 21 15.6736 20.9998 15.7211 20.9976C15.7224 20.9975 15.7236 20.9975 15.7247 20.9974C15.7256 20.9967 15.7265 20.9959 15.7274 20.995C15.7625 20.963 15.8089 20.9169 15.9015 20.8243L20.8243 15.9015C20.9169 15.8089 20.963 15.7625 20.995 15.7274C20.9959 15.7265 20.9967 15.7256 20.9974 15.7247C20.9975 15.7236 20.9975 15.7224 20.9976 15.7211C20.9998 15.6736 21 15.6083 21 15.4773V8.52275C21 8.39175 20.9998 8.32637 20.9976 8.27888C20.9975 8.27763 20.9975 8.27644 20.9974 8.27529C20.9967 8.27444 20.9959 8.27356 20.995 8.27264C20.963 8.23752 20.9169 8.19112 20.8243 8.09849L15.9015 3.17574C15.8089 3.08311 15.7625 3.03705 15.7274 3.005C15.7265 3.00416 15.7256 3.00336 15.7247 3.00259C15.7236 3.00253 15.7224 3.00247 15.7211 3.00242C15.6736 3.00025 15.6083 3.00001 15.4773 3.00001H8.52275C8.39175 3.00001 8.32637 3.00025 8.27888 3.00242C8.27763 3.00247 8.27644 3.00253 8.27529 3.00259Z" fill="#344054"/>
</svg>
