<svg width="24" height="24" viewBox="0 0 24 24" fill="none" xmlns="http://www.w3.org/2000/svg">
<path fill-rule="evenodd" clip-rule="evenodd" d="M11.3888 1.63372C11.7778 1.46015 12.2222 1.46015 12.6112 1.63372C12.9379 1.77948 13.132 2.02885 13.237 2.17804C13.3395 2.32372 13.4451 2.50762 13.5443 2.68039C13.5498 2.6899 13.5552 2.69937 13.5607 2.70881L15.458 6.01054L19.2661 6.00284C19.277 6.00282 19.2879 6.00279 19.2989 6.00277C19.4981 6.00232 19.7102 6.00183 19.8876 6.01775C20.0693 6.03405 20.3823 6.07751 20.6719 6.28754C21.0167 6.53764 21.2389 6.92254 21.2831 7.3462C21.3202 7.702 21.2013 7.99482 21.1246 8.16032C21.0497 8.3219 20.9432 8.50531 20.8432 8.67762C20.8377 8.68711 20.8322 8.69657 20.8267 8.70599L18.916 12L20.8267 15.2941C20.8322 15.3035 20.8377 15.3129 20.8432 15.3224C20.9432 15.4947 21.0497 15.6781 21.1246 15.8397C21.2013 16.0052 21.3202 16.298 21.2831 16.6538C21.2389 17.0775 21.0167 17.4624 20.6719 17.7125C20.3823 17.9225 20.0693 17.966 19.8876 17.9823C19.7102 17.9982 19.4981 17.9977 19.2989 17.9973L15.458 17.9895L13.5443 21.3197C13.4451 21.4925 13.3395 21.6763 13.237 21.822C13.132 21.9712 12.9379 22.2206 12.6112 22.3663C12.2222 22.5399 11.7778 22.5399 11.3888 22.3663C11.0621 22.2206 10.8679 21.9712 10.763 21.822C10.6605 21.6763 10.5549 21.4924 10.4557 21.3197L8.54196 17.9895L4.70107 17.9973C4.50185 17.9977 4.2898 17.9982 4.11241 17.9823C3.93073 17.966 3.61769 17.9225 3.32811 17.7125C2.9833 17.4624 2.76108 17.0775 2.7169 16.6538C2.67979 16.298 2.79867 16.0052 2.8754 15.8397C2.95032 15.6781 3.05677 15.4947 3.15678 15.3224C3.16228 15.3129 3.16777 15.3035 3.17323 15.2941L5.08394 12L3.17323 8.70599C3.16776 8.69657 3.16227 8.68711 3.15676 8.67761C3.05676 8.50531 2.95031 8.3219 2.8754 8.16032C2.79867 7.99482 2.67979 7.702 2.7169 7.3462C2.76108 6.92253 2.9833 6.53764 3.32811 6.28754C3.61769 6.07751 3.93073 6.03405 4.11241 6.01775C4.28981 6.00183 4.50187 6.00232 4.70109 6.00277C4.71207 6.00279 4.723 6.00282 4.73389 6.00284L8.54196 6.01054L10.4393 2.7088C10.4448 2.69936 10.4502 2.68988 10.4557 2.68036C10.5549 2.5076 10.6605 2.32371 10.763 2.17804C10.8679 2.02885 11.0621 1.77948 11.3888 1.63372ZM12 4.00706L10.2182 7.10762C10.2135 7.11587 10.2081 7.12549 10.202 7.13632C10.1432 7.24081 10.0215 7.45738 9.83557 7.62503C9.67886 7.76637 9.4941 7.87304 9.29335 7.93809C9.05521 8.01525 8.80676 8.01242 8.6869 8.01106C8.67448 8.01092 8.66343 8.01079 8.65393 8.01078L5.07788 8.00354L6.87217 11.0969C6.87694 11.1051 6.88257 11.1146 6.8889 11.1253C6.95002 11.2284 7.07669 11.4422 7.12893 11.687C7.17297 11.8933 7.17297 12.1067 7.12893 12.3131C7.07669 12.5579 6.95002 12.7716 6.8889 12.8748C6.88257 12.8854 6.87694 12.8949 6.87217 12.9032L5.07788 15.9965L8.65393 15.9893C8.66343 15.9892 8.67447 15.9891 8.68689 15.989C8.80676 15.9876 9.05521 15.9848 9.29335 16.062C9.4941 16.127 9.67887 16.2337 9.83557 16.375C10.0215 16.5427 10.1432 16.7592 10.202 16.8637C10.2081 16.8746 10.2135 16.8842 10.2182 16.8924L12 19.993L13.7817 16.8924C13.7865 16.8842 13.7919 16.8746 13.798 16.8637C13.8567 16.7592 13.9785 16.5427 14.1644 16.375C14.3211 16.2337 14.5059 16.127 14.7066 16.062C14.9448 15.9848 15.1932 15.9876 15.3131 15.989C15.3255 15.9891 15.3365 15.9892 15.3461 15.9893L18.9221 15.9965L17.1278 12.9032C17.123 12.8949 17.1174 12.8854 17.1111 12.8748C17.05 12.7716 16.9233 12.5579 16.871 12.3131C16.827 12.1067 16.827 11.8933 16.871 11.687C16.9233 11.4422 17.05 11.2284 17.1111 11.1253C17.1174 11.1146 17.123 11.1051 17.1278 11.0969L18.9221 8.00354L15.3461 8.01078C15.3365 8.01079 15.3255 8.01092 15.3131 8.01106C15.1932 8.01242 14.9448 8.01525 14.7066 7.93809C14.5059 7.87304 14.3211 7.76637 14.1644 7.62503C13.9785 7.45738 13.8567 7.24081 13.798 7.13632C13.7919 7.12549 13.7865 7.11587 13.7817 7.10762L12 4.00706Z" fill="#344054"/>
</svg>
