<svg width="24" height="24" viewBox="0 0 24 24" fill="none" xmlns="http://www.w3.org/2000/svg">
<path fill-rule="evenodd" clip-rule="evenodd" d="M11.9987 9.10938C9.1791 9.10938 6.89246 11.3962 6.89246 14.2187C6.89246 16.6117 7.64261 18.8257 8.91892 20.6472C9.23585 21.0995 9.12611 21.723 8.67382 22.04C8.22152 22.3569 7.59794 22.2472 7.28101 21.7949C5.77756 19.6493 4.89246 17.037 4.89246 14.2187C4.89246 10.2925 8.07366 7.10938 11.9987 7.10938C15.9238 7.10938 19.105 10.2925 19.105 14.2187C19.105 14.771 18.6573 15.2187 18.105 15.2187C17.5527 15.2187 17.105 14.771 17.105 14.2187C17.105 11.3962 14.8184 9.10938 11.9987 9.10938Z" fill="#344054"/>
<path fill-rule="evenodd" clip-rule="evenodd" d="M11.9989 9.10938C9.17922 9.10938 6.89258 11.3962 6.89258 14.2187C6.89258 16.6117 7.64273 18.8257 8.91904 20.6472C9.23597 21.0995 9.12624 21.723 8.67394 22.04C8.22164 22.3569 7.59806 22.2472 7.28113 21.7949C5.77769 19.6493 4.89258 17.037 4.89258 14.2187C4.89258 10.2925 8.07378 7.10938 11.9989 7.10938C15.9239 7.10938 19.1051 10.2925 19.1051 14.2187C19.1051 14.771 18.6574 15.2187 18.1051 15.2187C17.5528 15.2187 17.1051 14.771 17.1051 14.2187C17.1051 11.3962 14.8185 9.10938 11.9989 9.10938Z" fill="#344054"/>
<path fill-rule="evenodd" clip-rule="evenodd" d="M12.0009 13.2186C12.5531 13.2186 13.0009 13.6663 13.0009 14.2186C13.0009 17.0412 15.2875 19.328 18.1071 19.328C18.1528 19.328 18.1847 19.3258 18.2395 19.322C18.2742 19.3197 18.3181 19.3167 18.3805 19.3132C18.932 19.2826 19.4038 19.7048 19.4345 20.2562C19.4651 20.8076 19.0429 21.2795 18.4915 21.3101C18.4792 21.3108 18.4618 21.312 18.4405 21.3134C18.3597 21.3188 18.2238 21.328 18.1071 21.328C14.1821 21.328 11.0009 18.1449 11.0009 14.2186C11.0009 13.6663 11.4486 13.2186 12.0009 13.2186Z" fill="#344054"/>
<path fill-rule="evenodd" clip-rule="evenodd" d="M12.001 13.2188C12.5533 13.2188 13.001 13.6665 13.001 14.2188C13.001 17.0413 15.2876 19.3281 18.1073 19.3281C18.1529 19.3281 18.1848 19.3259 18.2396 19.3222C18.2743 19.3198 18.3182 19.3168 18.3807 19.3133C18.9321 19.2827 19.404 19.7049 19.4346 20.2563C19.4652 20.8078 19.043 21.2796 18.4916 21.3102C18.4793 21.3109 18.4619 21.3121 18.4406 21.3135C18.3598 21.319 18.224 21.3281 18.1073 21.3281C14.1822 21.3281 11.001 18.145 11.001 14.2188C11.001 13.6665 11.4487 13.2188 12.001 13.2188Z" fill="#344054"/>
<path fill-rule="evenodd" clip-rule="evenodd" d="M1.8418 14.2187C1.8418 8.60518 6.39055 4.05469 12.0017 4.05469C17.6129 4.05469 22.1616 8.60518 22.1616 14.2187C22.1616 16.4579 20.3467 18.2733 18.108 18.2733C15.8693 18.2733 14.0543 16.4579 14.0543 14.2187C14.0543 13.0836 13.1344 12.164 12.0007 12.164C10.867 12.164 9.94705 13.0836 9.94705 14.2187C9.94705 17.1428 11.4845 19.7083 13.7986 21.1514C14.2672 21.4437 14.4102 22.0605 14.1179 22.5291C13.8257 22.9977 13.2089 23.1407 12.7402 22.8485C9.86549 21.0557 7.94705 17.8621 7.94705 14.2187C7.94705 11.9794 9.76203 10.164 12.0007 10.164C14.2394 10.164 16.0543 11.9794 16.0543 14.2187C16.0543 15.3538 16.9743 16.2733 18.108 16.2733C19.2417 16.2733 20.1616 15.3538 20.1616 14.2187C20.1616 9.70903 16.5076 6.05469 12.0017 6.05469C7.49584 6.05469 3.8418 9.70903 3.8418 14.2187C3.8418 15.272 3.95964 16.2988 4.17701 17.2903C4.29528 17.8298 3.95383 18.363 3.41436 18.4813C2.87488 18.5996 2.34168 18.2581 2.22341 17.7186C1.97647 16.5922 1.8418 15.4218 1.8418 14.2187Z" fill="#344054"/>
<path fill-rule="evenodd" clip-rule="evenodd" d="M1.8418 14.2187C1.8418 8.60518 6.39055 4.05469 12.0017 4.05469C17.6129 4.05469 22.1616 8.60518 22.1616 14.2187C22.1616 16.4579 20.3467 18.2733 18.108 18.2733C15.8693 18.2733 14.0543 16.4579 14.0543 14.2187C14.0543 13.0836 13.1344 12.164 12.0007 12.164C10.867 12.164 9.94705 13.0836 9.94705 14.2187C9.94705 17.1428 11.4845 19.7083 13.7986 21.1514C14.2672 21.4437 14.4102 22.0605 14.1179 22.5291C13.8257 22.9977 13.2089 23.1407 12.7402 22.8485C9.86549 21.0557 7.94705 17.8621 7.94705 14.2187C7.94705 11.9794 9.76203 10.164 12.0007 10.164C14.2394 10.164 16.0543 11.9794 16.0543 14.2187C16.0543 15.3538 16.9743 16.2733 18.108 16.2733C19.2417 16.2733 20.1616 15.3538 20.1616 14.2187C20.1616 9.70903 16.5076 6.05469 12.0017 6.05469C7.49584 6.05469 3.8418 9.70903 3.8418 14.2187C3.8418 15.272 3.95964 16.2988 4.17701 17.2903C4.29528 17.8298 3.95383 18.363 3.41436 18.4813C2.87488 18.5996 2.34168 18.2581 2.22341 17.7186C1.97647 16.5922 1.8418 15.4218 1.8418 14.2187Z" fill="#344054"/>
<path fill-rule="evenodd" clip-rule="evenodd" d="M2.72403 5.20237C4.98694 2.63183 8.30042 1 12.0002 1C15.7 1 19.0134 2.63183 21.2764 5.20237C21.6413 5.61691 21.6011 6.24879 21.1865 6.61373C20.772 6.97866 20.1401 6.93844 19.7752 6.5239C17.8736 4.36377 15.0981 3 12.0002 3C8.90232 3 6.12683 4.36377 4.22521 6.5239C3.86028 6.93844 3.2284 6.97866 2.81386 6.61373C2.39932 6.24879 2.3591 5.61691 2.72403 5.20237Z" fill="#344054"/>
<path fill-rule="evenodd" clip-rule="evenodd" d="M2.72403 5.20237C4.98694 2.63183 8.30042 1 12.0002 1C15.7 1 19.0134 2.63183 21.2764 5.20237C21.6413 5.61691 21.6011 6.24879 21.1865 6.61373C20.772 6.97866 20.1401 6.93844 19.7752 6.5239C17.8736 4.36377 15.0981 3 12.0002 3C8.90232 3 6.12683 4.36377 4.22521 6.5239C3.86028 6.93844 3.2284 6.97866 2.81386 6.61373C2.39932 6.24879 2.3591 5.61691 2.72403 5.20237Z" fill="#344054"/>
</svg>
