<svg width="24" height="24" viewBox="0 0 24 24" fill="none" xmlns="http://www.w3.org/2000/svg">
<path d="M11.3188 1.18386C11.7717 1.01593 12.27 1.01755 12.7218 1.18842L19.0646 3.58747C20.2313 4.02877 21.0033 5.14604 21.0033 6.39347V12.1623C21.0033 12.2061 21.0019 12.2531 20.9981 12.3031C20.9854 12.4724 20.8941 13.6671 20.6244 14.4239C20.4391 14.9442 19.867 15.2156 19.3468 15.0302C18.8266 14.8449 18.5551 14.2728 18.7405 13.7526C18.8125 13.5506 18.8776 13.2202 18.9268 12.8674C18.9725 12.539 18.9961 12.2538 19.0033 12.1594V6.39347C19.0033 5.97766 18.746 5.60524 18.357 5.45813L12.0142 3.05908L9.15484 4.1194C8.63702 4.31143 8.06157 4.04731 7.86955 3.52948C7.67752 3.01165 7.94164 2.43621 8.45947 2.24418L11.3188 1.18386Z" fill="#344054"/>
<path fill-rule="evenodd" clip-rule="evenodd" d="M17.6582 19.074C16.1093 20.6079 13.9561 22.0006 13.0274 22.575C12.3968 22.965 11.6061 22.9648 10.9759 22.5769C9.84747 21.8823 7.89644 20.5937 6.21751 18.8918C4.56151 17.2132 3.01567 14.9763 3.01567 12.3878C3.01567 9.86325 3.0105 6.55885 3.00973 6.0771C3.00973 6.0771 3.00976 6.07589 3.00936 6.06825L3.00836 6.05209L3.00661 6.0275C2.99746 5.90227 2.98193 5.59058 3.05518 5.26757C3.08294 5.14513 3.14849 4.92414 3.29116 4.70822L2.29561 3.71275C1.90507 3.32224 1.90504 2.68908 2.29555 2.29854C2.68606 1.908 3.31922 1.90797 3.70976 2.29848L21.7042 20.2914C22.0947 20.6819 22.0948 21.3151 21.7043 21.7056C21.3137 22.0961 20.6806 22.0962 20.29 21.7057L17.6582 19.074ZM16.2444 17.6604C14.9112 18.9806 12.9612 20.2631 12.0001 20.8588C10.9168 20.1907 9.14101 19.0075 7.64128 17.4873C6.10739 15.9324 5.01567 14.1806 5.01567 12.3878C5.01567 10.2115 5.01184 7.45673 5.01028 6.42719L16.2444 17.6604Z" fill="#344054"/>
</svg>
