<svg width="24" height="24" viewBox="0 0 24 24" fill="none" xmlns="http://www.w3.org/2000/svg">
<path fill-rule="evenodd" clip-rule="evenodd" d="M12.0547 5.16796C12.5142 5.47432 12.6384 6.09519 12.332 6.55471L9.36849 11H13.5C13.8688 11 14.2076 11.203 14.3816 11.5282C14.5557 11.8533 14.5366 12.2479 14.332 12.5547L10.332 18.5547C10.0257 19.0142 9.4048 19.1384 8.94527 18.8321C8.48575 18.5257 8.36157 17.9048 8.66792 17.4453L11.6315 13H7.49997C7.13118 13 6.79232 12.797 6.6183 12.4719C6.44428 12.1467 6.46335 11.7522 6.66792 11.4453L10.6679 5.44531C10.9743 4.98579 11.5951 4.86161 12.0547 5.16796ZM16.5176 7.06816C16.2953 7.0086 15.9943 7.00001 15 7.00001C14.4477 7.00001 14 6.5523 14 6.00001C14 5.44773 14.4477 5.00001 15 5.00001C15.0465 5.00001 15.0924 4.99999 15.1376 4.99997C15.9329 4.99953 16.5236 4.99921 17.0353 5.13631C18.4156 5.50618 19.4938 6.58437 19.8637 7.96474C20.0008 8.47639 20.0005 9.06705 20 9.86244C20 9.90763 20 9.95348 20 10V13.2413C20 14.0463 20 14.7107 19.9558 15.2518C19.9099 15.8139 19.8113 16.3306 19.564 16.816C19.1805 17.5686 18.5686 18.1805 17.8159 18.564C17.3306 18.8113 16.8139 18.9099 16.2518 18.9558C15.7106 19 15.0462 19 14.2413 19H14C13.4477 19 13 18.5523 13 18C13 17.4477 13.4477 17 14 17H14.2C15.0566 17 15.6388 16.9992 16.0889 16.9625C16.5274 16.9266 16.7516 16.8617 16.908 16.782C17.2843 16.5903 17.5902 16.2843 17.782 15.908C17.8617 15.7516 17.9266 15.5274 17.9624 15.089C17.9992 14.6389 18 14.0566 18 13.2V10C18 9.00566 17.9914 8.70465 17.9318 8.48238C17.7469 7.79219 17.2078 7.2531 16.5176 7.06816ZM6.75868 5.00001L6.99997 5.00001C7.55226 5.00001 7.99997 5.44773 7.99997 6.00001C7.99997 6.5523 7.55226 7.00001 6.99997 7.00001H6.79997C5.94339 7.00001 5.3611 7.00079 4.91101 7.03757C4.4726 7.07339 4.24839 7.13831 4.09199 7.218C3.71567 7.40975 3.40971 7.71571 3.21796 8.09203C3.13827 8.24843 3.07335 8.47264 3.03753 8.91105C3.00075 9.36114 2.99997 9.94344 2.99997 10.8V14C2.99997 14.9944 3.00856 15.2954 3.06812 15.5177C3.25306 16.2078 3.79215 16.7469 4.48234 16.9319C4.70461 16.9914 5.00562 17 5.99997 17C6.55226 17 6.99997 17.4477 6.99997 18C6.99997 18.5523 6.55226 19 5.99997 19C5.95344 19 5.90759 19 5.8624 19.0001C5.06701 19.0005 4.47635 19.0008 3.9647 18.8637C2.58433 18.4938 1.50614 17.4157 1.13627 16.0353C0.999175 15.5236 0.999494 14.933 0.999925 14.1376C0.99995 14.0924 0.999974 14.0466 0.999974 14L0.999974 10.7587C0.999961 9.95374 0.999951 9.28938 1.04417 8.74819C1.09009 8.18609 1.18866 7.66939 1.43595 7.18405C1.81944 6.4314 2.43136 5.81948 3.18401 5.43599C3.66935 5.1887 4.18605 5.09013 4.74815 5.04421C5.28934 4.99999 5.9537 5 6.75868 5.00001ZM22 10C22.5523 10 23 10.4477 23 11V13C23 13.5523 22.5523 14 22 14C21.4477 14 21 13.5523 21 13V11C21 10.4477 21.4477 10 22 10Z" fill="#344054"/>
</svg>
