<svg width="24" height="24" viewBox="0 0 24 24" fill="none" xmlns="http://www.w3.org/2000/svg">
<path fill-rule="evenodd" clip-rule="evenodd" d="M11.5759 1.09441C11.9273 0.929832 12.3421 0.983377 12.6402 1.23178L18.6402 6.23178C18.8682 6.42177 19 6.70322 19 7C19 7.29678 18.8682 7.57823 18.6402 7.76822L13.5621 12L18.6402 16.2318C18.8682 16.4218 19 16.7032 19 17C19 17.2968 18.8682 17.5782 18.6402 17.7682L12.6402 22.7682C12.3421 23.0166 11.9273 23.0702 11.5759 22.9056C11.2245 22.741 11 22.388 11 22V14.135L6.64021 17.7682C6.21593 18.1218 5.58537 18.0645 5.2318 17.6402C4.87824 17.2159 4.93556 16.5853 5.35984 16.2318L10.438 12L5.35984 7.76822C4.93556 7.41466 4.87824 6.78409 5.2318 6.35982C5.58537 5.93554 6.21593 5.87822 6.64021 6.23178L11 9.86496V2C11 1.61198 11.2245 1.25899 11.5759 1.09441ZM13 14.135L16.438 17L13 19.865V14.135ZM13 9.86496V4.13504L16.438 7L13 9.86496Z" fill="#344054"/>
</svg>
