<svg width="24" height="24" viewBox="0 0 24 24" fill="none" xmlns="http://www.w3.org/2000/svg">
<path fill-rule="evenodd" clip-rule="evenodd" d="M11.5758 1.09441C11.9272 0.929832 12.3421 0.983377 12.6402 1.23178L18.6402 6.23178C18.8682 6.42177 19 6.70322 19 7C19 7.29678 18.8682 7.57823 18.6402 7.76822L15.7219 10.2002C15.2976 10.5537 14.667 10.4964 14.3135 10.0721C13.9599 9.64785 14.0172 9.01728 14.4415 8.66372L16.438 7L13 4.13504V7C13 7.55229 12.5523 8 12 8C11.4477 8 11 7.55229 11 7V2C11 1.61198 11.2245 1.25899 11.5758 1.09441ZM2.29289 2.29289C2.68342 1.90237 3.31658 1.90237 3.70711 2.29289L12.7017 11.2875C12.7053 11.291 12.7088 11.2945 12.7123 11.298L21.7071 20.2929C22.0976 20.6834 22.0976 21.3166 21.7071 21.7071C21.3166 22.0976 20.6834 22.0976 20.2929 21.7071L17.3932 18.8074L12.6402 22.7682C12.3421 23.0166 11.9272 23.0702 11.5758 22.9056C11.2245 22.741 11 22.388 11 22V14.135L6.64018 17.7682C6.21591 18.1218 5.58534 18.0645 5.23178 17.6402C4.87821 17.2159 4.93554 16.5853 5.35982 16.2318L10.5186 11.9328L2.29289 3.70711C1.90237 3.31658 1.90237 2.68342 2.29289 2.29289ZM13 14.4142V19.865L15.9731 17.3873L13 14.4142Z" fill="#344054"/>
</svg>
