<svg width="24" height="24" viewBox="0 0 24 24" fill="none" xmlns="http://www.w3.org/2000/svg">
<path fill-rule="evenodd" clip-rule="evenodd" d="M7.57587 1.09441C7.92725 0.929832 8.34213 0.983377 8.64021 1.23178L14.6402 6.23178C14.8682 6.42177 15 6.70322 15 7C15 7.29678 14.8682 7.57823 14.6402 7.76822L9.56207 12L14.6402 16.2318C14.8682 16.4218 15 16.7032 15 17C15 17.2968 14.8682 17.5782 14.6402 17.7682L8.64021 22.7682C8.34213 23.0166 7.92725 23.0702 7.57587 22.9056C7.22449 22.741 7.00003 22.388 7.00003 22V14.135L2.64021 17.7682C2.21593 18.1218 1.58537 18.0645 1.2318 17.6402C0.87824 17.2159 0.935564 16.5853 1.35984 16.2318L6.43798 12L1.35984 7.76822C0.935564 7.41466 0.87824 6.78409 1.2318 6.35982C1.58537 5.93554 2.21593 5.87822 2.64021 6.23178L7.00003 9.86496V2C7.00003 1.61198 7.22449 1.25899 7.57587 1.09441ZM9.00002 14.135L12.438 17L9.00002 19.865V14.135ZM9.00002 9.86496V4.13504L12.438 7L9.00002 9.86496ZM19.5606 5.68822C20.0089 5.36571 20.6338 5.4677 20.9563 5.91603C22.1883 7.62854 22.9141 9.73099 22.9141 12C22.9141 14.269 22.1883 16.3715 20.9563 18.084C20.6338 18.5323 20.0089 18.6343 19.5606 18.3118C19.1123 17.9893 19.0103 17.3644 19.3328 16.916C20.3281 15.5325 20.9141 13.8361 20.9141 12C20.9141 10.1639 20.3281 8.46755 19.3328 7.08397C19.0103 6.63564 19.1123 6.01074 19.5606 5.68822ZM16.4279 8.03705C16.8809 7.72109 17.5042 7.83217 17.8202 8.28514C18.5549 9.33839 18.9859 10.6204 18.9859 12.0001C18.9859 13.3798 18.5549 14.6618 17.8202 15.7151C17.5042 16.168 16.8809 16.2791 16.4279 15.9631C15.975 15.6472 15.8639 15.0238 16.1798 14.5709C16.688 13.8424 16.9859 12.9575 16.9859 12.0001C16.9859 11.0427 16.688 10.1578 16.1798 9.42934C15.8639 8.97636 15.975 8.35301 16.4279 8.03705Z" fill="#344054"/>
</svg>
