<svg width="24" height="24" viewBox="0 0 24 24" fill="none" xmlns="http://www.w3.org/2000/svg">
<path fill-rule="evenodd" clip-rule="evenodd" d="M5.1027 1.69125C5.51946 2.05364 5.56355 2.68527 5.20116 3.10204C3.18598 5.41963 2.55284 8.52561 3.30773 11.3406C3.45078 11.874 3.13431 12.4225 2.60088 12.5655C2.06744 12.7086 1.51904 12.3921 1.37599 11.8586C0.45497 8.42417 1.22495 4.62688 3.69192 1.78972C4.0543 1.37295 4.68593 1.32887 5.1027 1.69125ZM18.8938 1.6913C19.3106 1.32891 19.9422 1.37299 20.3046 1.78976C22.7716 4.62692 23.5416 8.42421 22.6206 11.8587C22.4775 12.3921 21.9291 12.7086 21.3957 12.5655C20.8622 12.4225 20.5458 11.8741 20.6888 11.3407C21.4437 8.52565 20.8106 5.41967 18.7954 3.10208C18.433 2.68531 18.4771 2.05368 18.8938 1.6913ZM16.091 4.49932C16.5242 4.15674 17.1531 4.2302 17.4957 4.6634C18.8994 6.43844 19.3193 8.73275 18.7612 10.8165C18.6183 11.35 18.07 11.6666 17.5366 11.5238C17.0031 11.3809 16.6864 10.8326 16.8293 10.2991C17.2291 8.80635 16.9264 7.16774 15.927 5.90398C15.5844 5.47078 15.6578 4.84189 16.091 4.49932ZM7.90897 4.49936C8.34217 4.84194 8.41563 5.47083 8.07306 5.90403C7.07366 7.16779 6.77091 8.8064 7.17071 10.2992C7.31359 10.8326 6.99694 11.3809 6.46346 11.5238C5.92997 11.6667 5.38167 11.3501 5.2388 10.8166C4.68071 8.7328 5.10059 6.43849 6.50431 4.66345C6.84689 4.23025 7.47578 4.15679 7.90897 4.49936ZM12 8C12.5523 8 13 8.44771 13 9V14H18.8385C19.3657 14 19.8205 14 20.195 14.0306C20.5904 14.0629 20.9836 14.1342 21.362 14.327C21.9265 14.6146 22.3854 15.0735 22.673 15.638C22.8658 16.0164 22.9371 16.4096 22.9694 16.805C23 17.1795 23 17.6343 23 18.1614V18.8386C23 19.3657 23 19.8205 22.9694 20.195C22.9371 20.5904 22.8658 20.9836 22.673 21.362C22.3854 21.9265 21.9265 22.3854 21.362 22.673C20.9836 22.8658 20.5904 22.9371 20.195 22.9694C19.8205 23 19.3657 23 18.8386 23H5.16144C4.6343 23 4.17955 23 3.80498 22.9694C3.40964 22.9371 3.01642 22.8658 2.63804 22.673C2.07355 22.3854 1.61461 21.9265 1.32699 21.362C1.13419 20.9836 1.06288 20.5904 1.03058 20.195C0.999974 19.8205 0.999989 19.3657 1.00001 18.8385V18.1615C0.999989 17.6343 0.999974 17.1795 1.03058 16.805C1.06288 16.4096 1.13419 16.0164 1.32699 15.638C1.61461 15.0735 2.07355 14.6146 2.63804 14.327C3.01642 14.1342 3.40963 14.0629 3.80498 14.0306C4.17956 14 4.63433 14 5.16149 14H11V9C11 8.44771 11.4477 8 12 8ZM5.20001 16C4.62345 16 4.25118 16.0008 3.96784 16.0239C3.69618 16.0461 3.59546 16.0838 3.54602 16.109C3.35786 16.2049 3.20487 16.3578 3.109 16.546C3.08381 16.5955 3.04613 16.6962 3.02394 16.9678C3.00079 17.2512 3.00001 17.6234 3.00001 18.2V18.8C3.00001 19.3766 3.00079 19.7488 3.02394 20.0322C3.04613 20.3038 3.08381 20.4045 3.109 20.454C3.20488 20.6422 3.35786 20.7951 3.54602 20.891C3.59546 20.9162 3.69618 20.9539 3.96784 20.9761C4.25118 20.9992 4.62345 21 5.20001 21H18.8C19.3766 21 19.7488 20.9992 20.0322 20.9761C20.3038 20.9539 20.4046 20.9162 20.454 20.891C20.6422 20.7951 20.7951 20.6422 20.891 20.454C20.9162 20.4045 20.9539 20.3038 20.9761 20.0322C20.9992 19.7488 21 19.3766 21 18.8V18.2C21 17.6234 20.9992 17.2512 20.9761 16.9678C20.9539 16.6962 20.9162 16.5955 20.891 16.546C20.7951 16.3578 20.6422 16.2049 20.454 16.109C20.4046 16.0838 20.3038 16.0461 20.0322 16.0239C19.7488 16.0008 19.3766 16 18.8 16H5.20001ZM4.50001 18.5C4.50001 17.9477 4.94772 17.5 5.50001 17.5H9.50001C10.0523 17.5 10.5 17.9477 10.5 18.5C10.5 19.0523 10.0523 19.5 9.50001 19.5H5.50001C4.94772 19.5 4.50001 19.0523 4.50001 18.5Z" fill="#344054"/>
</svg>
