<svg width="24" height="24" viewBox="0 0 24 24" fill="none" xmlns="http://www.w3.org/2000/svg">
<path fill-rule="evenodd" clip-rule="evenodd" d="M14.726 3.24495L18.4472 5.10559C18.9412 5.35257 19.1414 5.95325 18.8944 6.44723C18.6474 6.9412 18.0468 7.14143 17.5528 6.89444L13.8683 5.05221C13.4675 4.85181 13.2281 4.73322 13.0502 4.66372C13.04 4.65973 13.0304 4.65609 13.0215 4.65277C13.0204 4.66224 13.0194 4.67243 13.0184 4.68338C13.001 4.87358 13 5.14075 13 5.58887V18C13 20.2092 11.2091 22 9 22C6.79086 22 5 20.2092 5 18C5 15.7909 6.79086 14 9 14C9.72857 14 10.4117 14.1948 11 14.5351V5.58887C11 5.57511 11 5.56139 11 5.54771C11 5.15458 10.9999 4.79384 11.0267 4.50108C11.0543 4.19958 11.1199 3.81655 11.3611 3.47177C11.6764 3.02096 12.1635 2.71993 12.7077 2.63952C13.1239 2.57803 13.4958 2.69064 13.7779 2.80079C14.0517 2.90775 14.3743 3.06911 14.726 3.24495ZM11 18C11 16.8954 10.1046 16 9 16C7.89543 16 7 16.8954 7 18C7 19.1046 7.89543 20 9 20C10.1046 20 11 19.1046 11 18Z" fill="#344054"/>
</svg>
