<svg width="24" height="24" viewBox="0 0 24 24" fill="none" xmlns="http://www.w3.org/2000/svg">
<path fill-rule="evenodd" clip-rule="evenodd" d="M17.226 3.24495L20.9472 5.10559C21.4412 5.35257 21.6414 5.95325 21.3944 6.44723C21.1474 6.9412 20.5468 7.14143 20.0528 6.89444L16.3683 5.05221C15.9675 4.85181 15.7281 4.73322 15.5502 4.66372C15.54 4.65973 15.5304 4.65609 15.5215 4.65278C15.5204 4.66224 15.5194 4.67243 15.5184 4.68338C15.501 4.87358 15.5 5.14075 15.5 5.58887V18C15.5 20.2092 13.7091 22 11.5 22C9.29086 22 7.5 20.2092 7.5 18C7.5 15.7909 9.29086 14 11.5 14C12.2286 14 12.9117 14.1948 13.5 14.5351L13.5 5.54771C13.5 5.15458 13.4999 4.79384 13.5267 4.50108C13.5543 4.19958 13.6199 3.81655 13.8611 3.47177C14.1764 3.02096 14.6635 2.71993 15.2077 2.63952C15.6239 2.57803 15.9958 2.69064 16.2779 2.80079C16.5517 2.90775 16.8743 3.06911 17.226 3.24495ZM13.5 18C13.5 16.8954 12.6046 16 11.5 16C10.3954 16 9.5 16.8954 9.5 18C9.5 19.1046 10.3954 20 11.5 20C12.6046 20 13.5 19.1046 13.5 18ZM6.5 3.00001C7.05228 3.00001 7.5 3.44773 7.5 4.00001V6.00001H9.5C10.0523 6.00001 10.5 6.44773 10.5 7.00001C10.5 7.5523 10.0523 8.00001 9.5 8.00001H7.5V10C7.5 10.5523 7.05228 11 6.5 11C5.94772 11 5.5 10.5523 5.5 10V8.00001H3.5C2.94772 8.00001 2.5 7.5523 2.5 7.00001C2.5 6.44773 2.94772 6.00001 3.5 6.00001H5.5V4.00001C5.5 3.44773 5.94772 3.00001 6.5 3.00001Z" fill="#344054"/>
</svg>
