<svg width="24" height="24" viewBox="0 0 24 24" fill="none" xmlns="http://www.w3.org/2000/svg">
<path fill-rule="evenodd" clip-rule="evenodd" d="M8.00625 2.80231C8.0182 2.81028 8.0302 2.81827 8.04222 2.82629L18.591 9.8588C18.8962 10.0622 19.1792 10.2509 19.3965 10.4261C19.6234 10.6091 19.8908 10.8628 20.0447 11.2339C20.2481 11.7244 20.2481 12.2756 20.0447 12.7661C19.8908 13.1372 19.6234 13.3909 19.3965 13.5738C19.1792 13.7491 18.8962 13.9377 18.591 14.1412L8.00628 21.1977C7.63319 21.4464 7.29771 21.6701 7.01305 21.8244C6.72818 21.9788 6.33717 22.1552 5.8808 22.1279C5.29705 22.0931 4.75779 21.8045 4.40498 21.3381C4.12916 20.9735 4.05905 20.5503 4.02949 20.2276C3.99994 19.9052 3.99997 19.502 4 19.0536L4 4.98962C4 4.97516 4 4.96075 4 4.94638C3.99997 4.49798 3.99994 4.09479 4.02949 3.77236C4.05905 3.44971 4.12916 3.02651 4.40498 2.6619C4.75779 2.19552 5.29705 1.90692 5.8808 1.87207C6.33717 1.84482 6.72818 2.02123 7.01305 2.17561C7.29771 2.32988 7.63318 2.55356 8.00625 2.80231ZM6.02513 3.91545C6.02378 3.92757 6.02244 3.94068 6.02114 3.95485C6.00101 4.17459 6 4.48418 6 4.98962V19.0104C6 19.5158 6.00101 19.8254 6.02114 20.0451C6.02244 20.0593 6.02378 20.0724 6.02512 20.0845C6.03595 20.0789 6.04761 20.0728 6.06011 20.066C6.25412 19.9609 6.51227 19.79 6.93282 19.5096L17.4484 12.4992C17.7982 12.266 18.0033 12.1281 18.141 12.017C18.1485 12.011 18.1554 12.0053 18.1618 12C18.1554 11.9946 18.1485 11.989 18.141 11.9829C18.0033 11.8719 17.7982 11.734 17.4484 11.5008L6.93282 4.49039C6.51227 4.21002 6.25412 4.03913 6.06011 3.93399C6.04761 3.92722 6.03595 3.92105 6.02513 3.91545Z" fill="#344054"/>
</svg>
