<svg width="24" height="24" viewBox="0 0 24 24" fill="none" xmlns="http://www.w3.org/2000/svg">
<path fill-rule="evenodd" clip-rule="evenodd" d="M13.2243 3.05526C13.0208 3.00643 12.7931 3 12.0118 3H8.8C7.94342 3 7.36113 3.00078 6.91104 3.03755C6.47262 3.07337 6.24842 3.1383 6.09202 3.21799C5.7157 3.40974 5.40973 3.7157 5.21799 4.09202C5.1383 4.24842 5.07337 4.47262 5.03755 4.91104C5.00078 5.36113 5 5.94342 5 6.8V17.2C5 18.0566 5.00078 18.6389 5.03755 19.089C5.07337 19.5274 5.1383 19.7516 5.21799 19.908C5.40973 20.2843 5.7157 20.5903 6.09202 20.782C6.24842 20.8617 6.47262 20.9266 6.91104 20.9625C7.36113 20.9992 7.94342 21 8.8 21H15.2C16.0566 21 16.6389 20.9992 17.089 20.9625C17.5274 20.9266 17.7516 20.8617 17.908 20.782C18.2843 20.5903 18.5903 20.2843 18.782 19.908C18.8617 19.7516 18.9266 19.5274 18.9624 19.089C18.9992 18.6389 19 18.0566 19 17.2V9.98823C19 9.20686 18.9936 8.97916 18.9447 8.77575C18.8957 8.57168 18.8149 8.37659 18.7053 8.19765C18.596 8.01929 18.4395 7.85373 17.887 7.30122L14.6988 4.113C14.1463 3.56048 13.9807 3.40402 13.8024 3.29472C13.6234 3.18506 13.4283 3.10426 13.2243 3.05526ZM12.1137 0.99997C12.7487 0.999668 13.2284 0.999439 13.6911 1.11052C14.0993 1.20851 14.4895 1.37013 14.8474 1.58944C15.2531 1.83807 15.5922 2.1775 16.041 2.62672C16.0647 2.65043 16.0887 2.67445 16.113 2.69878L19.3012 5.88701C19.3255 5.91133 19.3496 5.93533 19.3733 5.95901C19.8225 6.40782 20.1619 6.74692 20.4106 7.15265C20.6299 7.51054 20.7915 7.90072 20.8895 8.30886C21.0006 8.77156 21.0003 9.25135 21 9.88636C21 9.91987 21 9.95382 21 9.98823V17.2413C21 18.0463 21 18.7106 20.9558 19.2518C20.9099 19.8139 20.8113 20.3306 20.564 20.816C20.1805 21.5686 19.5686 22.1805 18.816 22.564C18.3306 22.8113 17.8139 22.9099 17.2518 22.9558C16.7106 23 16.0463 23 15.2413 23H8.75868C7.95372 23 7.28936 23 6.74817 22.9558C6.18608 22.9099 5.66937 22.8113 5.18404 22.564C4.43139 22.1805 3.81947 21.5686 3.43597 20.816C3.18868 20.3306 3.09012 19.8139 3.04419 19.2518C2.99998 18.7106 2.99999 18.0463 3 17.2413V6.7587C2.99999 5.95373 2.99998 5.28937 3.04419 4.74818C3.09012 4.18608 3.18868 3.66938 3.43597 3.18404C3.81947 2.43139 4.43139 1.81947 5.18404 1.43598C5.66937 1.18869 6.18608 1.09012 6.74817 1.0442C7.28937 0.999978 7.95373 0.999989 8.7587 1L12.0118 1C12.0462 1 12.0801 0.999986 12.1137 0.99997ZM8.77687 12C8.78469 12 8.7924 12 8.8 12H15.2C15.2076 12 15.2153 12 15.2231 12C15.3422 12 15.4845 11.9999 15.6098 12.0101C15.755 12.022 15.963 12.0524 16.181 12.1635C16.4632 12.3073 16.6927 12.5368 16.8365 12.819C16.9476 13.037 16.978 13.245 16.9899 13.3902C17.0001 13.5155 17.0001 13.6578 17 13.7769C17 13.7847 17 13.7924 17 13.8V17.2C17 17.2076 17 17.2153 17 17.2231C17.0001 17.3422 17.0001 17.4845 16.9899 17.6098C16.978 17.7551 16.9476 17.963 16.8365 18.181C16.6927 18.4632 16.4632 18.6927 16.181 18.8365C15.963 18.9476 15.755 18.978 15.6098 18.9899C15.4845 19.0001 15.3423 19.0001 15.2232 19C15.2153 19 15.2076 19 15.2 19H8.8C8.79239 19 8.78467 19 8.77685 19C8.65774 19.0001 8.51549 19.0001 8.39017 18.9899C8.24495 18.978 8.03696 18.9476 7.81902 18.8365C7.53677 18.6927 7.3073 18.4632 7.16349 18.181C7.05244 17.963 7.022 17.7551 7.01013 17.6098C6.9999 17.4845 6.99995 17.3423 6.99999 17.2231C7 17.2153 7 17.2076 7 17.2V13.8C7 13.7924 7 13.7847 6.99999 13.7769C6.99995 13.6577 6.9999 13.5155 7.01013 13.3902C7.022 13.245 7.05244 13.037 7.16349 12.819C7.3073 12.5368 7.53677 12.3073 7.81902 12.1635C8.03696 12.0524 8.24495 12.022 8.39017 12.0101C8.51549 11.9999 8.65775 12 8.77687 12ZM9 14V17H15V14H9Z" fill="#344054"/>
</svg>
