<svg width="24" height="24" viewBox="0 0 24 24" fill="none" xmlns="http://www.w3.org/2000/svg">
<path fill-rule="evenodd" clip-rule="evenodd" d="M6.21913 2.3753C6.56414 1.94404 7.19343 1.87412 7.6247 2.21913L12 5.71937L16.3753 2.21913C16.8066 1.87412 17.4359 1.94404 17.7809 2.3753C18.1259 2.80657 18.056 3.43586 17.6247 3.78087L14.8508 6L17.2413 6C18.0463 5.99999 18.7106 5.99997 19.2518 6.04419C19.8139 6.09012 20.3306 6.18868 20.816 6.43597C21.5686 6.81947 22.1805 7.43139 22.564 8.18404C22.8113 8.66937 22.9099 9.18608 22.9558 9.74817C23 10.2894 23 10.9537 23 11.7587V16.2413C23 17.0463 23 17.7106 22.9558 18.2518C22.9099 18.8139 22.8113 19.3306 22.564 19.816C22.1805 20.5686 21.5686 21.1805 20.816 21.564C20.3306 21.8113 19.8139 21.9099 19.2518 21.9558C18.7106 22 18.0463 22 17.2413 22H6.75868C5.95372 22 5.28936 22 4.74817 21.9558C4.18608 21.9099 3.66937 21.8113 3.18404 21.564C2.43139 21.1805 1.81947 20.5686 1.43597 19.816C1.18868 19.3306 1.09012 18.8139 1.04419 18.2518C0.999977 17.7106 0.999988 17.0463 1 16.2413V11.7587C0.999988 10.9537 0.999977 10.2894 1.04419 9.74817C1.09012 9.18608 1.18868 8.66937 1.43597 8.18404C1.81947 7.43139 2.43139 6.81947 3.18404 6.43597C3.66937 6.18868 4.18608 6.09012 4.74817 6.04419C5.28937 5.99997 5.95373 5.99999 6.7587 6L9.14922 6L6.37531 3.78087C5.94404 3.43586 5.87412 2.80657 6.21913 2.3753ZM11.9995 8H6.8C5.94342 8 5.36113 8.00078 4.91104 8.03755C4.47262 8.07337 4.24842 8.1383 4.09202 8.21799C3.7157 8.40973 3.40973 8.71569 3.21799 9.09202C3.1383 9.24842 3.07337 9.47262 3.03755 9.91104C3.00078 10.3611 3 10.9434 3 11.8V16.2C3 17.0566 3.00078 17.6389 3.03755 18.089C3.07337 18.5274 3.1383 18.7516 3.21799 18.908C3.40973 19.2843 3.7157 19.5903 4.09202 19.782C4.24842 19.8617 4.47262 19.9266 4.91104 19.9624C5.36113 19.9992 5.94342 20 6.8 20H17.2C18.0566 20 18.6389 19.9992 19.089 19.9624C19.5274 19.9266 19.7516 19.8617 19.908 19.782C20.2843 19.5903 20.5903 19.2843 20.782 18.908C20.8617 18.7516 20.9266 18.5274 20.9624 18.089C20.9992 17.6389 21 17.0566 21 16.2V11.8C21 10.9434 20.9992 10.3611 20.9624 9.91104C20.9266 9.47262 20.8617 9.24842 20.782 9.09202C20.5903 8.71569 20.2843 8.40973 19.908 8.21799C19.7516 8.1383 19.5274 8.07337 19.089 8.03755C18.6389 8.00078 18.0566 8 17.2 8H11.9995C11.9998 8 11.9992 8 11.9995 8Z" fill="#344054"/>
</svg>
