<svg width="24" height="24" viewBox="0 0 24 24" fill="none" xmlns="http://www.w3.org/2000/svg">
<path fill-rule="evenodd" clip-rule="evenodd" d="M12.5 6.41421L9.67574 9.23847C9.66402 9.25019 9.65202 9.26226 9.63972 9.27463C9.50579 9.40927 9.33714 9.57882 9.13079 9.70527C8.95185 9.81493 8.75676 9.89574 8.55268 9.94473C8.31735 10.0012 8.07821 10.0006 7.8883 10.0001C7.87086 10 7.85383 9.99999 7.83726 9.99999H6.10001C5.80348 9.99999 5.64122 10.0008 5.52464 10.0103C5.52 10.0107 5.5156 10.0111 5.51145 10.0114C5.51107 10.0156 5.51069 10.02 5.51031 10.0246C5.50078 10.1412 5.50001 10.3035 5.50001 10.6V13.4C5.50001 13.6965 5.50078 13.8588 5.51031 13.9754C5.51069 13.98 5.51107 13.9844 5.51145 13.9885C5.5156 13.9889 5.52 13.9893 5.52464 13.9897C5.64122 13.9992 5.80348 14 6.10001 14H7.83726C7.85383 14 7.87086 13.9999 7.8883 13.9999C8.07821 13.9994 8.31735 13.9988 8.55268 14.0553C8.75676 14.1042 8.95185 14.1851 9.13079 14.2947C9.33715 14.4212 9.50579 14.5907 9.63972 14.7254C9.65202 14.7377 9.66403 14.7498 9.67574 14.7615L12.5 17.5858V6.41421ZM12.8823 3.71172C13.361 3.67405 13.8288 3.86781 14.1406 4.23293C14.4199 4.55988 14.4642 4.95313 14.4811 5.14402C14.5001 5.35799 14.5 5.62375 14.5 5.89413C14.5 5.90653 14.5 5.91895 14.5 5.93136L14.5 18.1059C14.5 18.3762 14.5001 18.642 14.4811 18.856C14.4642 19.0469 14.4199 19.4401 14.1406 19.7671C13.8288 20.1322 13.361 20.3259 12.8823 20.2883C12.4537 20.2545 12.1442 20.0078 11.9973 19.8848C11.8326 19.7469 11.6447 19.559 11.4535 19.3678L8.26153 16.1757C8.1689 16.0831 8.1225 16.037 8.08738 16.005C8.08646 16.0042 8.08557 16.0033 8.08472 16.0026C8.08358 16.0025 8.08238 16.0025 8.08114 16.0024C8.03365 16.0002 7.96826 16 7.83726 16L6.06812 16C5.81574 16 5.56994 16.0001 5.36178 15.983C5.13318 15.9644 4.86345 15.9203 4.59202 15.782C4.2157 15.5903 3.90974 15.2843 3.71799 14.908C3.57969 14.6366 3.53563 14.3668 3.51695 14.1382C3.49994 13.9301 3.49997 13.6843 3.5 13.4319L3.50001 10.6C3.50001 10.5894 3.5 10.5787 3.5 10.5681C3.49997 10.3157 3.49994 10.0699 3.51695 9.86176C3.53563 9.63317 3.57969 9.36344 3.71799 9.09201C3.90974 8.71569 4.2157 8.40973 4.59202 8.21798C4.86345 8.07968 5.13318 8.03562 5.36178 8.01694C5.56993 7.99993 5.81572 7.99996 6.06811 7.99999C6.07873 7.99999 6.08936 7.99999 6.10001 7.99999H7.83726C7.96826 7.99999 8.03365 7.99975 8.08114 7.99758C8.08238 7.99753 8.08358 7.99747 8.08472 7.99741C8.08557 7.99664 8.08646 7.99584 8.08738 7.995C8.1225 7.96295 8.1689 7.91689 8.26153 7.82426L11.4272 4.65857C11.436 4.64979 11.4448 4.64101 11.4535 4.63224C11.6447 4.44103 11.8326 4.25308 11.9973 4.11518C12.1442 3.99217 12.4537 3.74546 12.8823 3.71172ZM17.673 7.17981C18.126 6.86385 18.7493 6.97492 19.0653 7.4279C19.9694 8.7241 20.4998 10.3016 20.4998 12C20.4998 13.6984 19.9694 15.2759 19.0653 16.5721C18.7493 17.0251 18.126 17.1361 17.673 16.8202C17.22 16.5042 17.109 15.8809 17.4249 15.4279C18.1026 14.4564 18.4998 13.2761 18.4998 12C18.4998 10.7239 18.1026 9.54355 17.4249 8.57209C17.109 8.11912 17.22 7.49577 17.673 7.17981Z" fill="#344054"/>
</svg>
