<svg width="24" height="24" viewBox="0 0 24 24" fill="none" xmlns="http://www.w3.org/2000/svg">
<path fill-rule="evenodd" clip-rule="evenodd" d="M10 6.41421L7.17574 9.23847C7.16402 9.25019 7.15202 9.26226 7.13972 9.27463C7.00579 9.40927 6.83714 9.57882 6.63079 9.70527C6.45185 9.81493 6.25676 9.89574 6.05268 9.94473C5.81735 10.0012 5.57821 10.0006 5.3883 10.0001C5.37086 10 5.35383 9.99999 5.33726 9.99999H3.60001C3.30348 9.99999 3.14122 10.0008 3.02464 10.0103C3.02 10.0107 3.0156 10.0111 3.01145 10.0114C3.01107 10.0156 3.01069 10.02 3.01031 10.0246C3.00078 10.1412 3.00001 10.3035 3.00001 10.6V13.4C3.00001 13.6965 3.00078 13.8588 3.01031 13.9754C3.01069 13.98 3.01107 13.9844 3.01145 13.9885C3.0156 13.9889 3.02 13.9893 3.02464 13.9897C3.14122 13.9992 3.30348 14 3.60001 14H5.33726C5.35383 14 5.37086 13.9999 5.3883 13.9999C5.57821 13.9994 5.81735 13.9988 6.05268 14.0553C6.25676 14.1042 6.45185 14.1851 6.63079 14.2947C6.83715 14.4212 7.00579 14.5907 7.13972 14.7254C7.15202 14.7377 7.16403 14.7498 7.17574 14.7615L10 17.5858V6.41421ZM10.3823 3.71172C10.861 3.67405 11.3288 3.86781 11.6406 4.23293C11.9199 4.55988 11.9642 4.95313 11.9811 5.14402C12.0001 5.35799 12 5.62375 12 5.89413C12 5.90653 12 5.91895 12 5.93136L12 18.1059C12 18.3762 12.0001 18.642 11.9811 18.856C11.9642 19.0469 11.9199 19.4401 11.6406 19.7671C11.3288 20.1322 10.861 20.3259 10.3823 20.2883C9.95368 20.2545 9.64424 20.0078 9.4973 19.8848C9.33259 19.7469 9.1447 19.559 8.95355 19.3678L5.76153 16.1757C5.6689 16.0831 5.6225 16.037 5.58738 16.005C5.58646 16.0042 5.58557 16.0033 5.58472 16.0026C5.58358 16.0025 5.58238 16.0025 5.58114 16.0024C5.53365 16.0002 5.46826 16 5.33726 16L3.56812 16C3.31574 16 3.06994 16.0001 2.86178 15.983C2.63318 15.9644 2.36345 15.9203 2.09202 15.782C1.7157 15.5903 1.40974 15.2843 1.21799 14.908C1.07969 14.6366 1.03563 14.3668 1.01695 14.1382C0.999943 13.9301 0.999973 13.6843 1 13.4319L1.00001 10.6C1.00001 10.5894 1 10.5787 1 10.5681C0.999973 10.3157 0.999943 10.0699 1.01695 9.86176C1.03563 9.63317 1.07969 9.36344 1.21799 9.09201C1.40974 8.71569 1.7157 8.40973 2.09202 8.21798C2.36345 8.07968 2.63318 8.03562 2.86178 8.01694C3.06993 7.99993 3.31572 7.99996 3.56811 7.99999C3.57873 7.99999 3.58936 7.99999 3.60001 7.99999H5.33726C5.46826 7.99999 5.53365 7.99975 5.58114 7.99758C5.58238 7.99753 5.58358 7.99747 5.58472 7.99741C5.58557 7.99664 5.58646 7.99584 5.58738 7.995C5.6225 7.96295 5.6689 7.91689 5.76153 7.82426L8.92721 4.65857C8.93599 4.64979 8.94477 4.64101 8.95354 4.63224C9.1447 4.44103 9.33259 4.25308 9.4973 4.11518C9.64424 3.99217 9.95368 3.74546 10.3823 3.71172ZM18.5 7.49999C19.0523 7.49999 19.5 7.94771 19.5 8.49999V11H22C22.5523 11 23 11.4477 23 12C23 12.5523 22.5523 13 22 13H19.5V15.5C19.5 16.0523 19.0523 16.5 18.5 16.5C17.9477 16.5 17.5 16.0523 17.5 15.5V13H15C14.4477 13 14 12.5523 14 12C14 11.4477 14.4477 11 15 11H17.5V8.49999C17.5 7.94771 17.9477 7.49999 18.5 7.49999Z" fill="#344054"/>
</svg>
