<svg width="24" height="24" viewBox="0 0 24 24" fill="none" xmlns="http://www.w3.org/2000/svg">
<path d="M13.595 1.11472C18.3935 1.8117 22.1882 5.60643 22.8852 10.405C22.9541 10.8794 22.9886 11.1165 22.8934 11.3618C22.8169 11.5587 22.6371 11.7665 22.4532 11.8705C22.2242 11.9999 21.9495 11.9999 21.4 11.9999H13.6C13.0399 11.9999 12.7599 11.9999 12.546 11.8909C12.3578 11.7951 12.2049 11.6421 12.109 11.4539C12 11.24 12 10.96 12 10.3999V2.59994C12 2.05046 12 1.77572 12.1295 1.54669C12.2334 1.36285 12.4413 1.18299 12.6381 1.10657C12.8834 1.01137 13.1206 1.04582 13.595 1.11472Z" fill="#344054"/>
<path d="M10 3.10197C10 2.4639 10 2.14486 9.83731 1.89569C9.70823 1.69802 9.44954 1.51852 9.2192 1.46677C8.92885 1.40155 8.66954 1.49842 8.15093 1.69216C3.97411 3.25251 1 7.2789 1 11.9999C1 18.0751 5.92487 22.9999 12 22.9999C16.721 22.9999 20.7474 20.0258 22.3078 15.849C22.5015 15.3304 22.5984 15.0711 22.5332 14.7808C22.4814 14.5504 22.3019 14.2917 22.1042 14.1627C21.8551 13.9999 21.536 13.9999 20.898 13.9999L13.5537 13.9999C13.3155 14 13.031 14.0001 12.7804 13.9797C12.4899 13.9559 12.0739 13.8951 11.6381 13.673C11.0736 13.3853 10.6146 12.9264 10.327 12.3619C10.1049 11.926 10.044 11.51 10.0203 11.2196C9.99981 10.969 9.99992 10.6844 10 10.4462L10 3.10197Z" fill="#344054"/>
</svg>
