<svg width="24" height="24" viewBox="0 0 24 24" fill="none" xmlns="http://www.w3.org/2000/svg">
<path d="M7.62546 20.1579C7.40338 20.7076 7.29234 20.9824 7.06753 21.1499C6.88809 21.2835 6.60454 21.3638 6.38166 21.344C6.10244 21.3191 5.89482 21.1661 5.47957 20.86C2.76258 18.8571 1 15.6344 1 12C1 11.9714 1.00011 11.9429 1.00033 11.9145C1.00426 11.398 1.00622 11.1397 1.15367 10.9014C1.27142 10.7111 1.50532 10.5324 1.71989 10.4688C1.98857 10.3891 2.27519 10.4649 2.84843 10.6163L9.77061 12.4452C10.0738 12.5253 10.2253 12.5654 10.319 12.6557C10.4012 12.7349 10.4537 12.84 10.468 12.9533C10.4842 13.0823 10.4255 13.2277 10.308 13.5184L7.62546 20.1579Z" fill="#344054"/>
<path d="M13.0962 2.80621C13.1024 2.21419 13.1055 1.91818 13.2535 1.6804C13.3715 1.49066 13.606 1.31239 13.8204 1.24933C14.089 1.1703 14.3379 1.2365 14.8355 1.3689C19.5365 2.61951 23 6.90526 23 12C23 18.0751 18.0751 23 12 23C11.5032 23 11.014 22.967 10.5346 22.9032C10.024 22.8352 9.76874 22.8013 9.55056 22.6252C9.37649 22.4847 9.22809 22.2298 9.19184 22.009C9.14641 21.7324 9.25737 21.4577 9.47931 20.9084L12.9272 12.3746C12.9764 12.2529 13.0005 12.1242 13 11.9958L13.0962 2.80621Z" fill="#344054"/>
<path d="M9.3875 1.31207C9.88795 1.19017 10.1382 1.12922 10.4051 1.21387C10.6181 1.28144 10.8487 1.46454 10.9627 1.65673C11.1056 1.89754 11.1025 2.19362 11.0963 2.78577L11.0243 9.66907C11.0206 10.0203 11.0187 10.196 10.9446 10.3149C10.8797 10.4192 10.7786 10.4959 10.6607 10.5304C10.5262 10.5698 10.3566 10.5244 10.0173 10.4334L3.36785 8.65173C2.79567 8.49842 2.50958 8.42176 2.31598 8.21904C2.16152 8.05729 2.04724 7.78547 2.03974 7.56195C2.03033 7.28178 2.15676 7.05737 2.40961 6.60856C3.88317 3.99297 6.39579 2.04082 9.3875 1.31207Z" fill="#344054"/>
</svg>
