<svg width="24" height="24" viewBox="0 0 24 24" fill="none" xmlns="http://www.w3.org/2000/svg">
<path d="M12.9893 8.92254C12.9893 8.37026 12.5415 7.92254 11.9893 7.92254C11.437 7.92254 10.9893 8.37026 10.9893 8.92254V12.9225C10.9893 13.4748 11.437 13.9225 11.9893 13.9225C12.5415 13.9225 12.9893 13.4748 12.9893 12.9225V8.92254Z" fill="#344054"/>
<path d="M11.9893 15.9225C11.437 15.9225 10.9893 16.3703 10.9893 16.9225C10.9893 17.4748 11.437 17.9225 11.9893 17.9225H11.9993C12.5515 17.9225 12.9993 17.4748 12.9993 16.9225C12.9993 16.3703 12.5515 15.9225 11.9993 15.9225H11.9893Z" fill="#344054"/>
<path fill-rule="evenodd" clip-rule="evenodd" d="M13.7418 2.41671C12.9726 1.0827 11.0477 1.08187 10.2774 2.41523L1.02707 18.427C0.256783 19.7603 1.219 21.4275 2.75885 21.4275H21.2412C22.7802 21.4275 23.7426 19.7618 22.9738 18.4285L13.7418 2.41671ZM2.75885 19.4275L12.0092 3.41571L21.2412 19.4275H2.75885Z" fill="#344054"/>
</svg>
