<svg width="24" height="24" viewBox="0 0 24 24" fill="none" xmlns="http://www.w3.org/2000/svg">
<path fill-rule="evenodd" clip-rule="evenodd" d="M16.9056 5.37791C16.365 6.38185 16 7.83744 16 9.5C16 11.1626 16.365 12.6182 16.9056 13.6221C17.3087 14.3707 17.7359 14.7539 18.1011 14.9111L18.5726 14.9968C18.9904 14.9605 19.5634 14.6083 20.0944 13.6221C20.635 12.6182 21 11.1626 21 9.5C21 7.83744 20.635 6.38185 20.0944 5.37791C19.5634 4.39167 18.9904 4.03951 18.5726 4.00319L18.1011 4.08892C17.7359 4.24605 17.3087 4.62933 16.9056 5.37791ZM15.0323 4.64689C14.3755 5.96806 14 7.67442 14 9.5C14 11.3256 14.3755 13.0319 15.0323 14.3531L5.62244 12.6422C4.63155 12.4621 4.33744 12.3991 4.11823 12.2914C3.60966 12.0416 3.23092 11.5878 3.07611 11.0427C3.00938 10.8078 3.00001 10.5071 3.00001 9.5C3.00001 8.49287 3.00938 8.19223 3.07611 7.95729C3.23092 7.41223 3.60966 6.95842 4.11823 6.70861C4.33744 6.60093 4.63155 6.53793 5.62244 6.35777L15.0323 4.64689ZM17.5441 2.15741L5.26467 4.39003C5.21915 4.39831 5.17427 4.40644 5.13001 4.41446C4.33413 4.5587 3.73923 4.66651 3.23644 4.91349C2.2193 5.41312 1.46182 6.32074 1.1522 7.41085C0.999152 7.94971 0.999497 8.55429 0.999958 9.36314C0.999984 9.40812 1.00001 9.45373 1.00001 9.5C1.00001 9.54627 0.999984 9.59188 0.999958 9.63686C0.999497 10.4457 0.999152 11.0503 1.1522 11.5891C1.46182 12.6793 2.2193 13.5869 3.23644 14.0865C3.47429 14.2033 3.73274 14.289 4.02333 14.3622L4.39857 19.6156C4.41537 19.8511 4.43184 20.0821 4.46147 20.2777C4.49419 20.4937 4.55291 20.7454 4.69664 20.9958C4.89723 21.3452 5.19867 21.6258 5.56147 21.801C5.82144 21.9266 6.07667 21.9672 6.29448 21.9844C6.49166 22.0001 6.72328 22 6.95942 22H8.80572C9.07678 22 9.33857 22.0001 9.55898 21.9815C9.79927 21.9613 10.0852 21.9135 10.3689 21.7606C10.7592 21.5503 11.0686 21.2162 11.2483 20.8109C11.379 20.5164 11.4047 20.2276 11.4065 19.9865C11.408 19.7653 11.3879 19.5043 11.3671 19.234L11.0929 15.6697L17.5441 16.8426C17.8438 16.9441 18.1627 17 18.5 17C20.0107 17 21.1511 15.8782 21.8554 14.5703C22.5815 13.2217 23 11.4273 23 9.5C23 7.57271 22.5815 5.7783 21.8554 4.42971C21.1511 3.12184 20.0107 2 18.5 2C18.1627 2 17.8438 2.05594 17.5441 2.15741ZM9.05858 15.2998L6.05641 14.7539L6.39132 19.4427C6.41116 19.7204 6.42262 19.8706 6.4389 19.9781C6.43952 19.9822 6.44012 19.986 6.44071 19.9897C6.4444 19.99 6.4483 19.9904 6.45241 19.9907C6.56078 19.9993 6.71143 20 6.9898 20H8.77221C9.08941 20 9.26517 19.9992 9.39128 19.9886C9.39659 19.9881 9.4016 19.9877 9.40632 19.9872C9.40641 19.9825 9.40648 19.9774 9.40651 19.9721C9.40742 19.8456 9.39477 19.6702 9.37044 19.354L9.05858 15.2998Z" fill="#344054"/>
</svg>
