<svg width="24" height="24" viewBox="0 0 24 24" fill="none" xmlns="http://www.w3.org/2000/svg">
<path fill-rule="evenodd" clip-rule="evenodd" d="M11.41 4.13839C11.1956 3.33819 10.373 2.86332 9.57285 3.07773C8.77265 3.29214 8.29777 4.11465 8.51219 4.91485C8.5694 5.12839 8.66941 5.31836 8.80091 5.4784C9.21331 5.28628 9.64508 5.1289 10.0904 5.00957C10.5358 4.89024 10.9884 4.81064 11.4417 4.77083C11.4756 4.56647 11.4672 4.35194 11.41 4.13839ZM13.4461 4.85737C13.4846 4.45324 13.4529 4.0355 13.3418 3.62075C12.8415 1.75362 10.9223 0.645581 9.05521 1.14588C7.18808 1.64617 6.08004 3.56535 6.58033 5.43248C6.69146 5.84722 6.87295 6.22478 7.1083 6.55554C6.61346 6.9726 6.17723 7.45218 5.81716 7.98429C4.83479 9.43604 4.49511 11.1735 4.93362 12.81C5.47912 14.8459 5.36281 16.422 5.03931 17.581L5.03397 17.6001C4.82594 18.3454 4.66346 18.9275 4.56083 19.3416C4.50954 19.5485 4.46667 19.7391 4.44129 19.8993C4.4287 19.9787 4.41668 20.0732 4.41376 20.171C4.41159 20.2439 4.40862 20.4321 4.48615 20.6385C4.52871 20.7519 4.61675 20.976 4.81455 21.1759C5.01236 21.3758 5.23559 21.4661 5.34847 21.5099C5.53243 21.5812 5.69928 21.5881 5.78162 21.5888C5.87881 21.5896 5.97069 21.5809 6.04619 21.5711C6.19715 21.5516 6.36952 21.5161 6.54803 21.4748C6.90397 21.3925 7.39709 21.2604 8.01846 21.0939L9.26498 20.7599C10.1404 22.3114 11.9831 23.1375 13.7834 22.6551C15.5838 22.1727 16.7666 20.536 16.749 18.7546L19.9273 17.9029C20.5485 17.7365 21.0415 17.6044 21.3908 17.4977C21.5661 17.4442 21.7331 17.3887 21.8736 17.3302C21.9439 17.3009 22.0278 17.2625 22.1116 17.2132C22.1826 17.1715 22.3236 17.082 22.4472 16.9283C22.5231 16.834 22.6713 16.6441 22.7426 16.3721C22.814 16.1001 22.7782 15.8619 22.7584 15.7425C22.7223 15.525 22.6256 15.3635 22.5873 15.3014C22.5359 15.2182 22.4782 15.1424 22.4276 15.0799C22.3255 14.9539 22.1931 14.8103 22.0452 14.6567C21.7493 14.3494 21.3176 13.9265 20.7648 13.3851L20.7505 13.3712C19.8908 12.5292 19.0021 11.2224 18.4566 9.18658C18.0181 7.55003 16.8552 6.21518 15.2785 5.44912C14.7007 5.16835 14.0831 4.97115 13.4461 4.85737ZM12.1217 6.74087C12.1351 6.74118 12.1484 6.74123 12.1618 6.74101C12.9598 6.74679 13.7303 6.92044 14.4045 7.24802C15.5064 7.78342 16.2494 8.67651 16.5247 9.70422C17.1604 12.0765 18.2286 13.7006 19.3511 14.8C19.7372 15.1782 20.0501 15.4847 20.2967 15.7313C20.0468 15.8003 19.7461 15.8809 19.3876 15.977L7.52254 19.1562C7.16404 19.2523 6.86332 19.3328 6.61237 19.398C6.70264 19.0612 6.82038 18.6392 6.96567 18.1187C7.38807 16.6054 7.50112 14.6647 6.86547 12.2924C6.5901 11.2647 6.78697 10.1198 7.47356 9.10516C7.89344 8.48467 8.47355 7.94923 9.16134 7.54529C9.17372 7.53842 9.18597 7.53129 9.19808 7.52389C9.63061 7.27419 10.1049 7.07625 10.6081 6.94143C11.1117 6.80648 11.6218 6.74077 12.1217 6.74087ZM14.6804 19.3088L11.3335 20.2056C11.8223 20.6936 12.5507 20.9148 13.2658 20.7232C13.9809 20.5316 14.5011 19.9758 14.6804 19.3088ZM16.4766 3.59688C16.6143 3.06202 17.1595 2.74004 17.6943 2.8777C19.4528 3.33029 20.8349 4.71241 21.2875 6.47086C21.4251 7.00571 21.1032 7.55089 20.5683 7.68855C20.0334 7.82621 19.4883 7.50423 19.3506 6.96937C19.0796 5.91661 18.2486 5.08554 17.1958 4.81457C16.661 4.67691 16.339 4.13173 16.4766 3.59688ZM3.82287 6.98741C4.20952 7.38178 4.20326 8.01491 3.80889 8.40156C3.03265 9.1626 2.72846 10.2979 3.02018 11.3451C3.16839 11.8771 2.85724 12.4285 2.32521 12.5767C1.79319 12.725 1.24175 12.4138 1.09354 11.8818C0.606272 10.1326 1.11216 8.24461 2.40873 6.97343C2.80309 6.58679 3.43623 6.59305 3.82287 6.98741Z" fill="#344054"/>
</svg>
