<svg width="24" height="24" viewBox="0 0 24 24" fill="none" xmlns="http://www.w3.org/2000/svg">
<path fill-rule="evenodd" clip-rule="evenodd" d="M10.1551 4.1384C9.94068 3.3382 9.11817 2.86332 8.31797 3.07773C7.51777 3.29215 7.0429 4.11465 7.25731 4.91485C7.31453 5.1284 7.41455 5.31839 7.54606 5.47844C7.95847 5.2863 8.39025 5.12892 8.83561 5.00959C9.28097 4.89025 9.73359 4.81066 10.1868 4.77085C10.2207 4.56648 10.2123 4.35195 10.1551 4.1384ZM12.1912 4.85738C12.2297 4.45325 12.1981 4.03551 12.0869 3.62076C11.5866 1.75363 9.66747 0.645587 7.80033 1.14588C5.9332 1.64618 4.82516 3.56536 5.32546 5.43249C5.43659 5.84724 5.61809 6.22482 5.85345 6.55558C5.35863 6.97264 4.92241 7.45221 4.56235 7.98431C3.57997 9.43605 3.24029 11.1735 3.67881 12.8101C4.22431 14.8459 4.108 16.422 3.7845 17.581L3.77915 17.6001C3.57112 18.3454 3.40865 18.9275 3.30602 19.3416C3.25472 19.5486 3.21186 19.7391 3.18648 19.8993C3.17389 19.9787 3.16187 20.0733 3.15895 20.171C3.15678 20.2439 3.15381 20.4321 3.23133 20.6386C3.27389 20.7519 3.36193 20.976 3.55974 21.1759C3.75755 21.3758 3.98077 21.4662 4.09366 21.5099C4.27762 21.5812 4.44446 21.5882 4.52681 21.5888C4.624 21.5897 4.71587 21.5809 4.79138 21.5711C4.94234 21.5516 5.11471 21.5161 5.29322 21.4748C5.64916 21.3925 6.14228 21.2604 6.76366 21.0939L8.00999 20.76C8.88542 22.3115 10.7281 23.1375 12.5284 22.6551C14.3288 22.1727 15.5116 20.536 15.4939 18.7546L18.6725 17.903C19.2937 17.7365 19.7867 17.6044 20.136 17.4977C20.3112 17.4442 20.4783 17.3887 20.6188 17.3302C20.6891 17.3009 20.773 17.2625 20.8568 17.2132C20.9277 17.1715 21.0687 17.082 21.1924 16.9283C21.2683 16.834 21.4164 16.6441 21.4878 16.3721C21.5592 16.1001 21.5233 15.862 21.5035 15.7425C21.4675 15.525 21.3708 15.3635 21.3325 15.3014C21.2811 15.2182 21.2234 15.1424 21.1728 15.0799C21.0707 14.9539 20.9383 14.8103 20.7904 14.6567C20.4945 14.3494 20.0628 13.9266 19.5101 13.3852L19.4957 13.3712C18.636 12.5292 17.7473 11.2224 17.2018 9.18659C16.7633 7.55004 15.6004 6.2152 14.0237 5.44914C13.4459 5.16836 12.8283 4.97115 12.1912 4.85738ZM10.8671 6.74088C10.8803 6.74119 10.8935 6.74124 10.9066 6.74102C11.7047 6.74675 12.4754 6.92041 13.1497 7.24803C14.2516 7.78344 14.9945 8.67652 15.2699 9.70423C15.9056 12.0765 16.9738 13.7007 18.0963 14.8C18.4824 15.1782 18.7953 15.4848 19.0419 15.7313C18.792 15.8003 18.4913 15.8809 18.1328 15.977L6.26772 19.1562C5.90923 19.2523 5.60851 19.3328 5.35756 19.398C5.44783 19.0612 5.56556 18.6392 5.71086 18.1187C6.13326 16.6054 6.2463 14.6647 5.61066 12.2924C5.33529 11.2647 5.53216 10.1198 6.21875 9.10517C6.63888 8.4843 7.21945 7.94858 7.90779 7.54456C7.91929 7.53816 7.93066 7.53154 7.94192 7.52468C8.37481 7.27462 8.84956 7.0764 9.35325 6.94144C9.85694 6.80648 10.3672 6.74076 10.8671 6.74088ZM10.0786 20.2057C10.5673 20.6936 11.2957 20.9148 12.0108 20.7232C12.7258 20.5316 13.2461 19.9758 13.4254 19.3089L10.0786 20.2057Z" fill="#344054"/>
</svg>
