<svg width="24" height="24" viewBox="0 0 24 24" fill="none" xmlns="http://www.w3.org/2000/svg">
<path fill-rule="evenodd" clip-rule="evenodd" d="M11.3144 0.964753C11.7653 0.858917 12.2346 0.858917 12.6855 0.964753C13.2006 1.08565 13.6584 1.38414 14.1793 1.72374C14.2155 1.74736 14.252 1.77117 14.2889 1.79514L21.5388 6.50756C21.5562 6.51885 21.5738 6.53027 21.5914 6.54179L21.8169 6.68835C21.835 6.70013 21.8537 6.71218 21.8729 6.72453C22.0786 6.85728 22.3375 7.0243 22.5347 7.26024C22.7053 7.4644 22.8334 7.70055 22.9116 7.95485C23.002 8.24874 23.0009 8.55681 23.0001 8.80168C23 8.82446 23 8.84668 23 8.8683V16.2413C23 17.0463 23 17.7106 22.9558 18.2518C22.9098 18.8139 22.8113 19.3306 22.564 19.816C22.1805 20.5686 21.5686 21.1805 20.8159 21.564C20.3306 21.8113 19.8139 21.9099 19.2518 21.9558C18.7106 22 18.0462 22 17.2413 22H6.75863C5.95367 22 5.28932 22 4.74813 21.9558C4.18603 21.9099 3.66932 21.8113 3.18399 21.564C2.43134 21.1805 1.81942 20.5686 1.43593 19.816C1.18863 19.3306 1.09007 18.8139 1.04415 18.2518C0.999928 17.7106 0.999938 17.0463 0.999951 16.2413L0.999951 8.8683C0.999951 8.84668 0.999876 8.82445 0.999799 8.80168C0.998966 8.5568 0.997919 8.24874 1.08829 7.95485C1.16649 7.70054 1.29465 7.4644 1.46525 7.26024C1.66241 7.0243 1.92127 6.85728 2.12704 6.72453C2.14618 6.71218 2.16486 6.70013 2.18298 6.68835L2.40848 6.54178C2.42617 6.53026 2.44374 6.51884 2.46112 6.50755C2.46976 6.50194 2.47835 6.49636 2.48689 6.49081L9.711 1.79514C9.74787 1.77117 9.78439 1.74736 9.82061 1.72375C10.3415 1.38414 10.7993 1.08565 11.3144 0.964753ZM10.801 3.47202L3.83485 8L10.801 12.528C11.4963 12.98 11.6422 13.0578 11.7714 13.0882C11.9217 13.1235 12.0782 13.1235 12.2285 13.0882C12.3577 13.0578 12.5036 12.98 13.1989 12.528L20.1651 8L13.1989 3.47202C12.5036 3.02004 12.3577 2.94218 12.2285 2.91184C12.0782 2.87656 11.9217 2.87656 11.7714 2.91184C11.6422 2.94218 11.4963 3.02004 10.801 3.47202ZM21 9.84269L14.2889 14.2049C14.252 14.2288 14.2155 14.2526 14.1793 14.2762C13.6584 14.6159 13.2006 14.9144 12.6855 15.0353C12.2346 15.1411 11.7653 15.1411 11.3144 15.0353C10.7993 14.9144 10.3415 14.6159 9.8206 14.2763C9.78439 14.2526 9.74787 14.2288 9.711 14.2049L2.99995 9.84269V16.2C2.99995 17.0566 3.00073 17.6389 3.0375 18.089C3.07332 18.5274 3.13825 18.7516 3.21794 18.908C3.40969 19.2843 3.71565 19.5903 4.09197 19.782C4.24837 19.8617 4.47257 19.9266 4.91099 19.9625C5.36108 19.9992 5.94337 20 6.79995 20H17.2C18.0565 20 18.6388 19.9992 19.0889 19.9625C19.5273 19.9266 19.7515 19.8617 19.9079 19.782C20.2843 19.5903 20.5902 19.2843 20.782 18.908C20.8617 18.7516 20.9266 18.5274 20.9624 18.089C20.9992 17.6389 21 17.0566 21 16.2V9.84269Z" fill="#344054"/>
</svg>
