<svg width="24" height="24" viewBox="0 0 24 24" fill="none" xmlns="http://www.w3.org/2000/svg">
<path fill-rule="evenodd" clip-rule="evenodd" d="M2.99968 11.5C2.99968 6.25329 7.25298 2 12.4997 2C17.7464 2 21.9997 6.25329 21.9997 11.5C21.9997 16.7467 17.7464 21 12.4997 21C11.298 21 10.1463 20.7764 9.08534 20.3677C8.99439 20.3326 8.9417 20.3124 8.90285 20.2984C8.89809 20.2967 8.89398 20.2953 8.89048 20.2941C8.88921 20.2941 8.88785 20.2942 8.8864 20.2944C8.85479 20.2968 8.81163 20.3012 8.72907 20.3097L3.60804 20.8391C3.59678 20.8402 3.58549 20.8414 3.57416 20.8426C3.35998 20.8648 3.13653 20.8879 2.94964 20.8901C2.76389 20.8923 2.42911 20.8818 2.1081 20.6859C1.73182 20.4564 1.47553 20.073 1.40731 19.6376C1.34911 19.2661 1.46739 18.9527 1.54042 18.7819C1.61389 18.61 1.72071 18.4124 1.8231 18.223L3.47496 15.1655C3.54642 15.0332 3.58462 14.962 3.61032 14.909C3.61168 14.9063 3.61292 14.9036 3.61408 14.9012C3.61215 14.8943 3.60981 14.8861 3.60699 14.8766C3.58534 14.8033 3.55203 14.7039 3.49543 14.536C3.17367 13.5814 2.99968 12.56 2.99968 11.5ZM12.4997 4C8.35754 4 4.99968 7.35786 4.99968 11.5C4.99968 12.34 5.13739 13.1458 5.39067 13.8972C5.39871 13.9211 5.40702 13.9455 5.41547 13.9703C5.49662 14.2089 5.59193 14.489 5.61199 14.7425C5.63028 14.9736 5.61361 15.169 5.55644 15.3936C5.49392 15.6393 5.36685 15.8729 5.26379 16.0623C5.2538 16.0807 5.24404 16.0986 5.23458 16.1161L3.77879 18.8108L8.52342 18.3203C8.53419 18.3192 8.54523 18.318 8.55654 18.3169C8.67554 18.3044 8.82302 18.2889 8.96775 18.2944C9.10003 18.2995 9.2115 18.3143 9.34049 18.344C9.48209 18.3767 9.63571 18.4361 9.76527 18.4863C9.77855 18.4914 9.79159 18.4965 9.80434 18.5014C10.6395 18.8231 11.5478 19 12.4997 19C16.6418 19 19.9997 15.6421 19.9997 11.5C19.9997 7.35786 16.6418 4 12.4997 4ZM8.24968 9C8.24968 8.17157 8.92125 7.5 9.74968 7.5C10.5781 7.5 11.2497 8.17157 11.2497 9C11.2497 9.82843 10.5781 10.5 9.74968 10.5C8.92125 10.5 8.24968 9.82843 8.24968 9ZM13.7497 9C13.7497 8.17157 14.4213 7.5 15.2497 7.5C16.0781 7.5 16.7497 8.17157 16.7497 9C16.7497 9.82843 16.0781 10.5 15.2497 10.5C14.4213 10.5 13.7497 9.82843 13.7497 9ZM9.75125 13.3403C9.75094 13.34 9.75156 13.3407 9.75125 13.3403V13.3403ZM8.99968 14C8.2471 14.6585 8.24738 14.6588 8.24765 14.6591L8.24948 14.6612L8.25237 14.6645L8.25967 14.6727L8.28035 14.6953C8.29681 14.7132 8.31868 14.7363 8.34584 14.7641C8.4001 14.8195 8.47585 14.8935 8.57228 14.9797C8.76453 15.1517 9.04266 15.3756 9.40036 15.5986C10.1144 16.0437 11.171 16.5 12.4997 16.5C13.8283 16.5 14.8849 16.0437 15.599 15.5986C15.9567 15.3756 16.2348 15.1517 16.4271 14.9797C16.5235 14.8935 16.5993 14.8195 16.6535 14.7641C16.6807 14.7363 16.7025 14.7132 16.719 14.6953L16.7397 14.6727L16.747 14.6645L16.7499 14.6612L16.7511 14.6598C16.7514 14.6595 16.7523 14.6585 15.9997 14L16.7523 14.6585C17.1159 14.2429 17.0738 13.6111 16.6582 13.2474C16.2442 12.8852 15.6159 12.9255 15.2515 13.3365C15.2518 13.3362 15.2521 13.3358 15.2515 13.3365L15.2505 13.3377C15.2466 13.3418 15.2375 13.3516 15.2245 13.3648C15.1984 13.3914 15.1546 13.4346 15.0938 13.489C14.9716 13.5983 14.7849 13.7494 14.541 13.9014C14.0519 14.2063 13.3585 14.5 12.4997 14.5C11.6408 14.5 10.9474 14.2063 10.4584 13.9014C10.2145 13.7494 10.0278 13.5983 9.9056 13.489C9.8448 13.4346 9.80092 13.3914 9.77486 13.3648C9.76186 13.3516 9.75339 13.3425 9.74956 13.3384L9.74735 13.3359C9.38298 12.925 8.75511 12.8852 8.34118 13.2474C7.92554 13.6111 7.88397 14.2435 8.24765 14.6591L8.99968 14ZM9.75035 13.3393L9.74956 13.3384C9.74877 13.3375 9.74774 13.3364 9.74735 13.3359M15.2515 13.3365C15.2512 13.3369 15.2512 13.3369 15.2505 13.3377L15.249 13.3393L15.2481 13.3403C15.2494 13.3389 15.2502 13.3379 15.2515 13.3365Z" fill="#344054"/>
</svg>
