<svg width="24" height="24" viewBox="0 0 24 24" fill="none" xmlns="http://www.w3.org/2000/svg">
<path fill-rule="evenodd" clip-rule="evenodd" d="M19.4142 4.58579C18.6331 3.80474 17.3668 3.80474 16.5858 4.58579C15.8047 5.36683 15.8047 6.63317 16.5858 7.41421C17.3668 8.19526 18.6331 8.19526 19.4142 7.41421C20.1952 6.63317 20.1952 5.36683 19.4142 4.58579ZM15.1715 3.17157C16.7336 1.60948 19.2663 1.60948 20.8284 3.17157C22.3905 4.73367 22.3905 7.26633 20.8284 8.82843C19.2663 10.3905 16.7336 10.3905 15.1715 8.82843C13.6095 7.26633 13.6095 4.73367 15.1715 3.17157ZM7.75868 3H11C11.5523 3 12 3.44772 12 4C12 4.55228 11.5523 5 11 5H7.79997C6.94339 5 6.3611 5.00078 5.91101 5.03755C5.4726 5.07337 5.24839 5.1383 5.09199 5.21799C4.71567 5.40973 4.40971 5.71569 4.21796 6.09202C4.13827 6.24842 4.07335 6.47262 4.03753 6.91104C4.00075 7.36113 3.99997 7.94342 3.99997 8.8V14C3.99997 14.9944 4.00856 15.2954 4.06812 15.5176C4.25306 16.2078 4.79215 16.7469 5.48234 16.9319C5.70461 16.9914 6.00562 17 6.99997 17C7.55226 17 7.99997 17.4477 7.99997 18V19.9194L10.0605 18.271C10.0832 18.2528 10.1057 18.2348 10.1278 18.2171C10.5499 17.8791 10.8689 17.6237 11.2325 17.4379C11.5535 17.274 11.8951 17.1541 12.2481 17.0817C12.6481 16.9996 13.0568 16.9998 13.5975 17C13.6259 17 13.6546 17 13.6837 17H15.2C16.0566 17 16.6388 16.9992 17.0889 16.9624C17.5274 16.9266 17.7516 16.8617 17.908 16.782C18.2843 16.5903 18.5902 16.2843 18.782 15.908C18.8617 15.7516 18.9266 15.5274 18.9624 15.089C18.9992 14.6389 19 14.0566 19 13.2V13C19 12.4477 19.4477 12 20 12C20.5523 12 21 12.4477 21 13V13.2413C21 14.0463 21 14.7106 20.9558 15.2518C20.9099 15.8139 20.8113 16.3306 20.564 16.816C20.1805 17.5686 19.5686 18.1805 18.8159 18.564C18.3306 18.8113 17.8139 18.9099 17.2518 18.9558C16.7106 19 16.0463 19 15.2413 19H13.6837C13.0196 19 12.8262 19.0047 12.6502 19.0408C12.4737 19.0771 12.3029 19.137 12.1424 19.219C11.9824 19.3007 11.8285 19.4178 11.3099 19.8327L8.8968 21.7632C8.7131 21.9102 8.52586 22.06 8.36124 22.1689C8.20381 22.273 7.89858 22.4593 7.5016 22.4597C7.04478 22.4602 6.61264 22.2525 6.32766 21.8955C6.08 21.5852 6.0348 21.2305 6.01773 21.0425C5.99988 20.846 5.99992 20.6062 5.99997 20.371L5.99997 18.9918C5.60816 18.9789 5.27216 18.9461 4.9647 18.8637C3.58433 18.4938 2.50614 17.4156 2.13627 16.0353C1.99917 15.5236 1.99949 14.933 1.99993 14.1376C1.99995 14.0924 1.99997 14.0465 1.99997 14L1.99997 8.7587C1.99996 7.95373 1.99995 7.28937 2.04417 6.74817C2.09009 6.18608 2.18866 5.66937 2.43595 5.18404C2.81944 4.43139 3.43136 3.81947 4.18401 3.43597C4.66935 3.18868 5.18605 3.09012 5.74815 3.04419C6.28934 2.99998 6.95371 2.99999 7.75868 3Z" fill="#344054"/>
</svg>
