<svg width="24" height="24" viewBox="0 0 24 24" fill="none" xmlns="http://www.w3.org/2000/svg">
<path fill-rule="evenodd" clip-rule="evenodd" d="M2.99968 11.5C2.99968 6.25329 7.25298 2 12.4997 2C17.7464 2 21.9997 6.25329 21.9997 11.5C21.9997 16.7467 17.7464 21 12.4997 21C11.298 21 10.1463 20.7764 9.08534 20.3677C8.99439 20.3326 8.9417 20.3124 8.90285 20.2984C8.89809 20.2967 8.89398 20.2953 8.89048 20.2941C8.88921 20.2941 8.88785 20.2942 8.8864 20.2944C8.85479 20.2968 8.81163 20.3012 8.72907 20.3097L3.60804 20.8391C3.59678 20.8402 3.58549 20.8414 3.57416 20.8426C3.35998 20.8648 3.13653 20.8879 2.94964 20.8901C2.76389 20.8923 2.42911 20.8818 2.1081 20.6859C1.73182 20.4564 1.47553 20.073 1.40731 19.6376C1.34911 19.2661 1.46739 18.9527 1.54042 18.7819C1.61389 18.61 1.72071 18.4124 1.8231 18.223L3.47496 15.1655C3.54642 15.0332 3.58462 14.962 3.61032 14.909C3.61168 14.9063 3.61292 14.9036 3.61408 14.9012C3.61215 14.8943 3.60981 14.8861 3.60699 14.8766C3.58534 14.8033 3.55203 14.7039 3.49543 14.536C3.17367 13.5814 2.99968 12.56 2.99968 11.5ZM12.4997 4C8.35754 4 4.99968 7.35786 4.99968 11.5C4.99968 12.34 5.13739 13.1458 5.39067 13.8972C5.39871 13.9211 5.40702 13.9455 5.41547 13.9703C5.49662 14.2089 5.59193 14.489 5.61199 14.7425C5.63028 14.9736 5.61361 15.169 5.55644 15.3936C5.49392 15.6393 5.36685 15.8729 5.26379 16.0623C5.2538 16.0807 5.24404 16.0986 5.23458 16.1161L3.77879 18.8108L8.52342 18.3203C8.53419 18.3192 8.54523 18.318 8.55654 18.3169C8.67554 18.3044 8.82302 18.2889 8.96775 18.2944C9.10003 18.2995 9.2115 18.3143 9.34049 18.344C9.48209 18.3767 9.63571 18.4361 9.76527 18.4863C9.77855 18.4914 9.79159 18.4965 9.80434 18.5014C10.6395 18.8231 11.5478 19 12.4997 19C16.6418 19 19.9997 15.6421 19.9997 11.5C19.9997 7.35786 16.6418 4 12.4997 4ZM12.496 7.62384C11.2841 6.80638 9.63796 6.70947 8.32437 7.81798C6.79146 9.11156 6.55912 11.3124 7.78268 12.8674C8.39668 13.6478 9.84878 14.9841 10.7941 15.8316L10.8161 15.8512C10.9748 15.9936 11.135 16.1372 11.2838 16.2501C11.4524 16.3782 11.6579 16.508 11.9202 16.5869C12.2912 16.6986 12.702 16.6986 13.073 16.5869C13.3353 16.508 13.5408 16.3782 13.7094 16.2501C13.8582 16.1372 14.0184 15.9935 14.1771 15.8512L14.1991 15.8316C15.1444 14.9841 16.5965 13.6478 17.2105 12.8674C18.4251 11.3238 18.2346 9.10321 16.6584 7.8093C15.3367 6.72431 13.7058 6.80686 12.496 7.62384ZM11.7407 9.60392C11.1366 8.90646 10.2537 8.80681 9.61422 9.34647C8.89258 9.95545 8.80752 10.9356 9.35446 11.6307C9.83735 12.2444 11.1384 13.4542 12.1291 14.3423C12.3189 14.5124 12.4174 14.5997 12.4929 14.6571C12.4942 14.658 12.4954 14.6589 12.4966 14.6598C12.4978 14.6589 12.499 14.658 12.5003 14.6571C12.5758 14.5997 12.6743 14.5124 12.8641 14.3423C13.8548 13.4542 15.1558 12.2444 15.6387 11.6307C16.1947 10.9242 16.1065 9.94378 15.3894 9.35516C14.7202 8.8058 13.8491 8.91509 13.2525 9.60392C13.0626 9.82324 12.7867 9.94925 12.4966 9.94925C12.2065 9.94925 11.9306 9.82324 11.7407 9.60392Z" fill="#344054"/>
</svg>
