<svg width="24" height="24" viewBox="0 0 24 24" fill="none" xmlns="http://www.w3.org/2000/svg">
<path fill-rule="evenodd" clip-rule="evenodd" d="M2.99968 11.5C2.99968 6.25329 7.25298 2 12.4997 2C17.7464 2 21.9997 6.25329 21.9997 11.5C21.9997 16.7467 17.7464 21 12.4997 21C11.298 21 10.1463 20.7764 9.08534 20.3677C8.99439 20.3326 8.9417 20.3124 8.90285 20.2984C8.89809 20.2967 8.89398 20.2953 8.89048 20.2941C8.88921 20.2941 8.88785 20.2942 8.8864 20.2944C8.85479 20.2968 8.81163 20.3012 8.72907 20.3097L3.60804 20.8391C3.59678 20.8402 3.58549 20.8414 3.57416 20.8426C3.35998 20.8648 3.13653 20.8879 2.94964 20.8901C2.76389 20.8923 2.42911 20.8818 2.1081 20.6859C1.73182 20.4564 1.47553 20.073 1.40731 19.6376C1.34911 19.2661 1.46739 18.9527 1.54042 18.7819C1.61389 18.61 1.72071 18.4124 1.8231 18.223L3.47496 15.1655C3.54642 15.0332 3.58462 14.962 3.61032 14.909C3.61168 14.9063 3.61292 14.9036 3.61408 14.9012C3.61215 14.8943 3.60981 14.8861 3.60699 14.8766C3.58534 14.8033 3.55203 14.7039 3.49543 14.536C3.17367 13.5814 2.99968 12.56 2.99968 11.5ZM12.4997 4C8.35754 4 4.99968 7.35786 4.99968 11.5C4.99968 12.34 5.13739 13.1458 5.39067 13.8972C5.39871 13.9211 5.40702 13.9455 5.41547 13.9703C5.49662 14.2089 5.59193 14.489 5.61199 14.7425C5.63028 14.9736 5.61361 15.169 5.55644 15.3936C5.49392 15.6393 5.36685 15.8729 5.26379 16.0623C5.2538 16.0807 5.24404 16.0986 5.23458 16.1161L3.77879 18.8108L8.52342 18.3203C8.53419 18.3192 8.54523 18.318 8.55654 18.3169C8.67554 18.3044 8.82302 18.2889 8.96775 18.2944C9.10003 18.2995 9.2115 18.3143 9.34049 18.344C9.48209 18.3767 9.63571 18.4361 9.76527 18.4863C9.77855 18.4914 9.79159 18.4965 9.80434 18.5014C10.6395 18.8231 11.5478 19 12.4997 19C16.6418 19 19.9997 15.6421 19.9997 11.5C19.9997 7.35786 16.6418 4 12.4997 4ZM12.8316 8.51797C12.5411 8.46813 12.2423 8.52274 11.9881 8.67211C11.7339 8.82148 11.5408 9.05598 11.443 9.33408C11.2597 9.85507 10.6888 10.1288 10.1678 9.94557C9.64685 9.7623 9.37307 9.19138 9.55635 8.67039C9.81091 7.94674 10.3134 7.33653 10.9747 6.94784C11.6361 6.55915 12.4137 6.41707 13.1698 6.54676C13.9258 6.67645 14.6116 7.06954 15.1056 7.6564C15.5996 8.24313 15.8699 8.98568 15.8689 9.75261C15.8685 11.0324 14.9218 11.8551 14.2995 12.27C13.9578 12.4978 13.6232 12.6643 13.378 12.7733C13.254 12.8284 13.1493 12.8704 13.0732 12.8994C13.0351 12.9139 13.0039 12.9252 12.9809 12.9334L12.9524 12.9434L12.943 12.9466L12.9395 12.9478L12.938 12.9483C12.9377 12.9484 12.9368 12.9487 12.6206 12L12.9368 12.9487C12.4129 13.1233 11.8466 12.8402 11.6719 12.3162C11.4973 11.7925 11.7802 11.2263 12.3038 11.0515L12.3025 11.0519L12.3108 11.049C12.3207 11.0455 12.3379 11.0393 12.3612 11.0304C12.4081 11.0125 12.479 10.9842 12.5658 10.9457C12.7421 10.8673 12.9697 10.7528 13.1901 10.6059C13.6917 10.2714 13.8689 9.97025 13.8689 9.75168L13.8689 9.75019C13.8694 9.45539 13.7655 9.16994 13.5756 8.94441C13.3857 8.71887 13.1222 8.56781 12.8316 8.51797ZM11.6496 15C11.6496 14.4477 12.0973 14 12.6496 14H12.6596C13.2119 14 13.6596 14.4477 13.6596 15C13.6596 15.5523 13.2119 16 12.6596 16H12.6496C12.0973 16 11.6496 15.5523 11.6496 15Z" fill="#344054"/>
</svg>
