<svg width="24" height="24" viewBox="0 0 24 24" fill="none" xmlns="http://www.w3.org/2000/svg">
<path fill-rule="evenodd" clip-rule="evenodd" d="M13.0558 1.88955C13.1168 1.34065 13.6112 0.945101 14.1601 1.00608C16.4148 1.25656 18.5174 2.26627 20.1226 3.86942C21.7277 5.47257 22.7401 7.57387 22.9934 9.8283C23.0551 10.3771 22.6602 10.872 22.1113 10.9337C21.5625 10.9954 21.0676 10.6005 21.0059 10.0516C20.8033 8.24808 19.9934 6.56704 18.7092 5.28453C17.4251 4.00201 15.743 3.19424 13.9392 2.99385C13.3903 2.93287 12.9948 2.43846 13.0558 1.88955ZM5.90502 4.66218C5.62124 4.51865 5.2861 4.51865 5.00232 4.66218C4.8956 4.71616 4.76256 4.83142 4.17554 5.41845L4.0179 5.57608C3.45769 6.1363 3.30668 6.29832 3.18597 6.51321C3.04606 6.76227 2.92884 7.21301 2.92969 7.49869C2.93045 7.75289 2.96798 7.90598 3.13324 8.48823C3.94884 11.3618 5.48744 14.0736 7.75177 16.3379C10.0161 18.6022 12.7279 20.1408 15.6014 20.9564C16.1837 21.1217 16.3368 21.1592 16.591 21.16C16.8767 21.1608 17.3274 21.0436 17.5765 20.9037C17.7914 20.783 17.9534 20.632 18.5136 20.0718L18.6712 19.9141C19.2582 19.3271 19.3735 19.1941 19.4275 19.0874C19.571 18.8036 19.571 18.4684 19.4275 18.1847C19.3735 18.0779 19.2583 17.9449 18.6712 17.3579L18.4764 17.163C18.0907 16.7773 18.0039 16.6983 17.9382 16.6556C17.6067 16.4401 17.1795 16.4401 16.848 16.6556C16.7823 16.6983 16.6955 16.7773 16.3098 17.163C16.3022 17.1706 16.2944 17.1785 16.2864 17.1865C16.1967 17.2765 16.0831 17.3906 15.9466 17.4883L15.3644 16.6752L15.9466 17.4883C15.4596 17.837 14.7976 17.9499 14.2226 17.7822C14.0622 17.7355 13.9302 17.6718 13.8275 17.6223C13.8193 17.6184 13.8114 17.6146 13.8037 17.6109C12.2537 16.8667 10.802 15.8526 9.51953 14.5701C8.23706 13.2877 7.22297 11.836 6.4788 10.286C6.47507 10.2783 6.47124 10.2703 6.46733 10.2622C6.41782 10.1595 6.35419 10.0275 6.30744 9.86713L7.26748 9.58727L6.30744 9.86712C6.13981 9.29209 6.25271 8.63003 6.60141 8.14304L6.60142 8.14304C6.69911 8.0066 6.81314 7.89299 6.9032 7.80325C6.91122 7.79526 6.91906 7.78745 6.92667 7.77984C7.31238 7.39413 7.39136 7.3074 7.43409 7.24167L7.4341 7.24167C7.64959 6.91022 7.64959 6.48293 7.4341 6.15149L8.27247 5.6064L7.4341 6.15149C7.39136 6.08575 7.31238 5.99903 6.92667 5.61332L6.7318 5.41845C6.14478 4.83142 6.01174 4.71616 5.90502 4.66218ZM4.09963 2.87748C4.95097 2.44688 5.95637 2.44688 6.80771 2.87748C7.2403 3.09629 7.61586 3.4728 8.0503 3.90836C8.08188 3.94002 8.11377 3.97199 8.14601 4.00423L8.34088 4.1991C8.36213 4.22035 8.38318 4.24136 8.40402 4.26217C8.69068 4.54835 8.93761 4.79486 9.11085 5.06131L8.31397 5.57941L9.11085 5.06131C9.75734 6.05564 9.75734 7.33751 9.11085 8.33185C8.93761 8.5983 8.69068 8.84481 8.40403 9.13098C8.38318 9.15179 8.36213 9.1728 8.34088 9.19405C8.28328 9.25166 8.25389 9.2812 8.23342 9.30286C8.23304 9.30449 8.23268 9.30629 8.23235 9.30824C8.23198 9.31041 8.23171 9.31241 8.23151 9.31423C8.23481 9.32154 8.23927 9.33121 8.24542 9.34427C8.25503 9.3647 8.26632 9.38823 8.28176 9.42037C8.92958 10.7697 9.81307 12.0352 10.9337 13.1559C12.0544 14.2766 13.32 15.1601 14.6693 15.8079L14.2365 16.7094L14.6693 15.8079C14.7014 15.8234 14.725 15.8346 14.7454 15.8443C14.7585 15.8504 14.7681 15.8549 14.7754 15.8582C14.7773 15.858 14.7793 15.8577 14.7814 15.8573C14.7834 15.857 14.7852 15.8566 14.7868 15.8563C14.8085 15.8358 14.838 15.8064 14.8956 15.7488C14.9169 15.7275 14.9379 15.7065 14.9587 15.6856C15.2449 15.399 15.4914 15.1521 15.7578 14.9788C16.7522 14.3323 18.034 14.3323 19.0284 14.9788C19.2948 15.1521 19.5413 15.399 19.8275 15.6856C19.8483 15.7065 19.8693 15.7275 19.8906 15.7488L20.0854 15.9437C20.1177 15.9759 20.1497 16.0078 20.1813 16.0394C20.6169 16.4738 20.9934 16.8494 21.2122 17.282C21.6428 18.1333 21.6428 19.1387 21.2122 19.99C20.9934 20.4226 20.6169 20.7982 20.1813 21.2326C20.1497 21.2642 20.1177 21.2961 20.0854 21.3284L19.9278 21.486C19.905 21.5088 19.8824 21.5314 19.8601 21.5538C19.3948 22.0195 19.0381 22.3766 18.556 22.6474C18.006 22.9563 17.2158 23.1619 16.585 23.16C16.0332 23.1583 15.6307 23.0439 15.1117 22.8964C15.0931 22.8911 15.0743 22.8858 15.0554 22.8804C11.8621 21.9741 8.84919 20.2638 6.33755 17.7521C3.82592 15.2405 2.11557 12.2275 1.20923 9.03432C1.20386 9.01539 1.19853 8.99662 1.19323 8.978C1.04573 8.459 0.931342 8.05652 0.9297 7.50464C0.927823 6.87387 1.13333 6.08363 1.44226 5.53368L1.44226 5.53368C1.71306 5.05161 2.07021 4.69482 2.53594 4.22957C2.55828 4.20726 2.58086 4.1847 2.60369 4.16187L2.76132 4.00423C2.79357 3.97199 2.82546 3.94002 2.85704 3.90836C3.29148 3.4728 3.66703 3.09629 4.09963 2.87748L4.55098 3.76983L4.09963 2.87748ZM13.0682 5.80847C13.1739 5.26641 13.6991 4.91271 14.2412 5.01847C15.4132 5.24715 16.4904 5.82038 17.3348 6.66479C18.1792 7.50921 18.7525 8.58639 18.9812 9.75847C19.0869 10.3005 18.7332 10.8257 18.1912 10.9315C17.6491 11.0372 17.1239 10.6835 17.0182 10.1415C16.8657 9.36007 16.4836 8.64195 15.9206 8.07901C15.3577 7.51607 14.6396 7.13391 13.8582 6.98146C13.3161 6.8757 12.9624 6.35054 13.0682 5.80847Z" fill="#344054"/>
</svg>
