<svg width="24" height="24" viewBox="0 0 24 24" fill="none" xmlns="http://www.w3.org/2000/svg">
<path d="M16.8738 12.5385C16.8653 10.9817 17.5695 9.80674 18.9947 8.94141C18.1973 7.80035 16.9926 7.17256 15.4018 7.04954C13.896 6.93077 12.2501 7.92761 11.6478 7.92761C11.0115 7.92761 9.55227 7.09196 8.40696 7.09196C6.03998 7.13014 3.52454 8.97958 3.52454 12.7421C3.52454 13.8535 3.72815 15.0016 4.13537 16.1865C4.67833 17.7432 6.63809 21.5609 8.68268 21.4973C9.75164 21.4718 10.5067 20.738 11.898 20.738C13.247 20.738 13.9469 21.4973 15.1389 21.4973C17.2004 21.4676 18.9735 17.9977 19.491 16.4367C16.7253 15.1345 16.8738 12.6191 16.8738 12.5385ZM14.4729 5.57338C15.6309 4.19903 15.5249 2.94768 15.4909 2.49805C14.4686 2.55743 13.2851 3.19371 12.6107 3.97845C11.8683 4.81833 11.4314 5.85759 11.5248 7.02834C12.6319 7.11317 13.6415 6.54476 14.4729 5.57338Z" fill="#344054"/>
</svg>
