<svg width="24" height="24" viewBox="0 0 24 24" fill="none" xmlns="http://www.w3.org/2000/svg">
<path fill-rule="evenodd" clip-rule="evenodd" d="M5.06301 3C5.07693 3 5.0909 3 5.10492 3L18.937 3C19.428 2.99998 19.8584 2.99996 20.196 3.03032C20.5201 3.05945 20.9647 3.12784 21.3249 3.42531C21.7724 3.79477 22.0216 4.35206 21.9985 4.93188C21.98 5.39872 21.7345 5.77566 21.5402 6.03655C21.3376 6.30845 21.0507 6.62915 20.7232 6.99504L20.6987 7.02252L16.3296 12.0148C15.9917 12.4009 15.4047 12.44 15.0186 12.1021C14.6325 11.7642 14.5934 11.1772 14.9313 10.7911L19.3105 5.78725C19.6741 5.38079 19.9036 5.12303 20.05 4.92653C20.0608 4.91199 20.0706 4.8985 20.0795 4.88602C20.0643 4.88431 20.0477 4.88262 20.0297 4.881C19.7856 4.85906 19.4405 4.85815 18.8951 4.85815H5.10492C4.55951 4.85815 4.21439 4.85906 3.97035 4.881C3.95229 4.88262 3.9357 4.88431 3.92048 4.88602C3.92935 4.8985 3.93916 4.91199 3.94999 4.92653C4.09637 5.12303 4.32581 5.38083 4.68949 5.78729L9.991 11.7125C10.0005 11.7231 10.0102 11.734 10.0202 11.7451C10.1294 11.8665 10.267 12.0195 10.3691 12.2016C10.4577 12.3596 10.5227 12.5298 10.562 12.7066C10.6074 12.9104 10.6069 13.1161 10.6065 13.2794C10.6064 13.2944 10.6064 13.309 10.6064 13.3232V19.2279L12.4683 18.1728C12.9148 17.9198 13.4817 18.0767 13.7347 18.5231C13.9877 18.9695 13.8309 19.5365 13.3844 19.7894L11.1547 21.053C11.1183 21.0736 11.0805 21.0918 11.0417 21.1073L11.0158 21.1176C10.8682 21.1767 10.7049 21.2421 10.561 21.285C10.4061 21.3313 10.1517 21.3917 9.85832 21.3307C9.49875 21.256 9.1832 21.0424 8.98028 20.7363C8.8147 20.4865 8.77632 20.2278 8.76172 20.0669C8.74814 19.9173 8.74819 19.7415 8.74824 19.5825L8.74824 13.3232C8.74824 13.2106 8.74805 13.1547 8.74632 13.114L8.74618 13.111L8.74427 13.1087C8.71845 13.0772 8.68128 13.0354 8.60623 12.9515L3.30472 7.02629C3.29537 7.01585 3.28606 7.00543 3.27677 6.99506C2.94936 6.62917 2.66238 6.30846 2.45984 6.03655C2.2655 5.77566 2.02001 5.39872 2.00147 4.93188C1.97844 4.35206 2.22761 3.79477 2.67507 3.42531C3.03534 3.12784 3.47995 3.05945 3.80396 3.03032C4.14165 2.99996 4.57201 2.99998 5.06301 3ZM17.5747 12.4776C18.0878 12.4776 18.5037 12.8936 18.5037 13.4067V15.2648H20.3619C20.875 15.2648 21.291 15.6808 21.291 16.1939C21.291 16.707 20.875 17.123 20.3619 17.123H18.5037V18.9811C18.5037 19.4942 18.0878 19.9102 17.5747 19.9102C17.0616 19.9102 16.6456 19.4942 16.6456 18.9811V17.123H14.7875C14.2743 17.123 13.8584 16.707 13.8584 16.1939C13.8584 15.6808 14.2743 15.2648 14.7875 15.2648H16.6456V13.4067C16.6456 12.8936 17.0616 12.4776 17.5747 12.4776Z" fill="#344054"/>
</svg>
