<svg width="24" height="24" viewBox="0 0 24 24" fill="none" xmlns="http://www.w3.org/2000/svg">
<path d="M11.3646 5.06682C11.716 4.71536 12.2868 4.71536 12.6382 5.06682L15.3374 7.76601C15.6888 8.11746 15.6888 8.68823 15.3374 9.03969L12.6382 11.7389C12.2868 12.0903 11.716 12.0903 11.3646 11.7389L8.66541 9.03969C8.31396 8.68823 8.31396 8.11746 8.66541 7.76601L11.3646 5.06682ZM5.02717 6.60198C6.1462 6.60198 7.05154 7.50733 7.05154 8.62637V12.2478C7.39175 11.9526 7.8388 11.7754 8.32521 11.7754C8.84255 11.7754 9.33739 11.9807 9.7029 12.3462L11.4292 14.0726C11.6457 14.2891 11.8369 14.528 12.0028 14.7839C12.1659 14.528 12.3571 14.2919 12.5764 14.0726L14.3027 12.3462C14.6682 11.9807 15.1631 11.7754 15.6804 11.7754C16.1668 11.7754 16.6111 11.9526 16.9541 12.2478V8.62637C16.9541 7.50733 17.8594 6.60198 18.9784 6.60198C20.0975 6.60198 21.0028 7.50733 21.0028 8.62637V14.7052C21.0028 15.5993 20.6485 16.4568 20.0159 17.0923L18.1012 19.0014C17.8369 19.2657 17.4096 19.2657 17.1481 19.0014C16.8866 18.7371 16.8838 18.3097 17.1481 18.0482L19.0572 16.1391C19.4367 15.7595 19.6504 15.245 19.6504 14.708V8.62637C19.6504 8.25242 19.3496 7.95158 18.9756 7.95158C18.6017 7.95158 18.3008 8.25242 18.3008 8.62637V12.7286C18.3008 13.4484 18.0141 14.14 17.5051 14.6518L17.0581 15.0988L16.3018 15.8523L15.8519 16.3022C15.5876 16.5665 15.1603 16.5665 14.8988 16.3022C14.6373 16.0379 14.6345 15.6105 14.8988 15.349L15.3486 14.8992L16.0993 14.1485C16.2118 14.036 16.2737 13.8842 16.2737 13.7267C16.2737 13.3978 16.0066 13.1278 15.6748 13.1278C15.5173 13.1278 15.3655 13.1897 15.253 13.3022L13.5267 15.0285C12.9813 15.5712 12.6748 16.3134 12.6748 17.0838V18.5234C12.6748 18.8974 12.3739 19.1982 12 19.1982C11.626 19.1982 11.3252 18.8974 11.3252 18.5234V17.0838C11.3252 16.3134 11.0187 15.5712 10.4733 15.0257L8.74695 13.2993C8.63449 13.1869 8.48266 13.125 8.32521 13.125C7.99625 13.125 7.72633 13.3921 7.72633 13.7239C7.72633 13.8814 7.78819 14.0332 7.90065 14.1457L8.65417 14.8964L9.10403 15.3462C9.36832 15.6105 9.36832 16.0379 9.10403 16.2994C8.83973 16.5609 8.41237 16.5637 8.15089 16.2994L7.70103 15.8495L6.95032 15.0988L6.50328 14.6518C5.98875 14.14 5.70196 13.4484 5.70196 12.7286V8.62637C5.70196 8.25242 5.40112 7.95158 5.02717 7.95158C4.65323 7.95158 4.35239 8.25242 4.35239 8.62637V14.7052C4.35239 15.2422 4.56607 15.7567 4.94564 16.1363L6.85473 18.0454C7.11902 18.3097 7.11902 18.7371 6.85473 18.9986C6.59044 19.2601 6.16307 19.2629 5.90159 18.9986L3.98969 17.0923C3.35707 16.4597 3.00281 15.6021 3.00281 14.7052V8.62637C3.00281 7.50733 3.90815 6.60198 5.02717 6.60198Z" fill="#344054"/>
</svg>
