<svg width="24" height="24" viewBox="0 0 24 24" fill="none" xmlns="http://www.w3.org/2000/svg">
<path fill-rule="evenodd" clip-rule="evenodd" d="M22.3111 21.1391C22.6267 21.4074 23.1 21.369 23.3683 21.0534C23.6365 20.7378 23.5981 20.2645 23.2825 19.9962L2.68193 2.48569C2.36632 2.21742 1.893 2.2558 1.62474 2.57141C1.35647 2.88701 1.39485 3.36033 1.71046 3.6286L2.51269 4.3105C2.44471 4.41133 2.38265 4.51658 2.32701 4.62578C2.13422 5.00416 2.0629 5.39738 2.0306 5.79272C2 6.16729 2.00001 6.62206 2.00003 7.14921V15.2553C1.40223 15.6011 1.00003 16.2475 1.00003 16.9877V17.3211L0.999954 17.4329C0.999417 17.9406 0.998953 18.3787 1.10226 18.7642C1.37966 19.7995 2.1883 20.6081 3.22358 20.8855C3.6091 20.9888 4.04714 20.9884 4.55486 20.9878L4.6667 20.9877H19.3334L19.4452 20.9878C19.9529 20.9884 20.391 20.9888 20.7765 20.8855C21.0694 20.807 21.3441 20.6861 21.5938 20.5294L22.3111 21.1391ZM19.7777 18.9857L17.4271 16.9877H15.6628C15.5318 16.9877 15.4664 16.988 15.4189 16.9902L15.4153 16.9903L15.4127 16.9927C15.3775 17.0248 15.3311 17.0709 15.2385 17.1635L15.1758 17.2262L15.1397 17.2624C15.0058 17.397 14.8372 17.5666 14.6308 17.693C14.4519 17.8027 14.2568 17.8835 14.0527 17.9325C13.8174 17.989 13.5783 17.9883 13.3883 17.9878H13.3883L13.3373 17.9877H10.6628L10.6117 17.9878H10.6117C10.4218 17.9883 10.1827 17.989 9.94736 17.9325C9.74328 17.8835 9.54819 17.8027 9.36925 17.693C9.1629 17.5666 8.99427 17.397 8.86034 17.2624L8.86032 17.2624L8.8243 17.2262L8.76156 17.1635C8.66892 17.0709 8.62252 17.0248 8.58741 16.9927L8.58475 16.9903L8.58117 16.9902C8.53367 16.988 8.46829 16.9877 8.33729 16.9877H3.00003V17.3211C3.00003 18.0054 3.00862 18.1515 3.03411 18.2466C3.12657 18.5917 3.39612 18.8612 3.74121 18.9537C3.83633 18.9792 3.98234 18.9877 4.6667 18.9877H19.3334C19.5171 18.9877 19.6621 18.9871 19.7777 18.9857ZM15.1041 15.0132L4.07177 5.63571C4.05425 5.70165 4.0366 5.80091 4.02396 5.95558C4.00081 6.23892 4.00003 6.6112 4.00003 7.18775V14.9877H8.33729L8.38833 14.9877H8.38834C8.57825 14.9872 8.81738 14.9865 9.05271 15.043C9.25678 15.092 9.45187 15.1728 9.63082 15.2825C9.83716 15.4089 10.0058 15.5785 10.1397 15.7131L10.1397 15.7131L10.1758 15.7493L10.2385 15.812C10.3311 15.9046 10.3775 15.9507 10.4127 15.9828L10.4153 15.9852L10.4189 15.9853C10.4664 15.9875 10.5318 15.9877 10.6628 15.9877H13.3373C13.4683 15.9877 13.5337 15.9875 13.5812 15.9853L13.5848 15.9852L13.5874 15.9828C13.6225 15.9507 13.6689 15.9046 13.7616 15.812L13.8243 15.7493L13.8603 15.7131C13.9942 15.5785 14.1629 15.4089 14.3692 15.2825C14.5482 15.1728 14.7433 15.092 14.9474 15.043C14.9996 15.0305 15.0521 15.0207 15.1041 15.0132ZM6.16145 2.98775C5.79017 2.98773 5.4548 2.98772 5.15806 2.99841L7.49846 4.98775H17.8C18.3766 4.98775 18.7489 4.98853 19.0322 5.01168C19.3039 5.03387 19.4046 5.07155 19.454 5.09674C19.6422 5.19262 19.7952 5.34559 19.891 5.53376C19.9162 5.5832 19.9539 5.68392 19.9761 5.95558C19.9993 6.23892 20 6.6112 20 7.18775V14.9877H19.2632L22.9874 18.1533C23.0006 17.9296 23.0004 17.6902 23.0001 17.4329L23 17.3211L23.0002 17.2535V17.2535C23.0009 17.0187 23.0018 16.7309 22.9319 16.4701C22.7928 15.951 22.4534 15.5174 22 15.2556V7.14918C22.0001 6.62204 22.0001 6.16729 21.9695 5.79272C21.9372 5.39738 21.8658 5.00416 21.6731 4.62578C21.3854 4.06129 20.9265 3.60235 20.362 3.31473C19.9836 3.12194 19.5904 3.05062 19.1951 3.01832C18.8205 2.98772 18.3657 2.98773 17.8386 2.98775H17.8386H6.16149H6.16145Z" fill="#344054"/>
</svg>
