<svg width="24" height="24" viewBox="0 0 24 24" fill="none" xmlns="http://www.w3.org/2000/svg">
<path fill-rule="evenodd" clip-rule="evenodd" d="M3.11123 2C2.00013 2 1.44458 2.55556 1.44458 3.66667V5.88889C1.44458 7 2.00013 7.55556 3.11123 7.55556H16.4445C17.5556 7.55556 18.1111 7 18.1111 5.88889V3.66667C18.1111 2.55556 17.5556 2 16.4445 2H3.11123ZM15.8889 3.66667H5.33344V5.88889H15.8889C16.1957 5.88889 16.4445 5.64016 16.4445 5.33333V4.22222C16.4445 3.9154 16.1957 3.66667 15.8889 3.66667Z" fill="#344054"/>
<path fill-rule="evenodd" clip-rule="evenodd" d="M7.55564 9.22222C6.44454 9.22222 5.88899 9.77778 5.88899 10.8889V13.1111C5.88899 14.2222 6.44454 14.7778 7.55564 14.7778H20.8889C22 14.7778 22.5555 14.2222 22.5555 13.1111V10.8889C22.5555 9.77778 22 9.22222 20.8889 9.22222H7.55564ZM20.3333 10.8889H9.77784V13.1111H20.3333C20.6401 13.1111 20.8889 12.8624 20.8889 12.5556V11.4444C20.8889 11.1376 20.6401 10.8889 20.3333 10.8889Z" fill="#344054"/>
<path fill-rule="evenodd" clip-rule="evenodd" d="M1.44458 18.1111C1.44458 17 2.00013 16.4444 3.11123 16.4444H16.4445C17.5556 16.4444 18.1111 17 18.1111 18.1111V20.3333C18.1111 21.4444 17.5556 22 16.4445 22H3.11123C2.00013 22 1.44458 21.4444 1.44458 20.3333V18.1111ZM5.33344 18.1111H15.8889C16.1957 18.1111 16.4445 18.3598 16.4445 18.6667V19.7778C16.4445 20.0846 16.1957 20.3333 15.8889 20.3333H5.33344V18.1111Z" fill="#344054"/>
</svg>
