<svg width="24" height="24" viewBox="0 0 24 24" fill="none" xmlns="http://www.w3.org/2000/svg">
<path d="M15.75 10.3125H20.25C20.5981 10.3125 20.9319 10.1742 21.1781 9.92808C21.4242 9.68194 21.5625 9.3481 21.5625 9V4.5C21.5625 4.1519 21.4242 3.81806 21.1781 3.57192C20.9319 3.32578 20.5981 3.1875 20.25 3.1875H15.75C15.4019 3.1875 15.0681 3.32578 14.8219 3.57192C14.5758 3.81806 14.4375 4.1519 14.4375 4.5V6.1875H13.5C12.7541 6.1875 12.0387 6.48382 11.5113 7.01126C10.9838 7.53871 10.6875 8.25408 10.6875 9V11.4375H7.3125V10.5C7.3125 10.1519 7.17422 9.81806 6.92808 9.57192C6.68194 9.32578 6.3481 9.1875 6 9.1875H3C2.6519 9.1875 2.31806 9.32578 2.07192 9.57192C1.82578 9.81806 1.6875 10.1519 1.6875 10.5V13.5C1.6875 13.8481 1.82578 14.1819 2.07192 14.4281C2.31806 14.6742 2.6519 14.8125 3 14.8125H6C6.3481 14.8125 6.68194 14.6742 6.92808 14.4281C7.17422 14.1819 7.3125 13.8481 7.3125 13.5V12.5625H10.6875V15C10.6875 15.7459 10.9838 16.4613 11.5113 16.9887C12.0387 17.5162 12.7541 17.8125 13.5 17.8125H14.4375V19.5C14.4375 19.8481 14.5758 20.1819 14.8219 20.4281C15.0681 20.6742 15.4019 20.8125 15.75 20.8125H20.25C20.5981 20.8125 20.9319 20.6742 21.1781 20.4281C21.4242 20.1819 21.5625 19.8481 21.5625 19.5V15C21.5625 14.6519 21.4242 14.3181 21.1781 14.0719C20.9319 13.8258 20.5981 13.6875 20.25 13.6875H15.75C15.4019 13.6875 15.0681 13.8258 14.8219 14.0719C14.5758 14.3181 14.4375 14.6519 14.4375 15V16.6875H13.5C13.0524 16.6875 12.6232 16.5097 12.3068 16.1932C11.9903 15.8768 11.8125 15.4476 11.8125 15V9C11.8125 8.55245 11.9903 8.12323 12.3068 7.80676C12.6232 7.49029 13.0524 7.3125 13.5 7.3125H14.4375V9C14.4375 9.3481 14.5758 9.68194 14.8219 9.92808C15.0681 10.1742 15.4019 10.3125 15.75 10.3125ZM6.1875 13.5C6.1875 13.5497 6.16775 13.5974 6.13258 13.6326C6.09742 13.6677 6.04973 13.6875 6 13.6875H3C2.95027 13.6875 2.90258 13.6677 2.86742 13.6326C2.83225 13.5974 2.8125 13.5497 2.8125 13.5V10.5C2.8125 10.4503 2.83225 10.4026 2.86742 10.3674C2.90258 10.3323 2.95027 10.3125 3 10.3125H6C6.04973 10.3125 6.09742 10.3323 6.13258 10.3674C6.16775 10.4026 6.1875 10.4503 6.1875 10.5V13.5ZM15.5625 15C15.5625 14.9503 15.5823 14.9026 15.6174 14.8674C15.6526 14.8323 15.7003 14.8125 15.75 14.8125H20.25C20.2997 14.8125 20.3474 14.8323 20.3826 14.8674C20.4177 14.9026 20.4375 14.9503 20.4375 15V19.5C20.4375 19.5497 20.4177 19.5974 20.3826 19.6326C20.3474 19.6677 20.2997 19.6875 20.25 19.6875H15.75C15.7003 19.6875 15.6526 19.6677 15.6174 19.6326C15.5823 19.5974 15.5625 19.5497 15.5625 19.5V15ZM15.5625 4.5C15.5625 4.45027 15.5823 4.40258 15.6174 4.36742C15.6526 4.33225 15.7003 4.3125 15.75 4.3125H20.25C20.2997 4.3125 20.3474 4.33225 20.3826 4.36742C20.4177 4.40258 20.4375 4.45027 20.4375 4.5V9C20.4375 9.04973 20.4177 9.09742 20.3826 9.13258C20.3474 9.16775 20.2997 9.1875 20.25 9.1875H15.75C15.7003 9.1875 15.6526 9.16775 15.6174 9.13258C15.5823 9.09742 15.5625 9.04973 15.5625 9V4.5Z" fill="#344054"/>
</svg>
