<svg width="24" height="24" viewBox="0 0 24 24" fill="none" xmlns="http://www.w3.org/2000/svg">
<path d="M17.2412 2H6.75864C5.95368 1.99999 5.28931 1.99998 4.74812 2.04419C4.18602 2.09012 3.66932 2.18868 3.18398 2.43597C2.43133 2.81947 1.81941 3.43139 1.43592 4.18404C1.18863 4.66937 1.09006 5.18608 1.04414 5.74818C1.02641 5.96509 1.01525 6.18248 1.00834 6.40011C0.991116 6.9422 0.982504 7.21325 1.0889 7.43407C1.18057 7.62432 1.34008 7.78898 1.52732 7.88664C1.74466 8 2.02975 8 2.59994 8H21.3999C21.9701 8 22.2552 8 22.4726 7.88664C22.6598 7.78898 22.8193 7.62432 22.911 7.43407C23.0174 7.21325 23.0088 6.9422 22.9915 6.40011C22.9846 6.18248 22.9735 5.96509 22.9557 5.74818C22.9098 5.18608 22.8113 4.66938 22.564 4.18404C22.1805 3.43139 21.5686 2.81947 20.8159 2.43598C20.3306 2.18869 19.8139 2.09012 19.2518 2.0442C18.7106 1.99998 18.0462 1.99999 17.2412 2Z" fill="#344054"/>
<path d="M22.9999 11.6C22.9999 11.0399 22.9999 10.7599 22.8909 10.546C22.7951 10.3578 22.6421 10.2049 22.4539 10.109C22.24 10 21.96 10 21.3999 10H2.59994C2.03989 10 1.75986 10 1.54595 10.109C1.35779 10.2049 1.20481 10.3578 1.10894 10.546C0.999942 10.7599 0.999942 11.0399 0.999942 11.6V16.2413C0.999929 17.0463 0.999919 17.7106 1.04414 18.2518C1.09006 18.8139 1.18863 19.3306 1.43592 19.816C1.81941 20.5686 2.43133 21.1805 3.18398 21.564C3.66932 21.8113 4.18602 21.9099 4.74812 21.9558C5.28933 22 5.95371 22 6.75871 22L17.2412 22C18.0462 22 18.7106 22 19.2518 21.9558C19.8139 21.9099 20.3306 21.8113 20.8159 21.564C21.5686 21.1805 22.1805 20.5686 22.564 19.816C22.8113 19.3306 22.9098 18.8139 22.9557 18.2518C23 17.7106 23 17.0463 22.9999 16.2413V11.6Z" fill="#344054"/>
</svg>
