<svg width="24" height="24" viewBox="0 0 24 24" fill="none" xmlns="http://www.w3.org/2000/svg">
<path fill-rule="evenodd" clip-rule="evenodd" d="M12.4571 1.24555C12.1565 1.17499 11.8436 1.17499 11.543 1.24555C11.195 1.32725 10.8913 1.52631 10.6497 1.68477L2.12716 7.22446C1.92139 7.35722 1.66253 7.52423 1.46537 7.76018C1.29477 7.96433 1.16661 8.20048 1.08841 8.45479C0.998041 8.74868 0.999088 9.05674 0.999921 9.30162V14.6983C0.999088 14.9431 0.998041 15.2512 1.08841 15.5451C1.16661 15.7994 1.29477 16.0355 1.46537 16.2397C1.66253 16.4756 1.92139 16.6427 2.12716 16.7754L10.6497 22.3151C10.8913 22.4736 11.195 22.6726 11.543 22.7543C11.8436 22.8249 12.1565 22.8249 12.4571 22.7543C12.8052 22.6726 13.1088 22.4736 13.3505 22.3151L21.873 16.7754C22.0788 16.6427 22.3376 16.4756 22.5348 16.2397C22.7054 16.0355 22.8335 15.7994 22.9117 15.5451C23.0021 15.2512 23.0011 14.9431 23.0002 14.6983V9.30162C23.0011 9.05674 23.0021 8.74868 22.9117 8.45479C22.8335 8.20048 22.7054 7.96433 22.5348 7.76018C22.3376 7.52423 22.0787 7.35722 21.873 7.22446L13.3505 1.68477C13.1088 1.52631 12.8052 1.32725 12.4571 1.24555ZM3.00007 10.3428L3.00429 14.955L11.0001 20.1572V15.5328L3.00007 10.3428ZM13.0001 20.1573L20.9962 14.9498L21.0001 10.3427L13.0001 15.5328V20.1573Z" fill="#344054"/>
</svg>
