<svg width="24" height="24" viewBox="0 0 24 24" fill="none" xmlns="http://www.w3.org/2000/svg">
<path d="M17.2414 2H6.75877C5.95381 1.99999 5.28943 1.99998 4.74824 2.0442C4.18614 2.09012 3.66944 2.18868 3.1841 2.43598C2.43145 2.81947 1.81953 3.43139 1.43604 4.18404C1.18875 4.66937 1.09018 5.18608 1.04426 5.74818C1.02654 5.96509 1.01537 6.18248 1.00846 6.40011C0.991238 6.9422 0.982626 7.21325 1.08903 7.43407C1.18069 7.62432 1.34021 7.78898 1.52745 7.88664C1.74478 8 2.02988 8 2.60006 8H21.4001C21.9703 8 22.2553 8 22.4727 7.88664C22.6599 7.78898 22.8194 7.62432 22.9111 7.43407C23.0175 7.21325 23.0089 6.9422 22.9917 6.40012C22.9848 6.18249 22.9736 5.96509 22.9559 5.74818C22.9099 5.18608 22.8114 4.66938 22.5641 4.18404C22.1806 3.43139 21.5687 2.81947 20.816 2.43598C20.3307 2.18869 19.814 2.09012 19.2519 2.0442C18.7107 1.99998 18.0463 1.99999 17.2414 2Z" fill="#344054"/>
<path fill-rule="evenodd" clip-rule="evenodd" d="M23.0001 11.6C23.0001 11.0399 23.0001 10.7599 22.8911 10.546C22.7952 10.3578 22.6422 10.2049 22.4541 10.109C22.2401 10 21.9601 10 21.4001 10H2.60006C2.04001 10 1.75999 10 1.54607 10.109C1.35791 10.2049 1.20493 10.3578 1.10906 10.546C1.00006 10.7599 1.00006 11.0399 1.00006 11.6V16.2413C1.00005 17.0463 1.00004 17.7106 1.04426 18.2518C1.09018 18.8139 1.18875 19.3306 1.43604 19.816C1.81953 20.5686 2.43145 21.1805 3.1841 21.564C3.66944 21.8113 4.18614 21.9099 4.74824 21.9558C5.28945 22 5.95383 22 6.75883 22L17.2413 22C18.0463 22 18.7107 22 19.2519 21.9558C19.814 21.9099 20.3307 21.8113 20.816 21.564C21.5687 21.1805 22.1806 20.5686 22.5641 19.816C22.8114 19.3306 22.9099 18.8139 22.9559 18.2518C23.0001 17.7106 23.0001 17.0463 23.0001 16.2413V11.6ZM13.293 12.2929C13.6835 11.9024 14.3166 11.9024 14.7072 12.2929L17.2072 14.7929C17.5977 15.1834 17.5977 15.8166 17.2072 16.2071L14.7072 18.7071C14.3166 19.0976 13.6835 19.0976 13.293 18.7071C12.9024 18.3166 12.9024 17.6834 13.293 17.2929L15.0858 15.5L13.293 13.7071C12.9024 13.3166 12.9024 12.6834 13.293 12.2929ZM10.7072 13.7071C11.0977 13.3166 11.0977 12.6834 10.7072 12.2929C10.3166 11.9024 9.68348 11.9024 9.29295 12.2929L6.79295 14.7929C6.40243 15.1834 6.40243 15.8166 6.79295 16.2071L9.29295 18.7071C9.68348 19.0976 10.3166 19.0976 10.7072 18.7071C11.0977 18.3166 11.0977 17.6834 10.7072 17.2929L8.91427 15.5L10.7072 13.7071Z" fill="#344054"/>
</svg>
