<svg width="24" height="24" viewBox="0 0 24 24" fill="none" xmlns="http://www.w3.org/2000/svg">
<path fill-rule="evenodd" clip-rule="evenodd" d="M8.16137 2.9999C8.20931 2.99997 8.25766 3.00004 8.30643 3.00004H15.6936C15.7423 3.00004 15.7907 2.99997 15.8386 2.9999C16.5221 2.99888 17.122 2.99798 17.6565 3.2082C18.1239 3.39202 18.5376 3.69024 18.8598 4.07551C19.2283 4.51612 19.4171 5.0855 19.6323 5.73422C19.6474 5.77973 19.6626 5.82562 19.678 5.87188L20.5841 8.58997L21.5528 8.10561C22.0468 7.85862 22.6474 8.05885 22.8944 8.55283C23.1414 9.0468 22.9412 9.64748 22.4472 9.89447L21.8498 10.1932C22.1355 10.4832 22.3769 10.8169 22.564 11.1841C22.8113 11.6694 22.9099 12.1861 22.9558 12.7482C23 13.2894 23 13.9538 23 14.7587V17.5C23 17.5283 23 17.5562 23.0001 17.5839C23.0004 17.9646 23.0006 18.2925 22.9424 18.5853C22.7056 19.7754 21.7753 20.7057 20.5853 20.9424C20.2924 21.0006 19.9646 21.0004 19.5839 21.0001C19.5562 21.0001 19.5282 21 19.5 21H19C17.5135 21 16.2795 19.9189 16.0415 18.5H7.95853C7.72049 19.9189 6.4865 21 5.00001 21H4.50001C4.47176 21 4.44381 21.0001 4.41613 21.0001C4.03543 21.0004 3.70759 21.0006 3.41473 20.9424C2.22466 20.7057 1.29437 19.7754 1.05765 18.5853C0.999397 18.2925 0.999658 17.9646 0.999961 17.5839C0.999983 17.5562 1.00001 17.5283 1.00001 17.5L1 14.7587C0.999992 13.9538 0.999982 13.2894 1.0442 12.7482C1.09012 12.1861 1.18869 11.6694 1.43598 11.1841C1.62307 10.8169 1.86454 10.4832 2.15019 10.1932L1.55279 9.89447C1.05881 9.64748 0.858589 9.0468 1.10558 8.55283C1.35257 8.05885 1.95324 7.85862 2.44722 8.10561L3.41594 8.58997L4.32197 5.87188C4.33739 5.82562 4.35261 5.77972 4.3677 5.73422C4.58287 5.0855 4.77171 4.51612 5.14018 4.07551C5.46237 3.69024 5.87612 3.39202 6.3435 3.2082C6.87802 2.99798 7.4779 2.99888 8.16137 2.9999ZM5.3836 9.01155C5.78761 9.00002 6.24447 9.00003 6.75871 9.00004H17.2413C17.7555 9.00003 18.2124 9.00002 18.6164 9.01155L17.7807 6.50434C17.4914 5.63657 17.4178 5.46874 17.3256 5.35853C17.2182 5.23011 17.0803 5.1307 16.9245 5.06943C16.7908 5.01685 16.6083 5.00004 15.6936 5.00004H8.30643C7.39173 5.00004 7.20921 5.01685 7.07552 5.06943C6.91972 5.1307 6.7818 5.23011 6.67441 5.35853C6.58225 5.46874 6.50859 5.63658 6.21933 6.50434L5.3836 9.01155ZM4.91104 11.0376C4.47263 11.0734 4.24842 11.1383 4.09202 11.218C3.7157 11.4098 3.40974 11.7157 3.21799 12.0921C3.1383 12.2485 3.07338 12.4727 3.03756 12.9111C3.00078 13.3612 3.00001 13.9435 3.00001 14.8V17.5C3.00001 18.0126 3.00485 18.1229 3.01922 18.1951C3.09813 18.5918 3.40822 18.9019 3.80491 18.9808C3.87716 18.9952 3.98742 19 4.50001 19H5.00001C5.55229 19 6.00001 18.5523 6.00001 18C6.00001 17.1716 6.67158 16.5 7.50001 16.5H16.5C17.3284 16.5 18 17.1716 18 18C18 18.5523 18.4477 19 19 19H19.5C20.0126 19 20.1228 18.9952 20.1951 18.9808C20.5918 18.9019 20.9019 18.5918 20.9808 18.1951C20.9952 18.1229 21 18.0126 21 17.5V14.8C21 13.9435 20.9992 13.3612 20.9625 12.9111C20.9266 12.4727 20.8617 12.2485 20.782 12.0921C20.5903 11.7157 20.2843 11.4098 19.908 11.218C19.7516 11.1383 19.5274 11.0734 19.089 11.0376C18.6389 11.0008 18.0566 11 17.2 11H6.80001C5.94343 11 5.36113 11.0008 4.91104 11.0376ZM4.00001 13C4.00001 12.4478 4.44772 12 5.00001 12H8.00001C8.55229 12 9.00001 12.4478 9.00001 13C9.00001 13.5523 8.55229 14 8.00001 14H5.00001C4.44772 14 4.00001 13.5523 4.00001 13ZM15 13C15 12.4478 15.4477 12 16 12H19C19.5523 12 20 12.4478 20 13C20 13.5523 19.5523 14 19 14H16C15.4477 14 15 13.5523 15 13Z" fill="#344054"/>
</svg>
