<svg width="24" height="24" viewBox="0 0 24 24" fill="none" xmlns="http://www.w3.org/2000/svg">
<path fill-rule="evenodd" clip-rule="evenodd" d="M4.60576 1.5C4.61826 1.5 4.6308 1.5 4.64336 1.5L12.435 1.5C12.7025 1.49997 12.9598 1.49995 13.1772 1.51771C13.4151 1.53714 13.6917 1.58272 13.969 1.72405C14.3558 1.92112 14.6703 2.23558 14.8674 2.62236C15.0087 2.89972 15.0543 3.17632 15.0737 3.41417C15.0915 3.63156 15.0914 3.88891 15.0914 4.15637L15.0914 5.72223L20.0784 5.72222C20.2851 5.72217 20.5029 5.72212 20.6849 5.73881C20.8726 5.75603 21.1853 5.80113 21.4752 6.00958C21.8239 6.26029 22.051 6.6462 22.1008 7.07277C22.1422 7.42743 22.0298 7.72266 21.9537 7.89511C21.8799 8.06234 21.774 8.25272 21.6736 8.4334L20.2786 10.9444L21.6736 13.4556C21.7741 13.6362 21.8799 13.8266 21.9537 13.9938C22.0298 14.1662 22.1422 14.4615 22.1008 14.8161C22.051 15.2427 21.8239 15.6286 21.4752 15.8793C21.1853 16.0878 20.8726 16.1329 20.6849 16.1501C20.5029 16.1668 20.2851 16.1667 20.0784 16.1667L12.5811 16.1667C12.3137 16.1667 12.0563 16.1667 11.8389 16.149C11.601 16.1295 11.3244 16.084 11.0471 15.9426C10.6603 15.7456 10.3458 15.4311 10.1488 15.0443C10.0074 14.767 9.96187 14.4904 9.94243 14.2525C9.92467 14.0351 9.9247 13.7778 9.92473 13.5103L9.92473 11.9444H5.87217L8.20043 21.2575C8.33438 21.7933 8.00862 22.3362 7.47282 22.4701C6.93703 22.6041 6.39409 22.2783 6.26014 21.7425L2.03476 4.84107C2.03171 4.82888 2.02867 4.81673 2.02564 4.8046C1.94406 4.47844 1.86768 4.17306 1.82685 3.91469C1.78333 3.63933 1.75887 3.30265 1.86829 2.9486C2.01688 2.46783 2.33665 2.05827 2.76702 1.79752C3.08396 1.60549 3.41652 1.54756 3.69422 1.52299C3.95477 1.49994 4.26955 1.49997 4.60576 1.5ZM3.97821 4.36858C3.97774 4.36673 3.97727 4.36488 3.9768 4.36303L3.97504 4.35598C3.88117 3.98052 3.82763 3.76259 3.80233 3.60249C3.79695 3.56842 3.79392 3.5428 3.79223 3.52436C3.81053 3.52153 3.83612 3.51825 3.87047 3.51521C4.03193 3.50093 4.25634 3.5 4.64336 3.5H12.4025C12.7146 3.5 12.8885 3.50078 13.0144 3.51106C13.0408 3.51323 13.0603 3.51553 13.0739 3.51746C13.0759 3.53112 13.0782 3.55059 13.0803 3.57704C13.0906 3.70289 13.0914 3.87681 13.0914 4.18889V9.25556C13.0914 9.56764 13.0906 9.74157 13.0803 9.86742C13.0782 9.89386 13.0759 9.91333 13.0739 9.92699C13.0603 9.92893 13.0408 9.93123 13.0144 9.93339C12.8885 9.94367 12.7146 9.94445 12.4025 9.94445H5.37221L3.97821 4.36858ZM11.9247 11.9444V13.4778C11.9247 13.7899 11.9255 13.9638 11.9358 14.0896C11.938 14.1161 11.9403 14.1356 11.9422 14.1492C11.9558 14.1511 11.9753 14.1535 12.0018 14.1556C12.1276 14.1659 12.3015 14.1667 12.6136 14.1667H19.7808L18.4883 11.8402C18.4834 11.8315 18.4778 11.8215 18.4715 11.8105C18.411 11.7037 18.2913 11.4923 18.2419 11.2522C18.2001 11.0492 18.2001 10.8397 18.2419 10.6367C18.2913 10.3966 18.411 10.1852 18.4715 10.0784C18.4778 10.0674 18.4834 10.0574 18.4883 10.0487L19.7808 7.72223H15.0914L15.0914 9.28808C15.0914 9.55554 15.0915 9.81289 15.0737 10.0303C15.0543 10.2681 15.0087 10.5447 14.8674 10.8221C14.6703 11.2089 14.3558 11.5233 13.969 11.7204C13.6917 11.8617 13.4151 11.9073 13.1772 11.9267C12.9598 11.9445 12.7025 11.9445 12.435 11.9445L11.9247 11.9444Z" fill="#344054"/>
</svg>
