<svg width="24" height="24" viewBox="0 0 24 24" fill="none" xmlns="http://www.w3.org/2000/svg">
<path fill-rule="evenodd" clip-rule="evenodd" d="M14.9595 4.00387C14.9596 2.89922 14.0641 2.00366 12.9595 2.00366H4.99525C3.89068 2.00366 2.99525 2.89909 2.99525 4.00366L2.99525 4.3806C2.99516 4.38613 2.99512 4.39167 2.99512 4.39722V20.9983C2.99512 21.5506 3.44283 21.9983 3.99512 21.9983C4.5474 21.9983 4.99512 21.5506 4.99512 20.9983V11.9981C4.99509 11.9981 4.99515 11.9981 4.99512 11.9981L9.96418 11.9982L9.96418 13.9954C9.96418 15.0999 10.8596 15.9953 11.9641 15.9954L20.1227 15.9956C21.2658 15.9956 21.9889 14.7681 21.4347 13.7684L19.9001 10.9999L21.4359 8.22792C21.9898 7.22815 21.2668 6.00098 20.1238 6.00098H14.9593L14.9595 4.00387ZM14.9591 8.00098L14.9588 9.99846C14.9587 11.103 14.0633 11.9983 12.9588 11.9983L11.9642 11.9982L11.9642 13.9954L19.2739 13.9955L17.9897 11.6787C17.7557 11.2565 17.7556 10.7437 17.9896 10.3215L19.2752 8.00098H14.9591ZM12.9595 4.00366L12.9588 9.99825L4.99525 9.99805L4.99525 4.00366L12.9595 4.00366Z" fill="#344054"/>
</svg>
