<svg width="24" height="24" viewBox="0 0 24 24" fill="none" xmlns="http://www.w3.org/2000/svg">
<path fill-rule="evenodd" clip-rule="evenodd" d="M3.00261 11.7811C3.00087 11.8539 3 11.9268 3 12C3 16.1031 5.74577 19.565 9.50011 20.6483L9.50016 19.6849C9.50018 19.3268 9.62826 18.9806 9.86126 18.7088L10.6205 19.3596L10.6418 19.3778M10.6205 19.3596L9.86126 18.7088L11.9533 16.268L9.62239 14.936C9.38958 14.8029 9.19669 14.6099 9.0638 14.3771L9.93234 13.8814L9.0638 14.377L7.36095 11.3929L3.00261 11.7811M1.06887 10.7622C1.02337 11.1685 1 11.5815 1 12C1 17.5151 5.05872 22.0822 10.3522 22.8774C10.8897 22.9581 11.44 23 12 23C18.0751 23 23 18.0751 23 12C23 10.2514 22.5913 8.59574 21.8635 7.12565C21.9512 6.76545 22 6.39056 22 6C22 3.23858 19.7614 1 17 1C16.2898 1 15.6142 1.14806 15.0024 1.415C14.047 1.14449 13.0396 1 12 1C6.35375 1 1.70109 5.25406 1.07231 10.7319C1.07101 10.7419 1.06986 10.7521 1.06887 10.7622ZM3.28402 9.74814C4.28376 5.86732 7.80703 3 12 3C12.3252 3 12.6461 3.01721 12.962 3.05073C12.3571 3.87753 12 4.89706 12 6C12 7.42161 12.6468 8.63566 13.4577 9.68859C14.1323 10.5645 14.9956 11.4201 15.8288 12.2458C15.985 12.4006 16.1402 12.5544 16.2929 12.7071C16.6834 13.0976 17.3166 13.0976 17.7071 12.7071C17.8598 12.5544 18.015 12.4006 18.1712 12.2458C19.0044 11.4201 19.8677 10.5645 20.5423 9.68859C20.5814 9.63776 20.6202 9.58655 20.6585 9.53497C20.8809 10.3178 21 11.1445 21 12C21 16.9706 16.9706 21 12 21C11.8323 21 11.6656 20.9954 11.5001 20.9864L11.5002 19.8699L13.8656 17.1102C14.4784 16.3952 14.2885 15.2989 13.4709 14.8317L10.7332 13.2672L8.939 10.123C8.6483 9.61358 8.08734 9.32032 7.50311 9.37235L3.28402 9.74814ZM17 3C15.3431 3 14 4.34315 14 6C14 6.78753 14.3532 7.57348 15.0423 8.46827C15.5777 9.16346 16.2502 9.84473 17 10.5899C17.7498 9.84473 18.4223 9.16346 18.9577 8.46827C19.6468 7.57348 20 6.78753 20 6C20 4.34315 18.6569 3 17 3ZM15.75 5.75C15.75 5.05964 16.3096 4.5 17 4.5C17.6904 4.5 18.25 5.05964 18.25 5.75C18.25 6.44036 17.6904 7 17 7C16.3096 7 15.75 6.44036 15.75 5.75Z" fill="#344054"/>
</svg>
