<svg width="24" height="24" viewBox="0 0 24 24" fill="none" xmlns="http://www.w3.org/2000/svg">
<path fill-rule="evenodd" clip-rule="evenodd" d="M8.02173 2.00001C8.0069 1.99967 7.99205 1.99967 7.97717 2.00001L7.7587 2C6.95373 1.99999 6.28937 1.99998 5.74817 2.0442C5.18608 2.09012 4.66937 2.18869 4.18404 2.43598C3.43139 2.81947 2.81947 3.4314 2.43597 4.18404C2.18868 4.66938 2.09012 5.18608 2.04419 5.74818C1.99998 6.28937 1.99999 6.95374 2 7.75871V16.2413C1.99999 16.4897 1.99999 16.7246 2.00129 16.9467C1.99908 16.9874 1.99935 17.0282 2.00215 17.0691C2.0059 17.5158 2.01615 17.9086 2.04419 18.2518C2.09012 18.8139 2.18868 19.3306 2.43597 19.816C2.81947 20.5686 3.43139 21.1805 4.18404 21.564C4.66937 21.8113 5.18608 21.9099 5.74817 21.9558C6.28936 22 6.95372 22 7.75867 22H15.9783C15.9931 22.0003 16.0079 22.0003 16.0228 22H16.2413C17.0463 22 17.7106 22 18.2518 21.9558C18.8139 21.9099 19.3306 21.8113 19.816 21.564C20.5686 21.1805 21.1805 20.5686 21.564 19.816C21.8113 19.3306 21.9099 18.8139 21.9558 18.2518C22 17.7106 22 17.0463 22 16.2413V7.75868C22 6.95372 22 6.28937 21.9558 5.74818C21.9099 5.18608 21.8113 4.66938 21.564 4.18404C21.1805 3.43139 20.5686 2.81947 19.816 2.43598C19.3306 2.18869 18.8139 2.09012 18.2518 2.0442C17.7106 1.99998 17.0463 1.99999 16.2413 2L8.02173 2.00001ZM16.6497 19.9997C17.2683 19.9985 17.7225 19.9924 18.089 19.9625C18.5274 19.9266 18.7516 19.8617 18.908 19.782C19.2843 19.5903 19.5903 19.2843 19.782 18.908C19.8617 18.7516 19.9266 18.5274 19.9624 18.089C19.9992 17.6389 20 17.0566 20 16.2V7.80001C20 6.94343 19.9992 6.36113 19.9624 5.91104C19.9266 5.47263 19.8617 5.24842 19.782 5.09202C19.5903 4.7157 19.2843 4.40974 18.908 4.21799C18.7516 4.1383 18.5274 4.07338 18.089 4.03756C17.6389 4.00078 17.0566 4.00001 16.2 4.00001H9.53876L12.9098 11.5847C12.9129 11.5915 12.9159 11.5983 12.9188 11.6051L16.6497 19.9997ZM14.4612 20L11.5301 13.405L4.01125 17.5822C4.01682 17.7698 4.02513 17.9369 4.03755 18.089C4.07337 18.5274 4.1383 18.7516 4.21799 18.908C4.40973 19.2843 4.71569 19.5903 5.09202 19.782C5.24842 19.8617 5.47262 19.9266 5.91104 19.9625C6.36113 19.9992 6.94342 20 7.8 20H14.4612ZM4 15.3005V7.8C4 6.94343 4.00078 6.36113 4.03755 5.91104C4.07337 5.47263 4.1383 5.24842 4.21799 5.09202C4.40973 4.7157 4.71569 4.40974 5.09202 4.21799C5.24842 4.1383 5.47262 4.07338 5.91104 4.03756C6.27754 4.00761 6.73171 4.00154 7.35026 4.00031L10.7146 11.5701L4 15.3005Z" fill="#344054"/>
</svg>
