<svg width="24" height="24" viewBox="0 0 24 24" fill="none" xmlns="http://www.w3.org/2000/svg">
<path fill-rule="evenodd" clip-rule="evenodd" d="M12 4C10.8954 4 10 4.89543 10 6C10 7.10457 10.8954 8 12 8C13.1046 8 14 7.10457 14 6C14 4.89543 13.1046 4 12 4ZM8 6C8 3.79086 9.79086 2 12 2C14.2091 2 16 3.79086 16 6C16 7.86384 14.7252 9.42994 13 9.87398V17C13 17.5523 12.5523 18 12 18C11.4477 18 11 17.5523 11 17V9.87398C9.27477 9.42994 8 7.86384 8 6ZM8.98121 13.1815C9.08776 13.7234 8.73483 14.2491 8.19292 14.3557C6.51131 14.6863 5.14894 15.2181 4.23474 15.8347C3.29844 16.4662 3 17.0598 3 17.5C3 18.104 3.59225 18.9839 5.3393 19.7701C6.99248 20.514 9.34649 21 12 21C14.6535 21 17.0075 20.514 18.6607 19.7701C20.4077 18.9839 21 18.104 21 17.5C21 17.0598 20.7016 16.4662 19.7653 15.8347C18.8511 15.2181 17.4887 14.6863 15.8071 14.3557C15.2652 14.2491 14.9122 13.7234 15.0188 13.1815C15.1253 12.6396 15.651 12.2867 16.1929 12.3932C18.0431 12.757 19.6807 13.3653 20.8836 14.1766C22.0643 14.9729 23 16.0949 23 17.5C23 19.3813 21.3537 20.7514 19.4814 21.5939C17.5153 22.4787 14.8693 23 12 23C9.13066 23 6.48468 22.4787 4.51857 21.5939C2.64633 20.7514 1 19.3813 1 17.5C1 16.0949 1.93566 14.9729 3.11641 14.1766C4.31925 13.3653 5.95688 12.757 7.80708 12.3932C8.34899 12.2867 8.87467 12.6396 8.98121 13.1815Z" fill="#344054"/>
</svg>
