<svg width="24" height="24" viewBox="0 0 24 24" fill="none" xmlns="http://www.w3.org/2000/svg">
<path fill-rule="evenodd" clip-rule="evenodd" d="M12 3C9.23858 3 7 5.23858 7 8C7 9.6219 7.88113 10.8755 9.15885 12.2063C9.46404 12.5242 9.78104 12.836 10.1079 13.1574L10.1436 13.1925C10.4791 13.5225 10.825 13.8634 11.1551 14.2113C11.4448 14.5165 11.7318 14.8368 12 15.1753C12.2682 14.8368 12.5552 14.5165 12.8449 14.2113C13.175 13.8634 13.5209 13.5225 13.8564 13.1925L13.8921 13.1574C14.219 12.8359 14.536 12.5242 14.8412 12.2063C16.1189 10.8755 17 9.6219 17 8C17 5.23858 14.7614 3 12 3ZM5 8C5 4.13401 8.13401 1 12 1C15.866 1 19 4.13401 19 8C19 10.4418 17.6311 12.1882 16.2838 13.5915C15.9583 13.9306 15.6228 14.2604 15.3014 14.5766L15.2588 14.6184C14.9205 14.9512 14.5985 15.2688 14.2957 15.5879C13.686 16.2305 13.2034 16.8292 12.8944 17.4472C12.725 17.786 12.3788 18 12 18C11.6212 18 11.275 17.786 11.1056 17.4472C10.7966 16.8292 10.314 16.2305 9.70429 15.5879C9.40152 15.2688 9.07947 14.9512 8.74116 14.6184L8.69855 14.5765C8.37712 14.2604 8.04171 13.9305 7.71615 13.5915C6.36887 12.1882 5 10.4418 5 8ZM10 8C10 6.89543 10.8954 6 12 6C13.1046 6 14 6.89543 14 8C14 9.10457 13.1046 10 12 10C10.8954 10 10 9.10457 10 8ZM5.91493 13.8827C6.13784 14.388 5.90892 14.9784 5.40361 15.2013C4.55515 15.5756 3.92948 15.9979 3.52954 16.4174C3.13448 16.8318 3 17.1961 3 17.5C3 18.104 3.59225 18.9839 5.3393 19.7701C6.99248 20.514 9.34649 21 12 21C14.6535 21 17.0075 20.514 18.6607 19.7701C20.4077 18.9839 21 18.104 21 17.5C21 17.1961 20.8655 16.8318 20.4705 16.4174C20.0705 15.9979 19.4448 15.5756 18.5964 15.2013C18.0911 14.9784 17.8622 14.388 18.0851 13.8827C18.308 13.3774 18.8983 13.1485 19.4036 13.3714C20.4065 13.8138 21.2808 14.369 21.9181 15.0374C22.5602 15.7109 23 16.5451 23 17.5C23 19.3813 21.3537 20.7514 19.4814 21.5939C17.5153 22.4787 14.8693 23 12 23C9.13066 23 6.48468 22.4787 4.51857 21.5939C2.64633 20.7514 1 19.3813 1 17.5C1 16.5451 1.43983 15.7109 2.08194 15.0374C2.71916 14.369 3.59349 13.8138 4.59639 13.3714C5.10169 13.1485 5.69202 13.3774 5.91493 13.8827Z" fill="#344054"/>
</svg>
