<svg width="24" height="24" viewBox="0 0 24 24" fill="none" xmlns="http://www.w3.org/2000/svg">
<path fill-rule="evenodd" clip-rule="evenodd" d="M11.3261 1.90254C11.7479 1.69199 12.2442 1.69199 12.666 1.90254C13.0393 2.08891 13.2322 2.41706 13.3241 2.58421C13.4243 2.76638 13.5269 3.0003 13.6297 3.235C13.6346 3.24618 13.6395 3.25736 13.6445 3.26854L20.941 19.9047C21.0561 20.167 21.1675 20.421 21.2389 20.6318C21.3005 20.8139 21.4254 21.2071 21.2916 21.63C21.1442 22.0964 20.7786 22.4616 20.312 22.6085C19.8889 22.7417 19.4959 22.6164 19.3138 22.5545C19.1031 22.483 18.8493 22.3712 18.5871 22.2559L11.996 19.3558L5.40501 22.2558C5.14284 22.3712 4.88894 22.483 4.67821 22.5545C4.49615 22.6164 4.10313 22.7417 3.68005 22.6085C3.2135 22.4616 2.84789 22.0964 2.70041 21.63C2.56668 21.2071 2.6916 20.8139 2.75321 20.6318C2.82452 20.421 2.93597 20.167 3.05105 19.9047L10.3476 3.26854C10.3525 3.25736 10.3574 3.24618 10.3623 3.23501C10.4652 3.00031 10.5678 2.76638 10.6679 2.58421C10.7598 2.41706 10.9528 2.08891 11.3261 1.90254ZM12.1734 19.2786C12.1735 19.2785 12.1735 19.2785 12.1734 19.2786V19.2786ZM11.996 4.48946L5.10403 20.2032L11.2711 17.4897C11.2778 17.4867 11.2856 17.4833 11.2943 17.4794C11.3792 17.4413 11.5547 17.3625 11.7485 17.3301C11.9124 17.3027 12.0797 17.3027 12.2436 17.3301C12.4374 17.3625 12.6129 17.4413 12.6978 17.4794C12.7065 17.4833 12.7142 17.4867 12.721 17.4897L18.888 20.2032L11.996 4.48946Z" fill="#344054"/>
</svg>
