<svg width="24" height="24" viewBox="0 0 24 24" fill="none" xmlns="http://www.w3.org/2000/svg">
<path fill-rule="evenodd" clip-rule="evenodd" d="M20.2391 3.76069L11.7005 7.09279C11.1861 7.29357 10.6062 7.03925 10.4054 6.52476C10.2046 6.01026 10.459 5.43042 10.9735 5.22964L19.9709 1.71844C20.2096 1.62524 20.4475 1.53235 20.6472 1.47436C20.8303 1.42115 21.1988 1.32553 21.5946 1.45775C22.0417 1.60713 22.3926 1.95803 22.542 2.40518C22.6742 2.80095 22.5786 3.16941 22.5254 3.35259C22.4674 3.55223 22.3745 3.79015 22.2813 4.02886L18.7589 13.0549C18.5582 13.5694 17.9783 13.8238 17.4638 13.623C16.9493 13.4222 16.695 12.8424 16.8958 12.3279L20.2391 3.76069ZM2.29241 2.29313C2.68294 1.9026 3.3161 1.9026 3.70663 2.29313L8.25832 6.84482C8.30435 6.88316 8.34717 6.92585 8.38607 6.97257L17.0662 15.6527C17.0841 15.6694 17.1014 15.6867 17.118 15.7045L21.7066 20.2931C22.0972 20.6836 22.0972 21.3168 21.7066 21.7073C21.3161 22.0979 20.6829 22.0979 20.2924 21.7073L16.7606 18.1756L15.6639 20.986C15.5598 21.2528 15.459 21.5112 15.3604 21.7107C15.2751 21.8831 15.0855 22.2494 14.6919 22.4539C14.2578 22.6794 13.741 22.6791 13.3072 22.4531C12.9139 22.2481 12.7246 21.8816 12.6396 21.7091C12.5412 21.5095 12.4407 21.251 12.3369 20.984L9.72699 14.2728L3.01575 11.6628C2.74879 11.5591 2.49024 11.4585 2.29065 11.3602C2.11819 11.2751 1.75163 11.0859 1.54668 10.6925C1.32067 10.2587 1.32036 9.74196 1.54586 9.3079C1.75035 8.91429 2.11669 8.72461 2.28905 8.63938C2.48852 8.54075 2.74695 8.43994 3.01379 8.33585C3.02552 8.33127 3.03727 8.32669 3.04904 8.3221L5.82419 7.23911L2.29241 3.70734C1.90189 3.31681 1.90189 2.68365 2.29241 2.29313ZM7.36844 8.78337L4.25438 9.99861L10.5339 12.4406C10.5407 12.4433 10.5487 12.4463 10.5576 12.4497C10.6446 12.4828 10.8243 12.5512 10.9843 12.6653C11.1196 12.7618 11.2379 12.8801 11.3344 13.0154C11.4485 13.1754 11.5169 13.3552 11.55 13.4421C11.5534 13.4511 11.5564 13.459 11.5591 13.4659L14.0011 19.7454L15.2164 16.6313L7.36844 8.78337ZM9.90698 14.3436C9.90709 14.3436 9.90711 14.3436 9.90698 14.3436V14.3436Z" fill="#344054"/>
</svg>
