<svg width="24" height="24" viewBox="0 0 24 24" fill="none" xmlns="http://www.w3.org/2000/svg">
<path fill-rule="evenodd" clip-rule="evenodd" d="M20.9592 3.03868C19.2917 3.174 17.6676 3.66036 16.1949 4.47031C14.419 5.44705 12.9225 6.86189 11.8478 8.58026L11.8422 8.58924C11.1968 9.59723 10.639 10.6582 10.1747 11.7605L12.2419 13.8277C13.3575 13.3645 14.4322 12.8073 15.4542 12.162C19.6793 9.3238 20.7549 5.61275 20.9592 3.03868ZM15.3413 14.551C14.5826 14.9699 13.8009 15.3464 13 15.6785V18.7053C13.0961 18.6739 13.1949 18.6401 13.2952 18.6037C14.1579 18.2908 14.8771 17.8795 15.1684 17.4446C15.3115 17.2296 15.4176 16.8976 15.4599 16.4428C15.5014 15.9961 15.4751 15.5005 15.4132 15.0203C15.3923 14.858 15.3677 14.7006 15.3413 14.551ZM12 20L12.1786 20.9839C11.8869 21.0369 11.5867 20.9577 11.3591 20.7677C11.1315 20.5777 11 20.2965 11 20V15.4142L8.58578 13H3.99999C3.70352 13 3.42233 12.8685 3.23233 12.6409C3.04234 12.4133 2.96312 12.1131 3.01607 11.8214L3.99999 12C3.01607 11.8214 3.01603 11.8216 3.01607 11.8214L3.01646 11.8193L3.01705 11.816L3.01888 11.8063L3.02508 11.774C3.03036 11.7469 3.03796 11.7091 3.04798 11.6616C3.06798 11.5667 3.09773 11.433 3.138 11.2707C3.21815 10.9475 3.34182 10.5034 3.51617 10.0228C3.84063 9.12828 4.42906 7.84778 5.44397 7.16884L5.44529 7.16795C6.04028 6.77129 6.73807 6.6076 7.37213 6.54867C8.01482 6.48894 8.66794 6.53008 9.23531 6.60321C9.76091 6.67094 10.236 6.76923 10.5949 6.8551C11.8058 5.14622 13.3899 3.73052 15.2311 2.71788C17.3059 1.5767 19.6383 0.985336 22.0062 1.00002C22.556 1.00343 23 1.45014 23 2C23 4.8103 22.2116 9.70768 17.1477 13.4166C17.2329 13.7741 17.3298 14.2447 17.3968 14.7647C17.4699 15.3321 17.5111 15.9852 17.4513 16.6279C17.3924 17.2619 17.2287 17.9597 16.832 18.5547L16.8312 18.556C16.1522 19.5709 14.8717 20.1594 13.9772 20.4838C13.4966 20.6582 13.0525 20.7818 12.7293 20.862C12.567 20.9023 12.4333 20.932 12.3384 20.952C12.2909 20.962 12.253 20.9696 12.226 20.9749L12.1937 20.9811L12.184 20.9829L12.1807 20.9835L12.1786 20.9839C12.1784 20.984 12.1786 20.9839 12 20ZM9.46732 8.66191C9.04276 9.41894 8.6613 10.1995 8.32483 11H5.29467C5.32605 10.9039 5.35991 10.8051 5.39631 10.7047C5.70917 9.84223 6.12045 9.12306 6.55526 8.83168C6.77029 8.68853 7.10231 8.58237 7.55722 8.54009C8.00392 8.49857 8.49954 8.52492 8.97967 8.5868C9.14859 8.60857 9.31228 8.63429 9.46732 8.66191ZM3.85618 15.7348C4.45545 15.2301 5.21997 14.9643 6.00313 14.9885C6.78656 15.0127 7.53344 15.3254 8.10043 15.8666L8.11258 15.8784C9.30099 17.0518 9.28575 18.9352 8.26472 20.1444C7.82205 20.6709 7.21238 21.0575 6.62607 21.3439C6.02789 21.636 5.38235 21.8581 4.8025 22.0239C4.21947 22.1907 3.68173 22.3066 3.29059 22.3809C3.09433 22.4182 2.93325 22.4453 2.81972 22.4633C2.76292 22.4723 2.7179 22.479 2.68621 22.4836L2.64882 22.4889L2.63796 22.4904L2.63335 22.4911C2.63315 22.4911 2.6325 22.4912 2.49999 21.5C1.50881 21.3675 1.50883 21.3673 1.50886 21.3671L1.50955 21.362L1.51105 21.3512L1.51638 21.3138C1.52099 21.2821 1.52773 21.2371 1.53674 21.1803C1.55473 21.0667 1.58184 20.9057 1.61911 20.7094C1.69337 20.3183 1.80928 19.7805 1.97605 19.1975C2.14191 18.6176 2.36395 17.9721 2.65614 17.3739C2.94262 16.7874 3.32941 16.1775 3.85618 15.7348ZM2.49999 21.5L1.50886 21.3671C1.46757 21.676 1.57255 21.9868 1.79288 22.2071C2.01321 22.4274 2.32451 22.5324 2.63335 22.4911L2.49999 21.5ZM3.77044 20.2296C3.92548 20.1911 4.08722 20.1483 4.25248 20.1011C4.76514 19.9544 5.29085 19.7702 5.74828 19.5468C6.21718 19.3177 6.54704 19.0797 6.73429 18.8568L6.73626 18.8545C7.13225 18.386 7.09895 17.6948 6.71326 17.3074C6.50365 17.1103 6.22912 16.9965 5.9413 16.9876C5.6506 16.9786 5.36681 17.0772 5.14441 17.2647L5.14318 17.2657C4.92027 17.453 4.68225 17.7828 4.45322 18.2517C4.22978 18.7091 4.04557 19.2349 3.89893 19.7475C3.85166 19.9128 3.8089 20.0745 3.77044 20.2296Z" fill="#344054"/>
</svg>
