<svg width="24" height="24" viewBox="0 0 24 24" fill="none" xmlns="http://www.w3.org/2000/svg">
<path fill-rule="evenodd" clip-rule="evenodd" d="M8.97834 0.999975H8.63313C8.61356 0.999975 8.59425 0.99997 8.57519 0.999964C8.20837 0.999862 7.93093 0.999784 7.65362 1.03861C7.40855 1.07292 7.1672 1.12989 6.93266 1.2088C6.66727 1.29809 6.41915 1.42224 6.0911 1.58638C6.07405 1.59491 6.05679 1.60355 6.03929 1.6123L5.05279 2.10555C4.55881 2.35254 4.35858 2.95321 4.60557 3.44719C4.85256 3.94117 5.45324 4.14139 5.94721 3.8944L6.93372 3.40115C7.33557 3.20022 7.45349 3.14373 7.57043 3.10439C7.6877 3.06493 7.80838 3.03645 7.93091 3.01929C8.02656 3.0059 8.12743 3.00164 8.38219 3.00042L9.38197 4.99997L8.7587 4.99997C7.95373 4.99996 7.28937 4.99995 6.74817 5.04417C6.18608 5.09009 5.66937 5.18866 5.18404 5.43595C4.43139 5.81944 3.81947 6.43136 3.43597 7.18401C3.18868 7.66935 3.09012 8.18605 3.04419 8.74815C2.99998 9.28934 2.99999 9.9537 3 10.7587V15.2413C2.99999 16.0462 2.99998 16.7106 3.04419 17.2518C3.09012 17.8139 3.18868 18.3306 3.43597 18.8159C3.81947 19.5686 4.43139 20.1805 5.18404 20.564C5.29618 20.6211 5.40999 20.6703 5.52566 20.7128L5.1057 21.5528C4.85875 22.0468 5.05901 22.6475 5.553 22.8944C6.047 23.1414 6.64766 22.9411 6.89461 22.4471L7.62112 20.9939C7.96437 21 8.34275 21 8.75868 21H15.2413C15.6573 21 16.0357 21 16.3789 20.9939L17.1056 22.4472C17.3526 22.9412 17.9532 23.1414 18.4472 22.8944C18.9412 22.6474 19.1414 22.0467 18.8944 21.5528L18.4744 20.7128C18.5901 20.6703 18.7038 20.6211 18.816 20.564C19.5686 20.1805 20.1805 19.5686 20.564 18.8159C20.8113 18.3306 20.9099 17.8139 20.9558 17.2518C21 16.7106 21 16.0463 21 15.2413V10.7587C21 9.95369 21 9.28934 20.9558 8.74815C20.9099 8.18605 20.8113 7.66935 20.564 7.18401C20.1805 6.43137 19.5686 5.81944 18.816 5.43595C18.3306 5.18866 17.8139 5.09009 17.2518 5.04417C16.7106 4.99995 16.0463 4.99996 15.2413 4.99997L14.618 4.99997L15.6178 3.00042C15.8726 3.00164 15.9734 3.0059 16.0691 3.01929C16.1916 3.03645 16.3123 3.06493 16.4296 3.10439C16.5465 3.14373 16.6644 3.20022 17.0663 3.40115L18.0528 3.8944C18.5468 4.14139 19.1474 3.94117 19.3944 3.44719C19.6414 2.95321 19.4412 2.35254 18.9472 2.10555L17.9607 1.6123C17.9432 1.60355 17.9259 1.59491 17.9089 1.58637C17.5808 1.42224 17.3327 1.29809 17.0673 1.2088C16.8328 1.12989 16.5914 1.07292 16.3464 1.03861C16.0691 0.999784 15.7916 0.999862 15.4248 0.999964C15.4057 0.99997 15.3864 0.999975 15.3669 0.999975H15.0217C15.0077 0.999683 14.9938 0.999684 14.9799 0.999975H9.02012C9.00621 0.999683 8.99228 0.999682 8.97834 0.999975ZM13.382 2.99997H10.618L11.618 4.99997H12.382L13.382 2.99997ZM10.9799 6.99997C10.9938 7.00027 11.0077 7.00027 11.0217 6.99997H12.9783C12.9923 7.00027 13.0062 7.00027 13.0201 6.99997H15.2C16.0566 6.99997 16.6389 7.00075 17.089 7.03753C17.5274 7.07335 17.7516 7.13827 17.908 7.21796C18.2843 7.40971 18.5903 7.71567 18.782 8.09199C18.8617 8.24839 18.9266 8.4726 18.9624 8.91101C18.9992 9.3611 19 9.9434 19 10.8V12H5V10.8C5 9.9434 5.00078 9.3611 5.03755 8.91101C5.07337 8.4726 5.1383 8.24839 5.21799 8.09199C5.40973 7.71567 5.7157 7.40971 6.09202 7.21796C6.24842 7.13827 6.47262 7.07335 6.91104 7.03753C7.36113 7.00075 7.94342 6.99997 8.8 6.99997H10.9799ZM5 14V15.2C5 16.0566 5.00078 16.6388 5.03755 17.0889C5.07337 17.5274 5.1383 17.7516 5.21799 17.908C5.40973 18.2843 5.7157 18.5902 6.09202 18.782C6.24842 18.8617 6.47262 18.9266 6.91104 18.9624C7.36113 18.9992 7.94342 19 8.8 19H15.2C16.0566 19 16.6389 18.9992 17.089 18.9624C17.5274 18.9266 17.7516 18.8617 17.908 18.782C18.2843 18.5902 18.5903 18.2843 18.782 17.908C18.8617 17.7516 18.9266 17.5274 18.9624 17.0889C18.9992 16.6388 19 16.0566 19 15.2V14H5ZM7 16.5C7 15.6715 7.67157 15 8.5 15C9.32843 15 10 15.6715 10 16.5C10 17.3284 9.32843 18 8.5 18C7.67157 18 7 17.3284 7 16.5ZM14 16.5C14 15.6715 14.6716 15 15.5 15C16.3284 15 17 15.6715 17 16.5C17 17.3284 16.3284 18 15.5 18C14.6716 18 14 17.3284 14 16.5Z" fill="#344054"/>
</svg>
