<svg width="24" height="24" viewBox="0 0 24 24" fill="none" xmlns="http://www.w3.org/2000/svg">
<path fill-rule="evenodd" clip-rule="evenodd" d="M11.5971 1.18492C11.8629 1.13025 12.1371 1.13025 12.4029 1.18492C12.7102 1.24812 12.9848 1.40195 13.2032 1.52424C13.2235 1.53563 13.2433 1.54674 13.2627 1.55749L20.6627 5.6686C20.6831 5.67996 20.7042 5.69157 20.7258 5.70347C20.9569 5.83078 21.2476 5.99085 21.4707 6.23303C21.6637 6.44241 21.8097 6.69057 21.899 6.96092C22.0024 7.27363 22.0011 7.6054 22.0002 7.86928C22.0001 7.89394 22 7.918 22 7.94141V16.0585C22 16.0819 22.0001 16.106 22.0002 16.1306C22.0011 16.3945 22.0024 16.7263 21.899 17.039C21.8097 17.3094 21.6637 17.5575 21.4707 17.7669C21.2476 18.0091 20.9569 18.1691 20.7258 18.2964C20.7042 18.3083 20.6831 18.32 20.6627 18.3313L13.2627 22.4424C13.2433 22.4532 13.2235 22.4643 13.2032 22.4757C12.9848 22.598 12.7102 22.7518 12.4029 22.815C12.1371 22.8697 11.8629 22.8697 11.5971 22.815C11.2898 22.7518 11.0152 22.598 10.7968 22.4757C10.7765 22.4643 10.7567 22.4532 10.7373 22.4424L3.33733 18.3313C3.31688 18.32 3.2958 18.3084 3.2742 18.2965C3.04307 18.1691 2.75245 18.0091 2.52927 17.7669C2.33632 17.5575 2.1903 17.3094 2.10097 17.039C1.99765 16.7263 1.99886 16.3945 1.99982 16.1306C1.99991 16.106 2 16.0819 2 16.0585V7.94141C2 7.91801 1.99991 7.89394 1.99982 7.86928C1.99886 7.60541 1.99765 7.27363 2.10097 6.96093C2.1903 6.69057 2.33632 6.44241 2.52927 6.23303C2.75244 5.99085 3.04306 5.83078 3.27419 5.70348C3.29579 5.69158 3.31687 5.67997 3.33733 5.6686L10.7373 1.55749C10.7567 1.54675 10.7765 1.53563 10.7968 1.52424C11.0152 1.40195 11.2898 1.24812 11.5971 1.18492ZM12 3.14895C11.9985 3.14968 11.9969 3.15044 11.9952 3.15124C11.9375 3.17907 11.8602 3.22161 11.7086 3.3058L5.05914 6.99996L12 10.856L18.9408 6.99994L12.2914 3.3058C12.1398 3.22161 12.0625 3.17907 12.0048 3.15124C12.0031 3.15044 12.0015 3.14968 12 3.14895ZM20 8.69943V16.0585C20 16.2415 19.9996 16.3351 19.9955 16.403C19.9954 16.405 19.9953 16.4069 19.9951 16.4087C19.9936 16.4097 19.992 16.4107 19.9903 16.4118C19.933 16.4483 19.8513 16.4941 19.6914 16.583L13 20.3005L13 12.5883L20 8.69943ZM11 12.5883L4 8.69947V16.0585C4 16.2415 4.00042 16.3351 4.0045 16.403C4.00462 16.405 4.00475 16.4069 4.00487 16.4087C4.0064 16.4097 4.00802 16.4107 4.0097 16.4118C4.067 16.4483 4.14866 16.4941 4.30862 16.583L11 20.3004L11 12.5883Z" fill="#344054"/>
<path fill-rule="evenodd" clip-rule="evenodd" d="M6.62584 4.01442C6.89405 3.53163 7.50286 3.35769 7.98564 3.6259L16.9856 8.6259C17.4684 8.89411 17.6424 9.50292 17.3742 9.9857C17.1059 10.4685 16.4971 10.6424 16.0144 10.3742L7.01436 5.37422C6.53157 5.106 6.35763 4.4972 6.62584 4.01442Z" fill="#344054"/>
</svg>
