<svg width="24" height="24" viewBox="0 0 24 24" fill="none" xmlns="http://www.w3.org/2000/svg">
<path fill-rule="evenodd" clip-rule="evenodd" d="M11.5971 1.18492C11.8629 1.13025 12.1371 1.13025 12.4029 1.18492C12.7102 1.24812 12.9848 1.40195 13.2032 1.52424C13.2235 1.53563 13.2433 1.54674 13.2627 1.55749L12.7846 2.41811L13.2627 1.55749L20.6627 5.6686C20.6831 5.67996 20.7042 5.69157 20.7258 5.70347C20.9569 5.83078 21.2476 5.99085 21.4707 6.23303L21.1563 6.52284L21.4707 6.23303C21.6637 6.44241 21.8097 6.69057 21.899 6.96092C22.0024 7.27362 22.0011 7.60541 22.0002 7.86928C22.0001 7.89394 22 7.91801 22 7.94141V12C22 12.5522 21.5523 13 21 13C20.4477 13 20 12.5522 20 12V8.69943L17.0029 10.3645C16.992 10.3708 16.9811 10.3769 16.9701 10.3827L13 12.5883L13 20.4442C13.3511 20.4445 13.6916 20.6301 13.8742 20.9588C14.1424 21.4415 13.9684 22.0503 13.4856 22.3186L13.2627 22.4424C13.2433 22.4532 13.2235 22.4643 13.2032 22.4757C12.9848 22.598 12.7102 22.7518 12.4029 22.815C12.1371 22.8697 11.8629 22.8697 11.5971 22.815C11.2898 22.7518 11.0152 22.598 10.7968 22.4757C10.7765 22.4643 10.7567 22.4532 10.7373 22.4424L3.33733 18.3313C3.31688 18.32 3.2958 18.3084 3.27421 18.2965C3.04308 18.1692 2.75245 18.0091 2.52927 17.7669C2.33632 17.5575 2.1903 17.3094 2.10097 17.039C1.99765 16.7263 1.99886 16.3945 1.99982 16.1306C1.99991 16.106 2 16.0819 2 16.0585V7.94141C2 7.91801 1.99991 7.89394 1.99982 7.86928C1.99886 7.60541 1.99765 7.27363 2.10097 6.96093C2.1903 6.69057 2.33632 6.44241 2.52927 6.23303C2.75244 5.99085 3.04306 5.83078 3.27419 5.70348C3.29579 5.69158 3.31687 5.67997 3.33733 5.6686L3.33733 5.6686L6.99904 3.63432C7.00862 3.62879 7.01828 3.62342 7.02802 3.61822L10.7373 1.55749C10.7567 1.54675 10.7765 1.53563 10.7968 1.52424C11.0152 1.40195 11.2898 1.24812 11.5971 1.18492ZM7.5 5.64392L5.05914 6.99996L12 10.856L14.4408 9.49994L7.5 5.64392ZM16.5 8.35598L9.55913 4.49996L11.7086 3.3058C11.8602 3.22161 11.9375 3.17908 11.9952 3.15124C11.9969 3.15044 11.9985 3.14968 12 3.14895C12.0015 3.14968 12.0031 3.15044 12.0048 3.15124C12.0625 3.17907 12.1398 3.22161 12.2914 3.3058L18.9408 6.99994L16.5 8.35598ZM11 12.5883L4 8.69947V16.0585C4 16.2415 4.00042 16.3351 4.0045 16.403C4.00462 16.405 4.00475 16.4069 4.00487 16.4087C4.0064 16.4097 4.00802 16.4107 4.00971 16.4118C4.067 16.4483 4.14867 16.4942 4.30862 16.583L3.82297 17.4572L4.30862 16.583L11 20.3004L11 12.5883ZM19 16C17.8954 16 17 16.8954 17 18C17 19.1045 17.8954 20 19 20C20.1046 20 21 19.1045 21 18C21 16.8954 20.1046 16 19 16ZM15 18C15 15.7908 16.7909 14 19 14C21.2091 14 23 15.7908 23 18C23 18.8712 22.7215 19.6774 22.2486 20.3343L22.7071 20.7929C23.0976 21.1834 23.0976 21.8165 22.7071 22.2071C22.3166 22.5976 21.6834 22.5976 21.2929 22.2071L20.7052 21.6193C20.1879 21.8635 19.6099 22 19 22C16.7909 22 15 20.2091 15 18Z" fill="#344054"/>
</svg>
