<svg width="24" height="24" viewBox="0 0 24 24" fill="none" xmlns="http://www.w3.org/2000/svg">
<path fill-rule="evenodd" clip-rule="evenodd" d="M7.19906 1.5H16.801C17.5185 1.49999 18.1136 1.49998 18.6024 1.53772C19.1123 1.5771 19.582 1.66155 20.0334 1.87072C20.7383 2.19735 21.3328 2.72216 21.7443 3.38106C22.0079 3.80303 22.1499 4.25869 22.2522 4.75975C22.3503 5.24009 22.4241 5.83062 22.5131 6.54263L22.9923 10.376C23.0044 10.4729 23.0022 10.5683 22.9874 10.6601C22.9957 10.7723 23 10.8857 23 11C23 12.4136 22.3482 13.675 21.3287 14.5C22.3482 15.325 23 16.5864 23 18C23 20.4853 20.9853 22.5 18.5 22.5H5.50001C3.01473 22.5 1.00001 20.4853 1.00001 18C1.00001 16.5864 1.65185 15.325 2.67135 14.5C1.65185 13.675 1.00001 12.4136 1.00001 11C1.00001 10.8857 1.00428 10.7723 1.01266 10.6601C0.997808 10.5683 0.995618 10.4729 1.00774 10.376L1.48691 6.54259C1.5759 5.83059 1.6497 5.24007 1.74778 4.75975C1.85009 4.25869 1.99216 3.80303 2.25571 3.38106C2.66724 2.72216 3.26173 2.19735 3.96659 1.87072C4.41799 1.66155 4.88775 1.5771 5.39763 1.53772C5.88642 1.49998 6.48152 1.49999 7.19906 1.5ZM3.44591 6.99511C4.06171 6.67862 4.76 6.5 5.50001 6.5H18.5C19.24 6.5 19.9383 6.67862 20.5541 6.99511L20.5333 6.82867C20.4384 6.06907 20.3735 5.55558 20.2927 5.15989C20.2144 4.77641 20.1348 4.57946 20.048 4.44053C19.8422 4.11108 19.545 3.84867 19.1926 3.68536C19.0439 3.61649 18.8386 3.56192 18.4484 3.53179C18.0457 3.50069 17.5282 3.5 16.7627 3.5H7.23737C6.47185 3.5 5.95428 3.50069 5.55162 3.53179C5.1614 3.56192 4.9561 3.61649 4.80748 3.68536C4.45505 3.84867 4.1578 4.11108 3.95203 4.44053C3.86526 4.57946 3.78565 4.77641 3.70734 5.15988C3.62655 5.55558 3.56166 6.06907 3.46671 6.82867L3.44591 6.99511ZM5.50001 15.5C4.1193 15.5 3.00001 16.6193 3.00001 18C3.00001 19.3807 4.1193 20.5 5.50001 20.5H18.5C19.8807 20.5 21 19.3807 21 18C21 16.6193 19.8807 15.5 18.5 15.5H5.50001ZM18.5 13.5C19.8807 13.5 21 12.3807 21 11C21 9.61929 19.8807 8.5 18.5 8.5H5.50001C4.1193 8.5 3.00001 9.61929 3.00001 11C3.00001 12.3807 4.1193 13.5 5.50001 13.5H18.5ZM5.00001 11C5.00001 10.4477 5.44773 10 6.00001 10H6.01001C6.5623 10 7.01001 10.4477 7.01001 11C7.01001 11.5523 6.5623 12 6.01001 12H6.00001C5.44773 12 5.00001 11.5523 5.00001 11ZM11 11C11 10.4477 11.4477 10 12 10H18C18.5523 10 19 10.4477 19 11C19 11.5523 18.5523 12 18 12H12C11.4477 12 11 11.5523 11 11ZM5.00001 18C5.00001 17.4477 5.44773 17 6.00001 17H6.01001C6.5623 17 7.01001 17.4477 7.01001 18C7.01001 18.5523 6.5623 19 6.01001 19H6.00001C5.44773 19 5.00001 18.5523 5.00001 18ZM11 18C11 17.4477 11.4477 17 12 17H18C18.5523 17 19 17.4477 19 18C19 18.5523 18.5523 19 18 19H12C11.4477 19 11 18.5523 11 18Z" fill="#344054"/>
</svg>
