<svg width="24" height="24" viewBox="0 0 24 24" fill="none" xmlns="http://www.w3.org/2000/svg">
<path fill-rule="evenodd" clip-rule="evenodd" d="M11.543 1.24555C11.8436 1.17499 12.1564 1.17499 12.457 1.24555C12.8051 1.32725 13.1087 1.52631 13.3504 1.68477C13.3732 1.69968 13.3954 1.71423 13.417 1.72829L21.817 7.18828C21.8351 7.20007 21.8538 7.21212 21.8729 7.22447C22.0787 7.35723 22.3376 7.52424 22.5347 7.76018C22.7053 7.96434 22.8335 8.20048 22.9117 8.45478C23.002 8.74868 23.001 9.05674 23.0002 9.30162C23.0001 9.32439 23 9.34662 23 9.36824V14.6316C23 14.6533 23.0001 14.6755 23.0002 14.6983C23.001 14.9431 23.002 15.2512 22.9117 15.5451C22.8335 15.7994 22.7053 16.0355 22.5347 16.2397C22.3376 16.4756 22.0787 16.6427 21.8729 16.7754C21.8538 16.7878 21.8351 16.7998 21.817 16.8116L13.417 22.2716C13.3954 22.2857 13.3732 22.3002 13.3504 22.3151C13.1087 22.4736 12.8051 22.6726 12.457 22.7543C12.1564 22.8249 11.8436 22.8249 11.543 22.7543C11.1949 22.6726 10.8913 22.4736 10.6496 22.3151C10.6269 22.3002 10.6047 22.2857 10.583 22.2716L2.18304 16.8116C2.16492 16.7998 2.14624 16.7878 2.1271 16.7754C1.92133 16.6427 1.66247 16.4756 1.46531 16.2397C1.29471 16.0355 1.16655 15.7994 1.08835 15.5451C0.99798 15.2512 0.999027 14.9431 0.99986 14.6983C0.999937 14.6755 1.00001 14.6533 1.00001 14.6316V9.36824C1.00001 9.34662 0.999937 9.32439 0.99986 9.30162C0.999027 9.05674 0.99798 8.74868 1.08835 8.45478C1.16655 8.20048 1.29471 7.96433 1.46531 7.76018C1.66247 7.52423 1.92133 7.35722 2.1271 7.22446C2.14624 7.21212 2.16492 7.20007 2.18304 7.18828L10.583 1.72829C10.6047 1.71423 10.6269 1.69968 10.6496 1.68477C10.8913 1.52631 11.1949 1.32725 11.543 1.24555ZM13 3.84263L20.1443 8.48642C20.1334 8.49559 20.1207 8.50595 20.106 8.51753C19.9634 8.62986 19.7513 8.76893 19.3912 9.00301L16.6154 10.8073L13 8.45725V3.84263ZM11 8.45725V3.84263L3.85571 8.48642C3.86663 8.49559 3.87933 8.50595 3.89402 8.51753C4.0366 8.62986 4.24874 8.76893 4.60886 9.00301L7.38463 10.8073L11 8.45725ZM5.54973 11.9999L3.48507 10.6579C3.31397 10.5467 3.14994 10.4401 3.00001 10.3377V13.6621C3.14995 13.5598 3.31398 13.4531 3.48509 13.342L5.54973 11.9999ZM3.85571 15.5135C3.86663 15.5043 3.87933 15.4939 3.89402 15.4824C4.0366 15.37 4.24874 15.231 4.60886 14.9969L7.38463 13.1926L11 15.5426V20.1573L3.85571 15.5135ZM13 20.1573L20.1443 15.5135C20.1334 15.5043 20.1207 15.4939 20.106 15.4824C19.9634 15.37 19.7513 15.231 19.3912 14.9969L16.6154 13.1926L13 15.5426V20.1573ZM12 13.8073L9.21953 11.9999L12 10.1926L14.7805 11.9999L12 13.8073ZM18.4503 11.9999L20.515 13.342C20.6861 13.4532 20.8501 13.5598 21 13.6621V10.3377C20.8501 10.4401 20.686 10.5467 20.5149 10.6579L18.4503 11.9999Z" fill="#344054"/>
</svg>
