<svg width="24" height="24" viewBox="0 0 24 24" fill="none" xmlns="http://www.w3.org/2000/svg">
<path fill-rule="evenodd" clip-rule="evenodd" d="M19.4629 2.10354C19.958 1.85879 20.5578 2.06172 20.8025 2.55681C22.2095 5.40283 23 8.61012 23 12C23 15.3898 22.2095 18.5971 20.8025 21.4431C20.5578 21.9382 19.958 22.1412 19.4629 21.8964C18.9678 21.6517 18.7649 21.0519 19.0096 20.5568C20.2833 17.9805 21 15.0759 21 12C21 8.92405 20.2833 6.01944 19.0096 3.44314C18.7649 2.94805 18.9678 2.34829 19.4629 2.10354ZM4.53709 2.10354C5.03218 2.34829 5.23512 2.94805 4.99037 3.44314C3.71674 6.01944 3 8.92405 3 12C3 15.0759 3.71674 17.9805 4.99037 20.5568C5.23512 21.0519 5.03218 21.6517 4.53709 21.8964C4.042 22.1412 3.44224 21.9382 3.19749 21.4431C1.79052 18.5971 1 15.3898 1 12C1 8.61012 1.79052 5.40283 3.19749 2.55681C3.44224 2.06172 4.042 1.85879 4.53709 2.10354ZM7.71483 8.62498C7.71483 8.07269 8.16254 7.62498 8.71483 7.62498H10.1089C11.0586 7.62498 11.8883 8.25754 12.1469 9.16752L12.5233 10.492L13.9986 8.76187C14.6132 8.04113 15.5117 7.62498 16.459 7.62498H16.5486C17.1009 7.62498 17.5486 8.07269 17.5486 8.62498C17.5486 9.17726 17.1009 9.62498 16.5486 9.62498H16.459C16.0994 9.62498 15.7564 9.78286 15.5205 10.0595L13.1804 12.8039L13.9213 15.4106C13.9372 15.4666 13.9859 15.5 14.0355 15.5H15.4296C15.9819 15.5 16.4296 15.9477 16.4296 16.5C16.4296 17.0523 15.9819 17.5 15.4296 17.5H14.0355C13.0858 17.5 12.2562 16.8674 11.9975 15.9574L11.621 14.6328L10.1456 16.3631C9.53109 17.0838 8.63256 17.5 7.6853 17.5H7.59563C7.04334 17.5 6.59563 17.0523 6.59563 16.5C6.59563 15.9477 7.04334 15.5 7.59563 15.5H7.6853C8.04485 15.5 8.38788 15.3421 8.62377 15.0654L10.9639 12.3209L10.2231 9.71431C10.2072 9.65837 10.1585 9.62498 10.1089 9.62498H8.71483C8.16254 9.62498 7.71483 9.17726 7.71483 8.62498Z" fill="#344054"/>
</svg>
