<svg width="24" height="24" viewBox="0 0 24 24" fill="none" xmlns="http://www.w3.org/2000/svg">
<path fill-rule="evenodd" clip-rule="evenodd" d="M11.8026 5.52045L11.8026 5.52046L11.8026 5.52045ZM12 5.61804L19.7639 9.5L16.5618 11.1011C16.5553 11.1042 16.5488 11.1075 16.5424 11.1108L12 13.382L7.45763 11.1108C7.45118 11.1075 7.44469 11.1042 7.43817 11.1011L4.23607 9.5L12 5.61804ZM4.76393 12L1.55279 10.3944C1.214 10.225 1 9.87878 1 9.5C1 9.12123 1.214 8.77497 1.55279 8.60558L11.195 3.78446C11.2024 3.78076 11.211 3.77639 11.2206 3.77149C11.3139 3.72388 11.507 3.62535 11.7234 3.58474C11.9062 3.55045 12.0938 3.55045 12.2766 3.58474C12.493 3.62535 12.6861 3.72388 12.7794 3.77149C12.789 3.77639 12.7976 3.78076 12.805 3.78446L22.4472 8.60558C22.786 8.77497 23 9.12123 23 9.5C23 9.87878 22.786 10.225 22.4472 10.3944L19.2361 12L22.4472 13.6056C22.786 13.775 23 14.1212 23 14.5C23 14.8788 22.786 15.225 22.4472 15.3944L12.805 20.2155C12.7976 20.2192 12.789 20.2236 12.7794 20.2285C12.6861 20.2761 12.493 20.3747 12.2766 20.4153C12.0938 20.4496 11.9062 20.4496 11.7234 20.4153C11.507 20.3747 11.3139 20.2761 11.2206 20.2285C11.211 20.2236 11.2024 20.2192 11.195 20.2155L1.55279 15.3944C1.214 15.225 1 14.8788 1 14.5C1 14.1212 1.214 13.775 1.55279 13.6056L4.76393 12ZM7 13.118L4.23607 14.5L12 18.382L19.7639 14.5L17 13.118L12.805 15.2155C12.7976 15.2192 12.789 15.2236 12.7794 15.2285C12.6861 15.2761 12.493 15.3747 12.2766 15.4153C12.0938 15.4496 11.9062 15.4496 11.7234 15.4153C11.507 15.3747 11.3139 15.2761 11.2206 15.2285C11.211 15.2236 11.2024 15.2192 11.195 15.2155L7 13.118ZM11.8026 18.4796C11.8024 18.4796 11.8024 18.4796 11.8026 18.4796L11.8026 18.4796ZM12.1974 18.4796C12.1976 18.4796 12.1976 18.4796 12.1974 18.4796L12.1974 18.4796ZM11.8026 13.4796C11.8024 13.4797 11.8024 13.4796 11.8026 13.4795L11.8026 13.4796ZM12.1974 13.4795C12.1976 13.4796 12.1976 13.4797 12.1974 13.4796L12.1974 13.4795ZM12.1974 5.52046L12.1974 5.52045L12.1974 5.52046Z" fill="#344054"/>
</svg>
