<svg width="24" height="24" viewBox="0 0 24 24" fill="none" xmlns="http://www.w3.org/2000/svg">
<path fill-rule="evenodd" clip-rule="evenodd" d="M17.9705 4.18197C16.9942 3.20566 15.4113 3.20566 14.435 4.18197L5.41939 13.1976C3.75966 14.8573 3.75966 17.5483 5.41939 19.208C7.07912 20.8677 9.77007 20.8677 11.4298 19.208L20.4454 10.1924C20.8359 9.80185 21.4691 9.80185 21.8596 10.1924C22.2501 10.5829 22.2501 11.2161 21.8596 11.6066L12.844 20.6222C10.4032 23.063 6.44595 23.063 4.00517 20.6222C1.5644 18.1814 1.5644 14.2241 4.00517 11.7834L13.0208 2.76776C14.7781 1.0104 17.6274 1.0104 19.3847 2.76776C21.1421 4.52512 21.1421 7.37436 19.3847 9.13172L10.7227 17.7938C9.64875 18.8677 7.90754 18.8677 6.8336 17.7938C5.75966 16.7198 5.75966 14.9786 6.8336 13.9047L14.435 6.30329C14.8255 5.91277 15.4587 5.91277 15.8492 6.30329C16.2397 6.69382 16.2397 7.32698 15.8492 7.7175L8.24781 15.3189C7.95492 15.6118 7.95492 16.0867 8.24781 16.3796C8.54071 16.6725 9.01558 16.6725 9.30847 16.3796L17.9705 7.7175C18.9468 6.74119 18.9468 5.15828 17.9705 4.18197Z" fill="#344054"/>
</svg>
