<svg width="24" height="24" viewBox="0 0 24 24" fill="none" xmlns="http://www.w3.org/2000/svg">
<path d="M12 2.80006C12 2.52004 12 2.38003 11.9455 2.27307C11.8976 2.17899 11.8211 2.1025 11.727 2.05456C11.62 2.00007 11.4803 2.00006 11.2008 2.00006C10.2559 2.00006 8.69388 2.00006 7.7587 2.00007C6.95373 2.00005 6.28937 2.00004 5.74818 2.04426C5.18608 2.09019 4.66937 2.18875 4.18404 2.43604C3.43139 2.81953 2.81947 3.43146 2.43598 4.18411C2.18868 4.66944 2.09012 5.18614 2.04419 5.74824C1.99998 6.28943 1.99999 6.95379 2 7.75875V16.2414C1.99999 17.0463 1.99998 17.7107 2.04419 18.2519C2.09012 18.814 2.18868 19.3307 2.43598 19.816C2.81947 20.5687 3.43139 21.1806 4.18404 21.5641C4.66937 21.8114 5.18608 21.91 5.74818 21.9559C6.28936 22.0001 6.95372 22.0001 7.75868 22.0001H16.2413C17.0463 22.0001 17.7106 22.0001 18.2518 21.9559C18.8139 21.91 19.3306 21.8114 19.816 21.5641C20.5686 21.1806 21.1805 20.5687 21.564 19.816C21.8113 19.3307 21.9099 18.814 21.9558 18.2519C22 17.7107 22 17.0464 22 16.2414C22 15.3062 22 13.7442 22 12.7992C22 12.5197 22 12.38 21.9455 12.273C21.8976 12.1789 21.8211 12.1024 21.727 12.0545C21.62 12 21.48 12 21.2 12H17.7587C16.9537 12 16.2894 12 15.7482 11.9558C15.1861 11.9099 14.6694 11.8113 14.184 11.564C13.4314 11.1805 12.8195 10.5686 12.436 9.81597C12.1887 9.33063 12.0901 8.81393 12.0442 8.25183C12 7.71064 12 7.04628 12 6.24132V2.80006Z" fill="#344054"/>
<path d="M19.908 10C20.2015 10 20.3483 10 20.4685 9.92631C20.6384 9.82218 20.74 9.57682 20.6934 9.38309C20.6604 9.24596 20.5647 9.15034 20.3733 8.95909L15.041 3.62678C14.8497 3.4353 14.754 3.33955 14.6169 3.30658C14.4232 3.26003 14.1779 3.36156 14.0737 3.5314C14 3.65167 14 3.79848 14 4.09211V6.2C14 7.05658 14.0008 7.63888 14.0376 8.08897C14.0734 8.52738 14.1383 8.75159 14.218 8.90799C14.4097 9.28431 14.7157 9.59027 15.092 9.78202C15.2484 9.86171 15.4726 9.92663 15.911 9.96245C16.3611 9.99923 16.9434 10 17.8 10H19.908Z" fill="#344054"/>
</svg>
