<svg width="24" height="24" viewBox="0 0 24 24" fill="none" xmlns="http://www.w3.org/2000/svg">
<path d="M11.778 1C7.42514 1 3.05029 3.78582 1.45396 7.88534C1.30743 8.26163 1.23417 8.44978 1.27579 8.60724C1.31169 8.74303 1.40651 8.86069 1.53156 8.92463C1.67657 8.99877 1.91068 8.96168 2.37888 8.8875C2.95007 8.797 3.53576 8.75 4.13247 8.75C10.2723 8.75 15.2496 13.7273 15.2496 19.8671C15.2496 20.3934 15.213 20.9112 15.1423 21.4179C15.0741 21.907 15.0399 22.1516 15.1183 22.2961C15.1865 22.4218 15.3062 22.5129 15.4455 22.545C15.6058 22.582 15.8006 22.4975 16.1902 22.3287C20.1825 20.5986 22.8951 16.5189 22.8951 12.1171C22.8951 5.97731 17.9178 1 11.778 1Z" fill="#344054"/>
<path d="M11.9415 21.3943C12.2459 21.6985 12.3981 21.8506 12.5707 21.8707C12.7104 21.887 12.8783 21.8295 12.9788 21.731C13.1028 21.6093 13.1275 21.414 13.1769 21.0236C13.2249 20.6448 13.2496 20.2589 13.2496 19.8671C13.2496 14.8319 9.16773 10.75 4.13247 10.75C3.73873 10.75 3.35079 10.775 2.97016 10.8234C2.57975 10.8731 2.38454 10.8979 2.26292 11.0221C2.16446 11.1225 2.10706 11.2905 2.12345 11.4302C2.14369 11.6028 2.29587 11.7549 2.60024 12.0591L11.9415 21.3943Z" fill="#344054"/>
</svg>
