<svg width="24" height="24" viewBox="0 0 24 24" fill="none" xmlns="http://www.w3.org/2000/svg">
<path fill-rule="evenodd" clip-rule="evenodd" d="M3.05493 11H4C4.55228 11 5 11.4477 5 12C5 12.5523 4.55228 13 4 13H3.05493C3.24682 14.7359 3.93238 16.3229 4.9681 17.6177L5.63604 16.9497C6.02656 16.5592 6.65973 16.5592 7.05025 16.9497C7.44078 17.3403 7.44078 17.9734 7.05025 18.364L6.38231 19.0319C7.67708 20.0676 9.26415 20.7532 11 20.9451V20C11 19.4477 11.4477 19 12 19C12.5523 19 13 19.4477 13 20V20.9451C14.7359 20.7532 16.3229 20.0676 17.6177 19.0319L16.9497 18.364C16.5592 17.9734 16.5592 17.3403 16.9497 16.9497C17.3403 16.5592 17.9734 16.5592 18.364 16.9497L19.0319 17.6177C20.0676 16.3229 20.7532 14.7359 20.9451 13H20C19.4477 13 19 12.5523 19 12C19 11.4477 19.4477 11 20 11H20.9451C20.7532 9.26415 20.0676 7.67708 19.0319 6.38231L18.364 7.05025C17.9734 7.44078 17.3403 7.44078 16.9497 7.05025C16.5592 6.65973 16.5592 6.02656 16.9497 5.63604L17.6177 4.9681C16.3229 3.93238 14.7359 3.24682 13 3.05493V4C13 4.55228 12.5523 5 12 5C11.4477 5 11 4.55228 11 4V3.05493C9.26415 3.24682 7.67708 3.93238 6.38231 4.9681L7.05025 5.63604C7.44078 6.02656 7.44078 6.65973 7.05025 7.05025C6.65973 7.44078 6.02656 7.44078 5.63604 7.05025L4.9681 6.38231C3.93238 7.67708 3.24682 9.26415 3.05493 11ZM4.22183 4.22183C2.23122 6.21243 1 8.96243 1 12C1 15.0364 2.23027 17.7855 4.21954 19.7759C4.2203 19.7767 4.22106 19.7774 4.22183 19.7782M4.22258 19.7789C6.21313 21.7691 8.96282 23 12 23C15.0364 23 17.7855 21.7697 19.7759 19.7805C19.7767 19.7797 19.7774 19.7789 19.7782 19.7782C19.7785 19.7778 19.7789 19.7775 19.7792 19.7771C21.7692 17.7866 23 15.037 23 12C23 8.96205 21.7685 6.21174 19.7774 4.22107M19.7774 4.22107C17.7869 2.23091 15.0372 1 12 1C8.96243 1 6.21243 2.23122 4.22183 4.22183M11.2929 7.29289C11.6834 6.90237 12.3166 6.90237 12.7071 7.29289L16.7071 11.2929C17.0976 11.6834 17.0976 12.3166 16.7071 12.7071L12.7071 16.7071C12.3166 17.0976 11.6834 17.0976 11.2929 16.7071L7.29289 12.7071C6.90237 12.3166 6.90237 11.6834 7.29289 11.2929L11.2929 7.29289ZM9.41421 12L12 14.5858L14.5858 12L12 9.41421L9.41421 12Z" fill="#344054"/>
</svg>
