<svg width="24" height="24" viewBox="0 0 24 24" fill="none" xmlns="http://www.w3.org/2000/svg">
<path fill-rule="evenodd" clip-rule="evenodd" d="M12 3C7.02944 3 3 7.02944 3 12C3 16.9706 7.02944 21 12 21C16.9706 21 21 16.9706 21 12C21 7.02944 16.9706 3 12 3ZM1 12C1 5.92487 5.92487 1 12 1C18.0751 1 23 5.92487 23 12C23 18.0751 18.0751 23 12 23C5.92487 23 1 18.0751 1 12ZM14.6589 9.34114L10.6706 10.6706L9.34114 14.6589L13.3294 13.3294L14.6589 9.34114ZM15.0633 7.11652C15.2459 7.0736 15.5876 7.00731 15.9532 7.13771C16.3773 7.28894 16.7111 7.62266 16.8623 8.04675C16.9927 8.41244 16.9264 8.7541 16.8835 8.93672C16.8394 9.12453 16.7655 9.3459 16.6938 9.56099C16.6901 9.57205 16.6864 9.5831 16.6827 9.59412L15.1952 14.0568C15.1926 14.0646 15.1896 14.0737 15.1863 14.084C15.154 14.1837 15.0871 14.3898 14.9628 14.5716C14.8578 14.7251 14.7251 14.8578 14.5716 14.9628C14.3898 15.0871 14.1836 15.154 14.084 15.1863C14.0737 15.1896 14.0646 15.1926 14.0568 15.1952L9.56098 16.6938C9.34589 16.7655 9.12453 16.8394 8.93672 16.8835C8.7541 16.9264 8.41244 16.9927 8.04675 16.8623C7.62266 16.7111 7.28894 16.3773 7.13771 15.9532C7.00731 15.5876 7.0736 15.2459 7.11652 15.0633C7.16065 14.8755 7.23449 14.6541 7.30623 14.439C7.30992 14.4279 7.31361 14.4169 7.31728 14.4059L8.80483 9.94325C8.80745 9.93539 8.81041 9.92626 8.81373 9.91599C8.84604 9.81636 8.9129 9.61016 9.03723 9.4284C9.14224 9.27488 9.27488 9.14224 9.4284 9.03723C9.61016 8.9129 9.81636 8.84604 9.91599 8.81373C9.92626 8.81041 9.93539 8.80745 9.94325 8.80483L14.4059 7.31728C14.4169 7.31361 14.4279 7.30993 14.439 7.30624C14.6541 7.23449 14.8755 7.16065 15.0633 7.11652Z" fill="#344054"/>
</svg>
