<svg width="24" height="24" viewBox="0 0 24 24" fill="none" xmlns="http://www.w3.org/2000/svg">
<path fill-rule="evenodd" clip-rule="evenodd" d="M3.05493 11H4C4.55228 11 5 11.4477 5 12C5 12.5523 4.55228 13 4 13H3.05493C3.24682 14.7359 3.93238 16.3229 4.9681 17.6177L5.63604 16.9497C6.02656 16.5592 6.65973 16.5592 7.05025 16.9497C7.44078 17.3403 7.44078 17.9734 7.05025 18.364L6.38231 19.0319C7.67708 20.0676 9.26415 20.7532 11 20.9451V20C11 19.4477 11.4477 19 12 19C12.5523 19 13 19.4477 13 20V20.9451C14.7359 20.7532 16.3229 20.0676 17.6177 19.0319L16.9497 18.364C16.5592 17.9734 16.5592 17.3403 16.9497 16.9497C17.3403 16.5592 17.9734 16.5592 18.364 16.9497L19.0319 17.6177C20.0676 16.3229 20.7532 14.7359 20.9451 13H20C19.4477 13 19 12.5523 19 12C19 11.4477 19.4477 11 20 11H20.9451C20.7532 9.26415 20.0676 7.67708 19.0319 6.38231L18.364 7.05025C17.9734 7.44078 17.3403 7.44078 16.9497 7.05025C16.5592 6.65973 16.5592 6.02656 16.9497 5.63604L17.6177 4.9681C16.3229 3.93238 14.7359 3.24682 13 3.05493V4C13 4.55228 12.5523 5 12 5C11.4477 5 11 4.55228 11 4V3.05493C9.26415 3.24682 7.67708 3.93238 6.38231 4.9681L7.05025 5.63604C7.44078 6.02656 7.44078 6.65973 7.05025 7.05025C6.65973 7.44078 6.02656 7.44078 5.63604 7.05025L4.9681 6.38231C3.93238 7.67708 3.24682 9.26415 3.05493 11ZM4.22183 4.22183C2.23122 6.21243 1 8.96243 1 12C1 15.0364 2.23027 17.7855 4.21954 19.7759L4.22183 19.7782M4.22258 19.7789C6.21313 21.7691 8.96282 23 12 23C15.0364 23 17.7855 21.7697 19.7759 19.7805L19.7782 19.7782L19.7792 19.7771C21.7692 17.7866 23 15.037 23 12C23 8.96205 21.7685 6.21174 19.7774 4.22107M19.7774 4.22107C17.7869 2.23091 15.0372 1 12 1C8.96243 1 6.21243 2.23122 4.22183 4.22183M12 7C12.3513 7 12.6768 7.1843 12.8575 7.4855L14.2289 9.77113L16.5145 11.1425C16.8157 11.3232 17 11.6487 17 12C17 12.3513 16.8157 12.6768 16.5145 12.8575L14.2289 14.2289L12.8575 16.5145C12.6768 16.8157 12.3513 17 12 17C11.6487 17 11.3232 16.8157 11.1425 16.5145L9.77113 14.2289L7.4855 12.8575C7.1843 12.6768 7 12.3513 7 12C7 11.6487 7.1843 11.3232 7.4855 11.1425L9.77113 9.77113L11.1425 7.4855C11.3232 7.1843 11.6487 7 12 7ZM12 9.94365L11.3575 11.0145C11.273 11.1552 11.1552 11.273 11.0145 11.3575L9.94365 12L11.0145 12.6425C11.1552 12.727 11.273 12.8448 11.3575 12.9855L12 14.0563L12.6425 12.9855C12.727 12.8448 12.8448 12.727 12.9855 12.6425L14.0563 12L12.9855 11.3575C12.8448 11.273 12.727 11.1552 12.6425 11.0145L12 9.94365Z" fill="#344054"/>
</svg>
