<svg width="24" height="24" viewBox="0 0 24 24" fill="none" xmlns="http://www.w3.org/2000/svg">
<path fill-rule="evenodd" clip-rule="evenodd" d="M21.4528 4.1063C21.9962 3.17297 21.3229 2.00195 20.2429 2.00195L4.19926 2.002C4.15974 2.002 4.12068 2.00391 4.08214 2.00764C4.05346 2.00517 4.02444 2.00391 3.99512 2.00391C3.44283 2.00391 2.99512 2.45162 2.99512 3.00391V21.0005C2.99512 21.5528 3.44283 22.0005 3.99512 22.0005C4.5474 22.0005 4.99512 21.5528 4.99512 21.0005V14.0001L20.2429 14C21.3229 14 21.9962 12.829 21.4528 11.8956L19.1856 8.00101L21.4528 4.1063ZM4.99926 4.002L19.1994 4.00196L17.2814 7.29666C17.0279 7.73203 17.0279 8.26999 17.2814 8.70536L19.1994 12L4.99926 12.0001L4.99926 4.002Z" fill="#344054"/>
</svg>
