<svg width="24" height="24" viewBox="0 0 24 24" fill="none" xmlns="http://www.w3.org/2000/svg">
<path fill-rule="evenodd" clip-rule="evenodd" d="M5.56811 2C5.57873 2 5.58936 2.00001 5.60001 2.00001L11.4319 2C11.6843 1.99997 11.9301 1.99994 12.1382 2.01695C12.3668 2.03563 12.6366 2.07969 12.908 2.21799C13.2843 2.40974 13.5903 2.7157 13.782 3.09202C13.9203 3.36345 13.9644 3.63318 13.9831 3.86178C13.9867 3.90624 13.9895 3.95241 13.9918 4.00001L19.4319 4C19.6843 3.99997 19.9301 3.99994 20.1382 4.01695C20.3668 4.03563 20.6366 4.07969 20.908 4.21799C21.2843 4.40974 21.5903 4.7157 21.782 5.09202C21.9203 5.36345 21.9644 5.63318 21.9831 5.86178C22.0001 6.06993 22 6.31571 22 6.56809V13.4319C22 13.6843 22.0001 13.9301 21.9831 14.1382C21.9644 14.3668 21.9203 14.6366 21.782 14.908C21.5903 15.2843 21.2843 15.5903 20.908 15.782C20.6366 15.9203 20.3668 15.9644 20.1382 15.9831C19.9301 16.0001 19.6843 16 19.4319 16H14.5681C14.3157 16 14.0699 16.0001 13.8618 15.9831C13.6332 15.9644 13.3634 15.9203 13.092 15.782C12.7157 15.5903 12.4097 15.2843 12.218 14.908C12.0797 14.6366 12.0356 14.3668 12.0169 14.1382C12.0131 14.0911 12.0101 14.042 12.0078 13.9914C11.8306 14.0001 11.6333 14 11.4319 14L5.00001 14L5.00001 21C5.00001 21.5523 4.55229 22 4.00001 22C3.44772 22 3.00001 21.5523 3.00001 21L3.00001 13.0009C3.00001 13.0006 3.00001 13.0012 3.00001 13.0009L3.00001 4.60001C3.00001 4.58936 3 4.57873 3 4.56811C3 4.54684 3 4.52561 3.00001 4.50445V4.00001C3.00001 3.92332 3.00864 3.84865 3.02498 3.77691C3.04769 3.56777 3.09646 3.33055 3.21799 3.09202C3.40974 2.7157 3.7157 2.40974 4.09202 2.21799C4.36345 2.07969 4.63318 2.03563 4.86178 2.01695C5.06993 1.99994 5.31572 1.99997 5.56811 2ZM5.00001 12H11.4C11.6965 12 11.8588 11.9992 11.9754 11.9897C11.98 11.9893 11.9844 11.9889 11.9886 11.9886C11.9889 11.9844 11.9893 11.98 11.9897 11.9754C11.9992 11.8588 12 11.6965 12 11.4V4.60001C12 4.30348 11.9992 4.14122 11.9897 4.02464C11.9893 4.02 11.9889 4.0156 11.9886 4.01145C11.9844 4.01107 11.98 4.01069 11.9754 4.01031C11.8588 4.00078 11.6965 4.00001 11.4 4.00001H5.60001C5.30348 4.00001 5.14122 4.00078 5.02464 4.01031C5.02 4.01069 5.0156 4.01107 5.01145 4.01145C5.01107 4.0156 5.01069 4.02 5.01031 4.02464C5.00081 4.14084 5.00001 4.30242 5.00001 4.59711C5.00001 4.59807 5.00001 4.59904 5.00001 4.60001L5.00001 12ZM14 11.4938V13.4C14 13.6965 14.0008 13.8588 14.0103 13.9754C14.0107 13.98 14.0111 13.9844 14.0115 13.9886C14.0156 13.9889 14.02 13.9893 14.0246 13.9897C14.1412 13.9992 14.3035 14 14.6 14H19.4C19.6965 14 19.8588 13.9992 19.9754 13.9897C19.98 13.9893 19.9844 13.9889 19.9886 13.9886C19.9889 13.9844 19.9893 13.98 19.9897 13.9754C19.9992 13.8588 20 13.6965 20 13.4V6.60001C20 6.30348 19.9992 6.14122 19.9897 6.02464C19.9893 6.02 19.9889 6.0156 19.9886 6.01145C19.9844 6.01107 19.98 6.01069 19.9754 6.01031C19.8588 6.00078 19.6965 6.00001 19.4 6.00001H14L14 11.4319C14 11.4526 14 11.4732 14 11.4938Z" fill="#344054"/>
</svg>
