<svg width="24" height="24" viewBox="0 0 24 24" fill="none" xmlns="http://www.w3.org/2000/svg">
<path d="M7.99512 0.999512C6.3824 0.999512 5.2546 1.26868 4.49873 1.57104C4.12167 1.72186 3.84152 1.87923 3.64354 2.01121C3.54473 2.07708 3.46695 2.13626 3.40824 2.18461C3.3789 2.20877 3.35437 2.23019 3.33441 2.24834C3.32443 2.25741 3.31559 2.26567 3.30787 2.27303L3.29711 2.28341L3.29236 2.28808L3.29013 2.29029L3.28906 2.29136C3.28906 2.29136 3.28801 2.2924 3.99512 2.99951L3.28801 2.2924C2.89749 2.68293 2.89749 3.31609 3.28801 3.70662C3.67118 4.08979 4.28795 4.097 4.67992 3.72826C4.68788 3.72171 4.71159 3.70288 4.75294 3.67531C4.83622 3.6198 4.99356 3.52717 5.24151 3.42799C5.73563 3.23034 6.60783 2.99951 7.99512 2.99951C9.27581 2.99951 10.3556 3.42075 11.6237 3.92799L11.6794 3.95028C12.8984 4.43803 14.3017 4.99951 15.9951 4.99951C17.6078 4.99951 18.7356 4.73034 19.4915 4.42799C19.8686 4.27717 20.1487 4.1198 20.3467 3.98781C20.4455 3.92194 20.5233 3.86276 20.582 3.81441C20.6113 3.79025 20.6359 3.76883 20.6558 3.75068C20.6658 3.74161 20.6746 3.73336 20.6824 3.72599L20.6931 3.71561L20.6979 3.71094L20.7001 3.70873L20.7012 3.70767C20.7012 3.70767 20.7022 3.70662 19.9951 2.99951L20.7022 3.70662C21.0927 3.31609 21.0927 2.68293 20.7022 2.2924C20.319 1.90923 19.7023 1.90202 19.3103 2.27077C19.3023 2.27732 19.2786 2.29615 19.2373 2.32371C19.154 2.37923 18.9967 2.47186 18.7487 2.57104C18.2546 2.76868 17.3824 2.99951 15.9951 2.99951C14.7144 2.99951 13.6346 2.57827 12.3665 2.07104L12.3108 2.04875C11.0918 1.561 9.68857 0.999512 7.99512 0.999512Z" fill="#344054"/>
<path d="M7.99512 12.9827C6.3824 12.9827 5.2546 13.2518 4.49873 13.5542C4.12167 13.705 3.84152 13.8624 3.64354 13.9944C3.54473 14.0602 3.46695 14.1194 3.40824 14.1678C3.3789 14.1919 3.35437 14.2133 3.33441 14.2315C3.32443 14.2406 3.31559 14.2488 3.30787 14.2562L3.29711 14.2666L3.29236 14.2712L3.29013 14.2734L3.28906 14.2745C3.28906 14.2745 3.28801 14.2756 3.99512 14.9827L3.28801 14.2756C2.89749 14.6661 2.89749 15.2992 3.28801 15.6898C3.67118 16.0729 4.28795 16.0802 4.67992 15.7114C4.68788 15.7049 4.71159 15.686 4.75294 15.6585C4.83622 15.603 4.99356 15.5103 5.24151 15.4111C5.73563 15.2135 6.60783 14.9827 7.99512 14.9827C9.27581 14.9827 10.3556 15.4039 11.6237 15.9111L11.6794 15.9334C12.8984 16.4212 14.3017 16.9827 15.9951 16.9827C17.6078 16.9827 18.7356 16.7135 19.4915 16.4111C19.8686 16.2603 20.1487 16.103 20.3467 15.971C20.4455 15.9051 20.5233 15.8459 20.582 15.7976C20.6113 15.7734 20.6359 15.752 20.6558 15.7338C20.6658 15.7248 20.6746 15.7165 20.6824 15.7091L20.6931 15.6988L20.6979 15.6941L20.7001 15.6919L20.7012 15.6908C20.7012 15.6908 20.7022 15.6898 19.9951 14.9827L20.7022 15.6898C21.0927 15.2992 21.0927 14.6661 20.7022 14.2756C20.319 13.8924 19.7023 13.8852 19.3103 14.2539C19.3023 14.2605 19.2786 14.2793 19.2373 14.3069C19.154 14.3624 18.9967 14.455 18.7487 14.5542C18.2546 14.7518 17.3824 14.9827 15.9951 14.9827C14.7144 14.9827 13.6346 14.5614 12.3665 14.0542L12.3108 14.0319C11.0918 13.5442 9.68857 12.9827 7.99512 12.9827Z" fill="#344054"/>
<path d="M2.99512 2.99951C2.99512 2.44723 3.44283 1.99951 3.99512 1.99951C4.5474 1.99951 4.99512 2.44723 4.99512 2.99951V22.0002C4.99512 22.5525 4.5474 23.0002 3.99512 23.0002C3.44283 23.0002 2.99512 22.5525 2.99512 22.0002V2.99951Z" fill="#344054"/>
<path d="M18.9951 2.99951C18.9951 2.44723 19.4428 1.99951 19.9951 1.99951C20.5474 1.99951 20.9951 2.44723 20.9951 2.99951V14.9827C20.9951 15.535 20.5474 15.9827 19.9951 15.9827C19.4428 15.9827 18.9951 15.535 18.9951 14.9827V2.99951Z" fill="#344054"/>
</svg>
