<svg width="24" height="24" viewBox="0 0 24 24" fill="none" xmlns="http://www.w3.org/2000/svg">
<path fill-rule="evenodd" clip-rule="evenodd" d="M17.511 16.0861C18.0419 15.3066 17.7303 14.2363 16.8639 13.8637L13.8816 12.5811L12.7994 12.1862C12.087 11.9262 11.2928 12.2388 10.9486 12.9144L10.2022 14.3797C10.0188 14.7397 9.98838 15.1583 10.1177 15.541L10.9461 17.9913C11.1521 18.6008 11.7238 19.011 12.3671 19.011H14.7255C15.2217 19.011 15.6858 18.7656 15.9652 18.3554L17.511 16.0861ZM13.1431 14.4406L15.5166 15.4614L14.4611 17.011H12.7259L12.0798 15.0999L12.5297 14.2168L13.1431 14.4406Z" fill="#344054"/>
<path fill-rule="evenodd" clip-rule="evenodd" d="M1.00293 12C1.00293 10.2574 1.40813 8.60946 2.12946 7.14523C2.16033 7.05223 2.2055 6.96225 2.26546 6.87842C4.10776 3.38295 7.77706 1 12.0029 1C18.0781 1 23.0029 5.92487 23.0029 12C23.0029 18.0751 18.0781 23 12.0029 23C5.9278 23 1.00293 18.0751 1.00293 12ZM12.0029 3C8.80509 3 5.99679 4.66781 4.40041 7.18104L7.78354 9.62453L8.61 8.51526C8.76546 8.30661 8.9725 8.14199 9.21082 8.03756L13.0435 6.35807L13.2756 3.08929C12.8599 3.03044 12.4349 3 12.0029 3ZM7.01188 11.5343L3.5126 9.00692C3.18251 9.9433 3.00293 10.9507 3.00293 12C3.00293 16.9706 7.03237 21 12.0029 21C16.9735 21 21.0029 16.9706 21.0029 12C21.0029 8.17214 18.6132 4.90243 15.2443 3.60136L15.0171 6.80105C14.9776 7.35688 14.6333 7.84502 14.1229 8.06867L10.1347 9.81629L9.093 11.2145C8.60323 11.8719 7.67644 12.0143 7.01188 11.5343Z" fill="#344054"/>
</svg>
