<svg width="24" height="24" viewBox="0 0 24 24" fill="none" xmlns="http://www.w3.org/2000/svg">
<path fill-rule="evenodd" clip-rule="evenodd" d="M11.8624 2.00005C11.9076 2.00007 11.9535 2.0001 12 2.0001C12.0465 2.0001 12.0924 2.00007 12.1376 2.00005C12.933 1.99962 13.5236 1.9993 14.0353 2.13639C15.4156 2.50626 16.4938 3.58445 16.8637 4.96482C16.9461 5.27229 16.9789 5.60829 16.9918 6.0001L17.2413 6.0001C18.0463 6.00008 18.7106 6.00007 19.2518 6.04429C19.8139 6.09022 20.3306 6.18878 20.816 6.43607C21.5686 6.81956 22.1805 7.43149 22.564 8.18413C22.8113 8.66947 22.9099 9.18617 22.9558 9.74827C23 10.2895 23 10.9538 23 11.7588V16.2414C23 17.0464 23 17.7107 22.9558 18.2519C22.9099 18.814 22.8113 19.3307 22.564 19.8161C22.1805 20.5687 21.5686 21.1806 20.816 21.5641C20.3306 21.8114 19.8139 21.91 19.2518 21.9559C18.7106 22.0001 18.0463 22.0001 17.2413 22.0001H6.75868C5.95372 22.0001 5.28936 22.0001 4.74817 21.9559C4.18608 21.91 3.66937 21.8114 3.18404 21.5641C2.43139 21.1806 1.81947 20.5687 1.43597 19.8161C1.18868 19.3307 1.09012 18.814 1.04419 18.2519C0.999977 17.7107 0.999988 17.0464 1 16.2414V11.7588C0.999988 10.9538 0.999977 10.2895 1.04419 9.74827C1.09012 9.18617 1.18868 8.66947 1.43597 8.18413C1.81947 7.43149 2.43139 6.81956 3.18404 6.43607C3.66937 6.18878 4.18608 6.09022 4.74817 6.04429C5.28937 6.00007 5.95373 6.00008 6.7587 6.0001L7.00822 6.0001C7.02115 5.60829 7.05391 5.27229 7.1363 4.96482C7.50617 3.58445 8.58436 2.50626 9.96472 2.13639C10.4764 1.9993 11.067 1.99962 11.8624 2.00005ZM7 8.0001H6.8C5.94342 8.0001 5.36113 8.00087 4.91104 8.03765C4.47262 8.07347 4.24842 8.13839 4.09202 8.21808C3.7157 8.40983 3.40973 8.71579 3.21799 9.09212C3.1383 9.24852 3.07337 9.47272 3.03755 9.91113C3.00078 10.3612 3 10.9435 3 11.8001V16.2001C3 17.0567 3.00078 17.639 3.03755 18.0891C3.07337 18.5275 3.1383 18.7517 3.21799 18.9081C3.40973 19.2844 3.7157 19.5904 4.09202 19.7821C4.24842 19.8618 4.47262 19.9267 4.91104 19.9625C5.36113 19.9993 5.94342 20.0001 6.8 20.0001H7V8.0001ZM9 20.0001V8.0001H15V12.5001H12.8C12.7924 12.5001 12.7847 12.5001 12.7769 12.5001C12.6578 12.5 12.5155 12.5 12.3902 12.5102C12.245 12.5221 12.037 12.5525 11.819 12.6636C11.5368 12.8074 11.3073 13.0369 11.1635 13.3191C11.0524 13.5371 11.022 13.745 11.0101 13.8903C10.9999 14.0156 10.9999 14.1579 11 14.277C11 14.2848 11 14.2925 11 14.3001V16.7001C11 16.7077 11 16.7154 11 16.7232C10.9999 16.8423 10.9999 16.9846 11.0101 17.1099C11.022 17.2551 11.0524 17.4631 11.1635 17.6811C11.3073 17.9633 11.5368 18.1928 11.819 18.3366C12.037 18.4477 12.245 18.4781 12.3902 18.49C12.5155 18.5002 12.6578 18.5001 12.7769 18.5001C12.7847 18.5001 12.7924 18.5001 12.8 18.5001H15V20.0001H9ZM17 20.0001H17.2C18.0566 20.0001 18.6389 19.9993 19.089 19.9625C19.5274 19.9267 19.7516 19.8618 19.908 19.7821C20.2843 19.5904 20.5903 19.2844 20.782 18.9081C20.8617 18.7517 20.9266 18.5275 20.9624 18.0891C20.9992 17.639 21 17.0567 21 16.2001V11.8001C21 10.9435 20.9992 10.3612 20.9624 9.91113C20.9266 9.47272 20.8617 9.24852 20.782 9.09212C20.5903 8.71579 20.2843 8.40983 19.908 8.21808C19.7516 8.13839 19.5274 8.07347 19.089 8.03765C18.6389 8.00087 18.0566 8.0001 17.2 8.0001H17V12.5001H17.7C17.7076 12.5001 17.7153 12.5001 17.7231 12.5001C17.8422 12.5 17.9845 12.5 18.1098 12.5102C18.255 12.5221 18.463 12.5525 18.681 12.6636C18.9632 12.8074 19.1927 13.0369 19.3365 13.3191C19.4476 13.5371 19.478 13.745 19.4899 13.8903C19.5001 14.0156 19.5001 14.1578 19.5 14.2769C19.5 14.2848 19.5 14.2925 19.5 14.3001V16.7001C19.5 16.7077 19.5 16.7154 19.5 16.7232C19.5001 16.8424 19.5001 16.9846 19.4899 17.1099C19.478 17.2551 19.4476 17.4631 19.3365 17.6811C19.1927 17.9633 18.9632 18.1928 18.681 18.3366C18.463 18.4477 18.255 18.4781 18.1098 18.49C17.9845 18.5002 17.8422 18.5001 17.7231 18.5001C17.7153 18.5001 17.7076 18.5001 17.7 18.5001H17V20.0001ZM17.5 16.5001V14.5001H13V16.5001H17.5ZM14.9901 6.0001H9.00986C9.01905 5.74252 9.03632 5.60125 9.06815 5.48246C9.25308 4.79227 9.79218 4.25318 10.4824 4.06824C10.7046 4.00869 11.0056 4.0001 12 4.0001C12.9944 4.0001 13.2954 4.00869 13.5176 4.06824C14.2078 4.25318 14.7469 4.79227 14.9319 5.48246C14.9637 5.60125 14.981 5.74252 14.9901 6.0001Z" fill="#344054"/>
</svg>
