<svg width="24" height="24" viewBox="0 0 24 24" fill="none" xmlns="http://www.w3.org/2000/svg">
<path fill-rule="evenodd" clip-rule="evenodd" d="M11.5122 2.12705C11.8285 1.95032 12.2156 1.95847 12.5241 2.14834L17.8697 5.43795C18.039 5.54205 18.2193 5.65293 18.3615 5.75956C18.5074 5.86888 18.7503 6.0701 18.8862 6.40035C19.0481 6.79379 19.0353 7.23747 18.851 7.62093C18.6963 7.94279 18.4422 8.12966 18.2902 8.23039C18.142 8.32863 17.9557 8.42893 17.7807 8.52308C17.771 8.52828 17.7614 8.53346 17.7518 8.53862L13 11.0973V17C13 17.5523 12.5523 18 12 18C11.4477 18 11 17.5523 11 17V10.5205C10.9997 10.5074 10.9997 10.4943 11 10.4812V3C11 2.63772 11.1959 2.30377 11.5122 2.12705ZM13 8.82578L16.4981 6.94221L13 4.78956V8.82578ZM8.98121 13.1815C9.08776 13.7234 8.73483 14.2491 8.19292 14.3557C6.51131 14.6863 5.14894 15.2181 4.23474 15.8347C3.29844 16.4662 3 17.0598 3 17.5C3 18.104 3.59225 18.9839 5.3393 19.7701C6.99248 20.514 9.34649 21 12 21C14.6535 21 17.0075 20.514 18.6607 19.7701C20.4077 18.9839 21 18.104 21 17.5C21 17.0598 20.7016 16.4662 19.7653 15.8347C18.8511 15.2181 17.4887 14.6863 15.8071 14.3557C15.2652 14.2491 14.9122 13.7234 15.0188 13.1815C15.1253 12.6396 15.651 12.2867 16.1929 12.3932C18.0431 12.757 19.6807 13.3653 20.8836 14.1766C22.0643 14.9729 23 16.0949 23 17.5C23 19.3813 21.3537 20.7514 19.4814 21.5939C17.5153 22.4787 14.8693 23 12 23C9.13066 23 6.48468 22.4787 4.51857 21.5939C2.64633 20.7514 1 19.3813 1 17.5C1 16.0949 1.93566 14.9729 3.11641 14.1766C4.31925 13.3653 5.95688 12.757 7.80708 12.3932C8.34899 12.2867 8.87467 12.6396 8.98121 13.1815Z" fill="#344054"/>
</svg>
