<svg width="24" height="24" viewBox="0 0 24 24" fill="none" xmlns="http://www.w3.org/2000/svg">
<path fill-rule="evenodd" clip-rule="evenodd" d="M20.2391 3.76069L4.25438 9.99861L10.5339 12.4406C10.5407 12.4433 10.5487 12.4463 10.5576 12.4497C10.6446 12.4828 10.8243 12.5512 10.9843 12.6653C11.1196 12.7618 11.2379 12.8801 11.3344 13.0154C11.4485 13.1754 11.5169 13.3552 11.55 13.4421C11.5534 13.4511 11.5564 13.459 11.5591 13.4659L14.0011 19.7454L20.2391 3.76069ZM20.6472 1.47436C20.8303 1.42115 21.1988 1.32553 21.5946 1.45775C22.0417 1.60713 22.3926 1.95803 22.542 2.40518C22.6742 2.80095 22.5786 3.16941 22.5254 3.35259C22.4674 3.55222 22.3745 3.79014 22.2813 4.02885L15.6639 20.986C15.5598 21.2528 15.459 21.5112 15.3604 21.7107C15.2751 21.8831 15.0855 22.2494 14.6919 22.4539C14.2578 22.6794 13.741 22.6791 13.3072 22.4531C12.9139 22.2481 12.7246 21.8816 12.6396 21.7091C12.5412 21.5095 12.4407 21.251 12.3369 20.984L9.72699 14.2728L3.05101 11.6765C3.03924 11.672 3.02748 11.6674 3.01574 11.6628C2.74878 11.5591 2.49024 11.4585 2.29065 11.3602C2.11819 11.2751 1.75163 11.0859 1.54668 10.6925C1.32067 10.2587 1.32036 9.74196 1.54586 9.3079C1.75035 8.91429 2.11669 8.72461 2.28905 8.63938C2.48853 8.54075 2.74695 8.43994 3.01379 8.33585C3.02552 8.33127 3.03727 8.32669 3.04904 8.3221L19.9709 1.71844C20.2096 1.62524 20.4475 1.53235 20.6472 1.47436Z" fill="#344054"/>
</svg>
