<svg width="24" height="24" viewBox="0 0 24 24" fill="none" xmlns="http://www.w3.org/2000/svg">
<path fill-rule="evenodd" clip-rule="evenodd" d="M1.29289 1.29289C1.68342 0.902369 2.31658 0.902369 2.70711 1.29289L22.7071 21.2929C23.0976 21.6834 23.0976 22.3166 22.7071 22.7071C22.3166 23.0976 21.6834 23.0976 21.2929 22.7071L20.872 22.2862C20.713 22.4312 20.5226 22.5423 20.3116 22.6088C19.8885 22.742 19.4955 22.6166 19.3134 22.5548C19.1027 22.4833 18.8488 22.3715 18.5867 22.2561L11.9956 19.356L5.40454 22.2561C5.14238 22.3715 4.88848 22.4832 4.67775 22.5548C4.49569 22.6166 4.10267 22.742 3.6796 22.6088C3.21304 22.4618 2.84743 22.0967 2.69995 21.6303C2.56622 21.2074 2.69114 20.8142 2.75275 20.6321C2.82406 20.4213 2.93551 20.1672 3.05059 19.905L7.75796 9.17217L1.29289 2.70711C0.902369 2.31658 0.902369 1.68342 1.29289 1.29289ZM9.27604 10.6903L5.10357 20.2035L11.2706 17.49C11.2774 17.487 11.2851 17.4835 11.2938 17.4796C11.3787 17.4415 11.5542 17.3628 11.748 17.3304C11.9119 17.3029 12.0792 17.3029 12.2431 17.3304C12.4369 17.3628 12.6124 17.4415 12.6973 17.4796C12.706 17.4835 12.7138 17.487 12.7205 17.49L18.712 20.1262L9.27604 10.6903ZM11.3258 1.90278C11.7476 1.69223 12.2438 1.69223 12.6656 1.90278C13.039 2.08915 13.2319 2.4173 13.3238 2.58445C13.424 2.76662 13.5265 3.00055 13.6294 3.23524C13.6343 3.24642 13.6392 3.2576 13.6441 3.26878L16.8164 10.5016C17.0382 11.0074 16.8081 11.5972 16.3023 11.8191C15.7965 12.0409 15.2067 11.8107 14.9848 11.3049L11.9957 4.4897L11.387 5.87744C11.1652 6.38321 10.5754 6.61339 10.0696 6.39156C9.56381 6.16973 9.33362 5.57989 9.55546 5.07411L10.3473 3.26877C10.3522 3.2576 10.3571 3.24641 10.362 3.23523C10.4649 3.00054 10.5674 2.76662 10.6676 2.58445C10.7595 2.4173 10.9524 2.08915 11.3258 1.90278Z" fill="#344054"/>
</svg>
