<svg width="24" height="24" viewBox="0 0 24 24" fill="none" xmlns="http://www.w3.org/2000/svg">
<path fill-rule="evenodd" clip-rule="evenodd" d="M17.0263 2.11716C18.3796 0.719346 20.6157 0.701264 21.9914 2.07701C23.3295 3.41506 23.3544 5.57666 22.0475 6.94519L19.2689 9.85496C19.1524 9.97686 19.0936 10.039 19.0533 10.0863C19.0521 10.0877 19.051 10.089 19.05 10.0902C19.0502 10.0918 19.0505 10.0935 19.0508 10.0952C19.0614 10.1565 19.0802 10.24 19.1182 10.4042L20.846 17.8918C20.851 17.9133 20.8562 17.9354 20.8615 17.958C20.9185 18.2011 20.9902 18.507 20.9661 18.8191C20.9453 19.0892 20.8699 19.3522 20.7444 19.5922C20.5994 19.8696 20.3765 20.091 20.1993 20.2669C20.1828 20.2833 20.1667 20.2993 20.1511 20.3149L19.7512 20.7148C19.4732 20.9928 19.2182 21.2479 18.9923 21.436C18.7596 21.6296 18.4423 21.8541 18.028 21.9274C17.4863 22.0232 16.929 21.8916 16.4873 21.5637C16.1495 21.3128 15.9661 20.9702 15.8446 20.6929C15.7266 20.4236 15.6126 20.0814 15.4883 19.7084L13.9772 15.1751L11.776 17.3763C11.6692 17.4832 11.6156 17.5372 11.5785 17.5782C11.5775 17.5794 11.5766 17.5804 11.5756 17.5815C11.5757 17.5829 11.5758 17.5843 11.5759 17.5858C11.5791 17.641 11.5872 17.7167 11.6039 17.8668L11.7876 19.5202C11.7898 19.5393 11.792 19.5589 11.7943 19.579C11.8191 19.7962 11.8503 20.0696 11.8068 20.3427C11.769 20.5793 11.6891 20.8072 11.5707 21.0155C11.4341 21.256 11.239 21.45 11.0839 21.6041C11.0696 21.6183 11.0556 21.6323 11.042 21.6458L10.8445 21.8433L10.8191 21.8688C10.6046 22.0833 10.4003 22.2876 10.2152 22.443C10.0161 22.61 9.75684 22.7935 9.41715 22.882C8.95606 23.0022 8.46722 22.9538 8.03864 22.7455C7.72291 22.5921 7.50462 22.3613 7.34218 22.1585C7.19114 21.9698 7.03093 21.7295 6.8627 21.4771L5.27438 19.0946C5.23878 19.0412 5.22135 19.0152 5.20825 18.9965C5.20794 18.996 5.20764 18.9956 5.20735 18.9952C5.20695 18.9949 5.20653 18.9946 5.20609 18.9943C5.1874 18.9812 5.16137 18.9638 5.10797 18.9282L2.72551 17.3399C2.47309 17.1716 2.23272 17.0114 2.04408 16.8604C1.84121 16.6979 1.61049 16.4796 1.45707 16.1639C1.24881 15.7353 1.2004 15.2465 1.32057 14.7854C1.40909 14.4457 1.59253 14.1864 1.75959 13.9874C1.91495 13.8022 2.11924 13.598 2.33377 13.3835L2.55673 13.1605C2.5703 13.147 2.5842 13.133 2.59844 13.1187C2.75255 12.9636 2.94654 12.7684 3.18704 12.6318C3.39536 12.5135 3.62325 12.4335 3.85986 12.3958C4.13299 12.3522 4.40639 12.3835 4.62359 12.4083C4.64367 12.4106 4.66326 12.4128 4.68233 12.4149L6.33572 12.5986C6.48589 12.6153 6.56155 12.6234 6.61674 12.6267C6.61825 12.6268 6.6197 12.6269 6.62109 12.6269C6.62212 12.626 6.6232 12.625 6.62432 12.624C6.66538 12.587 6.7194 12.5334 6.82624 12.4266L9.02744 10.2254L4.49411 8.71426C4.12115 8.58997 3.77891 8.47593 3.50966 8.35793C3.23236 8.23641 2.88973 8.05304 2.63889 7.71523C2.31093 7.27356 2.17937 6.71629 2.27519 6.17457C2.34847 5.76025 2.57292 5.44301 2.7666 5.2103C2.95466 4.98435 3.20977 4.72929 3.48777 4.45133C3.49745 4.44165 3.50715 4.43195 3.51688 4.42222L3.88765 4.05145C3.90326 4.03585 3.91925 4.01974 3.93563 4.00325C4.11159 3.82606 4.33293 3.60319 4.61037 3.45814C4.85039 3.33265 5.1134 3.25722 5.38344 3.23642C5.69559 3.21238 6.00141 3.28407 6.24452 3.34106C6.26716 3.34637 6.28926 3.35155 6.31076 3.35651L13.7699 5.07785C13.9355 5.11606 14.02 5.13519 14.082 5.14586C14.0839 5.14618 14.0856 5.14648 14.0873 5.14676C14.0885 5.14561 14.0899 5.14441 14.0912 5.14314C14.1375 5.10048 14.198 5.03847 14.3162 4.91638L17.0263 2.11716ZM20.5772 3.49122C19.9915 2.90547 19.0394 2.91317 18.4632 3.50832L15.7531 6.30753C15.738 6.32313 15.7225 6.33922 15.7067 6.3557C15.5367 6.53252 15.323 6.75476 15.0541 6.90294C14.8005 7.04277 14.5195 7.12583 14.2305 7.14637C13.9244 7.16815 13.6242 7.0978 13.3853 7.04183C13.3631 7.03661 13.3413 7.03152 13.3202 7.02663L5.86104 5.30529C5.6925 5.2664 5.6066 5.24697 5.5436 5.23621C5.54179 5.2359 5.54005 5.2356 5.53839 5.23533C5.53713 5.23644 5.53581 5.23761 5.53444 5.23883C5.48672 5.28135 5.42418 5.34335 5.30187 5.46567L4.93109 5.83644C4.61423 6.1533 4.42601 6.34293 4.30383 6.48973C4.2968 6.49818 4.29032 6.50611 4.28435 6.51353C4.29301 6.5175 4.30235 6.5217 4.31242 6.52611C4.48736 6.60277 4.7405 6.6882 5.16562 6.82991L11.1949 8.83967C11.5237 8.94927 11.7723 9.22129 11.8519 9.5586C11.9315 9.89591 11.8308 10.2504 11.5858 10.4955L8.24046 13.8408C8.22689 13.8544 8.21299 13.8683 8.19874 13.8827C8.04463 14.0377 7.85065 14.2329 7.61015 14.3695C7.40182 14.4878 7.17393 14.5678 6.93733 14.6055C6.6642 14.6491 6.3908 14.6179 6.17359 14.5931C6.15352 14.5908 6.13392 14.5885 6.11486 14.5864L4.46147 14.4027C4.3113 14.386 4.23563 14.3779 4.18045 14.3746C4.17894 14.3746 4.17749 14.3745 4.1761 14.3744C4.17507 14.3753 4.17399 14.3763 4.17287 14.3773C4.13181 14.4143 4.07779 14.4679 3.97095 14.5748L3.77344 14.7723C3.52416 15.0215 3.38373 15.1632 3.29157 15.2731C3.28732 15.2781 3.28336 15.2829 3.27966 15.2874C3.28417 15.2911 3.289 15.2951 3.29416 15.2992C3.40607 15.3888 3.57156 15.5002 3.86489 15.6958L6.21737 17.2641C6.22406 17.2685 6.23094 17.2731 6.23798 17.2778C6.31584 17.3295 6.41392 17.3948 6.50607 17.4734C6.58621 17.5418 6.6608 17.6164 6.72917 17.6965C6.80781 17.7886 6.87301 17.8867 6.92477 17.9646C6.92945 17.9716 6.93402 17.9785 6.93848 17.9852L8.5068 20.3377C8.70235 20.631 8.81376 20.7965 8.90337 20.9084C8.9075 20.9136 8.91142 20.9184 8.91513 20.9229C8.91965 20.9192 8.92444 20.9152 8.9295 20.911C9.03932 20.8188 9.18102 20.6784 9.43029 20.4291L9.6278 20.2316C9.73464 20.1248 9.78823 20.0707 9.82526 20.0297C9.82627 20.0286 9.82724 20.0275 9.82816 20.0265C9.82808 20.0251 9.828 20.0236 9.82791 20.0221C9.82465 19.9669 9.81655 19.8913 9.79987 19.7411L9.61616 18.0877C9.61404 18.0686 9.6118 18.049 9.60951 18.029C9.5847 17.8118 9.55348 17.5384 9.59704 17.2652C9.63478 17.0286 9.71472 16.8007 9.83305 16.5924C9.96966 16.3519 10.1648 16.1579 10.3199 16.0038C10.3342 15.9896 10.3482 15.9757 10.3618 15.9621L13.7071 12.6168C13.9522 12.3717 14.3067 12.271 14.644 12.3506C14.9813 12.4303 15.2533 12.6789 15.3629 13.0077L17.3727 19.0369C17.5144 19.4621 17.5998 19.7152 17.6765 19.8901C17.6809 19.9002 17.6851 19.9095 17.689 19.9182C17.6965 19.9122 17.7044 19.9058 17.7128 19.8987C17.8596 19.7765 18.0493 19.5883 18.3661 19.2715L18.7369 18.9007C18.8592 18.7784 18.9212 18.7158 18.9637 18.6681C18.9649 18.6667 18.9661 18.6654 18.9672 18.6642C18.967 18.6625 18.9667 18.6608 18.9664 18.659C18.9556 18.596 18.9362 18.5101 18.8973 18.3415L17.1694 10.854C17.1645 10.833 17.1595 10.8115 17.1543 10.7895C17.0988 10.5525 17.0289 10.2543 17.0503 9.94918C17.0688 9.68519 17.1395 9.4275 17.2583 9.19103C17.3956 8.91777 17.6079 8.69698 17.7766 8.52148C17.7923 8.50517 17.8076 8.48924 17.8224 8.4737L20.6011 5.56394C21.1575 4.98126 21.1469 4.06092 20.5772 3.49122Z" fill="#344054"/>
</svg>
