<svg width="24" height="24" viewBox="0 0 24 24" fill="none" xmlns="http://www.w3.org/2000/svg">
<path fill-rule="evenodd" clip-rule="evenodd" d="M5.16146 3H18.8385C19.3657 2.99998 19.8205 2.99997 20.195 3.03057C20.5904 3.06287 20.9836 3.13419 21.362 3.32698C21.9265 3.6146 22.3854 4.07354 22.673 4.63803C22.8658 5.01641 22.9371 5.40963 22.9694 5.80497C23 6.17954 23 6.6343 23 7.16144V8.5C23 9.05229 22.5523 9.5 22 9.5C20.6193 9.5 19.5 10.6193 19.5 12C19.5 13.3807 20.6193 14.5 22 14.5C22.5523 14.5 23 14.9477 23 15.5V16.8386C23 17.3657 23 17.8205 22.9694 18.195C22.9371 18.5904 22.8658 18.9836 22.673 19.362C22.3854 19.9265 21.9265 20.3854 21.362 20.673C20.9836 20.8658 20.5904 20.9371 20.195 20.9694C19.8205 21 19.3657 21 18.8386 21H5.16144C4.6343 21 4.17954 21 3.80497 20.9694C3.40963 20.9371 3.01641 20.8658 2.63803 20.673C2.07354 20.3854 1.6146 19.9265 1.32698 19.362C1.13419 18.9836 1.06287 18.5904 1.03057 18.195C0.999967 17.8205 0.999983 17.3657 1 16.8385L1 15.5C1 14.9477 1.44772 14.5 2 14.5C3.38071 14.5 4.5 13.3807 4.5 12C4.5 10.6193 3.38071 9.5 2 9.5C1.44772 9.5 1 9.05229 1 8.5L1 7.16146C0.999983 6.63431 0.999967 6.17955 1.03057 5.80497C1.06287 5.40963 1.13419 5.01641 1.32698 4.63803C1.6146 4.07354 2.07354 3.6146 2.63803 3.32698C3.01641 3.13419 3.40963 3.06287 3.80497 3.03057C4.17955 2.99997 4.63431 2.99998 5.16146 3ZM3.96784 5.02393C3.69617 5.04612 3.59546 5.0838 3.54601 5.109C3.35785 5.20487 3.20487 5.35785 3.109 5.54601C3.0838 5.59546 3.04612 5.69617 3.02393 5.96784C3.00078 6.25117 3 6.62345 3 7.2V7.61151C5.00399 8.06624 6.5 9.85841 6.5 12C6.5 14.1416 5.00399 15.9338 3 16.3885V16.8C3 17.3766 3.00078 17.7488 3.02393 18.0322C3.04612 18.3038 3.0838 18.4045 3.109 18.454C3.20487 18.6422 3.35785 18.7951 3.54601 18.891C3.59546 18.9162 3.69617 18.9539 3.96784 18.9761C4.25118 18.9992 4.62345 19 5.2 19H18.8C19.3766 19 19.7488 18.9992 20.0322 18.9761C20.3038 18.9539 20.4045 18.9162 20.454 18.891C20.6422 18.7951 20.7951 18.6422 20.891 18.454C20.9162 18.4046 20.9539 18.3038 20.9761 18.0322C20.9992 17.7488 21 17.3766 21 16.8V16.3885C18.996 15.9338 17.5 14.1416 17.5 12C17.5 9.85841 18.996 8.06624 21 7.61151V7.2C21 6.62345 20.9992 6.25118 20.9761 5.96784C20.9539 5.69617 20.9162 5.59546 20.891 5.54601C20.7951 5.35785 20.6422 5.20487 20.454 5.109C20.4045 5.0838 20.3038 5.04612 20.0322 5.02393C19.7488 5.00078 19.3766 5 18.8 5H5.2C4.62345 5 4.25117 5.00078 3.96784 5.02393ZM10 6C10.5523 6 11 6.44772 11 7V8C11 8.55229 10.5523 9 10 9C9.44772 9 9 8.55229 9 8V7C9 6.44772 9.44772 6 10 6ZM10 10.5C10.5523 10.5 11 10.9477 11 11.5V12.5C11 13.0523 10.5523 13.5 10 13.5C9.44772 13.5 9 13.0523 9 12.5V11.5C9 10.9477 9.44772 10.5 10 10.5ZM10 15C10.5523 15 11 15.4477 11 16V17C11 17.5523 10.5523 18 10 18C9.44772 18 9 17.5523 9 17V16C9 15.4477 9.44772 15 10 15Z" fill="#344054"/>
</svg>
