<svg width="24" height="24" viewBox="0 0 24 24" fill="none" xmlns="http://www.w3.org/2000/svg">
<path fill-rule="evenodd" clip-rule="evenodd" d="M6.7587 3H17.2413C18.0463 2.99999 18.7106 2.99998 19.2518 3.04419C19.8139 3.09012 20.3306 3.18868 20.816 3.43597C21.5686 3.81947 22.1805 4.43139 22.564 5.18404C22.8113 5.66937 22.9099 6.18608 22.9558 6.74817C23 7.28936 23 7.95372 23 8.75868V15.2413C23 16.0463 23 16.7106 22.9558 17.2518C22.9099 17.8139 22.8113 18.3306 22.564 18.816C22.1805 19.5686 21.5686 20.1805 20.816 20.564C20.3306 20.8113 19.8139 20.9099 19.2518 20.9558C18.7106 21 18.0463 21 17.2413 21H6.75868C5.95372 21 5.28936 21 4.74817 20.9558C4.18608 20.9099 3.66937 20.8113 3.18404 20.564C2.43139 20.1805 1.81947 19.5686 1.43597 18.816C1.18868 18.3306 1.09012 17.8139 1.04419 17.2518C0.999977 16.7106 0.999988 16.0463 1 15.2413V8.7587C0.999988 7.95373 0.999977 7.28937 1.04419 6.74817C1.09012 6.18608 1.18868 5.66937 1.43597 5.18404C1.81947 4.43139 2.43139 3.81947 3.18404 3.43597C3.66937 3.18868 4.18608 3.09012 4.74817 3.04419C5.28937 2.99998 5.95373 2.99999 6.7587 3ZM4.91104 5.03755C4.47262 5.07337 4.24842 5.1383 4.09202 5.21799C3.7157 5.40973 3.40973 5.7157 3.21799 6.09202C3.1383 6.24842 3.07337 6.47262 3.03755 6.91104C3.00078 7.36113 3 7.94342 3 8.8V15.2C3 16.0566 3.00078 16.6389 3.03755 17.089C3.07337 17.5274 3.1383 17.7516 3.21799 17.908C3.40973 18.2843 3.7157 18.5903 4.09202 18.782C4.24842 18.8617 4.47262 18.9266 4.91104 18.9624C5.36113 18.9992 5.94342 19 6.8 19H17.2C18.0566 19 18.6389 18.9992 19.089 18.9624C19.5274 18.9266 19.7516 18.8617 19.908 18.782C20.2843 18.5903 20.5903 18.2843 20.782 17.908C20.8617 17.7516 20.9266 17.5274 20.9624 17.089C20.9992 16.6389 21 16.0566 21 15.2V8.8C21 7.94342 20.9992 7.36113 20.9624 6.91104C20.9266 6.47262 20.8617 6.24842 20.782 6.09202C20.5903 5.7157 20.2843 5.40973 19.908 5.21799C19.7516 5.1383 19.5274 5.07337 19.089 5.03755C18.6389 5.00078 18.0566 5 17.2 5H6.8C5.94342 5 5.36113 5.00078 4.91104 5.03755ZM8 6C8.55229 6 9 6.44772 9 7V8C9 8.55229 8.55229 9 8 9C7.44772 9 7 8.55229 7 8V7C7 6.44772 7.44772 6 8 6ZM8 10.5C8.55229 10.5 9 10.9477 9 11.5V12.5C9 13.0523 8.55229 13.5 8 13.5C7.44772 13.5 7 13.0523 7 12.5V11.5C7 10.9477 7.44772 10.5 8 10.5ZM8 15C8.55229 15 9 15.4477 9 16V17C9 17.5523 8.55229 18 8 18C7.44772 18 7 17.5523 7 17V16C7 15.4477 7.44772 15 8 15Z" fill="#344054"/>
</svg>
