<svg width="24" height="24" viewBox="0 0 24 24" fill="none" xmlns="http://www.w3.org/2000/svg">
<path fill-rule="evenodd" clip-rule="evenodd" d="M7 2C7 1.44772 7.44772 1 8 1H16C16.5523 1 17 1.44772 17 2C17 2.55228 16.5523 3 16 3H13V4L15.2413 4C16.0463 3.99999 16.7106 3.99998 17.2518 4.04419C17.8139 4.09012 18.3306 4.18868 18.816 4.43597C19.5686 4.81947 20.1805 5.43139 20.564 6.18404C20.8113 6.66937 20.9099 7.18608 20.9558 7.74817C21 8.28936 21 8.95372 21 9.75868V14.2413C21 15.0463 21 15.7106 20.9558 16.2518C20.9099 16.8139 20.8113 17.3306 20.564 17.816C20.1805 18.5686 19.5686 19.1805 18.816 19.564C18.7038 19.6212 18.5901 19.6703 18.4744 19.7128L19.3944 21.5528C19.6414 22.0468 19.4412 22.6474 18.9472 22.8944C18.4532 23.1414 17.8526 22.9412 17.6056 22.4472L16.3789 19.9939C16.0357 20 15.6573 20 15.2413 20H8.75868C8.34274 20 7.96434 20 7.62108 19.9939L6.39443 22.4472C6.14744 22.9412 5.54677 23.1414 5.05279 22.8944C4.55881 22.6474 4.35858 22.0468 4.60557 21.5528L5.52558 19.7128C5.40994 19.6703 5.29615 19.6212 5.18404 19.564C4.43139 19.1805 3.81947 18.5686 3.43597 17.816C3.18868 17.3306 3.09012 16.8139 3.04419 16.2518C2.99998 15.7106 2.99999 15.0463 3 14.2413V9.7587C2.99999 8.95373 2.99998 8.28937 3.04419 7.74817C3.09012 7.18608 3.18868 6.66937 3.43597 6.18404C3.81947 5.43139 4.43139 4.81947 5.18404 4.43597C5.66937 4.18868 6.18608 4.09012 6.74818 4.04419C7.28937 3.99998 7.95373 3.99999 8.7587 4L11 4V3H8C7.44772 3 7 2.55228 7 2ZM8.8 6C7.94342 6 7.36113 6.00078 6.91104 6.03755C6.47262 6.07337 6.24842 6.1383 6.09202 6.21799C5.7157 6.40973 5.40973 6.71569 5.21799 7.09202C5.1383 7.24842 5.07337 7.47262 5.03755 7.91104C5.00078 8.36113 5 8.94342 5 9.8V11H19V9.8C19 8.94342 18.9992 8.36113 18.9624 7.91104C18.9266 7.47262 18.8617 7.24842 18.782 7.09202C18.5903 6.71569 18.2843 6.40973 17.908 6.21799C17.7516 6.1383 17.5274 6.07337 17.089 6.03755C16.6389 6.00078 16.0566 6 15.2 6H8.8ZM19 13H5V14.2C5 15.0566 5.00078 15.6389 5.03755 16.089C5.07337 16.5274 5.1383 16.7516 5.21799 16.908C5.40973 17.2843 5.7157 17.5903 6.09202 17.782C6.24842 17.8617 6.47262 17.9266 6.91104 17.9624C7.36113 17.9992 7.94342 18 8.8 18H15.2C16.0566 18 16.6389 17.9992 17.089 17.9624C17.5274 17.9266 17.7516 17.8617 17.908 17.782C18.2843 17.5903 18.5903 17.2843 18.782 16.908C18.8617 16.7516 18.9266 16.5274 18.9624 16.089C18.9992 15.6389 19 15.0566 19 14.2V13ZM7 15.5C7 14.6716 7.67157 14 8.5 14C9.32843 14 10 14.6716 10 15.5C10 16.3284 9.32843 17 8.5 17C7.67157 17 7 16.3284 7 15.5ZM14 15.5C14 14.6716 14.6716 14 15.5 14C16.3284 14 17 14.6716 17 15.5C17 16.3284 16.3284 17 15.5 17C14.6716 17 14 16.3284 14 15.5ZM8.5 22C8.5 21.4477 8.94772 21 9.5 21H14.5C15.0523 21 15.5 21.4477 15.5 22C15.5 22.5523 15.0523 23 14.5 23H9.5C8.94772 23 8.5 22.5523 8.5 22Z" fill="#344054"/>
</svg>
