<svg width="24" height="24" viewBox="0 0 24 24" fill="none" xmlns="http://www.w3.org/2000/svg">
<path fill-rule="evenodd" clip-rule="evenodd" d="M5.16146 2H12.8385C13.3657 1.99998 13.8205 1.99997 14.195 2.03057C14.5904 2.06287 14.9836 2.13419 15.362 2.32698C15.9265 2.6146 16.3854 3.07354 16.673 3.63803C16.8658 4.01641 16.9371 4.40963 16.9694 4.80497C17 5.17955 17 5.63432 17 6.16148V7H18.3373C18.3538 7 18.3709 6.99996 18.3883 6.99991C18.5782 6.9994 18.8173 6.99876 19.0527 7.05526C19.2568 7.10426 19.4518 7.18507 19.6308 7.29472C19.8371 7.42117 20.0058 7.59072 20.1397 7.72537C20.152 7.73773 20.164 7.74981 20.1757 7.76152L22.2385 9.82427C22.2502 9.83599 22.2623 9.848 22.2746 9.8603C22.4093 9.99422 22.5788 10.1629 22.7053 10.3692C22.8149 10.5482 22.8957 10.7433 22.9447 10.9473C23.0012 11.1827 23.0006 11.4218 23.0001 11.6117C23 11.6292 23 11.6462 23 11.6627L23 14.4319C23 14.6843 23.0001 14.9301 22.9831 15.1382C22.9644 15.3668 22.9203 15.6366 22.782 15.908C22.5903 16.2843 22.2843 16.5903 21.908 16.782C21.6366 16.9203 21.3668 16.9644 21.1382 16.9831C20.9944 16.9948 20.8325 16.9984 20.663 16.9995C20.8791 17.4543 21 17.963 21 18.5C21 20.433 19.433 22 17.5 22C15.567 22 14 20.433 14 18.5C14 17.9632 14.1208 17.4546 14.3368 17H9.66319C9.87916 17.4546 10 17.9632 10 18.5C10 20.433 8.433 22 6.5 22C4.56701 22 3 20.433 3 18.5C3 17.9296 3.13643 17.3911 3.37844 16.9154C3.12779 16.8698 2.87988 16.7962 2.63803 16.673C2.07354 16.3854 1.6146 15.9265 1.32698 15.362C1.13419 14.9836 1.06287 14.5904 1.03057 14.195C0.999967 13.8205 0.999983 13.3657 1 12.8385V6.16146C0.999983 5.63431 0.999967 5.17955 1.03057 4.80497C1.06287 4.40963 1.13419 4.01641 1.32698 3.63803C1.6146 3.07354 2.07354 2.6146 2.63803 2.32698C3.01641 2.13419 3.40963 2.06287 3.80497 2.03057C4.17955 1.99997 4.63431 1.99998 5.16146 2ZM6.5 17C5.67157 17 5 17.6716 5 18.5C5 19.3284 5.67157 20 6.5 20C7.32843 20 8 19.3284 8 18.5C8 17.6716 7.32843 17 6.5 17ZM15 15V6.2C15 5.62345 14.9992 5.25118 14.9761 4.96784C14.9539 4.69617 14.9162 4.59546 14.891 4.54601C14.7951 4.35785 14.6422 4.20487 14.454 4.109C14.4045 4.0838 14.3038 4.04612 14.0322 4.02393C13.7488 4.00078 13.3766 4 12.8 4H5.2C4.62345 4 4.25117 4.00078 3.96784 4.02393C3.69617 4.04612 3.59546 4.0838 3.54601 4.109C3.35785 4.20487 3.20487 4.35785 3.109 4.54601C3.0838 4.59546 3.04612 4.69617 3.02393 4.96784C3.00078 5.25117 3 5.62345 3 6.2V12.8C3 13.3766 3.00078 13.7488 3.02393 14.0322C3.04612 14.3038 3.0838 14.4045 3.109 14.454C3.20487 14.6422 3.35785 14.7951 3.54601 14.891C3.59546 14.9162 3.69617 14.9539 3.96784 14.9761C4.25117 14.9992 4.62345 15 5.2 15H15ZM17 9V15H20.4C20.6965 15 20.8588 14.9992 20.9754 14.9897C20.98 14.9893 20.9844 14.9889 20.9886 14.9885C20.9889 14.9844 20.9893 14.98 20.9897 14.9754C20.9992 14.8588 21 14.6965 21 14.4V11.6627C21 11.5317 20.9998 11.4664 20.9976 11.4189C20.9975 11.4176 20.9975 11.4164 20.9974 11.4153C20.9966 11.4144 20.9958 11.4135 20.995 11.4126C20.963 11.3775 20.9169 11.3311 20.8243 11.2385L18.7615 9.17574C18.6689 9.08311 18.6225 9.03704 18.5874 9.005C18.5865 9.00416 18.5856 9.00335 18.5847 9.00258C18.5836 9.00253 18.5824 9.00247 18.5811 9.00241C18.5336 9.00024 18.4683 9 18.3373 9H17ZM17.5 17C16.6716 17 16 17.6716 16 18.5C16 19.3284 16.6716 20 17.5 20C18.3284 20 19 19.3284 19 18.5C19 17.6716 18.3284 17 17.5 17Z" fill="#344054"/>
</svg>
