<svg width="24" height="24" viewBox="0 0 24 24" fill="none" xmlns="http://www.w3.org/2000/svg">
<path fill-rule="evenodd" clip-rule="evenodd" d="M5.16146 3H10.8385C11.3657 2.99998 11.8205 2.99997 12.195 3.03057C12.5904 3.06287 12.9836 3.13419 13.362 3.32698C13.9265 3.6146 14.3854 4.07354 14.673 4.63803C14.8658 5.01641 14.9371 5.40963 14.9694 5.80497C14.9746 5.86774 14.9788 5.93277 14.9824 6H16.3373C16.3538 6 16.3709 5.99996 16.3883 5.99991C16.5782 5.9994 16.8173 5.99876 17.0527 6.05526C17.2568 6.10426 17.4518 6.18506 17.6308 6.29472C17.8371 6.42118 18.0058 6.59073 18.1397 6.72537C18.152 6.73774 18.164 6.74981 18.1757 6.76152L22.2385 10.8243C22.2502 10.836 22.2623 10.848 22.2746 10.8603C22.4093 10.9942 22.5788 11.1629 22.7053 11.3692C22.8149 11.5482 22.8957 11.7433 22.9447 11.9473C23.0012 12.1827 23.0006 12.4218 23.0001 12.6117C23 12.6292 23 12.6462 23 12.6627V15.5265C23 15.7365 23 15.9411 22.9882 16.1152C22.9752 16.3056 22.9447 16.5313 22.8478 16.7654C22.6448 17.2554 22.2554 17.6448 21.7654 17.8478C21.6656 17.8891 21.5673 17.9183 21.4727 17.9393C21.2566 19.6649 19.7842 21 18 21C16.2368 21 14.7781 19.6961 14.5354 18H10.874C10.4299 19.7252 8.86384 21 7 21C5.08622 21 3.48636 19.656 3.09276 17.8604C1.87937 17.4759 1 16.3406 1 15L1 7.16146C0.999983 6.63431 0.999967 6.17955 1.03057 5.80497C1.06287 5.40963 1.13419 5.01641 1.32698 4.63803C1.6146 4.07354 2.07354 3.6146 2.63803 3.32698C3.01641 3.13419 3.40963 3.06287 3.80497 3.03057C4.17955 2.99997 4.63431 2.99998 5.16146 3ZM3.23547 15.6446C3.79077 14.1026 5.26663 13 7 13C8.86384 13 10.4299 14.2748 10.874 16H13V7.2C13 6.62345 12.9992 6.25118 12.9761 5.96784C12.9539 5.69617 12.9162 5.59546 12.891 5.54601C12.7951 5.35785 12.6422 5.20487 12.454 5.109C12.4045 5.0838 12.3038 5.04612 12.0322 5.02393C11.7488 5.00078 11.3766 5 10.8 5H5.2C4.62345 5 4.25118 5.00078 3.96784 5.02393C3.69617 5.04612 3.59546 5.0838 3.54601 5.109C3.35785 5.20487 3.20487 5.35785 3.109 5.54601C3.0838 5.59546 3.04612 5.69617 3.02393 5.96784C3.00078 6.25117 3 6.62345 3 7.2V15C3 15.2456 3.08855 15.4706 3.23547 15.6446ZM15 15.6962V8H16.3373C16.4683 8 16.5336 8.00024 16.5811 8.00241C16.5824 8.00247 16.5836 8.00253 16.5847 8.00258C16.5856 8.00335 16.5865 8.00416 16.5874 8.005C16.6225 8.03704 16.6689 8.08311 16.7615 8.17574L20.8243 12.2385C20.9169 12.3311 20.963 12.3775 20.995 12.4126C20.9958 12.4135 20.9966 12.4144 20.9974 12.4153C20.9975 12.4164 20.9975 12.4176 20.9976 12.4189C20.9998 12.4664 21 12.5317 21 12.6627V15.5C21 15.5748 21 15.6394 20.9997 15.6957C20.3872 14.6796 19.273 14 18 14C16.7268 14 15.6125 14.6798 15 15.6962ZM7 15C5.89543 15 5 15.8954 5 17C5 18.1046 5.89543 19 7 19C8.10457 19 9 18.1046 9 17C9 15.8954 8.10457 15 7 15ZM18 16C17.1716 16 16.5 16.6716 16.5 17.5C16.5 18.3284 17.1716 19 18 19C18.8284 19 19.5 18.3284 19.5 17.5C19.5 16.6716 18.8284 16 18 16Z" fill="#344054"/>
</svg>
