<svg width="24" height="24" viewBox="0 0 24 24" fill="none" xmlns="http://www.w3.org/2000/svg">
<path fill-rule="evenodd" clip-rule="evenodd" d="M8.7587 1H15.2413C16.0463 0.999988 16.7106 0.999977 17.2518 1.04419C17.8139 1.09012 18.3306 1.18868 18.816 1.43597C19.5686 1.81947 20.1805 2.43139 20.564 3.18404C20.8113 3.66937 20.9099 4.18608 20.9558 4.74817C21 5.28936 21 5.95372 21 6.75868V9.5C21 10.0523 20.5523 10.5 20 10.5C19.4477 10.5 19 10.0523 19 9.5V6.8C19 5.94342 18.9992 5.36113 18.9624 4.91104C18.9266 4.47262 18.8617 4.24842 18.782 4.09202C18.5903 3.7157 18.2843 3.40973 17.908 3.21799C17.7516 3.1383 17.5274 3.07337 17.089 3.03755C16.6389 3.00078 16.0566 3 15.2 3H8.8C7.94342 3 7.36113 3.00078 6.91104 3.03755C6.47262 3.07337 6.24842 3.1383 6.09202 3.21799C5.7157 3.40973 5.40973 3.7157 5.21799 4.09202C5.1383 4.24842 5.07337 4.47262 5.03755 4.91104C5.00078 5.36113 5 5.94342 5 6.8V17.2C5 18.0566 5.00078 18.6389 5.03755 19.089C5.07337 19.5274 5.1383 19.7516 5.21799 19.908C5.40973 20.2843 5.7157 20.5903 6.09202 20.782C6.24842 20.8617 6.47262 20.9266 6.91104 20.9624C7.36113 20.9992 7.94342 21 8.8 21H14C14.5523 21 15 21.4477 15 22C15 22.5523 14.5523 23 14 23H8.75868C7.95372 23 7.28936 23 6.74817 22.9558C6.18608 22.9099 5.66937 22.8113 5.18404 22.564C4.43139 22.1805 3.81947 21.5686 3.43597 20.816C3.18868 20.3306 3.09012 19.8139 3.04419 19.2518C2.99998 18.7106 2.99999 18.0463 3 17.2413V6.7587C2.99999 5.95373 2.99998 5.28937 3.04419 4.74817C3.09012 4.18608 3.18868 3.66937 3.43597 3.18404C3.81947 2.43139 4.43139 1.81947 5.18404 1.43597C5.66937 1.18868 6.18608 1.09012 6.74817 1.04419C7.28937 0.999977 7.95373 0.999988 8.7587 1ZM7 7C7 6.44772 7.44772 6 8 6H16C16.5523 6 17 6.44772 17 7C17 7.55229 16.5523 8 16 8H8C7.44772 8 7 7.55229 7 7ZM7 11C7 10.4477 7.44772 10 8 10H14C14.5523 10 15 10.4477 15 11C15 11.5523 14.5523 12 14 12H8C7.44772 12 7 11.5523 7 11ZM7 15C7 14.4477 7.44772 14 8 14H10C10.5523 14 11 14.4477 11 15C11 15.5523 10.5523 16 10 16H8C7.44772 16 7 15.5523 7 15Z" fill="#344054"/>
<path d="M17.9882 14.6872C18.2424 14.5379 18.5412 14.4833 18.8317 14.5331C19.1223 14.583 19.3858 14.734 19.5757 14.9595C19.7656 15.1851 19.8695 15.4705 19.869 15.7653V15.7668C19.869 15.9854 19.6918 16.2866 19.1902 16.621C18.9698 16.7679 18.7422 16.8824 18.5659 16.9608C18.4791 16.9994 18.4082 17.0277 18.3613 17.0455C18.338 17.0544 18.3208 17.0606 18.3109 17.0641L18.3016 17.0674C17.7795 17.2431 17.4977 17.8084 17.672 18.3314C17.8467 18.8553 18.413 19.1385 18.9369 18.9638L18.9381 18.9634L18.9396 18.9629L18.9431 18.9618L18.9525 18.9585L18.981 18.9486C19.004 18.9404 19.0352 18.929 19.0733 18.9145C19.1494 18.8855 19.2541 18.8435 19.3781 18.7884C19.6233 18.6795 19.9579 18.5129 20.2996 18.2851C20.9219 17.8702 21.8686 17.0475 21.869 15.7677C21.87 15.0008 21.5997 14.2583 21.1058 13.6715C20.6117 13.0847 19.9259 12.6916 19.1699 12.5619C18.4138 12.4322 17.6362 12.5743 16.9748 12.963C16.3135 13.3517 15.811 13.9619 15.5564 14.6855C15.3732 15.2065 15.647 15.7774 16.1679 15.9607C16.6889 16.144 17.2598 15.8702 17.4431 15.3492C17.5409 15.0711 17.734 14.8366 17.9882 14.6872Z" fill="#344054"/>
<path d="M18.6498 20.0151C18.0975 20.0151 17.6498 20.4629 17.6498 21.0151C17.6498 21.5674 18.0975 22.0151 18.6498 22.0151H18.6598C19.2121 22.0151 19.6598 21.5674 19.6598 21.0151C19.6598 20.4629 19.2121 20.0151 18.6598 20.0151H18.6498Z" fill="#344054"/>
</svg>
