<svg width="24" height="24" viewBox="0 0 24 24" fill="none" xmlns="http://www.w3.org/2000/svg">
<path fill-rule="evenodd" clip-rule="evenodd" d="M9.49942 2.99995C9.53267 2.99999 9.56619 3.00002 9.6 3.00002L17.2413 3.00002C18.0463 3.00001 18.7106 3 19.2518 3.04422C19.8139 3.09014 20.3306 3.18871 20.816 3.436C21.5686 3.81949 22.1805 4.43141 22.564 5.18406C22.8113 5.6694 22.9099 6.1861 22.9558 6.7482C23 7.28939 23 7.95374 23 8.7587V15.2413C23 16.0463 23 16.7107 22.9558 17.2518C22.9099 17.8139 22.8113 18.3306 22.564 18.816C22.1805 19.5686 21.5686 20.1806 20.816 20.564C20.3306 20.8113 19.8139 20.9099 19.2518 20.9558C18.7106 21 18.0463 21 17.2413 21H9.6C9.5662 21 9.53267 21.0001 9.49942 21.0001C9.01262 21.0006 8.5838 21.0011 8.17616 20.8847C7.81847 20.7825 7.48291 20.6148 7.18657 20.3899C6.84886 20.1336 6.59194 19.7903 6.30029 19.4005C6.28037 19.3739 6.26028 19.3471 6.24 19.32L1.92 13.56C1.9022 13.5363 1.88378 13.512 1.8649 13.487C1.66653 13.2249 1.41782 12.8964 1.31589 12.5092C1.22804 12.1754 1.22804 11.8246 1.31589 11.4909C1.41782 11.1037 1.66653 10.7751 1.8649 10.513C1.88378 10.4881 1.9022 10.4638 1.92 10.44L6.24 4.68002C6.26028 4.65298 6.28037 4.62614 6.30029 4.59951C6.59194 4.20975 6.84886 3.86641 7.18657 3.61015C7.48291 3.3853 7.81847 3.21751 8.17616 3.11536C8.5838 2.99894 9.01262 2.99941 9.49942 2.99995ZM9.6 5.00002C8.95537 5.00002 8.82837 5.00906 8.72539 5.03847C8.60616 5.07252 8.4943 5.12845 8.39552 5.2034C8.31021 5.26814 8.22678 5.36432 7.84 5.88002L3.52 11.64C3.38256 11.8233 3.31082 11.9199 3.26362 11.9931C3.26205 11.9955 3.26057 11.9978 3.25916 12C3.26057 12.0022 3.26205 12.0046 3.26362 12.007C3.31082 12.0802 3.38256 12.1768 3.52 12.36L7.84 18.12C8.22678 18.6357 8.31021 18.7319 8.39552 18.7966C8.4943 18.8716 8.60616 18.9275 8.72539 18.9616C8.82837 18.991 8.95537 19 9.6 19H17.2C18.0566 19 18.6389 18.9992 19.089 18.9625C19.5274 18.9267 19.7516 18.8617 19.908 18.782C20.2843 18.5903 20.5903 18.2843 20.782 17.908C20.8617 17.7516 20.9266 17.5274 20.9624 17.089C20.9992 16.6389 21 16.0566 21 15.2V8.80002C21 7.94344 20.9992 7.36115 20.9624 6.91106C20.9266 6.47265 20.8617 6.24844 20.782 6.09204C20.5903 5.71572 20.2843 5.40976 19.908 5.21801C19.7516 5.13832 19.5274 5.07339 19.089 5.03757C18.6389 5.0008 18.0566 5.00002 17.2 5.00002H9.6ZM10.2929 8.29292C10.6834 7.90239 11.3166 7.90239 11.7071 8.29292L14 10.5858L16.2929 8.29292C16.6834 7.90239 17.3166 7.90239 17.7071 8.29292C18.0976 8.68344 18.0976 9.31661 17.7071 9.70713L15.4142 12L17.7071 14.2929C18.0976 14.6834 18.0976 15.3166 17.7071 15.7071C17.3166 16.0977 16.6834 16.0977 16.2929 15.7071L14 13.4142L11.7071 15.7071C11.3166 16.0977 10.6834 16.0977 10.2929 15.7071C9.90237 15.3166 9.90237 14.6834 10.2929 14.2929L12.5858 12L10.2929 9.70713C9.90237 9.31661 9.90237 8.68344 10.2929 8.29292Z" fill="#344054"/>
</svg>
