<svg width="24" height="24" viewBox="0 0 24 24" fill="none" xmlns="http://www.w3.org/2000/svg">
<path fill-rule="evenodd" clip-rule="evenodd" d="M2 4C2 3.44772 2.44772 3 3 3H21C21.5523 3 22 3.44772 22 4C22 4.55228 21.5523 5 21 5H3C2.44772 5 2 4.55228 2 4ZM14.5681 7H19.4319C19.6843 6.99997 19.9301 6.99994 20.1382 7.01695C20.3668 7.03562 20.6366 7.07969 20.908 7.21799C21.2843 7.40973 21.5903 7.7157 21.782 8.09202C21.9203 8.36344 21.9644 8.63318 21.9831 8.86177C22.0001 9.06992 22 9.31571 22 9.56808V14.4319C22 14.6843 22.0001 14.9301 21.9831 15.1382C21.9644 15.3668 21.9203 15.6366 21.782 15.908C21.5903 16.2843 21.2843 16.5903 20.908 16.782C20.6366 16.9203 20.3668 16.9644 20.1382 16.9831C19.9301 17.0001 19.6843 17 19.4319 17H14.5681C14.3157 17 14.0699 17.0001 13.8618 16.9831C13.6332 16.9644 13.3634 16.9203 13.092 16.782C12.7157 16.5903 12.4097 16.2843 12.218 15.908C12.0797 15.6366 12.0356 15.3668 12.0169 15.1382C11.9999 14.9301 12 14.6843 12 14.4319V9.56812C12 9.31573 11.9999 9.06993 12.0169 8.86177C12.0356 8.63318 12.0797 8.36344 12.218 8.09202C12.4097 7.7157 12.7157 7.40973 13.092 7.21799C13.3634 7.07969 13.6332 7.03562 13.8618 7.01695C14.0699 6.99994 14.3157 6.99997 14.5681 7ZM14.0114 9.01145C14.0111 9.0156 14.0107 9.01999 14.0103 9.02463C14.0008 9.14122 14 9.30347 14 9.6V14.4C14 14.6965 14.0008 14.8588 14.0103 14.9754C14.0107 14.98 14.0111 14.9844 14.0114 14.9886C14.0156 14.9889 14.02 14.9893 14.0246 14.9897C14.1412 14.9992 14.3035 15 14.6 15H19.4C19.6965 15 19.8588 14.9992 19.9754 14.9897C19.98 14.9893 19.9844 14.9889 19.9886 14.9885C19.9889 14.9844 19.9893 14.98 19.9897 14.9754C19.9992 14.8588 20 14.6965 20 14.4V9.6C20 9.30347 19.9992 9.14122 19.9897 9.02463C19.9893 9.01999 19.9889 9.0156 19.9885 9.01145C19.9844 9.01106 19.98 9.01068 19.9754 9.0103C19.8588 9.00078 19.6965 9 19.4 9H14.6C14.3035 9 14.1412 9.00078 14.0246 9.0103C14.02 9.01068 14.0156 9.01107 14.0114 9.01145ZM2 9.25C2 8.69772 2.44772 8.25 3 8.25H9C9.55228 8.25 10 8.69772 10 9.25C10 9.80228 9.55228 10.25 9 10.25H3C2.44772 10.25 2 9.80228 2 9.25ZM2 14.75C2 14.1977 2.44772 13.75 3 13.75H9C9.55228 13.75 10 14.1977 10 14.75C10 15.3023 9.55228 15.75 9 15.75H3C2.44772 15.75 2 15.3023 2 14.75ZM2 20C2 19.4477 2.44772 19 3 19H21C21.5523 19 22 19.4477 22 20C22 20.5523 21.5523 21 21 21H3C2.44772 21 2 20.5523 2 20Z" fill="#344054"/>
</svg>
