<svg width="24" height="24" viewBox="0 0 24 24" fill="none" xmlns="http://www.w3.org/2000/svg">
<path fill-rule="evenodd" clip-rule="evenodd" d="M2.00001 4C2.00001 3.44772 2.44772 3 3.00001 3H21C21.5523 3 22 3.44772 22 4C22 4.55228 21.5523 5 21 5H3.00001C2.44772 5 2.00001 4.55228 2.00001 4ZM4.56811 7C4.57873 7 4.58936 7 4.60001 7H9.40001C9.41065 7 9.42128 7 9.4319 7C9.68429 6.99997 9.93008 6.99994 10.1382 7.01695C10.3668 7.03562 10.6366 7.07969 10.908 7.21799C11.2843 7.40973 11.5903 7.71569 11.782 8.09202C11.9203 8.36344 11.9644 8.63318 11.9831 8.86177C12.0001 9.06993 12 9.31573 12 9.56812V14.4319C12 14.6843 12.0001 14.9301 11.9831 15.1382C11.9644 15.3668 11.9203 15.6366 11.782 15.908C11.5903 16.2843 11.2843 16.5903 10.908 16.782C10.6366 16.9203 10.3668 16.9644 10.1382 16.9831C9.93007 17.0001 9.68428 17 9.43189 17H4.56812C4.31574 17 4.06994 17.0001 3.86178 16.9831C3.63318 16.9644 3.36345 16.9203 3.09202 16.782C2.7157 16.5903 2.40974 16.2843 2.21799 15.908C2.07969 15.6366 2.03563 15.3668 2.01695 15.1382C1.99994 14.9301 1.99997 14.6843 2 14.4319L2.00001 9.6C2.00001 9.58936 2 9.57872 2 9.5681C1.99997 9.31572 1.99994 9.06993 2.01695 8.86177C2.03563 8.63318 2.07969 8.36344 2.21799 8.09202C2.40974 7.71569 2.7157 7.40973 3.09202 7.21799C3.36345 7.07969 3.63318 7.03562 3.86178 7.01695C4.06993 6.99994 4.31572 6.99997 4.56811 7ZM4.01145 9.01145C4.01107 9.0156 4.01069 9.01999 4.01031 9.02463C4.00078 9.14122 4.00001 9.30347 4.00001 9.6V14.4C4.00001 14.6965 4.00078 14.8588 4.01031 14.9754C4.01069 14.98 4.01107 14.9844 4.01145 14.9886C4.0156 14.9889 4.02 14.9893 4.02464 14.9897C4.14122 14.9992 4.30348 15 4.60001 15H9.40001C9.69653 15 9.85879 14.9992 9.97537 14.9897C9.98001 14.9893 9.98441 14.9889 9.98856 14.9886C9.98894 14.9844 9.98932 14.98 9.9897 14.9754C9.99923 14.8588 10 14.6965 10 14.4V9.6C10 9.30347 9.99923 9.14122 9.9897 9.02463C9.98932 9.01999 9.98894 9.0156 9.98856 9.01145C9.98441 9.01107 9.98001 9.01068 9.97537 9.0103C9.85879 9.00078 9.69653 9 9.40001 9H4.60001C4.30348 9 4.14122 9.00078 4.02464 9.0103C4.02 9.01068 4.0156 9.01107 4.01145 9.01145ZM14 9.25C14 8.69772 14.4477 8.25 15 8.25H21C21.5523 8.25 22 8.69772 22 9.25C22 9.80228 21.5523 10.25 21 10.25H15C14.4477 10.25 14 9.80228 14 9.25ZM14 14.75C14 14.1977 14.4477 13.75 15 13.75H21C21.5523 13.75 22 14.1977 22 14.75C22 15.3023 21.5523 15.75 21 15.75H15C14.4477 15.75 14 15.3023 14 14.75ZM2.00001 20C2.00001 19.4477 2.44772 19 3.00001 19H21C21.5523 19 22 19.4477 22 20C22 20.5523 21.5523 21 21 21H3.00001C2.44772 21 2.00001 20.5523 2.00001 20Z" fill="#344054"/>
</svg>
