<svg width="24" height="24" viewBox="0 0 24 24" fill="none" xmlns="http://www.w3.org/2000/svg">
<path fill-rule="evenodd" clip-rule="evenodd" d="M13.2269 3.00003L9.5 3.00003C8.94772 3.00003 8.5 3.44774 8.5 4.00003C8.5 4.55231 8.94772 5.00003 9.5 5.00003L11.807 5.00003L6.557 19H4.5C3.94772 19 3.5 19.4477 3.5 20C3.5 20.5523 3.94772 21 4.5 21H7.22666C7.24215 21.0004 7.25762 21.0004 7.27304 21H10.7267C10.7422 21.0004 10.7576 21.0004 10.773 21H14.5C15.0523 21 15.5 20.5523 15.5 20C15.5 19.4477 15.0523 19 14.5 19H12.193L17.443 5.00003H19.5C20.0523 5.00003 20.5 4.55231 20.5 4.00003C20.5 3.44774 20.0523 3.00003 19.5 3.00003L16.7734 3.00003C16.7579 2.99966 16.7424 2.99967 16.7269 3.00003L13.2734 3.00003C13.2579 2.99966 13.2424 2.99967 13.2269 3.00003ZM15.307 5.00003L13.943 5.00003L8.693 19H10.057L15.307 5.00003Z" fill="#344054"/>
</svg>
