<svg width="24" height="24" viewBox="0 0 24 24" fill="none" xmlns="http://www.w3.org/2000/svg">
<path fill-rule="evenodd" clip-rule="evenodd" d="M2.00001 4C2.00001 3.44772 2.44772 3 3.00001 3H21C21.5523 3 22 3.44772 22 4C22 4.55228 21.5523 5 21 5H3.00001C2.44772 5 2.00001 4.55228 2.00001 4ZM4.85209 7.73905C4.86141 7.74605 4.87072 7.75303 4.88001 7.76L8.74668 10.66C8.75415 10.6656 8.76169 10.6713 8.76929 10.6769C8.89383 10.7703 9.03465 10.8758 9.14756 10.9774C9.27209 11.0894 9.45549 11.2756 9.56467 11.5563C9.70068 11.906 9.70068 12.294 9.56467 12.6437C9.45549 12.9244 9.27209 13.1106 9.14756 13.2226C9.03465 13.3242 8.89385 13.4297 8.7693 13.523C8.7617 13.5287 8.75415 13.5344 8.74668 13.54L4.88001 16.44C4.87072 16.447 4.86141 16.454 4.85208 16.461C4.67071 16.597 4.48405 16.7371 4.31984 16.8383C4.16015 16.9368 3.85699 17.1077 3.46883 17.0997C3.01869 17.0903 2.59655 16.8793 2.31898 16.5247C2.07962 16.2191 2.03447 15.874 2.01743 15.6871C1.99991 15.495 1.99996 15.2617 2 15.0349C2.00001 15.0233 2.00001 15.0116 2.00001 15V9.2C2.00001 9.18839 2.00001 9.17675 2 9.16509C1.99996 8.93834 1.99991 8.70498 2.01743 8.51285C2.03447 8.32603 2.07962 7.98094 2.31898 7.67525C2.59655 7.32075 3.01869 7.10968 3.46883 7.10032C3.85699 7.09225 4.16015 7.26319 4.31984 7.36165C4.48405 7.46291 4.67072 7.60297 4.85209 7.73905ZM4.00001 9.6V14.6L7.33334 12.1L4.00001 9.6ZM11 9.25C11 8.69772 11.4477 8.25 12 8.25H21C21.5523 8.25 22 8.69772 22 9.25C22 9.80228 21.5523 10.25 21 10.25H12C11.4477 10.25 11 9.80228 11 9.25ZM11 14.75C11 14.1977 11.4477 13.75 12 13.75H21C21.5523 13.75 22 14.1977 22 14.75C22 15.3023 21.5523 15.75 21 15.75H12C11.4477 15.75 11 15.3023 11 14.75ZM2.00001 20C2.00001 19.4477 2.44772 19 3.00001 19H21C21.5523 19 22 19.4477 22 20C22 20.5523 21.5523 21 21 21H3.00001C2.44772 21 2.00001 20.5523 2.00001 20Z" fill="#344054"/>
</svg>
