<svg width="24" height="24" viewBox="0 0 24 24" fill="none" xmlns="http://www.w3.org/2000/svg">
<path fill-rule="evenodd" clip-rule="evenodd" d="M15.0103 1C15.5626 1 16.0103 1.44772 16.0103 2V3.5C16.0103 4.05228 15.5626 4.5 15.0103 4.5C14.458 4.5 14.0103 4.05228 14.0103 3.5V2C14.0103 1.44772 14.458 1 15.0103 1ZM9.24256 3.29289C9.63308 2.90237 10.2662 2.90237 10.6568 3.29289L11.7174 4.35355C12.108 4.74408 12.108 5.37724 11.7174 5.76777C11.3269 6.15829 10.6937 6.15829 10.3032 5.76777L9.24256 4.70711C8.85203 4.31658 8.85203 3.68342 9.24256 3.29289ZM20.7174 3.29289C21.108 3.68342 21.108 4.31658 20.7174 4.70711L19.6568 5.76777C19.2662 6.15829 18.6331 6.15829 18.2426 5.76777C17.852 5.37724 17.852 4.74408 18.2426 4.35355L19.3032 3.29289C19.6937 2.90237 20.3269 2.90237 20.7174 3.29289ZM12.8819 7.0121C13.2836 6.88158 13.7163 6.88158 14.118 7.0121C14.4077 7.10624 14.6296 7.2658 14.8045 7.41424C14.9637 7.54941 15.1375 7.72324 15.3159 7.90173L16.0982 8.68406C16.2767 8.86251 16.4506 9.03629 16.5857 9.19551C16.7342 9.37036 16.8937 9.59225 16.9879 9.88197C17.1184 10.2837 17.1184 10.7163 16.9879 11.118C16.8937 11.4078 16.7342 11.6296 16.5857 11.8045C16.4506 11.9637 16.2767 12.1375 16.0983 12.3159L13.7078 14.7064C13.7076 14.7066 13.7073 14.7069 13.7071 14.7071C13.7068 14.7073 13.7066 14.7076 13.7064 14.7078L6.81591 21.5983C6.63746 21.7768 6.46368 21.9506 6.30446 22.0858C6.12961 22.2342 5.90772 22.3938 5.61801 22.4879C5.21632 22.6184 4.78362 22.6184 4.38194 22.4879C4.09222 22.3938 3.87033 22.2342 3.69548 22.0858C3.53626 21.9506 3.36248 21.7768 3.18404 21.5983L3.16149 21.5757L2.42424 20.8385L2.40168 20.8159C2.22319 20.6375 2.04937 20.4637 1.91421 20.3045C1.76578 20.1296 1.60621 19.9078 1.51207 19.618C1.38156 19.2163 1.38156 18.7837 1.51207 18.382C1.60621 18.0922 1.76578 17.8704 1.91421 17.6955C2.04938 17.5363 2.2232 17.3625 2.40168 17.1841L9.29251 10.2932L11.684 7.9017C11.8625 7.72322 12.0363 7.5494 12.1955 7.41424C12.3703 7.26581 12.5922 7.10624 12.8819 7.0121ZM9.99997 12.4142L3.83845 18.5757C3.62877 18.7854 3.51459 18.9007 3.43889 18.9899C3.43588 18.9934 3.43304 18.9968 3.43038 19C3.43304 19.0032 3.43588 19.0066 3.43889 19.0101C3.51459 19.0993 3.62877 19.2146 3.83845 19.4243L4.57571 20.1615C4.78538 20.3712 4.90066 20.4854 4.98984 20.5611C4.99339 20.5641 4.99677 20.5669 4.99998 20.5696C5.00318 20.5669 5.00656 20.5641 5.0101 20.5611C5.09928 20.4854 5.21456 20.3712 5.42424 20.1615L11.5858 14L9.99997 12.4142ZM13 12.5858L11.4142 11L13.0757 9.33848C13.2854 9.1288 13.4007 9.01462 13.4898 8.93892C13.4934 8.9359 13.4968 8.93307 13.5 8.9304C13.5032 8.93307 13.5066 8.9359 13.5101 8.93892C13.5993 9.01462 13.7146 9.1288 13.9242 9.33848L14.6615 10.0757C14.8712 10.2854 14.9854 10.4007 15.0611 10.4899C15.0641 10.4934 15.0669 10.4968 15.0696 10.5C15.0669 10.5032 15.0641 10.5066 15.0611 10.5101C14.9854 10.5993 14.8712 10.7146 14.6615 10.9243L13 12.5858ZM19.5103 9C19.5103 8.44772 19.958 8 20.5103 8H22.0103C22.5626 8 23.0103 8.44772 23.0103 9C23.0103 9.55228 22.5626 10 22.0103 10H20.5103C19.958 10 19.5103 9.55228 19.5103 9ZM18.2426 12.2929C18.6331 11.9024 19.2662 11.9024 19.6568 12.2929L20.7174 13.3536C21.108 13.7441 21.108 14.3772 20.7174 14.7678C20.3269 15.1583 19.6937 15.1583 19.3032 14.7678L18.2426 13.7071C17.852 13.3166 17.852 12.6834 18.2426 12.2929Z" fill="#344054"/>
</svg>
