<svg width="24" height="24" viewBox="0 0 24 24" fill="none" xmlns="http://www.w3.org/2000/svg">
<path fill-rule="evenodd" clip-rule="evenodd" d="M14.382 1.51219C14.7837 1.38168 15.2164 1.38168 15.6181 1.51219C15.9078 1.60633 16.1297 1.7659 16.3045 1.91433C16.4637 2.0495 16.6375 2.22333 16.816 2.40181L21.5984 7.18422C21.7768 7.36264 21.9506 7.5364 22.0858 7.6956C22.2342 7.87045 22.3938 8.09234 22.4879 8.38206C22.6184 8.78375 22.6184 9.21644 22.4879 9.61813C22.3938 9.90784 22.2342 10.1297 22.0858 10.3046C21.9506 10.4638 21.7768 10.6376 21.5983 10.816L20.8159 11.5984C20.6375 11.7769 20.4637 11.9507 20.3045 12.0859C20.1297 12.2343 19.9078 12.3939 19.6181 12.488C19.3229 12.5839 19.011 12.6093 18.707 12.5643L17.681 17.6944C17.676 17.7192 17.671 17.7448 17.6658 17.7711C17.6112 18.0501 17.5425 18.4007 17.3618 18.7033C17.2057 18.9646 16.992 19.1869 16.7371 19.3532C16.4419 19.5456 16.0942 19.6281 15.8175 19.6938C15.7915 19.6999 15.7662 19.7059 15.7415 19.7119L2.23466 22.9722C1.89602 23.0539 1.53925 22.9535 1.29291 22.7072C1.04658 22.4609 0.946197 22.1041 1.02794 21.7655L4.28821 8.25859C4.29416 8.23395 4.30018 8.20858 4.30635 8.18258C4.37199 7.9059 4.45447 7.55825 4.64696 7.26306C4.81322 7.00808 5.03548 6.79442 5.29681 6.63835C5.59937 6.45766 5.95 6.38895 6.22905 6.33427C6.25527 6.32913 6.28087 6.32412 6.30573 6.31915L11.4358 5.29313C11.3908 4.9891 11.4162 4.67721 11.5121 4.38206C11.6063 4.09234 11.7658 3.87045 11.9143 3.69561C12.0494 3.53639 12.2232 3.36261 12.4017 3.18417L13.1615 2.42436L13.1841 2.40181C13.3625 2.22332 13.5363 2.0495 13.6955 1.91433C13.8704 1.7659 14.0923 1.60633 14.382 1.51219ZM12.6713 7.08563L6.69796 8.28031C6.50429 8.31904 6.40448 8.33948 6.33313 8.35855C6.33095 8.35913 6.32887 8.35969 6.32688 8.36024C6.32626 8.3622 6.32561 8.36426 6.32494 8.36641C6.30308 8.43696 6.27872 8.53589 6.23238 8.72787L3.80604 18.7799L8.29239 14.2935C8.10497 13.9019 8.00002 13.4632 8.00002 13.0001C8.00002 11.3432 9.34316 10.0001 11 10.0001C12.6569 10.0001 14 11.3432 14 13.0001C14 14.6569 12.6569 16.0001 11 16.0001C10.5369 16.0001 10.0982 15.8951 9.7066 15.7077L5.22025 20.1941L15.2722 17.7677C15.4642 17.7214 15.5632 17.697 15.6337 17.6752C15.6359 17.6745 15.6379 17.6739 15.6399 17.6732C15.6404 17.6712 15.641 17.6692 15.6416 17.667C15.6606 17.5956 15.6811 17.4958 15.7198 17.3022L16.9145 11.3288L12.6713 7.08563ZM10.3054 13.7195C10.4853 13.8932 10.7302 14.0001 11 14.0001C11.5523 14.0001 12 13.5524 12 13.0001C12 12.4478 11.5523 12.0001 11 12.0001C10.4477 12.0001 10 12.4478 10 13.0001C10 13.2699 10.1069 13.5148 10.2806 13.6947C10.2848 13.6988 10.289 13.7029 10.2931 13.707C10.2973 13.7111 10.3014 13.7153 10.3054 13.7195ZM15 3.4305C14.9968 3.43316 14.9934 3.436 14.9899 3.43901C14.9007 3.51471 14.7854 3.62889 14.5758 3.83857L13.8385 4.57583C13.6288 4.78551 13.5146 4.90079 13.4389 4.98996C13.4359 4.99351 13.4331 4.99689 13.4304 5.00009C13.4331 5.0033 13.4359 5.00668 13.4389 5.01023C13.5146 5.0994 13.6288 5.21468 13.8385 5.42436L18.5758 10.1616C18.7854 10.3713 18.9007 10.4855 18.9899 10.5612C18.9934 10.5642 18.9968 10.567 19 10.5697C19.0032 10.567 19.0066 10.5642 19.0102 10.5612C19.0993 10.4855 19.2146 10.3713 19.4243 10.1616L20.1615 9.42436C20.3712 9.21468 20.4854 9.0994 20.5611 9.01023C20.5641 9.00668 20.5669 9.00329 20.5696 9.00009C20.5669 8.99688 20.5641 8.99351 20.5611 8.98996C20.4854 8.90079 20.3712 8.78551 20.1615 8.57583L15.4243 3.83857C15.2146 3.62889 15.0993 3.51471 15.0102 3.43901C15.0066 3.436 15.0032 3.43316 15 3.4305Z" fill="#344054"/>
</svg>
