<svg width="24" height="24" viewBox="0 0 24 24" fill="none" xmlns="http://www.w3.org/2000/svg">
<path fill-rule="evenodd" clip-rule="evenodd" d="M1.29291 1.29291C1.53925 1.04658 1.89602 0.946197 2.23466 1.02794L15.7415 4.28821C15.7662 4.29416 15.7915 4.30018 15.8175 4.30635C16.0942 4.372 16.4419 4.45448 16.7371 4.64696C16.992 4.81322 17.2057 5.03548 17.3618 5.29681C17.5425 5.59937 17.6112 5.95 17.6658 6.22906C17.671 6.25528 17.676 6.28087 17.681 6.30573L18.707 11.4358C19.011 11.3908 19.3229 11.4162 19.6181 11.5121C19.9078 11.6063 20.1297 11.7658 20.3045 11.9143C20.4637 12.0494 20.6375 12.2232 20.816 12.4017L21.5983 13.1841C21.7768 13.3626 21.9506 13.5363 22.0858 13.6955C22.2342 13.8704 22.3938 14.0923 22.4879 14.382C22.6184 14.7837 22.6184 15.2164 22.4879 15.6181C22.3938 15.9078 22.2342 16.1297 22.0858 16.3045C21.9506 16.4637 21.7768 16.6375 21.5983 16.816L16.8159 21.5983C16.6375 21.7768 16.4637 21.9506 16.3045 22.0858C16.1297 22.2342 15.9078 22.3938 15.6181 22.4879C15.2164 22.6184 14.7837 22.6184 14.382 22.4879C14.0923 22.3938 13.8704 22.2342 13.6955 22.0858C13.5363 21.9506 13.3625 21.7768 13.1841 21.5983L12.4017 20.816C12.2232 20.6375 12.0494 20.4637 11.9143 20.3045C11.7658 20.1297 11.6063 19.9078 11.5121 19.6181C11.4162 19.3229 11.3908 19.011 11.4358 18.707L6.30573 17.681C6.28087 17.676 6.25528 17.671 6.22906 17.6658C5.95 17.6112 5.59938 17.5425 5.29682 17.3618C5.03548 17.2057 4.81322 16.992 4.64696 16.7371C4.45448 16.4419 4.372 16.0942 4.30635 15.8175C4.30018 15.7915 4.29416 15.7662 4.28821 15.7415L1.02794 2.23466C0.946197 1.89602 1.04658 1.53925 1.29291 1.29291ZM12.6713 16.9145L16.9145 12.6713L15.7198 6.69796C15.6811 6.5043 15.6606 6.40448 15.6416 6.33313C15.641 6.33095 15.6404 6.32886 15.6399 6.32688C15.6379 6.32626 15.6359 6.32561 15.6337 6.32494C15.5632 6.30308 15.4642 6.27872 15.2722 6.23238L5.22025 3.80604L9.7066 8.29239C10.0982 8.10497 10.5369 8.00002 11 8.00002C12.6569 8.00002 14 9.34317 14 11C14 12.6569 12.6569 14 11 14C9.34317 14 8.00002 12.6569 8.00002 11C8.00002 10.5369 8.10497 10.0982 8.29239 9.7066L3.80604 5.22025L6.23238 15.2722C6.27872 15.4642 6.30308 15.5632 6.32494 15.6337C6.32561 15.6359 6.32626 15.6379 6.32688 15.6399C6.32886 15.6404 6.33095 15.641 6.33313 15.6416C6.40448 15.6606 6.50429 15.6811 6.69796 15.7198L12.6713 16.9145ZM10.2806 10.3054C10.1069 10.4853 10 10.7302 10 11C10 11.5523 10.4477 12 11 12C11.5523 12 12 11.5523 12 11C12 10.4477 11.5523 10 11 10C10.7302 10 10.4853 10.1069 10.3054 10.2806C10.3014 10.2848 10.2973 10.289 10.2931 10.2931C10.289 10.2973 10.2848 10.3014 10.2806 10.3054ZM18.9899 13.4389C18.9007 13.5146 18.7854 13.6288 18.5758 13.8385L13.8385 18.5758C13.6288 18.7854 13.5146 18.9007 13.4389 18.9899C13.4359 18.9934 13.4331 18.9968 13.4304 19C13.4331 19.0032 13.4359 19.0066 13.4389 19.0102C13.5146 19.0993 13.6288 19.2146 13.8385 19.4243L14.5758 20.1615C14.7854 20.3712 14.9007 20.4854 14.9899 20.5611C14.9934 20.5641 14.9968 20.5669 15 20.5696C15.0032 20.5669 15.0066 20.5641 15.0102 20.5611C15.0993 20.4854 15.2146 20.3712 15.4243 20.1615L20.1615 15.4243C20.3712 15.2146 20.4854 15.0993 20.5611 15.0102C20.5641 15.0066 20.5669 15.0032 20.5696 15C20.5669 14.9968 20.5641 14.9934 20.5611 14.9899C20.4854 14.9007 20.3712 14.7854 20.1615 14.5758L19.4243 13.8385C19.2146 13.6288 19.0993 13.5146 19.0102 13.4389C19.0066 13.4359 19.0032 13.4331 19 13.4304C18.9968 13.4331 18.9934 13.4359 18.9899 13.4389Z" fill="#344054"/>
</svg>
