<svg width="24" height="24" viewBox="0 0 24 24" fill="none" xmlns="http://www.w3.org/2000/svg">
<path fill-rule="evenodd" clip-rule="evenodd" d="M4.41401 13.6984C4.44677 13.6603 4.4812 13.6232 4.5173 13.5871L15.8132 2.29122C17.3082 0.796154 19.7322 0.79616 21.2273 2.29122C22.7223 3.78628 22.7223 6.21025 21.2273 7.70531L9.93139 19.0012C9.90727 19.0253 9.88268 19.0487 9.85766 19.0713L9.82346 19.106C9.16656 19.7306 8.97808 19.9021 7.92595 20.2936L2.40818 22.4232C2.17548 22.5271 1.90307 22.5419 1.64658 22.4429C1.17639 22.2615 0.923326 21.7612 1.0391 21.2843C1.05222 21.2291 1.07001 21.1753 1.0922 21.1233L3.22558 15.5966C3.61716 14.5445 3.78871 14.356 4.41328 13.6991L4.41401 13.6984ZM5.94454 15.0143C5.96842 14.984 5.99406 14.955 6.02135 14.9275L7.03926 13.9034C7.06672 13.8758 7.09222 13.8469 7.11576 13.8171L17.2274 3.70543C17.9414 2.99142 19.099 2.99142 19.8131 3.70543C20.5271 4.41944 20.5271 5.57709 19.8131 6.2911L9.67799 16.4262C9.6579 16.4432 9.63833 16.4612 9.61933 16.48L8.59514 17.4979C8.56711 17.5258 8.53747 17.5519 8.5064 17.5762L5.94454 15.0143ZM4.89994 16.7982C4.89609 16.8073 4.89237 16.8165 4.88878 16.8257L3.74818 19.7647L6.69547 18.6307C6.70432 18.6273 6.71311 18.6237 6.72185 18.6201L4.89994 16.7982Z" fill="#344054"/>
</svg>
