<svg width="24" height="24" viewBox="0 0 24 24" fill="none" xmlns="http://www.w3.org/2000/svg">
<path fill-rule="evenodd" clip-rule="evenodd" d="M4.8013 13.6399C4.77933 13.6631 4.75784 13.6868 4.73733 13.7109C4.11184 14.3684 3.94046 14.5569 3.54886 15.6091L1.41556 21.1357C1.39309 21.1877 1.37552 21.2417 1.36233 21.2966C1.24661 21.7737 1.49954 22.2739 1.96975 22.4553C2.2261 22.5542 2.49856 22.5396 2.73147 22.4358L8.24905 20.3062C9.3013 19.9146 9.48977 19.7429 10.1465 19.1184L10.1807 19.0837C10.2061 19.061 10.2305 19.0378 10.2544 19.0137L21.5503 7.71777C23.0454 6.22266 23.0454 3.79883 21.5503 2.30371C20.0557 0.808594 17.6314 0.808594 16.1363 2.30371L4.84036 13.5996L4.8013 13.6399ZM6.34475 14.9399C6.31741 14.9675 6.29153 14.9963 6.26761 15.0269L8.82962 17.5886C8.84964 17.5732 8.86868 17.5569 8.88724 17.54L8.91849 17.5103L9.94241 16.4924C9.96145 16.4736 9.98098 16.4556 10.0015 16.4387L20.1363 6.30347C20.8501 5.5896 20.8501 4.43188 20.1363 3.71777C19.4224 3.00391 18.2647 3.00391 17.5508 3.71777L7.43899 13.8296C7.41556 13.8594 7.39016 13.8882 7.36233 13.9158L6.34475 14.9399ZM5.21194 16.8381L5.22317 16.8105L7.04495 18.6326L7.01858 18.6431L4.07132 19.7771L5.21194 16.8381Z" fill="#344054"/>
<path d="M12.8306 20C12.2783 20 11.8311 20.4475 11.8311 20.9995C11.8311 21.5515 12.2783 21.999 12.8306 21.999H20.8277C21.3799 21.999 21.8272 21.5515 21.8272 20.9995C21.8272 20.4475 21.3799 20 20.8277 20H12.8306Z" fill="#344054"/>
</svg>
