<svg width="24" height="24" viewBox="0 0 24 24" fill="none" xmlns="http://www.w3.org/2000/svg">
<path fill-rule="evenodd" clip-rule="evenodd" d="M4.56811 2C4.57873 2 4.58936 2.00001 4.60001 2.00001H5.40001C5.41065 2.00001 5.42128 2 5.4319 2C5.68429 1.99997 5.93008 1.99994 6.13824 2.01695C6.36683 2.03563 6.63656 2.07969 6.90799 2.21799C7.28431 2.40974 7.59027 2.7157 7.78202 3.09202C7.92032 3.36345 7.96438 3.63318 7.98306 3.86178C7.99668 4.02849 7.99937 4.21935 7.99989 4.41841L16.0561 5.5693C16.0862 5.41646 16.1352 5.25455 16.218 5.09202C16.4097 4.7157 16.7157 4.40974 17.092 4.21799C17.3634 4.07969 17.6332 4.03563 17.8618 4.01695C18.0699 3.99994 18.3157 3.99997 18.5681 4H19.4319C19.6843 3.99997 19.9301 3.99994 20.1382 4.01695C20.3668 4.03563 20.6366 4.07969 20.908 4.21799C21.2843 4.40974 21.5903 4.7157 21.782 5.09202C21.9203 5.36345 21.9644 5.63318 21.9831 5.86178C22.0001 6.06993 22 6.31571 22 6.56809V7.43192C22 7.6843 22.0001 7.93008 21.9831 8.13824C21.9644 8.36683 21.9203 8.63656 21.782 8.90799C21.5903 9.28431 21.2843 9.59027 20.908 9.78202C20.6366 9.92032 20.3668 9.96438 20.1382 9.98306C20.0938 9.98669 20.0476 9.98955 20 9.99179V14.0082C20.0476 14.0105 20.0938 14.0133 20.1382 14.0169C20.3668 14.0356 20.6366 14.0797 20.908 14.218C21.2843 14.4097 21.5903 14.7157 21.782 15.092C21.9203 15.3634 21.9644 15.6332 21.9831 15.8618C22.0001 16.0699 22 16.3157 22 16.5681V17.4319C22 17.6843 22.0001 17.9301 21.9831 18.1382C21.9644 18.3668 21.9203 18.6366 21.782 18.908C21.5903 19.2843 21.2843 19.5903 20.908 19.782C20.6366 19.9203 20.3668 19.9644 20.1382 19.9831C19.9301 20.0001 19.6843 20 19.4319 20H18.5681C18.3157 20 18.0699 20.0001 17.8618 19.9831C17.6332 19.9644 17.3634 19.9203 17.092 19.782C16.7157 19.5903 16.4097 19.2843 16.218 18.908C16.1352 18.7455 16.0862 18.5836 16.0561 18.4307L7.99989 19.5816C7.99937 19.7807 7.99668 19.9715 7.98306 20.1382C7.96438 20.3668 7.92032 20.6366 7.78202 20.908C7.59027 21.2843 7.28431 21.5903 6.90799 21.782C6.63656 21.9203 6.36683 21.9644 6.13824 21.9831C5.93008 22.0001 5.6843 22 5.43192 22H4.56809C4.31571 22 4.06993 22.0001 3.86178 21.9831C3.63318 21.9644 3.36345 21.9203 3.09202 21.782C2.7157 21.5903 2.40974 21.2843 2.21799 20.908C2.07969 20.6366 2.03563 20.3668 2.01695 20.1382C1.99994 19.9301 1.99997 19.6843 2 19.4319V18.5681C1.99997 18.3157 1.99994 18.0699 2.01695 17.8618C2.03563 17.6332 2.07969 17.3634 2.21799 17.092C2.40974 16.7157 2.7157 16.4097 3.09202 16.218C3.36345 16.0797 3.63318 16.0356 3.86178 16.0169C3.90624 16.0133 3.95241 16.0105 4.00001 16.0082V7.99179C3.95241 7.98955 3.90624 7.98669 3.86178 7.98306C3.63318 7.96438 3.36345 7.92032 3.09202 7.78202C2.7157 7.59027 2.40974 7.28431 2.21799 6.90799C2.07969 6.63656 2.03563 6.36683 2.01695 6.13824C1.99994 5.93008 1.99997 5.68429 2 5.4319C2 5.42128 2.00001 5.41065 2.00001 5.40001V4.60001C2.00001 4.58936 2 4.57873 2 4.56811C1.99997 4.31572 1.99994 4.06993 2.01695 3.86178C2.03563 3.63318 2.07969 3.36345 2.21799 3.09202C2.40974 2.7157 2.7157 2.40974 3.09202 2.21799C3.36345 2.07969 3.63318 2.03563 3.86178 2.01695C4.06993 1.99994 4.31572 1.99997 4.56811 2ZM6.00001 7.99179V16.0082C6.0476 16.0105 6.09377 16.0133 6.13824 16.0169C6.36683 16.0356 6.63656 16.0797 6.90799 16.218C7.28431 16.4097 7.59027 16.7157 7.78202 17.092C7.86483 17.2545 7.91385 17.4165 7.94387 17.5693L16.0001 16.4184C16.0006 16.2194 16.0033 16.0285 16.0169 15.8618C16.0356 15.6332 16.0797 15.3634 16.218 15.092C16.4097 14.7157 16.7157 14.4097 17.092 14.218C17.3634 14.0797 17.6332 14.0356 17.8618 14.0169C17.9062 14.0133 17.9524 14.0105 18 14.0082V9.99179C17.9524 9.98955 17.9062 9.98669 17.8618 9.98306C17.6332 9.96438 17.3634 9.92032 17.092 9.78202C16.7157 9.59027 16.4097 9.28431 16.218 8.90799C16.0797 8.63656 16.0356 8.36683 16.0169 8.13824C16.0033 7.97152 16.0006 7.78066 16.0001 7.5816L7.94387 6.43071C7.91385 6.58355 7.86483 6.74547 7.78202 6.90799C7.59027 7.28431 7.28431 7.59027 6.90799 7.78202C6.63656 7.92032 6.36683 7.96438 6.13824 7.98306C6.09377 7.98669 6.0476 7.98955 6.00001 7.99179ZM6.00001 5.27102C5.99984 5.28168 5.99984 5.29232 6.00001 5.30292V5.40001C6.00001 5.69653 5.99923 5.85879 5.9897 5.97537C5.98932 5.98001 5.98894 5.98441 5.98856 5.98856C5.98441 5.98894 5.98001 5.98932 5.97537 5.9897C5.85879 5.99923 5.69653 6.00001 5.40001 6.00001H4.60001C4.30348 6.00001 4.14122 5.99923 4.02464 5.9897C4.02 5.98932 4.0156 5.98894 4.01145 5.98856C4.01107 5.98441 4.01069 5.98001 4.01031 5.97537C4.00078 5.85879 4.00001 5.69653 4.00001 5.40001V4.60001C4.00001 4.30348 4.00078 4.14122 4.01031 4.02464C4.01069 4.02 4.01107 4.0156 4.01145 4.01145C4.0156 4.01107 4.02 4.01069 4.02464 4.01031C4.14122 4.00078 4.30348 4.00001 4.60001 4.00001H5.40001C5.69653 4.00001 5.85879 4.00078 5.97537 4.01031C5.98001 4.01069 5.98441 4.01107 5.98856 4.01145C5.98894 4.0156 5.98932 4.02 5.9897 4.02464C5.99923 4.14122 6.00001 4.30348 6.00001 4.60001V5.27102ZM18 6.72898V7.40001C18 7.69653 18.0008 7.85879 18.0103 7.97537C18.0107 7.98001 18.0111 7.98441 18.0115 7.98856C18.0156 7.98894 18.02 7.98932 18.0246 7.9897C18.1412 7.99923 18.3035 8.00001 18.6 8.00001H19.4C19.6965 8.00001 19.8588 7.99923 19.9754 7.9897C19.98 7.98932 19.9844 7.98893 19.9886 7.98855C19.9889 7.9844 19.9893 7.98001 19.9897 7.97537C19.9992 7.85879 20 7.69653 20 7.40001V6.60001C20 6.30348 19.9992 6.14122 19.9897 6.02464C19.9893 6.02 19.9889 6.0156 19.9885 6.01145C19.9844 6.01107 19.98 6.01069 19.9754 6.01031C19.8588 6.00078 19.6965 6.00001 19.4 6.00001H18.6C18.3035 6.00001 18.1412 6.00078 18.0246 6.01031C18.02 6.01069 18.0156 6.01107 18.0115 6.01145C18.0111 6.0156 18.0107 6.02 18.0103 6.02464C18.0008 6.14122 18 6.30348 18 6.60001V6.6971C18.0002 6.7077 18.0002 6.71832 18 6.72898ZM18.6 16C18.3035 16 18.1412 16.0008 18.0246 16.0103C18.02 16.0107 18.0156 16.0111 18.0115 16.0115C18.0111 16.0156 18.0107 16.02 18.0103 16.0246C18.0008 16.1412 18 16.3035 18 16.6V17.271C18.0002 17.2817 18.0002 17.2923 18 17.3029V17.4C18 17.6965 18.0008 17.8588 18.0103 17.9754C18.0107 17.98 18.0111 17.9844 18.0115 17.9886C18.0156 17.9889 18.02 17.9893 18.0246 17.9897C18.1412 17.9992 18.3035 18 18.6 18H19.4C19.6965 18 19.8588 17.9992 19.9754 17.9897C19.98 17.9893 19.9844 17.9889 19.9886 17.9885C19.9889 17.9844 19.9893 17.98 19.9897 17.9754C19.9992 17.8588 20 17.6965 20 17.4V16.6C20 16.3035 19.9992 16.1412 19.9897 16.0246C19.9893 16.02 19.9889 16.0156 19.9885 16.0115C19.9844 16.0111 19.98 16.0107 19.9754 16.0103C19.8588 16.0008 19.6965 16 19.4 16H18.6ZM6.00001 18.6971V18.6C6.00001 18.3035 5.99923 18.1412 5.9897 18.0246C5.98932 18.02 5.98894 18.0156 5.98856 18.0115C5.98441 18.0111 5.98001 18.0107 5.97537 18.0103C5.85879 18.0008 5.69653 18 5.40001 18H4.60001C4.30348 18 4.14122 18.0008 4.02464 18.0103C4.02 18.0107 4.0156 18.0111 4.01145 18.0115C4.01107 18.0156 4.01069 18.02 4.01031 18.0246C4.00078 18.1412 4.00001 18.3035 4.00001 18.6V19.4C4.00001 19.6965 4.00078 19.8588 4.01031 19.9754C4.01069 19.98 4.01107 19.9844 4.01145 19.9885C4.0156 19.9889 4.02 19.9893 4.02464 19.9897C4.14122 19.9992 4.30348 20 4.60001 20H5.40001C5.69653 20 5.85879 19.9992 5.97537 19.9897C5.98001 19.9893 5.98441 19.9889 5.98856 19.9885C5.98894 19.9844 5.98932 19.98 5.9897 19.9754C5.99923 19.8588 6.00001 19.6965 6.00001 19.4V18.729C5.99984 18.7183 5.99984 18.7077 6.00001 18.6971Z" fill="#344054"/>
</svg>
