<svg width="24" height="24" viewBox="0 0 24 24" fill="none" xmlns="http://www.w3.org/2000/svg">
<path fill-rule="evenodd" clip-rule="evenodd" d="M12 2C12.5523 2 13 2.44772 13 3V6C13 6.55228 12.5523 7 12 7C11.4477 7 11 6.55228 11 6V3C11 2.44772 11.4477 2 12 2ZM3.86965 7.17655C3.87895 7.1837 3.88823 7.19084 3.89749 7.19797L8.28539 10.5733C8.29267 10.5789 8.30001 10.5845 8.30742 10.5902C8.42796 10.6829 8.56497 10.7882 8.67495 10.8895C8.79688 11.0018 8.97462 11.1867 9.08058 11.4631C9.21307 11.8088 9.21307 12.1912 9.08058 12.5369C8.97462 12.8133 8.79688 12.9982 8.67495 13.1105C8.56497 13.2118 8.42796 13.3171 8.30741 13.4098C8.30001 13.4155 8.29266 13.4211 8.28539 13.4267L3.86966 16.8234C3.68738 16.9637 3.50047 17.1076 3.33609 17.2117C3.17725 17.3124 2.87323 17.4893 2.48163 17.4845C2.02886 17.4789 1.60282 17.2691 1.32237 16.9136C1.0798 16.6062 1.03462 16.2574 1.01756 16.0701C0.999911 15.8763 0.999959 15.6404 1 15.4104C1.00001 15.3987 1.00001 15.387 1.00001 15.3753V8.62469C1.00001 8.613 1.00001 8.60129 1 8.58957C0.999959 8.35956 0.999911 8.12372 1.01756 7.92991C1.03462 7.74263 1.0798 7.39383 1.32237 7.08637C1.60283 6.73087 2.02886 6.52109 2.48163 6.51554C2.87323 6.51075 3.17725 6.6876 3.33609 6.78827C3.50047 6.89245 3.68737 7.03628 3.86965 7.17655ZM3.00001 9.03086V14.9691L6.85989 12L3.00001 9.03086ZM21 9.03086L17.1401 12L21 14.9691V9.03086ZM20.6639 6.78826C20.8228 6.6876 21.1268 6.51075 21.5184 6.51554C21.9712 6.52109 22.3972 6.73087 22.6777 7.08637C22.9202 7.39383 22.9654 7.74263 22.9825 7.92991C23.0001 8.12373 23.0001 8.35957 23 8.58958V15.4104C23.0001 15.6404 23.0001 15.8763 22.9825 16.0701C22.9654 16.2574 22.9202 16.6062 22.6777 16.9136C22.3972 17.2691 21.9712 17.4789 21.5184 17.4845C21.1268 17.4893 20.8228 17.3124 20.6639 17.2117C20.4996 17.1076 20.3127 16.9637 20.1304 16.8235L15.7146 13.4267C15.7073 13.4211 15.7 13.4155 15.6926 13.4098C15.572 13.3171 15.435 13.2118 15.3251 13.1105C15.2031 12.9982 15.0254 12.8133 14.9194 12.5369C14.7869 12.1912 14.7869 11.8088 14.9194 11.4631C15.0254 11.1867 15.2031 11.0018 15.3251 10.8895C15.435 10.7882 15.572 10.6829 15.6926 10.5902C15.7 10.5845 15.7073 10.5789 15.7146 10.5733L20.1304 7.17655C20.3126 7.03628 20.4995 6.89245 20.6639 6.78826ZM12 9.5C12.5523 9.5 13 9.94772 13 10.5V13.5C13 14.0523 12.5523 14.5 12 14.5C11.4477 14.5 11 14.0523 11 13.5V10.5C11 9.94772 11.4477 9.5 12 9.5ZM12 17C12.5523 17 13 17.4477 13 18V21C13 21.5523 12.5523 22 12 22C11.4477 22 11 21.5523 11 21V18C11 17.4477 11.4477 17 12 17Z" fill="#344054"/>
</svg>
