<svg width="24" height="24" viewBox="0 0 24 24" fill="none" xmlns="http://www.w3.org/2000/svg">
<path fill-rule="evenodd" clip-rule="evenodd" d="M12 2C12.5523 2 13 2.44772 13 3V6C13 6.55228 12.5523 7 12 7C11.4477 7 11 6.55228 11 6V3C11 2.44772 11.4477 2 12 2ZM3.79289 7.29289C4.18342 6.90237 4.81658 6.90237 5.20711 7.29289L9.20711 11.2929C9.59763 11.6834 9.59763 12.3166 9.20711 12.7071L5.20711 16.7071C4.81658 17.0976 4.18342 17.0976 3.79289 16.7071C3.40237 16.3166 3.40237 15.6834 3.79289 15.2929L6.08579 13H2C1.44772 13 1 12.5523 1 12C1 11.4477 1.44772 11 2 11H6.08579L3.79289 8.70711C3.40237 8.31658 3.40237 7.68342 3.79289 7.29289ZM20.2071 7.29289C20.5976 7.68342 20.5976 8.31658 20.2071 8.70711L17.9142 11H22C22.5523 11 23 11.4477 23 12C23 12.5523 22.5523 13 22 13H17.9142L20.2071 15.2929C20.5976 15.6834 20.5976 16.3166 20.2071 16.7071C19.8166 17.0976 19.1834 17.0976 18.7929 16.7071L14.7929 12.7071C14.4024 12.3166 14.4024 11.6834 14.7929 11.2929L18.7929 7.29289C19.1834 6.90237 19.8166 6.90237 20.2071 7.29289ZM12 9.5C12.5523 9.5 13 9.94772 13 10.5V13.5C13 14.0523 12.5523 14.5 12 14.5C11.4477 14.5 11 14.0523 11 13.5V10.5C11 9.94772 11.4477 9.5 12 9.5ZM12 17C12.5523 17 13 17.4477 13 18V21C13 21.5523 12.5523 22 12 22C11.4477 22 11 21.5523 11 21V18C11 17.4477 11.4477 17 12 17Z" fill="#344054"/>
</svg>
