<svg width="24" height="24" viewBox="0 0 24 24" fill="none" xmlns="http://www.w3.org/2000/svg">
<path fill-rule="evenodd" clip-rule="evenodd" d="M2 4C2 3.44772 2.44772 3 3 3H21C21.5523 3 22 3.44772 22 4C22 4.55228 21.5523 5 21 5H3C2.44772 5 2 4.55228 2 4ZM20 9.5L16.6667 12L20 14.5V9.5ZM19.6802 7.26165C19.8399 7.16319 20.143 6.99225 20.5312 7.00032C20.9813 7.00968 21.4035 7.22075 21.681 7.57525C21.9204 7.88094 21.9655 8.22603 21.9826 8.41285C22.0001 8.60498 22.0001 8.83836 22 9.06511V14.9349C22.0001 15.1616 22.0001 15.395 21.9826 15.5871C21.9655 15.774 21.9204 16.1191 21.681 16.4247C21.4035 16.7793 20.9813 16.9903 20.5312 16.9997C20.143 17.0077 19.8399 16.8368 19.6802 16.7384C19.516 16.6371 19.3293 16.4971 19.148 16.361L15.2533 13.44C15.2459 13.4344 15.2383 13.4287 15.2307 13.4231C15.1062 13.3297 14.9654 13.2242 14.8524 13.1226C14.7279 13.0106 14.5445 12.8244 14.4353 12.5437C14.2993 12.194 14.2993 11.806 14.4353 11.4563C14.5445 11.1756 14.7279 10.9894 14.8524 10.8774C14.9654 10.7758 15.1062 10.6703 15.2307 10.5769C15.2383 10.5712 15.2459 10.5656 15.2533 10.56L19.12 7.66C19.1293 7.65303 19.1386 7.64603 19.1479 7.63903C19.3293 7.50295 19.516 7.3629 19.6802 7.26165ZM2 9.25C2 8.69772 2.44772 8.25 3 8.25H12C12.5523 8.25 13 8.69772 13 9.25C13 9.80228 12.5523 10.25 12 10.25H3C2.44772 10.25 2 9.80228 2 9.25ZM2 14.75C2 14.1977 2.44772 13.75 3 13.75H12C12.5523 13.75 13 14.1977 13 14.75C13 15.3023 12.5523 15.75 12 15.75H3C2.44772 15.75 2 15.3023 2 14.75ZM2 20C2 19.4477 2.44772 19 3 19H21C21.5523 19 22 19.4477 22 20C22 20.5523 21.5523 21 21 21H3C2.44772 21 2 20.5523 2 20Z" fill="#344054"/>
</svg>
