<svg width="24" height="24" viewBox="0 0 24 24" fill="none" xmlns="http://www.w3.org/2000/svg">
<path fill-rule="evenodd" clip-rule="evenodd" d="M7.7587 2H16.2413C17.0463 1.99999 17.7106 1.99998 18.2518 2.04419C18.8139 2.09012 19.3306 2.18868 19.816 2.43598C20.5686 2.81947 21.1805 3.43139 21.564 4.18404C21.8113 4.66937 21.9099 5.18608 21.9558 5.74817C22 6.28936 22 6.95372 22 7.75868V16.2413C22 17.0463 22 17.7106 21.9558 18.2518C21.9099 18.8139 21.8113 19.3306 21.564 19.816C21.1805 20.5686 20.5686 21.1805 19.816 21.564C19.3306 21.8113 18.8139 21.9099 18.2518 21.9558C17.7106 22 17.0463 22 16.2413 22H16C15.4477 22 15 21.5523 15 21C15 20.4477 15.4477 20 16 20H16.2C17.0566 20 17.6389 19.9992 18.089 19.9624C18.5274 19.9266 18.7516 19.8617 18.908 19.782C19.2843 19.5903 19.5903 19.2843 19.782 18.908C19.8617 18.7516 19.9266 18.5274 19.9625 18.089C19.9992 17.6389 20 17.0566 20 16.2V7.8C20 6.94342 19.9992 6.36113 19.9625 5.91104C19.9266 5.47262 19.8617 5.24842 19.782 5.09202C19.5903 4.7157 19.2843 4.40973 18.908 4.21799C18.7516 4.1383 18.5274 4.07337 18.089 4.03755C17.6389 4.00078 17.0566 4 16.2 4H7.8C6.94342 4 6.36113 4.00078 5.91104 4.03755C5.47262 4.07337 5.24842 4.1383 5.09202 4.21799C4.7157 4.40973 4.40974 4.7157 4.21799 5.09202C4.1383 5.24842 4.07337 5.47262 4.03755 5.91104C4.00078 6.36113 4 6.94342 4 7.8V8C4 8.55229 3.55229 9 3 9C2.44772 9 2 8.55229 2 8L2 7.7587C1.99999 6.95373 1.99998 6.28937 2.0442 5.74817C2.09012 5.18608 2.18868 4.66937 2.43598 4.18404C2.81947 3.43139 3.43139 2.81947 4.18404 2.43597C4.66938 2.18868 5.18608 2.09012 5.74818 2.04419C6.28937 1.99998 6.95373 1.99999 7.7587 2ZM12 8C11.4477 8 11 7.55229 11 7C11 6.44772 11.4477 6 12 6H17C17.5523 6 18 6.44772 18 7V12C18 12.5523 17.5523 13 17 13C16.4477 13 16 12.5523 16 12V9.41421L12.7069 12.7073C12.8744 13.0643 12.9391 13.4337 12.9694 13.805C13 14.1795 13 14.6343 13 15.1615V17.8385C13 18.3657 13 18.8205 12.9694 19.195C12.9371 19.5904 12.8658 19.9836 12.673 20.362C12.3854 20.9265 11.9265 21.3854 11.362 21.673C10.9836 21.8658 10.5904 21.9371 10.195 21.9694C9.82046 22 9.36571 22 8.83857 22H6.16144C5.6343 22 5.17954 22 4.80497 21.9694C4.40963 21.9371 4.01641 21.8658 3.63803 21.673C3.07354 21.3854 2.6146 20.9265 2.32698 20.362C2.13419 19.9836 2.06287 19.5904 2.03057 19.195C1.99997 18.8205 1.99998 18.3657 2 17.8385V15.1615C1.99998 14.6343 1.99997 14.1795 2.03057 13.805C2.06287 13.4096 2.13419 13.0164 2.32698 12.638C2.6146 12.0735 3.07354 11.6146 3.63803 11.327C4.01641 11.1342 4.40963 11.0629 4.80497 11.0306C5.17955 11 5.63431 11 6.16146 11H8.83855C9.36569 11 9.82046 11 10.195 11.0306C10.5663 11.0609 10.9357 11.1256 11.2927 11.2931L14.5858 8H12ZM4.96784 13.0239C4.69617 13.0461 4.59546 13.0838 4.54601 13.109C4.35785 13.2049 4.20487 13.3578 4.109 13.546C4.0838 13.5955 4.04612 13.6962 4.02393 13.9678C4.00078 14.2512 4 14.6234 4 15.2V17.8C4 18.3766 4.00078 18.7488 4.02393 19.0322C4.04612 19.3038 4.0838 19.4045 4.109 19.454C4.20487 19.6422 4.35785 19.7951 4.54601 19.891C4.59546 19.9162 4.69617 19.9539 4.96784 19.9761C5.25117 19.9992 5.62345 20 6.2 20H8.8C9.37655 20 9.74883 19.9992 10.0322 19.9761C10.3038 19.9539 10.4045 19.9162 10.454 19.891C10.6422 19.7951 10.7951 19.6422 10.891 19.454C10.9162 19.4045 10.9539 19.3038 10.9761 19.0322C10.9992 18.7488 11 18.3766 11 17.8V15.2C11 14.6234 10.9992 14.2512 10.9761 13.9678C10.9539 13.6962 10.9162 13.5955 10.891 13.546C10.7951 13.3578 10.6422 13.2049 10.454 13.109C10.4045 13.0838 10.3038 13.0461 10.0322 13.0239C9.74883 13.0008 9.37656 13 8.8 13H6.2C5.62345 13 5.25118 13.0008 4.96784 13.0239Z" fill="#344054"/>
</svg>
