<svg width="24" height="24" viewBox="0 0 24 24" fill="none" xmlns="http://www.w3.org/2000/svg">
<path fill-rule="evenodd" clip-rule="evenodd" d="M5.86252 0.999925C5.90771 0.99995 5.95356 0.999974 6.0001 0.999974C6.55238 0.999974 7.0001 1.44769 7.0001 1.99997C7.0001 2.55226 6.55238 2.99997 6.0001 2.99997C5.00574 2.99997 4.70474 3.00856 4.48246 3.06812C3.79227 3.25306 3.25318 3.79215 3.06824 4.48234C3.00869 4.70461 3.0001 5.00562 3.0001 5.99997C3.0001 6.55226 2.55238 6.99997 2.0001 6.99997C1.44781 6.99997 1.0001 6.55226 1.0001 5.99997C1.0001 5.95344 1.00007 5.90758 1.00005 5.86239C0.999617 5.06701 0.999297 4.47635 1.13639 3.9647C1.50626 2.58433 2.58445 1.50614 3.96482 1.13627C4.47647 0.999175 5.06713 0.999494 5.86252 0.999925ZM19.5177 3.06812C19.2955 3.00856 18.9944 2.99997 18.0001 2.99997C17.4478 2.99997 17.0001 2.55226 17.0001 1.99997C17.0001 1.44769 17.4478 0.999974 18.0001 0.999974C18.0466 0.999974 18.0925 0.99995 18.1377 0.999925C18.9331 0.999494 19.5237 0.999175 20.0354 1.13627C21.4157 1.50614 22.4939 2.58433 22.8638 3.9647C23.0009 4.47635 23.0006 5.06701 23.0001 5.8624C23.0001 5.90759 23.0001 5.95344 23.0001 5.99997C23.0001 6.55226 22.5524 6.99997 22.0001 6.99997C21.4478 6.99997 21.0001 6.55226 21.0001 5.99997C21.0001 5.00562 20.9915 4.70461 20.9319 4.48234C20.747 3.79215 20.2079 3.25306 19.5177 3.06812ZM9.0001 1.99997C9.0001 1.44769 9.44781 0.999974 10.0001 0.999974H14.0001C14.5524 0.999974 15.0001 1.44769 15.0001 1.99997C15.0001 2.55226 14.5524 2.99997 14.0001 2.99997H10.0001C9.44781 2.99997 9.0001 2.55226 9.0001 1.99997ZM2.0001 8.99997C2.55238 8.99997 3.0001 9.44769 3.0001 9.99997V11.5359C3.06044 11.501 3.12181 11.4677 3.18413 11.4359C3.66947 11.1887 4.18617 11.0901 4.74827 11.0442C5.28947 11 5.95384 11 6.75882 11H7.24137C8.04635 11 8.71072 11 9.25192 11.0442C9.81402 11.0901 10.3307 11.1887 10.8161 11.4359C11.5687 11.8194 12.1806 12.4314 12.5641 13.184C12.8114 13.6693 12.91 14.1861 12.9559 14.7481C13.0001 15.2893 13.0001 15.9537 13.0001 16.7587V17.2413C13.0001 18.0462 13.0001 18.7106 12.9559 19.2518C12.91 19.8139 12.8114 20.3306 12.5641 20.8159C12.5324 20.8783 12.499 20.9396 12.4642 21H14.0001C14.5524 21 15.0001 21.4477 15.0001 22C15.0001 22.5523 14.5524 23 14.0001 23H7.31341C7.28954 23 7.26554 23 7.24142 23H6.75877C5.95381 23 5.28946 23 4.74827 22.9558C4.18617 22.9099 3.66947 22.8113 3.18413 22.564C2.43149 22.1805 1.81956 21.5686 1.43607 20.8159C1.18878 20.3306 1.09022 19.8139 1.04429 19.2518C1.00007 18.7106 1.00008 18.0462 1.0001 17.2413V16.7587C1.0001 16.7311 1.0001 16.7037 1.0001 16.6764V9.99997C1.0001 9.44769 1.44781 8.99997 2.0001 8.99997ZM6.8001 21H7.2001C8.05668 21 8.63897 20.9992 9.08906 20.9624C9.52747 20.9266 9.75168 20.8617 9.90808 20.782C10.2844 20.5902 10.5904 20.2843 10.7821 19.908C10.8618 19.7516 10.9267 19.5274 10.9625 19.0889C10.9993 18.6388 11.0001 18.0566 11.0001 17.2V16.8C11.0001 15.9434 10.9993 15.3611 10.9625 14.911C10.9267 14.4726 10.8618 14.2484 10.7821 14.092C10.5904 13.7157 10.2844 13.4097 9.90808 13.218C9.75168 13.1383 9.52747 13.0733 9.08906 13.0375C8.63897 13.0008 8.05668 13 7.2001 13H6.8001C5.94352 13 5.36122 13.0008 4.91113 13.0375C4.47272 13.0733 4.24852 13.1383 4.09212 13.218C3.71579 13.4097 3.40983 13.7157 3.21808 14.092C3.13839 14.2484 3.07347 14.4726 3.03765 14.911C3.00087 15.3611 3.0001 15.9434 3.0001 16.8V17.2C3.0001 18.0566 3.00087 18.6388 3.03765 19.0889C3.07347 19.5274 3.13839 19.7516 3.21808 19.908C3.40983 20.2843 3.71579 20.5902 4.09212 20.782C4.24852 20.8617 4.47272 20.9266 4.91113 20.9624C5.36122 20.9992 5.94352 21 6.8001 21ZM22.0001 8.99997C22.5524 8.99997 23.0001 9.44769 23.0001 9.99997V14C23.0001 14.5523 22.5524 15 22.0001 15C21.4478 15 21.0001 14.5523 21.0001 14V9.99997C21.0001 9.44769 21.4478 8.99997 22.0001 8.99997ZM22.0001 17C22.5524 17 23.0001 17.4477 23.0001 18C23.0001 18.0465 23.0001 18.0924 23.0001 18.1375C23.0006 18.9329 23.0009 19.5236 22.8638 20.0352C22.4939 21.4156 21.4157 22.4938 20.0354 22.8637C19.5237 23.0008 18.9331 23.0005 18.1377 23C18.0925 23 18.0466 23 18.0001 23C17.4478 23 17.0001 22.5523 17.0001 22C17.0001 21.4477 17.4478 21 18.0001 21C18.9944 21 19.2955 20.9914 19.5177 20.9318C20.2079 20.7469 20.747 20.2078 20.9319 19.5176C20.9915 19.2953 21.0001 18.9943 21.0001 18C21.0001 17.4477 21.4478 17 22.0001 17Z" fill="#344054"/>
</svg>
