<svg width="24" height="24" viewBox="0 0 24 24" fill="none" xmlns="http://www.w3.org/2000/svg">
<path fill-rule="evenodd" clip-rule="evenodd" d="M5.56811 2C5.57873 2 5.58936 2.00001 5.60001 2.00001H6.40001C6.41065 2.00001 6.42128 2 6.4319 2C6.68429 1.99997 6.93008 1.99994 7.13824 2.01695C7.36683 2.03563 7.63656 2.07969 7.90799 2.21799C8.28431 2.40974 8.59027 2.7157 8.78202 3.09202C8.92032 3.36345 8.96438 3.63318 8.98306 3.86178C8.98669 3.90624 8.98955 3.95241 8.99179 4L17.0082 4C17.0105 3.95241 17.0133 3.90624 17.017 3.86178C17.0356 3.63318 17.0797 3.36345 17.218 3.09202C17.4097 2.7157 17.7157 2.40974 18.092 2.21799C18.3634 2.07969 18.6332 2.03563 18.8618 2.01695C19.0699 1.99994 19.3157 1.99997 19.5681 2H20.4319C20.6843 1.99997 20.9301 1.99994 21.1382 2.01695C21.3668 2.03563 21.6366 2.07969 21.908 2.21799C22.2843 2.40974 22.5903 2.7157 22.782 3.09202C22.9203 3.36345 22.9644 3.63318 22.9831 3.86178C23.0001 4.06993 23 4.31571 23 4.56809V5.43192C23 5.6843 23.0001 5.93008 22.9831 6.13824C22.9644 6.36683 22.9203 6.63656 22.782 6.90799C22.5903 7.28431 22.2843 7.59027 21.908 7.78202C21.6366 7.92032 21.3668 7.96438 21.1382 7.98306C20.9715 7.99669 20.7806 7.99938 20.5814 7.99989L19.4306 16.0561C19.5834 16.0861 19.7454 16.1352 19.908 16.218C20.2843 16.4097 20.5903 16.7157 20.782 17.092C20.9203 17.3634 20.9644 17.6332 20.9831 17.8618C21.0001 18.0699 21 18.3157 21 18.5681V19.4319C21 19.6843 21.0001 19.9301 20.9831 20.1382C20.9644 20.3668 20.9203 20.6366 20.782 20.908C20.5903 21.2843 20.2843 21.5903 19.908 21.782C19.6366 21.9203 19.3668 21.9644 19.1382 21.9831C18.9301 22.0001 18.6843 22 18.4319 22H17.5681C17.3157 22 17.0699 22.0001 16.8618 21.9831C16.6332 21.9644 16.3634 21.9203 16.092 21.782C15.7157 21.5903 15.4097 21.2843 15.218 20.908C15.0797 20.6366 15.0356 20.3668 15.0169 20.1382C15.0133 20.0938 15.0105 20.0476 15.0082 20L6.99179 20C6.98955 20.0476 6.98669 20.0938 6.98306 20.1382C6.96438 20.3668 6.92032 20.6366 6.78202 20.908C6.59027 21.2843 6.28431 21.5903 5.90799 21.782C5.63656 21.9203 5.36683 21.9644 5.13824 21.9831C4.93008 22.0001 4.6843 22 4.43192 22H3.56809C3.31571 22 3.06993 22.0001 2.86178 21.9831C2.63318 21.9644 2.36345 21.9203 2.09202 21.782C1.7157 21.5903 1.40974 21.2843 1.21799 20.908C1.07969 20.6366 1.03563 20.3668 1.01695 20.1382C0.999943 19.9301 0.999973 19.6843 1 19.4319V18.5681C0.999973 18.3157 0.999943 18.0699 1.01695 17.8618C1.03563 17.6332 1.07969 17.3634 1.21799 17.092C1.40974 16.7157 1.7157 16.4097 2.09202 16.218C2.36345 16.0797 2.63318 16.0356 2.86178 16.0169C3.05666 16.001 3.28452 16 3.5199 16L4.9504 7.98919C4.92019 7.98745 4.89062 7.98542 4.86178 7.98306C4.63318 7.96438 4.36345 7.92032 4.09202 7.78202C3.7157 7.59027 3.40974 7.28431 3.21799 6.90799C3.07969 6.63656 3.03563 6.36683 3.01695 6.13824C2.99994 5.93008 2.99997 5.68429 3 5.4319C3 5.42128 3.00001 5.41065 3.00001 5.40001V4.60001C3.00001 4.58936 3 4.57873 3 4.56811C2.99997 4.31572 2.99994 4.06993 3.01695 3.86178C3.03563 3.63318 3.07969 3.36345 3.21799 3.09202C3.40974 2.7157 3.7157 2.40974 4.09202 2.21799C4.36345 2.07969 4.63318 2.03563 4.86178 2.01695C5.06993 1.99994 5.31572 1.99997 5.56811 2ZM6.1601 6.00001C6.1478 5.99978 6.13554 5.99978 6.12331 6.00001H5.60001C5.30348 6.00001 5.14122 5.99923 5.02464 5.9897C5.02 5.98932 5.0156 5.98894 5.01145 5.98856C5.01107 5.98441 5.01069 5.98001 5.01031 5.97537C5.00078 5.85879 5.00001 5.69653 5.00001 5.40001V4.60001C5.00001 4.30348 5.00078 4.14122 5.01031 4.02464C5.01069 4.02 5.01107 4.0156 5.01145 4.01145C5.0156 4.01107 5.02 4.01069 5.02464 4.01031C5.14122 4.00078 5.30348 4.00001 5.60001 4.00001H6.40001C6.69653 4.00001 6.85879 4.00078 6.97537 4.01031C6.98001 4.01069 6.98441 4.01107 6.98856 4.01145C6.98894 4.0156 6.98932 4.02 6.9897 4.02464C6.99923 4.14122 7.00001 4.30348 7.00001 4.60001V5.40001C7.00001 5.69653 6.99923 5.85879 6.9897 5.97537C6.98932 5.98001 6.98894 5.98441 6.98856 5.98856C6.98441 5.98894 6.98001 5.98932 6.97537 5.9897C6.85879 5.99923 6.69653 6.00001 6.40001 6.00001H6.1601ZM6.98143 7.99263L5.53726 16.08C5.65789 16.1104 5.78276 16.1542 5.90799 16.218C6.28431 16.4097 6.59027 16.7157 6.78202 17.092C6.92032 17.3634 6.96438 17.6332 6.98306 17.8618C6.98669 17.9062 6.98955 17.9524 6.99179 18L15.0082 18C15.0105 17.9524 15.0133 17.9062 15.0169 17.8618C15.0356 17.6332 15.0797 17.3634 15.218 17.092C15.4097 16.7157 15.7157 16.4097 16.092 16.218C16.3634 16.0797 16.6332 16.0356 16.8618 16.0169C17.0285 16.0033 17.2192 16.0006 17.4182 16.0001L18.5691 7.94384C18.4163 7.91382 18.2545 7.8648 18.092 7.78202C17.7157 7.59027 17.4097 7.28431 17.218 6.90799C17.0797 6.63656 17.0356 6.36683 17.017 6.13824C17.0133 6.09377 17.0105 6.0476 17.0082 6L8.99179 6C8.98955 6.0476 8.98669 6.09377 8.98306 6.13824C8.96438 6.36683 8.92032 6.63656 8.78202 6.90799C8.59027 7.28431 8.28431 7.59027 7.90799 7.78202C7.63656 7.92032 7.36683 7.96438 7.13824 7.98306C7.08801 7.98716 7.0356 7.99027 6.98143 7.99263ZM19 5.40001C19 5.69653 19.0008 5.85879 19.0103 5.97537C19.0107 5.98001 19.0111 5.9844 19.0115 5.98855C19.0156 5.98893 19.02 5.98932 19.0246 5.9897C19.1412 5.99923 19.3035 6.00001 19.6 6.00001H19.6914C19.7057 5.9997 19.72 5.9997 19.7344 6.00001H20.4C20.6965 6.00001 20.8588 5.99923 20.9754 5.9897C20.98 5.98932 20.9844 5.98893 20.9886 5.98855C20.9889 5.9844 20.9893 5.98001 20.9897 5.97537C20.9992 5.85879 21 5.69653 21 5.40001V4.60001C21 4.30348 20.9992 4.14122 20.9897 4.02464C20.9893 4.02 20.9889 4.0156 20.9885 4.01145C20.9844 4.01107 20.98 4.01069 20.9754 4.01031C20.8588 4.00078 20.6965 4.00001 20.4 4.00001H19.6C19.3035 4.00001 19.1412 4.00078 19.0246 4.01031C19.02 4.01069 19.0156 4.01107 19.0115 4.01145C19.0111 4.0156 19.0107 4.02 19.0103 4.02464C19.0008 4.14122 19 4.30348 19 4.60001V5.40001ZM18.2802 18H17.6C17.3035 18 17.1412 18.0008 17.0246 18.0103C17.02 18.0107 17.0156 18.0111 17.0115 18.0115C17.0111 18.0156 17.0107 18.02 17.0103 18.0246C17.0008 18.1412 17 18.3035 17 18.6V19.4C17 19.6965 17.0008 19.8588 17.0103 19.9754C17.0107 19.98 17.0111 19.9844 17.0115 19.9885C17.0156 19.9889 17.02 19.9893 17.0246 19.9897C17.1412 19.9992 17.3035 20 17.6 20H18.4C18.6965 20 18.8588 19.9992 18.9754 19.9897C18.98 19.9893 18.9844 19.9889 18.9886 19.9885C18.9889 19.9844 18.9893 19.98 18.9897 19.9754C18.9992 19.8588 19 19.6965 19 19.4V18.6C19 18.3035 18.9992 18.1412 18.9897 18.0246C18.9893 18.02 18.9889 18.0156 18.9885 18.0115C18.9844 18.0111 18.98 18.0107 18.9754 18.0103C18.8588 18.0008 18.6965 18 18.4 18H18.2935C18.289 18 18.2846 18 18.2802 18ZM5.00001 18.6C5.00001 18.3035 4.99923 18.1412 4.9897 18.0246C4.98932 18.02 4.98894 18.0156 4.98856 18.0115C4.98441 18.0111 4.98001 18.0107 4.97537 18.0103C4.85879 18.0008 4.69653 18 4.40001 18H4.3767C4.36447 18.0002 4.35221 18.0002 4.33992 18H3.60001C3.30348 18 3.14122 18.0008 3.02464 18.0103C3.02 18.0107 3.0156 18.0111 3.01145 18.0115C3.01107 18.0156 3.01069 18.02 3.01031 18.0246C3.00078 18.1412 3.00001 18.3035 3.00001 18.6V19.4C3.00001 19.6965 3.00078 19.8588 3.01031 19.9754C3.01069 19.98 3.01107 19.9844 3.01145 19.9885C3.0156 19.9889 3.02 19.9893 3.02464 19.9897C3.14122 19.9992 3.30348 20 3.60001 20H4.40001C4.69653 20 4.85879 19.9992 4.97537 19.9897C4.98001 19.9893 4.98441 19.9889 4.98856 19.9885C4.98894 19.9844 4.98932 19.98 4.9897 19.9754C4.99923 19.8588 5.00001 19.6965 5.00001 19.4V18.6Z" fill="#344054"/>
</svg>
