<svg width="24" height="24" viewBox="0 0 24 24" fill="none" xmlns="http://www.w3.org/2000/svg">
<path fill-rule="evenodd" clip-rule="evenodd" d="M2.29289 4.29289C2.68342 3.90237 3.31658 3.90237 3.70711 4.29289L8 8.58579L12.2929 4.29289C12.6834 3.90237 13.3166 3.90237 13.7071 4.29289C14.0976 4.68342 14.0976 5.31658 13.7071 5.70711L9.41421 10L13.7071 14.2929C14.0976 14.6834 14.0976 15.3166 13.7071 15.7071C13.3166 16.0976 12.6834 16.0976 12.2929 15.7071L8 11.4142L3.70711 15.7071C3.31658 16.0976 2.68342 16.0976 2.29289 15.7071C1.90237 15.3166 1.90237 14.6834 2.29289 14.2929L6.58579 10L2.29289 5.70711C1.90237 5.31658 1.90237 4.68342 2.29289 4.29289ZM17.4078 11.3996C18.0284 11.0487 18.7506 10.9217 19.4536 11.0398C20.1566 11.1578 20.7977 11.5138 21.2695 12.0481L21.2778 12.0575L21.2778 12.0576C21.7439 12.5988 22 13.2903 22 14.0001C22 15.0824 21.3962 15.8401 20.7744 16.3405C20.194 16.8074 19.4858 17.1411 18.9827 17.3781C18.9637 17.387 18.945 17.3958 18.9266 17.4045C18.4472 17.6306 18.2804 17.7817 18.1922 17.9181C18.1772 17.9413 18.1619 17.9682 18.1467 18.0001H21C21.5523 18.0001 22 18.4478 22 19.0001C22 19.5524 21.5523 20.0001 21 20.0001H17C16.4477 20.0001 16 19.5524 16 19.0001C16 18.1708 16.1176 17.4432 16.5128 16.8321C16.9096 16.2184 17.4928 15.8695 18.0734 15.5956C18.6279 15.3341 19.1379 15.0901 19.5206 14.7822C19.8838 14.49 20 14.2478 20 14.0001C20 13.7718 19.9176 13.5453 19.7662 13.3673C19.5982 13.1792 19.3711 13.0539 19.1223 13.0122C18.8722 12.9701 18.6152 13.0151 18.3941 13.1395C18.1793 13.2629 18.0205 13.4549 17.9422 13.6751C17.7572 14.1955 17.1854 14.4673 16.665 14.2823C16.1446 14.0973 15.8728 13.5254 16.0578 13.0051C16.2993 12.3259 16.7797 11.7585 17.4039 11.4018L17.4078 11.3996L17.4078 11.3996Z" fill="#344054"/>
</svg>
