<svg width="24" height="24" viewBox="0 0 24 24" fill="none" xmlns="http://www.w3.org/2000/svg">
<path fill-rule="evenodd" clip-rule="evenodd" d="M2.29289 2.29289C2.68342 1.90237 3.31658 1.90237 3.70711 2.29289L21.7071 20.2929C22.0976 20.6834 22.0976 21.3166 21.7071 21.7071C21.3166 22.0976 20.6834 22.0976 20.2929 21.7071L14.75 16.1642V19H16C16.5523 19 17 19.4477 17 20C17 20.5523 16.5523 21 16 21H8C7.44772 21 7 20.5523 7 20C7 19.4477 7.44772 19 8 19H9.25V10.6642L5 6.41421V6.99995C5 7.55223 4.55228 7.99995 4 7.99995C3.44772 7.99995 3 7.55223 3 6.99995V5.99995C3 5.53724 3.10518 5.09843 3.29254 4.70676L2.29289 3.70711C1.90237 3.31658 1.90237 2.68342 2.29289 2.29289ZM11.25 12.6642V19H12.75V14.1642L11.25 12.6642ZM18.0262 5.01671C17.7893 5.00054 17.4796 5 17 5H14.75V8C14.75 8.55228 14.3023 9 13.75 9C13.1977 9 12.75 8.55228 12.75 8V5H11.25C11.25 5.55228 10.8023 6 10.25 6C9.69772 6 9.25 5.55228 9.25 5V4.9685C8.81869 4.85748 8.5 4.46596 8.5 4C8.5 3.44772 8.94772 3 9.5 3H17.032C17.4706 2.99999 17.8491 2.99998 18.1624 3.02135C18.4922 3.04385 18.8221 3.09336 19.1481 3.22836C19.8831 3.53284 20.4672 4.11686 20.7716 4.85195C20.9066 5.17788 20.9561 5.50779 20.9787 5.83762C21 6.15087 21 6.52936 21 6.96801V7C21 7.55228 20.5523 8 20 8C19.4477 8 19 7.55228 19 7C19 6.52038 18.9995 6.21074 18.9833 5.97376C18.9677 5.74576 18.9411 5.65893 18.9239 5.61732C18.8224 5.37229 18.6277 5.17761 18.3827 5.07612C18.3411 5.05888 18.2542 5.03227 18.0262 5.01671Z" fill="#344054"/>
</svg>
