<svg width="24" height="24" viewBox="0 0 24 24" fill="none" xmlns="http://www.w3.org/2000/svg">
<path fill-rule="evenodd" clip-rule="evenodd" d="M18.364 5.63603C16.0093 3.28135 12.674 2.5029 9.66851 3.30551C9.13492 3.44801 8.58685 3.13096 8.44436 2.59738C8.30186 2.06379 8.6189 1.51572 9.15249 1.37323C12.8194 0.393987 16.8983 1.3419 19.7782 4.22181C24.074 8.51758 24.074 15.4824 19.7782 19.7782C15.4825 24.0739 8.51764 24.0739 4.22187 19.7782C1.34196 16.8983 0.394046 12.8193 1.37329 9.15243C1.51578 8.61884 2.06385 8.3018 2.59744 8.44429C3.13102 8.58679 3.44807 9.13486 3.30557 9.66845C2.50296 12.6739 3.28141 16.0093 5.63609 18.3639C9.15081 21.8787 14.8493 21.8787 18.364 18.3639C21.8787 14.8492 21.8787 9.15075 18.364 5.63603ZM4.29289 4.29284C4.68341 3.90231 5.31658 3.90231 5.7071 4.29283L14.0002 12.5858V8.99999C14.0002 8.44771 14.4479 7.99999 15.0002 7.99999C15.5525 7.99999 16.0002 8.44771 16.0002 8.99999V15C16.0002 15.5523 15.5525 16 15.0002 16H9.00019C8.4479 16 8.00019 15.5523 8.00019 15C8.00019 14.4477 8.4479 14 9.00019 14H12.5859L4.2929 5.70705C3.90237 5.31653 3.90237 4.68336 4.29289 4.29284Z" fill="#344054"/>
</svg>
