<svg width="24" height="24" viewBox="0 0 24 24" fill="none" xmlns="http://www.w3.org/2000/svg">
<path fill-rule="evenodd" clip-rule="evenodd" d="M18.3639 5.63604C14.8492 2.12132 9.15071 2.12132 5.63599 5.63604C2.12127 9.15076 2.12127 14.8492 5.63599 18.364C7.99066 20.7186 11.326 21.4971 14.3315 20.6945C14.8651 20.552 15.4131 20.869 15.5556 21.4026C15.6981 21.9362 15.3811 22.4843 14.8475 22.6268C11.1806 23.606 7.10169 22.6581 4.22178 19.7782C-0.0739903 15.4824 -0.0739906 8.51759 4.22178 4.22183C8.51754 -0.0739412 15.4824 -0.0739419 19.7781 4.22182C22.658 7.10174 23.606 11.1807 22.6267 14.8476C22.4842 15.3811 21.9361 15.6982 21.4026 15.5557C20.869 15.4132 20.5519 14.8651 20.6944 14.3315C21.497 11.3261 20.7186 7.99071 18.3639 5.63604ZM8.00019 9.0001C8.00019 8.44782 8.4479 8.0001 9.00019 8.0001H15.0002C15.5525 8.0001 16.0002 8.44782 16.0002 9.0001C16.0002 9.55239 15.5525 10.0001 15.0002 10.0001H11.4144L19.7071 18.2929C20.0976 18.6835 20.0976 19.3166 19.7071 19.7072C19.3166 20.0977 18.6834 20.0977 18.2929 19.7072L10.0002 11.4143V15.0001C10.0002 15.5524 9.55247 16.0001 9.00019 16.0001C8.4479 16.0001 8.00019 15.5524 8.00019 15.0001V9.0001Z" fill="#344054"/>
</svg>
