<svg width="24" height="24" viewBox="0 0 24 24" fill="none" xmlns="http://www.w3.org/2000/svg">
<path fill-rule="evenodd" clip-rule="evenodd" d="M14.3315 3.30551C11.326 2.5029 7.99066 3.28135 5.63599 5.63603C2.12127 9.15075 2.12127 14.8492 5.63599 18.3639C9.15071 21.8787 14.8492 21.8787 18.3639 18.3639C20.7186 16.0093 21.497 12.6739 20.6944 9.66845C20.5519 9.13486 20.869 8.58679 21.4026 8.44429C21.9361 8.3018 22.4842 8.61884 22.6267 9.15243C23.606 12.8193 22.658 16.8983 19.7781 19.7782C15.4824 24.0739 8.51754 24.0739 4.22178 19.7782C-0.0739899 15.4824 -0.0739906 8.51758 4.22178 4.22181C7.10169 1.3419 11.1806 0.393986 14.8475 1.37323C15.3811 1.51572 15.6981 2.06379 15.5556 2.59738C15.4132 3.13096 14.8651 3.44801 14.3315 3.30551ZM19.7071 4.29282C20.0976 4.68334 20.0976 5.31651 19.7071 5.70704L11.4144 14H15.0002C15.5525 14 16.0002 14.4477 16.0002 15C16.0002 15.5523 15.5525 16 15.0002 16H9.00019C8.4479 16 8.00019 15.5523 8.00019 15V8.99999C8.00019 8.44771 8.4479 7.99999 9.00019 7.99999C9.55247 7.99999 10.0002 8.44771 10.0002 8.99999V12.5857L18.2929 4.29284C18.6834 3.90231 19.3166 3.9023 19.7071 4.29282Z" fill="#344054"/>
</svg>
