<svg width="24" height="24" viewBox="0 0 24 24" fill="none" xmlns="http://www.w3.org/2000/svg">
<path fill-rule="evenodd" clip-rule="evenodd" d="M13.6173 4.07615C13.991 3.92137 14.4211 4.00692 14.7071 4.29292L21.7071 11.2929C22.0976 11.6834 22.0976 12.3166 21.7071 12.7071L14.7071 19.7071C14.4211 19.9931 13.991 20.0787 13.6173 19.9239C13.2436 19.7691 13 19.4045 13 19V16H3.8C3.7924 16 3.78468 16 3.77687 16C3.65775 16.0001 3.51549 16.0001 3.39017 15.9899C3.24495 15.978 3.03696 15.9476 2.81901 15.8365C2.53677 15.6927 2.3073 15.4633 2.16349 15.181C2.05244 14.9631 2.022 14.7551 2.01013 14.6099C1.99989 14.4845 1.99995 14.3423 1.99999 14.2232C2 14.2154 2 14.2076 2 14.2V9.80003C2 9.79242 2 9.78471 1.99999 9.77689C1.99995 9.65777 1.99989 9.51552 2.01013 9.3902C2.022 9.24498 2.05244 9.03699 2.16349 8.81904C2.3073 8.5368 2.53677 8.30733 2.81901 8.16352C3.03696 8.05247 3.24495 8.02203 3.39017 8.01016C3.51549 7.99992 3.65774 7.99998 3.77686 8.00002C3.78468 8.00003 3.79239 8.00003 3.8 8.00003H13V5.00003C13 4.59557 13.2436 4.23093 13.6173 4.07615ZM15 7.41424V9.00003C15 9.55231 14.5523 10 14 10H4V14H14C14.5523 14 15 14.4477 15 15V16.5858L19.5858 12L15 7.41424Z" fill="#344054"/>
</svg>
