<svg width="24" height="24" viewBox="0 0 24 24" fill="none" xmlns="http://www.w3.org/2000/svg">
<path fill-rule="evenodd" clip-rule="evenodd" d="M9.77686 2.00001C9.78468 2.00001 9.79239 2.00001 9.8 2.00001H14.2C14.2076 2.00001 14.2153 2.00001 14.2231 2.00001C14.3423 1.99996 14.4845 1.99991 14.6098 2.01015C14.755 2.02201 14.963 2.05245 15.181 2.1635C15.4632 2.30731 15.6927 2.53678 15.8365 2.81903C15.9476 3.03697 15.978 3.24496 15.9899 3.39018C16.0001 3.5155 16.0001 3.65777 16 3.77688C16 3.7847 16 3.79241 16 3.80001V13H19C19.4045 13 19.7691 13.2437 19.9239 13.6173C20.0787 13.991 19.9931 14.4211 19.7071 14.7071L12.7071 21.7071C12.3166 22.0976 11.6834 22.0976 11.2929 21.7071L4.29289 14.7071C4.0069 14.4211 3.92134 13.991 4.07612 13.6173C4.2309 13.2437 4.59554 13 5 13H8V3.80001C8 3.79241 8 3.78469 7.99999 3.77687C7.99995 3.65776 7.99989 3.5155 8.01013 3.39018C8.022 3.24496 8.05244 3.03697 8.16349 2.81903C8.3073 2.53678 8.53677 2.30731 8.81901 2.1635C9.03696 2.05245 9.24495 2.02201 9.39017 2.01015C9.51549 1.99991 9.65775 1.99996 9.77686 2.00001ZM10 4.00001V14C10 14.5523 9.55229 15 9 15H7.41421L12 19.5858L16.5858 15H15C14.4477 15 14 14.5523 14 14V4.00001H10Z" fill="#344054"/>
</svg>
