<svg width="24" height="24" viewBox="0 0 24 24" fill="none" xmlns="http://www.w3.org/2000/svg">
<path fill-rule="evenodd" clip-rule="evenodd" d="M14.4 5.6C13.9582 5.6 13.6 5.24183 13.6 4.8C13.6 4.35817 13.9582 4 14.4 4H19.2C19.6418 4 20 4.35817 20 4.8V9.6C20 10.0418 19.6418 10.4 19.2 10.4C18.7582 10.4 18.4 10.0418 18.4 9.6V6.73137L6.73137 18.4H9.6C10.0418 18.4 10.4 18.7582 10.4 19.2C10.4 19.6418 10.0418 20 9.6 20H4.8C4.58783 20 4.38434 19.9157 4.23431 19.7657C4.08429 19.6157 4 19.4122 4 19.2L4 14.4C4 13.9582 4.35817 13.6 4.8 13.6C5.24183 13.6 5.6 13.9582 5.6 14.4L5.6 17.2686L17.2686 5.6H14.4Z" fill="#344054"/>
</svg>
