<svg width="24" height="24" viewBox="0 0 24 24" fill="none" xmlns="http://www.w3.org/2000/svg">
<path fill-rule="evenodd" clip-rule="evenodd" d="M14.7 4.8C14.2029 4.8 13.8 4.39706 13.8 3.9C13.8 3.40294 14.2029 3 14.7 3H20.1C20.5971 3 21 3.40294 21 3.9V9.3C21 9.79706 20.5971 10.2 20.1 10.2C19.6029 10.2 19.2 9.79706 19.2 9.3V6.07279L14.4364 10.8364C14.0849 11.1879 13.5151 11.1879 13.1636 10.8364C12.8121 10.4849 12.8121 9.91508 13.1636 9.5636L17.9272 4.8H14.7ZM10.8364 13.1636C11.1879 13.5151 11.1879 14.0849 10.8364 14.4364L6.07279 19.2H9.3C9.79706 19.2 10.2 19.6029 10.2 20.1C10.2 20.5971 9.79706 21 9.3 21H3.9C3.66131 21 3.43239 20.9052 3.2636 20.7364C3.09482 20.5676 3 20.3387 3 20.1L3 14.7C3 14.2029 3.40294 13.8 3.9 13.8C4.39706 13.8 4.8 14.2029 4.8 14.7L4.8 17.9272L9.5636 13.1636C9.91507 12.8121 10.4849 12.8121 10.8364 13.1636Z" fill="#344054"/>
</svg>
