<svg width="24" height="24" viewBox="0 0 24 24" fill="none" xmlns="http://www.w3.org/2000/svg">
<path d="M12.6857 0.964631C12.2348 0.858795 11.7655 0.858795 11.3146 0.964631C10.7995 1.08553 10.3417 1.38401 9.82079 1.72362C7.57238 3.18513 5.32156 4.64303 3.07446 6.10657C2.73299 6.32897 2.56226 6.44018 2.50277 6.58148C2.45081 6.70493 2.45057 6.84424 2.5021 6.96787C2.5611 7.10938 2.73154 7.22123 3.07242 7.44493L10.7931 12.5116C11.4928 12.9708 11.6398 13.05 11.7699 13.0808C11.9213 13.1166 12.079 13.1166 12.2304 13.0808C12.3606 13.05 12.5075 12.9708 13.2072 12.5116L20.9279 7.44497C21.2687 7.22126 21.4392 7.10941 21.4982 6.96789C21.5497 6.84427 21.5495 6.70496 21.4975 6.58151C21.438 6.4402 21.2673 6.329 20.9258 6.1066C18.6787 4.64305 16.4279 3.1851 14.1795 1.72363C13.6586 1.38402 13.2007 1.08553 12.6857 0.964631Z" fill="#344054"/>
<path d="M22.9967 9.95954C22.9963 9.4788 22.9961 9.23844 22.8955 9.10497C22.8078 8.98869 22.6738 8.9164 22.5284 8.90702C22.3616 8.89625 22.1604 9.02834 21.7578 9.2925L17.1194 12.3365C16.8237 12.5305 16.6759 12.6275 16.6158 12.7548C16.5631 12.8663 16.5535 12.9934 16.5889 13.1116C16.6292 13.2464 16.7608 13.3645 17.024 13.6007L22.426 18.4487C22.6243 18.6267 22.9342 18.5173 22.9559 18.2517C23.0001 17.7105 23.0001 17.0462 23.0001 16.2412C23.0001 14.5358 22.9981 11.6903 22.9967 9.95954Z" fill="#344054"/>
<path d="M21.3425 21.2423C21.5254 21.1102 21.6168 21.0441 21.6715 20.9183C21.7138 20.8208 21.7218 20.6709 21.6899 20.5694C21.6489 20.4386 21.5473 20.3474 21.344 20.165L14.8119 14.3028C14.8077 14.2991 14.8056 14.2972 14.8037 14.2955C14.6361 14.1481 14.3911 14.1297 14.2033 14.2503C14.2012 14.2517 14.1988 14.2532 14.1942 14.2563C13.6702 14.6012 13.2097 14.9043 12.6908 15.0271C12.2366 15.1345 11.7637 15.1345 11.3095 15.0271C10.7906 14.9043 10.3301 14.6012 9.80614 14.2563C9.80136 14.2532 9.79897 14.2516 9.79682 14.2502C9.60905 14.1296 9.36412 14.1481 9.19653 14.2954C9.19461 14.2971 9.19248 14.299 9.18823 14.3028L2.65618 20.1649C2.45293 20.3473 2.3513 20.4385 2.31025 20.5694C2.2784 20.6709 2.28633 20.8207 2.32871 20.9183C2.38335 21.0441 2.47477 21.1101 2.65762 21.2422C2.82383 21.3623 2.99977 21.47 3.18416 21.5639C3.6695 21.8112 4.1862 21.9098 4.7483 21.9557C5.28949 21.9999 5.95384 21.9999 6.7588 21.9999H17.2414C18.0464 21.9999 18.7108 21.9999 19.2519 21.9557C19.814 21.9098 20.3308 21.8112 20.8161 21.5639C21.0004 21.47 21.1764 21.3623 21.3425 21.2423Z" fill="#344054"/>
<path d="M1.04432 18.2517C1.06601 18.5172 1.37592 18.6266 1.5742 18.4486L6.97624 13.6006C7.23943 13.3644 7.37102 13.2464 7.41135 13.1115C7.44669 12.9933 7.4371 12.8663 7.38443 12.7547C7.32432 12.6274 7.17649 12.5304 6.88084 12.3364L2.24241 9.29245C1.83988 9.02829 1.63861 8.8962 1.47181 8.90697C1.32649 8.91636 1.19246 8.98864 1.10478 9.10492C1.00416 9.23839 1.00397 9.47875 1.00358 9.95949C1.00218 11.6903 1.00012 14.5358 1.00012 16.2412C1.00011 17.0462 1.0001 17.7105 1.04432 18.2517Z" fill="#344054"/>
</svg>
