<svg width="24" height="24" viewBox="0 0 24 24" fill="none" xmlns="http://www.w3.org/2000/svg">
<path d="M12.6856 0.964631C12.2347 0.858795 11.7654 0.858795 11.3145 0.964631C10.7995 1.08553 10.3416 1.38401 9.82073 1.72362C7.56549 3.18957 5.30417 4.64668 3.05234 6.11797C2.7119 6.34041 2.54168 6.45163 2.48241 6.59304C2.43066 6.7165 2.43063 6.856 2.48234 6.97947C2.54157 7.1209 2.71199 7.23233 3.05282 7.45518L10.7962 12.5181C11.4942 12.9745 11.6407 13.0532 11.7705 13.0838C11.9215 13.1194 12.0787 13.1194 12.2297 13.0838C12.3595 13.0532 12.506 12.9745 13.2041 12.5181L20.9473 7.45521C21.2882 7.23236 21.4586 7.12093 21.5178 6.9795C21.5695 6.85602 21.5695 6.71653 21.5178 6.59307C21.4585 6.45166 21.2883 6.34044 20.9478 6.118C18.696 4.64671 16.4347 3.18958 14.1794 1.72363C13.6585 1.38402 13.2007 1.08553 12.6856 0.964631Z" fill="#344054"/>
<path d="M22.9974 9.98165C22.9971 9.50159 22.997 9.26156 22.8965 9.12814C22.809 9.01188 22.6751 8.93952 22.5299 8.92997C22.3633 8.91901 22.1621 9.05056 21.7597 9.31365L14.1885 14.2642C13.6657 14.6071 13.2062 14.9084 12.6888 15.0304C12.2359 15.1372 11.7643 15.1372 11.3114 15.0304C10.794 14.9084 10.3345 14.6071 9.81172 14.2642L2.24043 9.3136C1.83806 9.0505 1.63688 8.91896 1.47021 8.92992C1.325 8.93947 1.19114 9.01183 1.10361 9.12808C1.00314 9.26151 1.00299 9.50154 1.0027 9.9816C1.00163 11.7067 1.00006 14.5406 1.00006 16.2412C1.00005 17.0462 1.00004 17.7105 1.04426 18.2517C1.09018 18.8138 1.18875 19.3305 1.43604 19.8158C1.81953 20.5685 2.43145 21.1804 3.1841 21.5639C3.66944 21.8112 4.18614 21.9098 4.74824 21.9557C5.28943 21.9999 5.95378 21.9999 6.75874 21.9999H17.2414C18.0463 21.9999 18.7107 21.9999 19.2519 21.9557C19.814 21.9098 20.3307 21.8112 20.816 21.5639C21.5687 21.1804 22.1806 20.5685 22.5641 19.8158C22.8114 19.3305 22.9099 18.8138 22.9559 18.2517C23.0001 17.7105 23.0001 17.0462 23.0001 16.2412C23.0001 14.5406 22.9985 11.7067 22.9974 9.98165Z" fill="#344054"/>
</svg>
