<svg width="24" height="24" viewBox="0 0 24 24" fill="none" xmlns="http://www.w3.org/2000/svg">
<path fill-rule="evenodd" clip-rule="evenodd" d="M13.0685 5.80859C13.1743 5.26653 13.6995 4.91284 14.2415 5.01859C15.4136 5.24727 16.4908 5.8205 17.3352 6.66492C18.1796 7.50933 18.7528 8.58651 18.9815 9.75859C19.0873 10.3007 18.7336 10.8258 18.1915 10.9316C17.6495 11.0373 17.1243 10.6836 17.0185 10.1416C16.8661 9.36019 16.4839 8.64207 15.921 8.07913C15.358 7.51619 14.6399 7.13403 13.8585 6.98158C13.3165 6.87582 12.9628 6.35066 13.0685 5.80859Z" fill="#344054"/>
<path fill-rule="evenodd" clip-rule="evenodd" d="M13.0561 1.88968C13.1171 1.34077 13.6115 0.945223 14.1604 1.0062C16.4152 1.25669 18.5178 2.2664 20.1229 3.86954C21.7281 5.47269 22.7404 7.57399 22.9938 9.82842C23.0554 10.3773 22.6605 10.8722 22.1117 10.9338C21.5629 10.9955 21.068 10.6006 21.0063 10.0518C20.8036 8.2482 19.9937 6.56717 18.7096 5.28465C17.4255 4.00213 15.7434 3.19436 13.9396 2.99397C13.3907 2.93299 12.9952 2.43858 13.0561 1.88968Z" fill="#344054"/>
<path fill-rule="evenodd" clip-rule="evenodd" d="M6.33792 17.7522C3.90401 15.3183 2.13419 12.2874 1.1936 8.97814C1.0461 8.45912 0.93171 8.05665 0.930066 7.50476C0.928189 6.87399 1.1337 6.08375 1.44263 5.5338C1.97391 4.58803 3.11467 3.37598 4.1 2.87761C4.95134 2.447 5.95674 2.447 6.80808 2.87761C7.64373 3.30028 8.6023 4.27868 9.11122 5.06143C9.75771 6.05577 9.75771 7.33764 9.11122 8.33197C8.93798 8.59842 8.69105 8.84493 8.40439 9.13111C8.31513 9.22022 8.21688 9.28461 8.28212 9.4205C8.92995 10.7698 9.81343 12.0354 10.9341 13.156C12.0548 14.2767 13.3204 15.1602 14.6697 15.808C14.8094 15.8751 14.8666 15.7784 14.9591 15.6858C15.2452 15.3991 15.4917 15.1522 15.7582 14.9789C16.7525 14.3325 18.0344 14.3325 19.0287 14.9789C19.8115 15.4879 20.7899 16.4464 21.2126 17.2821C21.6432 18.1334 21.6432 19.1388 21.2126 19.9902C20.7179 20.9681 19.5158 22.1086 18.5564 22.6475C18.0064 22.9565 17.2162 23.162 16.5854 23.1601C16.0335 23.1585 15.631 23.0441 15.112 22.8966C11.8028 21.9561 8.7718 20.1861 6.33792 17.7522Z" fill="#344054"/>
</svg>
