<svg width="24" height="24" viewBox="0 0 24 24" fill="none" xmlns="http://www.w3.org/2000/svg">
<path d="M22.1262 12.6649C22.3333 12.2459 22.3333 11.7543 22.1262 11.3353C21.9437 10.9663 21.6236 10.7729 21.4578 10.6795C21.2792 10.5791 21.0504 10.4761 20.8222 10.3735L4.03845 2.82085C3.80502 2.71576 3.5723 2.61099 3.37599 2.54299C3.19576 2.48056 2.83289 2.36649 2.43113 2.47828C1.97711 2.60461 1.60886 2.93697 1.43679 3.3757C1.28452 3.76393 1.3609 4.13656 1.40459 4.32223C1.45218 4.52448 1.53262 4.76673 1.61331 5.0097L3.23779 9.90402C3.36859 10.2981 3.43399 10.4951 3.55561 10.6408C3.663 10.7695 3.801 10.8691 3.95693 10.9305C4.13352 11 4.34112 11 4.75633 11H12C12.5523 11 13 11.4477 13 12C13 12.5523 12.5523 13 12 13H4.77524C4.36108 13 4.154 13 3.97773 13.0692C3.82207 13.1304 3.68424 13.2296 3.57684 13.3578C3.45522 13.503 3.38948 13.6993 3.258 14.0921L1.62045 18.9836C1.53889 19.2272 1.45764 19.4697 1.40944 19.6722C1.36525 19.8578 1.28759 20.2311 1.43944 20.6203C1.61092 21.0599 1.97921 21.3931 2.43365 21.52C2.83608 21.6323 3.19978 21.5178 3.38006 21.4553C3.57676 21.3872 3.81006 21.2822 4.04426 21.1767L20.8222 13.6267C21.0504 13.524 21.2792 13.4211 21.4578 13.3206C21.6236 13.2273 21.9437 13.0338 22.1262 12.6649Z" fill="#344054"/>
</svg>
