<svg width="24" height="24" viewBox="0 0 24 24" fill="none" xmlns="http://www.w3.org/2000/svg">
<path fill-rule="evenodd" clip-rule="evenodd" d="M7.5 2C7.5 1.44772 7.94772 1 8.5 1H15.5C16.0523 1 16.5 1.44772 16.5 2C16.5 2.55228 16.0523 3 15.5 3H15V6.54484C18.2126 7.75693 20.5 10.8601 20.5 14.5C20.5 19.1944 16.6944 23 12 23C7.30558 23 3.5 19.1944 3.5 14.5C3.5 10.8601 5.78742 7.75692 9 6.54484V3H8.5C7.94772 3 7.5 2.55228 7.5 2ZM11 3V6.6605C11 6.66638 11 6.67235 11 6.67839C11 6.77085 11.0001 6.88127 10.9938 6.97905C10.9867 7.09132 10.9686 7.25327 10.9007 7.43043C10.811 7.66452 10.6747 7.85963 10.4857 8.02438C10.3362 8.15479 10.1806 8.22895 10.081 8.2722C9.98828 8.31241 9.87888 8.35246 9.78143 8.38814L9.76406 8.3945C7.27424 9.30662 5.5 11.6974 5.5 14.5C5.5 18.0899 8.41015 21 12 21C15.5899 21 18.5 18.0899 18.5 14.5C18.5 11.6974 16.7258 9.30662 14.2359 8.3945L14.2186 8.38814C14.1211 8.35247 14.0117 8.31241 13.919 8.2722C13.8194 8.22895 13.6638 8.15479 13.5143 8.02438L14.1714 7.27063L13.5143 8.02438C13.3253 7.85963 13.189 7.66452 13.0993 7.43043L14.0331 7.07264L13.0993 7.43042C13.0314 7.25327 13.0133 7.09132 13.0062 6.97905C12.9999 6.88128 13 6.77086 13 6.6784C13 6.67236 13 6.66639 13 6.6605V3H11Z" fill="#344054"/>
</svg>
