<svg width="24" height="24" viewBox="0 0 24 24" fill="none" xmlns="http://www.w3.org/2000/svg">
<path fill-rule="evenodd" clip-rule="evenodd" d="M8.27687 1.00001C8.28468 1.00001 8.2924 1.00001 8.30001 1.00001H15.7C15.7076 1.00001 15.7153 1.00001 15.7231 1.00001C15.8423 0.999961 15.9845 0.999906 16.1098 1.01015C16.2551 1.02201 16.463 1.05245 16.681 1.1635C16.9632 1.30731 17.1927 1.53678 17.3365 1.81903C17.4476 2.03697 17.478 2.24496 17.4899 2.39018C17.5001 2.5155 17.5001 2.65777 17.5 2.77688C17.5 2.7847 17.5 2.79241 17.5 2.80001V5.20001C17.5 5.20761 17.5 5.21533 17.5 5.22314C17.5001 5.34226 17.5001 5.48452 17.4899 5.60984C17.478 5.75506 17.4476 5.96305 17.3365 6.181C17.1927 6.46324 16.9632 6.69271 16.681 6.83652C16.463 6.94757 16.2551 6.97801 16.1098 6.98988C16.0743 6.99278 16.0374 6.99486 16 6.99634V10.5012C16 11.1063 16.008 11.2253 16.0343 11.3231C16.0648 11.4362 16.1148 11.543 16.1822 11.6388C16.2405 11.7216 16.3268 11.804 16.7916 12.1913L20.4888 15.2723C20.5131 15.2926 20.5372 15.3126 20.5612 15.3325C20.913 15.6251 21.223 15.8829 21.4534 16.2102C21.6556 16.4975 21.8057 16.8181 21.897 17.1574C22.001 17.5438 22.0005 17.947 22.0001 18.4046C22 18.4357 22 18.4671 22 18.4988V18.8386C22 18.9562 22 19.0702 21.9997 19.1805C22.0002 19.2568 22.0001 19.3353 22.0001 19.4161C22 19.4438 22 19.4718 22 19.5C22 19.5283 22 19.5562 22.0001 19.5839C22.0004 19.9646 22.0006 20.2924 21.9424 20.5853C21.8388 21.1059 21.6025 21.5769 21.2697 21.9618C21.1713 22.0756 21.0645 22.1819 20.9501 22.2797C20.5674 22.6072 20.1007 22.8398 19.5853 22.9424C19.2924 23.0006 18.9646 23.0004 18.5839 23.0001C18.5562 23 18.5282 23 18.5 23H17.9062C17.8838 23 17.8613 23 17.8386 23H6.16144C6.13875 23 6.11619 23 6.09377 23H5.50001C5.47176 23 5.44381 23 5.41613 23.0001C5.03543 23.0004 4.70759 23.0006 4.41474 22.9424C3.83829 22.8277 3.3228 22.5503 2.91756 22.1595C2.87834 22.1217 2.84016 22.0828 2.80305 22.0429C2.43197 21.6439 2.16861 21.1431 2.05765 20.5853C1.9994 20.2924 1.99966 19.9646 1.99996 19.5839C1.99998 19.5562 2.00001 19.5283 2.00001 19.5C2.00001 19.4718 1.99998 19.4438 1.99996 19.4161C1.9999 19.3353 1.99984 19.2569 2.00033 19.1806C2 19.0703 2 18.9562 2.00001 18.8386L2.00001 18.4988C2.00001 18.4671 1.99997 18.4357 1.99994 18.4046C1.99947 17.947 1.99905 17.5438 2.10302 17.1574C2.1943 16.8181 2.34445 16.4975 2.54664 16.2102C2.77697 15.8829 3.08699 15.6251 3.43881 15.3325C3.46276 15.3126 3.48691 15.2926 3.51123 15.2723L7.20841 12.1913C7.67322 11.804 7.75953 11.7216 7.81779 11.6388C7.88519 11.543 7.93524 11.4362 7.96567 11.3231C7.99197 11.2253 8.00001 11.1063 8.00001 10.5012V6.99634C7.96264 6.99486 7.92573 6.99278 7.89018 6.98988C7.74496 6.97801 7.53697 6.94757 7.31902 6.83652C7.03678 6.69271 6.80731 6.46324 6.6635 6.181C6.55245 5.96305 6.522 5.75506 6.51014 5.60984C6.4999 5.48452 6.49996 5.34227 6.5 5.22315C6.5 5.21533 6.50001 5.20762 6.50001 5.20001V2.80001C6.50001 2.79241 6.5 2.78469 6.5 2.77687C6.49996 2.65776 6.4999 2.5155 6.51014 2.39018C6.522 2.24496 6.55245 2.03697 6.6635 1.81903C6.80731 1.53678 7.03678 1.30731 7.31902 1.1635C7.53697 1.05245 7.74496 1.02201 7.89018 1.01015C8.0155 0.999906 8.15775 0.999961 8.27687 1.00001ZM10 7.00001V10.5012C10 10.5329 10 10.5643 10.0001 10.5954C10.0005 11.053 10.001 11.4562 9.89699 11.8427C9.80572 12.1819 9.65556 12.5025 9.45337 12.7898C9.22304 13.1171 8.91302 13.3749 8.5612 13.6675C8.53725 13.6874 8.51311 13.7075 8.48878 13.7277L5.76206 16H18.238L15.5112 13.7277C15.4869 13.7075 15.4628 13.6874 15.4388 13.6675C15.087 13.3749 14.777 13.1171 14.5466 12.7898C14.3445 12.5025 14.1943 12.1819 14.103 11.8427C13.999 11.4562 13.9995 11.053 13.9999 10.5954C14 10.5643 14 10.5329 14 10.5012V7.00001H10ZM8.50001 5.00001V3.00001H15.5V5.00001H8.50001ZM19.9994 19.2345C19.9976 18.9442 19.9922 18.8625 19.9808 18.8049C19.9019 18.4082 19.5918 18.0981 19.1951 18.0192C19.1228 18.0049 19.0126 18 18.5 18H5.50001C4.98742 18 4.87716 18.0049 4.80492 18.0192C4.40823 18.0981 4.09813 18.4082 4.01922 18.8049C4.00777 18.8625 4.00237 18.9442 4.00064 19.2345C4.00215 19.576 4.0072 19.8273 4.02393 20.0322C4.04613 20.3038 4.08381 20.4046 4.109 20.454C4.14581 20.5262 4.19103 20.5933 4.24343 20.6539C4.28774 20.7052 4.33719 20.7519 4.39099 20.7932C4.43931 20.8303 4.49117 20.8631 4.54602 20.891C4.59546 20.9162 4.69618 20.9539 4.96784 20.9761C5.25118 20.9992 5.62345 21 6.20001 21H17.8C18.3766 21 18.7488 20.9992 19.0322 20.9761C19.3038 20.9539 19.4046 20.9162 19.454 20.891C19.5262 20.8542 19.5933 20.809 19.6539 20.7566C19.7057 20.7118 19.7529 20.6617 19.7946 20.6072C19.8311 20.5594 19.8634 20.5082 19.891 20.454C19.9162 20.4046 19.9539 20.3038 19.9761 20.0322C19.9928 19.8273 19.9979 19.576 19.9994 19.2345Z" fill="#344054"/>
</svg>
