<svg width="24" height="24" viewBox="0 0 24 24" fill="none" xmlns="http://www.w3.org/2000/svg">
<path fill-rule="evenodd" clip-rule="evenodd" d="M5.16146 3L5.64281 3C6.72659 2.99999 7.60075 2.99998 8.30863 3.05782C9.03748 3.11737 9.67766 3.24318 10.27 3.54497C10.9535 3.89326 11.5442 4.39228 12 4.99999C12.4558 4.39228 13.0465 3.89326 13.73 3.54497C14.3223 3.24318 14.9625 3.11737 15.6914 3.05782C16.3993 2.99998 17.2734 2.99999 18.3572 3L18.8385 3C19.3657 2.99998 19.8205 2.99997 20.195 3.03057C20.5904 3.06287 20.9836 3.13419 21.362 3.32698C21.9265 3.6146 22.3854 4.07354 22.673 4.63803C22.8658 5.01641 22.9371 5.40963 22.9694 5.80497C23 6.17954 23 6.6343 23 7.16144V16.8386C23 17.3657 23 17.8205 22.9694 18.195C22.9371 18.5904 22.8658 18.9836 22.673 19.362C22.3854 19.9265 21.9265 20.3854 21.362 20.673C20.9836 20.8658 20.5904 20.9371 20.195 20.9694C19.8205 21 19.3657 21 18.8386 21H5.16144C4.6343 21 4.17954 21 3.80497 20.9694C3.40963 20.9371 3.01641 20.8658 2.63803 20.673C2.07354 20.3854 1.6146 19.9265 1.32698 19.362C1.13419 18.9836 1.06287 18.5904 1.03057 18.195C0.999967 17.8205 0.999983 17.3657 1 16.8385V7.16146C0.999983 6.63431 0.999967 6.17955 1.03057 5.80497C1.06287 5.40963 1.13419 5.01641 1.32698 4.63803C1.6146 4.07354 2.07354 3.6146 2.63803 3.32698C3.01641 3.13419 3.40963 3.06287 3.80497 3.03057C4.17955 2.99997 4.63431 2.99998 5.16146 3ZM11 10.4C11 9.2634 10.9992 8.47108 10.9488 7.85424C10.8994 7.24907 10.8072 6.90139 10.673 6.63803C10.3854 6.07354 9.92646 5.6146 9.36197 5.32698C9.09862 5.1928 8.75093 5.10062 8.14576 5.05118C7.52892 5.00078 6.73661 5 5.6 5H5.2C4.62345 5 4.25117 5.00078 3.96784 5.02393C3.69617 5.04612 3.59546 5.0838 3.54601 5.109C3.35785 5.20487 3.20487 5.35785 3.109 5.54601C3.0838 5.59546 3.04612 5.69617 3.02393 5.96784C3.00078 6.25117 3 6.62345 3 7.2V16.8C3 17.3766 3.00078 17.7488 3.02393 18.0322C3.04612 18.3038 3.0838 18.4045 3.109 18.454C3.20487 18.6422 3.35785 18.7951 3.54601 18.891C3.59546 18.9162 3.69617 18.9539 3.96784 18.9761C4.25117 18.9992 4.62345 19 5.2 19H11V10.4ZM13 19V10.4C13 9.2634 13.0008 8.47108 13.0512 7.85424C13.1006 7.24907 13.1928 6.90139 13.327 6.63803C13.6146 6.07354 14.0735 5.6146 14.638 5.32698C14.9014 5.1928 15.2491 5.10062 15.8542 5.05118C16.4711 5.00078 17.2634 5 18.4 5H18.8C19.3766 5 19.7488 5.00078 20.0322 5.02393C20.3038 5.04612 20.4046 5.0838 20.454 5.109C20.6422 5.20487 20.7951 5.35785 20.891 5.54601C20.9162 5.59546 20.9539 5.69617 20.9761 5.96784C20.9992 6.25117 21 6.62345 21 7.2V16.8C21 17.3766 20.9992 17.7488 20.9761 18.0322C20.9539 18.3038 20.9162 18.4045 20.891 18.454C20.7951 18.6422 20.6422 18.7951 20.454 18.891C20.4045 18.9162 20.3038 18.9539 20.0322 18.9761C19.7488 18.9992 19.3766 19 18.8 19H13Z" fill="#344054"/>
</svg>
