<svg width="24" height="24" viewBox="0 0 24 24" fill="none" xmlns="http://www.w3.org/2000/svg">
<path fill-rule="evenodd" clip-rule="evenodd" d="M2 4.22222C2 2.54435 3.24665 1 5 1H19C20.7534 1 22 2.54435 22 4.22222V19.7778C22 21.4557 20.7534 23 19 23H5C3.24665 23 2 21.4557 2 19.7778V4.22222ZM5 3C4.54421 3 4 3.4455 4 4.22222V19.7778C4 20.5545 4.54421 21 5 21H19C19.4558 21 20 20.5545 20 19.7778V4.22222C20 3.4455 19.4558 3 19 3H5ZM11.997 4.93295C12.9947 4.34021 14.2966 4.30951 15.3617 5.15259C16.6948 6.20783 16.8659 8.04646 15.8275 9.31902C15.4216 9.81652 14.5912 10.5752 13.9285 11.1598C13.5838 11.4638 13.2617 11.7404 13.0259 11.9409C12.9079 12.0412 12.8113 12.1228 12.7439 12.1794L12.6657 12.2449L12.6379 12.2681C12.6378 12.2682 12.6373 12.2687 11.9976 11.5C11.358 12.2687 11.3579 12.2686 11.3579 12.2686L11.3295 12.2449L11.2513 12.1794C11.1839 12.1228 11.0873 12.0412 10.9693 11.9409C10.7335 11.7404 10.4114 11.4638 10.0667 11.1598C9.40403 10.5752 8.57363 9.81652 8.16768 9.31902C7.11986 8.03489 7.32953 6.21354 8.62297 5.16103C9.68367 4.2979 10.9974 4.33944 11.997 4.93295ZM11.9976 11.5L11.3579 12.2686C11.7285 12.577 12.2672 12.5766 12.6379 12.2681L11.9976 11.5ZM11.9976 10.1888C12.18 10.0321 12.3883 9.85142 12.6054 9.6599C13.2982 9.04881 13.9954 8.40089 14.2779 8.05458C14.6166 7.63953 14.571 7.07741 14.1204 6.72075C13.695 6.38402 13.1348 6.44227 12.7416 6.88014C12.5519 7.09131 12.2814 7.21194 11.9976 7.21194C11.7138 7.21194 11.4433 7.09131 11.2536 6.88014C10.8531 6.43417 10.2851 6.38697 9.88531 6.71232C9.42522 7.08671 9.38802 7.65109 9.71726 8.05458C9.99984 8.40089 10.697 9.04881 11.3898 9.6599C11.6069 9.85142 11.8153 10.0321 11.9976 10.1888ZM6 15C6 14.4477 6.44772 14 7 14H17C17.5523 14 18 14.4477 18 15C18 15.5523 17.5523 16 17 16H7C6.44772 16 6 15.5523 6 15ZM8 18.5C8 17.9477 8.44772 17.5 9 17.5H15C15.5523 17.5 16 17.9477 16 18.5C16 19.0523 15.5523 19.5 15 19.5H9C8.44772 19.5 8 19.0523 8 18.5Z" fill="#344054"/>
</svg>
