<svg width="24" height="24" viewBox="0 0 24 24" fill="none" xmlns="http://www.w3.org/2000/svg">
<path fill-rule="evenodd" clip-rule="evenodd" d="M12 1C12.5523 1 13 1.44772 13 2V3.14494C14.4458 3.57521 15.5 4.91449 15.5 6.5C15.5 7.42821 15.1387 8.27202 14.5491 8.89846L18.57 15.8234C19.1822 15.3668 19.7454 14.8478 20.2503 14.2757C20.6158 13.8617 21.2477 13.8223 21.6618 14.1877C22.0758 14.5532 22.1152 15.1851 21.7498 15.5992C21.1033 16.3317 20.3752 16.9909 19.5798 17.5626L21.8648 21.4979C22.1422 21.9755 21.9798 22.5875 21.5022 22.8648C21.0246 23.1421 20.4126 22.9797 20.1353 22.5021L17.8706 18.6019C16.1072 19.4959 14.1123 20 12 20C9.88777 20 7.89288 19.4959 6.1295 18.6019L3.86483 22.5021C3.58751 22.9797 2.97552 23.1421 2.49791 22.8648C2.0203 22.5875 1.85793 21.9755 2.13525 21.4979L4.42024 17.5626C3.62486 16.9909 2.89681 16.3317 2.2503 15.5992C1.88484 15.1851 1.92424 14.5532 2.33831 14.1877C2.75238 13.8223 3.38432 13.8617 3.74978 14.2757C4.25466 14.8478 4.81786 15.3668 5.43008 15.8234L9.45103 8.89846C8.86137 8.27202 8.50004 7.42821 8.50004 6.5C8.50004 4.91449 9.5543 3.57521 11 3.14494V2C11 1.44772 11.4478 1 12 1ZM11.2701 7.81073C11.2625 7.80603 11.2548 7.80142 11.247 7.7969C11.2395 7.79254 11.232 7.78828 11.2244 7.78414C10.7902 7.52133 10.5 7.04455 10.5 6.5C10.5 5.67157 11.1716 5 12 5C12.8285 5 13.5 5.67157 13.5 6.5C13.5 7.04455 13.2099 7.52133 12.7757 7.78414C12.7681 7.78828 12.7606 7.79254 12.7531 7.7969C12.7453 7.80142 12.7376 7.80603 12.73 7.81073C12.5139 7.9313 12.265 8 12 8C11.7351 8 11.4861 7.9313 11.2701 7.81073ZM11.1802 9.90345L7.13568 16.869C8.60235 17.5933 10.2535 18 12 18C13.7466 18 15.3977 17.5933 16.8644 16.869L12.8199 9.90345C12.5569 9.96657 12.2824 10 12 10C11.7177 10 11.4432 9.96657 11.1802 9.90345Z" fill="#344054"/>
</svg>
