<svg width="24" height="24" viewBox="0 0 24 24" fill="none" xmlns="http://www.w3.org/2000/svg">
<path fill-rule="evenodd" clip-rule="evenodd" d="M11.8026 4.52051L11.8026 4.52052L11.8026 4.52051ZM12 4.6181L19.7639 8.50006L19.5721 8.59596C19.5596 8.60193 19.5471 8.60815 19.5348 8.61463L17 9.88203L12.4472 7.60564C11.9532 7.35865 11.3526 7.55887 11.1056 8.05285C10.8586 8.54683 11.0588 9.1475 11.5528 9.39449L14.7639 11.0001L12 12.382L4.4652 8.61463C4.4529 8.60815 4.44044 8.60192 4.42784 8.59595L4.23607 8.50006L12 4.6181ZM3 10.1181L1.55279 9.39449C1.214 9.2251 1 8.87884 1 8.50006C1 8.12129 1.214 7.77503 1.55279 7.60564L11.195 2.78452C11.2024 2.78082 11.211 2.77646 11.2206 2.77155C11.3139 2.72394 11.507 2.62541 11.7234 2.5848C11.9062 2.55051 12.0938 2.55051 12.2766 2.5848C12.493 2.62541 12.6861 2.72394 12.7794 2.77155C12.789 2.77646 12.7976 2.78082 12.805 2.78452L22.4472 7.60564C22.786 7.77503 23 8.12129 23 8.50006C23 8.87884 22.786 9.2251 22.4472 9.39449L21 10.1181V16.3067C21 16.3322 21.0001 16.3584 21.0002 16.3852C21.0013 16.6709 21.0027 17.0297 20.884 17.363C20.7814 17.6509 20.6142 17.9114 20.3952 18.1246C20.1417 18.3715 19.8149 18.5197 19.5548 18.6377C19.5303 18.6488 19.5065 18.6596 19.4833 18.6702L13.0833 21.6036C13.0667 21.6112 13.0496 21.6191 13.0321 21.6272C12.8423 21.7148 12.6034 21.8252 12.3421 21.8706C12.1157 21.9099 11.8843 21.9099 11.6579 21.8706C11.3966 21.8252 11.1577 21.7148 10.9679 21.6272C10.9504 21.6191 10.9333 21.6112 10.9167 21.6036L4.5167 18.6702L4.93335 17.7612L4.51669 18.6702C4.49354 18.6596 4.46967 18.6488 4.44522 18.6377C4.1851 18.5197 3.85826 18.3715 3.60476 18.1246C3.3858 17.9114 3.21862 17.6509 3.11604 17.363C2.99727 17.0297 2.99867 16.6709 2.99979 16.3852C2.9999 16.3584 3 16.3322 3 16.3067V10.1181ZM5 11.1181V16.3067C5 16.5051 5.00047 16.6075 5.00521 16.6816C5.00536 16.6838 5.0055 16.686 5.00565 16.6881C5.00747 16.6891 5.00938 16.6901 5.01138 16.6912C5.07675 16.7264 5.16965 16.7695 5.35001 16.8521L11.75 19.7855C11.8813 19.8456 11.9473 19.8756 11.9962 19.8951C11.9975 19.8956 11.9988 19.8961 12 19.8966C12.0012 19.8961 12.0025 19.8956 12.0038 19.8951C12.0527 19.8756 12.1187 19.8456 12.25 19.7855L18.65 16.8521C18.8304 16.7695 18.9233 16.7264 18.9886 16.6912C18.9906 16.6901 18.9925 16.6891 18.9944 16.6881C18.9945 16.686 18.9946 16.6838 18.9948 16.6816C18.9995 16.6075 19 16.5051 19 16.3067V11.1181L18 11.6181V14.5001C18 15.0524 17.5523 15.5001 17 15.5001C16.4477 15.5001 16 15.0524 16 14.5001V12.6181L12.805 14.2156C12.7976 14.2193 12.789 14.2237 12.7794 14.2286C12.6861 14.2762 12.493 14.3747 12.2766 14.4153C12.0938 14.4496 11.9062 14.4496 11.7234 14.4153C11.507 14.3747 11.3139 14.2762 11.2206 14.2286C11.211 14.2237 11.2024 14.2193 11.195 14.2156L5 11.1181ZM11.8026 12.4796C11.8024 12.4797 11.8024 12.4797 11.8026 12.4796L11.8026 12.4796ZM12.1974 12.4796C12.1976 12.4797 12.1976 12.4797 12.1974 12.4796L12.1974 12.4796ZM12.1974 4.52052L12.1974 4.52051L12.1974 4.52052Z" fill="#344054"/>
</svg>
