<svg width="24" height="24" viewBox="0 0 24 24" fill="none" xmlns="http://www.w3.org/2000/svg">
<path d="M7.75874 1H16.2413C17.0463 0.999988 17.7107 0.999979 18.2519 1.0442C18.814 1.09012 19.3307 1.18868 19.816 1.43598C20.5686 1.81947 21.1806 2.43139 21.5641 3.18404C21.6371 3.32736 21.6971 3.47342 21.7467 3.62257C21.826 3.86132 21.8657 3.9807 21.8301 4.12209C21.8024 4.23216 21.7097 4.36062 21.614 4.42163C21.491 4.5 21.3384 4.5 21.0332 4.5H2.96684C2.66164 4.5 2.50903 4.5 2.38608 4.42163C2.29037 4.36062 2.19769 4.23216 2.16997 4.12209C2.13437 3.9807 2.17404 3.86132 2.25337 3.62257C2.30293 3.47342 2.36299 3.32736 2.43601 3.18404C2.81951 2.43139 3.43143 1.81947 4.18408 1.43598C4.66941 1.18868 5.18612 1.09012 5.74821 1.0442C6.2894 0.999979 6.95379 0.999988 7.75874 1Z" fill="#344054"/>
<path d="M2.79956 6.5C2.51971 6.5 2.37979 6.5 2.27285 6.55448C2.1788 6.60239 2.10228 6.67889 2.05435 6.77292C1.99984 6.87985 1.9998 7.01972 1.99973 7.29947C1.99947 8.26631 1.99981 9.23316 1.99996 10.2C2.00001 10.4801 2.00003 10.6201 2.05454 10.727C2.10248 10.8211 2.17896 10.8976 2.27304 10.9455C2.37999 11 2.52 11 2.80004 11H21.2C21.4801 11 21.6201 11 21.727 10.9455C21.8211 10.8976 21.8976 10.8211 21.9455 10.727C22 10.6201 22.0001 10.4801 22.0001 10.2C22.0003 9.23316 22.0006 8.26632 22.0003 7.29948C22.0003 7.01973 22.0002 6.87985 21.9457 6.77292C21.8978 6.67889 21.8213 6.60239 21.7272 6.55448C21.6203 6.5 21.4804 6.5 21.2005 6.5H2.79956Z" fill="#344054"/>
<path fill-rule="evenodd" clip-rule="evenodd" d="M22 13.8C22 13.52 22 13.38 21.9455 13.273C21.8976 13.1789 21.8211 13.1024 21.727 13.0545C21.6201 13 21.4801 13 21.2 13H2.80004C2.52001 13 2.38 13 2.27304 13.0545C2.17896 13.1024 2.10247 13.1789 2.05454 13.273C2.00004 13.38 2.00004 13.52 2.00004 13.8V14.2413C2.00003 15.0463 2.00002 15.7106 2.04423 16.2518C2.09016 16.8139 2.18872 17.3306 2.43601 17.816C2.78775 18.5063 3.33165 19.0782 4.00004 19.4641L4.00003 21.2231C3.99998 21.3423 3.99993 21.4845 4.01017 21.6098C4.02203 21.755 4.05248 21.963 4.16353 22.181C4.30734 22.4632 4.53681 22.6927 4.81905 22.8365C5.037 22.9476 5.24499 22.978 5.3902 22.9899C5.51549 23.0001 5.65771 23.0001 5.77681 23H7.72318C7.84227 23.0001 7.98458 23.0001 8.10987 22.9899C8.25508 22.978 8.46308 22.9476 8.68102 22.8365C8.96326 22.6927 9.19274 22.4632 9.33655 22.181C9.44759 21.963 9.47804 21.755 9.4899 21.6098C9.50014 21.4845 9.50009 21.3423 9.50004 21.2231L9.50004 20H14.5L14.5 21.2231C14.5 21.3422 14.4999 21.4845 14.5102 21.6098C14.522 21.755 14.5525 21.963 14.6635 22.181C14.8073 22.4632 15.0368 22.6927 15.319 22.8365C15.537 22.9476 15.745 22.978 15.8902 22.9899C16.0155 23.0001 16.1577 23.0001 16.2768 23H18.2232C18.3423 23.0001 18.4846 23.0001 18.6099 22.9899C18.7551 22.978 18.9631 22.9476 19.181 22.8365C19.4633 22.6927 19.6927 22.4632 19.8365 22.181C19.9476 21.963 19.978 21.755 19.9899 21.6098C20.0001 21.4845 20.0001 21.3423 20 21.2232L20 19.4641C20.6684 19.0782 21.2123 18.5063 21.5641 17.816C21.8114 17.3306 21.9099 16.8139 21.9558 16.2518C22.0001 15.7106 22.0001 15.0463 22 14.2413V13.8ZM5.50004 15.5C5.50004 14.9477 5.94775 14.5 6.50004 14.5H8.00004C8.55232 14.5 9.00004 14.9477 9.00004 15.5C9.00004 16.0523 8.55232 16.5 8.00004 16.5H6.50004C5.94775 16.5 5.50004 16.0523 5.50004 15.5ZM16 14.5C15.4478 14.5 15 14.9477 15 15.5C15 16.0523 15.4478 16.5 16 16.5H17.5C18.0523 16.5 18.5 16.0523 18.5 15.5C18.5 14.9477 18.0523 14.5 17.5 14.5H16Z" fill="#344054"/>
</svg>
