<svg width="24" height="24" viewBox="0 0 24 24" fill="none" xmlns="http://www.w3.org/2000/svg">
<path fill-rule="evenodd" clip-rule="evenodd" d="M8.16134 2.99965C10.7204 3.00348 13.2795 3.00348 15.8386 2.99965C16.5221 2.99863 17.122 2.99774 17.6565 3.20796C18.1239 3.39178 18.5376 3.69 18.8598 4.07527C19.2283 4.51588 19.4171 5.08526 19.6323 5.73398C19.8465 6.37976 20.0619 7.02512 20.2773 7.67048L20.584 8.58973L21.5528 8.10537C22.0467 7.85838 22.6474 8.0586 22.8944 8.55258C23.1414 9.04656 22.9412 9.64723 22.4472 9.89422L21.8498 10.1929C22.1354 10.4829 22.3769 10.8166 22.564 11.1838C22.8113 11.6692 22.9099 12.1859 22.9558 12.748C23 13.2892 23 13.9535 23 14.7585L22.9998 15.6863C22.9997 16.3187 22.9995 16.9512 23 17.5837C23.0003 17.9644 23.0006 18.2922 22.9423 18.5851C22.7056 19.7751 21.7753 20.7054 20.5852 20.9422C20.1895 21.0209 19.7759 21.0127 19.3682 21.0047C19.2447 21.0022 19.1217 20.9998 19 20.9998C17.5135 20.9998 16.2795 19.9187 16.0415 18.4998H7.9585C7.72046 19.9187 6.48647 20.9998 4.99997 20.9998C4.8782 20.9998 4.75525 21.0022 4.63176 21.0047C4.22401 21.0127 3.81046 21.0209 3.4147 20.9422C2.22463 20.7054 1.29434 19.7751 1.05762 18.5851C0.999367 18.2922 0.999628 17.9644 0.999931 17.5837C1.00044 16.9494 1.00028 16.3152 1.00013 15.6809L0.999974 14.7585C0.999962 13.9535 0.999951 13.2892 1.04417 12.748C1.09009 12.1859 1.18866 11.6692 1.43595 11.1838C1.62304 10.8166 1.86451 10.4829 2.15016 10.1929L1.55276 9.89422C1.05878 9.64723 0.858558 9.04656 1.10555 8.55258C1.35254 8.0586 1.95321 7.85838 2.44719 8.10537L3.41591 8.58973L3.72262 7.67048C3.93799 7.0253 4.15355 6.37956 4.36767 5.73397C4.58284 5.08525 4.77168 4.51588 5.14015 4.07527C5.46233 3.69 5.87609 3.39178 6.34347 3.20796C6.87799 2.99774 7.47787 2.99863 8.16134 2.99965ZM5.38356 9.0113C5.78758 8.99978 6.24444 8.99979 6.75868 8.9998H17.2413C17.7555 8.99979 18.2124 8.99978 18.6164 9.0113L17.7806 6.50409C17.4914 5.63633 17.4177 5.46849 17.3256 5.35829C17.2182 5.22986 17.0803 5.13046 16.9245 5.06918C16.7908 5.0166 16.6082 4.9998 15.6935 4.9998H8.3064C7.3917 4.9998 7.20918 5.0166 7.07549 5.06918C6.91969 5.13046 6.78177 5.22986 6.67438 5.35829C6.58222 5.46849 6.50856 5.63633 6.2193 6.50409L5.38356 9.0113ZM3.99997 13C3.99997 12.4477 4.44768 12 4.99997 12H7.99997C8.55225 12 8.99997 12.4477 8.99997 13C8.99997 13.5523 8.55225 14 7.99997 14H4.99997C4.44768 14 3.99997 13.5523 3.99997 13ZM16 12C15.4477 12 15 12.4477 15 13C15 13.5523 15.4477 14 16 14H19C19.5523 14 20 13.5523 20 13C20 12.4477 19.5523 12 19 12H16Z" fill="#344054"/>
</svg>
