<svg width="24" height="24" viewBox="0 0 24 24" fill="none" xmlns="http://www.w3.org/2000/svg">
<path d="M12.6657 1.90254C12.2439 1.69199 11.7476 1.69199 11.3258 1.90254C10.9525 2.08891 10.7595 2.41706 10.6676 2.58421C10.5675 2.76638 10.4649 3.00031 10.362 3.23501L3.05073 19.9047C2.93566 20.167 2.82421 20.421 2.7529 20.6318C2.69129 20.8139 2.56638 21.2071 2.70011 21.63C2.84758 22.0964 3.21319 22.4616 3.67975 22.6085C4.10282 22.7417 4.49584 22.6164 4.67791 22.5545C4.88863 22.483 5.14253 22.3712 5.4047 22.2558L11.9957 19.3558L18.5868 22.2559C18.8489 22.3712 19.1028 22.483 19.3135 22.5545C19.4956 22.6164 19.8886 22.7417 20.3117 22.6085C20.7783 22.4616 21.1439 22.0964 21.2913 21.63C21.4251 21.2071 21.3002 20.8139 21.2385 20.6318C21.1672 20.421 21.0558 20.167 20.9407 19.9047L13.6295 3.23506C13.5266 3.00034 13.424 2.7664 13.3238 2.58421C13.2319 2.41706 13.039 2.08891 12.6657 1.90254Z" fill="#344054"/>
</svg>
