<svg width="24" height="24" viewBox="0 0 24 24" fill="none" xmlns="http://www.w3.org/2000/svg">
<path fill-rule="evenodd" clip-rule="evenodd" d="M17.0264 2.11716C18.3797 0.719346 20.6157 0.701264 21.9915 2.07701C23.3295 3.41506 23.3544 5.57666 22.0476 6.94519L19.05 10.0902L20.8616 17.958C20.9185 18.2011 20.9902 18.507 20.9662 18.8191C20.9454 19.0892 20.87 19.3522 20.7445 19.5922C20.3764 20.2961 19.5886 20.9397 18.9923 21.436C18.7596 21.6296 18.4424 21.8541 18.0281 21.9274C17.4863 22.0232 16.9291 21.8916 16.4874 21.5637C16.1496 21.3128 15.9662 20.9702 15.8447 20.6929C15.7267 20.4236 15.6126 20.0814 15.4884 19.7084L13.9773 15.1751L11.7761 17.3763C11.6692 17.4832 11.6156 17.5372 11.5786 17.5782L11.5757 17.5815C11.5811 17.6768 11.5934 17.7719 11.604 17.8668C11.6674 18.4375 11.7292 19.0085 11.7943 19.579C11.8191 19.7962 11.8504 20.0696 11.8068 20.3427C11.7691 20.5793 11.6891 20.8072 11.5708 21.0155C11.4342 21.256 11.239 21.45 11.084 21.6041C10.7803 21.9059 10.4765 22.2237 10.2153 22.443C10.0162 22.61 9.7569 22.7935 9.41721 22.882C8.95612 23.0022 8.46728 22.9538 8.0387 22.7455C7.72297 22.5921 7.50468 22.3613 7.34224 22.1585C6.54984 21.1689 5.93595 20.0316 5.20741 18.9952C4.17108 18.2665 3.03376 17.6528 2.04414 16.8604C1.84128 16.6979 1.61055 16.4796 1.45713 16.1639C1.24887 15.7353 1.20046 15.2465 1.32063 14.7854C1.40915 14.4457 1.59259 14.1864 1.75965 13.9874C1.97892 13.7261 2.29667 13.4223 2.5985 13.1187C2.75262 12.9636 2.9466 12.7684 3.1871 12.6318C3.39542 12.5135 3.62332 12.4335 3.85992 12.3958C4.13305 12.3522 4.40645 12.3835 4.62365 12.4083C5.19416 12.4734 5.76507 12.5352 6.33578 12.5986C6.48595 12.6153 6.56161 12.6234 6.6168 12.6267L6.62115 12.6269C6.69223 12.5631 6.75879 12.4941 6.8263 12.4266L9.0275 10.2254L4.49417 8.71426C4.12121 8.58997 3.77897 8.47593 3.50972 8.35793C3.23242 8.23641 2.88979 8.05304 2.63895 7.71523C2.31099 7.27356 2.17943 6.71629 2.27525 6.17457C2.34853 5.76025 2.57298 5.44301 2.76666 5.2103C3.26129 4.61601 3.9096 3.82455 4.61043 3.45814C4.85045 3.33265 5.11346 3.25722 5.3835 3.23642C5.69565 3.21238 6.00147 3.28407 6.24459 3.34106L14.0821 5.14586L17.0264 2.11716Z" fill="#344054"/>
</svg>
