<svg width="24" height="24" viewBox="0 0 24 24" fill="none" xmlns="http://www.w3.org/2000/svg">
<path fill-rule="evenodd" clip-rule="evenodd" d="M11.9999 3C7.02937 3 2.99993 7.02944 2.99993 12C2.99993 16.9706 7.02937 21 11.9999 21C15.3299 21 18.2389 19.192 19.7965 16.4993C20.073 16.0212 20.6848 15.8579 21.1628 16.1344C21.6409 16.4109 21.8043 17.0227 21.5277 17.5007C19.6273 20.786 16.0727 23 11.9999 23C5.9248 23 0.999931 18.0751 0.999931 12C0.999931 5.92487 5.9248 1 11.9999 1C16.0727 1 19.6273 3.21398 21.5277 6.49927C21.8043 6.97734 21.6409 7.58906 21.1628 7.86561C20.6848 8.14215 20.073 7.97879 19.7965 7.50073C18.2389 4.80801 15.3299 3 11.9999 3ZM12.7071 7.29289C13.0976 7.68342 13.0976 8.31658 12.7071 8.70711L10.4142 11H22C22.5523 11 23 11.4477 23 12C23 12.5523 22.5523 13 22 13H10.4142L12.7071 15.2929C13.0976 15.6834 13.0976 16.3166 12.7071 16.7071C12.3166 17.0976 11.6834 17.0976 11.2929 16.7071L7.29289 12.7071C6.90237 12.3166 6.90237 11.6834 7.29289 11.2929L11.2929 7.29289C11.6834 6.90237 12.3166 6.90237 12.7071 7.29289Z" fill="#344054"/>
</svg>
