<svg width="24" height="24" viewBox="0 0 24 24" fill="none" xmlns="http://www.w3.org/2000/svg">
<path fill-rule="evenodd" clip-rule="evenodd" d="M18.364 5.63604C14.8493 2.12132 9.15081 2.12132 5.63609 5.63604C3.28141 7.99071 2.50296 11.3261 3.30557 14.3315C3.44807 14.8651 3.13103 15.4132 2.59744 15.5557C2.06385 15.6982 1.51578 15.3811 1.37329 14.8476C0.394048 11.1807 1.34196 7.10174 4.22187 4.22183C8.51764 -0.0739417 15.4825 -0.0739419 19.7782 4.22183C24.074 8.51759 24.074 15.4824 19.7782 19.7782C16.8983 22.6581 12.8194 23.606 9.15249 22.6268C8.6189 22.4843 8.30186 21.9362 8.44436 21.4026C8.58685 20.869 9.13492 20.552 9.66851 20.6945C12.674 21.4971 16.0093 20.7186 18.364 18.364C21.8787 14.8492 21.8787 9.15076 18.364 5.63604ZM8.00019 9.0001C8.00019 8.44782 8.4479 8.0001 9.00019 8.0001H15.0002C15.5525 8.0001 16.0002 8.44782 16.0002 9.0001V15.0001C16.0002 15.5524 15.5525 16.0001 15.0002 16.0001C14.4479 16.0001 14.0002 15.5524 14.0002 15.0001V11.4143L5.7071 19.7072C5.31657 20.0977 4.6834 20.0977 4.29288 19.7071C3.90237 19.3166 3.90237 18.6835 4.2929 18.2929L12.5859 10.0001H9.00019C8.4479 10.0001 8.00019 9.55239 8.00019 9.0001Z" fill="#344054"/>
</svg>
