<svg width="24" height="24" viewBox="0 0 24 24" fill="none" xmlns="http://www.w3.org/2000/svg">
<path fill-rule="evenodd" clip-rule="evenodd" d="M8.97935 1.99999L6.7587 1.99999C5.95373 1.99998 5.28937 1.99997 4.74817 2.04419C4.18608 2.09011 3.66937 2.18868 3.18404 2.43597C2.43139 2.81946 1.81947 3.43138 1.43597 4.18403C1.18868 4.66937 1.09012 5.18607 1.04419 5.74817C0.999977 6.28936 0.999988 6.95372 1 7.75869V16.2413C0.999988 17.0463 0.999977 17.7106 1.04419 18.2518C1.09012 18.8139 1.18868 19.3306 1.43597 19.816C1.81947 20.5686 2.43139 21.1805 3.18404 21.564C3.66937 21.8113 4.18608 21.9099 4.74817 21.9558C5.28936 22 5.95372 22 6.75868 22H17.2413C18.0463 22 18.7106 22 19.2518 21.9558C19.8139 21.9099 20.3306 21.8113 20.816 21.564C21.5686 21.1805 22.1805 20.5686 22.564 19.816C22.8113 19.3306 22.9099 18.8139 22.9558 18.2518C23 17.7106 23 17.0463 23 16.2413V7.75867C23 6.95371 23 6.28936 22.9558 5.74817C22.9099 5.18607 22.8113 4.66937 22.564 4.18403C22.1805 3.43138 21.5686 2.81946 20.816 2.43597C20.3306 2.18868 19.8139 2.09011 19.2518 2.04419C18.7106 1.99997 18.0463 1.99998 17.2413 1.99999L16.0185 1.99999C16.0054 1.99974 15.9924 1.99974 15.9794 1.99999H9.01853C9.00543 1.99974 8.99237 1.99974 8.97935 1.99999ZM14.7802 3.99999H9.81981L9.2198 6.99999H14.1802L14.7802 3.99999ZM16.8198 3.99999L16.2198 6.99999H20.9982C20.9951 6.55447 20.9864 6.20462 20.9624 5.91103C20.9266 5.47262 20.8617 5.24841 20.782 5.09201C20.5903 4.71569 20.2843 4.40973 19.908 4.21798C19.7516 4.13829 19.5274 4.07337 19.089 4.03755C18.6389 4.00077 18.0566 3.99999 17.2 3.99999H16.8198ZM21 8.99999H15.0207C15.0076 9.00025 14.9946 9.00025 14.9815 8.99999H8.02065C8.00763 9.00025 7.99457 9.00025 7.98147 8.99999H3V16.2C3 17.0566 3.00078 17.6389 3.03755 18.089C3.07337 18.5274 3.1383 18.7516 3.21799 18.908C3.40973 19.2843 3.7157 19.5903 4.09202 19.782C4.24842 19.8617 4.47262 19.9266 4.91104 19.9624C5.36113 19.9992 5.94342 20 6.8 20H17.2C18.0566 20 18.6389 19.9992 19.089 19.9624C19.5274 19.9266 19.7516 19.8617 19.908 19.782C20.2843 19.5903 20.5903 19.2843 20.782 18.908C20.8617 18.7516 20.9266 18.5274 20.9624 18.089C20.9992 17.6389 21 17.0566 21 16.2V8.99999ZM3.00176 6.99999H7.1802L7.7802 3.99999H6.8C5.94342 3.99999 5.36113 4.00077 4.91104 4.03755C4.47262 4.07337 4.24842 4.13829 4.09202 4.21798C3.7157 4.40973 3.40973 4.71569 3.21799 5.09201C3.1383 5.24841 3.07337 5.47262 3.03755 5.91103C3.01357 6.20462 3.00489 6.55447 3.00176 6.99999Z" fill="#344054"/>
</svg>
