<svg width="24" height="24" viewBox="0 0 24 24" fill="none" xmlns="http://www.w3.org/2000/svg">
<path fill-rule="evenodd" clip-rule="evenodd" d="M19.968 4.19881C19.8297 4.20972 19.6394 4.24055 19.3014 4.29689L10.5014 5.76356C10.249 5.80561 10.1145 5.82871 10.0186 5.85223C10.0152 5.85306 10.012 5.85388 10.0089 5.85466C10.0086 5.85782 10.0084 5.86116 10.0081 5.86467C10.0007 5.96305 10 6.09959 10 6.35539V18C10 20.2091 8.20914 22 6 22C3.79086 22 2 20.2091 2 18C2 15.7909 3.79086 14 6 14C6.72857 14 7.41165 14.1948 8 14.5351V6.35539C8 6.34592 8 6.33644 8 6.32697C7.99997 6.11086 7.99994 5.89702 8.0138 5.71384C8.02921 5.5101 8.0654 5.27326 8.17521 5.0285C8.32965 4.68423 8.57833 4.39067 8.89253 4.18173C9.11591 4.03319 9.34357 3.95854 9.54201 3.90985C9.72042 3.86607 9.93135 3.83094 10.1445 3.79544L19.0074 2.31829C19.2977 2.26987 19.5753 2.22358 19.8106 2.20501C20.0646 2.18496 20.3747 2.18611 20.6964 2.3056C21.1347 2.46842 21.5022 2.7797 21.7349 3.18533C21.9056 3.48303 21.9577 3.78863 21.9797 4.04252C22.0001 4.27769 22 4.55907 22 4.85341L22 16C22 18.2091 20.2091 20 18 20C15.7909 20 14 18.2091 14 16C14 13.7909 15.7909 12 18 12C18.7286 12 19.4117 12.1948 20 12.5351V4.88873C20 4.54602 19.9991 4.35321 19.9872 4.21508C19.9866 4.20887 19.9861 4.20303 19.9855 4.19753C19.98 4.1979 19.9742 4.19832 19.968 4.19881ZM20 16C20 14.8954 19.1046 14 18 14C16.8954 14 16 14.8954 16 16C16 17.1046 16.8954 18 18 18C19.1046 18 20 17.1046 20 16ZM8 18C8 16.8954 7.10457 16 6 16C4.89543 16 4 16.8954 4 18C4 19.1046 4.89543 20 6 20C7.10457 20 8 19.1046 8 18Z" fill="#344054"/>
</svg>
