<svg width="24" height="24" viewBox="0 0 24 24" fill="none" xmlns="http://www.w3.org/2000/svg">
<path fill-rule="evenodd" clip-rule="evenodd" d="M19.9506 20.9272C20.6848 10.8439 13.1562 3.3153 3.07286 4.04949C2.52204 4.08959 2.04299 3.67557 2.00288 3.12475C1.96278 2.57392 2.3768 2.09487 2.92762 2.05477C14.2276 1.232 22.7681 9.77245 21.9453 21.0725C21.9052 21.6233 21.4262 22.0373 20.8753 21.9972C20.3245 21.9571 19.9105 21.4781 19.9506 20.9272ZM12.0431 11.9569C9.92648 9.84028 6.79444 8.67002 3.09799 9.03307C2.54835 9.08705 2.05902 8.68524 2.00503 8.1356C1.95105 7.58596 2.35286 7.09663 2.9025 7.04264C7.14381 6.62609 10.8825 7.96788 13.4573 10.5427C16.0321 13.1175 17.3739 16.8562 16.9573 21.0975C16.9033 21.6471 16.414 22.0489 15.8644 21.9949C15.3147 21.941 14.9129 21.4516 14.9669 20.902C15.3299 17.2055 14.1597 14.0735 12.0431 11.9569ZM8.51797 15.4814C7.33433 14.2976 5.48068 13.6608 3.14893 14.0114C2.60278 14.0935 2.09348 13.7173 2.01136 13.1712C1.92924 12.625 2.30541 12.1157 2.85156 12.0336C5.70478 11.6046 8.22894 12.3638 9.93225 14.0673C11.6355 15.7707 12.3947 18.295 11.9663 21.1481C11.8843 21.6943 11.3751 22.0705 10.8289 21.9885C10.2827 21.9065 9.90647 21.3973 9.98847 20.8511C10.3386 18.5192 9.70165 16.6652 8.51797 15.4814ZM5 18C4.44794 18 4 18.448 4 19C4 19.5521 4.44794 20 5 20C5.55206 20 6 19.5521 6 19C6 18.448 5.55206 18 5 18ZM2 19C2 17.3434 3.34337 16 5 16C6.65663 16 8 17.3434 8 19C8 20.6566 6.65663 22 5 22C3.34337 22 2 20.6566 2 19Z" fill="#344054"/>
</svg>
